{
  "header": {
    "keySignatures": [],
    "meta": [
      {
        "text": "By Jay Reichard (silentzora@yahoo.com)",
        "ticks": 0,
        "type": "text"
      },
      {
        "text": "Generated by NoteWorthy Composer",
        "ticks": 0,
        "type": "text"
      }
    ],
    "name": "Bonetrousle",
    "ppq": 192,
    "tempos": [
      {
        "bpm": 150,
        "ticks": 0
      },
      {
        "bpm": 150,
        "ticks": 27648
      },
      {
        "bpm": 150,
        "ticks": 55296
      }
    ],
    "timeSignatures": [
      {
        "ticks": 0,
        "timeSignature": [
          4,
          4
        ],
        "measures": 0
      }
    ]
  },
  "tracks": [
    {
      "channel": 12,
      "controlChanges": {
        "7": [
          {
            "number": 7,
            "ticks": 0,
            "time": 0,
            "value": 1
          }
        ],
        "10": [
          {
            "number": 10,
            "ticks": 0,
            "time": 0,
            "value": 0.5039370078740157
          }
        ]
      },
      "pitchBends": [],
      "instrument": {
        "family": "synth lead",
        "number": 80,
        "name": "lead 1 (square)"
      },
      "name": "Staff-5",
      "notes": [
        {
          "duration": 0.09583333333333499,
          "durationTicks": 46,
          "midi": 75,
          "name": "D#5",
          "ticks": 9312,
          "time": 19.400000000000002,
          "velocity": 0.8503937007874016
        },
        {
          "duration": 0.09583333333333499,
          "durationTicks": 46,
          "midi": 72,
          "name": "C5",
          "ticks": 9408,
          "time": 19.6,
          "velocity": 0.8503937007874016
        },
        {
          "duration": 0.09583333333333499,
          "durationTicks": 46,
          "midi": 67,
          "name": "G4",
          "ticks": 9504,
          "time": 19.8,
          "velocity": 0.8503937007874016
        },
        {
          "duration": 0.40000000000000213,
          "durationTicks": 192,
          "midi": 71,
          "name": "B4",
          "ticks": 9600,
          "time": 20,
          "velocity": 0.8503937007874016
        },
        {
          "duration": 0.3999999999999986,
          "durationTicks": 192,
          "midi": 80,
          "name": "G#5",
          "ticks": 9792,
          "time": 20.400000000000002,
          "velocity": 0.8503937007874016
        },
        {
          "duration": 0.09583333333333499,
          "durationTicks": 46,
          "midi": 79,
          "name": "G5",
          "ticks": 9984,
          "time": 20.8,
          "velocity": 0.8503937007874016
        },
        {
          "duration": 0.09583333333333499,
          "durationTicks": 46,
          "midi": 78,
          "name": "F#5",
          "ticks": 10080,
          "time": 21,
          "velocity": 0.8503937007874016
        },
        {
          "duration": 0.3999999999999986,
          "durationTicks": 192,
          "midi": 79,
          "name": "G5",
          "ticks": 10176,
          "time": 21.200000000000003,
          "velocity": 0.8503937007874016
        },
        {
          "duration": 0.09583333333333499,
          "durationTicks": 46,
          "midi": 84,
          "name": "C6",
          "ticks": 10368,
          "time": 21.6,
          "velocity": 0.8503937007874016
        },
        {
          "duration": 0.09583333333333499,
          "durationTicks": 46,
          "midi": 79,
          "name": "G5",
          "ticks": 10464,
          "time": 21.8,
          "velocity": 0.8503937007874016
        },
        {
          "duration": 0.09583333333333499,
          "durationTicks": 46,
          "midi": 75,
          "name": "D#5",
          "ticks": 10560,
          "time": 22,
          "velocity": 0.8503937007874016
        },
        {
          "duration": 0.09583333333333144,
          "durationTicks": 46,
          "midi": 72,
          "name": "C5",
          "ticks": 10656,
          "time": 22.200000000000003,
          "velocity": 0.8503937007874016
        },
        {
          "duration": 0.09583333333333499,
          "durationTicks": 46,
          "midi": 67,
          "name": "G4",
          "ticks": 10752,
          "time": 22.400000000000002,
          "velocity": 0.8503937007874016
        },
        {
          "duration": 0.09583333333333499,
          "durationTicks": 46,
          "midi": 72,
          "name": "C5",
          "ticks": 10848,
          "time": 22.6,
          "velocity": 0.8503937007874016
        },
        {
          "duration": 0.40000000000000213,
          "durationTicks": 192,
          "midi": 74,
          "name": "D5",
          "ticks": 10944,
          "time": 22.8,
          "velocity": 0.8503937007874016
        },
        {
          "duration": 0.09583333333333144,
          "durationTicks": 46,
          "midi": 75,
          "name": "D#5",
          "ticks": 11136,
          "time": 23.200000000000003,
          "velocity": 0.8503937007874016
        },
        {
          "duration": 0.09583333333333499,
          "durationTicks": 46,
          "midi": 72,
          "name": "C5",
          "ticks": 11232,
          "time": 23.400000000000002,
          "velocity": 0.8503937007874016
        },
        {
          "duration": 0.09583333333333499,
          "durationTicks": 46,
          "midi": 67,
          "name": "G4",
          "ticks": 11328,
          "time": 23.6,
          "velocity": 0.8503937007874016
        },
        {
          "duration": 0.09583333333333499,
          "durationTicks": 46,
          "midi": 63,
          "name": "D#4",
          "ticks": 11424,
          "time": 23.8,
          "velocity": 0.8503937007874016
        },
        {
          "duration": 0.09583333333333499,
          "durationTicks": 46,
          "midi": 67,
          "name": "G4",
          "ticks": 11520,
          "time": 24,
          "velocity": 0.8503937007874016
        },
        {
          "duration": 0.09583333333333144,
          "durationTicks": 46,
          "midi": 72,
          "name": "C5",
          "ticks": 11616,
          "time": 24.200000000000003,
          "velocity": 0.8503937007874016
        },
        {
          "duration": 0.3999999999999986,
          "durationTicks": 192,
          "midi": 74,
          "name": "D5",
          "ticks": 11712,
          "time": 24.400000000000002,
          "velocity": 0.8503937007874016
        },
        {
          "duration": 0.09583333333333499,
          "durationTicks": 46,
          "midi": 72,
          "name": "C5",
          "ticks": 11904,
          "time": 24.8,
          "velocity": 0.8503937007874016
        },
        {
          "duration": 0.09583333333333144,
          "durationTicks": 46,
          "midi": 56,
          "name": "G#3",
          "ticks": 15456,
          "time": 32.2,
          "velocity": 0.7244094488188977
        },
        {
          "duration": 0.09583333333333144,
          "durationTicks": 46,
          "midi": 60,
          "name": "C4",
          "ticks": 15552,
          "time": 32.4,
          "velocity": 0.7244094488188977
        },
        {
          "duration": 0.09583333333333144,
          "durationTicks": 46,
          "midi": 65,
          "name": "F4",
          "ticks": 15648,
          "time": 32.6,
          "velocity": 0.7244094488188977
        },
        {
          "duration": 0.3999999999999986,
          "durationTicks": 192,
          "midi": 68,
          "name": "G#4",
          "ticks": 15744,
          "time": 32.800000000000004,
          "velocity": 0.7244094488188977
        },
        {
          "duration": 0.3999999999999986,
          "durationTicks": 192,
          "midi": 65,
          "name": "F4",
          "ticks": 15936,
          "time": 33.2,
          "velocity": 0.7244094488188977
        },
        {
          "duration": 0.09583333333333144,
          "durationTicks": 46,
          "midi": 62,
          "name": "D4",
          "ticks": 16128,
          "time": 33.6,
          "velocity": 0.7244094488188977
        },
        {
          "duration": 0.09583333333333144,
          "durationTicks": 46,
          "midi": 63,
          "name": "D#4",
          "ticks": 16224,
          "time": 33.800000000000004,
          "velocity": 0.7244094488188977
        },
        {
          "duration": 0.04583333333333428,
          "durationTicks": 22,
          "midi": 65,
          "name": "F4",
          "ticks": 16320,
          "time": 34,
          "velocity": 0.7244094488188977
        },
        {
          "duration": 0.045833333333327175,
          "durationTicks": 22,
          "midi": 65,
          "name": "F4",
          "ticks": 16344,
          "time": 34.050000000000004,
          "velocity": 0.7244094488188977
        },
        {
          "duration": 0.2958333333333343,
          "durationTicks": 142,
          "midi": 65,
          "name": "F4",
          "ticks": 16368,
          "time": 34.1,
          "velocity": 0.7244094488188977
        },
        {
          "duration": 0.09583333333333144,
          "durationTicks": 46,
          "midi": 62,
          "name": "D4",
          "ticks": 16512,
          "time": 34.4,
          "velocity": 0.7244094488188977
        },
        {
          "duration": 0.09583333333333144,
          "durationTicks": 46,
          "midi": 59,
          "name": "B3",
          "ticks": 16608,
          "time": 34.6,
          "velocity": 0.7244094488188977
        },
        {
          "duration": 0.09583333333333144,
          "durationTicks": 46,
          "midi": 60,
          "name": "C4",
          "ticks": 16704,
          "time": 34.800000000000004,
          "velocity": 0.7244094488188977
        },
        {
          "duration": 0.09583333333333144,
          "durationTicks": 46,
          "midi": 62,
          "name": "D4",
          "ticks": 16800,
          "time": 35,
          "velocity": 0.7244094488188977
        },
        {
          "duration": 0.29999999999999716,
          "durationTicks": 144,
          "midi": 63,
          "name": "D#4",
          "ticks": 16896,
          "time": 35.2,
          "velocity": 0.7244094488188977
        },
        {
          "duration": 0.05000000000000426,
          "durationTicks": 24,
          "midi": 65,
          "name": "F4",
          "ticks": 17040,
          "time": 35.5,
          "velocity": 0.7244094488188977
        },
        {
          "duration": 0.04999999999999716,
          "durationTicks": 24,
          "midi": 63,
          "name": "D#4",
          "ticks": 17064,
          "time": 35.550000000000004,
          "velocity": 0.7244094488188977
        },
        {
          "duration": 0.09583333333333144,
          "durationTicks": 46,
          "midi": 62,
          "name": "D4",
          "ticks": 17088,
          "time": 35.6,
          "velocity": 0.7244094488188977
        },
        {
          "duration": 0.09583333333333144,
          "durationTicks": 46,
          "midi": 60,
          "name": "C4",
          "ticks": 17184,
          "time": 35.800000000000004,
          "velocity": 0.7244094488188977
        },
        {
          "duration": 0.3999999999999986,
          "durationTicks": 192,
          "midi": 68,
          "name": "G#4",
          "ticks": 17280,
          "time": 36,
          "velocity": 0.7244094488188977
        },
        {
          "duration": 0.09583333333333144,
          "durationTicks": 46,
          "midi": 67,
          "name": "G4",
          "ticks": 17472,
          "time": 36.4,
          "velocity": 0.7244094488188977
        },
        {
          "duration": 0.09583333333333144,
          "durationTicks": 46,
          "midi": 65,
          "name": "F4",
          "ticks": 17568,
          "time": 36.6,
          "velocity": 0.7244094488188977
        },
        {
          "duration": 0.2958333333333272,
          "durationTicks": 142,
          "midi": 63,
          "name": "D#4",
          "ticks": 17664,
          "time": 36.800000000000004,
          "velocity": 0.7244094488188977
        },
        {
          "duration": 0.04583333333333428,
          "durationTicks": 22,
          "midi": 65,
          "name": "F4",
          "ticks": 17808,
          "time": 37.1,
          "velocity": 0.7244094488188977
        },
        {
          "duration": 0.04583333333333428,
          "durationTicks": 22,
          "midi": 63,
          "name": "D#4",
          "ticks": 17832,
          "time": 37.15,
          "velocity": 0.7244094488188977
        },
        {
          "duration": 0.09583333333333144,
          "durationTicks": 46,
          "midi": 62,
          "name": "D4",
          "ticks": 17856,
          "time": 37.2,
          "velocity": 0.7244094488188977
        },
        {
          "duration": 0.09583333333333144,
          "durationTicks": 46,
          "midi": 65,
          "name": "F4",
          "ticks": 17952,
          "time": 37.4,
          "velocity": 0.7244094488188977
        },
        {
          "duration": 0.7000000000000028,
          "durationTicks": 336,
          "midi": 63,
          "name": "D#4",
          "ticks": 18048,
          "time": 37.6,
          "velocity": 0.7244094488188977
        },
        {
          "duration": 0.09583333333333144,
          "durationTicks": 46,
          "midi": 56,
          "name": "G#3",
          "ticks": 18528,
          "time": 38.6,
          "velocity": 0.7244094488188977
        },
        {
          "duration": 0.09583333333333144,
          "durationTicks": 46,
          "midi": 60,
          "name": "C4",
          "ticks": 18624,
          "time": 38.800000000000004,
          "velocity": 0.7244094488188977
        },
        {
          "duration": 0.09583333333333144,
          "durationTicks": 46,
          "midi": 65,
          "name": "F4",
          "ticks": 18720,
          "time": 39,
          "velocity": 0.7244094488188977
        },
        {
          "duration": 0.3999999999999986,
          "durationTicks": 192,
          "midi": 68,
          "name": "G#4",
          "ticks": 18816,
          "time": 39.2,
          "velocity": 0.7244094488188977
        },
        {
          "duration": 0.3999999999999986,
          "durationTicks": 192,
          "midi": 65,
          "name": "F4",
          "ticks": 19008,
          "time": 39.6,
          "velocity": 0.7244094488188977
        },
        {
          "duration": 0.09583333333333144,
          "durationTicks": 46,
          "midi": 62,
          "name": "D4",
          "ticks": 19200,
          "time": 40,
          "velocity": 0.7244094488188977
        },
        {
          "duration": 0.09583333333333144,
          "durationTicks": 46,
          "midi": 63,
          "name": "D#4",
          "ticks": 19296,
          "time": 40.2,
          "velocity": 0.7244094488188977
        },
        {
          "duration": 0.045833333333327175,
          "durationTicks": 22,
          "midi": 65,
          "name": "F4",
          "ticks": 19392,
          "time": 40.400000000000006,
          "velocity": 0.7244094488188977
        },
        {
          "duration": 0.04583333333333428,
          "durationTicks": 22,
          "midi": 65,
          "name": "F4",
          "ticks": 19416,
          "time": 40.45,
          "velocity": 0.7244094488188977
        },
        {
          "duration": 0.2958333333333343,
          "durationTicks": 142,
          "midi": 65,
          "name": "F4",
          "ticks": 19440,
          "time": 40.5,
          "velocity": 0.7244094488188977
        },
        {
          "duration": 0.09583333333333144,
          "durationTicks": 46,
          "midi": 62,
          "name": "D4",
          "ticks": 19584,
          "time": 40.800000000000004,
          "velocity": 0.7244094488188977
        },
        {
          "duration": 0.09583333333333144,
          "durationTicks": 46,
          "midi": 59,
          "name": "B3",
          "ticks": 19680,
          "time": 41,
          "velocity": 0.7244094488188977
        },
        {
          "duration": 0.09583333333333144,
          "durationTicks": 46,
          "midi": 60,
          "name": "C4",
          "ticks": 19776,
          "time": 41.2,
          "velocity": 0.7244094488188977
        },
        {
          "duration": 0.09583333333333144,
          "durationTicks": 46,
          "midi": 62,
          "name": "D4",
          "ticks": 19872,
          "time": 41.400000000000006,
          "velocity": 0.7244094488188977
        },
        {
          "duration": 0.30000000000000426,
          "durationTicks": 144,
          "midi": 63,
          "name": "D#4",
          "ticks": 19968,
          "time": 41.6,
          "velocity": 0.7244094488188977
        },
        {
          "duration": 0.04999999999999716,
          "durationTicks": 24,
          "midi": 65,
          "name": "F4",
          "ticks": 20112,
          "time": 41.900000000000006,
          "velocity": 0.7244094488188977
        },
        {
          "duration": 0.04999999999999716,
          "durationTicks": 24,
          "midi": 63,
          "name": "D#4",
          "ticks": 20136,
          "time": 41.95,
          "velocity": 0.7244094488188977
        },
        {
          "duration": 0.09583333333333144,
          "durationTicks": 46,
          "midi": 62,
          "name": "D4",
          "ticks": 20160,
          "time": 42,
          "velocity": 0.7244094488188977
        },
        {
          "duration": 0.09583333333333144,
          "durationTicks": 46,
          "midi": 60,
          "name": "C4",
          "ticks": 20256,
          "time": 42.2,
          "velocity": 0.7244094488188977
        },
        {
          "duration": 0.3999999999999986,
          "durationTicks": 192,
          "midi": 68,
          "name": "G#4",
          "ticks": 20352,
          "time": 42.400000000000006,
          "velocity": 0.7244094488188977
        },
        {
          "duration": 0.09583333333333144,
          "durationTicks": 46,
          "midi": 70,
          "name": "A#4",
          "ticks": 20544,
          "time": 42.800000000000004,
          "velocity": 0.7244094488188977
        },
        {
          "duration": 0.09583333333333144,
          "durationTicks": 46,
          "midi": 72,
          "name": "C5",
          "ticks": 20640,
          "time": 43,
          "velocity": 0.7244094488188977
        },
        {
          "duration": 0.09583333333333144,
          "durationTicks": 46,
          "midi": 70,
          "name": "A#4",
          "ticks": 20736,
          "time": 43.2,
          "velocity": 0.7244094488188977
        },
        {
          "duration": 0.09583333333333144,
          "durationTicks": 46,
          "midi": 68,
          "name": "G#4",
          "ticks": 20832,
          "time": 43.400000000000006,
          "velocity": 0.7244094488188977
        },
        {
          "duration": 0.09583333333333144,
          "durationTicks": 46,
          "midi": 67,
          "name": "G4",
          "ticks": 20928,
          "time": 43.6,
          "velocity": 0.7244094488188977
        },
        {
          "duration": 0.09583333333333144,
          "durationTicks": 46,
          "midi": 62,
          "name": "D4",
          "ticks": 21024,
          "time": 43.800000000000004,
          "velocity": 0.7244094488188977
        },
        {
          "duration": 0.04583333333333428,
          "durationTicks": 22,
          "midi": 59,
          "name": "B3",
          "ticks": 21120,
          "time": 44,
          "velocity": 0.7244094488188977
        },
        {
          "duration": 0.045833333333327175,
          "durationTicks": 22,
          "midi": 59,
          "name": "B3",
          "ticks": 21144,
          "time": 44.050000000000004,
          "velocity": 0.7244094488188977
        },
        {
          "duration": 0.6333333333333329,
          "durationTicks": 304,
          "midi": 59,
          "name": "B3",
          "ticks": 21168,
          "time": 44.1,
          "velocity": 0.7244094488188977
        },
        {
          "duration": 0.09583333333333144,
          "durationTicks": 46,
          "midi": 56,
          "name": "G#3",
          "ticks": 21600,
          "time": 45,
          "velocity": 0.7244094488188977
        },
        {
          "duration": 0.09583333333333144,
          "durationTicks": 46,
          "midi": 60,
          "name": "C4",
          "ticks": 21696,
          "time": 45.2,
          "velocity": 0.7244094488188977
        },
        {
          "duration": 0.09583333333333144,
          "durationTicks": 46,
          "midi": 65,
          "name": "F4",
          "ticks": 21792,
          "time": 45.400000000000006,
          "velocity": 0.7244094488188977
        },
        {
          "duration": 0.3999999999999986,
          "durationTicks": 192,
          "midi": 68,
          "name": "G#4",
          "ticks": 21888,
          "time": 45.6,
          "velocity": 0.7244094488188977
        },
        {
          "duration": 0.4000000000000057,
          "durationTicks": 192,
          "midi": 65,
          "name": "F4",
          "ticks": 22080,
          "time": 46,
          "velocity": 0.7244094488188977
        },
        {
          "duration": 0.09583333333333144,
          "durationTicks": 46,
          "midi": 62,
          "name": "D4",
          "ticks": 22272,
          "time": 46.400000000000006,
          "velocity": 0.7244094488188977
        },
        {
          "duration": 0.09583333333333144,
          "durationTicks": 46,
          "midi": 63,
          "name": "D#4",
          "ticks": 22368,
          "time": 46.6,
          "velocity": 0.7244094488188977
        },
        {
          "duration": 0.045833333333327175,
          "durationTicks": 22,
          "midi": 65,
          "name": "F4",
          "ticks": 22464,
          "time": 46.800000000000004,
          "velocity": 0.7244094488188977
        },
        {
          "duration": 0.04583333333333428,
          "durationTicks": 22,
          "midi": 65,
          "name": "F4",
          "ticks": 22488,
          "time": 46.85,
          "velocity": 0.7244094488188977
        },
        {
          "duration": 0.2958333333333272,
          "durationTicks": 142,
          "midi": 65,
          "name": "F4",
          "ticks": 22512,
          "time": 46.900000000000006,
          "velocity": 0.7244094488188977
        },
        {
          "duration": 0.09583333333333144,
          "durationTicks": 46,
          "midi": 62,
          "name": "D4",
          "ticks": 22656,
          "time": 47.2,
          "velocity": 0.7244094488188977
        },
        {
          "duration": 0.09583333333333144,
          "durationTicks": 46,
          "midi": 59,
          "name": "B3",
          "ticks": 22752,
          "time": 47.400000000000006,
          "velocity": 0.7244094488188977
        },
        {
          "duration": 0.09583333333333144,
          "durationTicks": 46,
          "midi": 60,
          "name": "C4",
          "ticks": 22848,
          "time": 47.6,
          "velocity": 0.7244094488188977
        },
        {
          "duration": 0.09583333333333144,
          "durationTicks": 46,
          "midi": 62,
          "name": "D4",
          "ticks": 22944,
          "time": 47.800000000000004,
          "velocity": 0.7244094488188977
        },
        {
          "duration": 0.30000000000000426,
          "durationTicks": 144,
          "midi": 63,
          "name": "D#4",
          "ticks": 23040,
          "time": 48,
          "velocity": 0.7244094488188977
        },
        {
          "duration": 0.04999999999999716,
          "durationTicks": 24,
          "midi": 65,
          "name": "F4",
          "ticks": 23184,
          "time": 48.300000000000004,
          "velocity": 0.7244094488188977
        },
        {
          "duration": 0.05000000000000426,
          "durationTicks": 24,
          "midi": 63,
          "name": "D#4",
          "ticks": 23208,
          "time": 48.35,
          "velocity": 0.7244094488188977
        },
        {
          "duration": 0.09583333333333144,
          "durationTicks": 46,
          "midi": 62,
          "name": "D4",
          "ticks": 23232,
          "time": 48.400000000000006,
          "velocity": 0.7244094488188977
        },
        {
          "duration": 0.09583333333333144,
          "durationTicks": 46,
          "midi": 60,
          "name": "C4",
          "ticks": 23328,
          "time": 48.6,
          "velocity": 0.7244094488188977
        },
        {
          "duration": 0.3999999999999986,
          "durationTicks": 192,
          "midi": 68,
          "name": "G#4",
          "ticks": 23424,
          "time": 48.800000000000004,
          "velocity": 0.7244094488188977
        },
        {
          "duration": 0.09583333333333144,
          "durationTicks": 46,
          "midi": 67,
          "name": "G4",
          "ticks": 23616,
          "time": 49.2,
          "velocity": 0.7244094488188977
        },
        {
          "duration": 0.09583333333333144,
          "durationTicks": 46,
          "midi": 65,
          "name": "F4",
          "ticks": 23712,
          "time": 49.400000000000006,
          "velocity": 0.7244094488188977
        },
        {
          "duration": 0.2958333333333343,
          "durationTicks": 142,
          "midi": 63,
          "name": "D#4",
          "ticks": 23808,
          "time": 49.6,
          "velocity": 0.7244094488188977
        },
        {
          "duration": 0.045833333333327175,
          "durationTicks": 22,
          "midi": 65,
          "name": "F4",
          "ticks": 23952,
          "time": 49.900000000000006,
          "velocity": 0.7244094488188977
        },
        {
          "duration": 0.04583333333333428,
          "durationTicks": 22,
          "midi": 63,
          "name": "D#4",
          "ticks": 23976,
          "time": 49.95,
          "velocity": 0.7244094488188977
        },
        {
          "duration": 0.09583333333333144,
          "durationTicks": 46,
          "midi": 62,
          "name": "D4",
          "ticks": 24000,
          "time": 50,
          "velocity": 0.7244094488188977
        },
        {
          "duration": 0.09583333333333144,
          "durationTicks": 46,
          "midi": 65,
          "name": "F4",
          "ticks": 24096,
          "time": 50.2,
          "velocity": 0.7244094488188977
        },
        {
          "duration": 0.6999999999999957,
          "durationTicks": 336,
          "midi": 63,
          "name": "D#4",
          "ticks": 24192,
          "time": 50.400000000000006,
          "velocity": 0.7244094488188977
        },
        {
          "duration": 0.20000000000000284,
          "durationTicks": 96,
          "midi": 84,
          "name": "C6",
          "ticks": 27456,
          "time": 57.2,
          "velocity": 0.7244094488188977
        },
        {
          "duration": 0.09583333333333144,
          "durationTicks": 46,
          "midi": 75,
          "name": "D#5",
          "ticks": 36960,
          "time": 77,
          "velocity": 0.8503937007874016
        },
        {
          "duration": 0.09583333333333144,
          "durationTicks": 46,
          "midi": 72,
          "name": "C5",
          "ticks": 37056,
          "time": 77.2,
          "velocity": 0.8503937007874016
        },
        {
          "duration": 0.09583333333333144,
          "durationTicks": 46,
          "midi": 67,
          "name": "G4",
          "ticks": 37152,
          "time": 77.4,
          "velocity": 0.8503937007874016
        },
        {
          "duration": 0.4000000000000057,
          "durationTicks": 192,
          "midi": 71,
          "name": "B4",
          "ticks": 37248,
          "time": 77.6,
          "velocity": 0.8503937007874016
        },
        {
          "duration": 0.4000000000000057,
          "durationTicks": 192,
          "midi": 80,
          "name": "G#5",
          "ticks": 37440,
          "time": 78,
          "velocity": 0.8503937007874016
        },
        {
          "duration": 0.09583333333333144,
          "durationTicks": 46,
          "midi": 79,
          "name": "G5",
          "ticks": 37632,
          "time": 78.4,
          "velocity": 0.8503937007874016
        },
        {
          "duration": 0.09583333333334565,
          "durationTicks": 46,
          "midi": 78,
          "name": "F#5",
          "ticks": 37728,
          "time": 78.6,
          "velocity": 0.8503937007874016
        },
        {
          "duration": 0.3999999999999915,
          "durationTicks": 192,
          "midi": 79,
          "name": "G5",
          "ticks": 37824,
          "time": 78.80000000000001,
          "velocity": 0.8503937007874016
        },
        {
          "duration": 0.09583333333333144,
          "durationTicks": 46,
          "midi": 84,
          "name": "C6",
          "ticks": 38016,
          "time": 79.2,
          "velocity": 0.8503937007874016
        },
        {
          "duration": 0.09583333333333144,
          "durationTicks": 46,
          "midi": 79,
          "name": "G5",
          "ticks": 38112,
          "time": 79.4,
          "velocity": 0.8503937007874016
        },
        {
          "duration": 0.09583333333334565,
          "durationTicks": 46,
          "midi": 75,
          "name": "D#5",
          "ticks": 38208,
          "time": 79.6,
          "velocity": 0.8503937007874016
        },
        {
          "duration": 0.09583333333333144,
          "durationTicks": 46,
          "midi": 72,
          "name": "C5",
          "ticks": 38304,
          "time": 79.80000000000001,
          "velocity": 0.8503937007874016
        },
        {
          "duration": 0.09583333333333144,
          "durationTicks": 46,
          "midi": 67,
          "name": "G4",
          "ticks": 38400,
          "time": 80,
          "velocity": 0.8503937007874016
        },
        {
          "duration": 0.09583333333333144,
          "durationTicks": 46,
          "midi": 72,
          "name": "C5",
          "ticks": 38496,
          "time": 80.2,
          "velocity": 0.8503937007874016
        },
        {
          "duration": 0.4000000000000057,
          "durationTicks": 192,
          "midi": 74,
          "name": "D5",
          "ticks": 38592,
          "time": 80.4,
          "velocity": 0.8503937007874016
        },
        {
          "duration": 0.09583333333333144,
          "durationTicks": 46,
          "midi": 75,
          "name": "D#5",
          "ticks": 38784,
          "time": 80.80000000000001,
          "velocity": 0.8503937007874016
        },
        {
          "duration": 0.09583333333333144,
          "durationTicks": 46,
          "midi": 72,
          "name": "C5",
          "ticks": 38880,
          "time": 81,
          "velocity": 0.8503937007874016
        },
        {
          "duration": 0.09583333333333144,
          "durationTicks": 46,
          "midi": 67,
          "name": "G4",
          "ticks": 38976,
          "time": 81.2,
          "velocity": 0.8503937007874016
        },
        {
          "duration": 0.09583333333333144,
          "durationTicks": 46,
          "midi": 63,
          "name": "D#4",
          "ticks": 39072,
          "time": 81.4,
          "velocity": 0.8503937007874016
        },
        {
          "duration": 0.09583333333334565,
          "durationTicks": 46,
          "midi": 67,
          "name": "G4",
          "ticks": 39168,
          "time": 81.6,
          "velocity": 0.8503937007874016
        },
        {
          "duration": 0.09583333333333144,
          "durationTicks": 46,
          "midi": 72,
          "name": "C5",
          "ticks": 39264,
          "time": 81.80000000000001,
          "velocity": 0.8503937007874016
        },
        {
          "duration": 0.4000000000000057,
          "durationTicks": 192,
          "midi": 74,
          "name": "D5",
          "ticks": 39360,
          "time": 82,
          "velocity": 0.8503937007874016
        },
        {
          "duration": 0.09583333333333144,
          "durationTicks": 46,
          "midi": 72,
          "name": "C5",
          "ticks": 39552,
          "time": 82.4,
          "velocity": 0.8503937007874016
        },
        {
          "duration": 0.09583333333333144,
          "durationTicks": 46,
          "midi": 56,
          "name": "G#3",
          "ticks": 43104,
          "time": 89.80000000000001,
          "velocity": 0.7244094488188977
        },
        {
          "duration": 0.09583333333333144,
          "durationTicks": 46,
          "midi": 60,
          "name": "C4",
          "ticks": 43200,
          "time": 90,
          "velocity": 0.7244094488188977
        },
        {
          "duration": 0.09583333333333144,
          "durationTicks": 46,
          "midi": 65,
          "name": "F4",
          "ticks": 43296,
          "time": 90.2,
          "velocity": 0.7244094488188977
        },
        {
          "duration": 0.4000000000000057,
          "durationTicks": 192,
          "midi": 68,
          "name": "G#4",
          "ticks": 43392,
          "time": 90.4,
          "velocity": 0.7244094488188977
        },
        {
          "duration": 0.3999999999999915,
          "durationTicks": 192,
          "midi": 65,
          "name": "F4",
          "ticks": 43584,
          "time": 90.80000000000001,
          "velocity": 0.7244094488188977
        },
        {
          "duration": 0.09583333333333144,
          "durationTicks": 46,
          "midi": 62,
          "name": "D4",
          "ticks": 43776,
          "time": 91.2,
          "velocity": 0.7244094488188977
        },
        {
          "duration": 0.09583333333333144,
          "durationTicks": 46,
          "midi": 63,
          "name": "D#4",
          "ticks": 43872,
          "time": 91.4,
          "velocity": 0.7244094488188977
        },
        {
          "duration": 0.04583333333334849,
          "durationTicks": 22,
          "midi": 65,
          "name": "F4",
          "ticks": 43968,
          "time": 91.6,
          "velocity": 0.7244094488188977
        },
        {
          "duration": 0.04583333333332007,
          "durationTicks": 22,
          "midi": 65,
          "name": "F4",
          "ticks": 43992,
          "time": 91.65,
          "velocity": 0.7244094488188977
        },
        {
          "duration": 0.2958333333333343,
          "durationTicks": 142,
          "midi": 65,
          "name": "F4",
          "ticks": 44016,
          "time": 91.7,
          "velocity": 0.7244094488188977
        },
        {
          "duration": 0.09583333333333144,
          "durationTicks": 46,
          "midi": 62,
          "name": "D4",
          "ticks": 44160,
          "time": 92,
          "velocity": 0.7244094488188977
        },
        {
          "duration": 0.09583333333333144,
          "durationTicks": 46,
          "midi": 59,
          "name": "B3",
          "ticks": 44256,
          "time": 92.2,
          "velocity": 0.7244094488188977
        },
        {
          "duration": 0.09583333333333144,
          "durationTicks": 46,
          "midi": 60,
          "name": "C4",
          "ticks": 44352,
          "time": 92.4,
          "velocity": 0.7244094488188977
        },
        {
          "duration": 0.09583333333333144,
          "durationTicks": 46,
          "midi": 62,
          "name": "D4",
          "ticks": 44448,
          "time": 92.6,
          "velocity": 0.7244094488188977
        },
        {
          "duration": 0.29999999999998295,
          "durationTicks": 144,
          "midi": 63,
          "name": "D#4",
          "ticks": 44544,
          "time": 92.80000000000001,
          "velocity": 0.7244094488188977
        },
        {
          "duration": 0.05000000000001137,
          "durationTicks": 24,
          "midi": 65,
          "name": "F4",
          "ticks": 44688,
          "time": 93.1,
          "velocity": 0.7244094488188977
        },
        {
          "duration": 0.04999999999999716,
          "durationTicks": 24,
          "midi": 63,
          "name": "D#4",
          "ticks": 44712,
          "time": 93.15,
          "velocity": 0.7244094488188977
        },
        {
          "duration": 0.09583333333333144,
          "durationTicks": 46,
          "midi": 62,
          "name": "D4",
          "ticks": 44736,
          "time": 93.2,
          "velocity": 0.7244094488188977
        },
        {
          "duration": 0.09583333333333144,
          "durationTicks": 46,
          "midi": 60,
          "name": "C4",
          "ticks": 44832,
          "time": 93.4,
          "velocity": 0.7244094488188977
        },
        {
          "duration": 0.4000000000000057,
          "durationTicks": 192,
          "midi": 68,
          "name": "G#4",
          "ticks": 44928,
          "time": 93.6,
          "velocity": 0.7244094488188977
        },
        {
          "duration": 0.09583333333333144,
          "durationTicks": 46,
          "midi": 67,
          "name": "G4",
          "ticks": 45120,
          "time": 94,
          "velocity": 0.7244094488188977
        },
        {
          "duration": 0.09583333333333144,
          "durationTicks": 46,
          "midi": 65,
          "name": "F4",
          "ticks": 45216,
          "time": 94.2,
          "velocity": 0.7244094488188977
        },
        {
          "duration": 0.29583333333332007,
          "durationTicks": 142,
          "midi": 63,
          "name": "D#4",
          "ticks": 45312,
          "time": 94.4,
          "velocity": 0.7244094488188977
        },
        {
          "duration": 0.04583333333333428,
          "durationTicks": 22,
          "midi": 65,
          "name": "F4",
          "ticks": 45456,
          "time": 94.7,
          "velocity": 0.7244094488188977
        },
        {
          "duration": 0.04583333333333428,
          "durationTicks": 22,
          "midi": 63,
          "name": "D#4",
          "ticks": 45480,
          "time": 94.75,
          "velocity": 0.7244094488188977
        },
        {
          "duration": 0.09583333333333144,
          "durationTicks": 46,
          "midi": 62,
          "name": "D4",
          "ticks": 45504,
          "time": 94.80000000000001,
          "velocity": 0.7244094488188977
        },
        {
          "duration": 0.09583333333333144,
          "durationTicks": 46,
          "midi": 65,
          "name": "F4",
          "ticks": 45600,
          "time": 95,
          "velocity": 0.7244094488188977
        },
        {
          "duration": 0.7000000000000028,
          "durationTicks": 336,
          "midi": 63,
          "name": "D#4",
          "ticks": 45696,
          "time": 95.2,
          "velocity": 0.7244094488188977
        },
        {
          "duration": 0.09583333333333144,
          "durationTicks": 46,
          "midi": 56,
          "name": "G#3",
          "ticks": 46176,
          "time": 96.2,
          "velocity": 0.7244094488188977
        },
        {
          "duration": 0.09583333333333144,
          "durationTicks": 46,
          "midi": 60,
          "name": "C4",
          "ticks": 46272,
          "time": 96.4,
          "velocity": 0.7244094488188977
        },
        {
          "duration": 0.09583333333333144,
          "durationTicks": 46,
          "midi": 65,
          "name": "F4",
          "ticks": 46368,
          "time": 96.6,
          "velocity": 0.7244094488188977
        },
        {
          "duration": 0.3999999999999915,
          "durationTicks": 192,
          "midi": 68,
          "name": "G#4",
          "ticks": 46464,
          "time": 96.80000000000001,
          "velocity": 0.7244094488188977
        },
        {
          "duration": 0.3999999999999915,
          "durationTicks": 192,
          "midi": 65,
          "name": "F4",
          "ticks": 46656,
          "time": 97.2,
          "velocity": 0.7244094488188977
        },
        {
          "duration": 0.09583333333333144,
          "durationTicks": 46,
          "midi": 62,
          "name": "D4",
          "ticks": 46848,
          "time": 97.6,
          "velocity": 0.7244094488188977
        },
        {
          "duration": 0.09583333333333144,
          "durationTicks": 46,
          "midi": 63,
          "name": "D#4",
          "ticks": 46944,
          "time": 97.80000000000001,
          "velocity": 0.7244094488188977
        },
        {
          "duration": 0.04583333333333428,
          "durationTicks": 22,
          "midi": 65,
          "name": "F4",
          "ticks": 47040,
          "time": 98,
          "velocity": 0.7244094488188977
        },
        {
          "duration": 0.04583333333332007,
          "durationTicks": 22,
          "midi": 65,
          "name": "F4",
          "ticks": 47064,
          "time": 98.05000000000001,
          "velocity": 0.7244094488188977
        },
        {
          "duration": 0.2958333333333485,
          "durationTicks": 142,
          "midi": 65,
          "name": "F4",
          "ticks": 47088,
          "time": 98.1,
          "velocity": 0.7244094488188977
        },
        {
          "duration": 0.09583333333333144,
          "durationTicks": 46,
          "midi": 62,
          "name": "D4",
          "ticks": 47232,
          "time": 98.4,
          "velocity": 0.7244094488188977
        },
        {
          "duration": 0.09583333333333144,
          "durationTicks": 46,
          "midi": 59,
          "name": "B3",
          "ticks": 47328,
          "time": 98.6,
          "velocity": 0.7244094488188977
        },
        {
          "duration": 0.09583333333333144,
          "durationTicks": 46,
          "midi": 60,
          "name": "C4",
          "ticks": 47424,
          "time": 98.80000000000001,
          "velocity": 0.7244094488188977
        },
        {
          "duration": 0.09583333333333144,
          "durationTicks": 46,
          "midi": 62,
          "name": "D4",
          "ticks": 47520,
          "time": 99,
          "velocity": 0.7244094488188977
        },
        {
          "duration": 0.29999999999999716,
          "durationTicks": 144,
          "midi": 63,
          "name": "D#4",
          "ticks": 47616,
          "time": 99.2,
          "velocity": 0.7244094488188977
        },
        {
          "duration": 0.05000000000001137,
          "durationTicks": 24,
          "midi": 65,
          "name": "F4",
          "ticks": 47760,
          "time": 99.5,
          "velocity": 0.7244094488188977
        },
        {
          "duration": 0.04999999999998295,
          "durationTicks": 24,
          "midi": 63,
          "name": "D#4",
          "ticks": 47784,
          "time": 99.55000000000001,
          "velocity": 0.7244094488188977
        },
        {
          "duration": 0.09583333333333144,
          "durationTicks": 46,
          "midi": 62,
          "name": "D4",
          "ticks": 47808,
          "time": 99.6,
          "velocity": 0.7244094488188977
        },
        {
          "duration": 0.09583333333333144,
          "durationTicks": 46,
          "midi": 60,
          "name": "C4",
          "ticks": 47904,
          "time": 99.80000000000001,
          "velocity": 0.7244094488188977
        },
        {
          "duration": 0.4000000000000057,
          "durationTicks": 192,
          "midi": 68,
          "name": "G#4",
          "ticks": 48000,
          "time": 100,
          "velocity": 0.7244094488188977
        },
        {
          "duration": 0.09583333333333144,
          "durationTicks": 46,
          "midi": 70,
          "name": "A#4",
          "ticks": 48192,
          "time": 100.4,
          "velocity": 0.7244094488188977
        },
        {
          "duration": 0.09583333333333144,
          "durationTicks": 46,
          "midi": 72,
          "name": "C5",
          "ticks": 48288,
          "time": 100.6,
          "velocity": 0.7244094488188977
        },
        {
          "duration": 0.09583333333333144,
          "durationTicks": 46,
          "midi": 70,
          "name": "A#4",
          "ticks": 48384,
          "time": 100.80000000000001,
          "velocity": 0.7244094488188977
        },
        {
          "duration": 0.09583333333333144,
          "durationTicks": 46,
          "midi": 68,
          "name": "G#4",
          "ticks": 48480,
          "time": 101,
          "velocity": 0.7244094488188977
        },
        {
          "duration": 0.09583333333333144,
          "durationTicks": 46,
          "midi": 67,
          "name": "G4",
          "ticks": 48576,
          "time": 101.2,
          "velocity": 0.7244094488188977
        },
        {
          "duration": 0.09583333333333144,
          "durationTicks": 46,
          "midi": 62,
          "name": "D4",
          "ticks": 48672,
          "time": 101.4,
          "velocity": 0.7244094488188977
        },
        {
          "duration": 0.04583333333334849,
          "durationTicks": 22,
          "midi": 59,
          "name": "B3",
          "ticks": 48768,
          "time": 101.6,
          "velocity": 0.7244094488188977
        },
        {
          "duration": 0.04583333333332007,
          "durationTicks": 22,
          "midi": 59,
          "name": "B3",
          "ticks": 48792,
          "time": 101.65,
          "velocity": 0.7244094488188977
        },
        {
          "duration": 0.63333333333334,
          "durationTicks": 304,
          "midi": 59,
          "name": "B3",
          "ticks": 48816,
          "time": 101.7,
          "velocity": 0.7244094488188977
        },
        {
          "duration": 0.09583333333333144,
          "durationTicks": 46,
          "midi": 56,
          "name": "G#3",
          "ticks": 49248,
          "time": 102.6,
          "velocity": 0.7244094488188977
        },
        {
          "duration": 0.09583333333333144,
          "durationTicks": 46,
          "midi": 60,
          "name": "C4",
          "ticks": 49344,
          "time": 102.80000000000001,
          "velocity": 0.7244094488188977
        },
        {
          "duration": 0.09583333333333144,
          "durationTicks": 46,
          "midi": 65,
          "name": "F4",
          "ticks": 49440,
          "time": 103,
          "velocity": 0.7244094488188977
        },
        {
          "duration": 0.3999999999999915,
          "durationTicks": 192,
          "midi": 68,
          "name": "G#4",
          "ticks": 49536,
          "time": 103.2,
          "velocity": 0.7244094488188977
        },
        {
          "duration": 0.4000000000000057,
          "durationTicks": 192,
          "midi": 65,
          "name": "F4",
          "ticks": 49728,
          "time": 103.6,
          "velocity": 0.7244094488188977
        },
        {
          "duration": 0.09583333333333144,
          "durationTicks": 46,
          "midi": 62,
          "name": "D4",
          "ticks": 49920,
          "time": 104,
          "velocity": 0.7244094488188977
        },
        {
          "duration": 0.09583333333333144,
          "durationTicks": 46,
          "midi": 63,
          "name": "D#4",
          "ticks": 50016,
          "time": 104.2,
          "velocity": 0.7244094488188977
        },
        {
          "duration": 0.04583333333332007,
          "durationTicks": 22,
          "midi": 65,
          "name": "F4",
          "ticks": 50112,
          "time": 104.4,
          "velocity": 0.7244094488188977
        },
        {
          "duration": 0.04583333333333428,
          "durationTicks": 22,
          "midi": 65,
          "name": "F4",
          "ticks": 50136,
          "time": 104.45,
          "velocity": 0.7244094488188977
        },
        {
          "duration": 0.2958333333333343,
          "durationTicks": 142,
          "midi": 65,
          "name": "F4",
          "ticks": 50160,
          "time": 104.5,
          "velocity": 0.7244094488188977
        },
        {
          "duration": 0.09583333333333144,
          "durationTicks": 46,
          "midi": 62,
          "name": "D4",
          "ticks": 50304,
          "time": 104.80000000000001,
          "velocity": 0.7244094488188977
        },
        {
          "duration": 0.09583333333333144,
          "durationTicks": 46,
          "midi": 59,
          "name": "B3",
          "ticks": 50400,
          "time": 105,
          "velocity": 0.7244094488188977
        },
        {
          "duration": 0.09583333333333144,
          "durationTicks": 46,
          "midi": 60,
          "name": "C4",
          "ticks": 50496,
          "time": 105.2,
          "velocity": 0.7244094488188977
        },
        {
          "duration": 0.09583333333333144,
          "durationTicks": 46,
          "midi": 62,
          "name": "D4",
          "ticks": 50592,
          "time": 105.4,
          "velocity": 0.7244094488188977
        },
        {
          "duration": 0.30000000000001137,
          "durationTicks": 144,
          "midi": 63,
          "name": "D#4",
          "ticks": 50688,
          "time": 105.6,
          "velocity": 0.7244094488188977
        },
        {
          "duration": 0.04999999999999716,
          "durationTicks": 24,
          "midi": 65,
          "name": "F4",
          "ticks": 50832,
          "time": 105.9,
          "velocity": 0.7244094488188977
        },
        {
          "duration": 0.04999999999999716,
          "durationTicks": 24,
          "midi": 63,
          "name": "D#4",
          "ticks": 50856,
          "time": 105.95,
          "velocity": 0.7244094488188977
        },
        {
          "duration": 0.09583333333333144,
          "durationTicks": 46,
          "midi": 62,
          "name": "D4",
          "ticks": 50880,
          "time": 106,
          "velocity": 0.7244094488188977
        },
        {
          "duration": 0.09583333333333144,
          "durationTicks": 46,
          "midi": 60,
          "name": "C4",
          "ticks": 50976,
          "time": 106.2,
          "velocity": 0.7244094488188977
        },
        {
          "duration": 0.4000000000000057,
          "durationTicks": 192,
          "midi": 68,
          "name": "G#4",
          "ticks": 51072,
          "time": 106.4,
          "velocity": 0.7244094488188977
        },
        {
          "duration": 0.09583333333333144,
          "durationTicks": 46,
          "midi": 67,
          "name": "G4",
          "ticks": 51264,
          "time": 106.80000000000001,
          "velocity": 0.7244094488188977
        },
        {
          "duration": 0.09583333333333144,
          "durationTicks": 46,
          "midi": 65,
          "name": "F4",
          "ticks": 51360,
          "time": 107,
          "velocity": 0.7244094488188977
        },
        {
          "duration": 0.2958333333333343,
          "durationTicks": 142,
          "midi": 63,
          "name": "D#4",
          "ticks": 51456,
          "time": 107.2,
          "velocity": 0.7244094488188977
        },
        {
          "duration": 0.04583333333333428,
          "durationTicks": 22,
          "midi": 65,
          "name": "F4",
          "ticks": 51600,
          "time": 107.5,
          "velocity": 0.7244094488188977
        },
        {
          "duration": 0.04583333333332007,
          "durationTicks": 22,
          "midi": 63,
          "name": "D#4",
          "ticks": 51624,
          "time": 107.55000000000001,
          "velocity": 0.7244094488188977
        },
        {
          "duration": 0.09583333333333144,
          "durationTicks": 46,
          "midi": 62,
          "name": "D4",
          "ticks": 51648,
          "time": 107.6,
          "velocity": 0.7244094488188977
        },
        {
          "duration": 0.09583333333333144,
          "durationTicks": 46,
          "midi": 65,
          "name": "F4",
          "ticks": 51744,
          "time": 107.80000000000001,
          "velocity": 0.7244094488188977
        },
        {
          "duration": 0.7000000000000028,
          "durationTicks": 336,
          "midi": 63,
          "name": "D#4",
          "ticks": 51840,
          "time": 108,
          "velocity": 0.7244094488188977
        },
        {
          "duration": 0.19999999999998863,
          "durationTicks": 96,
          "midi": 84,
          "name": "C6",
          "ticks": 55104,
          "time": 114.80000000000001,
          "velocity": 0.7244094488188977
        },
        {
          "duration": 0.09583333333333144,
          "durationTicks": 46,
          "midi": 75,
          "name": "D#5",
          "ticks": 64608,
          "time": 134.6,
          "velocity": 0.8503937007874016
        },
        {
          "duration": 0.09583333333333144,
          "durationTicks": 46,
          "midi": 72,
          "name": "C5",
          "ticks": 64704,
          "time": 134.8,
          "velocity": 0.8503937007874016
        },
        {
          "duration": 0.09583333333333144,
          "durationTicks": 46,
          "midi": 67,
          "name": "G4",
          "ticks": 64800,
          "time": 135,
          "velocity": 0.8503937007874016
        },
        {
          "duration": 0.4000000000000057,
          "durationTicks": 192,
          "midi": 71,
          "name": "B4",
          "ticks": 64896,
          "time": 135.2,
          "velocity": 0.8503937007874016
        },
        {
          "duration": 0.4000000000000057,
          "durationTicks": 192,
          "midi": 80,
          "name": "G#5",
          "ticks": 65088,
          "time": 135.6,
          "velocity": 0.8503937007874016
        },
        {
          "duration": 0.09583333333333144,
          "durationTicks": 46,
          "midi": 79,
          "name": "G5",
          "ticks": 65280,
          "time": 136,
          "velocity": 0.8503937007874016
        },
        {
          "duration": 0.09583333333335986,
          "durationTicks": 46,
          "midi": 78,
          "name": "F#5",
          "ticks": 65376,
          "time": 136.2,
          "velocity": 0.8503937007874016
        },
        {
          "duration": 0.4000000000000057,
          "durationTicks": 192,
          "midi": 79,
          "name": "G5",
          "ticks": 65472,
          "time": 136.4,
          "velocity": 0.8503937007874016
        },
        {
          "duration": 0.09583333333333144,
          "durationTicks": 46,
          "midi": 84,
          "name": "C6",
          "ticks": 65664,
          "time": 136.8,
          "velocity": 0.8503937007874016
        },
        {
          "duration": 0.09583333333333144,
          "durationTicks": 46,
          "midi": 79,
          "name": "G5",
          "ticks": 65760,
          "time": 137,
          "velocity": 0.8503937007874016
        },
        {
          "duration": 0.09583333333335986,
          "durationTicks": 46,
          "midi": 75,
          "name": "D#5",
          "ticks": 65856,
          "time": 137.2,
          "velocity": 0.8503937007874016
        },
        {
          "duration": 0.09583333333333144,
          "durationTicks": 46,
          "midi": 72,
          "name": "C5",
          "ticks": 65952,
          "time": 137.4,
          "velocity": 0.8503937007874016
        },
        {
          "duration": 0.09583333333333144,
          "durationTicks": 46,
          "midi": 67,
          "name": "G4",
          "ticks": 66048,
          "time": 137.6,
          "velocity": 0.8503937007874016
        },
        {
          "duration": 0.09583333333333144,
          "durationTicks": 46,
          "midi": 72,
          "name": "C5",
          "ticks": 66144,
          "time": 137.8,
          "velocity": 0.8503937007874016
        },
        {
          "duration": 0.4000000000000057,
          "durationTicks": 192,
          "midi": 74,
          "name": "D5",
          "ticks": 66240,
          "time": 138,
          "velocity": 0.8503937007874016
        },
        {
          "duration": 0.09583333333333144,
          "durationTicks": 46,
          "midi": 75,
          "name": "D#5",
          "ticks": 66432,
          "time": 138.4,
          "velocity": 0.8503937007874016
        },
        {
          "duration": 0.09583333333333144,
          "durationTicks": 46,
          "midi": 72,
          "name": "C5",
          "ticks": 66528,
          "time": 138.6,
          "velocity": 0.8503937007874016
        },
        {
          "duration": 0.09583333333333144,
          "durationTicks": 46,
          "midi": 67,
          "name": "G4",
          "ticks": 66624,
          "time": 138.8,
          "velocity": 0.8503937007874016
        },
        {
          "duration": 0.09583333333333144,
          "durationTicks": 46,
          "midi": 63,
          "name": "D#4",
          "ticks": 66720,
          "time": 139,
          "velocity": 0.8503937007874016
        },
        {
          "duration": 0.09583333333335986,
          "durationTicks": 46,
          "midi": 67,
          "name": "G4",
          "ticks": 66816,
          "time": 139.2,
          "velocity": 0.8503937007874016
        },
        {
          "duration": 0.09583333333333144,
          "durationTicks": 46,
          "midi": 72,
          "name": "C5",
          "ticks": 66912,
          "time": 139.4,
          "velocity": 0.8503937007874016
        },
        {
          "duration": 0.4000000000000057,
          "durationTicks": 192,
          "midi": 74,
          "name": "D5",
          "ticks": 67008,
          "time": 139.6,
          "velocity": 0.8503937007874016
        },
        {
          "duration": 0.09583333333333144,
          "durationTicks": 46,
          "midi": 72,
          "name": "C5",
          "ticks": 67200,
          "time": 140,
          "velocity": 0.8503937007874016
        },
        {
          "duration": 0.09583333333333144,
          "durationTicks": 46,
          "midi": 56,
          "name": "G#3",
          "ticks": 70752,
          "time": 147.4,
          "velocity": 0.7244094488188977
        },
        {
          "duration": 0.09583333333333144,
          "durationTicks": 46,
          "midi": 60,
          "name": "C4",
          "ticks": 70848,
          "time": 147.6,
          "velocity": 0.7244094488188977
        },
        {
          "duration": 0.09583333333333144,
          "durationTicks": 46,
          "midi": 65,
          "name": "F4",
          "ticks": 70944,
          "time": 147.8,
          "velocity": 0.7244094488188977
        },
        {
          "duration": 0.4000000000000057,
          "durationTicks": 192,
          "midi": 68,
          "name": "G#4",
          "ticks": 71040,
          "time": 148,
          "velocity": 0.7244094488188977
        },
        {
          "duration": 0.4000000000000057,
          "durationTicks": 192,
          "midi": 65,
          "name": "F4",
          "ticks": 71232,
          "time": 148.4,
          "velocity": 0.7244094488188977
        },
        {
          "duration": 0.09583333333333144,
          "durationTicks": 46,
          "midi": 62,
          "name": "D4",
          "ticks": 71424,
          "time": 148.8,
          "velocity": 0.7244094488188977
        },
        {
          "duration": 0.09583333333333144,
          "durationTicks": 46,
          "midi": 63,
          "name": "D#4",
          "ticks": 71520,
          "time": 149,
          "velocity": 0.7244094488188977
        },
        {
          "duration": 0.04583333333334849,
          "durationTicks": 22,
          "midi": 65,
          "name": "F4",
          "ticks": 71616,
          "time": 149.2,
          "velocity": 0.7244094488188977
        },
        {
          "duration": 0.04583333333334849,
          "durationTicks": 22,
          "midi": 65,
          "name": "F4",
          "ticks": 71640,
          "time": 149.25,
          "velocity": 0.7244094488188977
        },
        {
          "duration": 0.29583333333332007,
          "durationTicks": 142,
          "midi": 65,
          "name": "F4",
          "ticks": 71664,
          "time": 149.3,
          "velocity": 0.7244094488188977
        },
        {
          "duration": 0.09583333333333144,
          "durationTicks": 46,
          "midi": 62,
          "name": "D4",
          "ticks": 71808,
          "time": 149.6,
          "velocity": 0.7244094488188977
        },
        {
          "duration": 0.09583333333333144,
          "durationTicks": 46,
          "midi": 59,
          "name": "B3",
          "ticks": 71904,
          "time": 149.8,
          "velocity": 0.7244094488188977
        },
        {
          "duration": 0.09583333333333144,
          "durationTicks": 46,
          "midi": 60,
          "name": "C4",
          "ticks": 72000,
          "time": 150,
          "velocity": 0.7244094488188977
        },
        {
          "duration": 0.09583333333335986,
          "durationTicks": 46,
          "midi": 62,
          "name": "D4",
          "ticks": 72096,
          "time": 150.2,
          "velocity": 0.7244094488188977
        },
        {
          "duration": 0.29999999999998295,
          "durationTicks": 144,
          "midi": 63,
          "name": "D#4",
          "ticks": 72192,
          "time": 150.4,
          "velocity": 0.7244094488188977
        },
        {
          "duration": 0.05000000000001137,
          "durationTicks": 24,
          "midi": 65,
          "name": "F4",
          "ticks": 72336,
          "time": 150.7,
          "velocity": 0.7244094488188977
        },
        {
          "duration": 0.05000000000001137,
          "durationTicks": 24,
          "midi": 63,
          "name": "D#4",
          "ticks": 72360,
          "time": 150.75,
          "velocity": 0.7244094488188977
        },
        {
          "duration": 0.09583333333333144,
          "durationTicks": 46,
          "midi": 62,
          "name": "D4",
          "ticks": 72384,
          "time": 150.8,
          "velocity": 0.7244094488188977
        },
        {
          "duration": 0.09583333333333144,
          "durationTicks": 46,
          "midi": 60,
          "name": "C4",
          "ticks": 72480,
          "time": 151,
          "velocity": 0.7244094488188977
        },
        {
          "duration": 0.4000000000000057,
          "durationTicks": 192,
          "midi": 68,
          "name": "G#4",
          "ticks": 72576,
          "time": 151.2,
          "velocity": 0.7244094488188977
        },
        {
          "duration": 0.09583333333333144,
          "durationTicks": 46,
          "midi": 67,
          "name": "G4",
          "ticks": 72768,
          "time": 151.6,
          "velocity": 0.7244094488188977
        },
        {
          "duration": 0.09583333333333144,
          "durationTicks": 46,
          "midi": 65,
          "name": "F4",
          "ticks": 72864,
          "time": 151.8,
          "velocity": 0.7244094488188977
        },
        {
          "duration": 0.2958333333333485,
          "durationTicks": 142,
          "midi": 63,
          "name": "D#4",
          "ticks": 72960,
          "time": 152,
          "velocity": 0.7244094488188977
        },
        {
          "duration": 0.04583333333332007,
          "durationTicks": 22,
          "midi": 65,
          "name": "F4",
          "ticks": 73104,
          "time": 152.3,
          "velocity": 0.7244094488188977
        },
        {
          "duration": 0.04583333333334849,
          "durationTicks": 22,
          "midi": 63,
          "name": "D#4",
          "ticks": 73128,
          "time": 152.35,
          "velocity": 0.7244094488188977
        },
        {
          "duration": 0.09583333333333144,
          "durationTicks": 46,
          "midi": 62,
          "name": "D4",
          "ticks": 73152,
          "time": 152.4,
          "velocity": 0.7244094488188977
        },
        {
          "duration": 0.09583333333333144,
          "durationTicks": 46,
          "midi": 65,
          "name": "F4",
          "ticks": 73248,
          "time": 152.6,
          "velocity": 0.7244094488188977
        },
        {
          "duration": 0.6999999999999886,
          "durationTicks": 336,
          "midi": 63,
          "name": "D#4",
          "ticks": 73344,
          "time": 152.8,
          "velocity": 0.7244094488188977
        },
        {
          "duration": 0.09583333333333144,
          "durationTicks": 46,
          "midi": 56,
          "name": "G#3",
          "ticks": 73824,
          "time": 153.8,
          "velocity": 0.7244094488188977
        },
        {
          "duration": 0.09583333333333144,
          "durationTicks": 46,
          "midi": 60,
          "name": "C4",
          "ticks": 73920,
          "time": 154,
          "velocity": 0.7244094488188977
        },
        {
          "duration": 0.09583333333335986,
          "durationTicks": 46,
          "midi": 65,
          "name": "F4",
          "ticks": 74016,
          "time": 154.2,
          "velocity": 0.7244094488188977
        },
        {
          "duration": 0.4000000000000057,
          "durationTicks": 192,
          "midi": 68,
          "name": "G#4",
          "ticks": 74112,
          "time": 154.4,
          "velocity": 0.7244094488188977
        },
        {
          "duration": 0.39999999999997726,
          "durationTicks": 192,
          "midi": 65,
          "name": "F4",
          "ticks": 74304,
          "time": 154.8,
          "velocity": 0.7244094488188977
        },
        {
          "duration": 0.09583333333335986,
          "durationTicks": 46,
          "midi": 62,
          "name": "D4",
          "ticks": 74496,
          "time": 155.2,
          "velocity": 0.7244094488188977
        },
        {
          "duration": 0.09583333333333144,
          "durationTicks": 46,
          "midi": 63,
          "name": "D#4",
          "ticks": 74592,
          "time": 155.4,
          "velocity": 0.7244094488188977
        },
        {
          "duration": 0.04583333333332007,
          "durationTicks": 22,
          "midi": 65,
          "name": "F4",
          "ticks": 74688,
          "time": 155.60000000000002,
          "velocity": 0.7244094488188977
        },
        {
          "duration": 0.04583333333332007,
          "durationTicks": 22,
          "midi": 65,
          "name": "F4",
          "ticks": 74712,
          "time": 155.65,
          "velocity": 0.7244094488188977
        },
        {
          "duration": 0.2958333333333485,
          "durationTicks": 142,
          "midi": 65,
          "name": "F4",
          "ticks": 74736,
          "time": 155.7,
          "velocity": 0.7244094488188977
        },
        {
          "duration": 0.09583333333333144,
          "durationTicks": 46,
          "midi": 62,
          "name": "D4",
          "ticks": 74880,
          "time": 156,
          "velocity": 0.7244094488188977
        },
        {
          "duration": 0.09583333333335986,
          "durationTicks": 46,
          "midi": 59,
          "name": "B3",
          "ticks": 74976,
          "time": 156.2,
          "velocity": 0.7244094488188977
        },
        {
          "duration": 0.09583333333333144,
          "durationTicks": 46,
          "midi": 60,
          "name": "C4",
          "ticks": 75072,
          "time": 156.4,
          "velocity": 0.7244094488188977
        },
        {
          "duration": 0.09583333333330302,
          "durationTicks": 46,
          "midi": 62,
          "name": "D4",
          "ticks": 75168,
          "time": 156.60000000000002,
          "velocity": 0.7244094488188977
        },
        {
          "duration": 0.30000000000001137,
          "durationTicks": 144,
          "midi": 63,
          "name": "D#4",
          "ticks": 75264,
          "time": 156.8,
          "velocity": 0.7244094488188977
        },
        {
          "duration": 0.04999999999998295,
          "durationTicks": 24,
          "midi": 65,
          "name": "F4",
          "ticks": 75408,
          "time": 157.10000000000002,
          "velocity": 0.7244094488188977
        },
        {
          "duration": 0.04999999999998295,
          "durationTicks": 24,
          "midi": 63,
          "name": "D#4",
          "ticks": 75432,
          "time": 157.15,
          "velocity": 0.7244094488188977
        },
        {
          "duration": 0.09583333333335986,
          "durationTicks": 46,
          "midi": 62,
          "name": "D4",
          "ticks": 75456,
          "time": 157.2,
          "velocity": 0.7244094488188977
        },
        {
          "duration": 0.09583333333333144,
          "durationTicks": 46,
          "midi": 60,
          "name": "C4",
          "ticks": 75552,
          "time": 157.4,
          "velocity": 0.7244094488188977
        },
        {
          "duration": 0.39999999999997726,
          "durationTicks": 192,
          "midi": 68,
          "name": "G#4",
          "ticks": 75648,
          "time": 157.60000000000002,
          "velocity": 0.7244094488188977
        },
        {
          "duration": 0.09583333333333144,
          "durationTicks": 46,
          "midi": 70,
          "name": "A#4",
          "ticks": 75840,
          "time": 158,
          "velocity": 0.7244094488188977
        },
        {
          "duration": 0.09583333333335986,
          "durationTicks": 46,
          "midi": 72,
          "name": "C5",
          "ticks": 75936,
          "time": 158.2,
          "velocity": 0.7244094488188977
        },
        {
          "duration": 0.09583333333333144,
          "durationTicks": 46,
          "midi": 70,
          "name": "A#4",
          "ticks": 76032,
          "time": 158.4,
          "velocity": 0.7244094488188977
        },
        {
          "duration": 0.09583333333330302,
          "durationTicks": 46,
          "midi": 68,
          "name": "G#4",
          "ticks": 76128,
          "time": 158.60000000000002,
          "velocity": 0.7244094488188977
        },
        {
          "duration": 0.09583333333333144,
          "durationTicks": 46,
          "midi": 67,
          "name": "G4",
          "ticks": 76224,
          "time": 158.8,
          "velocity": 0.7244094488188977
        },
        {
          "duration": 0.09583333333333144,
          "durationTicks": 46,
          "midi": 62,
          "name": "D4",
          "ticks": 76320,
          "time": 159,
          "velocity": 0.7244094488188977
        },
        {
          "duration": 0.04583333333334849,
          "durationTicks": 22,
          "midi": 59,
          "name": "B3",
          "ticks": 76416,
          "time": 159.2,
          "velocity": 0.7244094488188977
        },
        {
          "duration": 0.04583333333334849,
          "durationTicks": 22,
          "midi": 59,
          "name": "B3",
          "ticks": 76440,
          "time": 159.25,
          "velocity": 0.7244094488188977
        },
        {
          "duration": 0.6333333333333258,
          "durationTicks": 304,
          "midi": 59,
          "name": "B3",
          "ticks": 76464,
          "time": 159.3,
          "velocity": 0.7244094488188977
        },
        {
          "duration": 0.09583333333335986,
          "durationTicks": 46,
          "midi": 56,
          "name": "G#3",
          "ticks": 76896,
          "time": 160.2,
          "velocity": 0.7244094488188977
        },
        {
          "duration": 0.09583333333333144,
          "durationTicks": 46,
          "midi": 60,
          "name": "C4",
          "ticks": 76992,
          "time": 160.4,
          "velocity": 0.7244094488188977
        },
        {
          "duration": 0.09583333333330302,
          "durationTicks": 46,
          "midi": 65,
          "name": "F4",
          "ticks": 77088,
          "time": 160.60000000000002,
          "velocity": 0.7244094488188977
        },
        {
          "duration": 0.39999999999997726,
          "durationTicks": 192,
          "midi": 68,
          "name": "G#4",
          "ticks": 77184,
          "time": 160.8,
          "velocity": 0.7244094488188977
        },
        {
          "duration": 0.4000000000000341,
          "durationTicks": 192,
          "midi": 65,
          "name": "F4",
          "ticks": 77376,
          "time": 161.2,
          "velocity": 0.7244094488188977
        },
        {
          "duration": 0.09583333333330302,
          "durationTicks": 46,
          "midi": 62,
          "name": "D4",
          "ticks": 77568,
          "time": 161.60000000000002,
          "velocity": 0.7244094488188977
        },
        {
          "duration": 0.09583333333333144,
          "durationTicks": 46,
          "midi": 63,
          "name": "D#4",
          "ticks": 77664,
          "time": 161.8,
          "velocity": 0.7244094488188977
        },
        {
          "duration": 0.04583333333334849,
          "durationTicks": 22,
          "midi": 65,
          "name": "F4",
          "ticks": 77760,
          "time": 162,
          "velocity": 0.7244094488188977
        },
        {
          "duration": 0.04583333333332007,
          "durationTicks": 22,
          "midi": 65,
          "name": "F4",
          "ticks": 77784,
          "time": 162.05,
          "velocity": 0.7244094488188977
        },
        {
          "duration": 0.29583333333332007,
          "durationTicks": 142,
          "midi": 65,
          "name": "F4",
          "ticks": 77808,
          "time": 162.10000000000002,
          "velocity": 0.7244094488188977
        },
        {
          "duration": 0.09583333333333144,
          "durationTicks": 46,
          "midi": 62,
          "name": "D4",
          "ticks": 77952,
          "time": 162.4,
          "velocity": 0.7244094488188977
        },
        {
          "duration": 0.09583333333330302,
          "durationTicks": 46,
          "midi": 59,
          "name": "B3",
          "ticks": 78048,
          "time": 162.60000000000002,
          "velocity": 0.7244094488188977
        },
        {
          "duration": 0.09583333333333144,
          "durationTicks": 46,
          "midi": 60,
          "name": "C4",
          "ticks": 78144,
          "time": 162.8,
          "velocity": 0.7244094488188977
        },
        {
          "duration": 0.09583333333333144,
          "durationTicks": 46,
          "midi": 62,
          "name": "D4",
          "ticks": 78240,
          "time": 163,
          "velocity": 0.7244094488188977
        },
        {
          "duration": 0.30000000000001137,
          "durationTicks": 144,
          "midi": 63,
          "name": "D#4",
          "ticks": 78336,
          "time": 163.2,
          "velocity": 0.7244094488188977
        },
        {
          "duration": 0.05000000000001137,
          "durationTicks": 24,
          "midi": 65,
          "name": "F4",
          "ticks": 78480,
          "time": 163.5,
          "velocity": 0.7244094488188977
        },
        {
          "duration": 0.05000000000001137,
          "durationTicks": 24,
          "midi": 63,
          "name": "D#4",
          "ticks": 78504,
          "time": 163.55,
          "velocity": 0.7244094488188977
        },
        {
          "duration": 0.09583333333330302,
          "durationTicks": 46,
          "midi": 62,
          "name": "D4",
          "ticks": 78528,
          "time": 163.60000000000002,
          "velocity": 0.7244094488188977
        },
        {
          "duration": 0.09583333333333144,
          "durationTicks": 46,
          "midi": 60,
          "name": "C4",
          "ticks": 78624,
          "time": 163.8,
          "velocity": 0.7244094488188977
        },
        {
          "duration": 0.4000000000000057,
          "durationTicks": 192,
          "midi": 68,
          "name": "G#4",
          "ticks": 78720,
          "time": 164,
          "velocity": 0.7244094488188977
        },
        {
          "duration": 0.09583333333333144,
          "durationTicks": 46,
          "midi": 67,
          "name": "G4",
          "ticks": 78912,
          "time": 164.4,
          "velocity": 0.7244094488188977
        },
        {
          "duration": 0.09583333333330302,
          "durationTicks": 46,
          "midi": 65,
          "name": "F4",
          "ticks": 79008,
          "time": 164.60000000000002,
          "velocity": 0.7244094488188977
        },
        {
          "duration": 0.29583333333332007,
          "durationTicks": 142,
          "midi": 63,
          "name": "D#4",
          "ticks": 79104,
          "time": 164.8,
          "velocity": 0.7244094488188977
        },
        {
          "duration": 0.04583333333332007,
          "durationTicks": 22,
          "midi": 65,
          "name": "F4",
          "ticks": 79248,
          "time": 165.10000000000002,
          "velocity": 0.7244094488188977
        },
        {
          "duration": 0.04583333333332007,
          "durationTicks": 22,
          "midi": 63,
          "name": "D#4",
          "ticks": 79272,
          "time": 165.15,
          "velocity": 0.7244094488188977
        },
        {
          "duration": 0.09583333333335986,
          "durationTicks": 46,
          "midi": 62,
          "name": "D4",
          "ticks": 79296,
          "time": 165.2,
          "velocity": 0.7244094488188977
        },
        {
          "duration": 0.09583333333333144,
          "durationTicks": 46,
          "midi": 65,
          "name": "F4",
          "ticks": 79392,
          "time": 165.4,
          "velocity": 0.7244094488188977
        },
        {
          "duration": 0.6999999999999886,
          "durationTicks": 336,
          "midi": 63,
          "name": "D#4",
          "ticks": 79488,
          "time": 165.60000000000002,
          "velocity": 0.7244094488188977
        },
        {
          "duration": 0.20000000000001705,
          "durationTicks": 96,
          "midi": 84,
          "name": "C6",
          "ticks": 82752,
          "time": 172.4,
          "velocity": 0.7244094488188977
        }
      ],
      "endOfTrackTicks": 82848
    },
    {
      "channel": 4,
      "controlChanges": {
        "7": [
          {
            "number": 7,
            "ticks": 0,
            "time": 0,
            "value": 1
          }
        ],
        "10": [
          {
            "number": 10,
            "ticks": 0,
            "time": 0,
            "value": 0.5039370078740157
          }
        ]
      },
      "pitchBends": [],
      "instrument": {
        "family": "strings",
        "number": 41,
        "name": "viola"
      },
      "name": "Staff-12",
      "notes": [
        {
          "duration": 0.09583333333333144,
          "durationTicks": 46,
          "midi": 56,
          "name": "G#3",
          "ticks": 15456,
          "time": 32.2,
          "velocity": 0.7244094488188977
        },
        {
          "duration": 0.09583333333333144,
          "durationTicks": 46,
          "midi": 60,
          "name": "C4",
          "ticks": 15552,
          "time": 32.4,
          "velocity": 0.7244094488188977
        },
        {
          "duration": 0.09583333333333144,
          "durationTicks": 46,
          "midi": 65,
          "name": "F4",
          "ticks": 15648,
          "time": 32.6,
          "velocity": 0.7244094488188977
        },
        {
          "duration": 0.3999999999999986,
          "durationTicks": 192,
          "midi": 68,
          "name": "G#4",
          "ticks": 15744,
          "time": 32.800000000000004,
          "velocity": 0.7244094488188977
        },
        {
          "duration": 0.3999999999999986,
          "durationTicks": 192,
          "midi": 65,
          "name": "F4",
          "ticks": 15936,
          "time": 33.2,
          "velocity": 0.7244094488188977
        },
        {
          "duration": 0.09583333333333144,
          "durationTicks": 46,
          "midi": 62,
          "name": "D4",
          "ticks": 16128,
          "time": 33.6,
          "velocity": 0.7244094488188977
        },
        {
          "duration": 0.09583333333333144,
          "durationTicks": 46,
          "midi": 63,
          "name": "D#4",
          "ticks": 16224,
          "time": 33.800000000000004,
          "velocity": 0.7244094488188977
        },
        {
          "duration": 0.04583333333333428,
          "durationTicks": 22,
          "midi": 65,
          "name": "F4",
          "ticks": 16320,
          "time": 34,
          "velocity": 0.7244094488188977
        },
        {
          "duration": 0.045833333333327175,
          "durationTicks": 22,
          "midi": 65,
          "name": "F4",
          "ticks": 16344,
          "time": 34.050000000000004,
          "velocity": 0.7244094488188977
        },
        {
          "duration": 0.2958333333333343,
          "durationTicks": 142,
          "midi": 65,
          "name": "F4",
          "ticks": 16368,
          "time": 34.1,
          "velocity": 0.7244094488188977
        },
        {
          "duration": 0.09583333333333144,
          "durationTicks": 46,
          "midi": 62,
          "name": "D4",
          "ticks": 16512,
          "time": 34.4,
          "velocity": 0.7244094488188977
        },
        {
          "duration": 0.09583333333333144,
          "durationTicks": 46,
          "midi": 59,
          "name": "B3",
          "ticks": 16608,
          "time": 34.6,
          "velocity": 0.7244094488188977
        },
        {
          "duration": 0.09583333333333144,
          "durationTicks": 46,
          "midi": 60,
          "name": "C4",
          "ticks": 16704,
          "time": 34.800000000000004,
          "velocity": 0.7244094488188977
        },
        {
          "duration": 0.09583333333333144,
          "durationTicks": 46,
          "midi": 62,
          "name": "D4",
          "ticks": 16800,
          "time": 35,
          "velocity": 0.7244094488188977
        },
        {
          "duration": 0.29999999999999716,
          "durationTicks": 144,
          "midi": 63,
          "name": "D#4",
          "ticks": 16896,
          "time": 35.2,
          "velocity": 0.7244094488188977
        },
        {
          "duration": 0.05000000000000426,
          "durationTicks": 24,
          "midi": 65,
          "name": "F4",
          "ticks": 17040,
          "time": 35.5,
          "velocity": 0.7244094488188977
        },
        {
          "duration": 0.04999999999999716,
          "durationTicks": 24,
          "midi": 63,
          "name": "D#4",
          "ticks": 17064,
          "time": 35.550000000000004,
          "velocity": 0.7244094488188977
        },
        {
          "duration": 0.09583333333333144,
          "durationTicks": 46,
          "midi": 62,
          "name": "D4",
          "ticks": 17088,
          "time": 35.6,
          "velocity": 0.7244094488188977
        },
        {
          "duration": 0.09583333333333144,
          "durationTicks": 46,
          "midi": 60,
          "name": "C4",
          "ticks": 17184,
          "time": 35.800000000000004,
          "velocity": 0.7244094488188977
        },
        {
          "duration": 0.3999999999999986,
          "durationTicks": 192,
          "midi": 68,
          "name": "G#4",
          "ticks": 17280,
          "time": 36,
          "velocity": 0.7244094488188977
        },
        {
          "duration": 0.09583333333333144,
          "durationTicks": 46,
          "midi": 67,
          "name": "G4",
          "ticks": 17472,
          "time": 36.4,
          "velocity": 0.7244094488188977
        },
        {
          "duration": 0.09583333333333144,
          "durationTicks": 46,
          "midi": 65,
          "name": "F4",
          "ticks": 17568,
          "time": 36.6,
          "velocity": 0.7244094488188977
        },
        {
          "duration": 0.2958333333333272,
          "durationTicks": 142,
          "midi": 63,
          "name": "D#4",
          "ticks": 17664,
          "time": 36.800000000000004,
          "velocity": 0.7244094488188977
        },
        {
          "duration": 0.04583333333333428,
          "durationTicks": 22,
          "midi": 65,
          "name": "F4",
          "ticks": 17808,
          "time": 37.1,
          "velocity": 0.7244094488188977
        },
        {
          "duration": 0.04583333333333428,
          "durationTicks": 22,
          "midi": 63,
          "name": "D#4",
          "ticks": 17832,
          "time": 37.15,
          "velocity": 0.7244094488188977
        },
        {
          "duration": 0.09583333333333144,
          "durationTicks": 46,
          "midi": 62,
          "name": "D4",
          "ticks": 17856,
          "time": 37.2,
          "velocity": 0.7244094488188977
        },
        {
          "duration": 0.09583333333333144,
          "durationTicks": 46,
          "midi": 65,
          "name": "F4",
          "ticks": 17952,
          "time": 37.4,
          "velocity": 0.7244094488188977
        },
        {
          "duration": 0.7000000000000028,
          "durationTicks": 336,
          "midi": 63,
          "name": "D#4",
          "ticks": 18048,
          "time": 37.6,
          "velocity": 0.7244094488188977
        },
        {
          "duration": 0.09583333333333144,
          "durationTicks": 46,
          "midi": 56,
          "name": "G#3",
          "ticks": 18528,
          "time": 38.6,
          "velocity": 0.7244094488188977
        },
        {
          "duration": 0.09583333333333144,
          "durationTicks": 46,
          "midi": 60,
          "name": "C4",
          "ticks": 18624,
          "time": 38.800000000000004,
          "velocity": 0.7244094488188977
        },
        {
          "duration": 0.09583333333333144,
          "durationTicks": 46,
          "midi": 65,
          "name": "F4",
          "ticks": 18720,
          "time": 39,
          "velocity": 0.7244094488188977
        },
        {
          "duration": 0.3999999999999986,
          "durationTicks": 192,
          "midi": 68,
          "name": "G#4",
          "ticks": 18816,
          "time": 39.2,
          "velocity": 0.7244094488188977
        },
        {
          "duration": 0.3999999999999986,
          "durationTicks": 192,
          "midi": 65,
          "name": "F4",
          "ticks": 19008,
          "time": 39.6,
          "velocity": 0.7244094488188977
        },
        {
          "duration": 0.09583333333333144,
          "durationTicks": 46,
          "midi": 62,
          "name": "D4",
          "ticks": 19200,
          "time": 40,
          "velocity": 0.7244094488188977
        },
        {
          "duration": 0.09583333333333144,
          "durationTicks": 46,
          "midi": 63,
          "name": "D#4",
          "ticks": 19296,
          "time": 40.2,
          "velocity": 0.7244094488188977
        },
        {
          "duration": 0.045833333333327175,
          "durationTicks": 22,
          "midi": 65,
          "name": "F4",
          "ticks": 19392,
          "time": 40.400000000000006,
          "velocity": 0.7244094488188977
        },
        {
          "duration": 0.04583333333333428,
          "durationTicks": 22,
          "midi": 65,
          "name": "F4",
          "ticks": 19416,
          "time": 40.45,
          "velocity": 0.7244094488188977
        },
        {
          "duration": 0.2958333333333343,
          "durationTicks": 142,
          "midi": 65,
          "name": "F4",
          "ticks": 19440,
          "time": 40.5,
          "velocity": 0.7244094488188977
        },
        {
          "duration": 0.09583333333333144,
          "durationTicks": 46,
          "midi": 62,
          "name": "D4",
          "ticks": 19584,
          "time": 40.800000000000004,
          "velocity": 0.7244094488188977
        },
        {
          "duration": 0.09583333333333144,
          "durationTicks": 46,
          "midi": 59,
          "name": "B3",
          "ticks": 19680,
          "time": 41,
          "velocity": 0.7244094488188977
        },
        {
          "duration": 0.09583333333333144,
          "durationTicks": 46,
          "midi": 60,
          "name": "C4",
          "ticks": 19776,
          "time": 41.2,
          "velocity": 0.7244094488188977
        },
        {
          "duration": 0.09583333333333144,
          "durationTicks": 46,
          "midi": 62,
          "name": "D4",
          "ticks": 19872,
          "time": 41.400000000000006,
          "velocity": 0.7244094488188977
        },
        {
          "duration": 0.30000000000000426,
          "durationTicks": 144,
          "midi": 63,
          "name": "D#4",
          "ticks": 19968,
          "time": 41.6,
          "velocity": 0.7244094488188977
        },
        {
          "duration": 0.04999999999999716,
          "durationTicks": 24,
          "midi": 65,
          "name": "F4",
          "ticks": 20112,
          "time": 41.900000000000006,
          "velocity": 0.7244094488188977
        },
        {
          "duration": 0.04999999999999716,
          "durationTicks": 24,
          "midi": 63,
          "name": "D#4",
          "ticks": 20136,
          "time": 41.95,
          "velocity": 0.7244094488188977
        },
        {
          "duration": 0.09583333333333144,
          "durationTicks": 46,
          "midi": 62,
          "name": "D4",
          "ticks": 20160,
          "time": 42,
          "velocity": 0.7244094488188977
        },
        {
          "duration": 0.09583333333333144,
          "durationTicks": 46,
          "midi": 60,
          "name": "C4",
          "ticks": 20256,
          "time": 42.2,
          "velocity": 0.7244094488188977
        },
        {
          "duration": 0.3999999999999986,
          "durationTicks": 192,
          "midi": 68,
          "name": "G#4",
          "ticks": 20352,
          "time": 42.400000000000006,
          "velocity": 0.7244094488188977
        },
        {
          "duration": 0.09583333333333144,
          "durationTicks": 46,
          "midi": 70,
          "name": "A#4",
          "ticks": 20544,
          "time": 42.800000000000004,
          "velocity": 0.7244094488188977
        },
        {
          "duration": 0.09583333333333144,
          "durationTicks": 46,
          "midi": 72,
          "name": "C5",
          "ticks": 20640,
          "time": 43,
          "velocity": 0.7244094488188977
        },
        {
          "duration": 0.09583333333333144,
          "durationTicks": 46,
          "midi": 70,
          "name": "A#4",
          "ticks": 20736,
          "time": 43.2,
          "velocity": 0.7244094488188977
        },
        {
          "duration": 0.09583333333333144,
          "durationTicks": 46,
          "midi": 68,
          "name": "G#4",
          "ticks": 20832,
          "time": 43.400000000000006,
          "velocity": 0.7244094488188977
        },
        {
          "duration": 0.09583333333333144,
          "durationTicks": 46,
          "midi": 67,
          "name": "G4",
          "ticks": 20928,
          "time": 43.6,
          "velocity": 0.7244094488188977
        },
        {
          "duration": 0.09583333333333144,
          "durationTicks": 46,
          "midi": 62,
          "name": "D4",
          "ticks": 21024,
          "time": 43.800000000000004,
          "velocity": 0.7244094488188977
        },
        {
          "duration": 0.04583333333333428,
          "durationTicks": 22,
          "midi": 59,
          "name": "B3",
          "ticks": 21120,
          "time": 44,
          "velocity": 0.7244094488188977
        },
        {
          "duration": 0.045833333333327175,
          "durationTicks": 22,
          "midi": 59,
          "name": "B3",
          "ticks": 21144,
          "time": 44.050000000000004,
          "velocity": 0.7244094488188977
        },
        {
          "duration": 0.6333333333333329,
          "durationTicks": 304,
          "midi": 59,
          "name": "B3",
          "ticks": 21168,
          "time": 44.1,
          "velocity": 0.7244094488188977
        },
        {
          "duration": 0.09583333333333144,
          "durationTicks": 46,
          "midi": 56,
          "name": "G#3",
          "ticks": 21600,
          "time": 45,
          "velocity": 0.7244094488188977
        },
        {
          "duration": 0.09583333333333144,
          "durationTicks": 46,
          "midi": 60,
          "name": "C4",
          "ticks": 21696,
          "time": 45.2,
          "velocity": 0.7244094488188977
        },
        {
          "duration": 0.09583333333333144,
          "durationTicks": 46,
          "midi": 65,
          "name": "F4",
          "ticks": 21792,
          "time": 45.400000000000006,
          "velocity": 0.7244094488188977
        },
        {
          "duration": 0.3999999999999986,
          "durationTicks": 192,
          "midi": 68,
          "name": "G#4",
          "ticks": 21888,
          "time": 45.6,
          "velocity": 0.7244094488188977
        },
        {
          "duration": 0.4000000000000057,
          "durationTicks": 192,
          "midi": 65,
          "name": "F4",
          "ticks": 22080,
          "time": 46,
          "velocity": 0.7244094488188977
        },
        {
          "duration": 0.09583333333333144,
          "durationTicks": 46,
          "midi": 62,
          "name": "D4",
          "ticks": 22272,
          "time": 46.400000000000006,
          "velocity": 0.7244094488188977
        },
        {
          "duration": 0.09583333333333144,
          "durationTicks": 46,
          "midi": 63,
          "name": "D#4",
          "ticks": 22368,
          "time": 46.6,
          "velocity": 0.7244094488188977
        },
        {
          "duration": 0.045833333333327175,
          "durationTicks": 22,
          "midi": 65,
          "name": "F4",
          "ticks": 22464,
          "time": 46.800000000000004,
          "velocity": 0.7244094488188977
        },
        {
          "duration": 0.04583333333333428,
          "durationTicks": 22,
          "midi": 65,
          "name": "F4",
          "ticks": 22488,
          "time": 46.85,
          "velocity": 0.7244094488188977
        },
        {
          "duration": 0.2958333333333272,
          "durationTicks": 142,
          "midi": 65,
          "name": "F4",
          "ticks": 22512,
          "time": 46.900000000000006,
          "velocity": 0.7244094488188977
        },
        {
          "duration": 0.09583333333333144,
          "durationTicks": 46,
          "midi": 62,
          "name": "D4",
          "ticks": 22656,
          "time": 47.2,
          "velocity": 0.7244094488188977
        },
        {
          "duration": 0.09583333333333144,
          "durationTicks": 46,
          "midi": 59,
          "name": "B3",
          "ticks": 22752,
          "time": 47.400000000000006,
          "velocity": 0.7244094488188977
        },
        {
          "duration": 0.09583333333333144,
          "durationTicks": 46,
          "midi": 60,
          "name": "C4",
          "ticks": 22848,
          "time": 47.6,
          "velocity": 0.7244094488188977
        },
        {
          "duration": 0.09583333333333144,
          "durationTicks": 46,
          "midi": 62,
          "name": "D4",
          "ticks": 22944,
          "time": 47.800000000000004,
          "velocity": 0.7244094488188977
        },
        {
          "duration": 0.30000000000000426,
          "durationTicks": 144,
          "midi": 63,
          "name": "D#4",
          "ticks": 23040,
          "time": 48,
          "velocity": 0.7244094488188977
        },
        {
          "duration": 0.04999999999999716,
          "durationTicks": 24,
          "midi": 65,
          "name": "F4",
          "ticks": 23184,
          "time": 48.300000000000004,
          "velocity": 0.7244094488188977
        },
        {
          "duration": 0.05000000000000426,
          "durationTicks": 24,
          "midi": 63,
          "name": "D#4",
          "ticks": 23208,
          "time": 48.35,
          "velocity": 0.7244094488188977
        },
        {
          "duration": 0.09583333333333144,
          "durationTicks": 46,
          "midi": 62,
          "name": "D4",
          "ticks": 23232,
          "time": 48.400000000000006,
          "velocity": 0.7244094488188977
        },
        {
          "duration": 0.09583333333333144,
          "durationTicks": 46,
          "midi": 60,
          "name": "C4",
          "ticks": 23328,
          "time": 48.6,
          "velocity": 0.7244094488188977
        },
        {
          "duration": 0.3999999999999986,
          "durationTicks": 192,
          "midi": 68,
          "name": "G#4",
          "ticks": 23424,
          "time": 48.800000000000004,
          "velocity": 0.7244094488188977
        },
        {
          "duration": 0.09583333333333144,
          "durationTicks": 46,
          "midi": 67,
          "name": "G4",
          "ticks": 23616,
          "time": 49.2,
          "velocity": 0.7244094488188977
        },
        {
          "duration": 0.09583333333333144,
          "durationTicks": 46,
          "midi": 65,
          "name": "F4",
          "ticks": 23712,
          "time": 49.400000000000006,
          "velocity": 0.7244094488188977
        },
        {
          "duration": 0.2958333333333343,
          "durationTicks": 142,
          "midi": 63,
          "name": "D#4",
          "ticks": 23808,
          "time": 49.6,
          "velocity": 0.7244094488188977
        },
        {
          "duration": 0.045833333333327175,
          "durationTicks": 22,
          "midi": 65,
          "name": "F4",
          "ticks": 23952,
          "time": 49.900000000000006,
          "velocity": 0.7244094488188977
        },
        {
          "duration": 0.04583333333333428,
          "durationTicks": 22,
          "midi": 63,
          "name": "D#4",
          "ticks": 23976,
          "time": 49.95,
          "velocity": 0.7244094488188977
        },
        {
          "duration": 0.09583333333333144,
          "durationTicks": 46,
          "midi": 62,
          "name": "D4",
          "ticks": 24000,
          "time": 50,
          "velocity": 0.7244094488188977
        },
        {
          "duration": 0.09583333333333144,
          "durationTicks": 46,
          "midi": 65,
          "name": "F4",
          "ticks": 24096,
          "time": 50.2,
          "velocity": 0.7244094488188977
        },
        {
          "duration": 0.6999999999999957,
          "durationTicks": 336,
          "midi": 63,
          "name": "D#4",
          "ticks": 24192,
          "time": 50.400000000000006,
          "velocity": 0.7244094488188977
        },
        {
          "duration": 0.09583333333333144,
          "durationTicks": 46,
          "midi": 56,
          "name": "G#3",
          "ticks": 43104,
          "time": 89.80000000000001,
          "velocity": 0.7244094488188977
        },
        {
          "duration": 0.09583333333333144,
          "durationTicks": 46,
          "midi": 60,
          "name": "C4",
          "ticks": 43200,
          "time": 90,
          "velocity": 0.7244094488188977
        },
        {
          "duration": 0.09583333333333144,
          "durationTicks": 46,
          "midi": 65,
          "name": "F4",
          "ticks": 43296,
          "time": 90.2,
          "velocity": 0.7244094488188977
        },
        {
          "duration": 0.4000000000000057,
          "durationTicks": 192,
          "midi": 68,
          "name": "G#4",
          "ticks": 43392,
          "time": 90.4,
          "velocity": 0.7244094488188977
        },
        {
          "duration": 0.3999999999999915,
          "durationTicks": 192,
          "midi": 65,
          "name": "F4",
          "ticks": 43584,
          "time": 90.80000000000001,
          "velocity": 0.7244094488188977
        },
        {
          "duration": 0.09583333333333144,
          "durationTicks": 46,
          "midi": 62,
          "name": "D4",
          "ticks": 43776,
          "time": 91.2,
          "velocity": 0.7244094488188977
        },
        {
          "duration": 0.09583333333333144,
          "durationTicks": 46,
          "midi": 63,
          "name": "D#4",
          "ticks": 43872,
          "time": 91.4,
          "velocity": 0.7244094488188977
        },
        {
          "duration": 0.04583333333334849,
          "durationTicks": 22,
          "midi": 65,
          "name": "F4",
          "ticks": 43968,
          "time": 91.6,
          "velocity": 0.7244094488188977
        },
        {
          "duration": 0.04583333333332007,
          "durationTicks": 22,
          "midi": 65,
          "name": "F4",
          "ticks": 43992,
          "time": 91.65,
          "velocity": 0.7244094488188977
        },
        {
          "duration": 0.2958333333333343,
          "durationTicks": 142,
          "midi": 65,
          "name": "F4",
          "ticks": 44016,
          "time": 91.7,
          "velocity": 0.7244094488188977
        },
        {
          "duration": 0.09583333333333144,
          "durationTicks": 46,
          "midi": 62,
          "name": "D4",
          "ticks": 44160,
          "time": 92,
          "velocity": 0.7244094488188977
        },
        {
          "duration": 0.09583333333333144,
          "durationTicks": 46,
          "midi": 59,
          "name": "B3",
          "ticks": 44256,
          "time": 92.2,
          "velocity": 0.7244094488188977
        },
        {
          "duration": 0.09583333333333144,
          "durationTicks": 46,
          "midi": 60,
          "name": "C4",
          "ticks": 44352,
          "time": 92.4,
          "velocity": 0.7244094488188977
        },
        {
          "duration": 0.09583333333333144,
          "durationTicks": 46,
          "midi": 62,
          "name": "D4",
          "ticks": 44448,
          "time": 92.6,
          "velocity": 0.7244094488188977
        },
        {
          "duration": 0.29999999999998295,
          "durationTicks": 144,
          "midi": 63,
          "name": "D#4",
          "ticks": 44544,
          "time": 92.80000000000001,
          "velocity": 0.7244094488188977
        },
        {
          "duration": 0.05000000000001137,
          "durationTicks": 24,
          "midi": 65,
          "name": "F4",
          "ticks": 44688,
          "time": 93.1,
          "velocity": 0.7244094488188977
        },
        {
          "duration": 0.04999999999999716,
          "durationTicks": 24,
          "midi": 63,
          "name": "D#4",
          "ticks": 44712,
          "time": 93.15,
          "velocity": 0.7244094488188977
        },
        {
          "duration": 0.09583333333333144,
          "durationTicks": 46,
          "midi": 62,
          "name": "D4",
          "ticks": 44736,
          "time": 93.2,
          "velocity": 0.7244094488188977
        },
        {
          "duration": 0.09583333333333144,
          "durationTicks": 46,
          "midi": 60,
          "name": "C4",
          "ticks": 44832,
          "time": 93.4,
          "velocity": 0.7244094488188977
        },
        {
          "duration": 0.4000000000000057,
          "durationTicks": 192,
          "midi": 68,
          "name": "G#4",
          "ticks": 44928,
          "time": 93.6,
          "velocity": 0.7244094488188977
        },
        {
          "duration": 0.09583333333333144,
          "durationTicks": 46,
          "midi": 67,
          "name": "G4",
          "ticks": 45120,
          "time": 94,
          "velocity": 0.7244094488188977
        },
        {
          "duration": 0.09583333333333144,
          "durationTicks": 46,
          "midi": 65,
          "name": "F4",
          "ticks": 45216,
          "time": 94.2,
          "velocity": 0.7244094488188977
        },
        {
          "duration": 0.29583333333332007,
          "durationTicks": 142,
          "midi": 63,
          "name": "D#4",
          "ticks": 45312,
          "time": 94.4,
          "velocity": 0.7244094488188977
        },
        {
          "duration": 0.04583333333333428,
          "durationTicks": 22,
          "midi": 65,
          "name": "F4",
          "ticks": 45456,
          "time": 94.7,
          "velocity": 0.7244094488188977
        },
        {
          "duration": 0.04583333333333428,
          "durationTicks": 22,
          "midi": 63,
          "name": "D#4",
          "ticks": 45480,
          "time": 94.75,
          "velocity": 0.7244094488188977
        },
        {
          "duration": 0.09583333333333144,
          "durationTicks": 46,
          "midi": 62,
          "name": "D4",
          "ticks": 45504,
          "time": 94.80000000000001,
          "velocity": 0.7244094488188977
        },
        {
          "duration": 0.09583333333333144,
          "durationTicks": 46,
          "midi": 65,
          "name": "F4",
          "ticks": 45600,
          "time": 95,
          "velocity": 0.7244094488188977
        },
        {
          "duration": 0.7000000000000028,
          "durationTicks": 336,
          "midi": 63,
          "name": "D#4",
          "ticks": 45696,
          "time": 95.2,
          "velocity": 0.7244094488188977
        },
        {
          "duration": 0.09583333333333144,
          "durationTicks": 46,
          "midi": 56,
          "name": "G#3",
          "ticks": 46176,
          "time": 96.2,
          "velocity": 0.7244094488188977
        },
        {
          "duration": 0.09583333333333144,
          "durationTicks": 46,
          "midi": 60,
          "name": "C4",
          "ticks": 46272,
          "time": 96.4,
          "velocity": 0.7244094488188977
        },
        {
          "duration": 0.09583333333333144,
          "durationTicks": 46,
          "midi": 65,
          "name": "F4",
          "ticks": 46368,
          "time": 96.6,
          "velocity": 0.7244094488188977
        },
        {
          "duration": 0.3999999999999915,
          "durationTicks": 192,
          "midi": 68,
          "name": "G#4",
          "ticks": 46464,
          "time": 96.80000000000001,
          "velocity": 0.7244094488188977
        },
        {
          "duration": 0.3999999999999915,
          "durationTicks": 192,
          "midi": 65,
          "name": "F4",
          "ticks": 46656,
          "time": 97.2,
          "velocity": 0.7244094488188977
        },
        {
          "duration": 0.09583333333333144,
          "durationTicks": 46,
          "midi": 62,
          "name": "D4",
          "ticks": 46848,
          "time": 97.6,
          "velocity": 0.7244094488188977
        },
        {
          "duration": 0.09583333333333144,
          "durationTicks": 46,
          "midi": 63,
          "name": "D#4",
          "ticks": 46944,
          "time": 97.80000000000001,
          "velocity": 0.7244094488188977
        },
        {
          "duration": 0.04583333333333428,
          "durationTicks": 22,
          "midi": 65,
          "name": "F4",
          "ticks": 47040,
          "time": 98,
          "velocity": 0.7244094488188977
        },
        {
          "duration": 0.04583333333332007,
          "durationTicks": 22,
          "midi": 65,
          "name": "F4",
          "ticks": 47064,
          "time": 98.05000000000001,
          "velocity": 0.7244094488188977
        },
        {
          "duration": 0.2958333333333485,
          "durationTicks": 142,
          "midi": 65,
          "name": "F4",
          "ticks": 47088,
          "time": 98.1,
          "velocity": 0.7244094488188977
        },
        {
          "duration": 0.09583333333333144,
          "durationTicks": 46,
          "midi": 62,
          "name": "D4",
          "ticks": 47232,
          "time": 98.4,
          "velocity": 0.7244094488188977
        },
        {
          "duration": 0.09583333333333144,
          "durationTicks": 46,
          "midi": 59,
          "name": "B3",
          "ticks": 47328,
          "time": 98.6,
          "velocity": 0.7244094488188977
        },
        {
          "duration": 0.09583333333333144,
          "durationTicks": 46,
          "midi": 60,
          "name": "C4",
          "ticks": 47424,
          "time": 98.80000000000001,
          "velocity": 0.7244094488188977
        },
        {
          "duration": 0.09583333333333144,
          "durationTicks": 46,
          "midi": 62,
          "name": "D4",
          "ticks": 47520,
          "time": 99,
          "velocity": 0.7244094488188977
        },
        {
          "duration": 0.29999999999999716,
          "durationTicks": 144,
          "midi": 63,
          "name": "D#4",
          "ticks": 47616,
          "time": 99.2,
          "velocity": 0.7244094488188977
        },
        {
          "duration": 0.05000000000001137,
          "durationTicks": 24,
          "midi": 65,
          "name": "F4",
          "ticks": 47760,
          "time": 99.5,
          "velocity": 0.7244094488188977
        },
        {
          "duration": 0.04999999999998295,
          "durationTicks": 24,
          "midi": 63,
          "name": "D#4",
          "ticks": 47784,
          "time": 99.55000000000001,
          "velocity": 0.7244094488188977
        },
        {
          "duration": 0.09583333333333144,
          "durationTicks": 46,
          "midi": 62,
          "name": "D4",
          "ticks": 47808,
          "time": 99.6,
          "velocity": 0.7244094488188977
        },
        {
          "duration": 0.09583333333333144,
          "durationTicks": 46,
          "midi": 60,
          "name": "C4",
          "ticks": 47904,
          "time": 99.80000000000001,
          "velocity": 0.7244094488188977
        },
        {
          "duration": 0.4000000000000057,
          "durationTicks": 192,
          "midi": 68,
          "name": "G#4",
          "ticks": 48000,
          "time": 100,
          "velocity": 0.7244094488188977
        },
        {
          "duration": 0.09583333333333144,
          "durationTicks": 46,
          "midi": 70,
          "name": "A#4",
          "ticks": 48192,
          "time": 100.4,
          "velocity": 0.7244094488188977
        },
        {
          "duration": 0.09583333333333144,
          "durationTicks": 46,
          "midi": 72,
          "name": "C5",
          "ticks": 48288,
          "time": 100.6,
          "velocity": 0.7244094488188977
        },
        {
          "duration": 0.09583333333333144,
          "durationTicks": 46,
          "midi": 70,
          "name": "A#4",
          "ticks": 48384,
          "time": 100.80000000000001,
          "velocity": 0.7244094488188977
        },
        {
          "duration": 0.09583333333333144,
          "durationTicks": 46,
          "midi": 68,
          "name": "G#4",
          "ticks": 48480,
          "time": 101,
          "velocity": 0.7244094488188977
        },
        {
          "duration": 0.09583333333333144,
          "durationTicks": 46,
          "midi": 67,
          "name": "G4",
          "ticks": 48576,
          "time": 101.2,
          "velocity": 0.7244094488188977
        },
        {
          "duration": 0.09583333333333144,
          "durationTicks": 46,
          "midi": 62,
          "name": "D4",
          "ticks": 48672,
          "time": 101.4,
          "velocity": 0.7244094488188977
        },
        {
          "duration": 0.04583333333334849,
          "durationTicks": 22,
          "midi": 59,
          "name": "B3",
          "ticks": 48768,
          "time": 101.6,
          "velocity": 0.7244094488188977
        },
        {
          "duration": 0.04583333333332007,
          "durationTicks": 22,
          "midi": 59,
          "name": "B3",
          "ticks": 48792,
          "time": 101.65,
          "velocity": 0.7244094488188977
        },
        {
          "duration": 0.63333333333334,
          "durationTicks": 304,
          "midi": 59,
          "name": "B3",
          "ticks": 48816,
          "time": 101.7,
          "velocity": 0.7244094488188977
        },
        {
          "duration": 0.09583333333333144,
          "durationTicks": 46,
          "midi": 56,
          "name": "G#3",
          "ticks": 49248,
          "time": 102.6,
          "velocity": 0.7244094488188977
        },
        {
          "duration": 0.09583333333333144,
          "durationTicks": 46,
          "midi": 60,
          "name": "C4",
          "ticks": 49344,
          "time": 102.80000000000001,
          "velocity": 0.7244094488188977
        },
        {
          "duration": 0.09583333333333144,
          "durationTicks": 46,
          "midi": 65,
          "name": "F4",
          "ticks": 49440,
          "time": 103,
          "velocity": 0.7244094488188977
        },
        {
          "duration": 0.3999999999999915,
          "durationTicks": 192,
          "midi": 68,
          "name": "G#4",
          "ticks": 49536,
          "time": 103.2,
          "velocity": 0.7244094488188977
        },
        {
          "duration": 0.4000000000000057,
          "durationTicks": 192,
          "midi": 65,
          "name": "F4",
          "ticks": 49728,
          "time": 103.6,
          "velocity": 0.7244094488188977
        },
        {
          "duration": 0.09583333333333144,
          "durationTicks": 46,
          "midi": 62,
          "name": "D4",
          "ticks": 49920,
          "time": 104,
          "velocity": 0.7244094488188977
        },
        {
          "duration": 0.09583333333333144,
          "durationTicks": 46,
          "midi": 63,
          "name": "D#4",
          "ticks": 50016,
          "time": 104.2,
          "velocity": 0.7244094488188977
        },
        {
          "duration": 0.04583333333332007,
          "durationTicks": 22,
          "midi": 65,
          "name": "F4",
          "ticks": 50112,
          "time": 104.4,
          "velocity": 0.7244094488188977
        },
        {
          "duration": 0.04583333333333428,
          "durationTicks": 22,
          "midi": 65,
          "name": "F4",
          "ticks": 50136,
          "time": 104.45,
          "velocity": 0.7244094488188977
        },
        {
          "duration": 0.2958333333333343,
          "durationTicks": 142,
          "midi": 65,
          "name": "F4",
          "ticks": 50160,
          "time": 104.5,
          "velocity": 0.7244094488188977
        },
        {
          "duration": 0.09583333333333144,
          "durationTicks": 46,
          "midi": 62,
          "name": "D4",
          "ticks": 50304,
          "time": 104.80000000000001,
          "velocity": 0.7244094488188977
        },
        {
          "duration": 0.09583333333333144,
          "durationTicks": 46,
          "midi": 59,
          "name": "B3",
          "ticks": 50400,
          "time": 105,
          "velocity": 0.7244094488188977
        },
        {
          "duration": 0.09583333333333144,
          "durationTicks": 46,
          "midi": 60,
          "name": "C4",
          "ticks": 50496,
          "time": 105.2,
          "velocity": 0.7244094488188977
        },
        {
          "duration": 0.09583333333333144,
          "durationTicks": 46,
          "midi": 62,
          "name": "D4",
          "ticks": 50592,
          "time": 105.4,
          "velocity": 0.7244094488188977
        },
        {
          "duration": 0.30000000000001137,
          "durationTicks": 144,
          "midi": 63,
          "name": "D#4",
          "ticks": 50688,
          "time": 105.6,
          "velocity": 0.7244094488188977
        },
        {
          "duration": 0.04999999999999716,
          "durationTicks": 24,
          "midi": 65,
          "name": "F4",
          "ticks": 50832,
          "time": 105.9,
          "velocity": 0.7244094488188977
        },
        {
          "duration": 0.04999999999999716,
          "durationTicks": 24,
          "midi": 63,
          "name": "D#4",
          "ticks": 50856,
          "time": 105.95,
          "velocity": 0.7244094488188977
        },
        {
          "duration": 0.09583333333333144,
          "durationTicks": 46,
          "midi": 62,
          "name": "D4",
          "ticks": 50880,
          "time": 106,
          "velocity": 0.7244094488188977
        },
        {
          "duration": 0.09583333333333144,
          "durationTicks": 46,
          "midi": 60,
          "name": "C4",
          "ticks": 50976,
          "time": 106.2,
          "velocity": 0.7244094488188977
        },
        {
          "duration": 0.4000000000000057,
          "durationTicks": 192,
          "midi": 68,
          "name": "G#4",
          "ticks": 51072,
          "time": 106.4,
          "velocity": 0.7244094488188977
        },
        {
          "duration": 0.09583333333333144,
          "durationTicks": 46,
          "midi": 67,
          "name": "G4",
          "ticks": 51264,
          "time": 106.80000000000001,
          "velocity": 0.7244094488188977
        },
        {
          "duration": 0.09583333333333144,
          "durationTicks": 46,
          "midi": 65,
          "name": "F4",
          "ticks": 51360,
          "time": 107,
          "velocity": 0.7244094488188977
        },
        {
          "duration": 0.2958333333333343,
          "durationTicks": 142,
          "midi": 63,
          "name": "D#4",
          "ticks": 51456,
          "time": 107.2,
          "velocity": 0.7244094488188977
        },
        {
          "duration": 0.04583333333333428,
          "durationTicks": 22,
          "midi": 65,
          "name": "F4",
          "ticks": 51600,
          "time": 107.5,
          "velocity": 0.7244094488188977
        },
        {
          "duration": 0.04583333333332007,
          "durationTicks": 22,
          "midi": 63,
          "name": "D#4",
          "ticks": 51624,
          "time": 107.55000000000001,
          "velocity": 0.7244094488188977
        },
        {
          "duration": 0.09583333333333144,
          "durationTicks": 46,
          "midi": 62,
          "name": "D4",
          "ticks": 51648,
          "time": 107.6,
          "velocity": 0.7244094488188977
        },
        {
          "duration": 0.09583333333333144,
          "durationTicks": 46,
          "midi": 65,
          "name": "F4",
          "ticks": 51744,
          "time": 107.80000000000001,
          "velocity": 0.7244094488188977
        },
        {
          "duration": 0.7000000000000028,
          "durationTicks": 336,
          "midi": 63,
          "name": "D#4",
          "ticks": 51840,
          "time": 108,
          "velocity": 0.7244094488188977
        },
        {
          "duration": 0.09583333333333144,
          "durationTicks": 46,
          "midi": 56,
          "name": "G#3",
          "ticks": 70752,
          "time": 147.4,
          "velocity": 0.7244094488188977
        },
        {
          "duration": 0.09583333333333144,
          "durationTicks": 46,
          "midi": 60,
          "name": "C4",
          "ticks": 70848,
          "time": 147.6,
          "velocity": 0.7244094488188977
        },
        {
          "duration": 0.09583333333333144,
          "durationTicks": 46,
          "midi": 65,
          "name": "F4",
          "ticks": 70944,
          "time": 147.8,
          "velocity": 0.7244094488188977
        },
        {
          "duration": 0.4000000000000057,
          "durationTicks": 192,
          "midi": 68,
          "name": "G#4",
          "ticks": 71040,
          "time": 148,
          "velocity": 0.7244094488188977
        },
        {
          "duration": 0.4000000000000057,
          "durationTicks": 192,
          "midi": 65,
          "name": "F4",
          "ticks": 71232,
          "time": 148.4,
          "velocity": 0.7244094488188977
        },
        {
          "duration": 0.09583333333333144,
          "durationTicks": 46,
          "midi": 62,
          "name": "D4",
          "ticks": 71424,
          "time": 148.8,
          "velocity": 0.7244094488188977
        },
        {
          "duration": 0.09583333333333144,
          "durationTicks": 46,
          "midi": 63,
          "name": "D#4",
          "ticks": 71520,
          "time": 149,
          "velocity": 0.7244094488188977
        },
        {
          "duration": 0.04583333333334849,
          "durationTicks": 22,
          "midi": 65,
          "name": "F4",
          "ticks": 71616,
          "time": 149.2,
          "velocity": 0.7244094488188977
        },
        {
          "duration": 0.04583333333334849,
          "durationTicks": 22,
          "midi": 65,
          "name": "F4",
          "ticks": 71640,
          "time": 149.25,
          "velocity": 0.7244094488188977
        },
        {
          "duration": 0.29583333333332007,
          "durationTicks": 142,
          "midi": 65,
          "name": "F4",
          "ticks": 71664,
          "time": 149.3,
          "velocity": 0.7244094488188977
        },
        {
          "duration": 0.09583333333333144,
          "durationTicks": 46,
          "midi": 62,
          "name": "D4",
          "ticks": 71808,
          "time": 149.6,
          "velocity": 0.7244094488188977
        },
        {
          "duration": 0.09583333333333144,
          "durationTicks": 46,
          "midi": 59,
          "name": "B3",
          "ticks": 71904,
          "time": 149.8,
          "velocity": 0.7244094488188977
        },
        {
          "duration": 0.09583333333333144,
          "durationTicks": 46,
          "midi": 60,
          "name": "C4",
          "ticks": 72000,
          "time": 150,
          "velocity": 0.7244094488188977
        },
        {
          "duration": 0.09583333333335986,
          "durationTicks": 46,
          "midi": 62,
          "name": "D4",
          "ticks": 72096,
          "time": 150.2,
          "velocity": 0.7244094488188977
        },
        {
          "duration": 0.29999999999998295,
          "durationTicks": 144,
          "midi": 63,
          "name": "D#4",
          "ticks": 72192,
          "time": 150.4,
          "velocity": 0.7244094488188977
        },
        {
          "duration": 0.05000000000001137,
          "durationTicks": 24,
          "midi": 65,
          "name": "F4",
          "ticks": 72336,
          "time": 150.7,
          "velocity": 0.7244094488188977
        },
        {
          "duration": 0.05000000000001137,
          "durationTicks": 24,
          "midi": 63,
          "name": "D#4",
          "ticks": 72360,
          "time": 150.75,
          "velocity": 0.7244094488188977
        },
        {
          "duration": 0.09583333333333144,
          "durationTicks": 46,
          "midi": 62,
          "name": "D4",
          "ticks": 72384,
          "time": 150.8,
          "velocity": 0.7244094488188977
        },
        {
          "duration": 0.09583333333333144,
          "durationTicks": 46,
          "midi": 60,
          "name": "C4",
          "ticks": 72480,
          "time": 151,
          "velocity": 0.7244094488188977
        },
        {
          "duration": 0.4000000000000057,
          "durationTicks": 192,
          "midi": 68,
          "name": "G#4",
          "ticks": 72576,
          "time": 151.2,
          "velocity": 0.7244094488188977
        },
        {
          "duration": 0.09583333333333144,
          "durationTicks": 46,
          "midi": 67,
          "name": "G4",
          "ticks": 72768,
          "time": 151.6,
          "velocity": 0.7244094488188977
        },
        {
          "duration": 0.09583333333333144,
          "durationTicks": 46,
          "midi": 65,
          "name": "F4",
          "ticks": 72864,
          "time": 151.8,
          "velocity": 0.7244094488188977
        },
        {
          "duration": 0.2958333333333485,
          "durationTicks": 142,
          "midi": 63,
          "name": "D#4",
          "ticks": 72960,
          "time": 152,
          "velocity": 0.7244094488188977
        },
        {
          "duration": 0.04583333333332007,
          "durationTicks": 22,
          "midi": 65,
          "name": "F4",
          "ticks": 73104,
          "time": 152.3,
          "velocity": 0.7244094488188977
        },
        {
          "duration": 0.04583333333334849,
          "durationTicks": 22,
          "midi": 63,
          "name": "D#4",
          "ticks": 73128,
          "time": 152.35,
          "velocity": 0.7244094488188977
        },
        {
          "duration": 0.09583333333333144,
          "durationTicks": 46,
          "midi": 62,
          "name": "D4",
          "ticks": 73152,
          "time": 152.4,
          "velocity": 0.7244094488188977
        },
        {
          "duration": 0.09583333333333144,
          "durationTicks": 46,
          "midi": 65,
          "name": "F4",
          "ticks": 73248,
          "time": 152.6,
          "velocity": 0.7244094488188977
        },
        {
          "duration": 0.6999999999999886,
          "durationTicks": 336,
          "midi": 63,
          "name": "D#4",
          "ticks": 73344,
          "time": 152.8,
          "velocity": 0.7244094488188977
        },
        {
          "duration": 0.09583333333333144,
          "durationTicks": 46,
          "midi": 56,
          "name": "G#3",
          "ticks": 73824,
          "time": 153.8,
          "velocity": 0.7244094488188977
        },
        {
          "duration": 0.09583333333333144,
          "durationTicks": 46,
          "midi": 60,
          "name": "C4",
          "ticks": 73920,
          "time": 154,
          "velocity": 0.7244094488188977
        },
        {
          "duration": 0.09583333333335986,
          "durationTicks": 46,
          "midi": 65,
          "name": "F4",
          "ticks": 74016,
          "time": 154.2,
          "velocity": 0.7244094488188977
        },
        {
          "duration": 0.4000000000000057,
          "durationTicks": 192,
          "midi": 68,
          "name": "G#4",
          "ticks": 74112,
          "time": 154.4,
          "velocity": 0.7244094488188977
        },
        {
          "duration": 0.39999999999997726,
          "durationTicks": 192,
          "midi": 65,
          "name": "F4",
          "ticks": 74304,
          "time": 154.8,
          "velocity": 0.7244094488188977
        },
        {
          "duration": 0.09583333333335986,
          "durationTicks": 46,
          "midi": 62,
          "name": "D4",
          "ticks": 74496,
          "time": 155.2,
          "velocity": 0.7244094488188977
        },
        {
          "duration": 0.09583333333333144,
          "durationTicks": 46,
          "midi": 63,
          "name": "D#4",
          "ticks": 74592,
          "time": 155.4,
          "velocity": 0.7244094488188977
        },
        {
          "duration": 0.04583333333332007,
          "durationTicks": 22,
          "midi": 65,
          "name": "F4",
          "ticks": 74688,
          "time": 155.60000000000002,
          "velocity": 0.7244094488188977
        },
        {
          "duration": 0.04583333333332007,
          "durationTicks": 22,
          "midi": 65,
          "name": "F4",
          "ticks": 74712,
          "time": 155.65,
          "velocity": 0.7244094488188977
        },
        {
          "duration": 0.2958333333333485,
          "durationTicks": 142,
          "midi": 65,
          "name": "F4",
          "ticks": 74736,
          "time": 155.7,
          "velocity": 0.7244094488188977
        },
        {
          "duration": 0.09583333333333144,
          "durationTicks": 46,
          "midi": 62,
          "name": "D4",
          "ticks": 74880,
          "time": 156,
          "velocity": 0.7244094488188977
        },
        {
          "duration": 0.09583333333335986,
          "durationTicks": 46,
          "midi": 59,
          "name": "B3",
          "ticks": 74976,
          "time": 156.2,
          "velocity": 0.7244094488188977
        },
        {
          "duration": 0.09583333333333144,
          "durationTicks": 46,
          "midi": 60,
          "name": "C4",
          "ticks": 75072,
          "time": 156.4,
          "velocity": 0.7244094488188977
        },
        {
          "duration": 0.09583333333330302,
          "durationTicks": 46,
          "midi": 62,
          "name": "D4",
          "ticks": 75168,
          "time": 156.60000000000002,
          "velocity": 0.7244094488188977
        },
        {
          "duration": 0.30000000000001137,
          "durationTicks": 144,
          "midi": 63,
          "name": "D#4",
          "ticks": 75264,
          "time": 156.8,
          "velocity": 0.7244094488188977
        },
        {
          "duration": 0.04999999999998295,
          "durationTicks": 24,
          "midi": 65,
          "name": "F4",
          "ticks": 75408,
          "time": 157.10000000000002,
          "velocity": 0.7244094488188977
        },
        {
          "duration": 0.04999999999998295,
          "durationTicks": 24,
          "midi": 63,
          "name": "D#4",
          "ticks": 75432,
          "time": 157.15,
          "velocity": 0.7244094488188977
        },
        {
          "duration": 0.09583333333335986,
          "durationTicks": 46,
          "midi": 62,
          "name": "D4",
          "ticks": 75456,
          "time": 157.2,
          "velocity": 0.7244094488188977
        },
        {
          "duration": 0.09583333333333144,
          "durationTicks": 46,
          "midi": 60,
          "name": "C4",
          "ticks": 75552,
          "time": 157.4,
          "velocity": 0.7244094488188977
        },
        {
          "duration": 0.39999999999997726,
          "durationTicks": 192,
          "midi": 68,
          "name": "G#4",
          "ticks": 75648,
          "time": 157.60000000000002,
          "velocity": 0.7244094488188977
        },
        {
          "duration": 0.09583333333333144,
          "durationTicks": 46,
          "midi": 70,
          "name": "A#4",
          "ticks": 75840,
          "time": 158,
          "velocity": 0.7244094488188977
        },
        {
          "duration": 0.09583333333335986,
          "durationTicks": 46,
          "midi": 72,
          "name": "C5",
          "ticks": 75936,
          "time": 158.2,
          "velocity": 0.7244094488188977
        },
        {
          "duration": 0.09583333333333144,
          "durationTicks": 46,
          "midi": 70,
          "name": "A#4",
          "ticks": 76032,
          "time": 158.4,
          "velocity": 0.7244094488188977
        },
        {
          "duration": 0.09583333333330302,
          "durationTicks": 46,
          "midi": 68,
          "name": "G#4",
          "ticks": 76128,
          "time": 158.60000000000002,
          "velocity": 0.7244094488188977
        },
        {
          "duration": 0.09583333333333144,
          "durationTicks": 46,
          "midi": 67,
          "name": "G4",
          "ticks": 76224,
          "time": 158.8,
          "velocity": 0.7244094488188977
        },
        {
          "duration": 0.09583333333333144,
          "durationTicks": 46,
          "midi": 62,
          "name": "D4",
          "ticks": 76320,
          "time": 159,
          "velocity": 0.7244094488188977
        },
        {
          "duration": 0.04583333333334849,
          "durationTicks": 22,
          "midi": 59,
          "name": "B3",
          "ticks": 76416,
          "time": 159.2,
          "velocity": 0.7244094488188977
        },
        {
          "duration": 0.04583333333334849,
          "durationTicks": 22,
          "midi": 59,
          "name": "B3",
          "ticks": 76440,
          "time": 159.25,
          "velocity": 0.7244094488188977
        },
        {
          "duration": 0.6333333333333258,
          "durationTicks": 304,
          "midi": 59,
          "name": "B3",
          "ticks": 76464,
          "time": 159.3,
          "velocity": 0.7244094488188977
        },
        {
          "duration": 0.09583333333335986,
          "durationTicks": 46,
          "midi": 56,
          "name": "G#3",
          "ticks": 76896,
          "time": 160.2,
          "velocity": 0.7244094488188977
        },
        {
          "duration": 0.09583333333333144,
          "durationTicks": 46,
          "midi": 60,
          "name": "C4",
          "ticks": 76992,
          "time": 160.4,
          "velocity": 0.7244094488188977
        },
        {
          "duration": 0.09583333333330302,
          "durationTicks": 46,
          "midi": 65,
          "name": "F4",
          "ticks": 77088,
          "time": 160.60000000000002,
          "velocity": 0.7244094488188977
        },
        {
          "duration": 0.39999999999997726,
          "durationTicks": 192,
          "midi": 68,
          "name": "G#4",
          "ticks": 77184,
          "time": 160.8,
          "velocity": 0.7244094488188977
        },
        {
          "duration": 0.4000000000000341,
          "durationTicks": 192,
          "midi": 65,
          "name": "F4",
          "ticks": 77376,
          "time": 161.2,
          "velocity": 0.7244094488188977
        },
        {
          "duration": 0.09583333333330302,
          "durationTicks": 46,
          "midi": 62,
          "name": "D4",
          "ticks": 77568,
          "time": 161.60000000000002,
          "velocity": 0.7244094488188977
        },
        {
          "duration": 0.09583333333333144,
          "durationTicks": 46,
          "midi": 63,
          "name": "D#4",
          "ticks": 77664,
          "time": 161.8,
          "velocity": 0.7244094488188977
        },
        {
          "duration": 0.04583333333334849,
          "durationTicks": 22,
          "midi": 65,
          "name": "F4",
          "ticks": 77760,
          "time": 162,
          "velocity": 0.7244094488188977
        },
        {
          "duration": 0.04583333333332007,
          "durationTicks": 22,
          "midi": 65,
          "name": "F4",
          "ticks": 77784,
          "time": 162.05,
          "velocity": 0.7244094488188977
        },
        {
          "duration": 0.29583333333332007,
          "durationTicks": 142,
          "midi": 65,
          "name": "F4",
          "ticks": 77808,
          "time": 162.10000000000002,
          "velocity": 0.7244094488188977
        },
        {
          "duration": 0.09583333333333144,
          "durationTicks": 46,
          "midi": 62,
          "name": "D4",
          "ticks": 77952,
          "time": 162.4,
          "velocity": 0.7244094488188977
        },
        {
          "duration": 0.09583333333330302,
          "durationTicks": 46,
          "midi": 59,
          "name": "B3",
          "ticks": 78048,
          "time": 162.60000000000002,
          "velocity": 0.7244094488188977
        },
        {
          "duration": 0.09583333333333144,
          "durationTicks": 46,
          "midi": 60,
          "name": "C4",
          "ticks": 78144,
          "time": 162.8,
          "velocity": 0.7244094488188977
        },
        {
          "duration": 0.09583333333333144,
          "durationTicks": 46,
          "midi": 62,
          "name": "D4",
          "ticks": 78240,
          "time": 163,
          "velocity": 0.7244094488188977
        },
        {
          "duration": 0.30000000000001137,
          "durationTicks": 144,
          "midi": 63,
          "name": "D#4",
          "ticks": 78336,
          "time": 163.2,
          "velocity": 0.7244094488188977
        },
        {
          "duration": 0.05000000000001137,
          "durationTicks": 24,
          "midi": 65,
          "name": "F4",
          "ticks": 78480,
          "time": 163.5,
          "velocity": 0.7244094488188977
        },
        {
          "duration": 0.05000000000001137,
          "durationTicks": 24,
          "midi": 63,
          "name": "D#4",
          "ticks": 78504,
          "time": 163.55,
          "velocity": 0.7244094488188977
        },
        {
          "duration": 0.09583333333330302,
          "durationTicks": 46,
          "midi": 62,
          "name": "D4",
          "ticks": 78528,
          "time": 163.60000000000002,
          "velocity": 0.7244094488188977
        },
        {
          "duration": 0.09583333333333144,
          "durationTicks": 46,
          "midi": 60,
          "name": "C4",
          "ticks": 78624,
          "time": 163.8,
          "velocity": 0.7244094488188977
        },
        {
          "duration": 0.4000000000000057,
          "durationTicks": 192,
          "midi": 68,
          "name": "G#4",
          "ticks": 78720,
          "time": 164,
          "velocity": 0.7244094488188977
        },
        {
          "duration": 0.09583333333333144,
          "durationTicks": 46,
          "midi": 67,
          "name": "G4",
          "ticks": 78912,
          "time": 164.4,
          "velocity": 0.7244094488188977
        },
        {
          "duration": 0.09583333333330302,
          "durationTicks": 46,
          "midi": 65,
          "name": "F4",
          "ticks": 79008,
          "time": 164.60000000000002,
          "velocity": 0.7244094488188977
        },
        {
          "duration": 0.29583333333332007,
          "durationTicks": 142,
          "midi": 63,
          "name": "D#4",
          "ticks": 79104,
          "time": 164.8,
          "velocity": 0.7244094488188977
        },
        {
          "duration": 0.04583333333332007,
          "durationTicks": 22,
          "midi": 65,
          "name": "F4",
          "ticks": 79248,
          "time": 165.10000000000002,
          "velocity": 0.7244094488188977
        },
        {
          "duration": 0.04583333333332007,
          "durationTicks": 22,
          "midi": 63,
          "name": "D#4",
          "ticks": 79272,
          "time": 165.15,
          "velocity": 0.7244094488188977
        },
        {
          "duration": 0.09583333333335986,
          "durationTicks": 46,
          "midi": 62,
          "name": "D4",
          "ticks": 79296,
          "time": 165.2,
          "velocity": 0.7244094488188977
        },
        {
          "duration": 0.09583333333333144,
          "durationTicks": 46,
          "midi": 65,
          "name": "F4",
          "ticks": 79392,
          "time": 165.4,
          "velocity": 0.7244094488188977
        },
        {
          "duration": 0.6999999999999886,
          "durationTicks": 336,
          "midi": 63,
          "name": "D#4",
          "ticks": 79488,
          "time": 165.60000000000002,
          "velocity": 0.7244094488188977
        }
      ],
      "endOfTrackTicks": 79824
    },
    {
      "channel": 5,
      "controlChanges": {
        "7": [
          {
            "number": 7,
            "ticks": 0,
            "time": 0,
            "value": 1
          }
        ],
        "10": [
          {
            "number": 10,
            "ticks": 0,
            "time": 0,
            "value": 0.5039370078740157
          }
        ]
      },
      "pitchBends": [],
      "instrument": {
        "family": "pipe",
        "number": 72,
        "name": "piccolo"
      },
      "name": "Staff-13",
      "notes": [
        {
          "duration": 0.09583333333333144,
          "durationTicks": 46,
          "midi": 77,
          "name": "F5",
          "ticks": 21600,
          "time": 45,
          "velocity": 0.7244094488188977
        },
        {
          "duration": 0.09583333333333144,
          "durationTicks": 46,
          "midi": 80,
          "name": "G#5",
          "ticks": 21696,
          "time": 45.2,
          "velocity": 0.7244094488188977
        },
        {
          "duration": 0.09583333333333144,
          "durationTicks": 46,
          "midi": 84,
          "name": "C6",
          "ticks": 21792,
          "time": 45.400000000000006,
          "velocity": 0.7244094488188977
        },
        {
          "duration": 0.04583333333333428,
          "durationTicks": 22,
          "midi": 88,
          "name": "E6",
          "ticks": 21888,
          "time": 45.6,
          "velocity": 0.7244094488188977
        },
        {
          "duration": 0.3499999999999943,
          "durationTicks": 168,
          "midi": 89,
          "name": "F6",
          "ticks": 21912,
          "time": 45.650000000000006,
          "velocity": 0.7244094488188977
        },
        {
          "duration": 0.4000000000000057,
          "durationTicks": 192,
          "midi": 84,
          "name": "C6",
          "ticks": 22080,
          "time": 46,
          "velocity": 0.7244094488188977
        },
        {
          "duration": 0.09583333333333144,
          "durationTicks": 46,
          "midi": 83,
          "name": "B5",
          "ticks": 22272,
          "time": 46.400000000000006,
          "velocity": 0.7244094488188977
        },
        {
          "duration": 0.09583333333333144,
          "durationTicks": 46,
          "midi": 84,
          "name": "C6",
          "ticks": 22368,
          "time": 46.6,
          "velocity": 0.7244094488188977
        },
        {
          "duration": 0.04999999999999716,
          "durationTicks": 24,
          "midi": 86,
          "name": "D6",
          "ticks": 22464,
          "time": 46.800000000000004,
          "velocity": 0.7244094488188977
        },
        {
          "duration": 0.05000000000000426,
          "durationTicks": 24,
          "midi": 87,
          "name": "D#6",
          "ticks": 22488,
          "time": 46.85,
          "velocity": 0.7244094488188977
        },
        {
          "duration": 0.29999999999999716,
          "durationTicks": 144,
          "midi": 86,
          "name": "D6",
          "ticks": 22512,
          "time": 46.900000000000006,
          "velocity": 0.7244094488188977
        },
        {
          "duration": 0.09583333333333144,
          "durationTicks": 46,
          "midi": 83,
          "name": "B5",
          "ticks": 22656,
          "time": 47.2,
          "velocity": 0.7244094488188977
        },
        {
          "duration": 0.09583333333333144,
          "durationTicks": 46,
          "midi": 79,
          "name": "G5",
          "ticks": 22752,
          "time": 47.400000000000006,
          "velocity": 0.7244094488188977
        },
        {
          "duration": 0.09583333333333144,
          "durationTicks": 46,
          "midi": 83,
          "name": "B5",
          "ticks": 22848,
          "time": 47.6,
          "velocity": 0.7244094488188977
        },
        {
          "duration": 0.09583333333333144,
          "durationTicks": 46,
          "midi": 86,
          "name": "D6",
          "ticks": 22944,
          "time": 47.800000000000004,
          "velocity": 0.7244094488188977
        },
        {
          "duration": 0.2958333333333343,
          "durationTicks": 142,
          "midi": 87,
          "name": "D#6",
          "ticks": 23040,
          "time": 48,
          "velocity": 0.7244094488188977
        },
        {
          "duration": 0.04999999999999716,
          "durationTicks": 24,
          "midi": 89,
          "name": "F6",
          "ticks": 23184,
          "time": 48.300000000000004,
          "velocity": 0.7244094488188977
        },
        {
          "duration": 0.05000000000000426,
          "durationTicks": 24,
          "midi": 87,
          "name": "D#6",
          "ticks": 23208,
          "time": 48.35,
          "velocity": 0.7244094488188977
        },
        {
          "duration": 0.09583333333333144,
          "durationTicks": 46,
          "midi": 86,
          "name": "D6",
          "ticks": 23232,
          "time": 48.400000000000006,
          "velocity": 0.7244094488188977
        },
        {
          "duration": 0.09583333333333144,
          "durationTicks": 46,
          "midi": 84,
          "name": "C6",
          "ticks": 23328,
          "time": 48.6,
          "velocity": 0.7244094488188977
        },
        {
          "duration": 0.3999999999999986,
          "durationTicks": 192,
          "midi": 96,
          "name": "C7",
          "ticks": 23424,
          "time": 48.800000000000004,
          "velocity": 0.7244094488188977
        },
        {
          "duration": 0.09583333333333144,
          "durationTicks": 46,
          "midi": 94,
          "name": "A#6",
          "ticks": 23616,
          "time": 49.2,
          "velocity": 0.7244094488188977
        },
        {
          "duration": 0.09583333333333144,
          "durationTicks": 46,
          "midi": 92,
          "name": "G#6",
          "ticks": 23712,
          "time": 49.400000000000006,
          "velocity": 0.7244094488188977
        },
        {
          "duration": 0.2958333333333343,
          "durationTicks": 142,
          "midi": 91,
          "name": "G6",
          "ticks": 23808,
          "time": 49.6,
          "velocity": 0.7244094488188977
        },
        {
          "duration": 0.04999999999999716,
          "durationTicks": 24,
          "midi": 92,
          "name": "G#6",
          "ticks": 23952,
          "time": 49.900000000000006,
          "velocity": 0.7244094488188977
        },
        {
          "duration": 0.04999999999999716,
          "durationTicks": 24,
          "midi": 91,
          "name": "G6",
          "ticks": 23976,
          "time": 49.95,
          "velocity": 0.7244094488188977
        },
        {
          "duration": 0.09583333333333144,
          "durationTicks": 46,
          "midi": 89,
          "name": "F6",
          "ticks": 24000,
          "time": 50,
          "velocity": 0.7244094488188977
        },
        {
          "duration": 0.09583333333333144,
          "durationTicks": 46,
          "midi": 92,
          "name": "G#6",
          "ticks": 24096,
          "time": 50.2,
          "velocity": 0.7244094488188977
        },
        {
          "duration": 0.6999999999999957,
          "durationTicks": 336,
          "midi": 91,
          "name": "G6",
          "ticks": 24192,
          "time": 50.400000000000006,
          "velocity": 0.7244094488188977
        },
        {
          "duration": 0.09583333333333144,
          "durationTicks": 46,
          "midi": 77,
          "name": "F5",
          "ticks": 49248,
          "time": 102.6,
          "velocity": 0.7244094488188977
        },
        {
          "duration": 0.09583333333333144,
          "durationTicks": 46,
          "midi": 80,
          "name": "G#5",
          "ticks": 49344,
          "time": 102.80000000000001,
          "velocity": 0.7244094488188977
        },
        {
          "duration": 0.09583333333333144,
          "durationTicks": 46,
          "midi": 84,
          "name": "C6",
          "ticks": 49440,
          "time": 103,
          "velocity": 0.7244094488188977
        },
        {
          "duration": 0.04583333333333428,
          "durationTicks": 22,
          "midi": 88,
          "name": "E6",
          "ticks": 49536,
          "time": 103.2,
          "velocity": 0.7244094488188977
        },
        {
          "duration": 0.3499999999999943,
          "durationTicks": 168,
          "midi": 89,
          "name": "F6",
          "ticks": 49560,
          "time": 103.25,
          "velocity": 0.7244094488188977
        },
        {
          "duration": 0.4000000000000057,
          "durationTicks": 192,
          "midi": 84,
          "name": "C6",
          "ticks": 49728,
          "time": 103.6,
          "velocity": 0.7244094488188977
        },
        {
          "duration": 0.09583333333333144,
          "durationTicks": 46,
          "midi": 83,
          "name": "B5",
          "ticks": 49920,
          "time": 104,
          "velocity": 0.7244094488188977
        },
        {
          "duration": 0.09583333333333144,
          "durationTicks": 46,
          "midi": 84,
          "name": "C6",
          "ticks": 50016,
          "time": 104.2,
          "velocity": 0.7244094488188977
        },
        {
          "duration": 0.04999999999999716,
          "durationTicks": 24,
          "midi": 86,
          "name": "D6",
          "ticks": 50112,
          "time": 104.4,
          "velocity": 0.7244094488188977
        },
        {
          "duration": 0.04999999999999716,
          "durationTicks": 24,
          "midi": 87,
          "name": "D#6",
          "ticks": 50136,
          "time": 104.45,
          "velocity": 0.7244094488188977
        },
        {
          "duration": 0.30000000000001137,
          "durationTicks": 144,
          "midi": 86,
          "name": "D6",
          "ticks": 50160,
          "time": 104.5,
          "velocity": 0.7244094488188977
        },
        {
          "duration": 0.09583333333333144,
          "durationTicks": 46,
          "midi": 83,
          "name": "B5",
          "ticks": 50304,
          "time": 104.80000000000001,
          "velocity": 0.7244094488188977
        },
        {
          "duration": 0.09583333333333144,
          "durationTicks": 46,
          "midi": 79,
          "name": "G5",
          "ticks": 50400,
          "time": 105,
          "velocity": 0.7244094488188977
        },
        {
          "duration": 0.09583333333333144,
          "durationTicks": 46,
          "midi": 83,
          "name": "B5",
          "ticks": 50496,
          "time": 105.2,
          "velocity": 0.7244094488188977
        },
        {
          "duration": 0.09583333333333144,
          "durationTicks": 46,
          "midi": 86,
          "name": "D6",
          "ticks": 50592,
          "time": 105.4,
          "velocity": 0.7244094488188977
        },
        {
          "duration": 0.2958333333333485,
          "durationTicks": 142,
          "midi": 87,
          "name": "D#6",
          "ticks": 50688,
          "time": 105.6,
          "velocity": 0.7244094488188977
        },
        {
          "duration": 0.04999999999999716,
          "durationTicks": 24,
          "midi": 89,
          "name": "F6",
          "ticks": 50832,
          "time": 105.9,
          "velocity": 0.7244094488188977
        },
        {
          "duration": 0.04999999999999716,
          "durationTicks": 24,
          "midi": 87,
          "name": "D#6",
          "ticks": 50856,
          "time": 105.95,
          "velocity": 0.7244094488188977
        },
        {
          "duration": 0.09583333333333144,
          "durationTicks": 46,
          "midi": 86,
          "name": "D6",
          "ticks": 50880,
          "time": 106,
          "velocity": 0.7244094488188977
        },
        {
          "duration": 0.09583333333333144,
          "durationTicks": 46,
          "midi": 84,
          "name": "C6",
          "ticks": 50976,
          "time": 106.2,
          "velocity": 0.7244094488188977
        },
        {
          "duration": 0.4000000000000057,
          "durationTicks": 192,
          "midi": 96,
          "name": "C7",
          "ticks": 51072,
          "time": 106.4,
          "velocity": 0.7244094488188977
        },
        {
          "duration": 0.09583333333333144,
          "durationTicks": 46,
          "midi": 94,
          "name": "A#6",
          "ticks": 51264,
          "time": 106.80000000000001,
          "velocity": 0.7244094488188977
        },
        {
          "duration": 0.09583333333333144,
          "durationTicks": 46,
          "midi": 92,
          "name": "G#6",
          "ticks": 51360,
          "time": 107,
          "velocity": 0.7244094488188977
        },
        {
          "duration": 0.2958333333333343,
          "durationTicks": 142,
          "midi": 91,
          "name": "G6",
          "ticks": 51456,
          "time": 107.2,
          "velocity": 0.7244094488188977
        },
        {
          "duration": 0.05000000000001137,
          "durationTicks": 24,
          "midi": 92,
          "name": "G#6",
          "ticks": 51600,
          "time": 107.5,
          "velocity": 0.7244094488188977
        },
        {
          "duration": 0.04999999999998295,
          "durationTicks": 24,
          "midi": 91,
          "name": "G6",
          "ticks": 51624,
          "time": 107.55000000000001,
          "velocity": 0.7244094488188977
        },
        {
          "duration": 0.09583333333333144,
          "durationTicks": 46,
          "midi": 89,
          "name": "F6",
          "ticks": 51648,
          "time": 107.6,
          "velocity": 0.7244094488188977
        },
        {
          "duration": 0.09583333333333144,
          "durationTicks": 46,
          "midi": 92,
          "name": "G#6",
          "ticks": 51744,
          "time": 107.80000000000001,
          "velocity": 0.7244094488188977
        },
        {
          "duration": 0.7000000000000028,
          "durationTicks": 336,
          "midi": 91,
          "name": "G6",
          "ticks": 51840,
          "time": 108,
          "velocity": 0.7244094488188977
        },
        {
          "duration": 0.09583333333335986,
          "durationTicks": 46,
          "midi": 77,
          "name": "F5",
          "ticks": 76896,
          "time": 160.2,
          "velocity": 0.7244094488188977
        },
        {
          "duration": 0.09583333333333144,
          "durationTicks": 46,
          "midi": 80,
          "name": "G#5",
          "ticks": 76992,
          "time": 160.4,
          "velocity": 0.7244094488188977
        },
        {
          "duration": 0.09583333333330302,
          "durationTicks": 46,
          "midi": 84,
          "name": "C6",
          "ticks": 77088,
          "time": 160.60000000000002,
          "velocity": 0.7244094488188977
        },
        {
          "duration": 0.04583333333332007,
          "durationTicks": 22,
          "midi": 88,
          "name": "E6",
          "ticks": 77184,
          "time": 160.8,
          "velocity": 0.7244094488188977
        },
        {
          "duration": 0.3499999999999659,
          "durationTicks": 168,
          "midi": 89,
          "name": "F6",
          "ticks": 77208,
          "time": 160.85000000000002,
          "velocity": 0.7244094488188977
        },
        {
          "duration": 0.4000000000000341,
          "durationTicks": 192,
          "midi": 84,
          "name": "C6",
          "ticks": 77376,
          "time": 161.2,
          "velocity": 0.7244094488188977
        },
        {
          "duration": 0.09583333333330302,
          "durationTicks": 46,
          "midi": 83,
          "name": "B5",
          "ticks": 77568,
          "time": 161.60000000000002,
          "velocity": 0.7244094488188977
        },
        {
          "duration": 0.09583333333333144,
          "durationTicks": 46,
          "midi": 84,
          "name": "C6",
          "ticks": 77664,
          "time": 161.8,
          "velocity": 0.7244094488188977
        },
        {
          "duration": 0.05000000000001137,
          "durationTicks": 24,
          "midi": 86,
          "name": "D6",
          "ticks": 77760,
          "time": 162,
          "velocity": 0.7244094488188977
        },
        {
          "duration": 0.05000000000001137,
          "durationTicks": 24,
          "midi": 87,
          "name": "D#6",
          "ticks": 77784,
          "time": 162.05,
          "velocity": 0.7244094488188977
        },
        {
          "duration": 0.29999999999998295,
          "durationTicks": 144,
          "midi": 86,
          "name": "D6",
          "ticks": 77808,
          "time": 162.10000000000002,
          "velocity": 0.7244094488188977
        },
        {
          "duration": 0.09583333333333144,
          "durationTicks": 46,
          "midi": 83,
          "name": "B5",
          "ticks": 77952,
          "time": 162.4,
          "velocity": 0.7244094488188977
        },
        {
          "duration": 0.09583333333330302,
          "durationTicks": 46,
          "midi": 79,
          "name": "G5",
          "ticks": 78048,
          "time": 162.60000000000002,
          "velocity": 0.7244094488188977
        },
        {
          "duration": 0.09583333333333144,
          "durationTicks": 46,
          "midi": 83,
          "name": "B5",
          "ticks": 78144,
          "time": 162.8,
          "velocity": 0.7244094488188977
        },
        {
          "duration": 0.09583333333333144,
          "durationTicks": 46,
          "midi": 86,
          "name": "D6",
          "ticks": 78240,
          "time": 163,
          "velocity": 0.7244094488188977
        },
        {
          "duration": 0.2958333333333485,
          "durationTicks": 142,
          "midi": 87,
          "name": "D#6",
          "ticks": 78336,
          "time": 163.2,
          "velocity": 0.7244094488188977
        },
        {
          "duration": 0.05000000000001137,
          "durationTicks": 24,
          "midi": 89,
          "name": "F6",
          "ticks": 78480,
          "time": 163.5,
          "velocity": 0.7244094488188977
        },
        {
          "duration": 0.05000000000001137,
          "durationTicks": 24,
          "midi": 87,
          "name": "D#6",
          "ticks": 78504,
          "time": 163.55,
          "velocity": 0.7244094488188977
        },
        {
          "duration": 0.09583333333330302,
          "durationTicks": 46,
          "midi": 86,
          "name": "D6",
          "ticks": 78528,
          "time": 163.60000000000002,
          "velocity": 0.7244094488188977
        },
        {
          "duration": 0.09583333333333144,
          "durationTicks": 46,
          "midi": 84,
          "name": "C6",
          "ticks": 78624,
          "time": 163.8,
          "velocity": 0.7244094488188977
        },
        {
          "duration": 0.4000000000000057,
          "durationTicks": 192,
          "midi": 96,
          "name": "C7",
          "ticks": 78720,
          "time": 164,
          "velocity": 0.7244094488188977
        },
        {
          "duration": 0.09583333333333144,
          "durationTicks": 46,
          "midi": 94,
          "name": "A#6",
          "ticks": 78912,
          "time": 164.4,
          "velocity": 0.7244094488188977
        },
        {
          "duration": 0.09583333333330302,
          "durationTicks": 46,
          "midi": 92,
          "name": "G#6",
          "ticks": 79008,
          "time": 164.60000000000002,
          "velocity": 0.7244094488188977
        },
        {
          "duration": 0.29583333333332007,
          "durationTicks": 142,
          "midi": 91,
          "name": "G6",
          "ticks": 79104,
          "time": 164.8,
          "velocity": 0.7244094488188977
        },
        {
          "duration": 0.04999999999998295,
          "durationTicks": 24,
          "midi": 92,
          "name": "G#6",
          "ticks": 79248,
          "time": 165.10000000000002,
          "velocity": 0.7244094488188977
        },
        {
          "duration": 0.04999999999998295,
          "durationTicks": 24,
          "midi": 91,
          "name": "G6",
          "ticks": 79272,
          "time": 165.15,
          "velocity": 0.7244094488188977
        },
        {
          "duration": 0.09583333333335986,
          "durationTicks": 46,
          "midi": 89,
          "name": "F6",
          "ticks": 79296,
          "time": 165.2,
          "velocity": 0.7244094488188977
        },
        {
          "duration": 0.09583333333333144,
          "durationTicks": 46,
          "midi": 92,
          "name": "G#6",
          "ticks": 79392,
          "time": 165.4,
          "velocity": 0.7244094488188977
        },
        {
          "duration": 0.6999999999999886,
          "durationTicks": 336,
          "midi": 91,
          "name": "G6",
          "ticks": 79488,
          "time": 165.60000000000002,
          "velocity": 0.7244094488188977
        }
      ],
      "endOfTrackTicks": 79824
    },
    {
      "channel": 15,
      "controlChanges": {
        "7": [
          {
            "number": 7,
            "ticks": 0,
            "time": 0,
            "value": 1
          }
        ],
        "10": [
          {
            "number": 10,
            "ticks": 0,
            "time": 0,
            "value": 0.5039370078740157
          }
        ]
      },
      "pitchBends": [],
      "instrument": {
        "family": "strings",
        "number": 40,
        "name": "violin"
      },
      "name": "Staff-8",
      "notes": [
        {
          "duration": 0.09583333333333144,
          "durationTicks": 46,
          "midi": 65,
          "name": "F4",
          "ticks": 15456,
          "time": 32.2,
          "velocity": 1
        },
        {
          "duration": 0.09583333333333144,
          "durationTicks": 46,
          "midi": 68,
          "name": "G#4",
          "ticks": 15552,
          "time": 32.4,
          "velocity": 1
        },
        {
          "duration": 0.09583333333333144,
          "durationTicks": 46,
          "midi": 72,
          "name": "C5",
          "ticks": 15648,
          "time": 32.6,
          "velocity": 1
        },
        {
          "duration": 0.045833333333327175,
          "durationTicks": 22,
          "midi": 76,
          "name": "E5",
          "ticks": 15744,
          "time": 32.800000000000004,
          "velocity": 1
        },
        {
          "duration": 0.3500000000000014,
          "durationTicks": 168,
          "midi": 77,
          "name": "F5",
          "ticks": 15768,
          "time": 32.85,
          "velocity": 1
        },
        {
          "duration": 0.3999999999999986,
          "durationTicks": 192,
          "midi": 72,
          "name": "C5",
          "ticks": 15936,
          "time": 33.2,
          "velocity": 1
        },
        {
          "duration": 0.09583333333333144,
          "durationTicks": 46,
          "midi": 71,
          "name": "B4",
          "ticks": 16128,
          "time": 33.6,
          "velocity": 1
        },
        {
          "duration": 0.09583333333333144,
          "durationTicks": 46,
          "midi": 72,
          "name": "C5",
          "ticks": 16224,
          "time": 33.800000000000004,
          "velocity": 1
        },
        {
          "duration": 0.05000000000000426,
          "durationTicks": 24,
          "midi": 74,
          "name": "D5",
          "ticks": 16320,
          "time": 34,
          "velocity": 1
        },
        {
          "duration": 0.04999999999999716,
          "durationTicks": 24,
          "midi": 75,
          "name": "D#5",
          "ticks": 16344,
          "time": 34.050000000000004,
          "velocity": 1
        },
        {
          "duration": 0.29999999999999716,
          "durationTicks": 144,
          "midi": 74,
          "name": "D5",
          "ticks": 16368,
          "time": 34.1,
          "velocity": 1
        },
        {
          "duration": 0.09583333333333144,
          "durationTicks": 46,
          "midi": 71,
          "name": "B4",
          "ticks": 16512,
          "time": 34.4,
          "velocity": 1
        },
        {
          "duration": 0.09583333333333144,
          "durationTicks": 46,
          "midi": 67,
          "name": "G4",
          "ticks": 16608,
          "time": 34.6,
          "velocity": 1
        },
        {
          "duration": 0.09583333333333144,
          "durationTicks": 46,
          "midi": 71,
          "name": "B4",
          "ticks": 16704,
          "time": 34.800000000000004,
          "velocity": 1
        },
        {
          "duration": 0.09583333333333144,
          "durationTicks": 46,
          "midi": 74,
          "name": "D5",
          "ticks": 16800,
          "time": 35,
          "velocity": 1
        },
        {
          "duration": 0.2958333333333272,
          "durationTicks": 142,
          "midi": 75,
          "name": "D#5",
          "ticks": 16896,
          "time": 35.2,
          "velocity": 1
        },
        {
          "duration": 0.05000000000000426,
          "durationTicks": 24,
          "midi": 77,
          "name": "F5",
          "ticks": 17040,
          "time": 35.5,
          "velocity": 1
        },
        {
          "duration": 0.04999999999999716,
          "durationTicks": 24,
          "midi": 75,
          "name": "D#5",
          "ticks": 17064,
          "time": 35.550000000000004,
          "velocity": 1
        },
        {
          "duration": 0.09583333333333144,
          "durationTicks": 46,
          "midi": 74,
          "name": "D5",
          "ticks": 17088,
          "time": 35.6,
          "velocity": 1
        },
        {
          "duration": 0.09583333333333144,
          "durationTicks": 46,
          "midi": 72,
          "name": "C5",
          "ticks": 17184,
          "time": 35.800000000000004,
          "velocity": 1
        },
        {
          "duration": 0.3999999999999986,
          "durationTicks": 192,
          "midi": 84,
          "name": "C6",
          "ticks": 17280,
          "time": 36,
          "velocity": 1
        },
        {
          "duration": 0.09583333333333144,
          "durationTicks": 46,
          "midi": 82,
          "name": "A#5",
          "ticks": 17472,
          "time": 36.4,
          "velocity": 1
        },
        {
          "duration": 0.09583333333333144,
          "durationTicks": 46,
          "midi": 80,
          "name": "G#5",
          "ticks": 17568,
          "time": 36.6,
          "velocity": 1
        },
        {
          "duration": 0.2958333333333272,
          "durationTicks": 142,
          "midi": 79,
          "name": "G5",
          "ticks": 17664,
          "time": 36.800000000000004,
          "velocity": 1
        },
        {
          "duration": 0.04999999999999716,
          "durationTicks": 24,
          "midi": 80,
          "name": "G#5",
          "ticks": 17808,
          "time": 37.1,
          "velocity": 1
        },
        {
          "duration": 0.05000000000000426,
          "durationTicks": 24,
          "midi": 79,
          "name": "G5",
          "ticks": 17832,
          "time": 37.15,
          "velocity": 1
        },
        {
          "duration": 0.09583333333333144,
          "durationTicks": 46,
          "midi": 77,
          "name": "F5",
          "ticks": 17856,
          "time": 37.2,
          "velocity": 1
        },
        {
          "duration": 0.09583333333333144,
          "durationTicks": 46,
          "midi": 80,
          "name": "G#5",
          "ticks": 17952,
          "time": 37.4,
          "velocity": 1
        },
        {
          "duration": 0.8000000000000043,
          "durationTicks": 384,
          "midi": 79,
          "name": "G5",
          "ticks": 18048,
          "time": 37.6,
          "velocity": 1
        },
        {
          "duration": 0.09583333333333144,
          "durationTicks": 46,
          "midi": 65,
          "name": "F4",
          "ticks": 18528,
          "time": 38.6,
          "velocity": 1
        },
        {
          "duration": 0.09583333333333144,
          "durationTicks": 46,
          "midi": 68,
          "name": "G#4",
          "ticks": 18624,
          "time": 38.800000000000004,
          "velocity": 1
        },
        {
          "duration": 0.09583333333333144,
          "durationTicks": 46,
          "midi": 72,
          "name": "C5",
          "ticks": 18720,
          "time": 39,
          "velocity": 1
        },
        {
          "duration": 0.04583333333333428,
          "durationTicks": 22,
          "midi": 76,
          "name": "E5",
          "ticks": 18816,
          "time": 39.2,
          "velocity": 1
        },
        {
          "duration": 0.3500000000000014,
          "durationTicks": 168,
          "midi": 77,
          "name": "F5",
          "ticks": 18840,
          "time": 39.25,
          "velocity": 1
        },
        {
          "duration": 0.3999999999999986,
          "durationTicks": 192,
          "midi": 72,
          "name": "C5",
          "ticks": 19008,
          "time": 39.6,
          "velocity": 1
        },
        {
          "duration": 0.09583333333333144,
          "durationTicks": 46,
          "midi": 71,
          "name": "B4",
          "ticks": 19200,
          "time": 40,
          "velocity": 1
        },
        {
          "duration": 0.09583333333333144,
          "durationTicks": 46,
          "midi": 72,
          "name": "C5",
          "ticks": 19296,
          "time": 40.2,
          "velocity": 1
        },
        {
          "duration": 0.04999999999999716,
          "durationTicks": 24,
          "midi": 74,
          "name": "D5",
          "ticks": 19392,
          "time": 40.400000000000006,
          "velocity": 1
        },
        {
          "duration": 0.04999999999999716,
          "durationTicks": 24,
          "midi": 75,
          "name": "D#5",
          "ticks": 19416,
          "time": 40.45,
          "velocity": 1
        },
        {
          "duration": 0.30000000000000426,
          "durationTicks": 144,
          "midi": 74,
          "name": "D5",
          "ticks": 19440,
          "time": 40.5,
          "velocity": 1
        },
        {
          "duration": 0.09583333333333144,
          "durationTicks": 46,
          "midi": 71,
          "name": "B4",
          "ticks": 19584,
          "time": 40.800000000000004,
          "velocity": 1
        },
        {
          "duration": 0.09583333333333144,
          "durationTicks": 46,
          "midi": 67,
          "name": "G4",
          "ticks": 19680,
          "time": 41,
          "velocity": 1
        },
        {
          "duration": 0.09583333333333144,
          "durationTicks": 46,
          "midi": 71,
          "name": "B4",
          "ticks": 19776,
          "time": 41.2,
          "velocity": 1
        },
        {
          "duration": 0.09583333333333144,
          "durationTicks": 46,
          "midi": 74,
          "name": "D5",
          "ticks": 19872,
          "time": 41.400000000000006,
          "velocity": 1
        },
        {
          "duration": 0.2958333333333343,
          "durationTicks": 142,
          "midi": 75,
          "name": "D#5",
          "ticks": 19968,
          "time": 41.6,
          "velocity": 1
        },
        {
          "duration": 0.04999999999999716,
          "durationTicks": 24,
          "midi": 77,
          "name": "F5",
          "ticks": 20112,
          "time": 41.900000000000006,
          "velocity": 1
        },
        {
          "duration": 0.04999999999999716,
          "durationTicks": 24,
          "midi": 75,
          "name": "D#5",
          "ticks": 20136,
          "time": 41.95,
          "velocity": 1
        },
        {
          "duration": 0.09583333333333144,
          "durationTicks": 46,
          "midi": 74,
          "name": "D5",
          "ticks": 20160,
          "time": 42,
          "velocity": 1
        },
        {
          "duration": 0.09583333333333144,
          "durationTicks": 46,
          "midi": 72,
          "name": "C5",
          "ticks": 20256,
          "time": 42.2,
          "velocity": 1
        },
        {
          "duration": 0.3999999999999986,
          "durationTicks": 192,
          "midi": 84,
          "name": "C6",
          "ticks": 20352,
          "time": 42.400000000000006,
          "velocity": 1
        },
        {
          "duration": 0.09583333333333144,
          "durationTicks": 46,
          "midi": 86,
          "name": "D6",
          "ticks": 20544,
          "time": 42.800000000000004,
          "velocity": 1
        },
        {
          "duration": 0.09583333333333144,
          "durationTicks": 46,
          "midi": 87,
          "name": "D#6",
          "ticks": 20640,
          "time": 43,
          "velocity": 1
        },
        {
          "duration": 0.09583333333333144,
          "durationTicks": 46,
          "midi": 86,
          "name": "D6",
          "ticks": 20736,
          "time": 43.2,
          "velocity": 1
        },
        {
          "duration": 0.09583333333333144,
          "durationTicks": 46,
          "midi": 84,
          "name": "C6",
          "ticks": 20832,
          "time": 43.400000000000006,
          "velocity": 1
        },
        {
          "duration": 0.09583333333333144,
          "durationTicks": 46,
          "midi": 83,
          "name": "B5",
          "ticks": 20928,
          "time": 43.6,
          "velocity": 1
        },
        {
          "duration": 0.09583333333333144,
          "durationTicks": 46,
          "midi": 80,
          "name": "G#5",
          "ticks": 21024,
          "time": 43.800000000000004,
          "velocity": 1
        },
        {
          "duration": 0.04583333333333428,
          "durationTicks": 22,
          "midi": 79,
          "name": "G5",
          "ticks": 21120,
          "time": 44,
          "velocity": 1
        },
        {
          "duration": 0.045833333333327175,
          "durationTicks": 22,
          "midi": 80,
          "name": "G#5",
          "ticks": 21144,
          "time": 44.050000000000004,
          "velocity": 1
        },
        {
          "duration": 0.6333333333333329,
          "durationTicks": 304,
          "midi": 79,
          "name": "G5",
          "ticks": 21168,
          "time": 44.1,
          "velocity": 1
        },
        {
          "duration": 0.09583333333333144,
          "durationTicks": 46,
          "midi": 65,
          "name": "F4",
          "ticks": 21600,
          "time": 45,
          "velocity": 1
        },
        {
          "duration": 0.09583333333333144,
          "durationTicks": 46,
          "midi": 68,
          "name": "G#4",
          "ticks": 21696,
          "time": 45.2,
          "velocity": 1
        },
        {
          "duration": 0.09583333333333144,
          "durationTicks": 46,
          "midi": 72,
          "name": "C5",
          "ticks": 21792,
          "time": 45.400000000000006,
          "velocity": 1
        },
        {
          "duration": 0.04583333333333428,
          "durationTicks": 22,
          "midi": 76,
          "name": "E5",
          "ticks": 21888,
          "time": 45.6,
          "velocity": 1
        },
        {
          "duration": 0.3499999999999943,
          "durationTicks": 168,
          "midi": 77,
          "name": "F5",
          "ticks": 21912,
          "time": 45.650000000000006,
          "velocity": 1
        },
        {
          "duration": 0.4000000000000057,
          "durationTicks": 192,
          "midi": 72,
          "name": "C5",
          "ticks": 22080,
          "time": 46,
          "velocity": 1
        },
        {
          "duration": 0.09583333333333144,
          "durationTicks": 46,
          "midi": 71,
          "name": "B4",
          "ticks": 22272,
          "time": 46.400000000000006,
          "velocity": 1
        },
        {
          "duration": 0.09583333333333144,
          "durationTicks": 46,
          "midi": 72,
          "name": "C5",
          "ticks": 22368,
          "time": 46.6,
          "velocity": 1
        },
        {
          "duration": 0.04999999999999716,
          "durationTicks": 24,
          "midi": 74,
          "name": "D5",
          "ticks": 22464,
          "time": 46.800000000000004,
          "velocity": 1
        },
        {
          "duration": 0.05000000000000426,
          "durationTicks": 24,
          "midi": 75,
          "name": "D#5",
          "ticks": 22488,
          "time": 46.85,
          "velocity": 1
        },
        {
          "duration": 0.29999999999999716,
          "durationTicks": 144,
          "midi": 74,
          "name": "D5",
          "ticks": 22512,
          "time": 46.900000000000006,
          "velocity": 1
        },
        {
          "duration": 0.09583333333333144,
          "durationTicks": 46,
          "midi": 71,
          "name": "B4",
          "ticks": 22656,
          "time": 47.2,
          "velocity": 1
        },
        {
          "duration": 0.09583333333333144,
          "durationTicks": 46,
          "midi": 67,
          "name": "G4",
          "ticks": 22752,
          "time": 47.400000000000006,
          "velocity": 1
        },
        {
          "duration": 0.09583333333333144,
          "durationTicks": 46,
          "midi": 71,
          "name": "B4",
          "ticks": 22848,
          "time": 47.6,
          "velocity": 1
        },
        {
          "duration": 0.09583333333333144,
          "durationTicks": 46,
          "midi": 74,
          "name": "D5",
          "ticks": 22944,
          "time": 47.800000000000004,
          "velocity": 1
        },
        {
          "duration": 0.2958333333333343,
          "durationTicks": 142,
          "midi": 75,
          "name": "D#5",
          "ticks": 23040,
          "time": 48,
          "velocity": 1
        },
        {
          "duration": 0.04999999999999716,
          "durationTicks": 24,
          "midi": 77,
          "name": "F5",
          "ticks": 23184,
          "time": 48.300000000000004,
          "velocity": 1
        },
        {
          "duration": 0.05000000000000426,
          "durationTicks": 24,
          "midi": 75,
          "name": "D#5",
          "ticks": 23208,
          "time": 48.35,
          "velocity": 1
        },
        {
          "duration": 0.09583333333333144,
          "durationTicks": 46,
          "midi": 74,
          "name": "D5",
          "ticks": 23232,
          "time": 48.400000000000006,
          "velocity": 1
        },
        {
          "duration": 0.09583333333333144,
          "durationTicks": 46,
          "midi": 72,
          "name": "C5",
          "ticks": 23328,
          "time": 48.6,
          "velocity": 1
        },
        {
          "duration": 0.3999999999999986,
          "durationTicks": 192,
          "midi": 84,
          "name": "C6",
          "ticks": 23424,
          "time": 48.800000000000004,
          "velocity": 1
        },
        {
          "duration": 0.09583333333333144,
          "durationTicks": 46,
          "midi": 82,
          "name": "A#5",
          "ticks": 23616,
          "time": 49.2,
          "velocity": 1
        },
        {
          "duration": 0.09583333333333144,
          "durationTicks": 46,
          "midi": 80,
          "name": "G#5",
          "ticks": 23712,
          "time": 49.400000000000006,
          "velocity": 1
        },
        {
          "duration": 0.2958333333333343,
          "durationTicks": 142,
          "midi": 79,
          "name": "G5",
          "ticks": 23808,
          "time": 49.6,
          "velocity": 1
        },
        {
          "duration": 0.04999999999999716,
          "durationTicks": 24,
          "midi": 80,
          "name": "G#5",
          "ticks": 23952,
          "time": 49.900000000000006,
          "velocity": 1
        },
        {
          "duration": 0.04999999999999716,
          "durationTicks": 24,
          "midi": 79,
          "name": "G5",
          "ticks": 23976,
          "time": 49.95,
          "velocity": 1
        },
        {
          "duration": 0.09583333333333144,
          "durationTicks": 46,
          "midi": 77,
          "name": "F5",
          "ticks": 24000,
          "time": 50,
          "velocity": 1
        },
        {
          "duration": 0.09583333333333144,
          "durationTicks": 46,
          "midi": 80,
          "name": "G#5",
          "ticks": 24096,
          "time": 50.2,
          "velocity": 1
        },
        {
          "duration": 0.7999999999999972,
          "durationTicks": 384,
          "midi": 79,
          "name": "G5",
          "ticks": 24192,
          "time": 50.400000000000006,
          "velocity": 1
        },
        {
          "duration": 0.09583333333333144,
          "durationTicks": 46,
          "midi": 65,
          "name": "F4",
          "ticks": 43104,
          "time": 89.80000000000001,
          "velocity": 1
        },
        {
          "duration": 0.09583333333333144,
          "durationTicks": 46,
          "midi": 68,
          "name": "G#4",
          "ticks": 43200,
          "time": 90,
          "velocity": 1
        },
        {
          "duration": 0.09583333333333144,
          "durationTicks": 46,
          "midi": 72,
          "name": "C5",
          "ticks": 43296,
          "time": 90.2,
          "velocity": 1
        },
        {
          "duration": 0.04583333333332007,
          "durationTicks": 22,
          "midi": 76,
          "name": "E5",
          "ticks": 43392,
          "time": 90.4,
          "velocity": 1
        },
        {
          "duration": 0.3500000000000085,
          "durationTicks": 168,
          "midi": 77,
          "name": "F5",
          "ticks": 43416,
          "time": 90.45,
          "velocity": 1
        },
        {
          "duration": 0.3999999999999915,
          "durationTicks": 192,
          "midi": 72,
          "name": "C5",
          "ticks": 43584,
          "time": 90.80000000000001,
          "velocity": 1
        },
        {
          "duration": 0.09583333333333144,
          "durationTicks": 46,
          "midi": 71,
          "name": "B4",
          "ticks": 43776,
          "time": 91.2,
          "velocity": 1
        },
        {
          "duration": 0.09583333333333144,
          "durationTicks": 46,
          "midi": 72,
          "name": "C5",
          "ticks": 43872,
          "time": 91.4,
          "velocity": 1
        },
        {
          "duration": 0.05000000000001137,
          "durationTicks": 24,
          "midi": 74,
          "name": "D5",
          "ticks": 43968,
          "time": 91.6,
          "velocity": 1
        },
        {
          "duration": 0.04999999999999716,
          "durationTicks": 24,
          "midi": 75,
          "name": "D#5",
          "ticks": 43992,
          "time": 91.65,
          "velocity": 1
        },
        {
          "duration": 0.29999999999999716,
          "durationTicks": 144,
          "midi": 74,
          "name": "D5",
          "ticks": 44016,
          "time": 91.7,
          "velocity": 1
        },
        {
          "duration": 0.09583333333333144,
          "durationTicks": 46,
          "midi": 71,
          "name": "B4",
          "ticks": 44160,
          "time": 92,
          "velocity": 1
        },
        {
          "duration": 0.09583333333333144,
          "durationTicks": 46,
          "midi": 67,
          "name": "G4",
          "ticks": 44256,
          "time": 92.2,
          "velocity": 1
        },
        {
          "duration": 0.09583333333333144,
          "durationTicks": 46,
          "midi": 71,
          "name": "B4",
          "ticks": 44352,
          "time": 92.4,
          "velocity": 1
        },
        {
          "duration": 0.09583333333333144,
          "durationTicks": 46,
          "midi": 74,
          "name": "D5",
          "ticks": 44448,
          "time": 92.6,
          "velocity": 1
        },
        {
          "duration": 0.29583333333332007,
          "durationTicks": 142,
          "midi": 75,
          "name": "D#5",
          "ticks": 44544,
          "time": 92.80000000000001,
          "velocity": 1
        },
        {
          "duration": 0.05000000000001137,
          "durationTicks": 24,
          "midi": 77,
          "name": "F5",
          "ticks": 44688,
          "time": 93.1,
          "velocity": 1
        },
        {
          "duration": 0.04999999999999716,
          "durationTicks": 24,
          "midi": 75,
          "name": "D#5",
          "ticks": 44712,
          "time": 93.15,
          "velocity": 1
        },
        {
          "duration": 0.09583333333333144,
          "durationTicks": 46,
          "midi": 74,
          "name": "D5",
          "ticks": 44736,
          "time": 93.2,
          "velocity": 1
        },
        {
          "duration": 0.09583333333333144,
          "durationTicks": 46,
          "midi": 72,
          "name": "C5",
          "ticks": 44832,
          "time": 93.4,
          "velocity": 1
        },
        {
          "duration": 0.4000000000000057,
          "durationTicks": 192,
          "midi": 84,
          "name": "C6",
          "ticks": 44928,
          "time": 93.6,
          "velocity": 1
        },
        {
          "duration": 0.09583333333333144,
          "durationTicks": 46,
          "midi": 82,
          "name": "A#5",
          "ticks": 45120,
          "time": 94,
          "velocity": 1
        },
        {
          "duration": 0.09583333333333144,
          "durationTicks": 46,
          "midi": 80,
          "name": "G#5",
          "ticks": 45216,
          "time": 94.2,
          "velocity": 1
        },
        {
          "duration": 0.29583333333332007,
          "durationTicks": 142,
          "midi": 79,
          "name": "G5",
          "ticks": 45312,
          "time": 94.4,
          "velocity": 1
        },
        {
          "duration": 0.04999999999999716,
          "durationTicks": 24,
          "midi": 80,
          "name": "G#5",
          "ticks": 45456,
          "time": 94.7,
          "velocity": 1
        },
        {
          "duration": 0.05000000000001137,
          "durationTicks": 24,
          "midi": 79,
          "name": "G5",
          "ticks": 45480,
          "time": 94.75,
          "velocity": 1
        },
        {
          "duration": 0.09583333333333144,
          "durationTicks": 46,
          "midi": 77,
          "name": "F5",
          "ticks": 45504,
          "time": 94.80000000000001,
          "velocity": 1
        },
        {
          "duration": 0.09583333333333144,
          "durationTicks": 46,
          "midi": 80,
          "name": "G#5",
          "ticks": 45600,
          "time": 95,
          "velocity": 1
        },
        {
          "duration": 0.7999999999999972,
          "durationTicks": 384,
          "midi": 79,
          "name": "G5",
          "ticks": 45696,
          "time": 95.2,
          "velocity": 1
        },
        {
          "duration": 0.09583333333333144,
          "durationTicks": 46,
          "midi": 65,
          "name": "F4",
          "ticks": 46176,
          "time": 96.2,
          "velocity": 1
        },
        {
          "duration": 0.09583333333333144,
          "durationTicks": 46,
          "midi": 68,
          "name": "G#4",
          "ticks": 46272,
          "time": 96.4,
          "velocity": 1
        },
        {
          "duration": 0.09583333333333144,
          "durationTicks": 46,
          "midi": 72,
          "name": "C5",
          "ticks": 46368,
          "time": 96.6,
          "velocity": 1
        },
        {
          "duration": 0.04583333333332007,
          "durationTicks": 22,
          "midi": 76,
          "name": "E5",
          "ticks": 46464,
          "time": 96.80000000000001,
          "velocity": 1
        },
        {
          "duration": 0.3500000000000085,
          "durationTicks": 168,
          "midi": 77,
          "name": "F5",
          "ticks": 46488,
          "time": 96.85,
          "velocity": 1
        },
        {
          "duration": 0.3999999999999915,
          "durationTicks": 192,
          "midi": 72,
          "name": "C5",
          "ticks": 46656,
          "time": 97.2,
          "velocity": 1
        },
        {
          "duration": 0.09583333333333144,
          "durationTicks": 46,
          "midi": 71,
          "name": "B4",
          "ticks": 46848,
          "time": 97.6,
          "velocity": 1
        },
        {
          "duration": 0.09583333333333144,
          "durationTicks": 46,
          "midi": 72,
          "name": "C5",
          "ticks": 46944,
          "time": 97.80000000000001,
          "velocity": 1
        },
        {
          "duration": 0.05000000000001137,
          "durationTicks": 24,
          "midi": 74,
          "name": "D5",
          "ticks": 47040,
          "time": 98,
          "velocity": 1
        },
        {
          "duration": 0.04999999999998295,
          "durationTicks": 24,
          "midi": 75,
          "name": "D#5",
          "ticks": 47064,
          "time": 98.05000000000001,
          "velocity": 1
        },
        {
          "duration": 0.30000000000001137,
          "durationTicks": 144,
          "midi": 74,
          "name": "D5",
          "ticks": 47088,
          "time": 98.1,
          "velocity": 1
        },
        {
          "duration": 0.09583333333333144,
          "durationTicks": 46,
          "midi": 71,
          "name": "B4",
          "ticks": 47232,
          "time": 98.4,
          "velocity": 1
        },
        {
          "duration": 0.09583333333333144,
          "durationTicks": 46,
          "midi": 67,
          "name": "G4",
          "ticks": 47328,
          "time": 98.6,
          "velocity": 1
        },
        {
          "duration": 0.09583333333333144,
          "durationTicks": 46,
          "midi": 71,
          "name": "B4",
          "ticks": 47424,
          "time": 98.80000000000001,
          "velocity": 1
        },
        {
          "duration": 0.09583333333333144,
          "durationTicks": 46,
          "midi": 74,
          "name": "D5",
          "ticks": 47520,
          "time": 99,
          "velocity": 1
        },
        {
          "duration": 0.2958333333333343,
          "durationTicks": 142,
          "midi": 75,
          "name": "D#5",
          "ticks": 47616,
          "time": 99.2,
          "velocity": 1
        },
        {
          "duration": 0.05000000000001137,
          "durationTicks": 24,
          "midi": 77,
          "name": "F5",
          "ticks": 47760,
          "time": 99.5,
          "velocity": 1
        },
        {
          "duration": 0.04999999999998295,
          "durationTicks": 24,
          "midi": 75,
          "name": "D#5",
          "ticks": 47784,
          "time": 99.55000000000001,
          "velocity": 1
        },
        {
          "duration": 0.09583333333333144,
          "durationTicks": 46,
          "midi": 74,
          "name": "D5",
          "ticks": 47808,
          "time": 99.6,
          "velocity": 1
        },
        {
          "duration": 0.09583333333333144,
          "durationTicks": 46,
          "midi": 72,
          "name": "C5",
          "ticks": 47904,
          "time": 99.80000000000001,
          "velocity": 1
        },
        {
          "duration": 0.4000000000000057,
          "durationTicks": 192,
          "midi": 84,
          "name": "C6",
          "ticks": 48000,
          "time": 100,
          "velocity": 1
        },
        {
          "duration": 0.09583333333333144,
          "durationTicks": 46,
          "midi": 86,
          "name": "D6",
          "ticks": 48192,
          "time": 100.4,
          "velocity": 1
        },
        {
          "duration": 0.09583333333333144,
          "durationTicks": 46,
          "midi": 87,
          "name": "D#6",
          "ticks": 48288,
          "time": 100.6,
          "velocity": 1
        },
        {
          "duration": 0.09583333333333144,
          "durationTicks": 46,
          "midi": 86,
          "name": "D6",
          "ticks": 48384,
          "time": 100.80000000000001,
          "velocity": 1
        },
        {
          "duration": 0.09583333333333144,
          "durationTicks": 46,
          "midi": 84,
          "name": "C6",
          "ticks": 48480,
          "time": 101,
          "velocity": 1
        },
        {
          "duration": 0.09583333333333144,
          "durationTicks": 46,
          "midi": 83,
          "name": "B5",
          "ticks": 48576,
          "time": 101.2,
          "velocity": 1
        },
        {
          "duration": 0.09583333333333144,
          "durationTicks": 46,
          "midi": 80,
          "name": "G#5",
          "ticks": 48672,
          "time": 101.4,
          "velocity": 1
        },
        {
          "duration": 0.04583333333334849,
          "durationTicks": 22,
          "midi": 79,
          "name": "G5",
          "ticks": 48768,
          "time": 101.6,
          "velocity": 1
        },
        {
          "duration": 0.04583333333332007,
          "durationTicks": 22,
          "midi": 80,
          "name": "G#5",
          "ticks": 48792,
          "time": 101.65,
          "velocity": 1
        },
        {
          "duration": 0.63333333333334,
          "durationTicks": 304,
          "midi": 79,
          "name": "G5",
          "ticks": 48816,
          "time": 101.7,
          "velocity": 1
        },
        {
          "duration": 0.09583333333333144,
          "durationTicks": 46,
          "midi": 65,
          "name": "F4",
          "ticks": 49248,
          "time": 102.6,
          "velocity": 1
        },
        {
          "duration": 0.09583333333333144,
          "durationTicks": 46,
          "midi": 68,
          "name": "G#4",
          "ticks": 49344,
          "time": 102.80000000000001,
          "velocity": 1
        },
        {
          "duration": 0.09583333333333144,
          "durationTicks": 46,
          "midi": 72,
          "name": "C5",
          "ticks": 49440,
          "time": 103,
          "velocity": 1
        },
        {
          "duration": 0.04583333333333428,
          "durationTicks": 22,
          "midi": 76,
          "name": "E5",
          "ticks": 49536,
          "time": 103.2,
          "velocity": 1
        },
        {
          "duration": 0.3499999999999943,
          "durationTicks": 168,
          "midi": 77,
          "name": "F5",
          "ticks": 49560,
          "time": 103.25,
          "velocity": 1
        },
        {
          "duration": 0.4000000000000057,
          "durationTicks": 192,
          "midi": 72,
          "name": "C5",
          "ticks": 49728,
          "time": 103.6,
          "velocity": 1
        },
        {
          "duration": 0.09583333333333144,
          "durationTicks": 46,
          "midi": 71,
          "name": "B4",
          "ticks": 49920,
          "time": 104,
          "velocity": 1
        },
        {
          "duration": 0.09583333333333144,
          "durationTicks": 46,
          "midi": 72,
          "name": "C5",
          "ticks": 50016,
          "time": 104.2,
          "velocity": 1
        },
        {
          "duration": 0.04999999999999716,
          "durationTicks": 24,
          "midi": 74,
          "name": "D5",
          "ticks": 50112,
          "time": 104.4,
          "velocity": 1
        },
        {
          "duration": 0.04999999999999716,
          "durationTicks": 24,
          "midi": 75,
          "name": "D#5",
          "ticks": 50136,
          "time": 104.45,
          "velocity": 1
        },
        {
          "duration": 0.30000000000001137,
          "durationTicks": 144,
          "midi": 74,
          "name": "D5",
          "ticks": 50160,
          "time": 104.5,
          "velocity": 1
        },
        {
          "duration": 0.09583333333333144,
          "durationTicks": 46,
          "midi": 71,
          "name": "B4",
          "ticks": 50304,
          "time": 104.80000000000001,
          "velocity": 1
        },
        {
          "duration": 0.09583333333333144,
          "durationTicks": 46,
          "midi": 67,
          "name": "G4",
          "ticks": 50400,
          "time": 105,
          "velocity": 1
        },
        {
          "duration": 0.09583333333333144,
          "durationTicks": 46,
          "midi": 71,
          "name": "B4",
          "ticks": 50496,
          "time": 105.2,
          "velocity": 1
        },
        {
          "duration": 0.09583333333333144,
          "durationTicks": 46,
          "midi": 74,
          "name": "D5",
          "ticks": 50592,
          "time": 105.4,
          "velocity": 1
        },
        {
          "duration": 0.2958333333333485,
          "durationTicks": 142,
          "midi": 75,
          "name": "D#5",
          "ticks": 50688,
          "time": 105.6,
          "velocity": 1
        },
        {
          "duration": 0.04999999999999716,
          "durationTicks": 24,
          "midi": 77,
          "name": "F5",
          "ticks": 50832,
          "time": 105.9,
          "velocity": 1
        },
        {
          "duration": 0.04999999999999716,
          "durationTicks": 24,
          "midi": 75,
          "name": "D#5",
          "ticks": 50856,
          "time": 105.95,
          "velocity": 1
        },
        {
          "duration": 0.09583333333333144,
          "durationTicks": 46,
          "midi": 74,
          "name": "D5",
          "ticks": 50880,
          "time": 106,
          "velocity": 1
        },
        {
          "duration": 0.09583333333333144,
          "durationTicks": 46,
          "midi": 72,
          "name": "C5",
          "ticks": 50976,
          "time": 106.2,
          "velocity": 1
        },
        {
          "duration": 0.4000000000000057,
          "durationTicks": 192,
          "midi": 84,
          "name": "C6",
          "ticks": 51072,
          "time": 106.4,
          "velocity": 1
        },
        {
          "duration": 0.09583333333333144,
          "durationTicks": 46,
          "midi": 82,
          "name": "A#5",
          "ticks": 51264,
          "time": 106.80000000000001,
          "velocity": 1
        },
        {
          "duration": 0.09583333333333144,
          "durationTicks": 46,
          "midi": 80,
          "name": "G#5",
          "ticks": 51360,
          "time": 107,
          "velocity": 1
        },
        {
          "duration": 0.2958333333333343,
          "durationTicks": 142,
          "midi": 79,
          "name": "G5",
          "ticks": 51456,
          "time": 107.2,
          "velocity": 1
        },
        {
          "duration": 0.05000000000001137,
          "durationTicks": 24,
          "midi": 80,
          "name": "G#5",
          "ticks": 51600,
          "time": 107.5,
          "velocity": 1
        },
        {
          "duration": 0.04999999999998295,
          "durationTicks": 24,
          "midi": 79,
          "name": "G5",
          "ticks": 51624,
          "time": 107.55000000000001,
          "velocity": 1
        },
        {
          "duration": 0.09583333333333144,
          "durationTicks": 46,
          "midi": 77,
          "name": "F5",
          "ticks": 51648,
          "time": 107.6,
          "velocity": 1
        },
        {
          "duration": 0.09583333333333144,
          "durationTicks": 46,
          "midi": 80,
          "name": "G#5",
          "ticks": 51744,
          "time": 107.80000000000001,
          "velocity": 1
        },
        {
          "duration": 0.8000000000000114,
          "durationTicks": 384,
          "midi": 79,
          "name": "G5",
          "ticks": 51840,
          "time": 108,
          "velocity": 1
        },
        {
          "duration": 0.09583333333333144,
          "durationTicks": 46,
          "midi": 65,
          "name": "F4",
          "ticks": 70752,
          "time": 147.4,
          "velocity": 1
        },
        {
          "duration": 0.09583333333333144,
          "durationTicks": 46,
          "midi": 68,
          "name": "G#4",
          "ticks": 70848,
          "time": 147.6,
          "velocity": 1
        },
        {
          "duration": 0.09583333333333144,
          "durationTicks": 46,
          "midi": 72,
          "name": "C5",
          "ticks": 70944,
          "time": 147.8,
          "velocity": 1
        },
        {
          "duration": 0.04583333333334849,
          "durationTicks": 22,
          "midi": 76,
          "name": "E5",
          "ticks": 71040,
          "time": 148,
          "velocity": 1
        },
        {
          "duration": 0.3499999999999943,
          "durationTicks": 168,
          "midi": 77,
          "name": "F5",
          "ticks": 71064,
          "time": 148.05,
          "velocity": 1
        },
        {
          "duration": 0.4000000000000057,
          "durationTicks": 192,
          "midi": 72,
          "name": "C5",
          "ticks": 71232,
          "time": 148.4,
          "velocity": 1
        },
        {
          "duration": 0.09583333333333144,
          "durationTicks": 46,
          "midi": 71,
          "name": "B4",
          "ticks": 71424,
          "time": 148.8,
          "velocity": 1
        },
        {
          "duration": 0.09583333333333144,
          "durationTicks": 46,
          "midi": 72,
          "name": "C5",
          "ticks": 71520,
          "time": 149,
          "velocity": 1
        },
        {
          "duration": 0.05000000000001137,
          "durationTicks": 24,
          "midi": 74,
          "name": "D5",
          "ticks": 71616,
          "time": 149.2,
          "velocity": 1
        },
        {
          "duration": 0.05000000000001137,
          "durationTicks": 24,
          "midi": 75,
          "name": "D#5",
          "ticks": 71640,
          "time": 149.25,
          "velocity": 1
        },
        {
          "duration": 0.29999999999998295,
          "durationTicks": 144,
          "midi": 74,
          "name": "D5",
          "ticks": 71664,
          "time": 149.3,
          "velocity": 1
        },
        {
          "duration": 0.09583333333333144,
          "durationTicks": 46,
          "midi": 71,
          "name": "B4",
          "ticks": 71808,
          "time": 149.6,
          "velocity": 1
        },
        {
          "duration": 0.09583333333333144,
          "durationTicks": 46,
          "midi": 67,
          "name": "G4",
          "ticks": 71904,
          "time": 149.8,
          "velocity": 1
        },
        {
          "duration": 0.09583333333333144,
          "durationTicks": 46,
          "midi": 71,
          "name": "B4",
          "ticks": 72000,
          "time": 150,
          "velocity": 1
        },
        {
          "duration": 0.09583333333335986,
          "durationTicks": 46,
          "midi": 74,
          "name": "D5",
          "ticks": 72096,
          "time": 150.2,
          "velocity": 1
        },
        {
          "duration": 0.29583333333332007,
          "durationTicks": 142,
          "midi": 75,
          "name": "D#5",
          "ticks": 72192,
          "time": 150.4,
          "velocity": 1
        },
        {
          "duration": 0.05000000000001137,
          "durationTicks": 24,
          "midi": 77,
          "name": "F5",
          "ticks": 72336,
          "time": 150.7,
          "velocity": 1
        },
        {
          "duration": 0.05000000000001137,
          "durationTicks": 24,
          "midi": 75,
          "name": "D#5",
          "ticks": 72360,
          "time": 150.75,
          "velocity": 1
        },
        {
          "duration": 0.09583333333333144,
          "durationTicks": 46,
          "midi": 74,
          "name": "D5",
          "ticks": 72384,
          "time": 150.8,
          "velocity": 1
        },
        {
          "duration": 0.09583333333333144,
          "durationTicks": 46,
          "midi": 72,
          "name": "C5",
          "ticks": 72480,
          "time": 151,
          "velocity": 1
        },
        {
          "duration": 0.4000000000000057,
          "durationTicks": 192,
          "midi": 84,
          "name": "C6",
          "ticks": 72576,
          "time": 151.2,
          "velocity": 1
        },
        {
          "duration": 0.09583333333333144,
          "durationTicks": 46,
          "midi": 82,
          "name": "A#5",
          "ticks": 72768,
          "time": 151.6,
          "velocity": 1
        },
        {
          "duration": 0.09583333333333144,
          "durationTicks": 46,
          "midi": 80,
          "name": "G#5",
          "ticks": 72864,
          "time": 151.8,
          "velocity": 1
        },
        {
          "duration": 0.2958333333333485,
          "durationTicks": 142,
          "midi": 79,
          "name": "G5",
          "ticks": 72960,
          "time": 152,
          "velocity": 1
        },
        {
          "duration": 0.04999999999998295,
          "durationTicks": 24,
          "midi": 80,
          "name": "G#5",
          "ticks": 73104,
          "time": 152.3,
          "velocity": 1
        },
        {
          "duration": 0.05000000000001137,
          "durationTicks": 24,
          "midi": 79,
          "name": "G5",
          "ticks": 73128,
          "time": 152.35,
          "velocity": 1
        },
        {
          "duration": 0.09583333333333144,
          "durationTicks": 46,
          "midi": 77,
          "name": "F5",
          "ticks": 73152,
          "time": 152.4,
          "velocity": 1
        },
        {
          "duration": 0.09583333333333144,
          "durationTicks": 46,
          "midi": 80,
          "name": "G#5",
          "ticks": 73248,
          "time": 152.6,
          "velocity": 1
        },
        {
          "duration": 0.8000000000000114,
          "durationTicks": 384,
          "midi": 79,
          "name": "G5",
          "ticks": 73344,
          "time": 152.8,
          "velocity": 1
        },
        {
          "duration": 0.09583333333333144,
          "durationTicks": 46,
          "midi": 65,
          "name": "F4",
          "ticks": 73824,
          "time": 153.8,
          "velocity": 1
        },
        {
          "duration": 0.09583333333333144,
          "durationTicks": 46,
          "midi": 68,
          "name": "G#4",
          "ticks": 73920,
          "time": 154,
          "velocity": 1
        },
        {
          "duration": 0.09583333333335986,
          "durationTicks": 46,
          "midi": 72,
          "name": "C5",
          "ticks": 74016,
          "time": 154.2,
          "velocity": 1
        },
        {
          "duration": 0.04583333333332007,
          "durationTicks": 22,
          "midi": 76,
          "name": "E5",
          "ticks": 74112,
          "time": 154.4,
          "velocity": 1
        },
        {
          "duration": 0.35000000000002274,
          "durationTicks": 168,
          "midi": 77,
          "name": "F5",
          "ticks": 74136,
          "time": 154.45,
          "velocity": 1
        },
        {
          "duration": 0.39999999999997726,
          "durationTicks": 192,
          "midi": 72,
          "name": "C5",
          "ticks": 74304,
          "time": 154.8,
          "velocity": 1
        },
        {
          "duration": 0.09583333333335986,
          "durationTicks": 46,
          "midi": 71,
          "name": "B4",
          "ticks": 74496,
          "time": 155.2,
          "velocity": 1
        },
        {
          "duration": 0.09583333333333144,
          "durationTicks": 46,
          "midi": 72,
          "name": "C5",
          "ticks": 74592,
          "time": 155.4,
          "velocity": 1
        },
        {
          "duration": 0.04999999999998295,
          "durationTicks": 24,
          "midi": 74,
          "name": "D5",
          "ticks": 74688,
          "time": 155.60000000000002,
          "velocity": 1
        },
        {
          "duration": 0.04999999999998295,
          "durationTicks": 24,
          "midi": 75,
          "name": "D#5",
          "ticks": 74712,
          "time": 155.65,
          "velocity": 1
        },
        {
          "duration": 0.30000000000001137,
          "durationTicks": 144,
          "midi": 74,
          "name": "D5",
          "ticks": 74736,
          "time": 155.7,
          "velocity": 1
        },
        {
          "duration": 0.09583333333333144,
          "durationTicks": 46,
          "midi": 71,
          "name": "B4",
          "ticks": 74880,
          "time": 156,
          "velocity": 1
        },
        {
          "duration": 0.09583333333335986,
          "durationTicks": 46,
          "midi": 67,
          "name": "G4",
          "ticks": 74976,
          "time": 156.2,
          "velocity": 1
        },
        {
          "duration": 0.09583333333333144,
          "durationTicks": 46,
          "midi": 71,
          "name": "B4",
          "ticks": 75072,
          "time": 156.4,
          "velocity": 1
        },
        {
          "duration": 0.09583333333330302,
          "durationTicks": 46,
          "midi": 74,
          "name": "D5",
          "ticks": 75168,
          "time": 156.60000000000002,
          "velocity": 1
        },
        {
          "duration": 0.29583333333332007,
          "durationTicks": 142,
          "midi": 75,
          "name": "D#5",
          "ticks": 75264,
          "time": 156.8,
          "velocity": 1
        },
        {
          "duration": 0.04999999999998295,
          "durationTicks": 24,
          "midi": 77,
          "name": "F5",
          "ticks": 75408,
          "time": 157.10000000000002,
          "velocity": 1
        },
        {
          "duration": 0.04999999999998295,
          "durationTicks": 24,
          "midi": 75,
          "name": "D#5",
          "ticks": 75432,
          "time": 157.15,
          "velocity": 1
        },
        {
          "duration": 0.09583333333335986,
          "durationTicks": 46,
          "midi": 74,
          "name": "D5",
          "ticks": 75456,
          "time": 157.2,
          "velocity": 1
        },
        {
          "duration": 0.09583333333333144,
          "durationTicks": 46,
          "midi": 72,
          "name": "C5",
          "ticks": 75552,
          "time": 157.4,
          "velocity": 1
        },
        {
          "duration": 0.39999999999997726,
          "durationTicks": 192,
          "midi": 84,
          "name": "C6",
          "ticks": 75648,
          "time": 157.60000000000002,
          "velocity": 1
        },
        {
          "duration": 0.09583333333333144,
          "durationTicks": 46,
          "midi": 86,
          "name": "D6",
          "ticks": 75840,
          "time": 158,
          "velocity": 1
        },
        {
          "duration": 0.09583333333335986,
          "durationTicks": 46,
          "midi": 87,
          "name": "D#6",
          "ticks": 75936,
          "time": 158.2,
          "velocity": 1
        },
        {
          "duration": 0.09583333333333144,
          "durationTicks": 46,
          "midi": 86,
          "name": "D6",
          "ticks": 76032,
          "time": 158.4,
          "velocity": 1
        },
        {
          "duration": 0.09583333333330302,
          "durationTicks": 46,
          "midi": 84,
          "name": "C6",
          "ticks": 76128,
          "time": 158.60000000000002,
          "velocity": 1
        },
        {
          "duration": 0.09583333333333144,
          "durationTicks": 46,
          "midi": 83,
          "name": "B5",
          "ticks": 76224,
          "time": 158.8,
          "velocity": 1
        },
        {
          "duration": 0.09583333333333144,
          "durationTicks": 46,
          "midi": 80,
          "name": "G#5",
          "ticks": 76320,
          "time": 159,
          "velocity": 1
        },
        {
          "duration": 0.04583333333334849,
          "durationTicks": 22,
          "midi": 79,
          "name": "G5",
          "ticks": 76416,
          "time": 159.2,
          "velocity": 1
        },
        {
          "duration": 0.04583333333334849,
          "durationTicks": 22,
          "midi": 80,
          "name": "G#5",
          "ticks": 76440,
          "time": 159.25,
          "velocity": 1
        },
        {
          "duration": 0.6333333333333258,
          "durationTicks": 304,
          "midi": 79,
          "name": "G5",
          "ticks": 76464,
          "time": 159.3,
          "velocity": 1
        },
        {
          "duration": 0.09583333333335986,
          "durationTicks": 46,
          "midi": 65,
          "name": "F4",
          "ticks": 76896,
          "time": 160.2,
          "velocity": 1
        },
        {
          "duration": 0.09583333333333144,
          "durationTicks": 46,
          "midi": 68,
          "name": "G#4",
          "ticks": 76992,
          "time": 160.4,
          "velocity": 1
        },
        {
          "duration": 0.09583333333330302,
          "durationTicks": 46,
          "midi": 72,
          "name": "C5",
          "ticks": 77088,
          "time": 160.60000000000002,
          "velocity": 1
        },
        {
          "duration": 0.04583333333332007,
          "durationTicks": 22,
          "midi": 76,
          "name": "E5",
          "ticks": 77184,
          "time": 160.8,
          "velocity": 1
        },
        {
          "duration": 0.3499999999999659,
          "durationTicks": 168,
          "midi": 77,
          "name": "F5",
          "ticks": 77208,
          "time": 160.85000000000002,
          "velocity": 1
        },
        {
          "duration": 0.4000000000000341,
          "durationTicks": 192,
          "midi": 72,
          "name": "C5",
          "ticks": 77376,
          "time": 161.2,
          "velocity": 1
        },
        {
          "duration": 0.09583333333330302,
          "durationTicks": 46,
          "midi": 71,
          "name": "B4",
          "ticks": 77568,
          "time": 161.60000000000002,
          "velocity": 1
        },
        {
          "duration": 0.09583333333333144,
          "durationTicks": 46,
          "midi": 72,
          "name": "C5",
          "ticks": 77664,
          "time": 161.8,
          "velocity": 1
        },
        {
          "duration": 0.05000000000001137,
          "durationTicks": 24,
          "midi": 74,
          "name": "D5",
          "ticks": 77760,
          "time": 162,
          "velocity": 1
        },
        {
          "duration": 0.05000000000001137,
          "durationTicks": 24,
          "midi": 75,
          "name": "D#5",
          "ticks": 77784,
          "time": 162.05,
          "velocity": 1
        },
        {
          "duration": 0.29999999999998295,
          "durationTicks": 144,
          "midi": 74,
          "name": "D5",
          "ticks": 77808,
          "time": 162.10000000000002,
          "velocity": 1
        },
        {
          "duration": 0.09583333333333144,
          "durationTicks": 46,
          "midi": 71,
          "name": "B4",
          "ticks": 77952,
          "time": 162.4,
          "velocity": 1
        },
        {
          "duration": 0.09583333333330302,
          "durationTicks": 46,
          "midi": 67,
          "name": "G4",
          "ticks": 78048,
          "time": 162.60000000000002,
          "velocity": 1
        },
        {
          "duration": 0.09583333333333144,
          "durationTicks": 46,
          "midi": 71,
          "name": "B4",
          "ticks": 78144,
          "time": 162.8,
          "velocity": 1
        },
        {
          "duration": 0.09583333333333144,
          "durationTicks": 46,
          "midi": 74,
          "name": "D5",
          "ticks": 78240,
          "time": 163,
          "velocity": 1
        },
        {
          "duration": 0.2958333333333485,
          "durationTicks": 142,
          "midi": 75,
          "name": "D#5",
          "ticks": 78336,
          "time": 163.2,
          "velocity": 1
        },
        {
          "duration": 0.05000000000001137,
          "durationTicks": 24,
          "midi": 77,
          "name": "F5",
          "ticks": 78480,
          "time": 163.5,
          "velocity": 1
        },
        {
          "duration": 0.05000000000001137,
          "durationTicks": 24,
          "midi": 75,
          "name": "D#5",
          "ticks": 78504,
          "time": 163.55,
          "velocity": 1
        },
        {
          "duration": 0.09583333333330302,
          "durationTicks": 46,
          "midi": 74,
          "name": "D5",
          "ticks": 78528,
          "time": 163.60000000000002,
          "velocity": 1
        },
        {
          "duration": 0.09583333333333144,
          "durationTicks": 46,
          "midi": 72,
          "name": "C5",
          "ticks": 78624,
          "time": 163.8,
          "velocity": 1
        },
        {
          "duration": 0.4000000000000057,
          "durationTicks": 192,
          "midi": 84,
          "name": "C6",
          "ticks": 78720,
          "time": 164,
          "velocity": 1
        },
        {
          "duration": 0.09583333333333144,
          "durationTicks": 46,
          "midi": 82,
          "name": "A#5",
          "ticks": 78912,
          "time": 164.4,
          "velocity": 1
        },
        {
          "duration": 0.09583333333330302,
          "durationTicks": 46,
          "midi": 80,
          "name": "G#5",
          "ticks": 79008,
          "time": 164.60000000000002,
          "velocity": 1
        },
        {
          "duration": 0.29583333333332007,
          "durationTicks": 142,
          "midi": 79,
          "name": "G5",
          "ticks": 79104,
          "time": 164.8,
          "velocity": 1
        },
        {
          "duration": 0.04999999999998295,
          "durationTicks": 24,
          "midi": 80,
          "name": "G#5",
          "ticks": 79248,
          "time": 165.10000000000002,
          "velocity": 1
        },
        {
          "duration": 0.04999999999998295,
          "durationTicks": 24,
          "midi": 79,
          "name": "G5",
          "ticks": 79272,
          "time": 165.15,
          "velocity": 1
        },
        {
          "duration": 0.09583333333335986,
          "durationTicks": 46,
          "midi": 77,
          "name": "F5",
          "ticks": 79296,
          "time": 165.2,
          "velocity": 1
        },
        {
          "duration": 0.09583333333333144,
          "durationTicks": 46,
          "midi": 80,
          "name": "G#5",
          "ticks": 79392,
          "time": 165.4,
          "velocity": 1
        },
        {
          "duration": 0.799999999999983,
          "durationTicks": 384,
          "midi": 79,
          "name": "G5",
          "ticks": 79488,
          "time": 165.60000000000002,
          "velocity": 1
        }
      ],
      "endOfTrackTicks": 79872
    },
    {
      "channel": 13,
      "controlChanges": {
        "7": [
          {
            "number": 7,
            "ticks": 0,
            "time": 0,
            "value": 1
          }
        ],
        "10": [
          {
            "number": 10,
            "ticks": 0,
            "time": 0,
            "value": 0.5039370078740157
          }
        ]
      },
      "pitchBends": [],
      "instrument": {
        "family": "synth lead",
        "number": 81,
        "name": "lead 2 (sawtooth)"
      },
      "name": "Staff-6",
      "notes": [
        {
          "duration": 0.3000000000000007,
          "durationTicks": 144,
          "midi": 60,
          "name": "C4",
          "ticks": 12672,
          "time": 26.400000000000002,
          "velocity": 0.8661417322834646
        },
        {
          "duration": 0.04583333333333073,
          "durationTicks": 22,
          "midi": 65,
          "name": "F4",
          "ticks": 12816,
          "time": 26.700000000000003,
          "velocity": 0.8661417322834646
        },
        {
          "duration": 0.04583333333333428,
          "durationTicks": 22,
          "midi": 65,
          "name": "F4",
          "ticks": 12840,
          "time": 26.75,
          "velocity": 0.8661417322834646
        },
        {
          "duration": 0.40000000000000213,
          "durationTicks": 192,
          "midi": 67,
          "name": "G4",
          "ticks": 12864,
          "time": 26.8,
          "velocity": 0.8661417322834646
        },
        {
          "duration": 0.09583333333333144,
          "durationTicks": 46,
          "midi": 66,
          "name": "F#4",
          "ticks": 13056,
          "time": 27.200000000000003,
          "velocity": 0.8661417322834646
        },
        {
          "duration": 0.09583333333333144,
          "durationTicks": 46,
          "midi": 64,
          "name": "E4",
          "ticks": 13152,
          "time": 27.400000000000002,
          "velocity": 0.8661417322834646
        },
        {
          "duration": 0.3999999999999986,
          "durationTicks": 192,
          "midi": 66,
          "name": "F#4",
          "ticks": 13248,
          "time": 27.6,
          "velocity": 0.8661417322834646
        },
        {
          "duration": 0.09583333333333144,
          "durationTicks": 46,
          "midi": 67,
          "name": "G4",
          "ticks": 13440,
          "time": 28,
          "velocity": 0.8661417322834646
        },
        {
          "duration": 0.09583333333333144,
          "durationTicks": 46,
          "midi": 63,
          "name": "D#4",
          "ticks": 13536,
          "time": 28.200000000000003,
          "velocity": 0.8661417322834646
        },
        {
          "duration": 0.09583333333333144,
          "durationTicks": 46,
          "midi": 60,
          "name": "C4",
          "ticks": 13632,
          "time": 28.400000000000002,
          "velocity": 0.8661417322834646
        },
        {
          "duration": 0.09583333333333144,
          "durationTicks": 46,
          "midi": 53,
          "name": "F3",
          "ticks": 13728,
          "time": 28.6,
          "velocity": 0.8661417322834646
        },
        {
          "duration": 0.09583333333333144,
          "durationTicks": 46,
          "midi": 55,
          "name": "G3",
          "ticks": 13824,
          "time": 28.8,
          "velocity": 0.8661417322834646
        },
        {
          "duration": 0.09583333333333144,
          "durationTicks": 46,
          "midi": 60,
          "name": "C4",
          "ticks": 13920,
          "time": 29,
          "velocity": 0.8661417322834646
        },
        {
          "duration": 0.3999999999999986,
          "durationTicks": 192,
          "midi": 62,
          "name": "D4",
          "ticks": 14016,
          "time": 29.200000000000003,
          "velocity": 0.8661417322834646
        },
        {
          "duration": 0.09583333333333144,
          "durationTicks": 46,
          "midi": 63,
          "name": "D#4",
          "ticks": 14208,
          "time": 29.6,
          "velocity": 0.8661417322834646
        },
        {
          "duration": 0.09583333333333144,
          "durationTicks": 46,
          "midi": 60,
          "name": "C4",
          "ticks": 14304,
          "time": 29.8,
          "velocity": 0.8661417322834646
        },
        {
          "duration": 0.09583333333333144,
          "durationTicks": 46,
          "midi": 55,
          "name": "G3",
          "ticks": 14400,
          "time": 30,
          "velocity": 0.8661417322834646
        },
        {
          "duration": 0.09583333333333144,
          "durationTicks": 46,
          "midi": 51,
          "name": "D#3",
          "ticks": 14496,
          "time": 30.200000000000003,
          "velocity": 0.8661417322834646
        },
        {
          "duration": 0.1958333333333293,
          "durationTicks": 94,
          "midi": 47,
          "name": "B2",
          "ticks": 14592,
          "time": 30.400000000000002,
          "velocity": 0.8661417322834646
        },
        {
          "duration": 0.09583333333333144,
          "durationTicks": 46,
          "midi": 43,
          "name": "G2",
          "ticks": 14688,
          "time": 30.6,
          "velocity": 0.8661417322834646
        },
        {
          "duration": 0.04583333333333073,
          "durationTicks": 22,
          "midi": 55,
          "name": "G3",
          "ticks": 14784,
          "time": 30.8,
          "velocity": 0.8661417322834646
        },
        {
          "duration": 0.04583333333333073,
          "durationTicks": 22,
          "midi": 56,
          "name": "G#3",
          "ticks": 14808,
          "time": 30.85,
          "velocity": 0.8661417322834646
        },
        {
          "duration": 0.04583333333333073,
          "durationTicks": 22,
          "midi": 55,
          "name": "G3",
          "ticks": 14832,
          "time": 30.900000000000002,
          "velocity": 0.8661417322834646
        },
        {
          "duration": 0.04583333333333073,
          "durationTicks": 22,
          "midi": 56,
          "name": "G#3",
          "ticks": 14856,
          "time": 30.950000000000003,
          "velocity": 0.8661417322834646
        },
        {
          "duration": 0.19583333333333286,
          "durationTicks": 94,
          "midi": 55,
          "name": "G3",
          "ticks": 14880,
          "time": 31,
          "velocity": 0.8661417322834646
        },
        {
          "duration": 0.1958333333333293,
          "durationTicks": 94,
          "midi": 48,
          "name": "C3",
          "ticks": 14976,
          "time": 31.200000000000003,
          "velocity": 0.8661417322834646
        },
        {
          "duration": 0.09583333333333144,
          "durationTicks": 46,
          "midi": 65,
          "name": "F4",
          "ticks": 24672,
          "time": 51.400000000000006,
          "velocity": 0.7244094488188977
        },
        {
          "duration": 0.09583333333333854,
          "durationTicks": 46,
          "midi": 68,
          "name": "G#4",
          "ticks": 24768,
          "time": 51.6,
          "velocity": 0.7244094488188977
        },
        {
          "duration": 0.09583333333333854,
          "durationTicks": 46,
          "midi": 72,
          "name": "C5",
          "ticks": 24864,
          "time": 51.800000000000004,
          "velocity": 0.7244094488188977
        },
        {
          "duration": 0.30000000000000426,
          "durationTicks": 144,
          "midi": 77,
          "name": "F5",
          "ticks": 24960,
          "time": 52,
          "velocity": 0.7244094488188977
        },
        {
          "duration": 0.04583333333333428,
          "durationTicks": 22,
          "midi": 77,
          "name": "F5",
          "ticks": 25104,
          "time": 52.300000000000004,
          "velocity": 0.7244094488188977
        },
        {
          "duration": 0.045833333333341386,
          "durationTicks": 22,
          "midi": 79,
          "name": "G5",
          "ticks": 25128,
          "time": 52.35,
          "velocity": 0.7244094488188977
        },
        {
          "duration": 0.3999999999999986,
          "durationTicks": 192,
          "midi": 80,
          "name": "G#5",
          "ticks": 25152,
          "time": 52.400000000000006,
          "velocity": 0.7244094488188977
        },
        {
          "duration": 0.09583333333333854,
          "durationTicks": 46,
          "midi": 79,
          "name": "G5",
          "ticks": 25344,
          "time": 52.800000000000004,
          "velocity": 0.7244094488188977
        },
        {
          "duration": 0.09583333333333854,
          "durationTicks": 46,
          "midi": 77,
          "name": "F5",
          "ticks": 25440,
          "time": 53,
          "velocity": 0.7244094488188977
        },
        {
          "duration": 0.19583333333333997,
          "durationTicks": 94,
          "midi": 74,
          "name": "D5",
          "ticks": 25536,
          "time": 53.2,
          "velocity": 0.7244094488188977
        },
        {
          "duration": 0.19583333333333997,
          "durationTicks": 94,
          "midi": 71,
          "name": "B4",
          "ticks": 25728,
          "time": 53.6,
          "velocity": 0.7244094488188977
        },
        {
          "duration": 0.04583333333333428,
          "durationTicks": 22,
          "midi": 72,
          "name": "C5",
          "ticks": 25872,
          "time": 53.900000000000006,
          "velocity": 0.7244094488188977
        },
        {
          "duration": 0.04583333333333428,
          "durationTicks": 22,
          "midi": 74,
          "name": "D5",
          "ticks": 25896,
          "time": 53.95,
          "velocity": 0.7244094488188977
        },
        {
          "duration": 0.19583333333333997,
          "durationTicks": 94,
          "midi": 75,
          "name": "D#5",
          "ticks": 25920,
          "time": 54,
          "velocity": 0.7244094488188977
        },
        {
          "duration": 0.19583333333333997,
          "durationTicks": 94,
          "midi": 74,
          "name": "D5",
          "ticks": 26016,
          "time": 54.2,
          "velocity": 0.7244094488188977
        },
        {
          "duration": 0.19583333333333286,
          "durationTicks": 94,
          "midi": 72,
          "name": "C5",
          "ticks": 26112,
          "time": 54.400000000000006,
          "velocity": 0.7244094488188977
        },
        {
          "duration": 0.19583333333333997,
          "durationTicks": 94,
          "midi": 71,
          "name": "B4",
          "ticks": 26208,
          "time": 54.6,
          "velocity": 0.7244094488188977
        },
        {
          "duration": 0.19583333333333286,
          "durationTicks": 94,
          "midi": 72,
          "name": "C5",
          "ticks": 26304,
          "time": 54.800000000000004,
          "velocity": 0.7244094488188977
        },
        {
          "duration": 0.19583333333333997,
          "durationTicks": 94,
          "midi": 74,
          "name": "D5",
          "ticks": 26400,
          "time": 55,
          "velocity": 0.7244094488188977
        },
        {
          "duration": 0.19583333333333997,
          "durationTicks": 94,
          "midi": 75,
          "name": "D#5",
          "ticks": 26496,
          "time": 55.2,
          "velocity": 0.7244094488188977
        },
        {
          "duration": 0.19583333333333997,
          "durationTicks": 94,
          "midi": 72,
          "name": "C5",
          "ticks": 26688,
          "time": 55.6,
          "velocity": 0.7244094488188977
        },
        {
          "duration": 0.19583333333333997,
          "durationTicks": 94,
          "midi": 71,
          "name": "B4",
          "ticks": 26880,
          "time": 56,
          "velocity": 0.7244094488188977
        },
        {
          "duration": 0.19583333333333997,
          "durationTicks": 94,
          "midi": 72,
          "name": "C5",
          "ticks": 26976,
          "time": 56.2,
          "velocity": 0.7244094488188977
        },
        {
          "duration": 0.19583333333333286,
          "durationTicks": 94,
          "midi": 74,
          "name": "D5",
          "ticks": 27072,
          "time": 56.400000000000006,
          "velocity": 0.7244094488188977
        },
        {
          "duration": 0.19583333333333286,
          "durationTicks": 94,
          "midi": 72,
          "name": "C5",
          "ticks": 27264,
          "time": 56.800000000000004,
          "velocity": 0.7244094488188977
        },
        {
          "duration": 0.30000000000001137,
          "durationTicks": 144,
          "midi": 60,
          "name": "C4",
          "ticks": 40320,
          "time": 84,
          "velocity": 0.7244094488188977
        },
        {
          "duration": 0.04583333333332007,
          "durationTicks": 22,
          "midi": 65,
          "name": "F4",
          "ticks": 40464,
          "time": 84.30000000000001,
          "velocity": 0.7244094488188977
        },
        {
          "duration": 0.04583333333334849,
          "durationTicks": 22,
          "midi": 65,
          "name": "F4",
          "ticks": 40488,
          "time": 84.35,
          "velocity": 0.7244094488188977
        },
        {
          "duration": 0.4000000000000057,
          "durationTicks": 192,
          "midi": 67,
          "name": "G4",
          "ticks": 40512,
          "time": 84.4,
          "velocity": 0.7244094488188977
        },
        {
          "duration": 0.09583333333333144,
          "durationTicks": 46,
          "midi": 66,
          "name": "F#4",
          "ticks": 40704,
          "time": 84.80000000000001,
          "velocity": 0.7244094488188977
        },
        {
          "duration": 0.09583333333333144,
          "durationTicks": 46,
          "midi": 64,
          "name": "E4",
          "ticks": 40800,
          "time": 85,
          "velocity": 0.7244094488188977
        },
        {
          "duration": 0.3999999999999915,
          "durationTicks": 192,
          "midi": 66,
          "name": "F#4",
          "ticks": 40896,
          "time": 85.2,
          "velocity": 0.7244094488188977
        },
        {
          "duration": 0.09583333333333144,
          "durationTicks": 46,
          "midi": 67,
          "name": "G4",
          "ticks": 41088,
          "time": 85.6,
          "velocity": 0.7244094488188977
        },
        {
          "duration": 0.09583333333333144,
          "durationTicks": 46,
          "midi": 63,
          "name": "D#4",
          "ticks": 41184,
          "time": 85.80000000000001,
          "velocity": 0.7244094488188977
        },
        {
          "duration": 0.09583333333333144,
          "durationTicks": 46,
          "midi": 60,
          "name": "C4",
          "ticks": 41280,
          "time": 86,
          "velocity": 0.7244094488188977
        },
        {
          "duration": 0.09583333333333144,
          "durationTicks": 46,
          "midi": 53,
          "name": "F3",
          "ticks": 41376,
          "time": 86.2,
          "velocity": 0.7244094488188977
        },
        {
          "duration": 0.09583333333333144,
          "durationTicks": 46,
          "midi": 55,
          "name": "G3",
          "ticks": 41472,
          "time": 86.4,
          "velocity": 0.7244094488188977
        },
        {
          "duration": 0.09583333333333144,
          "durationTicks": 46,
          "midi": 60,
          "name": "C4",
          "ticks": 41568,
          "time": 86.6,
          "velocity": 0.7244094488188977
        },
        {
          "duration": 0.3999999999999915,
          "durationTicks": 192,
          "midi": 62,
          "name": "D4",
          "ticks": 41664,
          "time": 86.80000000000001,
          "velocity": 0.7244094488188977
        },
        {
          "duration": 0.09583333333333144,
          "durationTicks": 46,
          "midi": 63,
          "name": "D#4",
          "ticks": 41856,
          "time": 87.2,
          "velocity": 0.7244094488188977
        },
        {
          "duration": 0.09583333333333144,
          "durationTicks": 46,
          "midi": 60,
          "name": "C4",
          "ticks": 41952,
          "time": 87.4,
          "velocity": 0.7244094488188977
        },
        {
          "duration": 0.09583333333333144,
          "durationTicks": 46,
          "midi": 55,
          "name": "G3",
          "ticks": 42048,
          "time": 87.6,
          "velocity": 0.7244094488188977
        },
        {
          "duration": 0.09583333333333144,
          "durationTicks": 46,
          "midi": 51,
          "name": "D#3",
          "ticks": 42144,
          "time": 87.80000000000001,
          "velocity": 0.7244094488188977
        },
        {
          "duration": 0.19583333333332575,
          "durationTicks": 94,
          "midi": 47,
          "name": "B2",
          "ticks": 42240,
          "time": 88,
          "velocity": 0.7244094488188977
        },
        {
          "duration": 0.09583333333333144,
          "durationTicks": 46,
          "midi": 43,
          "name": "G2",
          "ticks": 42336,
          "time": 88.2,
          "velocity": 0.7244094488188977
        },
        {
          "duration": 0.04583333333332007,
          "durationTicks": 22,
          "midi": 55,
          "name": "G3",
          "ticks": 42432,
          "time": 88.4,
          "velocity": 0.7244094488188977
        },
        {
          "duration": 0.04583333333333428,
          "durationTicks": 22,
          "midi": 56,
          "name": "G#3",
          "ticks": 42456,
          "time": 88.45,
          "velocity": 0.7244094488188977
        },
        {
          "duration": 0.04583333333333428,
          "durationTicks": 22,
          "midi": 55,
          "name": "G3",
          "ticks": 42480,
          "time": 88.5,
          "velocity": 0.7244094488188977
        },
        {
          "duration": 0.04583333333332007,
          "durationTicks": 22,
          "midi": 56,
          "name": "G#3",
          "ticks": 42504,
          "time": 88.55000000000001,
          "velocity": 0.7244094488188977
        },
        {
          "duration": 0.19583333333333997,
          "durationTicks": 94,
          "midi": 55,
          "name": "G3",
          "ticks": 42528,
          "time": 88.6,
          "velocity": 0.7244094488188977
        },
        {
          "duration": 0.19583333333332575,
          "durationTicks": 94,
          "midi": 48,
          "name": "C3",
          "ticks": 42624,
          "time": 88.80000000000001,
          "velocity": 0.7244094488188977
        },
        {
          "duration": 0.09583333333333144,
          "durationTicks": 46,
          "midi": 65,
          "name": "F4",
          "ticks": 52320,
          "time": 109,
          "velocity": 0.7244094488188977
        },
        {
          "duration": 0.09583333333334565,
          "durationTicks": 46,
          "midi": 68,
          "name": "G#4",
          "ticks": 52416,
          "time": 109.2,
          "velocity": 0.7244094488188977
        },
        {
          "duration": 0.09583333333333144,
          "durationTicks": 46,
          "midi": 72,
          "name": "C5",
          "ticks": 52512,
          "time": 109.4,
          "velocity": 0.7244094488188977
        },
        {
          "duration": 0.30000000000001137,
          "durationTicks": 144,
          "midi": 77,
          "name": "F5",
          "ticks": 52608,
          "time": 109.6,
          "velocity": 0.7244094488188977
        },
        {
          "duration": 0.04583333333333428,
          "durationTicks": 22,
          "midi": 77,
          "name": "F5",
          "ticks": 52752,
          "time": 109.9,
          "velocity": 0.7244094488188977
        },
        {
          "duration": 0.04583333333333428,
          "durationTicks": 22,
          "midi": 79,
          "name": "G5",
          "ticks": 52776,
          "time": 109.95,
          "velocity": 0.7244094488188977
        },
        {
          "duration": 0.4000000000000057,
          "durationTicks": 192,
          "midi": 80,
          "name": "G#5",
          "ticks": 52800,
          "time": 110,
          "velocity": 0.7244094488188977
        },
        {
          "duration": 0.09583333333333144,
          "durationTicks": 46,
          "midi": 79,
          "name": "G5",
          "ticks": 52992,
          "time": 110.4,
          "velocity": 0.7244094488188977
        },
        {
          "duration": 0.09583333333334565,
          "durationTicks": 46,
          "midi": 77,
          "name": "F5",
          "ticks": 53088,
          "time": 110.6,
          "velocity": 0.7244094488188977
        },
        {
          "duration": 0.19583333333332575,
          "durationTicks": 94,
          "midi": 74,
          "name": "D5",
          "ticks": 53184,
          "time": 110.80000000000001,
          "velocity": 0.7244094488188977
        },
        {
          "duration": 0.19583333333333997,
          "durationTicks": 94,
          "midi": 71,
          "name": "B4",
          "ticks": 53376,
          "time": 111.2,
          "velocity": 0.7244094488188977
        },
        {
          "duration": 0.04583333333334849,
          "durationTicks": 22,
          "midi": 72,
          "name": "C5",
          "ticks": 53520,
          "time": 111.5,
          "velocity": 0.7244094488188977
        },
        {
          "duration": 0.04583333333332007,
          "durationTicks": 22,
          "midi": 74,
          "name": "D5",
          "ticks": 53544,
          "time": 111.55000000000001,
          "velocity": 0.7244094488188977
        },
        {
          "duration": 0.19583333333335418,
          "durationTicks": 94,
          "midi": 75,
          "name": "D#5",
          "ticks": 53568,
          "time": 111.6,
          "velocity": 0.7244094488188977
        },
        {
          "duration": 0.19583333333332575,
          "durationTicks": 94,
          "midi": 74,
          "name": "D5",
          "ticks": 53664,
          "time": 111.80000000000001,
          "velocity": 0.7244094488188977
        },
        {
          "duration": 0.19583333333333997,
          "durationTicks": 94,
          "midi": 72,
          "name": "C5",
          "ticks": 53760,
          "time": 112,
          "velocity": 0.7244094488188977
        },
        {
          "duration": 0.19583333333333997,
          "durationTicks": 94,
          "midi": 71,
          "name": "B4",
          "ticks": 53856,
          "time": 112.2,
          "velocity": 0.7244094488188977
        },
        {
          "duration": 0.19583333333332575,
          "durationTicks": 94,
          "midi": 72,
          "name": "C5",
          "ticks": 53952,
          "time": 112.4,
          "velocity": 0.7244094488188977
        },
        {
          "duration": 0.19583333333335418,
          "durationTicks": 94,
          "midi": 74,
          "name": "D5",
          "ticks": 54048,
          "time": 112.6,
          "velocity": 0.7244094488188977
        },
        {
          "duration": 0.19583333333332575,
          "durationTicks": 94,
          "midi": 75,
          "name": "D#5",
          "ticks": 54144,
          "time": 112.80000000000001,
          "velocity": 0.7244094488188977
        },
        {
          "duration": 0.19583333333333997,
          "durationTicks": 94,
          "midi": 72,
          "name": "C5",
          "ticks": 54336,
          "time": 113.2,
          "velocity": 0.7244094488188977
        },
        {
          "duration": 0.19583333333335418,
          "durationTicks": 94,
          "midi": 71,
          "name": "B4",
          "ticks": 54528,
          "time": 113.6,
          "velocity": 0.7244094488188977
        },
        {
          "duration": 0.19583333333332575,
          "durationTicks": 94,
          "midi": 72,
          "name": "C5",
          "ticks": 54624,
          "time": 113.80000000000001,
          "velocity": 0.7244094488188977
        },
        {
          "duration": 0.19583333333333997,
          "durationTicks": 94,
          "midi": 74,
          "name": "D5",
          "ticks": 54720,
          "time": 114,
          "velocity": 0.7244094488188977
        },
        {
          "duration": 0.19583333333332575,
          "durationTicks": 94,
          "midi": 72,
          "name": "C5",
          "ticks": 54912,
          "time": 114.4,
          "velocity": 0.7244094488188977
        },
        {
          "duration": 0.30000000000001137,
          "durationTicks": 144,
          "midi": 60,
          "name": "C4",
          "ticks": 67968,
          "time": 141.6,
          "velocity": 0.7244094488188977
        },
        {
          "duration": 0.04583333333332007,
          "durationTicks": 22,
          "midi": 65,
          "name": "F4",
          "ticks": 68112,
          "time": 141.9,
          "velocity": 0.7244094488188977
        },
        {
          "duration": 0.04583333333334849,
          "durationTicks": 22,
          "midi": 65,
          "name": "F4",
          "ticks": 68136,
          "time": 141.95,
          "velocity": 0.7244094488188977
        },
        {
          "duration": 0.4000000000000057,
          "durationTicks": 192,
          "midi": 67,
          "name": "G4",
          "ticks": 68160,
          "time": 142,
          "velocity": 0.7244094488188977
        },
        {
          "duration": 0.09583333333333144,
          "durationTicks": 46,
          "midi": 66,
          "name": "F#4",
          "ticks": 68352,
          "time": 142.4,
          "velocity": 0.7244094488188977
        },
        {
          "duration": 0.09583333333333144,
          "durationTicks": 46,
          "midi": 64,
          "name": "E4",
          "ticks": 68448,
          "time": 142.6,
          "velocity": 0.7244094488188977
        },
        {
          "duration": 0.39999999999997726,
          "durationTicks": 192,
          "midi": 66,
          "name": "F#4",
          "ticks": 68544,
          "time": 142.8,
          "velocity": 0.7244094488188977
        },
        {
          "duration": 0.09583333333335986,
          "durationTicks": 46,
          "midi": 67,
          "name": "G4",
          "ticks": 68736,
          "time": 143.2,
          "velocity": 0.7244094488188977
        },
        {
          "duration": 0.09583333333333144,
          "durationTicks": 46,
          "midi": 63,
          "name": "D#4",
          "ticks": 68832,
          "time": 143.4,
          "velocity": 0.7244094488188977
        },
        {
          "duration": 0.09583333333333144,
          "durationTicks": 46,
          "midi": 60,
          "name": "C4",
          "ticks": 68928,
          "time": 143.6,
          "velocity": 0.7244094488188977
        },
        {
          "duration": 0.09583333333333144,
          "durationTicks": 46,
          "midi": 53,
          "name": "F3",
          "ticks": 69024,
          "time": 143.8,
          "velocity": 0.7244094488188977
        },
        {
          "duration": 0.09583333333333144,
          "durationTicks": 46,
          "midi": 55,
          "name": "G3",
          "ticks": 69120,
          "time": 144,
          "velocity": 0.7244094488188977
        },
        {
          "duration": 0.09583333333335986,
          "durationTicks": 46,
          "midi": 60,
          "name": "C4",
          "ticks": 69216,
          "time": 144.2,
          "velocity": 0.7244094488188977
        },
        {
          "duration": 0.4000000000000057,
          "durationTicks": 192,
          "midi": 62,
          "name": "D4",
          "ticks": 69312,
          "time": 144.4,
          "velocity": 0.7244094488188977
        },
        {
          "duration": 0.09583333333333144,
          "durationTicks": 46,
          "midi": 63,
          "name": "D#4",
          "ticks": 69504,
          "time": 144.8,
          "velocity": 0.7244094488188977
        },
        {
          "duration": 0.09583333333333144,
          "durationTicks": 46,
          "midi": 60,
          "name": "C4",
          "ticks": 69600,
          "time": 145,
          "velocity": 0.7244094488188977
        },
        {
          "duration": 0.09583333333335986,
          "durationTicks": 46,
          "midi": 55,
          "name": "G3",
          "ticks": 69696,
          "time": 145.2,
          "velocity": 0.7244094488188977
        },
        {
          "duration": 0.09583333333333144,
          "durationTicks": 46,
          "midi": 51,
          "name": "D#3",
          "ticks": 69792,
          "time": 145.4,
          "velocity": 0.7244094488188977
        },
        {
          "duration": 0.19583333333335418,
          "durationTicks": 94,
          "midi": 47,
          "name": "B2",
          "ticks": 69888,
          "time": 145.6,
          "velocity": 0.7244094488188977
        },
        {
          "duration": 0.09583333333333144,
          "durationTicks": 46,
          "midi": 43,
          "name": "G2",
          "ticks": 69984,
          "time": 145.8,
          "velocity": 0.7244094488188977
        },
        {
          "duration": 0.04583333333334849,
          "durationTicks": 22,
          "midi": 55,
          "name": "G3",
          "ticks": 70080,
          "time": 146,
          "velocity": 0.7244094488188977
        },
        {
          "duration": 0.04583333333332007,
          "durationTicks": 22,
          "midi": 56,
          "name": "G#3",
          "ticks": 70104,
          "time": 146.05,
          "velocity": 0.7244094488188977
        },
        {
          "duration": 0.04583333333334849,
          "durationTicks": 22,
          "midi": 55,
          "name": "G3",
          "ticks": 70128,
          "time": 146.1,
          "velocity": 0.7244094488188977
        },
        {
          "duration": 0.04583333333332007,
          "durationTicks": 22,
          "midi": 56,
          "name": "G#3",
          "ticks": 70152,
          "time": 146.15,
          "velocity": 0.7244094488188977
        },
        {
          "duration": 0.19583333333335418,
          "durationTicks": 94,
          "midi": 55,
          "name": "G3",
          "ticks": 70176,
          "time": 146.2,
          "velocity": 0.7244094488188977
        },
        {
          "duration": 0.19583333333332575,
          "durationTicks": 94,
          "midi": 48,
          "name": "C3",
          "ticks": 70272,
          "time": 146.4,
          "velocity": 0.7244094488188977
        },
        {
          "duration": 0.09583333333330302,
          "durationTicks": 46,
          "midi": 65,
          "name": "F4",
          "ticks": 79968,
          "time": 166.60000000000002,
          "velocity": 0.7244094488188977
        },
        {
          "duration": 0.09583333333333144,
          "durationTicks": 46,
          "midi": 68,
          "name": "G#4",
          "ticks": 80064,
          "time": 166.8,
          "velocity": 0.7244094488188977
        },
        {
          "duration": 0.09583333333335986,
          "durationTicks": 46,
          "midi": 72,
          "name": "C5",
          "ticks": 80160,
          "time": 167,
          "velocity": 0.7244094488188977
        },
        {
          "duration": 0.30000000000001137,
          "durationTicks": 144,
          "midi": 77,
          "name": "F5",
          "ticks": 80256,
          "time": 167.2,
          "velocity": 0.7244094488188977
        },
        {
          "duration": 0.04583333333334849,
          "durationTicks": 22,
          "midi": 77,
          "name": "F5",
          "ticks": 80400,
          "time": 167.5,
          "velocity": 0.7244094488188977
        },
        {
          "duration": 0.04583333333334849,
          "durationTicks": 22,
          "midi": 79,
          "name": "G5",
          "ticks": 80424,
          "time": 167.55,
          "velocity": 0.7244094488188977
        },
        {
          "duration": 0.39999999999997726,
          "durationTicks": 192,
          "midi": 80,
          "name": "G#5",
          "ticks": 80448,
          "time": 167.60000000000002,
          "velocity": 0.7244094488188977
        },
        {
          "duration": 0.09583333333335986,
          "durationTicks": 46,
          "midi": 79,
          "name": "G5",
          "ticks": 80640,
          "time": 168,
          "velocity": 0.7244094488188977
        },
        {
          "duration": 0.09583333333335986,
          "durationTicks": 46,
          "midi": 77,
          "name": "F5",
          "ticks": 80736,
          "time": 168.2,
          "velocity": 0.7244094488188977
        },
        {
          "duration": 0.19583333333335418,
          "durationTicks": 94,
          "midi": 74,
          "name": "D5",
          "ticks": 80832,
          "time": 168.4,
          "velocity": 0.7244094488188977
        },
        {
          "duration": 0.19583333333332575,
          "durationTicks": 94,
          "midi": 71,
          "name": "B4",
          "ticks": 81024,
          "time": 168.8,
          "velocity": 0.7244094488188977
        },
        {
          "duration": 0.04583333333332007,
          "durationTicks": 22,
          "midi": 72,
          "name": "C5",
          "ticks": 81168,
          "time": 169.10000000000002,
          "velocity": 0.7244094488188977
        },
        {
          "duration": 0.04583333333332007,
          "durationTicks": 22,
          "midi": 74,
          "name": "D5",
          "ticks": 81192,
          "time": 169.15,
          "velocity": 0.7244094488188977
        },
        {
          "duration": 0.19583333333335418,
          "durationTicks": 94,
          "midi": 75,
          "name": "D#5",
          "ticks": 81216,
          "time": 169.2,
          "velocity": 0.7244094488188977
        },
        {
          "duration": 0.19583333333335418,
          "durationTicks": 94,
          "midi": 74,
          "name": "D5",
          "ticks": 81312,
          "time": 169.4,
          "velocity": 0.7244094488188977
        },
        {
          "duration": 0.19583333333332575,
          "durationTicks": 94,
          "midi": 72,
          "name": "C5",
          "ticks": 81408,
          "time": 169.60000000000002,
          "velocity": 0.7244094488188977
        },
        {
          "duration": 0.19583333333332575,
          "durationTicks": 94,
          "midi": 71,
          "name": "B4",
          "ticks": 81504,
          "time": 169.8,
          "velocity": 0.7244094488188977
        },
        {
          "duration": 0.19583333333332575,
          "durationTicks": 94,
          "midi": 72,
          "name": "C5",
          "ticks": 81600,
          "time": 170,
          "velocity": 0.7244094488188977
        },
        {
          "duration": 0.19583333333335418,
          "durationTicks": 94,
          "midi": 74,
          "name": "D5",
          "ticks": 81696,
          "time": 170.2,
          "velocity": 0.7244094488188977
        },
        {
          "duration": 0.19583333333335418,
          "durationTicks": 94,
          "midi": 75,
          "name": "D#5",
          "ticks": 81792,
          "time": 170.4,
          "velocity": 0.7244094488188977
        },
        {
          "duration": 0.19583333333332575,
          "durationTicks": 94,
          "midi": 72,
          "name": "C5",
          "ticks": 81984,
          "time": 170.8,
          "velocity": 0.7244094488188977
        },
        {
          "duration": 0.19583333333335418,
          "durationTicks": 94,
          "midi": 71,
          "name": "B4",
          "ticks": 82176,
          "time": 171.2,
          "velocity": 0.7244094488188977
        },
        {
          "duration": 0.19583333333335418,
          "durationTicks": 94,
          "midi": 72,
          "name": "C5",
          "ticks": 82272,
          "time": 171.4,
          "velocity": 0.7244094488188977
        },
        {
          "duration": 0.19583333333332575,
          "durationTicks": 94,
          "midi": 74,
          "name": "D5",
          "ticks": 82368,
          "time": 171.60000000000002,
          "velocity": 0.7244094488188977
        },
        {
          "duration": 0.19583333333332575,
          "durationTicks": 94,
          "midi": 72,
          "name": "C5",
          "ticks": 82560,
          "time": 172,
          "velocity": 0.7244094488188977
        }
      ],
      "endOfTrackTicks": 82654
    },
    {
      "channel": 11,
      "controlChanges": {
        "7": [
          {
            "number": 7,
            "ticks": 0,
            "time": 0,
            "value": 1
          }
        ],
        "10": [
          {
            "number": 10,
            "ticks": 0,
            "time": 0,
            "value": 0.5039370078740157
          }
        ]
      },
      "pitchBends": [],
      "instrument": {
        "family": "synth lead",
        "number": 81,
        "name": "lead 2 (sawtooth)"
      },
      "name": "Staff-4",
      "notes": [
        {
          "duration": 0.09583333333333233,
          "durationTicks": 46,
          "midi": 60,
          "name": "C4",
          "ticks": 3168,
          "time": 6.6000000000000005,
          "velocity": 0.8661417322834646
        },
        {
          "duration": 0.09583333333333233,
          "durationTicks": 46,
          "midi": 67,
          "name": "G4",
          "ticks": 3264,
          "time": 6.800000000000001,
          "velocity": 0.8661417322834646
        },
        {
          "duration": 0.09583333333333321,
          "durationTicks": 46,
          "midi": 72,
          "name": "C5",
          "ticks": 3360,
          "time": 7,
          "velocity": 0.8661417322834646
        },
        {
          "duration": 0.40000000000000036,
          "durationTicks": 192,
          "midi": 75,
          "name": "D#5",
          "ticks": 3456,
          "time": 7.2,
          "velocity": 0.8661417322834646
        },
        {
          "duration": 0.39999999999999947,
          "durationTicks": 192,
          "midi": 72,
          "name": "C5",
          "ticks": 3648,
          "time": 7.6000000000000005,
          "velocity": 0.8661417322834646
        },
        {
          "duration": 0.09583333333333321,
          "durationTicks": 46,
          "midi": 71,
          "name": "B4",
          "ticks": 3840,
          "time": 8,
          "velocity": 0.8661417322834646
        },
        {
          "duration": 0.09583333333333144,
          "durationTicks": 46,
          "midi": 72,
          "name": "C5",
          "ticks": 3936,
          "time": 8.200000000000001,
          "velocity": 0.8661417322834646
        },
        {
          "duration": 0.40000000000000036,
          "durationTicks": 192,
          "midi": 74,
          "name": "D5",
          "ticks": 4032,
          "time": 8.4,
          "velocity": 0.8661417322834646
        },
        {
          "duration": 0.09583333333333321,
          "durationTicks": 46,
          "midi": 72,
          "name": "C5",
          "ticks": 4224,
          "time": 8.8,
          "velocity": 0.8661417322834646
        },
        {
          "duration": 0.09583333333333321,
          "durationTicks": 46,
          "midi": 67,
          "name": "G4",
          "ticks": 4320,
          "time": 9,
          "velocity": 0.8661417322834646
        },
        {
          "duration": 0.09583333333333144,
          "durationTicks": 46,
          "midi": 63,
          "name": "D#4",
          "ticks": 4416,
          "time": 9.200000000000001,
          "velocity": 0.8661417322834646
        },
        {
          "duration": 0.09583333333333321,
          "durationTicks": 46,
          "midi": 60,
          "name": "C4",
          "ticks": 4512,
          "time": 9.4,
          "velocity": 0.8661417322834646
        },
        {
          "duration": 0.09583333333333144,
          "durationTicks": 46,
          "midi": 62,
          "name": "D4",
          "ticks": 4608,
          "time": 9.600000000000001,
          "velocity": 0.8661417322834646
        },
        {
          "duration": 0.09583333333333321,
          "durationTicks": 46,
          "midi": 63,
          "name": "D#4",
          "ticks": 4704,
          "time": 9.8,
          "velocity": 0.8661417322834646
        },
        {
          "duration": 0.40000000000000036,
          "durationTicks": 192,
          "midi": 66,
          "name": "F#4",
          "ticks": 4800,
          "time": 10,
          "velocity": 0.8661417322834646
        },
        {
          "duration": 0.09583333333333321,
          "durationTicks": 46,
          "midi": 67,
          "name": "G4",
          "ticks": 4992,
          "time": 10.4,
          "velocity": 0.8661417322834646
        },
        {
          "duration": 0.09583333333333144,
          "durationTicks": 46,
          "midi": 63,
          "name": "D#4",
          "ticks": 5088,
          "time": 10.600000000000001,
          "velocity": 0.8661417322834646
        },
        {
          "duration": 0.09583333333333321,
          "durationTicks": 46,
          "midi": 60,
          "name": "C4",
          "ticks": 5184,
          "time": 10.8,
          "velocity": 0.8661417322834646
        },
        {
          "duration": 0.09583333333333321,
          "durationTicks": 46,
          "midi": 55,
          "name": "G3",
          "ticks": 5280,
          "time": 11,
          "velocity": 0.8661417322834646
        },
        {
          "duration": 0.09583333333333321,
          "durationTicks": 46,
          "midi": 59,
          "name": "B3",
          "ticks": 5376,
          "time": 11.200000000000001,
          "velocity": 0.8661417322834646
        },
        {
          "duration": 0.09583333333333321,
          "durationTicks": 46,
          "midi": 60,
          "name": "C4",
          "ticks": 5472,
          "time": 11.4,
          "velocity": 0.8661417322834646
        },
        {
          "duration": 0.3999999999999986,
          "durationTicks": 192,
          "midi": 62,
          "name": "D4",
          "ticks": 5568,
          "time": 11.600000000000001,
          "velocity": 0.8661417322834646
        },
        {
          "duration": 0.09583333333333321,
          "durationTicks": 46,
          "midi": 60,
          "name": "C4",
          "ticks": 5760,
          "time": 12,
          "velocity": 0.8661417322834646
        },
        {
          "duration": 0.09583333333333499,
          "durationTicks": 46,
          "midi": 60,
          "name": "C4",
          "ticks": 6240,
          "time": 13,
          "velocity": 0.8661417322834646
        },
        {
          "duration": 0.09583333333333321,
          "durationTicks": 46,
          "midi": 67,
          "name": "G4",
          "ticks": 6336,
          "time": 13.200000000000001,
          "velocity": 0.8661417322834646
        },
        {
          "duration": 0.09583333333333499,
          "durationTicks": 46,
          "midi": 72,
          "name": "C5",
          "ticks": 6432,
          "time": 13.4,
          "velocity": 0.8661417322834646
        },
        {
          "duration": 0.29999999999999893,
          "durationTicks": 144,
          "midi": 75,
          "name": "D#5",
          "ticks": 6528,
          "time": 13.600000000000001,
          "velocity": 0.8661417322834646
        },
        {
          "duration": 0.04583333333333428,
          "durationTicks": 22,
          "midi": 80,
          "name": "G#5",
          "ticks": 6672,
          "time": 13.9,
          "velocity": 0.8661417322834646
        },
        {
          "duration": 0.04583333333333428,
          "durationTicks": 22,
          "midi": 81,
          "name": "A5",
          "ticks": 6696,
          "time": 13.950000000000001,
          "velocity": 0.8661417322834646
        },
        {
          "duration": 0.40000000000000036,
          "durationTicks": 192,
          "midi": 82,
          "name": "A#5",
          "ticks": 6720,
          "time": 14,
          "velocity": 0.8661417322834646
        },
        {
          "duration": 0.09583333333333499,
          "durationTicks": 46,
          "midi": 81,
          "name": "A5",
          "ticks": 6912,
          "time": 14.4,
          "velocity": 0.8661417322834646
        },
        {
          "duration": 0.09583333333333321,
          "durationTicks": 46,
          "midi": 79,
          "name": "G5",
          "ticks": 7008,
          "time": 14.600000000000001,
          "velocity": 0.8661417322834646
        },
        {
          "duration": 0.40000000000000036,
          "durationTicks": 192,
          "midi": 81,
          "name": "A5",
          "ticks": 7104,
          "time": 14.8,
          "velocity": 0.8661417322834646
        },
        {
          "duration": 0.09583333333333321,
          "durationTicks": 46,
          "midi": 82,
          "name": "A#5",
          "ticks": 7296,
          "time": 15.200000000000001,
          "velocity": 0.8661417322834646
        },
        {
          "duration": 0.09583333333333499,
          "durationTicks": 46,
          "midi": 79,
          "name": "G5",
          "ticks": 7392,
          "time": 15.4,
          "velocity": 0.8661417322834646
        },
        {
          "duration": 0.09583333333333321,
          "durationTicks": 46,
          "midi": 75,
          "name": "D#5",
          "ticks": 7488,
          "time": 15.600000000000001,
          "velocity": 0.8661417322834646
        },
        {
          "duration": 0.09583333333333499,
          "durationTicks": 46,
          "midi": 72,
          "name": "C5",
          "ticks": 7584,
          "time": 15.8,
          "velocity": 0.8661417322834646
        },
        {
          "duration": 0.09583333333333499,
          "durationTicks": 46,
          "midi": 71,
          "name": "B4",
          "ticks": 7680,
          "time": 16,
          "velocity": 0.8661417322834646
        },
        {
          "duration": 0.09583333333333499,
          "durationTicks": 46,
          "midi": 72,
          "name": "C5",
          "ticks": 7776,
          "time": 16.2,
          "velocity": 0.8661417322834646
        },
        {
          "duration": 0.3999999999999986,
          "durationTicks": 192,
          "midi": 74,
          "name": "D5",
          "ticks": 7872,
          "time": 16.400000000000002,
          "velocity": 0.8661417322834646
        },
        {
          "duration": 0.09583333333333499,
          "durationTicks": 46,
          "midi": 75,
          "name": "D#5",
          "ticks": 8064,
          "time": 16.8,
          "velocity": 0.8661417322834646
        },
        {
          "duration": 0.09583333333333499,
          "durationTicks": 46,
          "midi": 72,
          "name": "C5",
          "ticks": 8160,
          "time": 17,
          "velocity": 0.8661417322834646
        },
        {
          "duration": 0.09583333333333499,
          "durationTicks": 46,
          "midi": 67,
          "name": "G4",
          "ticks": 8256,
          "time": 17.2,
          "velocity": 0.8661417322834646
        },
        {
          "duration": 0.09583333333333144,
          "durationTicks": 46,
          "midi": 63,
          "name": "D#4",
          "ticks": 8352,
          "time": 17.400000000000002,
          "velocity": 0.8661417322834646
        },
        {
          "duration": 0.19583333333333286,
          "durationTicks": 94,
          "midi": 71,
          "name": "B4",
          "ticks": 8448,
          "time": 17.6,
          "velocity": 0.8661417322834646
        },
        {
          "duration": 0.09583333333333499,
          "durationTicks": 46,
          "midi": 69,
          "name": "A4",
          "ticks": 8544,
          "time": 17.8,
          "velocity": 0.8661417322834646
        },
        {
          "duration": 0.04583333333333428,
          "durationTicks": 22,
          "midi": 71,
          "name": "B4",
          "ticks": 8640,
          "time": 18,
          "velocity": 0.8661417322834646
        },
        {
          "duration": 0.04583333333333428,
          "durationTicks": 22,
          "midi": 72,
          "name": "C5",
          "ticks": 8664,
          "time": 18.05,
          "velocity": 0.8661417322834646
        },
        {
          "duration": 0.04583333333333428,
          "durationTicks": 22,
          "midi": 71,
          "name": "B4",
          "ticks": 8688,
          "time": 18.1,
          "velocity": 0.8661417322834646
        },
        {
          "duration": 0.04583333333333428,
          "durationTicks": 22,
          "midi": 72,
          "name": "C5",
          "ticks": 8712,
          "time": 18.150000000000002,
          "velocity": 0.8661417322834646
        },
        {
          "duration": 0.1958333333333364,
          "durationTicks": 94,
          "midi": 71,
          "name": "B4",
          "ticks": 8736,
          "time": 18.2,
          "velocity": 0.8661417322834646
        },
        {
          "duration": 0.19583333333333286,
          "durationTicks": 94,
          "midi": 72,
          "name": "C5",
          "ticks": 8832,
          "time": 18.400000000000002,
          "velocity": 0.8661417322834646
        },
        {
          "duration": 0.09583333333333499,
          "durationTicks": 46,
          "midi": 60,
          "name": "C4",
          "ticks": 9312,
          "time": 19.400000000000002,
          "velocity": 0.8661417322834646
        },
        {
          "duration": 0.09583333333333499,
          "durationTicks": 46,
          "midi": 67,
          "name": "G4",
          "ticks": 9408,
          "time": 19.6,
          "velocity": 0.8661417322834646
        },
        {
          "duration": 0.09583333333333499,
          "durationTicks": 46,
          "midi": 72,
          "name": "C5",
          "ticks": 9504,
          "time": 19.8,
          "velocity": 0.8661417322834646
        },
        {
          "duration": 0.40000000000000213,
          "durationTicks": 192,
          "midi": 75,
          "name": "D#5",
          "ticks": 9600,
          "time": 20,
          "velocity": 0.8661417322834646
        },
        {
          "duration": 0.3999999999999986,
          "durationTicks": 192,
          "midi": 72,
          "name": "C5",
          "ticks": 9792,
          "time": 20.400000000000002,
          "velocity": 0.8661417322834646
        },
        {
          "duration": 0.09583333333333499,
          "durationTicks": 46,
          "midi": 71,
          "name": "B4",
          "ticks": 9984,
          "time": 20.8,
          "velocity": 0.8661417322834646
        },
        {
          "duration": 0.09583333333333499,
          "durationTicks": 46,
          "midi": 72,
          "name": "C5",
          "ticks": 10080,
          "time": 21,
          "velocity": 0.8661417322834646
        },
        {
          "duration": 0.3999999999999986,
          "durationTicks": 192,
          "midi": 74,
          "name": "D5",
          "ticks": 10176,
          "time": 21.200000000000003,
          "velocity": 0.8661417322834646
        },
        {
          "duration": 0.09583333333333499,
          "durationTicks": 46,
          "midi": 72,
          "name": "C5",
          "ticks": 10368,
          "time": 21.6,
          "velocity": 0.8661417322834646
        },
        {
          "duration": 0.09583333333333499,
          "durationTicks": 46,
          "midi": 67,
          "name": "G4",
          "ticks": 10464,
          "time": 21.8,
          "velocity": 0.8661417322834646
        },
        {
          "duration": 0.09583333333333499,
          "durationTicks": 46,
          "midi": 63,
          "name": "D#4",
          "ticks": 10560,
          "time": 22,
          "velocity": 0.8661417322834646
        },
        {
          "duration": 0.09583333333333144,
          "durationTicks": 46,
          "midi": 60,
          "name": "C4",
          "ticks": 10656,
          "time": 22.200000000000003,
          "velocity": 0.8661417322834646
        },
        {
          "duration": 0.09583333333333499,
          "durationTicks": 46,
          "midi": 62,
          "name": "D4",
          "ticks": 10752,
          "time": 22.400000000000002,
          "velocity": 0.8661417322834646
        },
        {
          "duration": 0.09583333333333499,
          "durationTicks": 46,
          "midi": 63,
          "name": "D#4",
          "ticks": 10848,
          "time": 22.6,
          "velocity": 0.8661417322834646
        },
        {
          "duration": 0.40000000000000213,
          "durationTicks": 192,
          "midi": 66,
          "name": "F#4",
          "ticks": 10944,
          "time": 22.8,
          "velocity": 0.8661417322834646
        },
        {
          "duration": 0.09583333333333144,
          "durationTicks": 46,
          "midi": 67,
          "name": "G4",
          "ticks": 11136,
          "time": 23.200000000000003,
          "velocity": 0.8661417322834646
        },
        {
          "duration": 0.09583333333333499,
          "durationTicks": 46,
          "midi": 63,
          "name": "D#4",
          "ticks": 11232,
          "time": 23.400000000000002,
          "velocity": 0.8661417322834646
        },
        {
          "duration": 0.09583333333333499,
          "durationTicks": 46,
          "midi": 60,
          "name": "C4",
          "ticks": 11328,
          "time": 23.6,
          "velocity": 0.8661417322834646
        },
        {
          "duration": 0.09583333333333499,
          "durationTicks": 46,
          "midi": 55,
          "name": "G3",
          "ticks": 11424,
          "time": 23.8,
          "velocity": 0.8661417322834646
        },
        {
          "duration": 0.09583333333333499,
          "durationTicks": 46,
          "midi": 62,
          "name": "D4",
          "ticks": 11520,
          "time": 24,
          "velocity": 0.8661417322834646
        },
        {
          "duration": 0.09583333333333144,
          "durationTicks": 46,
          "midi": 60,
          "name": "C4",
          "ticks": 11616,
          "time": 24.200000000000003,
          "velocity": 0.8661417322834646
        },
        {
          "duration": 0.3999999999999986,
          "durationTicks": 192,
          "midi": 62,
          "name": "D4",
          "ticks": 11712,
          "time": 24.400000000000002,
          "velocity": 0.8661417322834646
        },
        {
          "duration": 0.09583333333333499,
          "durationTicks": 46,
          "midi": 60,
          "name": "C4",
          "ticks": 11904,
          "time": 24.8,
          "velocity": 0.8661417322834646
        },
        {
          "duration": 0.09583333333333144,
          "durationTicks": 46,
          "midi": 60,
          "name": "C4",
          "ticks": 12384,
          "time": 25.8,
          "velocity": 0.8661417322834646
        },
        {
          "duration": 0.09583333333333144,
          "durationTicks": 46,
          "midi": 67,
          "name": "G4",
          "ticks": 12480,
          "time": 26,
          "velocity": 0.8661417322834646
        },
        {
          "duration": 0.09583333333333144,
          "durationTicks": 46,
          "midi": 72,
          "name": "C5",
          "ticks": 12576,
          "time": 26.200000000000003,
          "velocity": 0.8661417322834646
        },
        {
          "duration": 0.3000000000000007,
          "durationTicks": 144,
          "midi": 75,
          "name": "D#5",
          "ticks": 12672,
          "time": 26.400000000000002,
          "velocity": 0.8661417322834646
        },
        {
          "duration": 0.04583333333333073,
          "durationTicks": 22,
          "midi": 80,
          "name": "G#5",
          "ticks": 12816,
          "time": 26.700000000000003,
          "velocity": 0.8661417322834646
        },
        {
          "duration": 0.04583333333333428,
          "durationTicks": 22,
          "midi": 81,
          "name": "A5",
          "ticks": 12840,
          "time": 26.75,
          "velocity": 0.8661417322834646
        },
        {
          "duration": 0.40000000000000213,
          "durationTicks": 192,
          "midi": 82,
          "name": "A#5",
          "ticks": 12864,
          "time": 26.8,
          "velocity": 0.8661417322834646
        },
        {
          "duration": 0.09583333333333144,
          "durationTicks": 46,
          "midi": 81,
          "name": "A5",
          "ticks": 13056,
          "time": 27.200000000000003,
          "velocity": 0.8661417322834646
        },
        {
          "duration": 0.09583333333333144,
          "durationTicks": 46,
          "midi": 79,
          "name": "G5",
          "ticks": 13152,
          "time": 27.400000000000002,
          "velocity": 0.8661417322834646
        },
        {
          "duration": 0.3999999999999986,
          "durationTicks": 192,
          "midi": 81,
          "name": "A5",
          "ticks": 13248,
          "time": 27.6,
          "velocity": 0.8661417322834646
        },
        {
          "duration": 0.09583333333333144,
          "durationTicks": 46,
          "midi": 82,
          "name": "A#5",
          "ticks": 13440,
          "time": 28,
          "velocity": 0.8661417322834646
        },
        {
          "duration": 0.09583333333333144,
          "durationTicks": 46,
          "midi": 79,
          "name": "G5",
          "ticks": 13536,
          "time": 28.200000000000003,
          "velocity": 0.8661417322834646
        },
        {
          "duration": 0.09583333333333144,
          "durationTicks": 46,
          "midi": 75,
          "name": "D#5",
          "ticks": 13632,
          "time": 28.400000000000002,
          "velocity": 0.8661417322834646
        },
        {
          "duration": 0.09583333333333144,
          "durationTicks": 46,
          "midi": 72,
          "name": "C5",
          "ticks": 13728,
          "time": 28.6,
          "velocity": 0.8661417322834646
        },
        {
          "duration": 0.09583333333333144,
          "durationTicks": 46,
          "midi": 71,
          "name": "B4",
          "ticks": 13824,
          "time": 28.8,
          "velocity": 0.8661417322834646
        },
        {
          "duration": 0.09583333333333144,
          "durationTicks": 46,
          "midi": 72,
          "name": "C5",
          "ticks": 13920,
          "time": 29,
          "velocity": 0.8661417322834646
        },
        {
          "duration": 0.3999999999999986,
          "durationTicks": 192,
          "midi": 74,
          "name": "D5",
          "ticks": 14016,
          "time": 29.200000000000003,
          "velocity": 0.8661417322834646
        },
        {
          "duration": 0.09583333333333144,
          "durationTicks": 46,
          "midi": 75,
          "name": "D#5",
          "ticks": 14208,
          "time": 29.6,
          "velocity": 0.8661417322834646
        },
        {
          "duration": 0.09583333333333144,
          "durationTicks": 46,
          "midi": 72,
          "name": "C5",
          "ticks": 14304,
          "time": 29.8,
          "velocity": 0.8661417322834646
        },
        {
          "duration": 0.09583333333333144,
          "durationTicks": 46,
          "midi": 67,
          "name": "G4",
          "ticks": 14400,
          "time": 30,
          "velocity": 0.8661417322834646
        },
        {
          "duration": 0.09583333333333144,
          "durationTicks": 46,
          "midi": 63,
          "name": "D#4",
          "ticks": 14496,
          "time": 30.200000000000003,
          "velocity": 0.8661417322834646
        },
        {
          "duration": 0.1958333333333293,
          "durationTicks": 94,
          "midi": 71,
          "name": "B4",
          "ticks": 14592,
          "time": 30.400000000000002,
          "velocity": 0.8661417322834646
        },
        {
          "duration": 0.09583333333333144,
          "durationTicks": 46,
          "midi": 69,
          "name": "A4",
          "ticks": 14688,
          "time": 30.6,
          "velocity": 0.8661417322834646
        },
        {
          "duration": 0.04583333333333073,
          "durationTicks": 22,
          "midi": 71,
          "name": "B4",
          "ticks": 14784,
          "time": 30.8,
          "velocity": 0.8661417322834646
        },
        {
          "duration": 0.04583333333333073,
          "durationTicks": 22,
          "midi": 72,
          "name": "C5",
          "ticks": 14808,
          "time": 30.85,
          "velocity": 0.8661417322834646
        },
        {
          "duration": 0.04583333333333073,
          "durationTicks": 22,
          "midi": 71,
          "name": "B4",
          "ticks": 14832,
          "time": 30.900000000000002,
          "velocity": 0.8661417322834646
        },
        {
          "duration": 0.04583333333333073,
          "durationTicks": 22,
          "midi": 72,
          "name": "C5",
          "ticks": 14856,
          "time": 30.950000000000003,
          "velocity": 0.8661417322834646
        },
        {
          "duration": 0.19583333333333286,
          "durationTicks": 94,
          "midi": 71,
          "name": "B4",
          "ticks": 14880,
          "time": 31,
          "velocity": 0.8661417322834646
        },
        {
          "duration": 0.1958333333333293,
          "durationTicks": 94,
          "midi": 72,
          "name": "C5",
          "ticks": 14976,
          "time": 31.200000000000003,
          "velocity": 0.8661417322834646
        },
        {
          "duration": 0.09583333333333144,
          "durationTicks": 46,
          "midi": 60,
          "name": "C4",
          "ticks": 30816,
          "time": 64.2,
          "velocity": 0.8661417322834646
        },
        {
          "duration": 0.09583333333333144,
          "durationTicks": 46,
          "midi": 67,
          "name": "G4",
          "ticks": 30912,
          "time": 64.4,
          "velocity": 0.8661417322834646
        },
        {
          "duration": 0.09583333333334565,
          "durationTicks": 46,
          "midi": 72,
          "name": "C5",
          "ticks": 31008,
          "time": 64.6,
          "velocity": 0.8661417322834646
        },
        {
          "duration": 0.4000000000000057,
          "durationTicks": 192,
          "midi": 75,
          "name": "D#5",
          "ticks": 31104,
          "time": 64.8,
          "velocity": 0.8661417322834646
        },
        {
          "duration": 0.3999999999999915,
          "durationTicks": 192,
          "midi": 72,
          "name": "C5",
          "ticks": 31296,
          "time": 65.2,
          "velocity": 0.8661417322834646
        },
        {
          "duration": 0.09583333333334565,
          "durationTicks": 46,
          "midi": 71,
          "name": "B4",
          "ticks": 31488,
          "time": 65.6,
          "velocity": 0.8661417322834646
        },
        {
          "duration": 0.09583333333333144,
          "durationTicks": 46,
          "midi": 72,
          "name": "C5",
          "ticks": 31584,
          "time": 65.8,
          "velocity": 0.8661417322834646
        },
        {
          "duration": 0.4000000000000057,
          "durationTicks": 192,
          "midi": 74,
          "name": "D5",
          "ticks": 31680,
          "time": 66,
          "velocity": 0.8661417322834646
        },
        {
          "duration": 0.09583333333333144,
          "durationTicks": 46,
          "midi": 72,
          "name": "C5",
          "ticks": 31872,
          "time": 66.4,
          "velocity": 0.8661417322834646
        },
        {
          "duration": 0.09583333333334565,
          "durationTicks": 46,
          "midi": 67,
          "name": "G4",
          "ticks": 31968,
          "time": 66.6,
          "velocity": 0.8661417322834646
        },
        {
          "duration": 0.09583333333333144,
          "durationTicks": 46,
          "midi": 63,
          "name": "D#4",
          "ticks": 32064,
          "time": 66.8,
          "velocity": 0.8661417322834646
        },
        {
          "duration": 0.09583333333333144,
          "durationTicks": 46,
          "midi": 60,
          "name": "C4",
          "ticks": 32160,
          "time": 67,
          "velocity": 0.8661417322834646
        },
        {
          "duration": 0.09583333333333144,
          "durationTicks": 46,
          "midi": 62,
          "name": "D4",
          "ticks": 32256,
          "time": 67.2,
          "velocity": 0.8661417322834646
        },
        {
          "duration": 0.09583333333333144,
          "durationTicks": 46,
          "midi": 63,
          "name": "D#4",
          "ticks": 32352,
          "time": 67.4,
          "velocity": 0.8661417322834646
        },
        {
          "duration": 0.4000000000000057,
          "durationTicks": 192,
          "midi": 66,
          "name": "F#4",
          "ticks": 32448,
          "time": 67.6,
          "velocity": 0.8661417322834646
        },
        {
          "duration": 0.09583333333333144,
          "durationTicks": 46,
          "midi": 67,
          "name": "G4",
          "ticks": 32640,
          "time": 68,
          "velocity": 0.8661417322834646
        },
        {
          "duration": 0.09583333333333144,
          "durationTicks": 46,
          "midi": 63,
          "name": "D#4",
          "ticks": 32736,
          "time": 68.2,
          "velocity": 0.8661417322834646
        },
        {
          "duration": 0.09583333333333144,
          "durationTicks": 46,
          "midi": 60,
          "name": "C4",
          "ticks": 32832,
          "time": 68.4,
          "velocity": 0.8661417322834646
        },
        {
          "duration": 0.09583333333334565,
          "durationTicks": 46,
          "midi": 55,
          "name": "G3",
          "ticks": 32928,
          "time": 68.6,
          "velocity": 0.8661417322834646
        },
        {
          "duration": 0.09583333333334565,
          "durationTicks": 46,
          "midi": 59,
          "name": "B3",
          "ticks": 33024,
          "time": 68.8,
          "velocity": 0.8661417322834646
        },
        {
          "duration": 0.09583333333333144,
          "durationTicks": 46,
          "midi": 60,
          "name": "C4",
          "ticks": 33120,
          "time": 69,
          "velocity": 0.8661417322834646
        },
        {
          "duration": 0.3999999999999915,
          "durationTicks": 192,
          "midi": 62,
          "name": "D4",
          "ticks": 33216,
          "time": 69.2,
          "velocity": 0.8661417322834646
        },
        {
          "duration": 0.09583333333334565,
          "durationTicks": 46,
          "midi": 60,
          "name": "C4",
          "ticks": 33408,
          "time": 69.6,
          "velocity": 0.8661417322834646
        },
        {
          "duration": 0.09583333333334565,
          "durationTicks": 46,
          "midi": 60,
          "name": "C4",
          "ticks": 33888,
          "time": 70.6,
          "velocity": 0.8661417322834646
        },
        {
          "duration": 0.09583333333334565,
          "durationTicks": 46,
          "midi": 67,
          "name": "G4",
          "ticks": 33984,
          "time": 70.8,
          "velocity": 0.8661417322834646
        },
        {
          "duration": 0.09583333333333144,
          "durationTicks": 46,
          "midi": 72,
          "name": "C5",
          "ticks": 34080,
          "time": 71,
          "velocity": 0.8661417322834646
        },
        {
          "duration": 0.29999999999999716,
          "durationTicks": 144,
          "midi": 75,
          "name": "D#5",
          "ticks": 34176,
          "time": 71.2,
          "velocity": 0.8661417322834646
        },
        {
          "duration": 0.04583333333333428,
          "durationTicks": 22,
          "midi": 80,
          "name": "G#5",
          "ticks": 34320,
          "time": 71.5,
          "velocity": 0.8661417322834646
        },
        {
          "duration": 0.04583333333333428,
          "durationTicks": 22,
          "midi": 81,
          "name": "A5",
          "ticks": 34344,
          "time": 71.55,
          "velocity": 0.8661417322834646
        },
        {
          "duration": 0.4000000000000057,
          "durationTicks": 192,
          "midi": 82,
          "name": "A#5",
          "ticks": 34368,
          "time": 71.6,
          "velocity": 0.8661417322834646
        },
        {
          "duration": 0.09583333333333144,
          "durationTicks": 46,
          "midi": 81,
          "name": "A5",
          "ticks": 34560,
          "time": 72,
          "velocity": 0.8661417322834646
        },
        {
          "duration": 0.09583333333333144,
          "durationTicks": 46,
          "midi": 79,
          "name": "G5",
          "ticks": 34656,
          "time": 72.2,
          "velocity": 0.8661417322834646
        },
        {
          "duration": 0.3999999999999915,
          "durationTicks": 192,
          "midi": 81,
          "name": "A5",
          "ticks": 34752,
          "time": 72.4,
          "velocity": 0.8661417322834646
        },
        {
          "duration": 0.09583333333334565,
          "durationTicks": 46,
          "midi": 82,
          "name": "A#5",
          "ticks": 34944,
          "time": 72.8,
          "velocity": 0.8661417322834646
        },
        {
          "duration": 0.09583333333333144,
          "durationTicks": 46,
          "midi": 79,
          "name": "G5",
          "ticks": 35040,
          "time": 73,
          "velocity": 0.8661417322834646
        },
        {
          "duration": 0.09583333333333144,
          "durationTicks": 46,
          "midi": 75,
          "name": "D#5",
          "ticks": 35136,
          "time": 73.2,
          "velocity": 0.8661417322834646
        },
        {
          "duration": 0.09583333333333144,
          "durationTicks": 46,
          "midi": 72,
          "name": "C5",
          "ticks": 35232,
          "time": 73.4,
          "velocity": 0.8661417322834646
        },
        {
          "duration": 0.09583333333334565,
          "durationTicks": 46,
          "midi": 71,
          "name": "B4",
          "ticks": 35328,
          "time": 73.6,
          "velocity": 0.8661417322834646
        },
        {
          "duration": 0.09583333333334565,
          "durationTicks": 46,
          "midi": 72,
          "name": "C5",
          "ticks": 35424,
          "time": 73.8,
          "velocity": 0.8661417322834646
        },
        {
          "duration": 0.4000000000000057,
          "durationTicks": 192,
          "midi": 74,
          "name": "D5",
          "ticks": 35520,
          "time": 74,
          "velocity": 0.8661417322834646
        },
        {
          "duration": 0.09583333333333144,
          "durationTicks": 46,
          "midi": 75,
          "name": "D#5",
          "ticks": 35712,
          "time": 74.4,
          "velocity": 0.8661417322834646
        },
        {
          "duration": 0.09583333333334565,
          "durationTicks": 46,
          "midi": 72,
          "name": "C5",
          "ticks": 35808,
          "time": 74.6,
          "velocity": 0.8661417322834646
        },
        {
          "duration": 0.09583333333334565,
          "durationTicks": 46,
          "midi": 67,
          "name": "G4",
          "ticks": 35904,
          "time": 74.8,
          "velocity": 0.8661417322834646
        },
        {
          "duration": 0.09583333333333144,
          "durationTicks": 46,
          "midi": 63,
          "name": "D#4",
          "ticks": 36000,
          "time": 75,
          "velocity": 0.8661417322834646
        },
        {
          "duration": 0.19583333333333997,
          "durationTicks": 94,
          "midi": 71,
          "name": "B4",
          "ticks": 36096,
          "time": 75.2,
          "velocity": 0.8661417322834646
        },
        {
          "duration": 0.09583333333333144,
          "durationTicks": 46,
          "midi": 69,
          "name": "A4",
          "ticks": 36192,
          "time": 75.4,
          "velocity": 0.8661417322834646
        },
        {
          "duration": 0.04583333333334849,
          "durationTicks": 22,
          "midi": 71,
          "name": "B4",
          "ticks": 36288,
          "time": 75.6,
          "velocity": 0.8661417322834646
        },
        {
          "duration": 0.04583333333333428,
          "durationTicks": 22,
          "midi": 72,
          "name": "C5",
          "ticks": 36312,
          "time": 75.65,
          "velocity": 0.8661417322834646
        },
        {
          "duration": 0.04583333333333428,
          "durationTicks": 22,
          "midi": 71,
          "name": "B4",
          "ticks": 36336,
          "time": 75.7,
          "velocity": 0.8661417322834646
        },
        {
          "duration": 0.04583333333333428,
          "durationTicks": 22,
          "midi": 72,
          "name": "C5",
          "ticks": 36360,
          "time": 75.75,
          "velocity": 0.8661417322834646
        },
        {
          "duration": 0.19583333333333997,
          "durationTicks": 94,
          "midi": 71,
          "name": "B4",
          "ticks": 36384,
          "time": 75.8,
          "velocity": 0.8661417322834646
        },
        {
          "duration": 0.19583333333333997,
          "durationTicks": 94,
          "midi": 72,
          "name": "C5",
          "ticks": 36480,
          "time": 76,
          "velocity": 0.8661417322834646
        },
        {
          "duration": 0.09583333333333144,
          "durationTicks": 46,
          "midi": 60,
          "name": "C4",
          "ticks": 36960,
          "time": 77,
          "velocity": 0.8661417322834646
        },
        {
          "duration": 0.09583333333333144,
          "durationTicks": 46,
          "midi": 67,
          "name": "G4",
          "ticks": 37056,
          "time": 77.2,
          "velocity": 0.8661417322834646
        },
        {
          "duration": 0.09583333333333144,
          "durationTicks": 46,
          "midi": 72,
          "name": "C5",
          "ticks": 37152,
          "time": 77.4,
          "velocity": 0.8661417322834646
        },
        {
          "duration": 0.4000000000000057,
          "durationTicks": 192,
          "midi": 75,
          "name": "D#5",
          "ticks": 37248,
          "time": 77.6,
          "velocity": 0.8661417322834646
        },
        {
          "duration": 0.4000000000000057,
          "durationTicks": 192,
          "midi": 72,
          "name": "C5",
          "ticks": 37440,
          "time": 78,
          "velocity": 0.8661417322834646
        },
        {
          "duration": 0.09583333333333144,
          "durationTicks": 46,
          "midi": 71,
          "name": "B4",
          "ticks": 37632,
          "time": 78.4,
          "velocity": 0.8661417322834646
        },
        {
          "duration": 0.09583333333334565,
          "durationTicks": 46,
          "midi": 72,
          "name": "C5",
          "ticks": 37728,
          "time": 78.6,
          "velocity": 0.8661417322834646
        },
        {
          "duration": 0.3999999999999915,
          "durationTicks": 192,
          "midi": 74,
          "name": "D5",
          "ticks": 37824,
          "time": 78.80000000000001,
          "velocity": 0.8661417322834646
        },
        {
          "duration": 0.09583333333333144,
          "durationTicks": 46,
          "midi": 72,
          "name": "C5",
          "ticks": 38016,
          "time": 79.2,
          "velocity": 0.8661417322834646
        },
        {
          "duration": 0.09583333333333144,
          "durationTicks": 46,
          "midi": 67,
          "name": "G4",
          "ticks": 38112,
          "time": 79.4,
          "velocity": 0.8661417322834646
        },
        {
          "duration": 0.09583333333334565,
          "durationTicks": 46,
          "midi": 63,
          "name": "D#4",
          "ticks": 38208,
          "time": 79.6,
          "velocity": 0.8661417322834646
        },
        {
          "duration": 0.09583333333333144,
          "durationTicks": 46,
          "midi": 60,
          "name": "C4",
          "ticks": 38304,
          "time": 79.80000000000001,
          "velocity": 0.8661417322834646
        },
        {
          "duration": 0.09583333333333144,
          "durationTicks": 46,
          "midi": 62,
          "name": "D4",
          "ticks": 38400,
          "time": 80,
          "velocity": 0.8661417322834646
        },
        {
          "duration": 0.09583333333333144,
          "durationTicks": 46,
          "midi": 63,
          "name": "D#4",
          "ticks": 38496,
          "time": 80.2,
          "velocity": 0.8661417322834646
        },
        {
          "duration": 0.4000000000000057,
          "durationTicks": 192,
          "midi": 66,
          "name": "F#4",
          "ticks": 38592,
          "time": 80.4,
          "velocity": 0.8661417322834646
        },
        {
          "duration": 0.09583333333333144,
          "durationTicks": 46,
          "midi": 67,
          "name": "G4",
          "ticks": 38784,
          "time": 80.80000000000001,
          "velocity": 0.8661417322834646
        },
        {
          "duration": 0.09583333333333144,
          "durationTicks": 46,
          "midi": 63,
          "name": "D#4",
          "ticks": 38880,
          "time": 81,
          "velocity": 0.8661417322834646
        },
        {
          "duration": 0.09583333333333144,
          "durationTicks": 46,
          "midi": 60,
          "name": "C4",
          "ticks": 38976,
          "time": 81.2,
          "velocity": 0.8661417322834646
        },
        {
          "duration": 0.09583333333333144,
          "durationTicks": 46,
          "midi": 55,
          "name": "G3",
          "ticks": 39072,
          "time": 81.4,
          "velocity": 0.8661417322834646
        },
        {
          "duration": 0.09583333333334565,
          "durationTicks": 46,
          "midi": 62,
          "name": "D4",
          "ticks": 39168,
          "time": 81.6,
          "velocity": 0.8661417322834646
        },
        {
          "duration": 0.09583333333333144,
          "durationTicks": 46,
          "midi": 60,
          "name": "C4",
          "ticks": 39264,
          "time": 81.80000000000001,
          "velocity": 0.8661417322834646
        },
        {
          "duration": 0.4000000000000057,
          "durationTicks": 192,
          "midi": 62,
          "name": "D4",
          "ticks": 39360,
          "time": 82,
          "velocity": 0.8661417322834646
        },
        {
          "duration": 0.09583333333333144,
          "durationTicks": 46,
          "midi": 60,
          "name": "C4",
          "ticks": 39552,
          "time": 82.4,
          "velocity": 0.8661417322834646
        },
        {
          "duration": 0.09583333333333144,
          "durationTicks": 46,
          "midi": 60,
          "name": "C4",
          "ticks": 40032,
          "time": 83.4,
          "velocity": 0.8661417322834646
        },
        {
          "duration": 0.09583333333333144,
          "durationTicks": 46,
          "midi": 67,
          "name": "G4",
          "ticks": 40128,
          "time": 83.6,
          "velocity": 0.8661417322834646
        },
        {
          "duration": 0.09583333333333144,
          "durationTicks": 46,
          "midi": 72,
          "name": "C5",
          "ticks": 40224,
          "time": 83.80000000000001,
          "velocity": 0.8661417322834646
        },
        {
          "duration": 0.30000000000001137,
          "durationTicks": 144,
          "midi": 75,
          "name": "D#5",
          "ticks": 40320,
          "time": 84,
          "velocity": 0.8661417322834646
        },
        {
          "duration": 0.04583333333332007,
          "durationTicks": 22,
          "midi": 80,
          "name": "G#5",
          "ticks": 40464,
          "time": 84.30000000000001,
          "velocity": 0.8661417322834646
        },
        {
          "duration": 0.04583333333334849,
          "durationTicks": 22,
          "midi": 81,
          "name": "A5",
          "ticks": 40488,
          "time": 84.35,
          "velocity": 0.8661417322834646
        },
        {
          "duration": 0.4000000000000057,
          "durationTicks": 192,
          "midi": 82,
          "name": "A#5",
          "ticks": 40512,
          "time": 84.4,
          "velocity": 0.8661417322834646
        },
        {
          "duration": 0.09583333333333144,
          "durationTicks": 46,
          "midi": 81,
          "name": "A5",
          "ticks": 40704,
          "time": 84.80000000000001,
          "velocity": 0.8661417322834646
        },
        {
          "duration": 0.09583333333333144,
          "durationTicks": 46,
          "midi": 79,
          "name": "G5",
          "ticks": 40800,
          "time": 85,
          "velocity": 0.8661417322834646
        },
        {
          "duration": 0.3999999999999915,
          "durationTicks": 192,
          "midi": 81,
          "name": "A5",
          "ticks": 40896,
          "time": 85.2,
          "velocity": 0.8661417322834646
        },
        {
          "duration": 0.09583333333333144,
          "durationTicks": 46,
          "midi": 82,
          "name": "A#5",
          "ticks": 41088,
          "time": 85.6,
          "velocity": 0.8661417322834646
        },
        {
          "duration": 0.09583333333333144,
          "durationTicks": 46,
          "midi": 79,
          "name": "G5",
          "ticks": 41184,
          "time": 85.80000000000001,
          "velocity": 0.8661417322834646
        },
        {
          "duration": 0.09583333333333144,
          "durationTicks": 46,
          "midi": 75,
          "name": "D#5",
          "ticks": 41280,
          "time": 86,
          "velocity": 0.8661417322834646
        },
        {
          "duration": 0.09583333333333144,
          "durationTicks": 46,
          "midi": 72,
          "name": "C5",
          "ticks": 41376,
          "time": 86.2,
          "velocity": 0.8661417322834646
        },
        {
          "duration": 0.09583333333333144,
          "durationTicks": 46,
          "midi": 71,
          "name": "B4",
          "ticks": 41472,
          "time": 86.4,
          "velocity": 0.8661417322834646
        },
        {
          "duration": 0.09583333333333144,
          "durationTicks": 46,
          "midi": 72,
          "name": "C5",
          "ticks": 41568,
          "time": 86.6,
          "velocity": 0.8661417322834646
        },
        {
          "duration": 0.3999999999999915,
          "durationTicks": 192,
          "midi": 74,
          "name": "D5",
          "ticks": 41664,
          "time": 86.80000000000001,
          "velocity": 0.8661417322834646
        },
        {
          "duration": 0.09583333333333144,
          "durationTicks": 46,
          "midi": 75,
          "name": "D#5",
          "ticks": 41856,
          "time": 87.2,
          "velocity": 0.8661417322834646
        },
        {
          "duration": 0.09583333333333144,
          "durationTicks": 46,
          "midi": 72,
          "name": "C5",
          "ticks": 41952,
          "time": 87.4,
          "velocity": 0.8661417322834646
        },
        {
          "duration": 0.09583333333333144,
          "durationTicks": 46,
          "midi": 67,
          "name": "G4",
          "ticks": 42048,
          "time": 87.6,
          "velocity": 0.8661417322834646
        },
        {
          "duration": 0.09583333333333144,
          "durationTicks": 46,
          "midi": 63,
          "name": "D#4",
          "ticks": 42144,
          "time": 87.80000000000001,
          "velocity": 0.8661417322834646
        },
        {
          "duration": 0.19583333333332575,
          "durationTicks": 94,
          "midi": 71,
          "name": "B4",
          "ticks": 42240,
          "time": 88,
          "velocity": 0.8661417322834646
        },
        {
          "duration": 0.09583333333333144,
          "durationTicks": 46,
          "midi": 69,
          "name": "A4",
          "ticks": 42336,
          "time": 88.2,
          "velocity": 0.8661417322834646
        },
        {
          "duration": 0.04583333333332007,
          "durationTicks": 22,
          "midi": 71,
          "name": "B4",
          "ticks": 42432,
          "time": 88.4,
          "velocity": 0.8661417322834646
        },
        {
          "duration": 0.04583333333333428,
          "durationTicks": 22,
          "midi": 72,
          "name": "C5",
          "ticks": 42456,
          "time": 88.45,
          "velocity": 0.8661417322834646
        },
        {
          "duration": 0.04583333333333428,
          "durationTicks": 22,
          "midi": 71,
          "name": "B4",
          "ticks": 42480,
          "time": 88.5,
          "velocity": 0.8661417322834646
        },
        {
          "duration": 0.04583333333332007,
          "durationTicks": 22,
          "midi": 72,
          "name": "C5",
          "ticks": 42504,
          "time": 88.55000000000001,
          "velocity": 0.8661417322834646
        },
        {
          "duration": 0.19583333333333997,
          "durationTicks": 94,
          "midi": 71,
          "name": "B4",
          "ticks": 42528,
          "time": 88.6,
          "velocity": 0.8661417322834646
        },
        {
          "duration": 0.19583333333332575,
          "durationTicks": 94,
          "midi": 72,
          "name": "C5",
          "ticks": 42624,
          "time": 88.80000000000001,
          "velocity": 0.8661417322834646
        },
        {
          "duration": 0.09583333333334565,
          "durationTicks": 46,
          "midi": 60,
          "name": "C4",
          "ticks": 58464,
          "time": 121.8,
          "velocity": 0.8661417322834646
        },
        {
          "duration": 0.09583333333333144,
          "durationTicks": 46,
          "midi": 67,
          "name": "G4",
          "ticks": 58560,
          "time": 122,
          "velocity": 0.8661417322834646
        },
        {
          "duration": 0.09583333333333144,
          "durationTicks": 46,
          "midi": 72,
          "name": "C5",
          "ticks": 58656,
          "time": 122.2,
          "velocity": 0.8661417322834646
        },
        {
          "duration": 0.3999999999999915,
          "durationTicks": 192,
          "midi": 75,
          "name": "D#5",
          "ticks": 58752,
          "time": 122.4,
          "velocity": 0.8661417322834646
        },
        {
          "duration": 0.4000000000000057,
          "durationTicks": 192,
          "midi": 72,
          "name": "C5",
          "ticks": 58944,
          "time": 122.8,
          "velocity": 0.8661417322834646
        },
        {
          "duration": 0.09583333333333144,
          "durationTicks": 46,
          "midi": 71,
          "name": "B4",
          "ticks": 59136,
          "time": 123.2,
          "velocity": 0.8661417322834646
        },
        {
          "duration": 0.09583333333333144,
          "durationTicks": 46,
          "midi": 72,
          "name": "C5",
          "ticks": 59232,
          "time": 123.4,
          "velocity": 0.8661417322834646
        },
        {
          "duration": 0.3999999999999915,
          "durationTicks": 192,
          "midi": 74,
          "name": "D5",
          "ticks": 59328,
          "time": 123.60000000000001,
          "velocity": 0.8661417322834646
        },
        {
          "duration": 0.09583333333333144,
          "durationTicks": 46,
          "midi": 72,
          "name": "C5",
          "ticks": 59520,
          "time": 124,
          "velocity": 0.8661417322834646
        },
        {
          "duration": 0.09583333333333144,
          "durationTicks": 46,
          "midi": 67,
          "name": "G4",
          "ticks": 59616,
          "time": 124.2,
          "velocity": 0.8661417322834646
        },
        {
          "duration": 0.09583333333333144,
          "durationTicks": 46,
          "midi": 63,
          "name": "D#4",
          "ticks": 59712,
          "time": 124.4,
          "velocity": 0.8661417322834646
        },
        {
          "duration": 0.09583333333333144,
          "durationTicks": 46,
          "midi": 60,
          "name": "C4",
          "ticks": 59808,
          "time": 124.60000000000001,
          "velocity": 0.8661417322834646
        },
        {
          "duration": 0.09583333333333144,
          "durationTicks": 46,
          "midi": 62,
          "name": "D4",
          "ticks": 59904,
          "time": 124.80000000000001,
          "velocity": 0.8661417322834646
        },
        {
          "duration": 0.09583333333333144,
          "durationTicks": 46,
          "midi": 63,
          "name": "D#4",
          "ticks": 60000,
          "time": 125,
          "velocity": 0.8661417322834646
        },
        {
          "duration": 0.4000000000000057,
          "durationTicks": 192,
          "midi": 66,
          "name": "F#4",
          "ticks": 60096,
          "time": 125.2,
          "velocity": 0.8661417322834646
        },
        {
          "duration": 0.09583333333333144,
          "durationTicks": 46,
          "midi": 67,
          "name": "G4",
          "ticks": 60288,
          "time": 125.60000000000001,
          "velocity": 0.8661417322834646
        },
        {
          "duration": 0.09583333333333144,
          "durationTicks": 46,
          "midi": 63,
          "name": "D#4",
          "ticks": 60384,
          "time": 125.80000000000001,
          "velocity": 0.8661417322834646
        },
        {
          "duration": 0.09583333333333144,
          "durationTicks": 46,
          "midi": 60,
          "name": "C4",
          "ticks": 60480,
          "time": 126,
          "velocity": 0.8661417322834646
        },
        {
          "duration": 0.09583333333333144,
          "durationTicks": 46,
          "midi": 55,
          "name": "G3",
          "ticks": 60576,
          "time": 126.2,
          "velocity": 0.8661417322834646
        },
        {
          "duration": 0.09583333333333144,
          "durationTicks": 46,
          "midi": 59,
          "name": "B3",
          "ticks": 60672,
          "time": 126.4,
          "velocity": 0.8661417322834646
        },
        {
          "duration": 0.09583333333333144,
          "durationTicks": 46,
          "midi": 60,
          "name": "C4",
          "ticks": 60768,
          "time": 126.60000000000001,
          "velocity": 0.8661417322834646
        },
        {
          "duration": 0.3999999999999915,
          "durationTicks": 192,
          "midi": 62,
          "name": "D4",
          "ticks": 60864,
          "time": 126.80000000000001,
          "velocity": 0.8661417322834646
        },
        {
          "duration": 0.09583333333333144,
          "durationTicks": 46,
          "midi": 60,
          "name": "C4",
          "ticks": 61056,
          "time": 127.2,
          "velocity": 0.8661417322834646
        },
        {
          "duration": 0.09583333333335986,
          "durationTicks": 46,
          "midi": 60,
          "name": "C4",
          "ticks": 61536,
          "time": 128.2,
          "velocity": 0.8661417322834646
        },
        {
          "duration": 0.09583333333333144,
          "durationTicks": 46,
          "midi": 67,
          "name": "G4",
          "ticks": 61632,
          "time": 128.4,
          "velocity": 0.8661417322834646
        },
        {
          "duration": 0.09583333333333144,
          "durationTicks": 46,
          "midi": 72,
          "name": "C5",
          "ticks": 61728,
          "time": 128.6,
          "velocity": 0.8661417322834646
        },
        {
          "duration": 0.29999999999998295,
          "durationTicks": 144,
          "midi": 75,
          "name": "D#5",
          "ticks": 61824,
          "time": 128.8,
          "velocity": 0.8661417322834646
        },
        {
          "duration": 0.04583333333334849,
          "durationTicks": 22,
          "midi": 80,
          "name": "G#5",
          "ticks": 61968,
          "time": 129.1,
          "velocity": 0.8661417322834646
        },
        {
          "duration": 0.04583333333332007,
          "durationTicks": 22,
          "midi": 81,
          "name": "A5",
          "ticks": 61992,
          "time": 129.15,
          "velocity": 0.8661417322834646
        },
        {
          "duration": 0.4000000000000057,
          "durationTicks": 192,
          "midi": 82,
          "name": "A#5",
          "ticks": 62016,
          "time": 129.2,
          "velocity": 0.8661417322834646
        },
        {
          "duration": 0.09583333333333144,
          "durationTicks": 46,
          "midi": 81,
          "name": "A5",
          "ticks": 62208,
          "time": 129.6,
          "velocity": 0.8661417322834646
        },
        {
          "duration": 0.09583333333333144,
          "durationTicks": 46,
          "midi": 79,
          "name": "G5",
          "ticks": 62304,
          "time": 129.8,
          "velocity": 0.8661417322834646
        },
        {
          "duration": 0.4000000000000057,
          "durationTicks": 192,
          "midi": 81,
          "name": "A5",
          "ticks": 62400,
          "time": 130,
          "velocity": 0.8661417322834646
        },
        {
          "duration": 0.09583333333333144,
          "durationTicks": 46,
          "midi": 82,
          "name": "A#5",
          "ticks": 62592,
          "time": 130.4,
          "velocity": 0.8661417322834646
        },
        {
          "duration": 0.09583333333333144,
          "durationTicks": 46,
          "midi": 79,
          "name": "G5",
          "ticks": 62688,
          "time": 130.6,
          "velocity": 0.8661417322834646
        },
        {
          "duration": 0.09583333333333144,
          "durationTicks": 46,
          "midi": 75,
          "name": "D#5",
          "ticks": 62784,
          "time": 130.8,
          "velocity": 0.8661417322834646
        },
        {
          "duration": 0.09583333333333144,
          "durationTicks": 46,
          "midi": 72,
          "name": "C5",
          "ticks": 62880,
          "time": 131,
          "velocity": 0.8661417322834646
        },
        {
          "duration": 0.09583333333335986,
          "durationTicks": 46,
          "midi": 71,
          "name": "B4",
          "ticks": 62976,
          "time": 131.2,
          "velocity": 0.8661417322834646
        },
        {
          "duration": 0.09583333333333144,
          "durationTicks": 46,
          "midi": 72,
          "name": "C5",
          "ticks": 63072,
          "time": 131.4,
          "velocity": 0.8661417322834646
        },
        {
          "duration": 0.4000000000000057,
          "durationTicks": 192,
          "midi": 74,
          "name": "D5",
          "ticks": 63168,
          "time": 131.6,
          "velocity": 0.8661417322834646
        },
        {
          "duration": 0.09583333333333144,
          "durationTicks": 46,
          "midi": 75,
          "name": "D#5",
          "ticks": 63360,
          "time": 132,
          "velocity": 0.8661417322834646
        },
        {
          "duration": 0.09583333333335986,
          "durationTicks": 46,
          "midi": 72,
          "name": "C5",
          "ticks": 63456,
          "time": 132.2,
          "velocity": 0.8661417322834646
        },
        {
          "duration": 0.09583333333333144,
          "durationTicks": 46,
          "midi": 67,
          "name": "G4",
          "ticks": 63552,
          "time": 132.4,
          "velocity": 0.8661417322834646
        },
        {
          "duration": 0.09583333333333144,
          "durationTicks": 46,
          "midi": 63,
          "name": "D#4",
          "ticks": 63648,
          "time": 132.6,
          "velocity": 0.8661417322834646
        },
        {
          "duration": 0.19583333333332575,
          "durationTicks": 94,
          "midi": 71,
          "name": "B4",
          "ticks": 63744,
          "time": 132.8,
          "velocity": 0.8661417322834646
        },
        {
          "duration": 0.09583333333333144,
          "durationTicks": 46,
          "midi": 69,
          "name": "A4",
          "ticks": 63840,
          "time": 133,
          "velocity": 0.8661417322834646
        },
        {
          "duration": 0.04583333333334849,
          "durationTicks": 22,
          "midi": 71,
          "name": "B4",
          "ticks": 63936,
          "time": 133.2,
          "velocity": 0.8661417322834646
        },
        {
          "duration": 0.04583333333334849,
          "durationTicks": 22,
          "midi": 72,
          "name": "C5",
          "ticks": 63960,
          "time": 133.25,
          "velocity": 0.8661417322834646
        },
        {
          "duration": 0.04583333333332007,
          "durationTicks": 22,
          "midi": 71,
          "name": "B4",
          "ticks": 63984,
          "time": 133.3,
          "velocity": 0.8661417322834646
        },
        {
          "duration": 0.04583333333334849,
          "durationTicks": 22,
          "midi": 72,
          "name": "C5",
          "ticks": 64008,
          "time": 133.35,
          "velocity": 0.8661417322834646
        },
        {
          "duration": 0.19583333333332575,
          "durationTicks": 94,
          "midi": 71,
          "name": "B4",
          "ticks": 64032,
          "time": 133.4,
          "velocity": 0.8661417322834646
        },
        {
          "duration": 0.19583333333335418,
          "durationTicks": 94,
          "midi": 72,
          "name": "C5",
          "ticks": 64128,
          "time": 133.6,
          "velocity": 0.8661417322834646
        },
        {
          "duration": 0.09583333333333144,
          "durationTicks": 46,
          "midi": 60,
          "name": "C4",
          "ticks": 64608,
          "time": 134.6,
          "velocity": 0.8661417322834646
        },
        {
          "duration": 0.09583333333333144,
          "durationTicks": 46,
          "midi": 67,
          "name": "G4",
          "ticks": 64704,
          "time": 134.8,
          "velocity": 0.8661417322834646
        },
        {
          "duration": 0.09583333333333144,
          "durationTicks": 46,
          "midi": 72,
          "name": "C5",
          "ticks": 64800,
          "time": 135,
          "velocity": 0.8661417322834646
        },
        {
          "duration": 0.4000000000000057,
          "durationTicks": 192,
          "midi": 75,
          "name": "D#5",
          "ticks": 64896,
          "time": 135.2,
          "velocity": 0.8661417322834646
        },
        {
          "duration": 0.4000000000000057,
          "durationTicks": 192,
          "midi": 72,
          "name": "C5",
          "ticks": 65088,
          "time": 135.6,
          "velocity": 0.8661417322834646
        },
        {
          "duration": 0.09583333333333144,
          "durationTicks": 46,
          "midi": 71,
          "name": "B4",
          "ticks": 65280,
          "time": 136,
          "velocity": 0.8661417322834646
        },
        {
          "duration": 0.09583333333335986,
          "durationTicks": 46,
          "midi": 72,
          "name": "C5",
          "ticks": 65376,
          "time": 136.2,
          "velocity": 0.8661417322834646
        },
        {
          "duration": 0.4000000000000057,
          "durationTicks": 192,
          "midi": 74,
          "name": "D5",
          "ticks": 65472,
          "time": 136.4,
          "velocity": 0.8661417322834646
        },
        {
          "duration": 0.09583333333333144,
          "durationTicks": 46,
          "midi": 72,
          "name": "C5",
          "ticks": 65664,
          "time": 136.8,
          "velocity": 0.8661417322834646
        },
        {
          "duration": 0.09583333333333144,
          "durationTicks": 46,
          "midi": 67,
          "name": "G4",
          "ticks": 65760,
          "time": 137,
          "velocity": 0.8661417322834646
        },
        {
          "duration": 0.09583333333335986,
          "durationTicks": 46,
          "midi": 63,
          "name": "D#4",
          "ticks": 65856,
          "time": 137.2,
          "velocity": 0.8661417322834646
        },
        {
          "duration": 0.09583333333333144,
          "durationTicks": 46,
          "midi": 60,
          "name": "C4",
          "ticks": 65952,
          "time": 137.4,
          "velocity": 0.8661417322834646
        },
        {
          "duration": 0.09583333333333144,
          "durationTicks": 46,
          "midi": 62,
          "name": "D4",
          "ticks": 66048,
          "time": 137.6,
          "velocity": 0.8661417322834646
        },
        {
          "duration": 0.09583333333333144,
          "durationTicks": 46,
          "midi": 63,
          "name": "D#4",
          "ticks": 66144,
          "time": 137.8,
          "velocity": 0.8661417322834646
        },
        {
          "duration": 0.4000000000000057,
          "durationTicks": 192,
          "midi": 66,
          "name": "F#4",
          "ticks": 66240,
          "time": 138,
          "velocity": 0.8661417322834646
        },
        {
          "duration": 0.09583333333333144,
          "durationTicks": 46,
          "midi": 67,
          "name": "G4",
          "ticks": 66432,
          "time": 138.4,
          "velocity": 0.8661417322834646
        },
        {
          "duration": 0.09583333333333144,
          "durationTicks": 46,
          "midi": 63,
          "name": "D#4",
          "ticks": 66528,
          "time": 138.6,
          "velocity": 0.8661417322834646
        },
        {
          "duration": 0.09583333333333144,
          "durationTicks": 46,
          "midi": 60,
          "name": "C4",
          "ticks": 66624,
          "time": 138.8,
          "velocity": 0.8661417322834646
        },
        {
          "duration": 0.09583333333333144,
          "durationTicks": 46,
          "midi": 55,
          "name": "G3",
          "ticks": 66720,
          "time": 139,
          "velocity": 0.8661417322834646
        },
        {
          "duration": 0.09583333333335986,
          "durationTicks": 46,
          "midi": 62,
          "name": "D4",
          "ticks": 66816,
          "time": 139.2,
          "velocity": 0.8661417322834646
        },
        {
          "duration": 0.09583333333333144,
          "durationTicks": 46,
          "midi": 60,
          "name": "C4",
          "ticks": 66912,
          "time": 139.4,
          "velocity": 0.8661417322834646
        },
        {
          "duration": 0.4000000000000057,
          "durationTicks": 192,
          "midi": 62,
          "name": "D4",
          "ticks": 67008,
          "time": 139.6,
          "velocity": 0.8661417322834646
        },
        {
          "duration": 0.09583333333333144,
          "durationTicks": 46,
          "midi": 60,
          "name": "C4",
          "ticks": 67200,
          "time": 140,
          "velocity": 0.8661417322834646
        },
        {
          "duration": 0.09583333333333144,
          "durationTicks": 46,
          "midi": 60,
          "name": "C4",
          "ticks": 67680,
          "time": 141,
          "velocity": 0.8661417322834646
        },
        {
          "duration": 0.09583333333335986,
          "durationTicks": 46,
          "midi": 67,
          "name": "G4",
          "ticks": 67776,
          "time": 141.2,
          "velocity": 0.8661417322834646
        },
        {
          "duration": 0.09583333333333144,
          "durationTicks": 46,
          "midi": 72,
          "name": "C5",
          "ticks": 67872,
          "time": 141.4,
          "velocity": 0.8661417322834646
        },
        {
          "duration": 0.30000000000001137,
          "durationTicks": 144,
          "midi": 75,
          "name": "D#5",
          "ticks": 67968,
          "time": 141.6,
          "velocity": 0.8661417322834646
        },
        {
          "duration": 0.04583333333332007,
          "durationTicks": 22,
          "midi": 80,
          "name": "G#5",
          "ticks": 68112,
          "time": 141.9,
          "velocity": 0.8661417322834646
        },
        {
          "duration": 0.04583333333334849,
          "durationTicks": 22,
          "midi": 81,
          "name": "A5",
          "ticks": 68136,
          "time": 141.95,
          "velocity": 0.8661417322834646
        },
        {
          "duration": 0.4000000000000057,
          "durationTicks": 192,
          "midi": 82,
          "name": "A#5",
          "ticks": 68160,
          "time": 142,
          "velocity": 0.8661417322834646
        },
        {
          "duration": 0.09583333333333144,
          "durationTicks": 46,
          "midi": 81,
          "name": "A5",
          "ticks": 68352,
          "time": 142.4,
          "velocity": 0.8661417322834646
        },
        {
          "duration": 0.09583333333333144,
          "durationTicks": 46,
          "midi": 79,
          "name": "G5",
          "ticks": 68448,
          "time": 142.6,
          "velocity": 0.8661417322834646
        },
        {
          "duration": 0.39999999999997726,
          "durationTicks": 192,
          "midi": 81,
          "name": "A5",
          "ticks": 68544,
          "time": 142.8,
          "velocity": 0.8661417322834646
        },
        {
          "duration": 0.09583333333335986,
          "durationTicks": 46,
          "midi": 82,
          "name": "A#5",
          "ticks": 68736,
          "time": 143.2,
          "velocity": 0.8661417322834646
        },
        {
          "duration": 0.09583333333333144,
          "durationTicks": 46,
          "midi": 79,
          "name": "G5",
          "ticks": 68832,
          "time": 143.4,
          "velocity": 0.8661417322834646
        },
        {
          "duration": 0.09583333333333144,
          "durationTicks": 46,
          "midi": 75,
          "name": "D#5",
          "ticks": 68928,
          "time": 143.6,
          "velocity": 0.8661417322834646
        },
        {
          "duration": 0.09583333333333144,
          "durationTicks": 46,
          "midi": 72,
          "name": "C5",
          "ticks": 69024,
          "time": 143.8,
          "velocity": 0.8661417322834646
        },
        {
          "duration": 0.09583333333333144,
          "durationTicks": 46,
          "midi": 71,
          "name": "B4",
          "ticks": 69120,
          "time": 144,
          "velocity": 0.8661417322834646
        },
        {
          "duration": 0.09583333333335986,
          "durationTicks": 46,
          "midi": 72,
          "name": "C5",
          "ticks": 69216,
          "time": 144.2,
          "velocity": 0.8661417322834646
        },
        {
          "duration": 0.4000000000000057,
          "durationTicks": 192,
          "midi": 74,
          "name": "D5",
          "ticks": 69312,
          "time": 144.4,
          "velocity": 0.8661417322834646
        },
        {
          "duration": 0.09583333333333144,
          "durationTicks": 46,
          "midi": 75,
          "name": "D#5",
          "ticks": 69504,
          "time": 144.8,
          "velocity": 0.8661417322834646
        },
        {
          "duration": 0.09583333333333144,
          "durationTicks": 46,
          "midi": 72,
          "name": "C5",
          "ticks": 69600,
          "time": 145,
          "velocity": 0.8661417322834646
        },
        {
          "duration": 0.09583333333335986,
          "durationTicks": 46,
          "midi": 67,
          "name": "G4",
          "ticks": 69696,
          "time": 145.2,
          "velocity": 0.8661417322834646
        },
        {
          "duration": 0.09583333333333144,
          "durationTicks": 46,
          "midi": 63,
          "name": "D#4",
          "ticks": 69792,
          "time": 145.4,
          "velocity": 0.8661417322834646
        },
        {
          "duration": 0.19583333333335418,
          "durationTicks": 94,
          "midi": 71,
          "name": "B4",
          "ticks": 69888,
          "time": 145.6,
          "velocity": 0.8661417322834646
        },
        {
          "duration": 0.09583333333333144,
          "durationTicks": 46,
          "midi": 69,
          "name": "A4",
          "ticks": 69984,
          "time": 145.8,
          "velocity": 0.8661417322834646
        },
        {
          "duration": 0.04583333333334849,
          "durationTicks": 22,
          "midi": 71,
          "name": "B4",
          "ticks": 70080,
          "time": 146,
          "velocity": 0.8661417322834646
        },
        {
          "duration": 0.04583333333332007,
          "durationTicks": 22,
          "midi": 72,
          "name": "C5",
          "ticks": 70104,
          "time": 146.05,
          "velocity": 0.8661417322834646
        },
        {
          "duration": 0.04583333333334849,
          "durationTicks": 22,
          "midi": 71,
          "name": "B4",
          "ticks": 70128,
          "time": 146.1,
          "velocity": 0.8661417322834646
        },
        {
          "duration": 0.04583333333332007,
          "durationTicks": 22,
          "midi": 72,
          "name": "C5",
          "ticks": 70152,
          "time": 146.15,
          "velocity": 0.8661417322834646
        },
        {
          "duration": 0.19583333333335418,
          "durationTicks": 94,
          "midi": 71,
          "name": "B4",
          "ticks": 70176,
          "time": 146.2,
          "velocity": 0.8661417322834646
        },
        {
          "duration": 0.19583333333332575,
          "durationTicks": 94,
          "midi": 72,
          "name": "C5",
          "ticks": 70272,
          "time": 146.4,
          "velocity": 0.8661417322834646
        }
      ],
      "endOfTrackTicks": 70366
    },
    {
      "channel": 14,
      "controlChanges": {
        "7": [
          {
            "number": 7,
            "ticks": 0,
            "time": 0,
            "value": 1
          }
        ],
        "10": [
          {
            "number": 10,
            "ticks": 0,
            "time": 0,
            "value": 0.5039370078740157
          }
        ]
      },
      "pitchBends": [],
      "instrument": {
        "family": "chromatic percussion",
        "number": 12,
        "name": "marimba"
      },
      "name": "Staff-7",
      "notes": [
        {
          "duration": 0.19583333333333286,
          "durationTicks": 94,
          "midi": 56,
          "name": "G#3",
          "ticks": 15456,
          "time": 32.2,
          "velocity": 0.7244094488188977
        },
        {
          "duration": 0.19583333333333286,
          "durationTicks": 94,
          "midi": 60,
          "name": "C4",
          "ticks": 15456,
          "time": 32.2,
          "velocity": 0.7244094488188977
        },
        {
          "duration": 0.19583333333333286,
          "durationTicks": 94,
          "midi": 56,
          "name": "G#3",
          "ticks": 15648,
          "time": 32.6,
          "velocity": 0.7244094488188977
        },
        {
          "duration": 0.19583333333333286,
          "durationTicks": 94,
          "midi": 60,
          "name": "C4",
          "ticks": 15648,
          "time": 32.6,
          "velocity": 0.7244094488188977
        },
        {
          "duration": 0.19583333333333286,
          "durationTicks": 94,
          "midi": 56,
          "name": "G#3",
          "ticks": 15840,
          "time": 33,
          "velocity": 0.7244094488188977
        },
        {
          "duration": 0.19583333333333286,
          "durationTicks": 94,
          "midi": 60,
          "name": "C4",
          "ticks": 15840,
          "time": 33,
          "velocity": 0.7244094488188977
        },
        {
          "duration": 0.19583333333333286,
          "durationTicks": 94,
          "midi": 56,
          "name": "G#3",
          "ticks": 16032,
          "time": 33.4,
          "velocity": 0.7244094488188977
        },
        {
          "duration": 0.19583333333333286,
          "durationTicks": 94,
          "midi": 60,
          "name": "C4",
          "ticks": 16032,
          "time": 33.4,
          "velocity": 0.7244094488188977
        },
        {
          "duration": 0.19583333333332575,
          "durationTicks": 94,
          "midi": 59,
          "name": "B3",
          "ticks": 16224,
          "time": 33.800000000000004,
          "velocity": 0.7244094488188977
        },
        {
          "duration": 0.19583333333332575,
          "durationTicks": 94,
          "midi": 62,
          "name": "D4",
          "ticks": 16224,
          "time": 33.800000000000004,
          "velocity": 0.7244094488188977
        },
        {
          "duration": 0.19583333333333286,
          "durationTicks": 94,
          "midi": 59,
          "name": "B3",
          "ticks": 16416,
          "time": 34.2,
          "velocity": 0.7244094488188977
        },
        {
          "duration": 0.19583333333333286,
          "durationTicks": 94,
          "midi": 62,
          "name": "D4",
          "ticks": 16416,
          "time": 34.2,
          "velocity": 0.7244094488188977
        },
        {
          "duration": 0.19583333333333286,
          "durationTicks": 94,
          "midi": 59,
          "name": "B3",
          "ticks": 16608,
          "time": 34.6,
          "velocity": 0.7244094488188977
        },
        {
          "duration": 0.19583333333333286,
          "durationTicks": 94,
          "midi": 62,
          "name": "D4",
          "ticks": 16608,
          "time": 34.6,
          "velocity": 0.7244094488188977
        },
        {
          "duration": 0.19583333333333286,
          "durationTicks": 94,
          "midi": 59,
          "name": "B3",
          "ticks": 16800,
          "time": 35,
          "velocity": 0.7244094488188977
        },
        {
          "duration": 0.19583333333333286,
          "durationTicks": 94,
          "midi": 62,
          "name": "D4",
          "ticks": 16800,
          "time": 35,
          "velocity": 0.7244094488188977
        },
        {
          "duration": 0.19583333333333286,
          "durationTicks": 94,
          "midi": 60,
          "name": "C4",
          "ticks": 16992,
          "time": 35.4,
          "velocity": 0.7244094488188977
        },
        {
          "duration": 0.19583333333333286,
          "durationTicks": 94,
          "midi": 63,
          "name": "D#4",
          "ticks": 16992,
          "time": 35.4,
          "velocity": 0.7244094488188977
        },
        {
          "duration": 0.19583333333332575,
          "durationTicks": 94,
          "midi": 60,
          "name": "C4",
          "ticks": 17184,
          "time": 35.800000000000004,
          "velocity": 0.7244094488188977
        },
        {
          "duration": 0.19583333333332575,
          "durationTicks": 94,
          "midi": 63,
          "name": "D#4",
          "ticks": 17184,
          "time": 35.800000000000004,
          "velocity": 0.7244094488188977
        },
        {
          "duration": 0.19583333333333286,
          "durationTicks": 94,
          "midi": 60,
          "name": "C4",
          "ticks": 17376,
          "time": 36.2,
          "velocity": 0.7244094488188977
        },
        {
          "duration": 0.19583333333333286,
          "durationTicks": 94,
          "midi": 63,
          "name": "D#4",
          "ticks": 17376,
          "time": 36.2,
          "velocity": 0.7244094488188977
        },
        {
          "duration": 0.19583333333333286,
          "durationTicks": 94,
          "midi": 60,
          "name": "C4",
          "ticks": 17568,
          "time": 36.6,
          "velocity": 0.7244094488188977
        },
        {
          "duration": 0.19583333333333286,
          "durationTicks": 94,
          "midi": 63,
          "name": "D#4",
          "ticks": 17568,
          "time": 36.6,
          "velocity": 0.7244094488188977
        },
        {
          "duration": 0.19583333333333286,
          "durationTicks": 94,
          "midi": 55,
          "name": "G3",
          "ticks": 17760,
          "time": 37,
          "velocity": 0.7244094488188977
        },
        {
          "duration": 0.19583333333333286,
          "durationTicks": 94,
          "midi": 58,
          "name": "A#3",
          "ticks": 17760,
          "time": 37,
          "velocity": 0.7244094488188977
        },
        {
          "duration": 0.19583333333333286,
          "durationTicks": 94,
          "midi": 55,
          "name": "G3",
          "ticks": 17952,
          "time": 37.4,
          "velocity": 0.7244094488188977
        },
        {
          "duration": 0.19583333333333286,
          "durationTicks": 94,
          "midi": 58,
          "name": "A#3",
          "ticks": 17952,
          "time": 37.4,
          "velocity": 0.7244094488188977
        },
        {
          "duration": 0.19583333333332575,
          "durationTicks": 94,
          "midi": 53,
          "name": "F3",
          "ticks": 18144,
          "time": 37.800000000000004,
          "velocity": 0.7244094488188977
        },
        {
          "duration": 0.19583333333332575,
          "durationTicks": 94,
          "midi": 56,
          "name": "G#3",
          "ticks": 18144,
          "time": 37.800000000000004,
          "velocity": 0.7244094488188977
        },
        {
          "duration": 0.19583333333333286,
          "durationTicks": 94,
          "midi": 56,
          "name": "G#3",
          "ticks": 18336,
          "time": 38.2,
          "velocity": 0.7244094488188977
        },
        {
          "duration": 0.19583333333333286,
          "durationTicks": 94,
          "midi": 61,
          "name": "C#4",
          "ticks": 18336,
          "time": 38.2,
          "velocity": 0.7244094488188977
        },
        {
          "duration": 0.19583333333333286,
          "durationTicks": 94,
          "midi": 56,
          "name": "G#3",
          "ticks": 18528,
          "time": 38.6,
          "velocity": 0.7244094488188977
        },
        {
          "duration": 0.19583333333333286,
          "durationTicks": 94,
          "midi": 60,
          "name": "C4",
          "ticks": 18528,
          "time": 38.6,
          "velocity": 0.7244094488188977
        },
        {
          "duration": 0.19583333333333286,
          "durationTicks": 94,
          "midi": 56,
          "name": "G#3",
          "ticks": 18720,
          "time": 39,
          "velocity": 0.7244094488188977
        },
        {
          "duration": 0.19583333333333286,
          "durationTicks": 94,
          "midi": 60,
          "name": "C4",
          "ticks": 18720,
          "time": 39,
          "velocity": 0.7244094488188977
        },
        {
          "duration": 0.19583333333332575,
          "durationTicks": 94,
          "midi": 56,
          "name": "G#3",
          "ticks": 18912,
          "time": 39.400000000000006,
          "velocity": 0.7244094488188977
        },
        {
          "duration": 0.19583333333332575,
          "durationTicks": 94,
          "midi": 60,
          "name": "C4",
          "ticks": 18912,
          "time": 39.400000000000006,
          "velocity": 0.7244094488188977
        },
        {
          "duration": 0.19583333333333286,
          "durationTicks": 94,
          "midi": 56,
          "name": "G#3",
          "ticks": 19104,
          "time": 39.800000000000004,
          "velocity": 0.7244094488188977
        },
        {
          "duration": 0.19583333333333286,
          "durationTicks": 94,
          "midi": 60,
          "name": "C4",
          "ticks": 19104,
          "time": 39.800000000000004,
          "velocity": 0.7244094488188977
        },
        {
          "duration": 0.19583333333333286,
          "durationTicks": 94,
          "midi": 59,
          "name": "B3",
          "ticks": 19296,
          "time": 40.2,
          "velocity": 0.7244094488188977
        },
        {
          "duration": 0.19583333333333286,
          "durationTicks": 94,
          "midi": 62,
          "name": "D4",
          "ticks": 19296,
          "time": 40.2,
          "velocity": 0.7244094488188977
        },
        {
          "duration": 0.19583333333333286,
          "durationTicks": 94,
          "midi": 59,
          "name": "B3",
          "ticks": 19488,
          "time": 40.6,
          "velocity": 0.7244094488188977
        },
        {
          "duration": 0.19583333333333286,
          "durationTicks": 94,
          "midi": 62,
          "name": "D4",
          "ticks": 19488,
          "time": 40.6,
          "velocity": 0.7244094488188977
        },
        {
          "duration": 0.19583333333333286,
          "durationTicks": 94,
          "midi": 59,
          "name": "B3",
          "ticks": 19680,
          "time": 41,
          "velocity": 0.7244094488188977
        },
        {
          "duration": 0.19583333333333286,
          "durationTicks": 94,
          "midi": 62,
          "name": "D4",
          "ticks": 19680,
          "time": 41,
          "velocity": 0.7244094488188977
        },
        {
          "duration": 0.19583333333332575,
          "durationTicks": 94,
          "midi": 59,
          "name": "B3",
          "ticks": 19872,
          "time": 41.400000000000006,
          "velocity": 0.7244094488188977
        },
        {
          "duration": 0.19583333333332575,
          "durationTicks": 94,
          "midi": 62,
          "name": "D4",
          "ticks": 19872,
          "time": 41.400000000000006,
          "velocity": 0.7244094488188977
        },
        {
          "duration": 0.19583333333333286,
          "durationTicks": 94,
          "midi": 60,
          "name": "C4",
          "ticks": 20064,
          "time": 41.800000000000004,
          "velocity": 0.7244094488188977
        },
        {
          "duration": 0.19583333333333286,
          "durationTicks": 94,
          "midi": 63,
          "name": "D#4",
          "ticks": 20064,
          "time": 41.800000000000004,
          "velocity": 0.7244094488188977
        },
        {
          "duration": 0.19583333333333286,
          "durationTicks": 94,
          "midi": 60,
          "name": "C4",
          "ticks": 20256,
          "time": 42.2,
          "velocity": 0.7244094488188977
        },
        {
          "duration": 0.19583333333333286,
          "durationTicks": 94,
          "midi": 63,
          "name": "D#4",
          "ticks": 20256,
          "time": 42.2,
          "velocity": 0.7244094488188977
        },
        {
          "duration": 0.19583333333333286,
          "durationTicks": 94,
          "midi": 60,
          "name": "C4",
          "ticks": 20448,
          "time": 42.6,
          "velocity": 0.7244094488188977
        },
        {
          "duration": 0.19583333333333286,
          "durationTicks": 94,
          "midi": 63,
          "name": "D#4",
          "ticks": 20448,
          "time": 42.6,
          "velocity": 0.7244094488188977
        },
        {
          "duration": 0.19583333333333286,
          "durationTicks": 94,
          "midi": 60,
          "name": "C4",
          "ticks": 20640,
          "time": 43,
          "velocity": 0.7244094488188977
        },
        {
          "duration": 0.19583333333333286,
          "durationTicks": 94,
          "midi": 63,
          "name": "D#4",
          "ticks": 20640,
          "time": 43,
          "velocity": 0.7244094488188977
        },
        {
          "duration": 0.19583333333332575,
          "durationTicks": 94,
          "midi": 56,
          "name": "G#3",
          "ticks": 20832,
          "time": 43.400000000000006,
          "velocity": 0.7244094488188977
        },
        {
          "duration": 0.19583333333332575,
          "durationTicks": 94,
          "midi": 62,
          "name": "D4",
          "ticks": 20832,
          "time": 43.400000000000006,
          "velocity": 0.7244094488188977
        },
        {
          "duration": 0.19583333333333286,
          "durationTicks": 94,
          "midi": 56,
          "name": "G#3",
          "ticks": 21024,
          "time": 43.800000000000004,
          "velocity": 0.7244094488188977
        },
        {
          "duration": 0.19583333333333286,
          "durationTicks": 94,
          "midi": 62,
          "name": "D4",
          "ticks": 21024,
          "time": 43.800000000000004,
          "velocity": 0.7244094488188977
        },
        {
          "duration": 0.19583333333333286,
          "durationTicks": 94,
          "midi": 55,
          "name": "G3",
          "ticks": 21216,
          "time": 44.2,
          "velocity": 0.7244094488188977
        },
        {
          "duration": 0.19583333333333286,
          "durationTicks": 94,
          "midi": 59,
          "name": "B3",
          "ticks": 21216,
          "time": 44.2,
          "velocity": 0.7244094488188977
        },
        {
          "duration": 0.19583333333333286,
          "durationTicks": 94,
          "midi": 55,
          "name": "G3",
          "ticks": 21408,
          "time": 44.6,
          "velocity": 0.7244094488188977
        },
        {
          "duration": 0.19583333333333286,
          "durationTicks": 94,
          "midi": 59,
          "name": "B3",
          "ticks": 21408,
          "time": 44.6,
          "velocity": 0.7244094488188977
        },
        {
          "duration": 0.19583333333333286,
          "durationTicks": 94,
          "midi": 56,
          "name": "G#3",
          "ticks": 21600,
          "time": 45,
          "velocity": 0.7244094488188977
        },
        {
          "duration": 0.19583333333333286,
          "durationTicks": 94,
          "midi": 60,
          "name": "C4",
          "ticks": 21600,
          "time": 45,
          "velocity": 0.7244094488188977
        },
        {
          "duration": 0.19583333333332575,
          "durationTicks": 94,
          "midi": 56,
          "name": "G#3",
          "ticks": 21792,
          "time": 45.400000000000006,
          "velocity": 0.7244094488188977
        },
        {
          "duration": 0.19583333333332575,
          "durationTicks": 94,
          "midi": 60,
          "name": "C4",
          "ticks": 21792,
          "time": 45.400000000000006,
          "velocity": 0.7244094488188977
        },
        {
          "duration": 0.19583333333333286,
          "durationTicks": 94,
          "midi": 56,
          "name": "G#3",
          "ticks": 21984,
          "time": 45.800000000000004,
          "velocity": 0.7244094488188977
        },
        {
          "duration": 0.19583333333333286,
          "durationTicks": 94,
          "midi": 60,
          "name": "C4",
          "ticks": 21984,
          "time": 45.800000000000004,
          "velocity": 0.7244094488188977
        },
        {
          "duration": 0.19583333333333286,
          "durationTicks": 94,
          "midi": 56,
          "name": "G#3",
          "ticks": 22176,
          "time": 46.2,
          "velocity": 0.7244094488188977
        },
        {
          "duration": 0.19583333333333286,
          "durationTicks": 94,
          "midi": 60,
          "name": "C4",
          "ticks": 22176,
          "time": 46.2,
          "velocity": 0.7244094488188977
        },
        {
          "duration": 0.19583333333333286,
          "durationTicks": 94,
          "midi": 59,
          "name": "B3",
          "ticks": 22368,
          "time": 46.6,
          "velocity": 0.7244094488188977
        },
        {
          "duration": 0.19583333333333286,
          "durationTicks": 94,
          "midi": 62,
          "name": "D4",
          "ticks": 22368,
          "time": 46.6,
          "velocity": 0.7244094488188977
        },
        {
          "duration": 0.19583333333333286,
          "durationTicks": 94,
          "midi": 59,
          "name": "B3",
          "ticks": 22560,
          "time": 47,
          "velocity": 0.7244094488188977
        },
        {
          "duration": 0.19583333333333286,
          "durationTicks": 94,
          "midi": 62,
          "name": "D4",
          "ticks": 22560,
          "time": 47,
          "velocity": 0.7244094488188977
        },
        {
          "duration": 0.19583333333332575,
          "durationTicks": 94,
          "midi": 59,
          "name": "B3",
          "ticks": 22752,
          "time": 47.400000000000006,
          "velocity": 0.7244094488188977
        },
        {
          "duration": 0.19583333333332575,
          "durationTicks": 94,
          "midi": 62,
          "name": "D4",
          "ticks": 22752,
          "time": 47.400000000000006,
          "velocity": 0.7244094488188977
        },
        {
          "duration": 0.19583333333333286,
          "durationTicks": 94,
          "midi": 59,
          "name": "B3",
          "ticks": 22944,
          "time": 47.800000000000004,
          "velocity": 0.7244094488188977
        },
        {
          "duration": 0.19583333333333286,
          "durationTicks": 94,
          "midi": 62,
          "name": "D4",
          "ticks": 22944,
          "time": 47.800000000000004,
          "velocity": 0.7244094488188977
        },
        {
          "duration": 0.19583333333333286,
          "durationTicks": 94,
          "midi": 60,
          "name": "C4",
          "ticks": 23136,
          "time": 48.2,
          "velocity": 0.7244094488188977
        },
        {
          "duration": 0.19583333333333286,
          "durationTicks": 94,
          "midi": 63,
          "name": "D#4",
          "ticks": 23136,
          "time": 48.2,
          "velocity": 0.7244094488188977
        },
        {
          "duration": 0.19583333333333286,
          "durationTicks": 94,
          "midi": 60,
          "name": "C4",
          "ticks": 23328,
          "time": 48.6,
          "velocity": 0.7244094488188977
        },
        {
          "duration": 0.19583333333333286,
          "durationTicks": 94,
          "midi": 63,
          "name": "D#4",
          "ticks": 23328,
          "time": 48.6,
          "velocity": 0.7244094488188977
        },
        {
          "duration": 0.19583333333333286,
          "durationTicks": 94,
          "midi": 60,
          "name": "C4",
          "ticks": 23520,
          "time": 49,
          "velocity": 0.7244094488188977
        },
        {
          "duration": 0.19583333333333286,
          "durationTicks": 94,
          "midi": 63,
          "name": "D#4",
          "ticks": 23520,
          "time": 49,
          "velocity": 0.7244094488188977
        },
        {
          "duration": 0.19583333333332575,
          "durationTicks": 94,
          "midi": 60,
          "name": "C4",
          "ticks": 23712,
          "time": 49.400000000000006,
          "velocity": 0.7244094488188977
        },
        {
          "duration": 0.19583333333332575,
          "durationTicks": 94,
          "midi": 63,
          "name": "D#4",
          "ticks": 23712,
          "time": 49.400000000000006,
          "velocity": 0.7244094488188977
        },
        {
          "duration": 0.19583333333333286,
          "durationTicks": 94,
          "midi": 55,
          "name": "G3",
          "ticks": 23904,
          "time": 49.800000000000004,
          "velocity": 0.7244094488188977
        },
        {
          "duration": 0.19583333333333286,
          "durationTicks": 94,
          "midi": 58,
          "name": "A#3",
          "ticks": 23904,
          "time": 49.800000000000004,
          "velocity": 0.7244094488188977
        },
        {
          "duration": 0.19583333333333286,
          "durationTicks": 94,
          "midi": 55,
          "name": "G3",
          "ticks": 24096,
          "time": 50.2,
          "velocity": 0.7244094488188977
        },
        {
          "duration": 0.19583333333333286,
          "durationTicks": 94,
          "midi": 58,
          "name": "A#3",
          "ticks": 24096,
          "time": 50.2,
          "velocity": 0.7244094488188977
        },
        {
          "duration": 0.19583333333333286,
          "durationTicks": 94,
          "midi": 53,
          "name": "F3",
          "ticks": 24288,
          "time": 50.6,
          "velocity": 0.7244094488188977
        },
        {
          "duration": 0.19583333333333286,
          "durationTicks": 94,
          "midi": 56,
          "name": "G#3",
          "ticks": 24288,
          "time": 50.6,
          "velocity": 0.7244094488188977
        },
        {
          "duration": 0.19583333333333286,
          "durationTicks": 94,
          "midi": 56,
          "name": "G#3",
          "ticks": 24480,
          "time": 51,
          "velocity": 0.7244094488188977
        },
        {
          "duration": 0.19583333333333286,
          "durationTicks": 94,
          "midi": 61,
          "name": "C#4",
          "ticks": 24480,
          "time": 51,
          "velocity": 0.7244094488188977
        },
        {
          "duration": 0.19583333333332575,
          "durationTicks": 94,
          "midi": 56,
          "name": "G#3",
          "ticks": 43104,
          "time": 89.80000000000001,
          "velocity": 0.7244094488188977
        },
        {
          "duration": 0.19583333333332575,
          "durationTicks": 94,
          "midi": 60,
          "name": "C4",
          "ticks": 43104,
          "time": 89.80000000000001,
          "velocity": 0.7244094488188977
        },
        {
          "duration": 0.19583333333333997,
          "durationTicks": 94,
          "midi": 56,
          "name": "G#3",
          "ticks": 43296,
          "time": 90.2,
          "velocity": 0.7244094488188977
        },
        {
          "duration": 0.19583333333333997,
          "durationTicks": 94,
          "midi": 60,
          "name": "C4",
          "ticks": 43296,
          "time": 90.2,
          "velocity": 0.7244094488188977
        },
        {
          "duration": 0.19583333333333997,
          "durationTicks": 94,
          "midi": 56,
          "name": "G#3",
          "ticks": 43488,
          "time": 90.6,
          "velocity": 0.7244094488188977
        },
        {
          "duration": 0.19583333333333997,
          "durationTicks": 94,
          "midi": 60,
          "name": "C4",
          "ticks": 43488,
          "time": 90.6,
          "velocity": 0.7244094488188977
        },
        {
          "duration": 0.19583333333332575,
          "durationTicks": 94,
          "midi": 56,
          "name": "G#3",
          "ticks": 43680,
          "time": 91,
          "velocity": 0.7244094488188977
        },
        {
          "duration": 0.19583333333332575,
          "durationTicks": 94,
          "midi": 60,
          "name": "C4",
          "ticks": 43680,
          "time": 91,
          "velocity": 0.7244094488188977
        },
        {
          "duration": 0.19583333333332575,
          "durationTicks": 94,
          "midi": 59,
          "name": "B3",
          "ticks": 43872,
          "time": 91.4,
          "velocity": 0.7244094488188977
        },
        {
          "duration": 0.19583333333332575,
          "durationTicks": 94,
          "midi": 62,
          "name": "D4",
          "ticks": 43872,
          "time": 91.4,
          "velocity": 0.7244094488188977
        },
        {
          "duration": 0.19583333333332575,
          "durationTicks": 94,
          "midi": 59,
          "name": "B3",
          "ticks": 44064,
          "time": 91.80000000000001,
          "velocity": 0.7244094488188977
        },
        {
          "duration": 0.19583333333332575,
          "durationTicks": 94,
          "midi": 62,
          "name": "D4",
          "ticks": 44064,
          "time": 91.80000000000001,
          "velocity": 0.7244094488188977
        },
        {
          "duration": 0.19583333333333997,
          "durationTicks": 94,
          "midi": 59,
          "name": "B3",
          "ticks": 44256,
          "time": 92.2,
          "velocity": 0.7244094488188977
        },
        {
          "duration": 0.19583333333333997,
          "durationTicks": 94,
          "midi": 62,
          "name": "D4",
          "ticks": 44256,
          "time": 92.2,
          "velocity": 0.7244094488188977
        },
        {
          "duration": 0.19583333333333997,
          "durationTicks": 94,
          "midi": 59,
          "name": "B3",
          "ticks": 44448,
          "time": 92.6,
          "velocity": 0.7244094488188977
        },
        {
          "duration": 0.19583333333333997,
          "durationTicks": 94,
          "midi": 62,
          "name": "D4",
          "ticks": 44448,
          "time": 92.6,
          "velocity": 0.7244094488188977
        },
        {
          "duration": 0.19583333333332575,
          "durationTicks": 94,
          "midi": 60,
          "name": "C4",
          "ticks": 44640,
          "time": 93,
          "velocity": 0.7244094488188977
        },
        {
          "duration": 0.19583333333332575,
          "durationTicks": 94,
          "midi": 63,
          "name": "D#4",
          "ticks": 44640,
          "time": 93,
          "velocity": 0.7244094488188977
        },
        {
          "duration": 0.19583333333332575,
          "durationTicks": 94,
          "midi": 60,
          "name": "C4",
          "ticks": 44832,
          "time": 93.4,
          "velocity": 0.7244094488188977
        },
        {
          "duration": 0.19583333333332575,
          "durationTicks": 94,
          "midi": 63,
          "name": "D#4",
          "ticks": 44832,
          "time": 93.4,
          "velocity": 0.7244094488188977
        },
        {
          "duration": 0.19583333333332575,
          "durationTicks": 94,
          "midi": 60,
          "name": "C4",
          "ticks": 45024,
          "time": 93.80000000000001,
          "velocity": 0.7244094488188977
        },
        {
          "duration": 0.19583333333332575,
          "durationTicks": 94,
          "midi": 63,
          "name": "D#4",
          "ticks": 45024,
          "time": 93.80000000000001,
          "velocity": 0.7244094488188977
        },
        {
          "duration": 0.19583333333333997,
          "durationTicks": 94,
          "midi": 60,
          "name": "C4",
          "ticks": 45216,
          "time": 94.2,
          "velocity": 0.7244094488188977
        },
        {
          "duration": 0.19583333333333997,
          "durationTicks": 94,
          "midi": 63,
          "name": "D#4",
          "ticks": 45216,
          "time": 94.2,
          "velocity": 0.7244094488188977
        },
        {
          "duration": 0.19583333333333997,
          "durationTicks": 94,
          "midi": 55,
          "name": "G3",
          "ticks": 45408,
          "time": 94.6,
          "velocity": 0.7244094488188977
        },
        {
          "duration": 0.19583333333333997,
          "durationTicks": 94,
          "midi": 58,
          "name": "A#3",
          "ticks": 45408,
          "time": 94.6,
          "velocity": 0.7244094488188977
        },
        {
          "duration": 0.19583333333332575,
          "durationTicks": 94,
          "midi": 55,
          "name": "G3",
          "ticks": 45600,
          "time": 95,
          "velocity": 0.7244094488188977
        },
        {
          "duration": 0.19583333333332575,
          "durationTicks": 94,
          "midi": 58,
          "name": "A#3",
          "ticks": 45600,
          "time": 95,
          "velocity": 0.7244094488188977
        },
        {
          "duration": 0.19583333333332575,
          "durationTicks": 94,
          "midi": 53,
          "name": "F3",
          "ticks": 45792,
          "time": 95.4,
          "velocity": 0.7244094488188977
        },
        {
          "duration": 0.19583333333332575,
          "durationTicks": 94,
          "midi": 56,
          "name": "G#3",
          "ticks": 45792,
          "time": 95.4,
          "velocity": 0.7244094488188977
        },
        {
          "duration": 0.19583333333332575,
          "durationTicks": 94,
          "midi": 56,
          "name": "G#3",
          "ticks": 45984,
          "time": 95.80000000000001,
          "velocity": 0.7244094488188977
        },
        {
          "duration": 0.19583333333332575,
          "durationTicks": 94,
          "midi": 61,
          "name": "C#4",
          "ticks": 45984,
          "time": 95.80000000000001,
          "velocity": 0.7244094488188977
        },
        {
          "duration": 0.19583333333333997,
          "durationTicks": 94,
          "midi": 56,
          "name": "G#3",
          "ticks": 46176,
          "time": 96.2,
          "velocity": 0.7244094488188977
        },
        {
          "duration": 0.19583333333333997,
          "durationTicks": 94,
          "midi": 60,
          "name": "C4",
          "ticks": 46176,
          "time": 96.2,
          "velocity": 0.7244094488188977
        },
        {
          "duration": 0.19583333333333997,
          "durationTicks": 94,
          "midi": 56,
          "name": "G#3",
          "ticks": 46368,
          "time": 96.6,
          "velocity": 0.7244094488188977
        },
        {
          "duration": 0.19583333333333997,
          "durationTicks": 94,
          "midi": 60,
          "name": "C4",
          "ticks": 46368,
          "time": 96.6,
          "velocity": 0.7244094488188977
        },
        {
          "duration": 0.19583333333332575,
          "durationTicks": 94,
          "midi": 56,
          "name": "G#3",
          "ticks": 46560,
          "time": 97,
          "velocity": 0.7244094488188977
        },
        {
          "duration": 0.19583333333332575,
          "durationTicks": 94,
          "midi": 60,
          "name": "C4",
          "ticks": 46560,
          "time": 97,
          "velocity": 0.7244094488188977
        },
        {
          "duration": 0.19583333333332575,
          "durationTicks": 94,
          "midi": 56,
          "name": "G#3",
          "ticks": 46752,
          "time": 97.4,
          "velocity": 0.7244094488188977
        },
        {
          "duration": 0.19583333333332575,
          "durationTicks": 94,
          "midi": 60,
          "name": "C4",
          "ticks": 46752,
          "time": 97.4,
          "velocity": 0.7244094488188977
        },
        {
          "duration": 0.19583333333332575,
          "durationTicks": 94,
          "midi": 59,
          "name": "B3",
          "ticks": 46944,
          "time": 97.80000000000001,
          "velocity": 0.7244094488188977
        },
        {
          "duration": 0.19583333333332575,
          "durationTicks": 94,
          "midi": 62,
          "name": "D4",
          "ticks": 46944,
          "time": 97.80000000000001,
          "velocity": 0.7244094488188977
        },
        {
          "duration": 0.19583333333333997,
          "durationTicks": 94,
          "midi": 59,
          "name": "B3",
          "ticks": 47136,
          "time": 98.2,
          "velocity": 0.7244094488188977
        },
        {
          "duration": 0.19583333333333997,
          "durationTicks": 94,
          "midi": 62,
          "name": "D4",
          "ticks": 47136,
          "time": 98.2,
          "velocity": 0.7244094488188977
        },
        {
          "duration": 0.19583333333333997,
          "durationTicks": 94,
          "midi": 59,
          "name": "B3",
          "ticks": 47328,
          "time": 98.6,
          "velocity": 0.7244094488188977
        },
        {
          "duration": 0.19583333333333997,
          "durationTicks": 94,
          "midi": 62,
          "name": "D4",
          "ticks": 47328,
          "time": 98.6,
          "velocity": 0.7244094488188977
        },
        {
          "duration": 0.19583333333332575,
          "durationTicks": 94,
          "midi": 59,
          "name": "B3",
          "ticks": 47520,
          "time": 99,
          "velocity": 0.7244094488188977
        },
        {
          "duration": 0.19583333333332575,
          "durationTicks": 94,
          "midi": 62,
          "name": "D4",
          "ticks": 47520,
          "time": 99,
          "velocity": 0.7244094488188977
        },
        {
          "duration": 0.19583333333332575,
          "durationTicks": 94,
          "midi": 60,
          "name": "C4",
          "ticks": 47712,
          "time": 99.4,
          "velocity": 0.7244094488188977
        },
        {
          "duration": 0.19583333333332575,
          "durationTicks": 94,
          "midi": 63,
          "name": "D#4",
          "ticks": 47712,
          "time": 99.4,
          "velocity": 0.7244094488188977
        },
        {
          "duration": 0.19583333333332575,
          "durationTicks": 94,
          "midi": 60,
          "name": "C4",
          "ticks": 47904,
          "time": 99.80000000000001,
          "velocity": 0.7244094488188977
        },
        {
          "duration": 0.19583333333332575,
          "durationTicks": 94,
          "midi": 63,
          "name": "D#4",
          "ticks": 47904,
          "time": 99.80000000000001,
          "velocity": 0.7244094488188977
        },
        {
          "duration": 0.19583333333333997,
          "durationTicks": 94,
          "midi": 60,
          "name": "C4",
          "ticks": 48096,
          "time": 100.2,
          "velocity": 0.7244094488188977
        },
        {
          "duration": 0.19583333333333997,
          "durationTicks": 94,
          "midi": 63,
          "name": "D#4",
          "ticks": 48096,
          "time": 100.2,
          "velocity": 0.7244094488188977
        },
        {
          "duration": 0.19583333333333997,
          "durationTicks": 94,
          "midi": 60,
          "name": "C4",
          "ticks": 48288,
          "time": 100.6,
          "velocity": 0.7244094488188977
        },
        {
          "duration": 0.19583333333333997,
          "durationTicks": 94,
          "midi": 63,
          "name": "D#4",
          "ticks": 48288,
          "time": 100.6,
          "velocity": 0.7244094488188977
        },
        {
          "duration": 0.19583333333332575,
          "durationTicks": 94,
          "midi": 56,
          "name": "G#3",
          "ticks": 48480,
          "time": 101,
          "velocity": 0.7244094488188977
        },
        {
          "duration": 0.19583333333332575,
          "durationTicks": 94,
          "midi": 62,
          "name": "D4",
          "ticks": 48480,
          "time": 101,
          "velocity": 0.7244094488188977
        },
        {
          "duration": 0.19583333333332575,
          "durationTicks": 94,
          "midi": 56,
          "name": "G#3",
          "ticks": 48672,
          "time": 101.4,
          "velocity": 0.7244094488188977
        },
        {
          "duration": 0.19583333333332575,
          "durationTicks": 94,
          "midi": 62,
          "name": "D4",
          "ticks": 48672,
          "time": 101.4,
          "velocity": 0.7244094488188977
        },
        {
          "duration": 0.19583333333332575,
          "durationTicks": 94,
          "midi": 55,
          "name": "G3",
          "ticks": 48864,
          "time": 101.80000000000001,
          "velocity": 0.7244094488188977
        },
        {
          "duration": 0.19583333333332575,
          "durationTicks": 94,
          "midi": 59,
          "name": "B3",
          "ticks": 48864,
          "time": 101.80000000000001,
          "velocity": 0.7244094488188977
        },
        {
          "duration": 0.19583333333333997,
          "durationTicks": 94,
          "midi": 55,
          "name": "G3",
          "ticks": 49056,
          "time": 102.2,
          "velocity": 0.7244094488188977
        },
        {
          "duration": 0.19583333333333997,
          "durationTicks": 94,
          "midi": 59,
          "name": "B3",
          "ticks": 49056,
          "time": 102.2,
          "velocity": 0.7244094488188977
        },
        {
          "duration": 0.19583333333333997,
          "durationTicks": 94,
          "midi": 56,
          "name": "G#3",
          "ticks": 49248,
          "time": 102.6,
          "velocity": 0.7244094488188977
        },
        {
          "duration": 0.19583333333333997,
          "durationTicks": 94,
          "midi": 60,
          "name": "C4",
          "ticks": 49248,
          "time": 102.6,
          "velocity": 0.7244094488188977
        },
        {
          "duration": 0.19583333333332575,
          "durationTicks": 94,
          "midi": 56,
          "name": "G#3",
          "ticks": 49440,
          "time": 103,
          "velocity": 0.7244094488188977
        },
        {
          "duration": 0.19583333333332575,
          "durationTicks": 94,
          "midi": 60,
          "name": "C4",
          "ticks": 49440,
          "time": 103,
          "velocity": 0.7244094488188977
        },
        {
          "duration": 0.19583333333332575,
          "durationTicks": 94,
          "midi": 56,
          "name": "G#3",
          "ticks": 49632,
          "time": 103.4,
          "velocity": 0.7244094488188977
        },
        {
          "duration": 0.19583333333332575,
          "durationTicks": 94,
          "midi": 60,
          "name": "C4",
          "ticks": 49632,
          "time": 103.4,
          "velocity": 0.7244094488188977
        },
        {
          "duration": 0.19583333333332575,
          "durationTicks": 94,
          "midi": 56,
          "name": "G#3",
          "ticks": 49824,
          "time": 103.80000000000001,
          "velocity": 0.7244094488188977
        },
        {
          "duration": 0.19583333333332575,
          "durationTicks": 94,
          "midi": 60,
          "name": "C4",
          "ticks": 49824,
          "time": 103.80000000000001,
          "velocity": 0.7244094488188977
        },
        {
          "duration": 0.19583333333333997,
          "durationTicks": 94,
          "midi": 59,
          "name": "B3",
          "ticks": 50016,
          "time": 104.2,
          "velocity": 0.7244094488188977
        },
        {
          "duration": 0.19583333333333997,
          "durationTicks": 94,
          "midi": 62,
          "name": "D4",
          "ticks": 50016,
          "time": 104.2,
          "velocity": 0.7244094488188977
        },
        {
          "duration": 0.19583333333333997,
          "durationTicks": 94,
          "midi": 59,
          "name": "B3",
          "ticks": 50208,
          "time": 104.6,
          "velocity": 0.7244094488188977
        },
        {
          "duration": 0.19583333333333997,
          "durationTicks": 94,
          "midi": 62,
          "name": "D4",
          "ticks": 50208,
          "time": 104.6,
          "velocity": 0.7244094488188977
        },
        {
          "duration": 0.19583333333332575,
          "durationTicks": 94,
          "midi": 59,
          "name": "B3",
          "ticks": 50400,
          "time": 105,
          "velocity": 0.7244094488188977
        },
        {
          "duration": 0.19583333333332575,
          "durationTicks": 94,
          "midi": 62,
          "name": "D4",
          "ticks": 50400,
          "time": 105,
          "velocity": 0.7244094488188977
        },
        {
          "duration": 0.19583333333332575,
          "durationTicks": 94,
          "midi": 59,
          "name": "B3",
          "ticks": 50592,
          "time": 105.4,
          "velocity": 0.7244094488188977
        },
        {
          "duration": 0.19583333333332575,
          "durationTicks": 94,
          "midi": 62,
          "name": "D4",
          "ticks": 50592,
          "time": 105.4,
          "velocity": 0.7244094488188977
        },
        {
          "duration": 0.19583333333332575,
          "durationTicks": 94,
          "midi": 60,
          "name": "C4",
          "ticks": 50784,
          "time": 105.80000000000001,
          "velocity": 0.7244094488188977
        },
        {
          "duration": 0.19583333333332575,
          "durationTicks": 94,
          "midi": 63,
          "name": "D#4",
          "ticks": 50784,
          "time": 105.80000000000001,
          "velocity": 0.7244094488188977
        },
        {
          "duration": 0.19583333333333997,
          "durationTicks": 94,
          "midi": 60,
          "name": "C4",
          "ticks": 50976,
          "time": 106.2,
          "velocity": 0.7244094488188977
        },
        {
          "duration": 0.19583333333333997,
          "durationTicks": 94,
          "midi": 63,
          "name": "D#4",
          "ticks": 50976,
          "time": 106.2,
          "velocity": 0.7244094488188977
        },
        {
          "duration": 0.19583333333333997,
          "durationTicks": 94,
          "midi": 60,
          "name": "C4",
          "ticks": 51168,
          "time": 106.6,
          "velocity": 0.7244094488188977
        },
        {
          "duration": 0.19583333333333997,
          "durationTicks": 94,
          "midi": 63,
          "name": "D#4",
          "ticks": 51168,
          "time": 106.6,
          "velocity": 0.7244094488188977
        },
        {
          "duration": 0.19583333333332575,
          "durationTicks": 94,
          "midi": 60,
          "name": "C4",
          "ticks": 51360,
          "time": 107,
          "velocity": 0.7244094488188977
        },
        {
          "duration": 0.19583333333332575,
          "durationTicks": 94,
          "midi": 63,
          "name": "D#4",
          "ticks": 51360,
          "time": 107,
          "velocity": 0.7244094488188977
        },
        {
          "duration": 0.19583333333332575,
          "durationTicks": 94,
          "midi": 55,
          "name": "G3",
          "ticks": 51552,
          "time": 107.4,
          "velocity": 0.7244094488188977
        },
        {
          "duration": 0.19583333333332575,
          "durationTicks": 94,
          "midi": 58,
          "name": "A#3",
          "ticks": 51552,
          "time": 107.4,
          "velocity": 0.7244094488188977
        },
        {
          "duration": 0.19583333333332575,
          "durationTicks": 94,
          "midi": 55,
          "name": "G3",
          "ticks": 51744,
          "time": 107.80000000000001,
          "velocity": 0.7244094488188977
        },
        {
          "duration": 0.19583333333332575,
          "durationTicks": 94,
          "midi": 58,
          "name": "A#3",
          "ticks": 51744,
          "time": 107.80000000000001,
          "velocity": 0.7244094488188977
        },
        {
          "duration": 0.19583333333333997,
          "durationTicks": 94,
          "midi": 53,
          "name": "F3",
          "ticks": 51936,
          "time": 108.2,
          "velocity": 0.7244094488188977
        },
        {
          "duration": 0.19583333333333997,
          "durationTicks": 94,
          "midi": 56,
          "name": "G#3",
          "ticks": 51936,
          "time": 108.2,
          "velocity": 0.7244094488188977
        },
        {
          "duration": 0.19583333333333997,
          "durationTicks": 94,
          "midi": 56,
          "name": "G#3",
          "ticks": 52128,
          "time": 108.6,
          "velocity": 0.7244094488188977
        },
        {
          "duration": 0.19583333333333997,
          "durationTicks": 94,
          "midi": 61,
          "name": "C#4",
          "ticks": 52128,
          "time": 108.6,
          "velocity": 0.7244094488188977
        },
        {
          "duration": 0.19583333333332575,
          "durationTicks": 94,
          "midi": 56,
          "name": "G#3",
          "ticks": 70752,
          "time": 147.4,
          "velocity": 0.7244094488188977
        },
        {
          "duration": 0.19583333333332575,
          "durationTicks": 94,
          "midi": 60,
          "name": "C4",
          "ticks": 70752,
          "time": 147.4,
          "velocity": 0.7244094488188977
        },
        {
          "duration": 0.19583333333332575,
          "durationTicks": 94,
          "midi": 56,
          "name": "G#3",
          "ticks": 70944,
          "time": 147.8,
          "velocity": 0.7244094488188977
        },
        {
          "duration": 0.19583333333332575,
          "durationTicks": 94,
          "midi": 60,
          "name": "C4",
          "ticks": 70944,
          "time": 147.8,
          "velocity": 0.7244094488188977
        },
        {
          "duration": 0.19583333333335418,
          "durationTicks": 94,
          "midi": 56,
          "name": "G#3",
          "ticks": 71136,
          "time": 148.2,
          "velocity": 0.7244094488188977
        },
        {
          "duration": 0.19583333333335418,
          "durationTicks": 94,
          "midi": 60,
          "name": "C4",
          "ticks": 71136,
          "time": 148.2,
          "velocity": 0.7244094488188977
        },
        {
          "duration": 0.19583333333335418,
          "durationTicks": 94,
          "midi": 56,
          "name": "G#3",
          "ticks": 71328,
          "time": 148.6,
          "velocity": 0.7244094488188977
        },
        {
          "duration": 0.19583333333335418,
          "durationTicks": 94,
          "midi": 60,
          "name": "C4",
          "ticks": 71328,
          "time": 148.6,
          "velocity": 0.7244094488188977
        },
        {
          "duration": 0.19583333333332575,
          "durationTicks": 94,
          "midi": 59,
          "name": "B3",
          "ticks": 71520,
          "time": 149,
          "velocity": 0.7244094488188977
        },
        {
          "duration": 0.19583333333332575,
          "durationTicks": 94,
          "midi": 62,
          "name": "D4",
          "ticks": 71520,
          "time": 149,
          "velocity": 0.7244094488188977
        },
        {
          "duration": 0.19583333333332575,
          "durationTicks": 94,
          "midi": 59,
          "name": "B3",
          "ticks": 71712,
          "time": 149.4,
          "velocity": 0.7244094488188977
        },
        {
          "duration": 0.19583333333332575,
          "durationTicks": 94,
          "midi": 62,
          "name": "D4",
          "ticks": 71712,
          "time": 149.4,
          "velocity": 0.7244094488188977
        },
        {
          "duration": 0.19583333333332575,
          "durationTicks": 94,
          "midi": 59,
          "name": "B3",
          "ticks": 71904,
          "time": 149.8,
          "velocity": 0.7244094488188977
        },
        {
          "duration": 0.19583333333332575,
          "durationTicks": 94,
          "midi": 62,
          "name": "D4",
          "ticks": 71904,
          "time": 149.8,
          "velocity": 0.7244094488188977
        },
        {
          "duration": 0.19583333333335418,
          "durationTicks": 94,
          "midi": 59,
          "name": "B3",
          "ticks": 72096,
          "time": 150.2,
          "velocity": 0.7244094488188977
        },
        {
          "duration": 0.19583333333335418,
          "durationTicks": 94,
          "midi": 62,
          "name": "D4",
          "ticks": 72096,
          "time": 150.2,
          "velocity": 0.7244094488188977
        },
        {
          "duration": 0.19583333333335418,
          "durationTicks": 94,
          "midi": 60,
          "name": "C4",
          "ticks": 72288,
          "time": 150.6,
          "velocity": 0.7244094488188977
        },
        {
          "duration": 0.19583333333335418,
          "durationTicks": 94,
          "midi": 63,
          "name": "D#4",
          "ticks": 72288,
          "time": 150.6,
          "velocity": 0.7244094488188977
        },
        {
          "duration": 0.19583333333332575,
          "durationTicks": 94,
          "midi": 60,
          "name": "C4",
          "ticks": 72480,
          "time": 151,
          "velocity": 0.7244094488188977
        },
        {
          "duration": 0.19583333333332575,
          "durationTicks": 94,
          "midi": 63,
          "name": "D#4",
          "ticks": 72480,
          "time": 151,
          "velocity": 0.7244094488188977
        },
        {
          "duration": 0.19583333333332575,
          "durationTicks": 94,
          "midi": 60,
          "name": "C4",
          "ticks": 72672,
          "time": 151.4,
          "velocity": 0.7244094488188977
        },
        {
          "duration": 0.19583333333332575,
          "durationTicks": 94,
          "midi": 63,
          "name": "D#4",
          "ticks": 72672,
          "time": 151.4,
          "velocity": 0.7244094488188977
        },
        {
          "duration": 0.19583333333332575,
          "durationTicks": 94,
          "midi": 60,
          "name": "C4",
          "ticks": 72864,
          "time": 151.8,
          "velocity": 0.7244094488188977
        },
        {
          "duration": 0.19583333333332575,
          "durationTicks": 94,
          "midi": 63,
          "name": "D#4",
          "ticks": 72864,
          "time": 151.8,
          "velocity": 0.7244094488188977
        },
        {
          "duration": 0.19583333333335418,
          "durationTicks": 94,
          "midi": 55,
          "name": "G3",
          "ticks": 73056,
          "time": 152.2,
          "velocity": 0.7244094488188977
        },
        {
          "duration": 0.19583333333335418,
          "durationTicks": 94,
          "midi": 58,
          "name": "A#3",
          "ticks": 73056,
          "time": 152.2,
          "velocity": 0.7244094488188977
        },
        {
          "duration": 0.19583333333335418,
          "durationTicks": 94,
          "midi": 55,
          "name": "G3",
          "ticks": 73248,
          "time": 152.6,
          "velocity": 0.7244094488188977
        },
        {
          "duration": 0.19583333333335418,
          "durationTicks": 94,
          "midi": 58,
          "name": "A#3",
          "ticks": 73248,
          "time": 152.6,
          "velocity": 0.7244094488188977
        },
        {
          "duration": 0.19583333333332575,
          "durationTicks": 94,
          "midi": 53,
          "name": "F3",
          "ticks": 73440,
          "time": 153,
          "velocity": 0.7244094488188977
        },
        {
          "duration": 0.19583333333332575,
          "durationTicks": 94,
          "midi": 56,
          "name": "G#3",
          "ticks": 73440,
          "time": 153,
          "velocity": 0.7244094488188977
        },
        {
          "duration": 0.19583333333332575,
          "durationTicks": 94,
          "midi": 56,
          "name": "G#3",
          "ticks": 73632,
          "time": 153.4,
          "velocity": 0.7244094488188977
        },
        {
          "duration": 0.19583333333332575,
          "durationTicks": 94,
          "midi": 61,
          "name": "C#4",
          "ticks": 73632,
          "time": 153.4,
          "velocity": 0.7244094488188977
        },
        {
          "duration": 0.19583333333332575,
          "durationTicks": 94,
          "midi": 56,
          "name": "G#3",
          "ticks": 73824,
          "time": 153.8,
          "velocity": 0.7244094488188977
        },
        {
          "duration": 0.19583333333332575,
          "durationTicks": 94,
          "midi": 60,
          "name": "C4",
          "ticks": 73824,
          "time": 153.8,
          "velocity": 0.7244094488188977
        },
        {
          "duration": 0.19583333333335418,
          "durationTicks": 94,
          "midi": 56,
          "name": "G#3",
          "ticks": 74016,
          "time": 154.2,
          "velocity": 0.7244094488188977
        },
        {
          "duration": 0.19583333333335418,
          "durationTicks": 94,
          "midi": 60,
          "name": "C4",
          "ticks": 74016,
          "time": 154.2,
          "velocity": 0.7244094488188977
        },
        {
          "duration": 0.19583333333332575,
          "durationTicks": 94,
          "midi": 56,
          "name": "G#3",
          "ticks": 74208,
          "time": 154.60000000000002,
          "velocity": 0.7244094488188977
        },
        {
          "duration": 0.19583333333332575,
          "durationTicks": 94,
          "midi": 60,
          "name": "C4",
          "ticks": 74208,
          "time": 154.60000000000002,
          "velocity": 0.7244094488188977
        },
        {
          "duration": 0.19583333333332575,
          "durationTicks": 94,
          "midi": 56,
          "name": "G#3",
          "ticks": 74400,
          "time": 155,
          "velocity": 0.7244094488188977
        },
        {
          "duration": 0.19583333333332575,
          "durationTicks": 94,
          "midi": 60,
          "name": "C4",
          "ticks": 74400,
          "time": 155,
          "velocity": 0.7244094488188977
        },
        {
          "duration": 0.19583333333332575,
          "durationTicks": 94,
          "midi": 59,
          "name": "B3",
          "ticks": 74592,
          "time": 155.4,
          "velocity": 0.7244094488188977
        },
        {
          "duration": 0.19583333333332575,
          "durationTicks": 94,
          "midi": 62,
          "name": "D4",
          "ticks": 74592,
          "time": 155.4,
          "velocity": 0.7244094488188977
        },
        {
          "duration": 0.19583333333332575,
          "durationTicks": 94,
          "midi": 59,
          "name": "B3",
          "ticks": 74784,
          "time": 155.8,
          "velocity": 0.7244094488188977
        },
        {
          "duration": 0.19583333333332575,
          "durationTicks": 94,
          "midi": 62,
          "name": "D4",
          "ticks": 74784,
          "time": 155.8,
          "velocity": 0.7244094488188977
        },
        {
          "duration": 0.19583333333335418,
          "durationTicks": 94,
          "midi": 59,
          "name": "B3",
          "ticks": 74976,
          "time": 156.2,
          "velocity": 0.7244094488188977
        },
        {
          "duration": 0.19583333333335418,
          "durationTicks": 94,
          "midi": 62,
          "name": "D4",
          "ticks": 74976,
          "time": 156.2,
          "velocity": 0.7244094488188977
        },
        {
          "duration": 0.19583333333332575,
          "durationTicks": 94,
          "midi": 59,
          "name": "B3",
          "ticks": 75168,
          "time": 156.60000000000002,
          "velocity": 0.7244094488188977
        },
        {
          "duration": 0.19583333333332575,
          "durationTicks": 94,
          "midi": 62,
          "name": "D4",
          "ticks": 75168,
          "time": 156.60000000000002,
          "velocity": 0.7244094488188977
        },
        {
          "duration": 0.19583333333332575,
          "durationTicks": 94,
          "midi": 60,
          "name": "C4",
          "ticks": 75360,
          "time": 157,
          "velocity": 0.7244094488188977
        },
        {
          "duration": 0.19583333333332575,
          "durationTicks": 94,
          "midi": 63,
          "name": "D#4",
          "ticks": 75360,
          "time": 157,
          "velocity": 0.7244094488188977
        },
        {
          "duration": 0.19583333333332575,
          "durationTicks": 94,
          "midi": 60,
          "name": "C4",
          "ticks": 75552,
          "time": 157.4,
          "velocity": 0.7244094488188977
        },
        {
          "duration": 0.19583333333332575,
          "durationTicks": 94,
          "midi": 63,
          "name": "D#4",
          "ticks": 75552,
          "time": 157.4,
          "velocity": 0.7244094488188977
        },
        {
          "duration": 0.19583333333332575,
          "durationTicks": 94,
          "midi": 60,
          "name": "C4",
          "ticks": 75744,
          "time": 157.8,
          "velocity": 0.7244094488188977
        },
        {
          "duration": 0.19583333333332575,
          "durationTicks": 94,
          "midi": 63,
          "name": "D#4",
          "ticks": 75744,
          "time": 157.8,
          "velocity": 0.7244094488188977
        },
        {
          "duration": 0.19583333333335418,
          "durationTicks": 94,
          "midi": 60,
          "name": "C4",
          "ticks": 75936,
          "time": 158.2,
          "velocity": 0.7244094488188977
        },
        {
          "duration": 0.19583333333335418,
          "durationTicks": 94,
          "midi": 63,
          "name": "D#4",
          "ticks": 75936,
          "time": 158.2,
          "velocity": 0.7244094488188977
        },
        {
          "duration": 0.19583333333332575,
          "durationTicks": 94,
          "midi": 56,
          "name": "G#3",
          "ticks": 76128,
          "time": 158.60000000000002,
          "velocity": 0.7244094488188977
        },
        {
          "duration": 0.19583333333332575,
          "durationTicks": 94,
          "midi": 62,
          "name": "D4",
          "ticks": 76128,
          "time": 158.60000000000002,
          "velocity": 0.7244094488188977
        },
        {
          "duration": 0.19583333333332575,
          "durationTicks": 94,
          "midi": 56,
          "name": "G#3",
          "ticks": 76320,
          "time": 159,
          "velocity": 0.7244094488188977
        },
        {
          "duration": 0.19583333333332575,
          "durationTicks": 94,
          "midi": 62,
          "name": "D4",
          "ticks": 76320,
          "time": 159,
          "velocity": 0.7244094488188977
        },
        {
          "duration": 0.19583333333332575,
          "durationTicks": 94,
          "midi": 55,
          "name": "G3",
          "ticks": 76512,
          "time": 159.4,
          "velocity": 0.7244094488188977
        },
        {
          "duration": 0.19583333333332575,
          "durationTicks": 94,
          "midi": 59,
          "name": "B3",
          "ticks": 76512,
          "time": 159.4,
          "velocity": 0.7244094488188977
        },
        {
          "duration": 0.19583333333332575,
          "durationTicks": 94,
          "midi": 55,
          "name": "G3",
          "ticks": 76704,
          "time": 159.8,
          "velocity": 0.7244094488188977
        },
        {
          "duration": 0.19583333333332575,
          "durationTicks": 94,
          "midi": 59,
          "name": "B3",
          "ticks": 76704,
          "time": 159.8,
          "velocity": 0.7244094488188977
        },
        {
          "duration": 0.19583333333335418,
          "durationTicks": 94,
          "midi": 56,
          "name": "G#3",
          "ticks": 76896,
          "time": 160.2,
          "velocity": 0.7244094488188977
        },
        {
          "duration": 0.19583333333335418,
          "durationTicks": 94,
          "midi": 60,
          "name": "C4",
          "ticks": 76896,
          "time": 160.2,
          "velocity": 0.7244094488188977
        },
        {
          "duration": 0.19583333333332575,
          "durationTicks": 94,
          "midi": 56,
          "name": "G#3",
          "ticks": 77088,
          "time": 160.60000000000002,
          "velocity": 0.7244094488188977
        },
        {
          "duration": 0.19583333333332575,
          "durationTicks": 94,
          "midi": 60,
          "name": "C4",
          "ticks": 77088,
          "time": 160.60000000000002,
          "velocity": 0.7244094488188977
        },
        {
          "duration": 0.19583333333332575,
          "durationTicks": 94,
          "midi": 56,
          "name": "G#3",
          "ticks": 77280,
          "time": 161,
          "velocity": 0.7244094488188977
        },
        {
          "duration": 0.19583333333332575,
          "durationTicks": 94,
          "midi": 60,
          "name": "C4",
          "ticks": 77280,
          "time": 161,
          "velocity": 0.7244094488188977
        },
        {
          "duration": 0.19583333333332575,
          "durationTicks": 94,
          "midi": 56,
          "name": "G#3",
          "ticks": 77472,
          "time": 161.4,
          "velocity": 0.7244094488188977
        },
        {
          "duration": 0.19583333333332575,
          "durationTicks": 94,
          "midi": 60,
          "name": "C4",
          "ticks": 77472,
          "time": 161.4,
          "velocity": 0.7244094488188977
        },
        {
          "duration": 0.19583333333332575,
          "durationTicks": 94,
          "midi": 59,
          "name": "B3",
          "ticks": 77664,
          "time": 161.8,
          "velocity": 0.7244094488188977
        },
        {
          "duration": 0.19583333333332575,
          "durationTicks": 94,
          "midi": 62,
          "name": "D4",
          "ticks": 77664,
          "time": 161.8,
          "velocity": 0.7244094488188977
        },
        {
          "duration": 0.19583333333335418,
          "durationTicks": 94,
          "midi": 59,
          "name": "B3",
          "ticks": 77856,
          "time": 162.2,
          "velocity": 0.7244094488188977
        },
        {
          "duration": 0.19583333333335418,
          "durationTicks": 94,
          "midi": 62,
          "name": "D4",
          "ticks": 77856,
          "time": 162.2,
          "velocity": 0.7244094488188977
        },
        {
          "duration": 0.19583333333332575,
          "durationTicks": 94,
          "midi": 59,
          "name": "B3",
          "ticks": 78048,
          "time": 162.60000000000002,
          "velocity": 0.7244094488188977
        },
        {
          "duration": 0.19583333333332575,
          "durationTicks": 94,
          "midi": 62,
          "name": "D4",
          "ticks": 78048,
          "time": 162.60000000000002,
          "velocity": 0.7244094488188977
        },
        {
          "duration": 0.19583333333332575,
          "durationTicks": 94,
          "midi": 59,
          "name": "B3",
          "ticks": 78240,
          "time": 163,
          "velocity": 0.7244094488188977
        },
        {
          "duration": 0.19583333333332575,
          "durationTicks": 94,
          "midi": 62,
          "name": "D4",
          "ticks": 78240,
          "time": 163,
          "velocity": 0.7244094488188977
        },
        {
          "duration": 0.19583333333332575,
          "durationTicks": 94,
          "midi": 60,
          "name": "C4",
          "ticks": 78432,
          "time": 163.4,
          "velocity": 0.7244094488188977
        },
        {
          "duration": 0.19583333333332575,
          "durationTicks": 94,
          "midi": 63,
          "name": "D#4",
          "ticks": 78432,
          "time": 163.4,
          "velocity": 0.7244094488188977
        },
        {
          "duration": 0.19583333333332575,
          "durationTicks": 94,
          "midi": 60,
          "name": "C4",
          "ticks": 78624,
          "time": 163.8,
          "velocity": 0.7244094488188977
        },
        {
          "duration": 0.19583333333332575,
          "durationTicks": 94,
          "midi": 63,
          "name": "D#4",
          "ticks": 78624,
          "time": 163.8,
          "velocity": 0.7244094488188977
        },
        {
          "duration": 0.19583333333335418,
          "durationTicks": 94,
          "midi": 60,
          "name": "C4",
          "ticks": 78816,
          "time": 164.2,
          "velocity": 0.7244094488188977
        },
        {
          "duration": 0.19583333333335418,
          "durationTicks": 94,
          "midi": 63,
          "name": "D#4",
          "ticks": 78816,
          "time": 164.2,
          "velocity": 0.7244094488188977
        },
        {
          "duration": 0.19583333333332575,
          "durationTicks": 94,
          "midi": 60,
          "name": "C4",
          "ticks": 79008,
          "time": 164.60000000000002,
          "velocity": 0.7244094488188977
        },
        {
          "duration": 0.19583333333332575,
          "durationTicks": 94,
          "midi": 63,
          "name": "D#4",
          "ticks": 79008,
          "time": 164.60000000000002,
          "velocity": 0.7244094488188977
        },
        {
          "duration": 0.19583333333332575,
          "durationTicks": 94,
          "midi": 55,
          "name": "G3",
          "ticks": 79200,
          "time": 165,
          "velocity": 0.7244094488188977
        },
        {
          "duration": 0.19583333333332575,
          "durationTicks": 94,
          "midi": 58,
          "name": "A#3",
          "ticks": 79200,
          "time": 165,
          "velocity": 0.7244094488188977
        },
        {
          "duration": 0.19583333333332575,
          "durationTicks": 94,
          "midi": 55,
          "name": "G3",
          "ticks": 79392,
          "time": 165.4,
          "velocity": 0.7244094488188977
        },
        {
          "duration": 0.19583333333332575,
          "durationTicks": 94,
          "midi": 58,
          "name": "A#3",
          "ticks": 79392,
          "time": 165.4,
          "velocity": 0.7244094488188977
        },
        {
          "duration": 0.19583333333332575,
          "durationTicks": 94,
          "midi": 53,
          "name": "F3",
          "ticks": 79584,
          "time": 165.8,
          "velocity": 0.7244094488188977
        },
        {
          "duration": 0.19583333333332575,
          "durationTicks": 94,
          "midi": 56,
          "name": "G#3",
          "ticks": 79584,
          "time": 165.8,
          "velocity": 0.7244094488188977
        },
        {
          "duration": 0.19583333333335418,
          "durationTicks": 94,
          "midi": 56,
          "name": "G#3",
          "ticks": 79776,
          "time": 166.2,
          "velocity": 0.7244094488188977
        },
        {
          "duration": 0.19583333333335418,
          "durationTicks": 94,
          "midi": 61,
          "name": "C#4",
          "ticks": 79776,
          "time": 166.2,
          "velocity": 0.7244094488188977
        }
      ],
      "endOfTrackTicks": 79870
    },
    {
      "channel": 10,
      "controlChanges": {
        "7": [
          {
            "number": 7,
            "ticks": 0,
            "time": 0,
            "value": 1
          }
        ],
        "10": [
          {
            "number": 10,
            "ticks": 0,
            "time": 0,
            "value": 0.5039370078740157
          }
        ]
      },
      "pitchBends": [],
      "instrument": {
        "family": "synth lead",
        "number": 81,
        "name": "lead 2 (sawtooth)"
      },
      "name": "Staff-2",
      "notes": [
        {
          "duration": 0.09583333333333333,
          "durationTicks": 46,
          "midi": 51,
          "name": "D#3",
          "ticks": 96,
          "time": 0.2,
          "velocity": 0.8503937007874016
        },
        {
          "duration": 0.09583333333333333,
          "durationTicks": 46,
          "midi": 55,
          "name": "G3",
          "ticks": 96,
          "time": 0.2,
          "velocity": 0.8503937007874016
        },
        {
          "duration": 0.09583333333333321,
          "durationTicks": 46,
          "midi": 54,
          "name": "F#3",
          "ticks": 288,
          "time": 0.6000000000000001,
          "velocity": 0.8503937007874016
        },
        {
          "duration": 0.09583333333333321,
          "durationTicks": 46,
          "midi": 57,
          "name": "A3",
          "ticks": 288,
          "time": 0.6000000000000001,
          "velocity": 0.8503937007874016
        },
        {
          "duration": 0.09583333333333344,
          "durationTicks": 46,
          "midi": 51,
          "name": "D#3",
          "ticks": 480,
          "time": 1,
          "velocity": 0.8503937007874016
        },
        {
          "duration": 0.09583333333333344,
          "durationTicks": 46,
          "midi": 55,
          "name": "G3",
          "ticks": 480,
          "time": 1,
          "velocity": 0.8503937007874016
        },
        {
          "duration": 0.09583333333333344,
          "durationTicks": 46,
          "midi": 50,
          "name": "D3",
          "ticks": 672,
          "time": 1.4000000000000001,
          "velocity": 0.8503937007874016
        },
        {
          "duration": 0.09583333333333344,
          "durationTicks": 46,
          "midi": 54,
          "name": "F#3",
          "ticks": 672,
          "time": 1.4000000000000001,
          "velocity": 0.8503937007874016
        },
        {
          "duration": 0.09583333333333321,
          "durationTicks": 46,
          "midi": 51,
          "name": "D#3",
          "ticks": 864,
          "time": 1.8,
          "velocity": 0.8503937007874016
        },
        {
          "duration": 0.09583333333333321,
          "durationTicks": 46,
          "midi": 55,
          "name": "G3",
          "ticks": 864,
          "time": 1.8,
          "velocity": 0.8503937007874016
        },
        {
          "duration": 0.09583333333333321,
          "durationTicks": 46,
          "midi": 54,
          "name": "F#3",
          "ticks": 1056,
          "time": 2.2,
          "velocity": 0.8503937007874016
        },
        {
          "duration": 0.09583333333333321,
          "durationTicks": 46,
          "midi": 57,
          "name": "A3",
          "ticks": 1056,
          "time": 2.2,
          "velocity": 0.8503937007874016
        },
        {
          "duration": 0.09583333333333321,
          "durationTicks": 46,
          "midi": 51,
          "name": "D#3",
          "ticks": 1248,
          "time": 2.6,
          "velocity": 0.8503937007874016
        },
        {
          "duration": 0.09583333333333321,
          "durationTicks": 46,
          "midi": 55,
          "name": "G3",
          "ticks": 1248,
          "time": 2.6,
          "velocity": 0.8503937007874016
        },
        {
          "duration": 0.09583333333333321,
          "durationTicks": 46,
          "midi": 50,
          "name": "D3",
          "ticks": 1440,
          "time": 3,
          "velocity": 0.8503937007874016
        },
        {
          "duration": 0.09583333333333321,
          "durationTicks": 46,
          "midi": 54,
          "name": "F#3",
          "ticks": 1440,
          "time": 3,
          "velocity": 0.8503937007874016
        },
        {
          "duration": 0.09583333333333321,
          "durationTicks": 46,
          "midi": 51,
          "name": "D#3",
          "ticks": 1632,
          "time": 3.4000000000000004,
          "velocity": 0.8503937007874016
        },
        {
          "duration": 0.09583333333333321,
          "durationTicks": 46,
          "midi": 55,
          "name": "G3",
          "ticks": 1632,
          "time": 3.4000000000000004,
          "velocity": 0.8503937007874016
        },
        {
          "duration": 0.09583333333333366,
          "durationTicks": 46,
          "midi": 54,
          "name": "F#3",
          "ticks": 1824,
          "time": 3.8000000000000003,
          "velocity": 0.8503937007874016
        },
        {
          "duration": 0.09583333333333366,
          "durationTicks": 46,
          "midi": 57,
          "name": "A3",
          "ticks": 1824,
          "time": 3.8000000000000003,
          "velocity": 0.8503937007874016
        },
        {
          "duration": 0.09583333333333321,
          "durationTicks": 46,
          "midi": 51,
          "name": "D#3",
          "ticks": 2016,
          "time": 4.2,
          "velocity": 0.8503937007874016
        },
        {
          "duration": 0.09583333333333321,
          "durationTicks": 46,
          "midi": 55,
          "name": "G3",
          "ticks": 2016,
          "time": 4.2,
          "velocity": 0.8503937007874016
        },
        {
          "duration": 0.09583333333333321,
          "durationTicks": 46,
          "midi": 50,
          "name": "D3",
          "ticks": 2208,
          "time": 4.6000000000000005,
          "velocity": 0.8503937007874016
        },
        {
          "duration": 0.09583333333333321,
          "durationTicks": 46,
          "midi": 54,
          "name": "F#3",
          "ticks": 2208,
          "time": 4.6000000000000005,
          "velocity": 0.8503937007874016
        },
        {
          "duration": 0.0958333333333341,
          "durationTicks": 46,
          "midi": 51,
          "name": "D#3",
          "ticks": 2400,
          "time": 5,
          "velocity": 0.8503937007874016
        },
        {
          "duration": 0.0958333333333341,
          "durationTicks": 46,
          "midi": 55,
          "name": "G3",
          "ticks": 2400,
          "time": 5,
          "velocity": 0.8503937007874016
        },
        {
          "duration": 0.09583333333333321,
          "durationTicks": 46,
          "midi": 54,
          "name": "F#3",
          "ticks": 2592,
          "time": 5.4,
          "velocity": 0.8503937007874016
        },
        {
          "duration": 0.09583333333333321,
          "durationTicks": 46,
          "midi": 57,
          "name": "A3",
          "ticks": 2592,
          "time": 5.4,
          "velocity": 0.8503937007874016
        },
        {
          "duration": 0.09583333333333321,
          "durationTicks": 46,
          "midi": 51,
          "name": "D#3",
          "ticks": 2784,
          "time": 5.800000000000001,
          "velocity": 0.8503937007874016
        },
        {
          "duration": 0.09583333333333321,
          "durationTicks": 46,
          "midi": 55,
          "name": "G3",
          "ticks": 2784,
          "time": 5.800000000000001,
          "velocity": 0.8503937007874016
        },
        {
          "duration": 0.0958333333333341,
          "durationTicks": 46,
          "midi": 50,
          "name": "D3",
          "ticks": 2976,
          "time": 6.2,
          "velocity": 0.8503937007874016
        },
        {
          "duration": 0.0958333333333341,
          "durationTicks": 46,
          "midi": 54,
          "name": "F#3",
          "ticks": 2976,
          "time": 6.2,
          "velocity": 0.8503937007874016
        },
        {
          "duration": 0.09583333333333233,
          "durationTicks": 46,
          "midi": 51,
          "name": "D#3",
          "ticks": 3168,
          "time": 6.6000000000000005,
          "velocity": 0.8503937007874016
        },
        {
          "duration": 0.09583333333333233,
          "durationTicks": 46,
          "midi": 55,
          "name": "G3",
          "ticks": 3168,
          "time": 6.6000000000000005,
          "velocity": 0.8503937007874016
        },
        {
          "duration": 0.09583333333333321,
          "durationTicks": 46,
          "midi": 54,
          "name": "F#3",
          "ticks": 3360,
          "time": 7,
          "velocity": 0.8503937007874016
        },
        {
          "duration": 0.09583333333333321,
          "durationTicks": 46,
          "midi": 57,
          "name": "A3",
          "ticks": 3360,
          "time": 7,
          "velocity": 0.8503937007874016
        },
        {
          "duration": 0.09583333333333321,
          "durationTicks": 46,
          "midi": 51,
          "name": "D#3",
          "ticks": 3552,
          "time": 7.4,
          "velocity": 0.8503937007874016
        },
        {
          "duration": 0.09583333333333321,
          "durationTicks": 46,
          "midi": 55,
          "name": "G3",
          "ticks": 3552,
          "time": 7.4,
          "velocity": 0.8503937007874016
        },
        {
          "duration": 0.09583333333333233,
          "durationTicks": 46,
          "midi": 50,
          "name": "D3",
          "ticks": 3744,
          "time": 7.800000000000001,
          "velocity": 0.8503937007874016
        },
        {
          "duration": 0.09583333333333233,
          "durationTicks": 46,
          "midi": 54,
          "name": "F#3",
          "ticks": 3744,
          "time": 7.800000000000001,
          "velocity": 0.8503937007874016
        },
        {
          "duration": 0.09583333333333144,
          "durationTicks": 46,
          "midi": 51,
          "name": "D#3",
          "ticks": 3936,
          "time": 8.200000000000001,
          "velocity": 0.8503937007874016
        },
        {
          "duration": 0.09583333333333144,
          "durationTicks": 46,
          "midi": 55,
          "name": "G3",
          "ticks": 3936,
          "time": 8.200000000000001,
          "velocity": 0.8503937007874016
        },
        {
          "duration": 0.09583333333333321,
          "durationTicks": 46,
          "midi": 54,
          "name": "F#3",
          "ticks": 4128,
          "time": 8.6,
          "velocity": 0.8503937007874016
        },
        {
          "duration": 0.09583333333333321,
          "durationTicks": 46,
          "midi": 57,
          "name": "A3",
          "ticks": 4128,
          "time": 8.6,
          "velocity": 0.8503937007874016
        },
        {
          "duration": 0.09583333333333321,
          "durationTicks": 46,
          "midi": 51,
          "name": "D#3",
          "ticks": 4320,
          "time": 9,
          "velocity": 0.8503937007874016
        },
        {
          "duration": 0.09583333333333321,
          "durationTicks": 46,
          "midi": 55,
          "name": "G3",
          "ticks": 4320,
          "time": 9,
          "velocity": 0.8503937007874016
        },
        {
          "duration": 0.09583333333333321,
          "durationTicks": 46,
          "midi": 50,
          "name": "D3",
          "ticks": 4512,
          "time": 9.4,
          "velocity": 0.8503937007874016
        },
        {
          "duration": 0.09583333333333321,
          "durationTicks": 46,
          "midi": 54,
          "name": "F#3",
          "ticks": 4512,
          "time": 9.4,
          "velocity": 0.8503937007874016
        },
        {
          "duration": 0.09583333333333321,
          "durationTicks": 46,
          "midi": 51,
          "name": "D#3",
          "ticks": 4704,
          "time": 9.8,
          "velocity": 0.8503937007874016
        },
        {
          "duration": 0.09583333333333321,
          "durationTicks": 46,
          "midi": 55,
          "name": "G3",
          "ticks": 4704,
          "time": 9.8,
          "velocity": 0.8503937007874016
        },
        {
          "duration": 0.09583333333333321,
          "durationTicks": 46,
          "midi": 54,
          "name": "F#3",
          "ticks": 4896,
          "time": 10.200000000000001,
          "velocity": 0.8503937007874016
        },
        {
          "duration": 0.09583333333333321,
          "durationTicks": 46,
          "midi": 57,
          "name": "A3",
          "ticks": 4896,
          "time": 10.200000000000001,
          "velocity": 0.8503937007874016
        },
        {
          "duration": 0.09583333333333144,
          "durationTicks": 46,
          "midi": 51,
          "name": "D#3",
          "ticks": 5088,
          "time": 10.600000000000001,
          "velocity": 0.8503937007874016
        },
        {
          "duration": 0.09583333333333144,
          "durationTicks": 46,
          "midi": 55,
          "name": "G3",
          "ticks": 5088,
          "time": 10.600000000000001,
          "velocity": 0.8503937007874016
        },
        {
          "duration": 0.09583333333333321,
          "durationTicks": 46,
          "midi": 50,
          "name": "D3",
          "ticks": 5280,
          "time": 11,
          "velocity": 0.8503937007874016
        },
        {
          "duration": 0.09583333333333321,
          "durationTicks": 46,
          "midi": 54,
          "name": "F#3",
          "ticks": 5280,
          "time": 11,
          "velocity": 0.8503937007874016
        },
        {
          "duration": 0.09583333333333321,
          "durationTicks": 46,
          "midi": 51,
          "name": "D#3",
          "ticks": 5472,
          "time": 11.4,
          "velocity": 0.8503937007874016
        },
        {
          "duration": 0.09583333333333321,
          "durationTicks": 46,
          "midi": 55,
          "name": "G3",
          "ticks": 5472,
          "time": 11.4,
          "velocity": 0.8503937007874016
        },
        {
          "duration": 0.09583333333333321,
          "durationTicks": 46,
          "midi": 54,
          "name": "F#3",
          "ticks": 5664,
          "time": 11.8,
          "velocity": 0.8503937007874016
        },
        {
          "duration": 0.09583333333333321,
          "durationTicks": 46,
          "midi": 57,
          "name": "A3",
          "ticks": 5664,
          "time": 11.8,
          "velocity": 0.8503937007874016
        },
        {
          "duration": 0.09583333333333321,
          "durationTicks": 46,
          "midi": 51,
          "name": "D#3",
          "ticks": 5856,
          "time": 12.200000000000001,
          "velocity": 0.8503937007874016
        },
        {
          "duration": 0.09583333333333321,
          "durationTicks": 46,
          "midi": 55,
          "name": "G3",
          "ticks": 5856,
          "time": 12.200000000000001,
          "velocity": 0.8503937007874016
        },
        {
          "duration": 0.09583333333333144,
          "durationTicks": 46,
          "midi": 50,
          "name": "D3",
          "ticks": 6048,
          "time": 12.600000000000001,
          "velocity": 0.8503937007874016
        },
        {
          "duration": 0.09583333333333144,
          "durationTicks": 46,
          "midi": 54,
          "name": "F#3",
          "ticks": 6048,
          "time": 12.600000000000001,
          "velocity": 0.8503937007874016
        },
        {
          "duration": 0.09583333333333499,
          "durationTicks": 46,
          "midi": 51,
          "name": "D#3",
          "ticks": 6240,
          "time": 13,
          "velocity": 0.8503937007874016
        },
        {
          "duration": 0.09583333333333499,
          "durationTicks": 46,
          "midi": 55,
          "name": "G3",
          "ticks": 6240,
          "time": 13,
          "velocity": 0.8503937007874016
        },
        {
          "duration": 0.09583333333333499,
          "durationTicks": 46,
          "midi": 54,
          "name": "F#3",
          "ticks": 6432,
          "time": 13.4,
          "velocity": 0.8503937007874016
        },
        {
          "duration": 0.09583333333333499,
          "durationTicks": 46,
          "midi": 57,
          "name": "A3",
          "ticks": 6432,
          "time": 13.4,
          "velocity": 0.8503937007874016
        },
        {
          "duration": 0.09583333333333499,
          "durationTicks": 46,
          "midi": 51,
          "name": "D#3",
          "ticks": 6624,
          "time": 13.8,
          "velocity": 0.8503937007874016
        },
        {
          "duration": 0.09583333333333499,
          "durationTicks": 46,
          "midi": 55,
          "name": "G3",
          "ticks": 6624,
          "time": 13.8,
          "velocity": 0.8503937007874016
        },
        {
          "duration": 0.09583333333333321,
          "durationTicks": 46,
          "midi": 50,
          "name": "D3",
          "ticks": 6816,
          "time": 14.200000000000001,
          "velocity": 0.8503937007874016
        },
        {
          "duration": 0.09583333333333321,
          "durationTicks": 46,
          "midi": 54,
          "name": "F#3",
          "ticks": 6816,
          "time": 14.200000000000001,
          "velocity": 0.8503937007874016
        },
        {
          "duration": 0.09583333333333321,
          "durationTicks": 46,
          "midi": 51,
          "name": "D#3",
          "ticks": 7008,
          "time": 14.600000000000001,
          "velocity": 0.8503937007874016
        },
        {
          "duration": 0.09583333333333321,
          "durationTicks": 46,
          "midi": 55,
          "name": "G3",
          "ticks": 7008,
          "time": 14.600000000000001,
          "velocity": 0.8503937007874016
        },
        {
          "duration": 0.09583333333333499,
          "durationTicks": 46,
          "midi": 54,
          "name": "F#3",
          "ticks": 7200,
          "time": 15,
          "velocity": 0.8503937007874016
        },
        {
          "duration": 0.09583333333333499,
          "durationTicks": 46,
          "midi": 57,
          "name": "A3",
          "ticks": 7200,
          "time": 15,
          "velocity": 0.8503937007874016
        },
        {
          "duration": 0.09583333333333499,
          "durationTicks": 46,
          "midi": 51,
          "name": "D#3",
          "ticks": 7392,
          "time": 15.4,
          "velocity": 0.8503937007874016
        },
        {
          "duration": 0.09583333333333499,
          "durationTicks": 46,
          "midi": 55,
          "name": "G3",
          "ticks": 7392,
          "time": 15.4,
          "velocity": 0.8503937007874016
        },
        {
          "duration": 0.09583333333333499,
          "durationTicks": 46,
          "midi": 50,
          "name": "D3",
          "ticks": 7584,
          "time": 15.8,
          "velocity": 0.8503937007874016
        },
        {
          "duration": 0.09583333333333499,
          "durationTicks": 46,
          "midi": 54,
          "name": "F#3",
          "ticks": 7584,
          "time": 15.8,
          "velocity": 0.8503937007874016
        },
        {
          "duration": 0.09583333333333499,
          "durationTicks": 46,
          "midi": 51,
          "name": "D#3",
          "ticks": 7776,
          "time": 16.2,
          "velocity": 0.8503937007874016
        },
        {
          "duration": 0.09583333333333499,
          "durationTicks": 46,
          "midi": 55,
          "name": "G3",
          "ticks": 7776,
          "time": 16.2,
          "velocity": 0.8503937007874016
        },
        {
          "duration": 0.09583333333333499,
          "durationTicks": 46,
          "midi": 54,
          "name": "F#3",
          "ticks": 7968,
          "time": 16.6,
          "velocity": 0.8503937007874016
        },
        {
          "duration": 0.09583333333333499,
          "durationTicks": 46,
          "midi": 57,
          "name": "A3",
          "ticks": 7968,
          "time": 16.6,
          "velocity": 0.8503937007874016
        },
        {
          "duration": 0.09583333333333499,
          "durationTicks": 46,
          "midi": 51,
          "name": "D#3",
          "ticks": 8160,
          "time": 17,
          "velocity": 0.8503937007874016
        },
        {
          "duration": 0.09583333333333499,
          "durationTicks": 46,
          "midi": 55,
          "name": "G3",
          "ticks": 8160,
          "time": 17,
          "velocity": 0.8503937007874016
        },
        {
          "duration": 0.09583333333333144,
          "durationTicks": 46,
          "midi": 50,
          "name": "D3",
          "ticks": 8352,
          "time": 17.400000000000002,
          "velocity": 0.8503937007874016
        },
        {
          "duration": 0.09583333333333144,
          "durationTicks": 46,
          "midi": 54,
          "name": "F#3",
          "ticks": 8352,
          "time": 17.400000000000002,
          "velocity": 0.8503937007874016
        },
        {
          "duration": 0.09583333333333499,
          "durationTicks": 46,
          "midi": 51,
          "name": "D#3",
          "ticks": 8544,
          "time": 17.8,
          "velocity": 0.8503937007874016
        },
        {
          "duration": 0.09583333333333499,
          "durationTicks": 46,
          "midi": 55,
          "name": "G3",
          "ticks": 8544,
          "time": 17.8,
          "velocity": 0.8503937007874016
        },
        {
          "duration": 0.09583333333333499,
          "durationTicks": 46,
          "midi": 54,
          "name": "F#3",
          "ticks": 8736,
          "time": 18.2,
          "velocity": 0.8503937007874016
        },
        {
          "duration": 0.09583333333333499,
          "durationTicks": 46,
          "midi": 57,
          "name": "A3",
          "ticks": 8736,
          "time": 18.2,
          "velocity": 0.8503937007874016
        },
        {
          "duration": 0.09583333333333499,
          "durationTicks": 46,
          "midi": 51,
          "name": "D#3",
          "ticks": 8928,
          "time": 18.6,
          "velocity": 0.8503937007874016
        },
        {
          "duration": 0.09583333333333499,
          "durationTicks": 46,
          "midi": 55,
          "name": "G3",
          "ticks": 8928,
          "time": 18.6,
          "velocity": 0.8503937007874016
        },
        {
          "duration": 0.09583333333333499,
          "durationTicks": 46,
          "midi": 50,
          "name": "D3",
          "ticks": 9120,
          "time": 19,
          "velocity": 0.8503937007874016
        },
        {
          "duration": 0.09583333333333499,
          "durationTicks": 46,
          "midi": 54,
          "name": "F#3",
          "ticks": 9120,
          "time": 19,
          "velocity": 0.8503937007874016
        },
        {
          "duration": 0.09583333333333499,
          "durationTicks": 46,
          "midi": 51,
          "name": "D#3",
          "ticks": 9312,
          "time": 19.400000000000002,
          "velocity": 0.8503937007874016
        },
        {
          "duration": 0.09583333333333499,
          "durationTicks": 46,
          "midi": 55,
          "name": "G3",
          "ticks": 9312,
          "time": 19.400000000000002,
          "velocity": 0.8503937007874016
        },
        {
          "duration": 0.09583333333333499,
          "durationTicks": 46,
          "midi": 54,
          "name": "F#3",
          "ticks": 9504,
          "time": 19.8,
          "velocity": 0.8503937007874016
        },
        {
          "duration": 0.09583333333333499,
          "durationTicks": 46,
          "midi": 57,
          "name": "A3",
          "ticks": 9504,
          "time": 19.8,
          "velocity": 0.8503937007874016
        },
        {
          "duration": 0.09583333333333144,
          "durationTicks": 46,
          "midi": 51,
          "name": "D#3",
          "ticks": 9696,
          "time": 20.200000000000003,
          "velocity": 0.8503937007874016
        },
        {
          "duration": 0.09583333333333144,
          "durationTicks": 46,
          "midi": 55,
          "name": "G3",
          "ticks": 9696,
          "time": 20.200000000000003,
          "velocity": 0.8503937007874016
        },
        {
          "duration": 0.09583333333333499,
          "durationTicks": 46,
          "midi": 50,
          "name": "D3",
          "ticks": 9888,
          "time": 20.6,
          "velocity": 0.8503937007874016
        },
        {
          "duration": 0.09583333333333499,
          "durationTicks": 46,
          "midi": 54,
          "name": "F#3",
          "ticks": 9888,
          "time": 20.6,
          "velocity": 0.8503937007874016
        },
        {
          "duration": 0.09583333333333499,
          "durationTicks": 46,
          "midi": 51,
          "name": "D#3",
          "ticks": 10080,
          "time": 21,
          "velocity": 0.8503937007874016
        },
        {
          "duration": 0.09583333333333499,
          "durationTicks": 46,
          "midi": 55,
          "name": "G3",
          "ticks": 10080,
          "time": 21,
          "velocity": 0.8503937007874016
        },
        {
          "duration": 0.09583333333333499,
          "durationTicks": 46,
          "midi": 54,
          "name": "F#3",
          "ticks": 10272,
          "time": 21.400000000000002,
          "velocity": 0.8503937007874016
        },
        {
          "duration": 0.09583333333333499,
          "durationTicks": 46,
          "midi": 57,
          "name": "A3",
          "ticks": 10272,
          "time": 21.400000000000002,
          "velocity": 0.8503937007874016
        },
        {
          "duration": 0.09583333333333499,
          "durationTicks": 46,
          "midi": 51,
          "name": "D#3",
          "ticks": 10464,
          "time": 21.8,
          "velocity": 0.8503937007874016
        },
        {
          "duration": 0.09583333333333499,
          "durationTicks": 46,
          "midi": 55,
          "name": "G3",
          "ticks": 10464,
          "time": 21.8,
          "velocity": 0.8503937007874016
        },
        {
          "duration": 0.09583333333333144,
          "durationTicks": 46,
          "midi": 50,
          "name": "D3",
          "ticks": 10656,
          "time": 22.200000000000003,
          "velocity": 0.8503937007874016
        },
        {
          "duration": 0.09583333333333144,
          "durationTicks": 46,
          "midi": 54,
          "name": "F#3",
          "ticks": 10656,
          "time": 22.200000000000003,
          "velocity": 0.8503937007874016
        },
        {
          "duration": 0.09583333333333499,
          "durationTicks": 46,
          "midi": 51,
          "name": "D#3",
          "ticks": 10848,
          "time": 22.6,
          "velocity": 0.8503937007874016
        },
        {
          "duration": 0.09583333333333499,
          "durationTicks": 46,
          "midi": 55,
          "name": "G3",
          "ticks": 10848,
          "time": 22.6,
          "velocity": 0.8503937007874016
        },
        {
          "duration": 0.09583333333333499,
          "durationTicks": 46,
          "midi": 54,
          "name": "F#3",
          "ticks": 11040,
          "time": 23,
          "velocity": 0.8503937007874016
        },
        {
          "duration": 0.09583333333333499,
          "durationTicks": 46,
          "midi": 57,
          "name": "A3",
          "ticks": 11040,
          "time": 23,
          "velocity": 0.8503937007874016
        },
        {
          "duration": 0.09583333333333499,
          "durationTicks": 46,
          "midi": 51,
          "name": "D#3",
          "ticks": 11232,
          "time": 23.400000000000002,
          "velocity": 0.8503937007874016
        },
        {
          "duration": 0.09583333333333499,
          "durationTicks": 46,
          "midi": 55,
          "name": "G3",
          "ticks": 11232,
          "time": 23.400000000000002,
          "velocity": 0.8503937007874016
        },
        {
          "duration": 0.09583333333333499,
          "durationTicks": 46,
          "midi": 50,
          "name": "D3",
          "ticks": 11424,
          "time": 23.8,
          "velocity": 0.8503937007874016
        },
        {
          "duration": 0.09583333333333499,
          "durationTicks": 46,
          "midi": 54,
          "name": "F#3",
          "ticks": 11424,
          "time": 23.8,
          "velocity": 0.8503937007874016
        },
        {
          "duration": 0.09583333333333144,
          "durationTicks": 46,
          "midi": 51,
          "name": "D#3",
          "ticks": 11616,
          "time": 24.200000000000003,
          "velocity": 0.8503937007874016
        },
        {
          "duration": 0.09583333333333144,
          "durationTicks": 46,
          "midi": 55,
          "name": "G3",
          "ticks": 11616,
          "time": 24.200000000000003,
          "velocity": 0.8503937007874016
        },
        {
          "duration": 0.09583333333333499,
          "durationTicks": 46,
          "midi": 54,
          "name": "F#3",
          "ticks": 11808,
          "time": 24.6,
          "velocity": 0.8503937007874016
        },
        {
          "duration": 0.09583333333333499,
          "durationTicks": 46,
          "midi": 57,
          "name": "A3",
          "ticks": 11808,
          "time": 24.6,
          "velocity": 0.8503937007874016
        },
        {
          "duration": 0.09583333333333499,
          "durationTicks": 46,
          "midi": 51,
          "name": "D#3",
          "ticks": 12000,
          "time": 25,
          "velocity": 0.8503937007874016
        },
        {
          "duration": 0.09583333333333499,
          "durationTicks": 46,
          "midi": 55,
          "name": "G3",
          "ticks": 12000,
          "time": 25,
          "velocity": 0.8503937007874016
        },
        {
          "duration": 0.09583333333333499,
          "durationTicks": 46,
          "midi": 50,
          "name": "D3",
          "ticks": 12192,
          "time": 25.400000000000002,
          "velocity": 0.8503937007874016
        },
        {
          "duration": 0.09583333333333499,
          "durationTicks": 46,
          "midi": 54,
          "name": "F#3",
          "ticks": 12192,
          "time": 25.400000000000002,
          "velocity": 0.8503937007874016
        },
        {
          "duration": 0.09583333333333144,
          "durationTicks": 46,
          "midi": 51,
          "name": "D#3",
          "ticks": 12384,
          "time": 25.8,
          "velocity": 0.8503937007874016
        },
        {
          "duration": 0.09583333333333144,
          "durationTicks": 46,
          "midi": 55,
          "name": "G3",
          "ticks": 12384,
          "time": 25.8,
          "velocity": 0.8503937007874016
        },
        {
          "duration": 0.09583333333333144,
          "durationTicks": 46,
          "midi": 54,
          "name": "F#3",
          "ticks": 12576,
          "time": 26.200000000000003,
          "velocity": 0.8503937007874016
        },
        {
          "duration": 0.09583333333333144,
          "durationTicks": 46,
          "midi": 57,
          "name": "A3",
          "ticks": 12576,
          "time": 26.200000000000003,
          "velocity": 0.8503937007874016
        },
        {
          "duration": 0.09583333333333144,
          "durationTicks": 46,
          "midi": 51,
          "name": "D#3",
          "ticks": 12768,
          "time": 26.6,
          "velocity": 0.8503937007874016
        },
        {
          "duration": 0.09583333333333144,
          "durationTicks": 46,
          "midi": 55,
          "name": "G3",
          "ticks": 12768,
          "time": 26.6,
          "velocity": 0.8503937007874016
        },
        {
          "duration": 0.09583333333333144,
          "durationTicks": 46,
          "midi": 50,
          "name": "D3",
          "ticks": 12960,
          "time": 27,
          "velocity": 0.8503937007874016
        },
        {
          "duration": 0.09583333333333144,
          "durationTicks": 46,
          "midi": 54,
          "name": "F#3",
          "ticks": 12960,
          "time": 27,
          "velocity": 0.8503937007874016
        },
        {
          "duration": 0.09583333333333144,
          "durationTicks": 46,
          "midi": 51,
          "name": "D#3",
          "ticks": 13152,
          "time": 27.400000000000002,
          "velocity": 0.8503937007874016
        },
        {
          "duration": 0.09583333333333144,
          "durationTicks": 46,
          "midi": 55,
          "name": "G3",
          "ticks": 13152,
          "time": 27.400000000000002,
          "velocity": 0.8503937007874016
        },
        {
          "duration": 0.09583333333333144,
          "durationTicks": 46,
          "midi": 54,
          "name": "F#3",
          "ticks": 13344,
          "time": 27.8,
          "velocity": 0.8503937007874016
        },
        {
          "duration": 0.09583333333333144,
          "durationTicks": 46,
          "midi": 57,
          "name": "A3",
          "ticks": 13344,
          "time": 27.8,
          "velocity": 0.8503937007874016
        },
        {
          "duration": 0.09583333333333144,
          "durationTicks": 46,
          "midi": 51,
          "name": "D#3",
          "ticks": 13536,
          "time": 28.200000000000003,
          "velocity": 0.8503937007874016
        },
        {
          "duration": 0.09583333333333144,
          "durationTicks": 46,
          "midi": 55,
          "name": "G3",
          "ticks": 13536,
          "time": 28.200000000000003,
          "velocity": 0.8503937007874016
        },
        {
          "duration": 0.09583333333333144,
          "durationTicks": 46,
          "midi": 50,
          "name": "D3",
          "ticks": 13728,
          "time": 28.6,
          "velocity": 0.8503937007874016
        },
        {
          "duration": 0.09583333333333144,
          "durationTicks": 46,
          "midi": 54,
          "name": "F#3",
          "ticks": 13728,
          "time": 28.6,
          "velocity": 0.8503937007874016
        },
        {
          "duration": 0.09583333333333144,
          "durationTicks": 46,
          "midi": 51,
          "name": "D#3",
          "ticks": 13920,
          "time": 29,
          "velocity": 0.8503937007874016
        },
        {
          "duration": 0.09583333333333144,
          "durationTicks": 46,
          "midi": 55,
          "name": "G3",
          "ticks": 13920,
          "time": 29,
          "velocity": 0.8503937007874016
        },
        {
          "duration": 0.09583333333333144,
          "durationTicks": 46,
          "midi": 54,
          "name": "F#3",
          "ticks": 14112,
          "time": 29.400000000000002,
          "velocity": 0.8503937007874016
        },
        {
          "duration": 0.09583333333333144,
          "durationTicks": 46,
          "midi": 57,
          "name": "A3",
          "ticks": 14112,
          "time": 29.400000000000002,
          "velocity": 0.8503937007874016
        },
        {
          "duration": 0.09583333333333144,
          "durationTicks": 46,
          "midi": 51,
          "name": "D#3",
          "ticks": 14304,
          "time": 29.8,
          "velocity": 0.8503937007874016
        },
        {
          "duration": 0.09583333333333144,
          "durationTicks": 46,
          "midi": 55,
          "name": "G3",
          "ticks": 14304,
          "time": 29.8,
          "velocity": 0.8503937007874016
        },
        {
          "duration": 0.09583333333333144,
          "durationTicks": 46,
          "midi": 50,
          "name": "D3",
          "ticks": 14496,
          "time": 30.200000000000003,
          "velocity": 0.8503937007874016
        },
        {
          "duration": 0.09583333333333144,
          "durationTicks": 46,
          "midi": 54,
          "name": "F#3",
          "ticks": 14496,
          "time": 30.200000000000003,
          "velocity": 0.8503937007874016
        },
        {
          "duration": 0.09583333333333144,
          "durationTicks": 46,
          "midi": 51,
          "name": "D#3",
          "ticks": 14688,
          "time": 30.6,
          "velocity": 0.8503937007874016
        },
        {
          "duration": 0.09583333333333144,
          "durationTicks": 46,
          "midi": 55,
          "name": "G3",
          "ticks": 14688,
          "time": 30.6,
          "velocity": 0.8503937007874016
        },
        {
          "duration": 0.09583333333333144,
          "durationTicks": 46,
          "midi": 54,
          "name": "F#3",
          "ticks": 14880,
          "time": 31,
          "velocity": 0.8503937007874016
        },
        {
          "duration": 0.09583333333333144,
          "durationTicks": 46,
          "midi": 57,
          "name": "A3",
          "ticks": 14880,
          "time": 31,
          "velocity": 0.8503937007874016
        },
        {
          "duration": 0.09583333333333144,
          "durationTicks": 46,
          "midi": 48,
          "name": "C3",
          "ticks": 24672,
          "time": 51.400000000000006,
          "velocity": 0.7244094488188977
        },
        {
          "duration": 0.09583333333333144,
          "durationTicks": 46,
          "midi": 53,
          "name": "F3",
          "ticks": 24672,
          "time": 51.400000000000006,
          "velocity": 0.7244094488188977
        },
        {
          "duration": 0.09583333333333854,
          "durationTicks": 46,
          "midi": 48,
          "name": "C3",
          "ticks": 24864,
          "time": 51.800000000000004,
          "velocity": 0.7244094488188977
        },
        {
          "duration": 0.09583333333333854,
          "durationTicks": 46,
          "midi": 53,
          "name": "F3",
          "ticks": 24864,
          "time": 51.800000000000004,
          "velocity": 0.7244094488188977
        },
        {
          "duration": 0.09583333333333854,
          "durationTicks": 46,
          "midi": 48,
          "name": "C3",
          "ticks": 25056,
          "time": 52.2,
          "velocity": 0.7244094488188977
        },
        {
          "duration": 0.09583333333333854,
          "durationTicks": 46,
          "midi": 53,
          "name": "F3",
          "ticks": 25056,
          "time": 52.2,
          "velocity": 0.7244094488188977
        },
        {
          "duration": 0.09583333333333854,
          "durationTicks": 46,
          "midi": 48,
          "name": "C3",
          "ticks": 25248,
          "time": 52.6,
          "velocity": 0.7244094488188977
        },
        {
          "duration": 0.09583333333333854,
          "durationTicks": 46,
          "midi": 53,
          "name": "F3",
          "ticks": 25248,
          "time": 52.6,
          "velocity": 0.7244094488188977
        },
        {
          "duration": 0.09583333333333854,
          "durationTicks": 46,
          "midi": 50,
          "name": "D3",
          "ticks": 25440,
          "time": 53,
          "velocity": 0.7244094488188977
        },
        {
          "duration": 0.09583333333333854,
          "durationTicks": 46,
          "midi": 55,
          "name": "G3",
          "ticks": 25440,
          "time": 53,
          "velocity": 0.7244094488188977
        },
        {
          "duration": 0.09583333333333144,
          "durationTicks": 46,
          "midi": 50,
          "name": "D3",
          "ticks": 25632,
          "time": 53.400000000000006,
          "velocity": 0.7244094488188977
        },
        {
          "duration": 0.09583333333333144,
          "durationTicks": 46,
          "midi": 55,
          "name": "G3",
          "ticks": 25632,
          "time": 53.400000000000006,
          "velocity": 0.7244094488188977
        },
        {
          "duration": 0.09583333333333854,
          "durationTicks": 46,
          "midi": 50,
          "name": "D3",
          "ticks": 25824,
          "time": 53.800000000000004,
          "velocity": 0.7244094488188977
        },
        {
          "duration": 0.09583333333333854,
          "durationTicks": 46,
          "midi": 55,
          "name": "G3",
          "ticks": 25824,
          "time": 53.800000000000004,
          "velocity": 0.7244094488188977
        },
        {
          "duration": 0.09583333333333854,
          "durationTicks": 46,
          "midi": 50,
          "name": "D3",
          "ticks": 26016,
          "time": 54.2,
          "velocity": 0.7244094488188977
        },
        {
          "duration": 0.09583333333333854,
          "durationTicks": 46,
          "midi": 55,
          "name": "G3",
          "ticks": 26016,
          "time": 54.2,
          "velocity": 0.7244094488188977
        },
        {
          "duration": 0.09583333333333854,
          "durationTicks": 46,
          "midi": 51,
          "name": "D#3",
          "ticks": 26208,
          "time": 54.6,
          "velocity": 0.7244094488188977
        },
        {
          "duration": 0.09583333333333854,
          "durationTicks": 46,
          "midi": 56,
          "name": "G#3",
          "ticks": 26208,
          "time": 54.6,
          "velocity": 0.7244094488188977
        },
        {
          "duration": 0.09583333333333854,
          "durationTicks": 46,
          "midi": 51,
          "name": "D#3",
          "ticks": 26400,
          "time": 55,
          "velocity": 0.7244094488188977
        },
        {
          "duration": 0.09583333333333854,
          "durationTicks": 46,
          "midi": 56,
          "name": "G#3",
          "ticks": 26400,
          "time": 55,
          "velocity": 0.7244094488188977
        },
        {
          "duration": 0.09583333333333144,
          "durationTicks": 46,
          "midi": 51,
          "name": "D#3",
          "ticks": 27744,
          "time": 57.800000000000004,
          "velocity": 0.8503937007874016
        },
        {
          "duration": 0.09583333333333144,
          "durationTicks": 46,
          "midi": 55,
          "name": "G3",
          "ticks": 27744,
          "time": 57.800000000000004,
          "velocity": 0.8503937007874016
        },
        {
          "duration": 0.09583333333333144,
          "durationTicks": 46,
          "midi": 54,
          "name": "F#3",
          "ticks": 27936,
          "time": 58.2,
          "velocity": 0.8503937007874016
        },
        {
          "duration": 0.09583333333333144,
          "durationTicks": 46,
          "midi": 57,
          "name": "A3",
          "ticks": 27936,
          "time": 58.2,
          "velocity": 0.8503937007874016
        },
        {
          "duration": 0.09583333333333144,
          "durationTicks": 46,
          "midi": 51,
          "name": "D#3",
          "ticks": 28128,
          "time": 58.6,
          "velocity": 0.8503937007874016
        },
        {
          "duration": 0.09583333333333144,
          "durationTicks": 46,
          "midi": 55,
          "name": "G3",
          "ticks": 28128,
          "time": 58.6,
          "velocity": 0.8503937007874016
        },
        {
          "duration": 0.09583333333333144,
          "durationTicks": 46,
          "midi": 50,
          "name": "D3",
          "ticks": 28320,
          "time": 59,
          "velocity": 0.8503937007874016
        },
        {
          "duration": 0.09583333333333144,
          "durationTicks": 46,
          "midi": 54,
          "name": "F#3",
          "ticks": 28320,
          "time": 59,
          "velocity": 0.8503937007874016
        },
        {
          "duration": 0.09583333333333854,
          "durationTicks": 46,
          "midi": 51,
          "name": "D#3",
          "ticks": 28512,
          "time": 59.4,
          "velocity": 0.8503937007874016
        },
        {
          "duration": 0.09583333333333854,
          "durationTicks": 46,
          "midi": 55,
          "name": "G3",
          "ticks": 28512,
          "time": 59.4,
          "velocity": 0.8503937007874016
        },
        {
          "duration": 0.09583333333333144,
          "durationTicks": 46,
          "midi": 54,
          "name": "F#3",
          "ticks": 28704,
          "time": 59.800000000000004,
          "velocity": 0.8503937007874016
        },
        {
          "duration": 0.09583333333333144,
          "durationTicks": 46,
          "midi": 57,
          "name": "A3",
          "ticks": 28704,
          "time": 59.800000000000004,
          "velocity": 0.8503937007874016
        },
        {
          "duration": 0.09583333333333144,
          "durationTicks": 46,
          "midi": 51,
          "name": "D#3",
          "ticks": 28896,
          "time": 60.2,
          "velocity": 0.8503937007874016
        },
        {
          "duration": 0.09583333333333144,
          "durationTicks": 46,
          "midi": 55,
          "name": "G3",
          "ticks": 28896,
          "time": 60.2,
          "velocity": 0.8503937007874016
        },
        {
          "duration": 0.09583333333333144,
          "durationTicks": 46,
          "midi": 50,
          "name": "D3",
          "ticks": 29088,
          "time": 60.6,
          "velocity": 0.8503937007874016
        },
        {
          "duration": 0.09583333333333144,
          "durationTicks": 46,
          "midi": 54,
          "name": "F#3",
          "ticks": 29088,
          "time": 60.6,
          "velocity": 0.8503937007874016
        },
        {
          "duration": 0.09583333333333144,
          "durationTicks": 46,
          "midi": 51,
          "name": "D#3",
          "ticks": 29280,
          "time": 61,
          "velocity": 0.8503937007874016
        },
        {
          "duration": 0.09583333333333144,
          "durationTicks": 46,
          "midi": 55,
          "name": "G3",
          "ticks": 29280,
          "time": 61,
          "velocity": 0.8503937007874016
        },
        {
          "duration": 0.09583333333333854,
          "durationTicks": 46,
          "midi": 54,
          "name": "F#3",
          "ticks": 29472,
          "time": 61.4,
          "velocity": 0.8503937007874016
        },
        {
          "duration": 0.09583333333333854,
          "durationTicks": 46,
          "midi": 57,
          "name": "A3",
          "ticks": 29472,
          "time": 61.4,
          "velocity": 0.8503937007874016
        },
        {
          "duration": 0.09583333333333144,
          "durationTicks": 46,
          "midi": 51,
          "name": "D#3",
          "ticks": 29664,
          "time": 61.800000000000004,
          "velocity": 0.8503937007874016
        },
        {
          "duration": 0.09583333333333144,
          "durationTicks": 46,
          "midi": 55,
          "name": "G3",
          "ticks": 29664,
          "time": 61.800000000000004,
          "velocity": 0.8503937007874016
        },
        {
          "duration": 0.09583333333333144,
          "durationTicks": 46,
          "midi": 50,
          "name": "D3",
          "ticks": 29856,
          "time": 62.2,
          "velocity": 0.8503937007874016
        },
        {
          "duration": 0.09583333333333144,
          "durationTicks": 46,
          "midi": 54,
          "name": "F#3",
          "ticks": 29856,
          "time": 62.2,
          "velocity": 0.8503937007874016
        },
        {
          "duration": 0.09583333333333144,
          "durationTicks": 46,
          "midi": 51,
          "name": "D#3",
          "ticks": 30048,
          "time": 62.6,
          "velocity": 0.8503937007874016
        },
        {
          "duration": 0.09583333333333144,
          "durationTicks": 46,
          "midi": 55,
          "name": "G3",
          "ticks": 30048,
          "time": 62.6,
          "velocity": 0.8503937007874016
        },
        {
          "duration": 0.09583333333333144,
          "durationTicks": 46,
          "midi": 54,
          "name": "F#3",
          "ticks": 30240,
          "time": 63,
          "velocity": 0.8503937007874016
        },
        {
          "duration": 0.09583333333333144,
          "durationTicks": 46,
          "midi": 57,
          "name": "A3",
          "ticks": 30240,
          "time": 63,
          "velocity": 0.8503937007874016
        },
        {
          "duration": 0.09583333333333144,
          "durationTicks": 46,
          "midi": 51,
          "name": "D#3",
          "ticks": 30432,
          "time": 63.400000000000006,
          "velocity": 0.8503937007874016
        },
        {
          "duration": 0.09583333333333144,
          "durationTicks": 46,
          "midi": 55,
          "name": "G3",
          "ticks": 30432,
          "time": 63.400000000000006,
          "velocity": 0.8503937007874016
        },
        {
          "duration": 0.09583333333333144,
          "durationTicks": 46,
          "midi": 50,
          "name": "D3",
          "ticks": 30624,
          "time": 63.800000000000004,
          "velocity": 0.8503937007874016
        },
        {
          "duration": 0.09583333333333144,
          "durationTicks": 46,
          "midi": 54,
          "name": "F#3",
          "ticks": 30624,
          "time": 63.800000000000004,
          "velocity": 0.8503937007874016
        },
        {
          "duration": 0.09583333333333144,
          "durationTicks": 46,
          "midi": 51,
          "name": "D#3",
          "ticks": 30816,
          "time": 64.2,
          "velocity": 0.8503937007874016
        },
        {
          "duration": 0.09583333333333144,
          "durationTicks": 46,
          "midi": 55,
          "name": "G3",
          "ticks": 30816,
          "time": 64.2,
          "velocity": 0.8503937007874016
        },
        {
          "duration": 0.09583333333334565,
          "durationTicks": 46,
          "midi": 54,
          "name": "F#3",
          "ticks": 31008,
          "time": 64.6,
          "velocity": 0.8503937007874016
        },
        {
          "duration": 0.09583333333334565,
          "durationTicks": 46,
          "midi": 57,
          "name": "A3",
          "ticks": 31008,
          "time": 64.6,
          "velocity": 0.8503937007874016
        },
        {
          "duration": 0.09583333333333144,
          "durationTicks": 46,
          "midi": 51,
          "name": "D#3",
          "ticks": 31200,
          "time": 65,
          "velocity": 0.8503937007874016
        },
        {
          "duration": 0.09583333333333144,
          "durationTicks": 46,
          "midi": 55,
          "name": "G3",
          "ticks": 31200,
          "time": 65,
          "velocity": 0.8503937007874016
        },
        {
          "duration": 0.09583333333333144,
          "durationTicks": 46,
          "midi": 50,
          "name": "D3",
          "ticks": 31392,
          "time": 65.4,
          "velocity": 0.8503937007874016
        },
        {
          "duration": 0.09583333333333144,
          "durationTicks": 46,
          "midi": 54,
          "name": "F#3",
          "ticks": 31392,
          "time": 65.4,
          "velocity": 0.8503937007874016
        },
        {
          "duration": 0.09583333333333144,
          "durationTicks": 46,
          "midi": 51,
          "name": "D#3",
          "ticks": 31584,
          "time": 65.8,
          "velocity": 0.8503937007874016
        },
        {
          "duration": 0.09583333333333144,
          "durationTicks": 46,
          "midi": 55,
          "name": "G3",
          "ticks": 31584,
          "time": 65.8,
          "velocity": 0.8503937007874016
        },
        {
          "duration": 0.09583333333333144,
          "durationTicks": 46,
          "midi": 54,
          "name": "F#3",
          "ticks": 31776,
          "time": 66.2,
          "velocity": 0.8503937007874016
        },
        {
          "duration": 0.09583333333333144,
          "durationTicks": 46,
          "midi": 57,
          "name": "A3",
          "ticks": 31776,
          "time": 66.2,
          "velocity": 0.8503937007874016
        },
        {
          "duration": 0.09583333333334565,
          "durationTicks": 46,
          "midi": 51,
          "name": "D#3",
          "ticks": 31968,
          "time": 66.6,
          "velocity": 0.8503937007874016
        },
        {
          "duration": 0.09583333333334565,
          "durationTicks": 46,
          "midi": 55,
          "name": "G3",
          "ticks": 31968,
          "time": 66.6,
          "velocity": 0.8503937007874016
        },
        {
          "duration": 0.09583333333333144,
          "durationTicks": 46,
          "midi": 50,
          "name": "D3",
          "ticks": 32160,
          "time": 67,
          "velocity": 0.8503937007874016
        },
        {
          "duration": 0.09583333333333144,
          "durationTicks": 46,
          "midi": 54,
          "name": "F#3",
          "ticks": 32160,
          "time": 67,
          "velocity": 0.8503937007874016
        },
        {
          "duration": 0.09583333333333144,
          "durationTicks": 46,
          "midi": 51,
          "name": "D#3",
          "ticks": 32352,
          "time": 67.4,
          "velocity": 0.8503937007874016
        },
        {
          "duration": 0.09583333333333144,
          "durationTicks": 46,
          "midi": 55,
          "name": "G3",
          "ticks": 32352,
          "time": 67.4,
          "velocity": 0.8503937007874016
        },
        {
          "duration": 0.09583333333334565,
          "durationTicks": 46,
          "midi": 54,
          "name": "F#3",
          "ticks": 32544,
          "time": 67.8,
          "velocity": 0.8503937007874016
        },
        {
          "duration": 0.09583333333334565,
          "durationTicks": 46,
          "midi": 57,
          "name": "A3",
          "ticks": 32544,
          "time": 67.8,
          "velocity": 0.8503937007874016
        },
        {
          "duration": 0.09583333333333144,
          "durationTicks": 46,
          "midi": 51,
          "name": "D#3",
          "ticks": 32736,
          "time": 68.2,
          "velocity": 0.8503937007874016
        },
        {
          "duration": 0.09583333333333144,
          "durationTicks": 46,
          "midi": 55,
          "name": "G3",
          "ticks": 32736,
          "time": 68.2,
          "velocity": 0.8503937007874016
        },
        {
          "duration": 0.09583333333334565,
          "durationTicks": 46,
          "midi": 50,
          "name": "D3",
          "ticks": 32928,
          "time": 68.6,
          "velocity": 0.8503937007874016
        },
        {
          "duration": 0.09583333333334565,
          "durationTicks": 46,
          "midi": 54,
          "name": "F#3",
          "ticks": 32928,
          "time": 68.6,
          "velocity": 0.8503937007874016
        },
        {
          "duration": 0.09583333333333144,
          "durationTicks": 46,
          "midi": 51,
          "name": "D#3",
          "ticks": 33120,
          "time": 69,
          "velocity": 0.8503937007874016
        },
        {
          "duration": 0.09583333333333144,
          "durationTicks": 46,
          "midi": 55,
          "name": "G3",
          "ticks": 33120,
          "time": 69,
          "velocity": 0.8503937007874016
        },
        {
          "duration": 0.09583333333333144,
          "durationTicks": 46,
          "midi": 54,
          "name": "F#3",
          "ticks": 33312,
          "time": 69.4,
          "velocity": 0.8503937007874016
        },
        {
          "duration": 0.09583333333333144,
          "durationTicks": 46,
          "midi": 57,
          "name": "A3",
          "ticks": 33312,
          "time": 69.4,
          "velocity": 0.8503937007874016
        },
        {
          "duration": 0.09583333333334565,
          "durationTicks": 46,
          "midi": 51,
          "name": "D#3",
          "ticks": 33504,
          "time": 69.8,
          "velocity": 0.8503937007874016
        },
        {
          "duration": 0.09583333333334565,
          "durationTicks": 46,
          "midi": 55,
          "name": "G3",
          "ticks": 33504,
          "time": 69.8,
          "velocity": 0.8503937007874016
        },
        {
          "duration": 0.09583333333333144,
          "durationTicks": 46,
          "midi": 50,
          "name": "D3",
          "ticks": 33696,
          "time": 70.2,
          "velocity": 0.8503937007874016
        },
        {
          "duration": 0.09583333333333144,
          "durationTicks": 46,
          "midi": 54,
          "name": "F#3",
          "ticks": 33696,
          "time": 70.2,
          "velocity": 0.8503937007874016
        },
        {
          "duration": 0.09583333333334565,
          "durationTicks": 46,
          "midi": 51,
          "name": "D#3",
          "ticks": 33888,
          "time": 70.6,
          "velocity": 0.8503937007874016
        },
        {
          "duration": 0.09583333333334565,
          "durationTicks": 46,
          "midi": 55,
          "name": "G3",
          "ticks": 33888,
          "time": 70.6,
          "velocity": 0.8503937007874016
        },
        {
          "duration": 0.09583333333333144,
          "durationTicks": 46,
          "midi": 54,
          "name": "F#3",
          "ticks": 34080,
          "time": 71,
          "velocity": 0.8503937007874016
        },
        {
          "duration": 0.09583333333333144,
          "durationTicks": 46,
          "midi": 57,
          "name": "A3",
          "ticks": 34080,
          "time": 71,
          "velocity": 0.8503937007874016
        },
        {
          "duration": 0.09583333333333144,
          "durationTicks": 46,
          "midi": 51,
          "name": "D#3",
          "ticks": 34272,
          "time": 71.4,
          "velocity": 0.8503937007874016
        },
        {
          "duration": 0.09583333333333144,
          "durationTicks": 46,
          "midi": 55,
          "name": "G3",
          "ticks": 34272,
          "time": 71.4,
          "velocity": 0.8503937007874016
        },
        {
          "duration": 0.09583333333334565,
          "durationTicks": 46,
          "midi": 50,
          "name": "D3",
          "ticks": 34464,
          "time": 71.8,
          "velocity": 0.8503937007874016
        },
        {
          "duration": 0.09583333333334565,
          "durationTicks": 46,
          "midi": 54,
          "name": "F#3",
          "ticks": 34464,
          "time": 71.8,
          "velocity": 0.8503937007874016
        },
        {
          "duration": 0.09583333333333144,
          "durationTicks": 46,
          "midi": 51,
          "name": "D#3",
          "ticks": 34656,
          "time": 72.2,
          "velocity": 0.8503937007874016
        },
        {
          "duration": 0.09583333333333144,
          "durationTicks": 46,
          "midi": 55,
          "name": "G3",
          "ticks": 34656,
          "time": 72.2,
          "velocity": 0.8503937007874016
        },
        {
          "duration": 0.09583333333334565,
          "durationTicks": 46,
          "midi": 54,
          "name": "F#3",
          "ticks": 34848,
          "time": 72.6,
          "velocity": 0.8503937007874016
        },
        {
          "duration": 0.09583333333334565,
          "durationTicks": 46,
          "midi": 57,
          "name": "A3",
          "ticks": 34848,
          "time": 72.6,
          "velocity": 0.8503937007874016
        },
        {
          "duration": 0.09583333333333144,
          "durationTicks": 46,
          "midi": 51,
          "name": "D#3",
          "ticks": 35040,
          "time": 73,
          "velocity": 0.8503937007874016
        },
        {
          "duration": 0.09583333333333144,
          "durationTicks": 46,
          "midi": 55,
          "name": "G3",
          "ticks": 35040,
          "time": 73,
          "velocity": 0.8503937007874016
        },
        {
          "duration": 0.09583333333333144,
          "durationTicks": 46,
          "midi": 50,
          "name": "D3",
          "ticks": 35232,
          "time": 73.4,
          "velocity": 0.8503937007874016
        },
        {
          "duration": 0.09583333333333144,
          "durationTicks": 46,
          "midi": 54,
          "name": "F#3",
          "ticks": 35232,
          "time": 73.4,
          "velocity": 0.8503937007874016
        },
        {
          "duration": 0.09583333333334565,
          "durationTicks": 46,
          "midi": 51,
          "name": "D#3",
          "ticks": 35424,
          "time": 73.8,
          "velocity": 0.8503937007874016
        },
        {
          "duration": 0.09583333333334565,
          "durationTicks": 46,
          "midi": 55,
          "name": "G3",
          "ticks": 35424,
          "time": 73.8,
          "velocity": 0.8503937007874016
        },
        {
          "duration": 0.09583333333333144,
          "durationTicks": 46,
          "midi": 54,
          "name": "F#3",
          "ticks": 35616,
          "time": 74.2,
          "velocity": 0.8503937007874016
        },
        {
          "duration": 0.09583333333333144,
          "durationTicks": 46,
          "midi": 57,
          "name": "A3",
          "ticks": 35616,
          "time": 74.2,
          "velocity": 0.8503937007874016
        },
        {
          "duration": 0.09583333333334565,
          "durationTicks": 46,
          "midi": 51,
          "name": "D#3",
          "ticks": 35808,
          "time": 74.6,
          "velocity": 0.8503937007874016
        },
        {
          "duration": 0.09583333333334565,
          "durationTicks": 46,
          "midi": 55,
          "name": "G3",
          "ticks": 35808,
          "time": 74.6,
          "velocity": 0.8503937007874016
        },
        {
          "duration": 0.09583333333333144,
          "durationTicks": 46,
          "midi": 50,
          "name": "D3",
          "ticks": 36000,
          "time": 75,
          "velocity": 0.8503937007874016
        },
        {
          "duration": 0.09583333333333144,
          "durationTicks": 46,
          "midi": 54,
          "name": "F#3",
          "ticks": 36000,
          "time": 75,
          "velocity": 0.8503937007874016
        },
        {
          "duration": 0.09583333333333144,
          "durationTicks": 46,
          "midi": 51,
          "name": "D#3",
          "ticks": 36192,
          "time": 75.4,
          "velocity": 0.8503937007874016
        },
        {
          "duration": 0.09583333333333144,
          "durationTicks": 46,
          "midi": 55,
          "name": "G3",
          "ticks": 36192,
          "time": 75.4,
          "velocity": 0.8503937007874016
        },
        {
          "duration": 0.09583333333334565,
          "durationTicks": 46,
          "midi": 54,
          "name": "F#3",
          "ticks": 36384,
          "time": 75.8,
          "velocity": 0.8503937007874016
        },
        {
          "duration": 0.09583333333334565,
          "durationTicks": 46,
          "midi": 57,
          "name": "A3",
          "ticks": 36384,
          "time": 75.8,
          "velocity": 0.8503937007874016
        },
        {
          "duration": 0.09583333333333144,
          "durationTicks": 46,
          "midi": 51,
          "name": "D#3",
          "ticks": 36576,
          "time": 76.2,
          "velocity": 0.8503937007874016
        },
        {
          "duration": 0.09583333333333144,
          "durationTicks": 46,
          "midi": 55,
          "name": "G3",
          "ticks": 36576,
          "time": 76.2,
          "velocity": 0.8503937007874016
        },
        {
          "duration": 0.09583333333334565,
          "durationTicks": 46,
          "midi": 50,
          "name": "D3",
          "ticks": 36768,
          "time": 76.6,
          "velocity": 0.8503937007874016
        },
        {
          "duration": 0.09583333333334565,
          "durationTicks": 46,
          "midi": 54,
          "name": "F#3",
          "ticks": 36768,
          "time": 76.6,
          "velocity": 0.8503937007874016
        },
        {
          "duration": 0.09583333333333144,
          "durationTicks": 46,
          "midi": 51,
          "name": "D#3",
          "ticks": 36960,
          "time": 77,
          "velocity": 0.8503937007874016
        },
        {
          "duration": 0.09583333333333144,
          "durationTicks": 46,
          "midi": 55,
          "name": "G3",
          "ticks": 36960,
          "time": 77,
          "velocity": 0.8503937007874016
        },
        {
          "duration": 0.09583333333333144,
          "durationTicks": 46,
          "midi": 54,
          "name": "F#3",
          "ticks": 37152,
          "time": 77.4,
          "velocity": 0.8503937007874016
        },
        {
          "duration": 0.09583333333333144,
          "durationTicks": 46,
          "midi": 57,
          "name": "A3",
          "ticks": 37152,
          "time": 77.4,
          "velocity": 0.8503937007874016
        },
        {
          "duration": 0.09583333333333144,
          "durationTicks": 46,
          "midi": 51,
          "name": "D#3",
          "ticks": 37344,
          "time": 77.80000000000001,
          "velocity": 0.8503937007874016
        },
        {
          "duration": 0.09583333333333144,
          "durationTicks": 46,
          "midi": 55,
          "name": "G3",
          "ticks": 37344,
          "time": 77.80000000000001,
          "velocity": 0.8503937007874016
        },
        {
          "duration": 0.09583333333333144,
          "durationTicks": 46,
          "midi": 50,
          "name": "D3",
          "ticks": 37536,
          "time": 78.2,
          "velocity": 0.8503937007874016
        },
        {
          "duration": 0.09583333333333144,
          "durationTicks": 46,
          "midi": 54,
          "name": "F#3",
          "ticks": 37536,
          "time": 78.2,
          "velocity": 0.8503937007874016
        },
        {
          "duration": 0.09583333333334565,
          "durationTicks": 46,
          "midi": 51,
          "name": "D#3",
          "ticks": 37728,
          "time": 78.6,
          "velocity": 0.8503937007874016
        },
        {
          "duration": 0.09583333333334565,
          "durationTicks": 46,
          "midi": 55,
          "name": "G3",
          "ticks": 37728,
          "time": 78.6,
          "velocity": 0.8503937007874016
        },
        {
          "duration": 0.09583333333333144,
          "durationTicks": 46,
          "midi": 54,
          "name": "F#3",
          "ticks": 37920,
          "time": 79,
          "velocity": 0.8503937007874016
        },
        {
          "duration": 0.09583333333333144,
          "durationTicks": 46,
          "midi": 57,
          "name": "A3",
          "ticks": 37920,
          "time": 79,
          "velocity": 0.8503937007874016
        },
        {
          "duration": 0.09583333333333144,
          "durationTicks": 46,
          "midi": 51,
          "name": "D#3",
          "ticks": 38112,
          "time": 79.4,
          "velocity": 0.8503937007874016
        },
        {
          "duration": 0.09583333333333144,
          "durationTicks": 46,
          "midi": 55,
          "name": "G3",
          "ticks": 38112,
          "time": 79.4,
          "velocity": 0.8503937007874016
        },
        {
          "duration": 0.09583333333333144,
          "durationTicks": 46,
          "midi": 50,
          "name": "D3",
          "ticks": 38304,
          "time": 79.80000000000001,
          "velocity": 0.8503937007874016
        },
        {
          "duration": 0.09583333333333144,
          "durationTicks": 46,
          "midi": 54,
          "name": "F#3",
          "ticks": 38304,
          "time": 79.80000000000001,
          "velocity": 0.8503937007874016
        },
        {
          "duration": 0.09583333333333144,
          "durationTicks": 46,
          "midi": 51,
          "name": "D#3",
          "ticks": 38496,
          "time": 80.2,
          "velocity": 0.8503937007874016
        },
        {
          "duration": 0.09583333333333144,
          "durationTicks": 46,
          "midi": 55,
          "name": "G3",
          "ticks": 38496,
          "time": 80.2,
          "velocity": 0.8503937007874016
        },
        {
          "duration": 0.09583333333334565,
          "durationTicks": 46,
          "midi": 54,
          "name": "F#3",
          "ticks": 38688,
          "time": 80.6,
          "velocity": 0.8503937007874016
        },
        {
          "duration": 0.09583333333334565,
          "durationTicks": 46,
          "midi": 57,
          "name": "A3",
          "ticks": 38688,
          "time": 80.6,
          "velocity": 0.8503937007874016
        },
        {
          "duration": 0.09583333333333144,
          "durationTicks": 46,
          "midi": 51,
          "name": "D#3",
          "ticks": 38880,
          "time": 81,
          "velocity": 0.8503937007874016
        },
        {
          "duration": 0.09583333333333144,
          "durationTicks": 46,
          "midi": 55,
          "name": "G3",
          "ticks": 38880,
          "time": 81,
          "velocity": 0.8503937007874016
        },
        {
          "duration": 0.09583333333333144,
          "durationTicks": 46,
          "midi": 50,
          "name": "D3",
          "ticks": 39072,
          "time": 81.4,
          "velocity": 0.8503937007874016
        },
        {
          "duration": 0.09583333333333144,
          "durationTicks": 46,
          "midi": 54,
          "name": "F#3",
          "ticks": 39072,
          "time": 81.4,
          "velocity": 0.8503937007874016
        },
        {
          "duration": 0.09583333333333144,
          "durationTicks": 46,
          "midi": 51,
          "name": "D#3",
          "ticks": 39264,
          "time": 81.80000000000001,
          "velocity": 0.8503937007874016
        },
        {
          "duration": 0.09583333333333144,
          "durationTicks": 46,
          "midi": 55,
          "name": "G3",
          "ticks": 39264,
          "time": 81.80000000000001,
          "velocity": 0.8503937007874016
        },
        {
          "duration": 0.09583333333333144,
          "durationTicks": 46,
          "midi": 54,
          "name": "F#3",
          "ticks": 39456,
          "time": 82.2,
          "velocity": 0.8503937007874016
        },
        {
          "duration": 0.09583333333333144,
          "durationTicks": 46,
          "midi": 57,
          "name": "A3",
          "ticks": 39456,
          "time": 82.2,
          "velocity": 0.8503937007874016
        },
        {
          "duration": 0.09583333333334565,
          "durationTicks": 46,
          "midi": 51,
          "name": "D#3",
          "ticks": 39648,
          "time": 82.6,
          "velocity": 0.8503937007874016
        },
        {
          "duration": 0.09583333333334565,
          "durationTicks": 46,
          "midi": 55,
          "name": "G3",
          "ticks": 39648,
          "time": 82.6,
          "velocity": 0.8503937007874016
        },
        {
          "duration": 0.09583333333333144,
          "durationTicks": 46,
          "midi": 50,
          "name": "D3",
          "ticks": 39840,
          "time": 83,
          "velocity": 0.8503937007874016
        },
        {
          "duration": 0.09583333333333144,
          "durationTicks": 46,
          "midi": 54,
          "name": "F#3",
          "ticks": 39840,
          "time": 83,
          "velocity": 0.8503937007874016
        },
        {
          "duration": 0.09583333333333144,
          "durationTicks": 46,
          "midi": 51,
          "name": "D#3",
          "ticks": 40032,
          "time": 83.4,
          "velocity": 0.8503937007874016
        },
        {
          "duration": 0.09583333333333144,
          "durationTicks": 46,
          "midi": 55,
          "name": "G3",
          "ticks": 40032,
          "time": 83.4,
          "velocity": 0.8503937007874016
        },
        {
          "duration": 0.09583333333333144,
          "durationTicks": 46,
          "midi": 54,
          "name": "F#3",
          "ticks": 40224,
          "time": 83.80000000000001,
          "velocity": 0.8503937007874016
        },
        {
          "duration": 0.09583333333333144,
          "durationTicks": 46,
          "midi": 57,
          "name": "A3",
          "ticks": 40224,
          "time": 83.80000000000001,
          "velocity": 0.8503937007874016
        },
        {
          "duration": 0.09583333333333144,
          "durationTicks": 46,
          "midi": 51,
          "name": "D#3",
          "ticks": 40416,
          "time": 84.2,
          "velocity": 0.8503937007874016
        },
        {
          "duration": 0.09583333333333144,
          "durationTicks": 46,
          "midi": 55,
          "name": "G3",
          "ticks": 40416,
          "time": 84.2,
          "velocity": 0.8503937007874016
        },
        {
          "duration": 0.09583333333333144,
          "durationTicks": 46,
          "midi": 50,
          "name": "D3",
          "ticks": 40608,
          "time": 84.6,
          "velocity": 0.8503937007874016
        },
        {
          "duration": 0.09583333333333144,
          "durationTicks": 46,
          "midi": 54,
          "name": "F#3",
          "ticks": 40608,
          "time": 84.6,
          "velocity": 0.8503937007874016
        },
        {
          "duration": 0.09583333333333144,
          "durationTicks": 46,
          "midi": 51,
          "name": "D#3",
          "ticks": 40800,
          "time": 85,
          "velocity": 0.8503937007874016
        },
        {
          "duration": 0.09583333333333144,
          "durationTicks": 46,
          "midi": 55,
          "name": "G3",
          "ticks": 40800,
          "time": 85,
          "velocity": 0.8503937007874016
        },
        {
          "duration": 0.09583333333333144,
          "durationTicks": 46,
          "midi": 54,
          "name": "F#3",
          "ticks": 40992,
          "time": 85.4,
          "velocity": 0.8503937007874016
        },
        {
          "duration": 0.09583333333333144,
          "durationTicks": 46,
          "midi": 57,
          "name": "A3",
          "ticks": 40992,
          "time": 85.4,
          "velocity": 0.8503937007874016
        },
        {
          "duration": 0.09583333333333144,
          "durationTicks": 46,
          "midi": 51,
          "name": "D#3",
          "ticks": 41184,
          "time": 85.80000000000001,
          "velocity": 0.8503937007874016
        },
        {
          "duration": 0.09583333333333144,
          "durationTicks": 46,
          "midi": 55,
          "name": "G3",
          "ticks": 41184,
          "time": 85.80000000000001,
          "velocity": 0.8503937007874016
        },
        {
          "duration": 0.09583333333333144,
          "durationTicks": 46,
          "midi": 50,
          "name": "D3",
          "ticks": 41376,
          "time": 86.2,
          "velocity": 0.8503937007874016
        },
        {
          "duration": 0.09583333333333144,
          "durationTicks": 46,
          "midi": 54,
          "name": "F#3",
          "ticks": 41376,
          "time": 86.2,
          "velocity": 0.8503937007874016
        },
        {
          "duration": 0.09583333333333144,
          "durationTicks": 46,
          "midi": 51,
          "name": "D#3",
          "ticks": 41568,
          "time": 86.6,
          "velocity": 0.8503937007874016
        },
        {
          "duration": 0.09583333333333144,
          "durationTicks": 46,
          "midi": 55,
          "name": "G3",
          "ticks": 41568,
          "time": 86.6,
          "velocity": 0.8503937007874016
        },
        {
          "duration": 0.09583333333333144,
          "durationTicks": 46,
          "midi": 54,
          "name": "F#3",
          "ticks": 41760,
          "time": 87,
          "velocity": 0.8503937007874016
        },
        {
          "duration": 0.09583333333333144,
          "durationTicks": 46,
          "midi": 57,
          "name": "A3",
          "ticks": 41760,
          "time": 87,
          "velocity": 0.8503937007874016
        },
        {
          "duration": 0.09583333333333144,
          "durationTicks": 46,
          "midi": 51,
          "name": "D#3",
          "ticks": 41952,
          "time": 87.4,
          "velocity": 0.8503937007874016
        },
        {
          "duration": 0.09583333333333144,
          "durationTicks": 46,
          "midi": 55,
          "name": "G3",
          "ticks": 41952,
          "time": 87.4,
          "velocity": 0.8503937007874016
        },
        {
          "duration": 0.09583333333333144,
          "durationTicks": 46,
          "midi": 50,
          "name": "D3",
          "ticks": 42144,
          "time": 87.80000000000001,
          "velocity": 0.8503937007874016
        },
        {
          "duration": 0.09583333333333144,
          "durationTicks": 46,
          "midi": 54,
          "name": "F#3",
          "ticks": 42144,
          "time": 87.80000000000001,
          "velocity": 0.8503937007874016
        },
        {
          "duration": 0.09583333333333144,
          "durationTicks": 46,
          "midi": 51,
          "name": "D#3",
          "ticks": 42336,
          "time": 88.2,
          "velocity": 0.8503937007874016
        },
        {
          "duration": 0.09583333333333144,
          "durationTicks": 46,
          "midi": 55,
          "name": "G3",
          "ticks": 42336,
          "time": 88.2,
          "velocity": 0.8503937007874016
        },
        {
          "duration": 0.09583333333333144,
          "durationTicks": 46,
          "midi": 54,
          "name": "F#3",
          "ticks": 42528,
          "time": 88.6,
          "velocity": 0.8503937007874016
        },
        {
          "duration": 0.09583333333333144,
          "durationTicks": 46,
          "midi": 57,
          "name": "A3",
          "ticks": 42528,
          "time": 88.6,
          "velocity": 0.8503937007874016
        },
        {
          "duration": 0.09583333333333144,
          "durationTicks": 46,
          "midi": 48,
          "name": "C3",
          "ticks": 52320,
          "time": 109,
          "velocity": 0.7244094488188977
        },
        {
          "duration": 0.09583333333333144,
          "durationTicks": 46,
          "midi": 53,
          "name": "F3",
          "ticks": 52320,
          "time": 109,
          "velocity": 0.7244094488188977
        },
        {
          "duration": 0.09583333333333144,
          "durationTicks": 46,
          "midi": 48,
          "name": "C3",
          "ticks": 52512,
          "time": 109.4,
          "velocity": 0.7244094488188977
        },
        {
          "duration": 0.09583333333333144,
          "durationTicks": 46,
          "midi": 53,
          "name": "F3",
          "ticks": 52512,
          "time": 109.4,
          "velocity": 0.7244094488188977
        },
        {
          "duration": 0.09583333333333144,
          "durationTicks": 46,
          "midi": 48,
          "name": "C3",
          "ticks": 52704,
          "time": 109.80000000000001,
          "velocity": 0.7244094488188977
        },
        {
          "duration": 0.09583333333333144,
          "durationTicks": 46,
          "midi": 53,
          "name": "F3",
          "ticks": 52704,
          "time": 109.80000000000001,
          "velocity": 0.7244094488188977
        },
        {
          "duration": 0.09583333333334565,
          "durationTicks": 46,
          "midi": 48,
          "name": "C3",
          "ticks": 52896,
          "time": 110.2,
          "velocity": 0.7244094488188977
        },
        {
          "duration": 0.09583333333334565,
          "durationTicks": 46,
          "midi": 53,
          "name": "F3",
          "ticks": 52896,
          "time": 110.2,
          "velocity": 0.7244094488188977
        },
        {
          "duration": 0.09583333333334565,
          "durationTicks": 46,
          "midi": 50,
          "name": "D3",
          "ticks": 53088,
          "time": 110.6,
          "velocity": 0.7244094488188977
        },
        {
          "duration": 0.09583333333334565,
          "durationTicks": 46,
          "midi": 55,
          "name": "G3",
          "ticks": 53088,
          "time": 110.6,
          "velocity": 0.7244094488188977
        },
        {
          "duration": 0.09583333333333144,
          "durationTicks": 46,
          "midi": 50,
          "name": "D3",
          "ticks": 53280,
          "time": 111,
          "velocity": 0.7244094488188977
        },
        {
          "duration": 0.09583333333333144,
          "durationTicks": 46,
          "midi": 55,
          "name": "G3",
          "ticks": 53280,
          "time": 111,
          "velocity": 0.7244094488188977
        },
        {
          "duration": 0.09583333333333144,
          "durationTicks": 46,
          "midi": 50,
          "name": "D3",
          "ticks": 53472,
          "time": 111.4,
          "velocity": 0.7244094488188977
        },
        {
          "duration": 0.09583333333333144,
          "durationTicks": 46,
          "midi": 55,
          "name": "G3",
          "ticks": 53472,
          "time": 111.4,
          "velocity": 0.7244094488188977
        },
        {
          "duration": 0.09583333333333144,
          "durationTicks": 46,
          "midi": 50,
          "name": "D3",
          "ticks": 53664,
          "time": 111.80000000000001,
          "velocity": 0.7244094488188977
        },
        {
          "duration": 0.09583333333333144,
          "durationTicks": 46,
          "midi": 55,
          "name": "G3",
          "ticks": 53664,
          "time": 111.80000000000001,
          "velocity": 0.7244094488188977
        },
        {
          "duration": 0.09583333333334565,
          "durationTicks": 46,
          "midi": 51,
          "name": "D#3",
          "ticks": 53856,
          "time": 112.2,
          "velocity": 0.7244094488188977
        },
        {
          "duration": 0.09583333333334565,
          "durationTicks": 46,
          "midi": 56,
          "name": "G#3",
          "ticks": 53856,
          "time": 112.2,
          "velocity": 0.7244094488188977
        },
        {
          "duration": 0.09583333333334565,
          "durationTicks": 46,
          "midi": 51,
          "name": "D#3",
          "ticks": 54048,
          "time": 112.6,
          "velocity": 0.7244094488188977
        },
        {
          "duration": 0.09583333333334565,
          "durationTicks": 46,
          "midi": 56,
          "name": "G#3",
          "ticks": 54048,
          "time": 112.6,
          "velocity": 0.7244094488188977
        },
        {
          "duration": 0.09583333333333144,
          "durationTicks": 46,
          "midi": 51,
          "name": "D#3",
          "ticks": 55392,
          "time": 115.4,
          "velocity": 0.8503937007874016
        },
        {
          "duration": 0.09583333333333144,
          "durationTicks": 46,
          "midi": 55,
          "name": "G3",
          "ticks": 55392,
          "time": 115.4,
          "velocity": 0.8503937007874016
        },
        {
          "duration": 0.09583333333334565,
          "durationTicks": 46,
          "midi": 54,
          "name": "F#3",
          "ticks": 55584,
          "time": 115.8,
          "velocity": 0.8503937007874016
        },
        {
          "duration": 0.09583333333334565,
          "durationTicks": 46,
          "midi": 57,
          "name": "A3",
          "ticks": 55584,
          "time": 115.8,
          "velocity": 0.8503937007874016
        },
        {
          "duration": 0.09583333333333144,
          "durationTicks": 46,
          "midi": 51,
          "name": "D#3",
          "ticks": 55776,
          "time": 116.2,
          "velocity": 0.8503937007874016
        },
        {
          "duration": 0.09583333333333144,
          "durationTicks": 46,
          "midi": 55,
          "name": "G3",
          "ticks": 55776,
          "time": 116.2,
          "velocity": 0.8503937007874016
        },
        {
          "duration": 0.09583333333333144,
          "durationTicks": 46,
          "midi": 50,
          "name": "D3",
          "ticks": 55968,
          "time": 116.60000000000001,
          "velocity": 0.8503937007874016
        },
        {
          "duration": 0.09583333333333144,
          "durationTicks": 46,
          "midi": 54,
          "name": "F#3",
          "ticks": 55968,
          "time": 116.60000000000001,
          "velocity": 0.8503937007874016
        },
        {
          "duration": 0.09583333333333144,
          "durationTicks": 46,
          "midi": 51,
          "name": "D#3",
          "ticks": 56160,
          "time": 117,
          "velocity": 0.8503937007874016
        },
        {
          "duration": 0.09583333333333144,
          "durationTicks": 46,
          "midi": 55,
          "name": "G3",
          "ticks": 56160,
          "time": 117,
          "velocity": 0.8503937007874016
        },
        {
          "duration": 0.09583333333333144,
          "durationTicks": 46,
          "midi": 54,
          "name": "F#3",
          "ticks": 56352,
          "time": 117.4,
          "velocity": 0.8503937007874016
        },
        {
          "duration": 0.09583333333333144,
          "durationTicks": 46,
          "midi": 57,
          "name": "A3",
          "ticks": 56352,
          "time": 117.4,
          "velocity": 0.8503937007874016
        },
        {
          "duration": 0.09583333333334565,
          "durationTicks": 46,
          "midi": 51,
          "name": "D#3",
          "ticks": 56544,
          "time": 117.8,
          "velocity": 0.8503937007874016
        },
        {
          "duration": 0.09583333333334565,
          "durationTicks": 46,
          "midi": 55,
          "name": "G3",
          "ticks": 56544,
          "time": 117.8,
          "velocity": 0.8503937007874016
        },
        {
          "duration": 0.09583333333333144,
          "durationTicks": 46,
          "midi": 50,
          "name": "D3",
          "ticks": 56736,
          "time": 118.2,
          "velocity": 0.8503937007874016
        },
        {
          "duration": 0.09583333333333144,
          "durationTicks": 46,
          "midi": 54,
          "name": "F#3",
          "ticks": 56736,
          "time": 118.2,
          "velocity": 0.8503937007874016
        },
        {
          "duration": 0.09583333333333144,
          "durationTicks": 46,
          "midi": 51,
          "name": "D#3",
          "ticks": 56928,
          "time": 118.60000000000001,
          "velocity": 0.8503937007874016
        },
        {
          "duration": 0.09583333333333144,
          "durationTicks": 46,
          "midi": 55,
          "name": "G3",
          "ticks": 56928,
          "time": 118.60000000000001,
          "velocity": 0.8503937007874016
        },
        {
          "duration": 0.09583333333333144,
          "durationTicks": 46,
          "midi": 54,
          "name": "F#3",
          "ticks": 57120,
          "time": 119,
          "velocity": 0.8503937007874016
        },
        {
          "duration": 0.09583333333333144,
          "durationTicks": 46,
          "midi": 57,
          "name": "A3",
          "ticks": 57120,
          "time": 119,
          "velocity": 0.8503937007874016
        },
        {
          "duration": 0.09583333333333144,
          "durationTicks": 46,
          "midi": 51,
          "name": "D#3",
          "ticks": 57312,
          "time": 119.4,
          "velocity": 0.8503937007874016
        },
        {
          "duration": 0.09583333333333144,
          "durationTicks": 46,
          "midi": 55,
          "name": "G3",
          "ticks": 57312,
          "time": 119.4,
          "velocity": 0.8503937007874016
        },
        {
          "duration": 0.09583333333334565,
          "durationTicks": 46,
          "midi": 50,
          "name": "D3",
          "ticks": 57504,
          "time": 119.8,
          "velocity": 0.8503937007874016
        },
        {
          "duration": 0.09583333333334565,
          "durationTicks": 46,
          "midi": 54,
          "name": "F#3",
          "ticks": 57504,
          "time": 119.8,
          "velocity": 0.8503937007874016
        },
        {
          "duration": 0.09583333333333144,
          "durationTicks": 46,
          "midi": 51,
          "name": "D#3",
          "ticks": 57696,
          "time": 120.2,
          "velocity": 0.8503937007874016
        },
        {
          "duration": 0.09583333333333144,
          "durationTicks": 46,
          "midi": 55,
          "name": "G3",
          "ticks": 57696,
          "time": 120.2,
          "velocity": 0.8503937007874016
        },
        {
          "duration": 0.09583333333333144,
          "durationTicks": 46,
          "midi": 54,
          "name": "F#3",
          "ticks": 57888,
          "time": 120.60000000000001,
          "velocity": 0.8503937007874016
        },
        {
          "duration": 0.09583333333333144,
          "durationTicks": 46,
          "midi": 57,
          "name": "A3",
          "ticks": 57888,
          "time": 120.60000000000001,
          "velocity": 0.8503937007874016
        },
        {
          "duration": 0.09583333333333144,
          "durationTicks": 46,
          "midi": 51,
          "name": "D#3",
          "ticks": 58080,
          "time": 121,
          "velocity": 0.8503937007874016
        },
        {
          "duration": 0.09583333333333144,
          "durationTicks": 46,
          "midi": 55,
          "name": "G3",
          "ticks": 58080,
          "time": 121,
          "velocity": 0.8503937007874016
        },
        {
          "duration": 0.09583333333333144,
          "durationTicks": 46,
          "midi": 50,
          "name": "D3",
          "ticks": 58272,
          "time": 121.4,
          "velocity": 0.8503937007874016
        },
        {
          "duration": 0.09583333333333144,
          "durationTicks": 46,
          "midi": 54,
          "name": "F#3",
          "ticks": 58272,
          "time": 121.4,
          "velocity": 0.8503937007874016
        },
        {
          "duration": 0.09583333333334565,
          "durationTicks": 46,
          "midi": 51,
          "name": "D#3",
          "ticks": 58464,
          "time": 121.8,
          "velocity": 0.8503937007874016
        },
        {
          "duration": 0.09583333333334565,
          "durationTicks": 46,
          "midi": 55,
          "name": "G3",
          "ticks": 58464,
          "time": 121.8,
          "velocity": 0.8503937007874016
        },
        {
          "duration": 0.09583333333333144,
          "durationTicks": 46,
          "midi": 54,
          "name": "F#3",
          "ticks": 58656,
          "time": 122.2,
          "velocity": 0.8503937007874016
        },
        {
          "duration": 0.09583333333333144,
          "durationTicks": 46,
          "midi": 57,
          "name": "A3",
          "ticks": 58656,
          "time": 122.2,
          "velocity": 0.8503937007874016
        },
        {
          "duration": 0.09583333333333144,
          "durationTicks": 46,
          "midi": 51,
          "name": "D#3",
          "ticks": 58848,
          "time": 122.60000000000001,
          "velocity": 0.8503937007874016
        },
        {
          "duration": 0.09583333333333144,
          "durationTicks": 46,
          "midi": 55,
          "name": "G3",
          "ticks": 58848,
          "time": 122.60000000000001,
          "velocity": 0.8503937007874016
        },
        {
          "duration": 0.09583333333333144,
          "durationTicks": 46,
          "midi": 50,
          "name": "D3",
          "ticks": 59040,
          "time": 123,
          "velocity": 0.8503937007874016
        },
        {
          "duration": 0.09583333333333144,
          "durationTicks": 46,
          "midi": 54,
          "name": "F#3",
          "ticks": 59040,
          "time": 123,
          "velocity": 0.8503937007874016
        },
        {
          "duration": 0.09583333333333144,
          "durationTicks": 46,
          "midi": 51,
          "name": "D#3",
          "ticks": 59232,
          "time": 123.4,
          "velocity": 0.8503937007874016
        },
        {
          "duration": 0.09583333333333144,
          "durationTicks": 46,
          "midi": 55,
          "name": "G3",
          "ticks": 59232,
          "time": 123.4,
          "velocity": 0.8503937007874016
        },
        {
          "duration": 0.09583333333334565,
          "durationTicks": 46,
          "midi": 54,
          "name": "F#3",
          "ticks": 59424,
          "time": 123.8,
          "velocity": 0.8503937007874016
        },
        {
          "duration": 0.09583333333334565,
          "durationTicks": 46,
          "midi": 57,
          "name": "A3",
          "ticks": 59424,
          "time": 123.8,
          "velocity": 0.8503937007874016
        },
        {
          "duration": 0.09583333333333144,
          "durationTicks": 46,
          "midi": 51,
          "name": "D#3",
          "ticks": 59616,
          "time": 124.2,
          "velocity": 0.8503937007874016
        },
        {
          "duration": 0.09583333333333144,
          "durationTicks": 46,
          "midi": 55,
          "name": "G3",
          "ticks": 59616,
          "time": 124.2,
          "velocity": 0.8503937007874016
        },
        {
          "duration": 0.09583333333333144,
          "durationTicks": 46,
          "midi": 50,
          "name": "D3",
          "ticks": 59808,
          "time": 124.60000000000001,
          "velocity": 0.8503937007874016
        },
        {
          "duration": 0.09583333333333144,
          "durationTicks": 46,
          "midi": 54,
          "name": "F#3",
          "ticks": 59808,
          "time": 124.60000000000001,
          "velocity": 0.8503937007874016
        },
        {
          "duration": 0.09583333333333144,
          "durationTicks": 46,
          "midi": 51,
          "name": "D#3",
          "ticks": 60000,
          "time": 125,
          "velocity": 0.8503937007874016
        },
        {
          "duration": 0.09583333333333144,
          "durationTicks": 46,
          "midi": 55,
          "name": "G3",
          "ticks": 60000,
          "time": 125,
          "velocity": 0.8503937007874016
        },
        {
          "duration": 0.09583333333333144,
          "durationTicks": 46,
          "midi": 54,
          "name": "F#3",
          "ticks": 60192,
          "time": 125.4,
          "velocity": 0.8503937007874016
        },
        {
          "duration": 0.09583333333333144,
          "durationTicks": 46,
          "midi": 57,
          "name": "A3",
          "ticks": 60192,
          "time": 125.4,
          "velocity": 0.8503937007874016
        },
        {
          "duration": 0.09583333333333144,
          "durationTicks": 46,
          "midi": 51,
          "name": "D#3",
          "ticks": 60384,
          "time": 125.80000000000001,
          "velocity": 0.8503937007874016
        },
        {
          "duration": 0.09583333333333144,
          "durationTicks": 46,
          "midi": 55,
          "name": "G3",
          "ticks": 60384,
          "time": 125.80000000000001,
          "velocity": 0.8503937007874016
        },
        {
          "duration": 0.09583333333333144,
          "durationTicks": 46,
          "midi": 50,
          "name": "D3",
          "ticks": 60576,
          "time": 126.2,
          "velocity": 0.8503937007874016
        },
        {
          "duration": 0.09583333333333144,
          "durationTicks": 46,
          "midi": 54,
          "name": "F#3",
          "ticks": 60576,
          "time": 126.2,
          "velocity": 0.8503937007874016
        },
        {
          "duration": 0.09583333333333144,
          "durationTicks": 46,
          "midi": 51,
          "name": "D#3",
          "ticks": 60768,
          "time": 126.60000000000001,
          "velocity": 0.8503937007874016
        },
        {
          "duration": 0.09583333333333144,
          "durationTicks": 46,
          "midi": 55,
          "name": "G3",
          "ticks": 60768,
          "time": 126.60000000000001,
          "velocity": 0.8503937007874016
        },
        {
          "duration": 0.09583333333333144,
          "durationTicks": 46,
          "midi": 54,
          "name": "F#3",
          "ticks": 60960,
          "time": 127,
          "velocity": 0.8503937007874016
        },
        {
          "duration": 0.09583333333333144,
          "durationTicks": 46,
          "midi": 57,
          "name": "A3",
          "ticks": 60960,
          "time": 127,
          "velocity": 0.8503937007874016
        },
        {
          "duration": 0.09583333333333144,
          "durationTicks": 46,
          "midi": 51,
          "name": "D#3",
          "ticks": 61152,
          "time": 127.4,
          "velocity": 0.8503937007874016
        },
        {
          "duration": 0.09583333333333144,
          "durationTicks": 46,
          "midi": 55,
          "name": "G3",
          "ticks": 61152,
          "time": 127.4,
          "velocity": 0.8503937007874016
        },
        {
          "duration": 0.09583333333333144,
          "durationTicks": 46,
          "midi": 50,
          "name": "D3",
          "ticks": 61344,
          "time": 127.80000000000001,
          "velocity": 0.8503937007874016
        },
        {
          "duration": 0.09583333333333144,
          "durationTicks": 46,
          "midi": 54,
          "name": "F#3",
          "ticks": 61344,
          "time": 127.80000000000001,
          "velocity": 0.8503937007874016
        },
        {
          "duration": 0.09583333333335986,
          "durationTicks": 46,
          "midi": 51,
          "name": "D#3",
          "ticks": 61536,
          "time": 128.2,
          "velocity": 0.8503937007874016
        },
        {
          "duration": 0.09583333333335986,
          "durationTicks": 46,
          "midi": 55,
          "name": "G3",
          "ticks": 61536,
          "time": 128.2,
          "velocity": 0.8503937007874016
        },
        {
          "duration": 0.09583333333333144,
          "durationTicks": 46,
          "midi": 54,
          "name": "F#3",
          "ticks": 61728,
          "time": 128.6,
          "velocity": 0.8503937007874016
        },
        {
          "duration": 0.09583333333333144,
          "durationTicks": 46,
          "midi": 57,
          "name": "A3",
          "ticks": 61728,
          "time": 128.6,
          "velocity": 0.8503937007874016
        },
        {
          "duration": 0.09583333333333144,
          "durationTicks": 46,
          "midi": 51,
          "name": "D#3",
          "ticks": 61920,
          "time": 129,
          "velocity": 0.8503937007874016
        },
        {
          "duration": 0.09583333333333144,
          "durationTicks": 46,
          "midi": 55,
          "name": "G3",
          "ticks": 61920,
          "time": 129,
          "velocity": 0.8503937007874016
        },
        {
          "duration": 0.09583333333333144,
          "durationTicks": 46,
          "midi": 50,
          "name": "D3",
          "ticks": 62112,
          "time": 129.4,
          "velocity": 0.8503937007874016
        },
        {
          "duration": 0.09583333333333144,
          "durationTicks": 46,
          "midi": 54,
          "name": "F#3",
          "ticks": 62112,
          "time": 129.4,
          "velocity": 0.8503937007874016
        },
        {
          "duration": 0.09583333333333144,
          "durationTicks": 46,
          "midi": 51,
          "name": "D#3",
          "ticks": 62304,
          "time": 129.8,
          "velocity": 0.8503937007874016
        },
        {
          "duration": 0.09583333333333144,
          "durationTicks": 46,
          "midi": 55,
          "name": "G3",
          "ticks": 62304,
          "time": 129.8,
          "velocity": 0.8503937007874016
        },
        {
          "duration": 0.09583333333335986,
          "durationTicks": 46,
          "midi": 54,
          "name": "F#3",
          "ticks": 62496,
          "time": 130.2,
          "velocity": 0.8503937007874016
        },
        {
          "duration": 0.09583333333335986,
          "durationTicks": 46,
          "midi": 57,
          "name": "A3",
          "ticks": 62496,
          "time": 130.2,
          "velocity": 0.8503937007874016
        },
        {
          "duration": 0.09583333333333144,
          "durationTicks": 46,
          "midi": 51,
          "name": "D#3",
          "ticks": 62688,
          "time": 130.6,
          "velocity": 0.8503937007874016
        },
        {
          "duration": 0.09583333333333144,
          "durationTicks": 46,
          "midi": 55,
          "name": "G3",
          "ticks": 62688,
          "time": 130.6,
          "velocity": 0.8503937007874016
        },
        {
          "duration": 0.09583333333333144,
          "durationTicks": 46,
          "midi": 50,
          "name": "D3",
          "ticks": 62880,
          "time": 131,
          "velocity": 0.8503937007874016
        },
        {
          "duration": 0.09583333333333144,
          "durationTicks": 46,
          "midi": 54,
          "name": "F#3",
          "ticks": 62880,
          "time": 131,
          "velocity": 0.8503937007874016
        },
        {
          "duration": 0.09583333333333144,
          "durationTicks": 46,
          "midi": 51,
          "name": "D#3",
          "ticks": 63072,
          "time": 131.4,
          "velocity": 0.8503937007874016
        },
        {
          "duration": 0.09583333333333144,
          "durationTicks": 46,
          "midi": 55,
          "name": "G3",
          "ticks": 63072,
          "time": 131.4,
          "velocity": 0.8503937007874016
        },
        {
          "duration": 0.09583333333333144,
          "durationTicks": 46,
          "midi": 54,
          "name": "F#3",
          "ticks": 63264,
          "time": 131.8,
          "velocity": 0.8503937007874016
        },
        {
          "duration": 0.09583333333333144,
          "durationTicks": 46,
          "midi": 57,
          "name": "A3",
          "ticks": 63264,
          "time": 131.8,
          "velocity": 0.8503937007874016
        },
        {
          "duration": 0.09583333333335986,
          "durationTicks": 46,
          "midi": 51,
          "name": "D#3",
          "ticks": 63456,
          "time": 132.2,
          "velocity": 0.8503937007874016
        },
        {
          "duration": 0.09583333333335986,
          "durationTicks": 46,
          "midi": 55,
          "name": "G3",
          "ticks": 63456,
          "time": 132.2,
          "velocity": 0.8503937007874016
        },
        {
          "duration": 0.09583333333333144,
          "durationTicks": 46,
          "midi": 50,
          "name": "D3",
          "ticks": 63648,
          "time": 132.6,
          "velocity": 0.8503937007874016
        },
        {
          "duration": 0.09583333333333144,
          "durationTicks": 46,
          "midi": 54,
          "name": "F#3",
          "ticks": 63648,
          "time": 132.6,
          "velocity": 0.8503937007874016
        },
        {
          "duration": 0.09583333333333144,
          "durationTicks": 46,
          "midi": 51,
          "name": "D#3",
          "ticks": 63840,
          "time": 133,
          "velocity": 0.8503937007874016
        },
        {
          "duration": 0.09583333333333144,
          "durationTicks": 46,
          "midi": 55,
          "name": "G3",
          "ticks": 63840,
          "time": 133,
          "velocity": 0.8503937007874016
        },
        {
          "duration": 0.09583333333333144,
          "durationTicks": 46,
          "midi": 54,
          "name": "F#3",
          "ticks": 64032,
          "time": 133.4,
          "velocity": 0.8503937007874016
        },
        {
          "duration": 0.09583333333333144,
          "durationTicks": 46,
          "midi": 57,
          "name": "A3",
          "ticks": 64032,
          "time": 133.4,
          "velocity": 0.8503937007874016
        },
        {
          "duration": 0.09583333333333144,
          "durationTicks": 46,
          "midi": 51,
          "name": "D#3",
          "ticks": 64224,
          "time": 133.8,
          "velocity": 0.8503937007874016
        },
        {
          "duration": 0.09583333333333144,
          "durationTicks": 46,
          "midi": 55,
          "name": "G3",
          "ticks": 64224,
          "time": 133.8,
          "velocity": 0.8503937007874016
        },
        {
          "duration": 0.09583333333335986,
          "durationTicks": 46,
          "midi": 50,
          "name": "D3",
          "ticks": 64416,
          "time": 134.2,
          "velocity": 0.8503937007874016
        },
        {
          "duration": 0.09583333333335986,
          "durationTicks": 46,
          "midi": 54,
          "name": "F#3",
          "ticks": 64416,
          "time": 134.2,
          "velocity": 0.8503937007874016
        },
        {
          "duration": 0.09583333333333144,
          "durationTicks": 46,
          "midi": 51,
          "name": "D#3",
          "ticks": 64608,
          "time": 134.6,
          "velocity": 0.8503937007874016
        },
        {
          "duration": 0.09583333333333144,
          "durationTicks": 46,
          "midi": 55,
          "name": "G3",
          "ticks": 64608,
          "time": 134.6,
          "velocity": 0.8503937007874016
        },
        {
          "duration": 0.09583333333333144,
          "durationTicks": 46,
          "midi": 54,
          "name": "F#3",
          "ticks": 64800,
          "time": 135,
          "velocity": 0.8503937007874016
        },
        {
          "duration": 0.09583333333333144,
          "durationTicks": 46,
          "midi": 57,
          "name": "A3",
          "ticks": 64800,
          "time": 135,
          "velocity": 0.8503937007874016
        },
        {
          "duration": 0.09583333333333144,
          "durationTicks": 46,
          "midi": 51,
          "name": "D#3",
          "ticks": 64992,
          "time": 135.4,
          "velocity": 0.8503937007874016
        },
        {
          "duration": 0.09583333333333144,
          "durationTicks": 46,
          "midi": 55,
          "name": "G3",
          "ticks": 64992,
          "time": 135.4,
          "velocity": 0.8503937007874016
        },
        {
          "duration": 0.09583333333333144,
          "durationTicks": 46,
          "midi": 50,
          "name": "D3",
          "ticks": 65184,
          "time": 135.8,
          "velocity": 0.8503937007874016
        },
        {
          "duration": 0.09583333333333144,
          "durationTicks": 46,
          "midi": 54,
          "name": "F#3",
          "ticks": 65184,
          "time": 135.8,
          "velocity": 0.8503937007874016
        },
        {
          "duration": 0.09583333333335986,
          "durationTicks": 46,
          "midi": 51,
          "name": "D#3",
          "ticks": 65376,
          "time": 136.2,
          "velocity": 0.8503937007874016
        },
        {
          "duration": 0.09583333333335986,
          "durationTicks": 46,
          "midi": 55,
          "name": "G3",
          "ticks": 65376,
          "time": 136.2,
          "velocity": 0.8503937007874016
        },
        {
          "duration": 0.09583333333333144,
          "durationTicks": 46,
          "midi": 54,
          "name": "F#3",
          "ticks": 65568,
          "time": 136.6,
          "velocity": 0.8503937007874016
        },
        {
          "duration": 0.09583333333333144,
          "durationTicks": 46,
          "midi": 57,
          "name": "A3",
          "ticks": 65568,
          "time": 136.6,
          "velocity": 0.8503937007874016
        },
        {
          "duration": 0.09583333333333144,
          "durationTicks": 46,
          "midi": 51,
          "name": "D#3",
          "ticks": 65760,
          "time": 137,
          "velocity": 0.8503937007874016
        },
        {
          "duration": 0.09583333333333144,
          "durationTicks": 46,
          "midi": 55,
          "name": "G3",
          "ticks": 65760,
          "time": 137,
          "velocity": 0.8503937007874016
        },
        {
          "duration": 0.09583333333333144,
          "durationTicks": 46,
          "midi": 50,
          "name": "D3",
          "ticks": 65952,
          "time": 137.4,
          "velocity": 0.8503937007874016
        },
        {
          "duration": 0.09583333333333144,
          "durationTicks": 46,
          "midi": 54,
          "name": "F#3",
          "ticks": 65952,
          "time": 137.4,
          "velocity": 0.8503937007874016
        },
        {
          "duration": 0.09583333333333144,
          "durationTicks": 46,
          "midi": 51,
          "name": "D#3",
          "ticks": 66144,
          "time": 137.8,
          "velocity": 0.8503937007874016
        },
        {
          "duration": 0.09583333333333144,
          "durationTicks": 46,
          "midi": 55,
          "name": "G3",
          "ticks": 66144,
          "time": 137.8,
          "velocity": 0.8503937007874016
        },
        {
          "duration": 0.09583333333335986,
          "durationTicks": 46,
          "midi": 54,
          "name": "F#3",
          "ticks": 66336,
          "time": 138.2,
          "velocity": 0.8503937007874016
        },
        {
          "duration": 0.09583333333335986,
          "durationTicks": 46,
          "midi": 57,
          "name": "A3",
          "ticks": 66336,
          "time": 138.2,
          "velocity": 0.8503937007874016
        },
        {
          "duration": 0.09583333333333144,
          "durationTicks": 46,
          "midi": 51,
          "name": "D#3",
          "ticks": 66528,
          "time": 138.6,
          "velocity": 0.8503937007874016
        },
        {
          "duration": 0.09583333333333144,
          "durationTicks": 46,
          "midi": 55,
          "name": "G3",
          "ticks": 66528,
          "time": 138.6,
          "velocity": 0.8503937007874016
        },
        {
          "duration": 0.09583333333333144,
          "durationTicks": 46,
          "midi": 50,
          "name": "D3",
          "ticks": 66720,
          "time": 139,
          "velocity": 0.8503937007874016
        },
        {
          "duration": 0.09583333333333144,
          "durationTicks": 46,
          "midi": 54,
          "name": "F#3",
          "ticks": 66720,
          "time": 139,
          "velocity": 0.8503937007874016
        },
        {
          "duration": 0.09583333333333144,
          "durationTicks": 46,
          "midi": 51,
          "name": "D#3",
          "ticks": 66912,
          "time": 139.4,
          "velocity": 0.8503937007874016
        },
        {
          "duration": 0.09583333333333144,
          "durationTicks": 46,
          "midi": 55,
          "name": "G3",
          "ticks": 66912,
          "time": 139.4,
          "velocity": 0.8503937007874016
        },
        {
          "duration": 0.09583333333333144,
          "durationTicks": 46,
          "midi": 54,
          "name": "F#3",
          "ticks": 67104,
          "time": 139.8,
          "velocity": 0.8503937007874016
        },
        {
          "duration": 0.09583333333333144,
          "durationTicks": 46,
          "midi": 57,
          "name": "A3",
          "ticks": 67104,
          "time": 139.8,
          "velocity": 0.8503937007874016
        },
        {
          "duration": 0.09583333333335986,
          "durationTicks": 46,
          "midi": 51,
          "name": "D#3",
          "ticks": 67296,
          "time": 140.2,
          "velocity": 0.8503937007874016
        },
        {
          "duration": 0.09583333333335986,
          "durationTicks": 46,
          "midi": 55,
          "name": "G3",
          "ticks": 67296,
          "time": 140.2,
          "velocity": 0.8503937007874016
        },
        {
          "duration": 0.09583333333333144,
          "durationTicks": 46,
          "midi": 50,
          "name": "D3",
          "ticks": 67488,
          "time": 140.6,
          "velocity": 0.8503937007874016
        },
        {
          "duration": 0.09583333333333144,
          "durationTicks": 46,
          "midi": 54,
          "name": "F#3",
          "ticks": 67488,
          "time": 140.6,
          "velocity": 0.8503937007874016
        },
        {
          "duration": 0.09583333333333144,
          "durationTicks": 46,
          "midi": 51,
          "name": "D#3",
          "ticks": 67680,
          "time": 141,
          "velocity": 0.8503937007874016
        },
        {
          "duration": 0.09583333333333144,
          "durationTicks": 46,
          "midi": 55,
          "name": "G3",
          "ticks": 67680,
          "time": 141,
          "velocity": 0.8503937007874016
        },
        {
          "duration": 0.09583333333333144,
          "durationTicks": 46,
          "midi": 54,
          "name": "F#3",
          "ticks": 67872,
          "time": 141.4,
          "velocity": 0.8503937007874016
        },
        {
          "duration": 0.09583333333333144,
          "durationTicks": 46,
          "midi": 57,
          "name": "A3",
          "ticks": 67872,
          "time": 141.4,
          "velocity": 0.8503937007874016
        },
        {
          "duration": 0.09583333333333144,
          "durationTicks": 46,
          "midi": 51,
          "name": "D#3",
          "ticks": 68064,
          "time": 141.8,
          "velocity": 0.8503937007874016
        },
        {
          "duration": 0.09583333333333144,
          "durationTicks": 46,
          "midi": 55,
          "name": "G3",
          "ticks": 68064,
          "time": 141.8,
          "velocity": 0.8503937007874016
        },
        {
          "duration": 0.09583333333335986,
          "durationTicks": 46,
          "midi": 50,
          "name": "D3",
          "ticks": 68256,
          "time": 142.2,
          "velocity": 0.8503937007874016
        },
        {
          "duration": 0.09583333333335986,
          "durationTicks": 46,
          "midi": 54,
          "name": "F#3",
          "ticks": 68256,
          "time": 142.2,
          "velocity": 0.8503937007874016
        },
        {
          "duration": 0.09583333333333144,
          "durationTicks": 46,
          "midi": 51,
          "name": "D#3",
          "ticks": 68448,
          "time": 142.6,
          "velocity": 0.8503937007874016
        },
        {
          "duration": 0.09583333333333144,
          "durationTicks": 46,
          "midi": 55,
          "name": "G3",
          "ticks": 68448,
          "time": 142.6,
          "velocity": 0.8503937007874016
        },
        {
          "duration": 0.09583333333333144,
          "durationTicks": 46,
          "midi": 54,
          "name": "F#3",
          "ticks": 68640,
          "time": 143,
          "velocity": 0.8503937007874016
        },
        {
          "duration": 0.09583333333333144,
          "durationTicks": 46,
          "midi": 57,
          "name": "A3",
          "ticks": 68640,
          "time": 143,
          "velocity": 0.8503937007874016
        },
        {
          "duration": 0.09583333333333144,
          "durationTicks": 46,
          "midi": 51,
          "name": "D#3",
          "ticks": 68832,
          "time": 143.4,
          "velocity": 0.8503937007874016
        },
        {
          "duration": 0.09583333333333144,
          "durationTicks": 46,
          "midi": 55,
          "name": "G3",
          "ticks": 68832,
          "time": 143.4,
          "velocity": 0.8503937007874016
        },
        {
          "duration": 0.09583333333333144,
          "durationTicks": 46,
          "midi": 50,
          "name": "D3",
          "ticks": 69024,
          "time": 143.8,
          "velocity": 0.8503937007874016
        },
        {
          "duration": 0.09583333333333144,
          "durationTicks": 46,
          "midi": 54,
          "name": "F#3",
          "ticks": 69024,
          "time": 143.8,
          "velocity": 0.8503937007874016
        },
        {
          "duration": 0.09583333333335986,
          "durationTicks": 46,
          "midi": 51,
          "name": "D#3",
          "ticks": 69216,
          "time": 144.2,
          "velocity": 0.8503937007874016
        },
        {
          "duration": 0.09583333333335986,
          "durationTicks": 46,
          "midi": 55,
          "name": "G3",
          "ticks": 69216,
          "time": 144.2,
          "velocity": 0.8503937007874016
        },
        {
          "duration": 0.09583333333333144,
          "durationTicks": 46,
          "midi": 54,
          "name": "F#3",
          "ticks": 69408,
          "time": 144.6,
          "velocity": 0.8503937007874016
        },
        {
          "duration": 0.09583333333333144,
          "durationTicks": 46,
          "midi": 57,
          "name": "A3",
          "ticks": 69408,
          "time": 144.6,
          "velocity": 0.8503937007874016
        },
        {
          "duration": 0.09583333333333144,
          "durationTicks": 46,
          "midi": 51,
          "name": "D#3",
          "ticks": 69600,
          "time": 145,
          "velocity": 0.8503937007874016
        },
        {
          "duration": 0.09583333333333144,
          "durationTicks": 46,
          "midi": 55,
          "name": "G3",
          "ticks": 69600,
          "time": 145,
          "velocity": 0.8503937007874016
        },
        {
          "duration": 0.09583333333333144,
          "durationTicks": 46,
          "midi": 50,
          "name": "D3",
          "ticks": 69792,
          "time": 145.4,
          "velocity": 0.8503937007874016
        },
        {
          "duration": 0.09583333333333144,
          "durationTicks": 46,
          "midi": 54,
          "name": "F#3",
          "ticks": 69792,
          "time": 145.4,
          "velocity": 0.8503937007874016
        },
        {
          "duration": 0.09583333333333144,
          "durationTicks": 46,
          "midi": 51,
          "name": "D#3",
          "ticks": 69984,
          "time": 145.8,
          "velocity": 0.8503937007874016
        },
        {
          "duration": 0.09583333333333144,
          "durationTicks": 46,
          "midi": 55,
          "name": "G3",
          "ticks": 69984,
          "time": 145.8,
          "velocity": 0.8503937007874016
        },
        {
          "duration": 0.09583333333335986,
          "durationTicks": 46,
          "midi": 54,
          "name": "F#3",
          "ticks": 70176,
          "time": 146.2,
          "velocity": 0.8503937007874016
        },
        {
          "duration": 0.09583333333335986,
          "durationTicks": 46,
          "midi": 57,
          "name": "A3",
          "ticks": 70176,
          "time": 146.2,
          "velocity": 0.8503937007874016
        },
        {
          "duration": 0.09583333333330302,
          "durationTicks": 46,
          "midi": 48,
          "name": "C3",
          "ticks": 79968,
          "time": 166.60000000000002,
          "velocity": 0.7244094488188977
        },
        {
          "duration": 0.09583333333330302,
          "durationTicks": 46,
          "midi": 53,
          "name": "F3",
          "ticks": 79968,
          "time": 166.60000000000002,
          "velocity": 0.7244094488188977
        },
        {
          "duration": 0.09583333333335986,
          "durationTicks": 46,
          "midi": 48,
          "name": "C3",
          "ticks": 80160,
          "time": 167,
          "velocity": 0.7244094488188977
        },
        {
          "duration": 0.09583333333335986,
          "durationTicks": 46,
          "midi": 53,
          "name": "F3",
          "ticks": 80160,
          "time": 167,
          "velocity": 0.7244094488188977
        },
        {
          "duration": 0.09583333333333144,
          "durationTicks": 46,
          "midi": 48,
          "name": "C3",
          "ticks": 80352,
          "time": 167.4,
          "velocity": 0.7244094488188977
        },
        {
          "duration": 0.09583333333333144,
          "durationTicks": 46,
          "midi": 53,
          "name": "F3",
          "ticks": 80352,
          "time": 167.4,
          "velocity": 0.7244094488188977
        },
        {
          "duration": 0.09583333333333144,
          "durationTicks": 46,
          "midi": 48,
          "name": "C3",
          "ticks": 80544,
          "time": 167.8,
          "velocity": 0.7244094488188977
        },
        {
          "duration": 0.09583333333333144,
          "durationTicks": 46,
          "midi": 53,
          "name": "F3",
          "ticks": 80544,
          "time": 167.8,
          "velocity": 0.7244094488188977
        },
        {
          "duration": 0.09583333333335986,
          "durationTicks": 46,
          "midi": 50,
          "name": "D3",
          "ticks": 80736,
          "time": 168.2,
          "velocity": 0.7244094488188977
        },
        {
          "duration": 0.09583333333335986,
          "durationTicks": 46,
          "midi": 55,
          "name": "G3",
          "ticks": 80736,
          "time": 168.2,
          "velocity": 0.7244094488188977
        },
        {
          "duration": 0.09583333333330302,
          "durationTicks": 46,
          "midi": 50,
          "name": "D3",
          "ticks": 80928,
          "time": 168.60000000000002,
          "velocity": 0.7244094488188977
        },
        {
          "duration": 0.09583333333330302,
          "durationTicks": 46,
          "midi": 55,
          "name": "G3",
          "ticks": 80928,
          "time": 168.60000000000002,
          "velocity": 0.7244094488188977
        },
        {
          "duration": 0.09583333333335986,
          "durationTicks": 46,
          "midi": 50,
          "name": "D3",
          "ticks": 81120,
          "time": 169,
          "velocity": 0.7244094488188977
        },
        {
          "duration": 0.09583333333335986,
          "durationTicks": 46,
          "midi": 55,
          "name": "G3",
          "ticks": 81120,
          "time": 169,
          "velocity": 0.7244094488188977
        },
        {
          "duration": 0.09583333333333144,
          "durationTicks": 46,
          "midi": 50,
          "name": "D3",
          "ticks": 81312,
          "time": 169.4,
          "velocity": 0.7244094488188977
        },
        {
          "duration": 0.09583333333333144,
          "durationTicks": 46,
          "midi": 55,
          "name": "G3",
          "ticks": 81312,
          "time": 169.4,
          "velocity": 0.7244094488188977
        },
        {
          "duration": 0.09583333333333144,
          "durationTicks": 46,
          "midi": 51,
          "name": "D#3",
          "ticks": 81504,
          "time": 169.8,
          "velocity": 0.7244094488188977
        },
        {
          "duration": 0.09583333333333144,
          "durationTicks": 46,
          "midi": 56,
          "name": "G#3",
          "ticks": 81504,
          "time": 169.8,
          "velocity": 0.7244094488188977
        },
        {
          "duration": 0.09583333333335986,
          "durationTicks": 46,
          "midi": 51,
          "name": "D#3",
          "ticks": 81696,
          "time": 170.2,
          "velocity": 0.7244094488188977
        },
        {
          "duration": 0.09583333333335986,
          "durationTicks": 46,
          "midi": 56,
          "name": "G#3",
          "ticks": 81696,
          "time": 170.2,
          "velocity": 0.7244094488188977
        }
      ],
      "endOfTrackTicks": 81742
    },
    {
      "channel": 0,
      "controlChanges": {
        "7": [
          {
            "number": 7,
            "ticks": 0,
            "time": 0,
            "value": 1
          }
        ],
        "10": [
          {
            "number": 10,
            "ticks": 0,
            "time": 0,
            "value": 0.5039370078740157
          }
        ]
      },
      "pitchBends": [],
      "instrument": {
        "family": "synth lead",
        "number": 81,
        "name": "lead 2 (sawtooth)"
      },
      "name": "Staff",
      "notes": [
        {
          "duration": 0.2,
          "durationTicks": 96,
          "midi": 36,
          "name": "C2",
          "ticks": 0,
          "time": 0,
          "velocity": 0.8503937007874016
        },
        {
          "duration": 0.20000000000000007,
          "durationTicks": 96,
          "midi": 36,
          "name": "C2",
          "ticks": 192,
          "time": 0.4,
          "velocity": 0.8503937007874016
        },
        {
          "duration": 0.19999999999999996,
          "durationTicks": 96,
          "midi": 36,
          "name": "C2",
          "ticks": 384,
          "time": 0.8,
          "velocity": 0.8503937007874016
        },
        {
          "duration": 0.19999999999999996,
          "durationTicks": 96,
          "midi": 36,
          "name": "C2",
          "ticks": 576,
          "time": 1.2000000000000002,
          "velocity": 0.8503937007874016
        },
        {
          "duration": 0.19999999999999996,
          "durationTicks": 96,
          "midi": 36,
          "name": "C2",
          "ticks": 768,
          "time": 1.6,
          "velocity": 0.8503937007874016
        },
        {
          "duration": 0.20000000000000018,
          "durationTicks": 96,
          "midi": 36,
          "name": "C2",
          "ticks": 960,
          "time": 2,
          "velocity": 0.8503937007874016
        },
        {
          "duration": 0.19999999999999973,
          "durationTicks": 96,
          "midi": 36,
          "name": "C2",
          "ticks": 1152,
          "time": 2.4000000000000004,
          "velocity": 0.8503937007874016
        },
        {
          "duration": 0.19999999999999973,
          "durationTicks": 96,
          "midi": 36,
          "name": "C2",
          "ticks": 1344,
          "time": 2.8000000000000003,
          "velocity": 0.8503937007874016
        },
        {
          "duration": 0.20000000000000018,
          "durationTicks": 96,
          "midi": 36,
          "name": "C2",
          "ticks": 1536,
          "time": 3.2,
          "velocity": 0.8503937007874016
        },
        {
          "duration": 0.20000000000000018,
          "durationTicks": 96,
          "midi": 36,
          "name": "C2",
          "ticks": 1728,
          "time": 3.6,
          "velocity": 0.8503937007874016
        },
        {
          "duration": 0.20000000000000018,
          "durationTicks": 96,
          "midi": 36,
          "name": "C2",
          "ticks": 1920,
          "time": 4,
          "velocity": 0.8503937007874016
        },
        {
          "duration": 0.20000000000000018,
          "durationTicks": 96,
          "midi": 36,
          "name": "C2",
          "ticks": 2112,
          "time": 4.4,
          "velocity": 0.8503937007874016
        },
        {
          "duration": 0.1999999999999993,
          "durationTicks": 96,
          "midi": 36,
          "name": "C2",
          "ticks": 2304,
          "time": 4.800000000000001,
          "velocity": 0.8503937007874016
        },
        {
          "duration": 0.20000000000000018,
          "durationTicks": 96,
          "midi": 36,
          "name": "C2",
          "ticks": 2496,
          "time": 5.2,
          "velocity": 0.8503937007874016
        },
        {
          "duration": 0.20000000000000018,
          "durationTicks": 96,
          "midi": 36,
          "name": "C2",
          "ticks": 2688,
          "time": 5.6000000000000005,
          "velocity": 0.8503937007874016
        },
        {
          "duration": 0.20000000000000018,
          "durationTicks": 96,
          "midi": 36,
          "name": "C2",
          "ticks": 2880,
          "time": 6,
          "velocity": 0.8503937007874016
        },
        {
          "duration": 0.20000000000000018,
          "durationTicks": 96,
          "midi": 36,
          "name": "C2",
          "ticks": 3072,
          "time": 6.4,
          "velocity": 0.8503937007874016
        },
        {
          "duration": 0.1999999999999993,
          "durationTicks": 96,
          "midi": 36,
          "name": "C2",
          "ticks": 3264,
          "time": 6.800000000000001,
          "velocity": 0.8503937007874016
        },
        {
          "duration": 0.20000000000000018,
          "durationTicks": 96,
          "midi": 36,
          "name": "C2",
          "ticks": 3456,
          "time": 7.2,
          "velocity": 0.8503937007874016
        },
        {
          "duration": 0.20000000000000018,
          "durationTicks": 96,
          "midi": 36,
          "name": "C2",
          "ticks": 3648,
          "time": 7.6000000000000005,
          "velocity": 0.8503937007874016
        },
        {
          "duration": 0.20000000000000107,
          "durationTicks": 96,
          "midi": 36,
          "name": "C2",
          "ticks": 3840,
          "time": 8,
          "velocity": 0.8503937007874016
        },
        {
          "duration": 0.1999999999999993,
          "durationTicks": 96,
          "midi": 36,
          "name": "C2",
          "ticks": 4032,
          "time": 8.4,
          "velocity": 0.8503937007874016
        },
        {
          "duration": 0.1999999999999993,
          "durationTicks": 96,
          "midi": 36,
          "name": "C2",
          "ticks": 4224,
          "time": 8.8,
          "velocity": 0.8503937007874016
        },
        {
          "duration": 0.1999999999999993,
          "durationTicks": 96,
          "midi": 36,
          "name": "C2",
          "ticks": 4416,
          "time": 9.200000000000001,
          "velocity": 0.8503937007874016
        },
        {
          "duration": 0.1999999999999993,
          "durationTicks": 96,
          "midi": 36,
          "name": "C2",
          "ticks": 4608,
          "time": 9.600000000000001,
          "velocity": 0.8503937007874016
        },
        {
          "duration": 0.20000000000000107,
          "durationTicks": 96,
          "midi": 36,
          "name": "C2",
          "ticks": 4800,
          "time": 10,
          "velocity": 0.8503937007874016
        },
        {
          "duration": 0.20000000000000107,
          "durationTicks": 96,
          "midi": 36,
          "name": "C2",
          "ticks": 4992,
          "time": 10.4,
          "velocity": 0.8503937007874016
        },
        {
          "duration": 0.1999999999999993,
          "durationTicks": 96,
          "midi": 36,
          "name": "C2",
          "ticks": 5184,
          "time": 10.8,
          "velocity": 0.8503937007874016
        },
        {
          "duration": 0.1999999999999993,
          "durationTicks": 96,
          "midi": 36,
          "name": "C2",
          "ticks": 5376,
          "time": 11.200000000000001,
          "velocity": 0.8503937007874016
        },
        {
          "duration": 0.1999999999999993,
          "durationTicks": 96,
          "midi": 36,
          "name": "C2",
          "ticks": 5568,
          "time": 11.600000000000001,
          "velocity": 0.8503937007874016
        },
        {
          "duration": 0.20000000000000107,
          "durationTicks": 96,
          "midi": 36,
          "name": "C2",
          "ticks": 5760,
          "time": 12,
          "velocity": 0.8503937007874016
        },
        {
          "duration": 0.20000000000000107,
          "durationTicks": 96,
          "midi": 36,
          "name": "C2",
          "ticks": 5952,
          "time": 12.4,
          "velocity": 0.8503937007874016
        },
        {
          "duration": 0.1999999999999993,
          "durationTicks": 96,
          "midi": 36,
          "name": "C2",
          "ticks": 6144,
          "time": 12.8,
          "velocity": 0.8503937007874016
        },
        {
          "duration": 0.1999999999999993,
          "durationTicks": 96,
          "midi": 36,
          "name": "C2",
          "ticks": 6336,
          "time": 13.200000000000001,
          "velocity": 0.8503937007874016
        },
        {
          "duration": 0.1999999999999993,
          "durationTicks": 96,
          "midi": 36,
          "name": "C2",
          "ticks": 6528,
          "time": 13.600000000000001,
          "velocity": 0.8503937007874016
        },
        {
          "duration": 0.20000000000000107,
          "durationTicks": 96,
          "midi": 36,
          "name": "C2",
          "ticks": 6720,
          "time": 14,
          "velocity": 0.8503937007874016
        },
        {
          "duration": 0.20000000000000107,
          "durationTicks": 96,
          "midi": 36,
          "name": "C2",
          "ticks": 6912,
          "time": 14.4,
          "velocity": 0.8503937007874016
        },
        {
          "duration": 0.1999999999999993,
          "durationTicks": 96,
          "midi": 36,
          "name": "C2",
          "ticks": 7104,
          "time": 14.8,
          "velocity": 0.8503937007874016
        },
        {
          "duration": 0.1999999999999993,
          "durationTicks": 96,
          "midi": 36,
          "name": "C2",
          "ticks": 7296,
          "time": 15.200000000000001,
          "velocity": 0.8503937007874016
        },
        {
          "duration": 0.1999999999999993,
          "durationTicks": 96,
          "midi": 36,
          "name": "C2",
          "ticks": 7488,
          "time": 15.600000000000001,
          "velocity": 0.8503937007874016
        },
        {
          "duration": 0.1999999999999993,
          "durationTicks": 96,
          "midi": 36,
          "name": "C2",
          "ticks": 7680,
          "time": 16,
          "velocity": 0.8503937007874016
        },
        {
          "duration": 0.1999999999999993,
          "durationTicks": 96,
          "midi": 36,
          "name": "C2",
          "ticks": 7872,
          "time": 16.400000000000002,
          "velocity": 0.8503937007874016
        },
        {
          "duration": 0.1999999999999993,
          "durationTicks": 96,
          "midi": 36,
          "name": "C2",
          "ticks": 8064,
          "time": 16.8,
          "velocity": 0.8503937007874016
        },
        {
          "duration": 0.20000000000000284,
          "durationTicks": 96,
          "midi": 36,
          "name": "C2",
          "ticks": 8256,
          "time": 17.2,
          "velocity": 0.8503937007874016
        },
        {
          "duration": 0.1999999999999993,
          "durationTicks": 96,
          "midi": 36,
          "name": "C2",
          "ticks": 8448,
          "time": 17.6,
          "velocity": 0.8503937007874016
        },
        {
          "duration": 0.1999999999999993,
          "durationTicks": 96,
          "midi": 36,
          "name": "C2",
          "ticks": 8640,
          "time": 18,
          "velocity": 0.8503937007874016
        },
        {
          "duration": 0.1999999999999993,
          "durationTicks": 96,
          "midi": 36,
          "name": "C2",
          "ticks": 8832,
          "time": 18.400000000000002,
          "velocity": 0.8503937007874016
        },
        {
          "duration": 0.1999999999999993,
          "durationTicks": 96,
          "midi": 36,
          "name": "C2",
          "ticks": 9024,
          "time": 18.8,
          "velocity": 0.8503937007874016
        },
        {
          "duration": 0.1999999999999993,
          "durationTicks": 96,
          "midi": 36,
          "name": "C2",
          "ticks": 9216,
          "time": 19.200000000000003,
          "velocity": 0.8503937007874016
        },
        {
          "duration": 0.1999999999999993,
          "durationTicks": 96,
          "midi": 36,
          "name": "C2",
          "ticks": 9408,
          "time": 19.6,
          "velocity": 0.8503937007874016
        },
        {
          "duration": 0.20000000000000284,
          "durationTicks": 96,
          "midi": 36,
          "name": "C2",
          "ticks": 9600,
          "time": 20,
          "velocity": 0.8503937007874016
        },
        {
          "duration": 0.1999999999999993,
          "durationTicks": 96,
          "midi": 36,
          "name": "C2",
          "ticks": 9792,
          "time": 20.400000000000002,
          "velocity": 0.8503937007874016
        },
        {
          "duration": 0.1999999999999993,
          "durationTicks": 96,
          "midi": 36,
          "name": "C2",
          "ticks": 9984,
          "time": 20.8,
          "velocity": 0.8503937007874016
        },
        {
          "duration": 0.1999999999999993,
          "durationTicks": 96,
          "midi": 36,
          "name": "C2",
          "ticks": 10176,
          "time": 21.200000000000003,
          "velocity": 0.8503937007874016
        },
        {
          "duration": 0.1999999999999993,
          "durationTicks": 96,
          "midi": 36,
          "name": "C2",
          "ticks": 10368,
          "time": 21.6,
          "velocity": 0.8503937007874016
        },
        {
          "duration": 0.20000000000000284,
          "durationTicks": 96,
          "midi": 36,
          "name": "C2",
          "ticks": 10560,
          "time": 22,
          "velocity": 0.8503937007874016
        },
        {
          "duration": 0.1999999999999993,
          "durationTicks": 96,
          "midi": 36,
          "name": "C2",
          "ticks": 10752,
          "time": 22.400000000000002,
          "velocity": 0.8503937007874016
        },
        {
          "duration": 0.1999999999999993,
          "durationTicks": 96,
          "midi": 36,
          "name": "C2",
          "ticks": 10944,
          "time": 22.8,
          "velocity": 0.8503937007874016
        },
        {
          "duration": 0.1999999999999993,
          "durationTicks": 96,
          "midi": 36,
          "name": "C2",
          "ticks": 11136,
          "time": 23.200000000000003,
          "velocity": 0.8503937007874016
        },
        {
          "duration": 0.1999999999999993,
          "durationTicks": 96,
          "midi": 36,
          "name": "C2",
          "ticks": 11328,
          "time": 23.6,
          "velocity": 0.8503937007874016
        },
        {
          "duration": 0.20000000000000284,
          "durationTicks": 96,
          "midi": 36,
          "name": "C2",
          "ticks": 11520,
          "time": 24,
          "velocity": 0.8503937007874016
        },
        {
          "duration": 0.1999999999999993,
          "durationTicks": 96,
          "midi": 36,
          "name": "C2",
          "ticks": 11712,
          "time": 24.400000000000002,
          "velocity": 0.8503937007874016
        },
        {
          "duration": 0.1999999999999993,
          "durationTicks": 96,
          "midi": 36,
          "name": "C2",
          "ticks": 11904,
          "time": 24.8,
          "velocity": 0.8503937007874016
        },
        {
          "duration": 0.1999999999999993,
          "durationTicks": 96,
          "midi": 36,
          "name": "C2",
          "ticks": 12096,
          "time": 25.200000000000003,
          "velocity": 0.8503937007874016
        },
        {
          "duration": 0.1999999999999993,
          "durationTicks": 96,
          "midi": 36,
          "name": "C2",
          "ticks": 12288,
          "time": 25.6,
          "velocity": 0.8503937007874016
        },
        {
          "duration": 0.20000000000000284,
          "durationTicks": 96,
          "midi": 36,
          "name": "C2",
          "ticks": 12480,
          "time": 26,
          "velocity": 0.8503937007874016
        },
        {
          "duration": 0.1999999999999993,
          "durationTicks": 96,
          "midi": 36,
          "name": "C2",
          "ticks": 12672,
          "time": 26.400000000000002,
          "velocity": 0.8503937007874016
        },
        {
          "duration": 0.1999999999999993,
          "durationTicks": 96,
          "midi": 36,
          "name": "C2",
          "ticks": 12864,
          "time": 26.8,
          "velocity": 0.8503937007874016
        },
        {
          "duration": 0.1999999999999993,
          "durationTicks": 96,
          "midi": 36,
          "name": "C2",
          "ticks": 13056,
          "time": 27.200000000000003,
          "velocity": 0.8503937007874016
        },
        {
          "duration": 0.1999999999999993,
          "durationTicks": 96,
          "midi": 36,
          "name": "C2",
          "ticks": 13248,
          "time": 27.6,
          "velocity": 0.8503937007874016
        },
        {
          "duration": 0.20000000000000284,
          "durationTicks": 96,
          "midi": 36,
          "name": "C2",
          "ticks": 13440,
          "time": 28,
          "velocity": 0.8503937007874016
        },
        {
          "duration": 0.1999999999999993,
          "durationTicks": 96,
          "midi": 36,
          "name": "C2",
          "ticks": 13632,
          "time": 28.400000000000002,
          "velocity": 0.8503937007874016
        },
        {
          "duration": 0.1999999999999993,
          "durationTicks": 96,
          "midi": 36,
          "name": "C2",
          "ticks": 13824,
          "time": 28.8,
          "velocity": 0.8503937007874016
        },
        {
          "duration": 0.1999999999999993,
          "durationTicks": 96,
          "midi": 36,
          "name": "C2",
          "ticks": 14016,
          "time": 29.200000000000003,
          "velocity": 0.8503937007874016
        },
        {
          "duration": 0.1999999999999993,
          "durationTicks": 96,
          "midi": 36,
          "name": "C2",
          "ticks": 14208,
          "time": 29.6,
          "velocity": 0.8503937007874016
        },
        {
          "duration": 0.20000000000000284,
          "durationTicks": 96,
          "midi": 36,
          "name": "C2",
          "ticks": 14400,
          "time": 30,
          "velocity": 0.8503937007874016
        },
        {
          "duration": 0.1999999999999993,
          "durationTicks": 96,
          "midi": 36,
          "name": "C2",
          "ticks": 14592,
          "time": 30.400000000000002,
          "velocity": 0.8503937007874016
        },
        {
          "duration": 0.1999999999999993,
          "durationTicks": 96,
          "midi": 36,
          "name": "C2",
          "ticks": 14784,
          "time": 30.8,
          "velocity": 0.8503937007874016
        },
        {
          "duration": 0.1999999999999993,
          "durationTicks": 96,
          "midi": 36,
          "name": "C2",
          "ticks": 14976,
          "time": 31.200000000000003,
          "velocity": 0.8503937007874016
        },
        {
          "duration": 0.20000000000000284,
          "durationTicks": 96,
          "midi": 41,
          "name": "F2",
          "ticks": 15360,
          "time": 32,
          "velocity": 0.8503937007874016
        },
        {
          "duration": 0.20000000000000284,
          "durationTicks": 96,
          "midi": 36,
          "name": "C2",
          "ticks": 15552,
          "time": 32.4,
          "velocity": 0.8503937007874016
        },
        {
          "duration": 0.19999999999999574,
          "durationTicks": 96,
          "midi": 41,
          "name": "F2",
          "ticks": 15744,
          "time": 32.800000000000004,
          "velocity": 0.8503937007874016
        },
        {
          "duration": 0.19999999999999574,
          "durationTicks": 96,
          "midi": 36,
          "name": "C2",
          "ticks": 15936,
          "time": 33.2,
          "velocity": 0.8503937007874016
        },
        {
          "duration": 0.20000000000000284,
          "durationTicks": 96,
          "midi": 43,
          "name": "G2",
          "ticks": 16128,
          "time": 33.6,
          "velocity": 0.8503937007874016
        },
        {
          "duration": 0.20000000000000284,
          "durationTicks": 96,
          "midi": 38,
          "name": "D2",
          "ticks": 16320,
          "time": 34,
          "velocity": 0.8503937007874016
        },
        {
          "duration": 0.20000000000000284,
          "durationTicks": 96,
          "midi": 43,
          "name": "G2",
          "ticks": 16512,
          "time": 34.4,
          "velocity": 0.8503937007874016
        },
        {
          "duration": 0.19999999999999574,
          "durationTicks": 96,
          "midi": 38,
          "name": "D2",
          "ticks": 16704,
          "time": 34.800000000000004,
          "velocity": 0.8503937007874016
        },
        {
          "duration": 0.19999999999999574,
          "durationTicks": 96,
          "midi": 44,
          "name": "G#2",
          "ticks": 16896,
          "time": 35.2,
          "velocity": 0.8503937007874016
        },
        {
          "duration": 0.20000000000000284,
          "durationTicks": 96,
          "midi": 39,
          "name": "D#2",
          "ticks": 17088,
          "time": 35.6,
          "velocity": 0.8503937007874016
        },
        {
          "duration": 0.20000000000000284,
          "durationTicks": 96,
          "midi": 44,
          "name": "G#2",
          "ticks": 17280,
          "time": 36,
          "velocity": 0.8503937007874016
        },
        {
          "duration": 0.20000000000000284,
          "durationTicks": 96,
          "midi": 39,
          "name": "D#2",
          "ticks": 17472,
          "time": 36.4,
          "velocity": 0.8503937007874016
        },
        {
          "duration": 0.19999999999999574,
          "durationTicks": 96,
          "midi": 39,
          "name": "D#2",
          "ticks": 17664,
          "time": 36.800000000000004,
          "velocity": 0.8503937007874016
        },
        {
          "duration": 0.19999999999999574,
          "durationTicks": 96,
          "midi": 34,
          "name": "A#1",
          "ticks": 17856,
          "time": 37.2,
          "velocity": 0.8503937007874016
        },
        {
          "duration": 0.20000000000000284,
          "durationTicks": 96,
          "midi": 37,
          "name": "C#2",
          "ticks": 18048,
          "time": 37.6,
          "velocity": 0.8503937007874016
        },
        {
          "duration": 0.20000000000000284,
          "durationTicks": 96,
          "midi": 43,
          "name": "G2",
          "ticks": 18240,
          "time": 38,
          "velocity": 0.8503937007874016
        },
        {
          "duration": 0.19999999999999574,
          "durationTicks": 96,
          "midi": 41,
          "name": "F2",
          "ticks": 18432,
          "time": 38.400000000000006,
          "velocity": 0.8503937007874016
        },
        {
          "duration": 0.19999999999999574,
          "durationTicks": 96,
          "midi": 36,
          "name": "C2",
          "ticks": 18624,
          "time": 38.800000000000004,
          "velocity": 0.8503937007874016
        },
        {
          "duration": 0.20000000000000284,
          "durationTicks": 96,
          "midi": 41,
          "name": "F2",
          "ticks": 18816,
          "time": 39.2,
          "velocity": 0.8503937007874016
        },
        {
          "duration": 0.20000000000000284,
          "durationTicks": 96,
          "midi": 36,
          "name": "C2",
          "ticks": 19008,
          "time": 39.6,
          "velocity": 0.8503937007874016
        },
        {
          "duration": 0.20000000000000284,
          "durationTicks": 96,
          "midi": 43,
          "name": "G2",
          "ticks": 19200,
          "time": 40,
          "velocity": 0.8503937007874016
        },
        {
          "duration": 0.19999999999999574,
          "durationTicks": 96,
          "midi": 38,
          "name": "D2",
          "ticks": 19392,
          "time": 40.400000000000006,
          "velocity": 0.8503937007874016
        },
        {
          "duration": 0.19999999999999574,
          "durationTicks": 96,
          "midi": 43,
          "name": "G2",
          "ticks": 19584,
          "time": 40.800000000000004,
          "velocity": 0.8503937007874016
        },
        {
          "duration": 0.20000000000000284,
          "durationTicks": 96,
          "midi": 38,
          "name": "D2",
          "ticks": 19776,
          "time": 41.2,
          "velocity": 0.8503937007874016
        },
        {
          "duration": 0.20000000000000284,
          "durationTicks": 96,
          "midi": 44,
          "name": "G#2",
          "ticks": 19968,
          "time": 41.6,
          "velocity": 0.8503937007874016
        },
        {
          "duration": 0.20000000000000284,
          "durationTicks": 96,
          "midi": 39,
          "name": "D#2",
          "ticks": 20160,
          "time": 42,
          "velocity": 0.8503937007874016
        },
        {
          "duration": 0.19999999999999574,
          "durationTicks": 96,
          "midi": 44,
          "name": "G#2",
          "ticks": 20352,
          "time": 42.400000000000006,
          "velocity": 0.8503937007874016
        },
        {
          "duration": 0.19999999999999574,
          "durationTicks": 96,
          "midi": 39,
          "name": "D#2",
          "ticks": 20544,
          "time": 42.800000000000004,
          "velocity": 0.8503937007874016
        },
        {
          "duration": 0.20000000000000284,
          "durationTicks": 96,
          "midi": 41,
          "name": "F2",
          "ticks": 20736,
          "time": 43.2,
          "velocity": 0.8503937007874016
        },
        {
          "duration": 0.20000000000000284,
          "durationTicks": 96,
          "midi": 36,
          "name": "C2",
          "ticks": 20928,
          "time": 43.6,
          "velocity": 0.8503937007874016
        },
        {
          "duration": 0.09583333333333144,
          "durationTicks": 46,
          "midi": 43,
          "name": "G2",
          "ticks": 21120,
          "time": 44,
          "velocity": 0.8503937007874016
        },
        {
          "duration": 0.09583333333333144,
          "durationTicks": 46,
          "midi": 41,
          "name": "F2",
          "ticks": 21216,
          "time": 44.2,
          "velocity": 0.8503937007874016
        },
        {
          "duration": 0.09583333333333144,
          "durationTicks": 46,
          "midi": 39,
          "name": "D#2",
          "ticks": 21312,
          "time": 44.400000000000006,
          "velocity": 0.8503937007874016
        },
        {
          "duration": 0.09583333333333144,
          "durationTicks": 46,
          "midi": 38,
          "name": "D2",
          "ticks": 21408,
          "time": 44.6,
          "velocity": 0.8503937007874016
        },
        {
          "duration": 0.19999999999999574,
          "durationTicks": 96,
          "midi": 41,
          "name": "F2",
          "ticks": 21504,
          "time": 44.800000000000004,
          "velocity": 0.8503937007874016
        },
        {
          "duration": 0.20000000000000284,
          "durationTicks": 96,
          "midi": 36,
          "name": "C2",
          "ticks": 21696,
          "time": 45.2,
          "velocity": 0.8503937007874016
        },
        {
          "duration": 0.20000000000000284,
          "durationTicks": 96,
          "midi": 41,
          "name": "F2",
          "ticks": 21888,
          "time": 45.6,
          "velocity": 0.8503937007874016
        },
        {
          "duration": 0.20000000000000284,
          "durationTicks": 96,
          "midi": 36,
          "name": "C2",
          "ticks": 22080,
          "time": 46,
          "velocity": 0.8503937007874016
        },
        {
          "duration": 0.19999999999999574,
          "durationTicks": 96,
          "midi": 43,
          "name": "G2",
          "ticks": 22272,
          "time": 46.400000000000006,
          "velocity": 0.8503937007874016
        },
        {
          "duration": 0.19999999999999574,
          "durationTicks": 96,
          "midi": 38,
          "name": "D2",
          "ticks": 22464,
          "time": 46.800000000000004,
          "velocity": 0.8503937007874016
        },
        {
          "duration": 0.20000000000000284,
          "durationTicks": 96,
          "midi": 43,
          "name": "G2",
          "ticks": 22656,
          "time": 47.2,
          "velocity": 0.8503937007874016
        },
        {
          "duration": 0.20000000000000284,
          "durationTicks": 96,
          "midi": 38,
          "name": "D2",
          "ticks": 22848,
          "time": 47.6,
          "velocity": 0.8503937007874016
        },
        {
          "duration": 0.20000000000000284,
          "durationTicks": 96,
          "midi": 44,
          "name": "G#2",
          "ticks": 23040,
          "time": 48,
          "velocity": 0.8503937007874016
        },
        {
          "duration": 0.19999999999999574,
          "durationTicks": 96,
          "midi": 39,
          "name": "D#2",
          "ticks": 23232,
          "time": 48.400000000000006,
          "velocity": 0.8503937007874016
        },
        {
          "duration": 0.19999999999999574,
          "durationTicks": 96,
          "midi": 44,
          "name": "G#2",
          "ticks": 23424,
          "time": 48.800000000000004,
          "velocity": 0.8503937007874016
        },
        {
          "duration": 0.20000000000000284,
          "durationTicks": 96,
          "midi": 39,
          "name": "D#2",
          "ticks": 23616,
          "time": 49.2,
          "velocity": 0.8503937007874016
        },
        {
          "duration": 0.20000000000000284,
          "durationTicks": 96,
          "midi": 39,
          "name": "D#2",
          "ticks": 23808,
          "time": 49.6,
          "velocity": 0.8503937007874016
        },
        {
          "duration": 0.20000000000000284,
          "durationTicks": 96,
          "midi": 34,
          "name": "A#1",
          "ticks": 24000,
          "time": 50,
          "velocity": 0.8503937007874016
        },
        {
          "duration": 0.19999999999999574,
          "durationTicks": 96,
          "midi": 37,
          "name": "C#2",
          "ticks": 24192,
          "time": 50.400000000000006,
          "velocity": 0.8503937007874016
        },
        {
          "duration": 0.19999999999999574,
          "durationTicks": 96,
          "midi": 43,
          "name": "G2",
          "ticks": 24384,
          "time": 50.800000000000004,
          "velocity": 0.8503937007874016
        },
        {
          "duration": 0.20000000000000284,
          "durationTicks": 96,
          "midi": 41,
          "name": "F2",
          "ticks": 24576,
          "time": 51.2,
          "velocity": 0.7244094488188977
        },
        {
          "duration": 0.20000000000000284,
          "durationTicks": 96,
          "midi": 36,
          "name": "C2",
          "ticks": 24768,
          "time": 51.6,
          "velocity": 0.7244094488188977
        },
        {
          "duration": 0.20000000000000284,
          "durationTicks": 96,
          "midi": 41,
          "name": "F2",
          "ticks": 24960,
          "time": 52,
          "velocity": 0.7244094488188977
        },
        {
          "duration": 0.19999999999999574,
          "durationTicks": 96,
          "midi": 36,
          "name": "C2",
          "ticks": 25152,
          "time": 52.400000000000006,
          "velocity": 0.7244094488188977
        },
        {
          "duration": 0.19999999999999574,
          "durationTicks": 96,
          "midi": 43,
          "name": "G2",
          "ticks": 25344,
          "time": 52.800000000000004,
          "velocity": 0.7244094488188977
        },
        {
          "duration": 0.20000000000000284,
          "durationTicks": 96,
          "midi": 38,
          "name": "D2",
          "ticks": 25536,
          "time": 53.2,
          "velocity": 0.7244094488188977
        },
        {
          "duration": 0.20000000000000284,
          "durationTicks": 96,
          "midi": 43,
          "name": "G2",
          "ticks": 25728,
          "time": 53.6,
          "velocity": 0.7244094488188977
        },
        {
          "duration": 0.20000000000000284,
          "durationTicks": 96,
          "midi": 38,
          "name": "D2",
          "ticks": 25920,
          "time": 54,
          "velocity": 0.7244094488188977
        },
        {
          "duration": 0.19999999999999574,
          "durationTicks": 96,
          "midi": 44,
          "name": "G#2",
          "ticks": 26112,
          "time": 54.400000000000006,
          "velocity": 0.7244094488188977
        },
        {
          "duration": 0.19999999999999574,
          "durationTicks": 96,
          "midi": 44,
          "name": "G#2",
          "ticks": 26304,
          "time": 54.800000000000004,
          "velocity": 0.7244094488188977
        },
        {
          "duration": 0.6000000000000014,
          "durationTicks": 288,
          "midi": 44,
          "name": "G#2",
          "ticks": 26496,
          "time": 55.2,
          "velocity": 0.7244094488188977
        },
        {
          "duration": 0.20000000000000284,
          "durationTicks": 96,
          "midi": 31,
          "name": "G1",
          "ticks": 26880,
          "time": 56,
          "velocity": 0.7244094488188977
        },
        {
          "duration": 0.20000000000000284,
          "durationTicks": 96,
          "midi": 31,
          "name": "G1",
          "ticks": 26976,
          "time": 56.2,
          "velocity": 0.7244094488188977
        },
        {
          "duration": 0.19999999999999574,
          "durationTicks": 96,
          "midi": 35,
          "name": "B1",
          "ticks": 27072,
          "time": 56.400000000000006,
          "velocity": 0.7244094488188977
        },
        {
          "duration": 0.19999999999999574,
          "durationTicks": 96,
          "midi": 36,
          "name": "C2",
          "ticks": 27264,
          "time": 56.800000000000004,
          "velocity": 0.7244094488188977
        },
        {
          "duration": 0.20000000000000284,
          "durationTicks": 96,
          "midi": 36,
          "name": "C2",
          "ticks": 27648,
          "time": 57.6,
          "velocity": 0.8503937007874016
        },
        {
          "duration": 0.20000000000000284,
          "durationTicks": 96,
          "midi": 36,
          "name": "C2",
          "ticks": 27840,
          "time": 58,
          "velocity": 0.8503937007874016
        },
        {
          "duration": 0.20000000000000284,
          "durationTicks": 96,
          "midi": 36,
          "name": "C2",
          "ticks": 28032,
          "time": 58.4,
          "velocity": 0.8503937007874016
        },
        {
          "duration": 0.19999999999999574,
          "durationTicks": 96,
          "midi": 36,
          "name": "C2",
          "ticks": 28224,
          "time": 58.800000000000004,
          "velocity": 0.8503937007874016
        },
        {
          "duration": 0.19999999999999574,
          "durationTicks": 96,
          "midi": 36,
          "name": "C2",
          "ticks": 28416,
          "time": 59.2,
          "velocity": 0.8503937007874016
        },
        {
          "duration": 0.20000000000000284,
          "durationTicks": 96,
          "midi": 36,
          "name": "C2",
          "ticks": 28608,
          "time": 59.6,
          "velocity": 0.8503937007874016
        },
        {
          "duration": 0.20000000000000284,
          "durationTicks": 96,
          "midi": 36,
          "name": "C2",
          "ticks": 28800,
          "time": 60,
          "velocity": 0.8503937007874016
        },
        {
          "duration": 0.20000000000000284,
          "durationTicks": 96,
          "midi": 36,
          "name": "C2",
          "ticks": 28992,
          "time": 60.4,
          "velocity": 0.8503937007874016
        },
        {
          "duration": 0.19999999999999574,
          "durationTicks": 96,
          "midi": 36,
          "name": "C2",
          "ticks": 29184,
          "time": 60.800000000000004,
          "velocity": 0.8503937007874016
        },
        {
          "duration": 0.19999999999999574,
          "durationTicks": 96,
          "midi": 36,
          "name": "C2",
          "ticks": 29376,
          "time": 61.2,
          "velocity": 0.8503937007874016
        },
        {
          "duration": 0.20000000000000284,
          "durationTicks": 96,
          "midi": 36,
          "name": "C2",
          "ticks": 29568,
          "time": 61.6,
          "velocity": 0.8503937007874016
        },
        {
          "duration": 0.20000000000000284,
          "durationTicks": 96,
          "midi": 36,
          "name": "C2",
          "ticks": 29760,
          "time": 62,
          "velocity": 0.8503937007874016
        },
        {
          "duration": 0.19999999999999574,
          "durationTicks": 96,
          "midi": 36,
          "name": "C2",
          "ticks": 29952,
          "time": 62.400000000000006,
          "velocity": 0.8503937007874016
        },
        {
          "duration": 0.19999999999999574,
          "durationTicks": 96,
          "midi": 36,
          "name": "C2",
          "ticks": 30144,
          "time": 62.800000000000004,
          "velocity": 0.8503937007874016
        },
        {
          "duration": 0.20000000000000284,
          "durationTicks": 96,
          "midi": 36,
          "name": "C2",
          "ticks": 30336,
          "time": 63.2,
          "velocity": 0.8503937007874016
        },
        {
          "duration": 0.20000000000000284,
          "durationTicks": 96,
          "midi": 36,
          "name": "C2",
          "ticks": 30528,
          "time": 63.6,
          "velocity": 0.8503937007874016
        },
        {
          "duration": 0.20000000000000284,
          "durationTicks": 96,
          "midi": 36,
          "name": "C2",
          "ticks": 30720,
          "time": 64,
          "velocity": 0.8503937007874016
        },
        {
          "duration": 0.19999999999998863,
          "durationTicks": 96,
          "midi": 36,
          "name": "C2",
          "ticks": 30912,
          "time": 64.4,
          "velocity": 0.8503937007874016
        },
        {
          "duration": 0.20000000000000284,
          "durationTicks": 96,
          "midi": 36,
          "name": "C2",
          "ticks": 31104,
          "time": 64.8,
          "velocity": 0.8503937007874016
        },
        {
          "duration": 0.20000000000000284,
          "durationTicks": 96,
          "midi": 36,
          "name": "C2",
          "ticks": 31296,
          "time": 65.2,
          "velocity": 0.8503937007874016
        },
        {
          "duration": 0.20000000000000284,
          "durationTicks": 96,
          "midi": 36,
          "name": "C2",
          "ticks": 31488,
          "time": 65.6,
          "velocity": 0.8503937007874016
        },
        {
          "duration": 0.20000000000000284,
          "durationTicks": 96,
          "midi": 36,
          "name": "C2",
          "ticks": 31680,
          "time": 66,
          "velocity": 0.8503937007874016
        },
        {
          "duration": 0.19999999999998863,
          "durationTicks": 96,
          "midi": 36,
          "name": "C2",
          "ticks": 31872,
          "time": 66.4,
          "velocity": 0.8503937007874016
        },
        {
          "duration": 0.20000000000000284,
          "durationTicks": 96,
          "midi": 36,
          "name": "C2",
          "ticks": 32064,
          "time": 66.8,
          "velocity": 0.8503937007874016
        },
        {
          "duration": 0.20000000000000284,
          "durationTicks": 96,
          "midi": 36,
          "name": "C2",
          "ticks": 32256,
          "time": 67.2,
          "velocity": 0.8503937007874016
        },
        {
          "duration": 0.20000000000000284,
          "durationTicks": 96,
          "midi": 36,
          "name": "C2",
          "ticks": 32448,
          "time": 67.6,
          "velocity": 0.8503937007874016
        },
        {
          "duration": 0.20000000000000284,
          "durationTicks": 96,
          "midi": 36,
          "name": "C2",
          "ticks": 32640,
          "time": 68,
          "velocity": 0.8503937007874016
        },
        {
          "duration": 0.19999999999998863,
          "durationTicks": 96,
          "midi": 36,
          "name": "C2",
          "ticks": 32832,
          "time": 68.4,
          "velocity": 0.8503937007874016
        },
        {
          "duration": 0.20000000000000284,
          "durationTicks": 96,
          "midi": 36,
          "name": "C2",
          "ticks": 33024,
          "time": 68.8,
          "velocity": 0.8503937007874016
        },
        {
          "duration": 0.20000000000000284,
          "durationTicks": 96,
          "midi": 36,
          "name": "C2",
          "ticks": 33216,
          "time": 69.2,
          "velocity": 0.8503937007874016
        },
        {
          "duration": 0.20000000000000284,
          "durationTicks": 96,
          "midi": 36,
          "name": "C2",
          "ticks": 33408,
          "time": 69.6,
          "velocity": 0.8503937007874016
        },
        {
          "duration": 0.20000000000000284,
          "durationTicks": 96,
          "midi": 36,
          "name": "C2",
          "ticks": 33600,
          "time": 70,
          "velocity": 0.8503937007874016
        },
        {
          "duration": 0.19999999999998863,
          "durationTicks": 96,
          "midi": 36,
          "name": "C2",
          "ticks": 33792,
          "time": 70.4,
          "velocity": 0.8503937007874016
        },
        {
          "duration": 0.20000000000000284,
          "durationTicks": 96,
          "midi": 36,
          "name": "C2",
          "ticks": 33984,
          "time": 70.8,
          "velocity": 0.8503937007874016
        },
        {
          "duration": 0.20000000000000284,
          "durationTicks": 96,
          "midi": 36,
          "name": "C2",
          "ticks": 34176,
          "time": 71.2,
          "velocity": 0.8503937007874016
        },
        {
          "duration": 0.20000000000000284,
          "durationTicks": 96,
          "midi": 36,
          "name": "C2",
          "ticks": 34368,
          "time": 71.6,
          "velocity": 0.8503937007874016
        },
        {
          "duration": 0.20000000000000284,
          "durationTicks": 96,
          "midi": 36,
          "name": "C2",
          "ticks": 34560,
          "time": 72,
          "velocity": 0.8503937007874016
        },
        {
          "duration": 0.19999999999998863,
          "durationTicks": 96,
          "midi": 36,
          "name": "C2",
          "ticks": 34752,
          "time": 72.4,
          "velocity": 0.8503937007874016
        },
        {
          "duration": 0.20000000000000284,
          "durationTicks": 96,
          "midi": 36,
          "name": "C2",
          "ticks": 34944,
          "time": 72.8,
          "velocity": 0.8503937007874016
        },
        {
          "duration": 0.20000000000000284,
          "durationTicks": 96,
          "midi": 36,
          "name": "C2",
          "ticks": 35136,
          "time": 73.2,
          "velocity": 0.8503937007874016
        },
        {
          "duration": 0.20000000000000284,
          "durationTicks": 96,
          "midi": 36,
          "name": "C2",
          "ticks": 35328,
          "time": 73.6,
          "velocity": 0.8503937007874016
        },
        {
          "duration": 0.20000000000000284,
          "durationTicks": 96,
          "midi": 36,
          "name": "C2",
          "ticks": 35520,
          "time": 74,
          "velocity": 0.8503937007874016
        },
        {
          "duration": 0.19999999999998863,
          "durationTicks": 96,
          "midi": 36,
          "name": "C2",
          "ticks": 35712,
          "time": 74.4,
          "velocity": 0.8503937007874016
        },
        {
          "duration": 0.20000000000000284,
          "durationTicks": 96,
          "midi": 36,
          "name": "C2",
          "ticks": 35904,
          "time": 74.8,
          "velocity": 0.8503937007874016
        },
        {
          "duration": 0.20000000000000284,
          "durationTicks": 96,
          "midi": 36,
          "name": "C2",
          "ticks": 36096,
          "time": 75.2,
          "velocity": 0.8503937007874016
        },
        {
          "duration": 0.20000000000000284,
          "durationTicks": 96,
          "midi": 36,
          "name": "C2",
          "ticks": 36288,
          "time": 75.6,
          "velocity": 0.8503937007874016
        },
        {
          "duration": 0.20000000000000284,
          "durationTicks": 96,
          "midi": 36,
          "name": "C2",
          "ticks": 36480,
          "time": 76,
          "velocity": 0.8503937007874016
        },
        {
          "duration": 0.19999999999998863,
          "durationTicks": 96,
          "midi": 36,
          "name": "C2",
          "ticks": 36672,
          "time": 76.4,
          "velocity": 0.8503937007874016
        },
        {
          "duration": 0.19999999999998863,
          "durationTicks": 96,
          "midi": 36,
          "name": "C2",
          "ticks": 36864,
          "time": 76.80000000000001,
          "velocity": 0.8503937007874016
        },
        {
          "duration": 0.20000000000000284,
          "durationTicks": 96,
          "midi": 36,
          "name": "C2",
          "ticks": 37056,
          "time": 77.2,
          "velocity": 0.8503937007874016
        },
        {
          "duration": 0.20000000000001705,
          "durationTicks": 96,
          "midi": 36,
          "name": "C2",
          "ticks": 37248,
          "time": 77.6,
          "velocity": 0.8503937007874016
        },
        {
          "duration": 0.20000000000000284,
          "durationTicks": 96,
          "midi": 36,
          "name": "C2",
          "ticks": 37440,
          "time": 78,
          "velocity": 0.8503937007874016
        },
        {
          "duration": 0.19999999999998863,
          "durationTicks": 96,
          "midi": 36,
          "name": "C2",
          "ticks": 37632,
          "time": 78.4,
          "velocity": 0.8503937007874016
        },
        {
          "duration": 0.19999999999998863,
          "durationTicks": 96,
          "midi": 36,
          "name": "C2",
          "ticks": 37824,
          "time": 78.80000000000001,
          "velocity": 0.8503937007874016
        },
        {
          "duration": 0.20000000000000284,
          "durationTicks": 96,
          "midi": 36,
          "name": "C2",
          "ticks": 38016,
          "time": 79.2,
          "velocity": 0.8503937007874016
        },
        {
          "duration": 0.20000000000001705,
          "durationTicks": 96,
          "midi": 36,
          "name": "C2",
          "ticks": 38208,
          "time": 79.6,
          "velocity": 0.8503937007874016
        },
        {
          "duration": 0.20000000000000284,
          "durationTicks": 96,
          "midi": 36,
          "name": "C2",
          "ticks": 38400,
          "time": 80,
          "velocity": 0.8503937007874016
        },
        {
          "duration": 0.19999999999998863,
          "durationTicks": 96,
          "midi": 36,
          "name": "C2",
          "ticks": 38592,
          "time": 80.4,
          "velocity": 0.8503937007874016
        },
        {
          "duration": 0.19999999999998863,
          "durationTicks": 96,
          "midi": 36,
          "name": "C2",
          "ticks": 38784,
          "time": 80.80000000000001,
          "velocity": 0.8503937007874016
        },
        {
          "duration": 0.20000000000000284,
          "durationTicks": 96,
          "midi": 36,
          "name": "C2",
          "ticks": 38976,
          "time": 81.2,
          "velocity": 0.8503937007874016
        },
        {
          "duration": 0.20000000000001705,
          "durationTicks": 96,
          "midi": 36,
          "name": "C2",
          "ticks": 39168,
          "time": 81.6,
          "velocity": 0.8503937007874016
        },
        {
          "duration": 0.20000000000000284,
          "durationTicks": 96,
          "midi": 36,
          "name": "C2",
          "ticks": 39360,
          "time": 82,
          "velocity": 0.8503937007874016
        },
        {
          "duration": 0.19999999999998863,
          "durationTicks": 96,
          "midi": 36,
          "name": "C2",
          "ticks": 39552,
          "time": 82.4,
          "velocity": 0.8503937007874016
        },
        {
          "duration": 0.19999999999998863,
          "durationTicks": 96,
          "midi": 36,
          "name": "C2",
          "ticks": 39744,
          "time": 82.80000000000001,
          "velocity": 0.8503937007874016
        },
        {
          "duration": 0.20000000000000284,
          "durationTicks": 96,
          "midi": 36,
          "name": "C2",
          "ticks": 39936,
          "time": 83.2,
          "velocity": 0.8503937007874016
        },
        {
          "duration": 0.20000000000001705,
          "durationTicks": 96,
          "midi": 36,
          "name": "C2",
          "ticks": 40128,
          "time": 83.6,
          "velocity": 0.8503937007874016
        },
        {
          "duration": 0.20000000000000284,
          "durationTicks": 96,
          "midi": 36,
          "name": "C2",
          "ticks": 40320,
          "time": 84,
          "velocity": 0.8503937007874016
        },
        {
          "duration": 0.19999999999998863,
          "durationTicks": 96,
          "midi": 36,
          "name": "C2",
          "ticks": 40512,
          "time": 84.4,
          "velocity": 0.8503937007874016
        },
        {
          "duration": 0.19999999999998863,
          "durationTicks": 96,
          "midi": 36,
          "name": "C2",
          "ticks": 40704,
          "time": 84.80000000000001,
          "velocity": 0.8503937007874016
        },
        {
          "duration": 0.20000000000000284,
          "durationTicks": 96,
          "midi": 36,
          "name": "C2",
          "ticks": 40896,
          "time": 85.2,
          "velocity": 0.8503937007874016
        },
        {
          "duration": 0.20000000000001705,
          "durationTicks": 96,
          "midi": 36,
          "name": "C2",
          "ticks": 41088,
          "time": 85.6,
          "velocity": 0.8503937007874016
        },
        {
          "duration": 0.20000000000000284,
          "durationTicks": 96,
          "midi": 36,
          "name": "C2",
          "ticks": 41280,
          "time": 86,
          "velocity": 0.8503937007874016
        },
        {
          "duration": 0.19999999999998863,
          "durationTicks": 96,
          "midi": 36,
          "name": "C2",
          "ticks": 41472,
          "time": 86.4,
          "velocity": 0.8503937007874016
        },
        {
          "duration": 0.19999999999998863,
          "durationTicks": 96,
          "midi": 36,
          "name": "C2",
          "ticks": 41664,
          "time": 86.80000000000001,
          "velocity": 0.8503937007874016
        },
        {
          "duration": 0.20000000000000284,
          "durationTicks": 96,
          "midi": 36,
          "name": "C2",
          "ticks": 41856,
          "time": 87.2,
          "velocity": 0.8503937007874016
        },
        {
          "duration": 0.20000000000001705,
          "durationTicks": 96,
          "midi": 36,
          "name": "C2",
          "ticks": 42048,
          "time": 87.6,
          "velocity": 0.8503937007874016
        },
        {
          "duration": 0.20000000000000284,
          "durationTicks": 96,
          "midi": 36,
          "name": "C2",
          "ticks": 42240,
          "time": 88,
          "velocity": 0.8503937007874016
        },
        {
          "duration": 0.19999999999998863,
          "durationTicks": 96,
          "midi": 36,
          "name": "C2",
          "ticks": 42432,
          "time": 88.4,
          "velocity": 0.8503937007874016
        },
        {
          "duration": 0.19999999999998863,
          "durationTicks": 96,
          "midi": 36,
          "name": "C2",
          "ticks": 42624,
          "time": 88.80000000000001,
          "velocity": 0.8503937007874016
        },
        {
          "duration": 0.20000000000001705,
          "durationTicks": 96,
          "midi": 41,
          "name": "F2",
          "ticks": 43008,
          "time": 89.6,
          "velocity": 0.8503937007874016
        },
        {
          "duration": 0.20000000000000284,
          "durationTicks": 96,
          "midi": 36,
          "name": "C2",
          "ticks": 43200,
          "time": 90,
          "velocity": 0.8503937007874016
        },
        {
          "duration": 0.19999999999998863,
          "durationTicks": 96,
          "midi": 41,
          "name": "F2",
          "ticks": 43392,
          "time": 90.4,
          "velocity": 0.8503937007874016
        },
        {
          "duration": 0.19999999999998863,
          "durationTicks": 96,
          "midi": 36,
          "name": "C2",
          "ticks": 43584,
          "time": 90.80000000000001,
          "velocity": 0.8503937007874016
        },
        {
          "duration": 0.20000000000000284,
          "durationTicks": 96,
          "midi": 43,
          "name": "G2",
          "ticks": 43776,
          "time": 91.2,
          "velocity": 0.8503937007874016
        },
        {
          "duration": 0.20000000000001705,
          "durationTicks": 96,
          "midi": 38,
          "name": "D2",
          "ticks": 43968,
          "time": 91.6,
          "velocity": 0.8503937007874016
        },
        {
          "duration": 0.20000000000000284,
          "durationTicks": 96,
          "midi": 43,
          "name": "G2",
          "ticks": 44160,
          "time": 92,
          "velocity": 0.8503937007874016
        },
        {
          "duration": 0.19999999999998863,
          "durationTicks": 96,
          "midi": 38,
          "name": "D2",
          "ticks": 44352,
          "time": 92.4,
          "velocity": 0.8503937007874016
        },
        {
          "duration": 0.19999999999998863,
          "durationTicks": 96,
          "midi": 44,
          "name": "G#2",
          "ticks": 44544,
          "time": 92.80000000000001,
          "velocity": 0.8503937007874016
        },
        {
          "duration": 0.20000000000000284,
          "durationTicks": 96,
          "midi": 39,
          "name": "D#2",
          "ticks": 44736,
          "time": 93.2,
          "velocity": 0.8503937007874016
        },
        {
          "duration": 0.20000000000001705,
          "durationTicks": 96,
          "midi": 44,
          "name": "G#2",
          "ticks": 44928,
          "time": 93.6,
          "velocity": 0.8503937007874016
        },
        {
          "duration": 0.20000000000000284,
          "durationTicks": 96,
          "midi": 39,
          "name": "D#2",
          "ticks": 45120,
          "time": 94,
          "velocity": 0.8503937007874016
        },
        {
          "duration": 0.19999999999998863,
          "durationTicks": 96,
          "midi": 39,
          "name": "D#2",
          "ticks": 45312,
          "time": 94.4,
          "velocity": 0.8503937007874016
        },
        {
          "duration": 0.19999999999998863,
          "durationTicks": 96,
          "midi": 34,
          "name": "A#1",
          "ticks": 45504,
          "time": 94.80000000000001,
          "velocity": 0.8503937007874016
        },
        {
          "duration": 0.20000000000000284,
          "durationTicks": 96,
          "midi": 37,
          "name": "C#2",
          "ticks": 45696,
          "time": 95.2,
          "velocity": 0.8503937007874016
        },
        {
          "duration": 0.20000000000001705,
          "durationTicks": 96,
          "midi": 43,
          "name": "G2",
          "ticks": 45888,
          "time": 95.6,
          "velocity": 0.8503937007874016
        },
        {
          "duration": 0.20000000000000284,
          "durationTicks": 96,
          "midi": 41,
          "name": "F2",
          "ticks": 46080,
          "time": 96,
          "velocity": 0.8503937007874016
        },
        {
          "duration": 0.19999999999998863,
          "durationTicks": 96,
          "midi": 36,
          "name": "C2",
          "ticks": 46272,
          "time": 96.4,
          "velocity": 0.8503937007874016
        },
        {
          "duration": 0.19999999999998863,
          "durationTicks": 96,
          "midi": 41,
          "name": "F2",
          "ticks": 46464,
          "time": 96.80000000000001,
          "velocity": 0.8503937007874016
        },
        {
          "duration": 0.20000000000000284,
          "durationTicks": 96,
          "midi": 36,
          "name": "C2",
          "ticks": 46656,
          "time": 97.2,
          "velocity": 0.8503937007874016
        },
        {
          "duration": 0.20000000000001705,
          "durationTicks": 96,
          "midi": 43,
          "name": "G2",
          "ticks": 46848,
          "time": 97.6,
          "velocity": 0.8503937007874016
        },
        {
          "duration": 0.20000000000000284,
          "durationTicks": 96,
          "midi": 38,
          "name": "D2",
          "ticks": 47040,
          "time": 98,
          "velocity": 0.8503937007874016
        },
        {
          "duration": 0.19999999999998863,
          "durationTicks": 96,
          "midi": 43,
          "name": "G2",
          "ticks": 47232,
          "time": 98.4,
          "velocity": 0.8503937007874016
        },
        {
          "duration": 0.19999999999998863,
          "durationTicks": 96,
          "midi": 38,
          "name": "D2",
          "ticks": 47424,
          "time": 98.80000000000001,
          "velocity": 0.8503937007874016
        },
        {
          "duration": 0.20000000000000284,
          "durationTicks": 96,
          "midi": 44,
          "name": "G#2",
          "ticks": 47616,
          "time": 99.2,
          "velocity": 0.8503937007874016
        },
        {
          "duration": 0.20000000000001705,
          "durationTicks": 96,
          "midi": 39,
          "name": "D#2",
          "ticks": 47808,
          "time": 99.6,
          "velocity": 0.8503937007874016
        },
        {
          "duration": 0.20000000000000284,
          "durationTicks": 96,
          "midi": 44,
          "name": "G#2",
          "ticks": 48000,
          "time": 100,
          "velocity": 0.8503937007874016
        },
        {
          "duration": 0.19999999999998863,
          "durationTicks": 96,
          "midi": 39,
          "name": "D#2",
          "ticks": 48192,
          "time": 100.4,
          "velocity": 0.8503937007874016
        },
        {
          "duration": 0.19999999999998863,
          "durationTicks": 96,
          "midi": 41,
          "name": "F2",
          "ticks": 48384,
          "time": 100.80000000000001,
          "velocity": 0.8503937007874016
        },
        {
          "duration": 0.20000000000000284,
          "durationTicks": 96,
          "midi": 36,
          "name": "C2",
          "ticks": 48576,
          "time": 101.2,
          "velocity": 0.8503937007874016
        },
        {
          "duration": 0.09583333333333144,
          "durationTicks": 46,
          "midi": 43,
          "name": "G2",
          "ticks": 48768,
          "time": 101.6,
          "velocity": 0.8503937007874016
        },
        {
          "duration": 0.09583333333333144,
          "durationTicks": 46,
          "midi": 41,
          "name": "F2",
          "ticks": 48864,
          "time": 101.80000000000001,
          "velocity": 0.8503937007874016
        },
        {
          "duration": 0.09583333333333144,
          "durationTicks": 46,
          "midi": 39,
          "name": "D#2",
          "ticks": 48960,
          "time": 102,
          "velocity": 0.8503937007874016
        },
        {
          "duration": 0.09583333333333144,
          "durationTicks": 46,
          "midi": 38,
          "name": "D2",
          "ticks": 49056,
          "time": 102.2,
          "velocity": 0.8503937007874016
        },
        {
          "duration": 0.19999999999998863,
          "durationTicks": 96,
          "midi": 41,
          "name": "F2",
          "ticks": 49152,
          "time": 102.4,
          "velocity": 0.8503937007874016
        },
        {
          "duration": 0.19999999999998863,
          "durationTicks": 96,
          "midi": 36,
          "name": "C2",
          "ticks": 49344,
          "time": 102.80000000000001,
          "velocity": 0.8503937007874016
        },
        {
          "duration": 0.20000000000000284,
          "durationTicks": 96,
          "midi": 41,
          "name": "F2",
          "ticks": 49536,
          "time": 103.2,
          "velocity": 0.8503937007874016
        },
        {
          "duration": 0.20000000000001705,
          "durationTicks": 96,
          "midi": 36,
          "name": "C2",
          "ticks": 49728,
          "time": 103.6,
          "velocity": 0.8503937007874016
        },
        {
          "duration": 0.20000000000000284,
          "durationTicks": 96,
          "midi": 43,
          "name": "G2",
          "ticks": 49920,
          "time": 104,
          "velocity": 0.8503937007874016
        },
        {
          "duration": 0.19999999999998863,
          "durationTicks": 96,
          "midi": 38,
          "name": "D2",
          "ticks": 50112,
          "time": 104.4,
          "velocity": 0.8503937007874016
        },
        {
          "duration": 0.19999999999998863,
          "durationTicks": 96,
          "midi": 43,
          "name": "G2",
          "ticks": 50304,
          "time": 104.80000000000001,
          "velocity": 0.8503937007874016
        },
        {
          "duration": 0.20000000000000284,
          "durationTicks": 96,
          "midi": 38,
          "name": "D2",
          "ticks": 50496,
          "time": 105.2,
          "velocity": 0.8503937007874016
        },
        {
          "duration": 0.20000000000001705,
          "durationTicks": 96,
          "midi": 44,
          "name": "G#2",
          "ticks": 50688,
          "time": 105.6,
          "velocity": 0.8503937007874016
        },
        {
          "duration": 0.20000000000000284,
          "durationTicks": 96,
          "midi": 39,
          "name": "D#2",
          "ticks": 50880,
          "time": 106,
          "velocity": 0.8503937007874016
        },
        {
          "duration": 0.19999999999998863,
          "durationTicks": 96,
          "midi": 44,
          "name": "G#2",
          "ticks": 51072,
          "time": 106.4,
          "velocity": 0.8503937007874016
        },
        {
          "duration": 0.19999999999998863,
          "durationTicks": 96,
          "midi": 39,
          "name": "D#2",
          "ticks": 51264,
          "time": 106.80000000000001,
          "velocity": 0.8503937007874016
        },
        {
          "duration": 0.20000000000000284,
          "durationTicks": 96,
          "midi": 39,
          "name": "D#2",
          "ticks": 51456,
          "time": 107.2,
          "velocity": 0.8503937007874016
        },
        {
          "duration": 0.20000000000001705,
          "durationTicks": 96,
          "midi": 34,
          "name": "A#1",
          "ticks": 51648,
          "time": 107.6,
          "velocity": 0.8503937007874016
        },
        {
          "duration": 0.20000000000000284,
          "durationTicks": 96,
          "midi": 37,
          "name": "C#2",
          "ticks": 51840,
          "time": 108,
          "velocity": 0.8503937007874016
        },
        {
          "duration": 0.19999999999998863,
          "durationTicks": 96,
          "midi": 43,
          "name": "G2",
          "ticks": 52032,
          "time": 108.4,
          "velocity": 0.8503937007874016
        },
        {
          "duration": 0.19999999999998863,
          "durationTicks": 96,
          "midi": 41,
          "name": "F2",
          "ticks": 52224,
          "time": 108.80000000000001,
          "velocity": 0.7244094488188977
        },
        {
          "duration": 0.20000000000000284,
          "durationTicks": 96,
          "midi": 36,
          "name": "C2",
          "ticks": 52416,
          "time": 109.2,
          "velocity": 0.7244094488188977
        },
        {
          "duration": 0.20000000000001705,
          "durationTicks": 96,
          "midi": 41,
          "name": "F2",
          "ticks": 52608,
          "time": 109.6,
          "velocity": 0.7244094488188977
        },
        {
          "duration": 0.20000000000000284,
          "durationTicks": 96,
          "midi": 36,
          "name": "C2",
          "ticks": 52800,
          "time": 110,
          "velocity": 0.7244094488188977
        },
        {
          "duration": 0.19999999999998863,
          "durationTicks": 96,
          "midi": 43,
          "name": "G2",
          "ticks": 52992,
          "time": 110.4,
          "velocity": 0.7244094488188977
        },
        {
          "duration": 0.19999999999998863,
          "durationTicks": 96,
          "midi": 38,
          "name": "D2",
          "ticks": 53184,
          "time": 110.80000000000001,
          "velocity": 0.7244094488188977
        },
        {
          "duration": 0.20000000000000284,
          "durationTicks": 96,
          "midi": 43,
          "name": "G2",
          "ticks": 53376,
          "time": 111.2,
          "velocity": 0.7244094488188977
        },
        {
          "duration": 0.20000000000001705,
          "durationTicks": 96,
          "midi": 38,
          "name": "D2",
          "ticks": 53568,
          "time": 111.6,
          "velocity": 0.7244094488188977
        },
        {
          "duration": 0.20000000000000284,
          "durationTicks": 96,
          "midi": 44,
          "name": "G#2",
          "ticks": 53760,
          "time": 112,
          "velocity": 0.7244094488188977
        },
        {
          "duration": 0.19999999999998863,
          "durationTicks": 96,
          "midi": 44,
          "name": "G#2",
          "ticks": 53952,
          "time": 112.4,
          "velocity": 0.7244094488188977
        },
        {
          "duration": 0.5999999999999943,
          "durationTicks": 288,
          "midi": 44,
          "name": "G#2",
          "ticks": 54144,
          "time": 112.80000000000001,
          "velocity": 0.7244094488188977
        },
        {
          "duration": 0.20000000000001705,
          "durationTicks": 96,
          "midi": 31,
          "name": "G1",
          "ticks": 54528,
          "time": 113.6,
          "velocity": 0.7244094488188977
        },
        {
          "duration": 0.19999999999998863,
          "durationTicks": 96,
          "midi": 31,
          "name": "G1",
          "ticks": 54624,
          "time": 113.80000000000001,
          "velocity": 0.7244094488188977
        },
        {
          "duration": 0.20000000000000284,
          "durationTicks": 96,
          "midi": 35,
          "name": "B1",
          "ticks": 54720,
          "time": 114,
          "velocity": 0.7244094488188977
        },
        {
          "duration": 0.19999999999998863,
          "durationTicks": 96,
          "midi": 36,
          "name": "C2",
          "ticks": 54912,
          "time": 114.4,
          "velocity": 0.7244094488188977
        },
        {
          "duration": 0.20000000000000284,
          "durationTicks": 96,
          "midi": 36,
          "name": "C2",
          "ticks": 55296,
          "time": 115.2,
          "velocity": 0.8503937007874016
        },
        {
          "duration": 0.19999999999998863,
          "durationTicks": 96,
          "midi": 36,
          "name": "C2",
          "ticks": 55488,
          "time": 115.60000000000001,
          "velocity": 0.8503937007874016
        },
        {
          "duration": 0.20000000000000284,
          "durationTicks": 96,
          "midi": 36,
          "name": "C2",
          "ticks": 55680,
          "time": 116,
          "velocity": 0.8503937007874016
        },
        {
          "duration": 0.20000000000000284,
          "durationTicks": 96,
          "midi": 36,
          "name": "C2",
          "ticks": 55872,
          "time": 116.4,
          "velocity": 0.8503937007874016
        },
        {
          "duration": 0.20000000000000284,
          "durationTicks": 96,
          "midi": 36,
          "name": "C2",
          "ticks": 56064,
          "time": 116.8,
          "velocity": 0.8503937007874016
        },
        {
          "duration": 0.20000000000000284,
          "durationTicks": 96,
          "midi": 36,
          "name": "C2",
          "ticks": 56256,
          "time": 117.2,
          "velocity": 0.8503937007874016
        },
        {
          "duration": 0.19999999999998863,
          "durationTicks": 96,
          "midi": 36,
          "name": "C2",
          "ticks": 56448,
          "time": 117.60000000000001,
          "velocity": 0.8503937007874016
        },
        {
          "duration": 0.20000000000000284,
          "durationTicks": 96,
          "midi": 36,
          "name": "C2",
          "ticks": 56640,
          "time": 118,
          "velocity": 0.8503937007874016
        },
        {
          "duration": 0.20000000000000284,
          "durationTicks": 96,
          "midi": 36,
          "name": "C2",
          "ticks": 56832,
          "time": 118.4,
          "velocity": 0.8503937007874016
        },
        {
          "duration": 0.20000000000000284,
          "durationTicks": 96,
          "midi": 36,
          "name": "C2",
          "ticks": 57024,
          "time": 118.8,
          "velocity": 0.8503937007874016
        },
        {
          "duration": 0.20000000000000284,
          "durationTicks": 96,
          "midi": 36,
          "name": "C2",
          "ticks": 57216,
          "time": 119.2,
          "velocity": 0.8503937007874016
        },
        {
          "duration": 0.19999999999998863,
          "durationTicks": 96,
          "midi": 36,
          "name": "C2",
          "ticks": 57408,
          "time": 119.60000000000001,
          "velocity": 0.8503937007874016
        },
        {
          "duration": 0.20000000000000284,
          "durationTicks": 96,
          "midi": 36,
          "name": "C2",
          "ticks": 57600,
          "time": 120,
          "velocity": 0.8503937007874016
        },
        {
          "duration": 0.20000000000000284,
          "durationTicks": 96,
          "midi": 36,
          "name": "C2",
          "ticks": 57792,
          "time": 120.4,
          "velocity": 0.8503937007874016
        },
        {
          "duration": 0.20000000000000284,
          "durationTicks": 96,
          "midi": 36,
          "name": "C2",
          "ticks": 57984,
          "time": 120.8,
          "velocity": 0.8503937007874016
        },
        {
          "duration": 0.20000000000000284,
          "durationTicks": 96,
          "midi": 36,
          "name": "C2",
          "ticks": 58176,
          "time": 121.2,
          "velocity": 0.8503937007874016
        },
        {
          "duration": 0.19999999999998863,
          "durationTicks": 96,
          "midi": 36,
          "name": "C2",
          "ticks": 58368,
          "time": 121.60000000000001,
          "velocity": 0.8503937007874016
        },
        {
          "duration": 0.20000000000000284,
          "durationTicks": 96,
          "midi": 36,
          "name": "C2",
          "ticks": 58560,
          "time": 122,
          "velocity": 0.8503937007874016
        },
        {
          "duration": 0.20000000000000284,
          "durationTicks": 96,
          "midi": 36,
          "name": "C2",
          "ticks": 58752,
          "time": 122.4,
          "velocity": 0.8503937007874016
        },
        {
          "duration": 0.20000000000000284,
          "durationTicks": 96,
          "midi": 36,
          "name": "C2",
          "ticks": 58944,
          "time": 122.8,
          "velocity": 0.8503937007874016
        },
        {
          "duration": 0.20000000000000284,
          "durationTicks": 96,
          "midi": 36,
          "name": "C2",
          "ticks": 59136,
          "time": 123.2,
          "velocity": 0.8503937007874016
        },
        {
          "duration": 0.19999999999998863,
          "durationTicks": 96,
          "midi": 36,
          "name": "C2",
          "ticks": 59328,
          "time": 123.60000000000001,
          "velocity": 0.8503937007874016
        },
        {
          "duration": 0.20000000000000284,
          "durationTicks": 96,
          "midi": 36,
          "name": "C2",
          "ticks": 59520,
          "time": 124,
          "velocity": 0.8503937007874016
        },
        {
          "duration": 0.20000000000000284,
          "durationTicks": 96,
          "midi": 36,
          "name": "C2",
          "ticks": 59712,
          "time": 124.4,
          "velocity": 0.8503937007874016
        },
        {
          "duration": 0.19999999999998863,
          "durationTicks": 96,
          "midi": 36,
          "name": "C2",
          "ticks": 59904,
          "time": 124.80000000000001,
          "velocity": 0.8503937007874016
        },
        {
          "duration": 0.20000000000000284,
          "durationTicks": 96,
          "midi": 36,
          "name": "C2",
          "ticks": 60096,
          "time": 125.2,
          "velocity": 0.8503937007874016
        },
        {
          "duration": 0.20000000000000284,
          "durationTicks": 96,
          "midi": 36,
          "name": "C2",
          "ticks": 60288,
          "time": 125.60000000000001,
          "velocity": 0.8503937007874016
        },
        {
          "duration": 0.20000000000000284,
          "durationTicks": 96,
          "midi": 36,
          "name": "C2",
          "ticks": 60480,
          "time": 126,
          "velocity": 0.8503937007874016
        },
        {
          "duration": 0.20000000000000284,
          "durationTicks": 96,
          "midi": 36,
          "name": "C2",
          "ticks": 60672,
          "time": 126.4,
          "velocity": 0.8503937007874016
        },
        {
          "duration": 0.19999999999998863,
          "durationTicks": 96,
          "midi": 36,
          "name": "C2",
          "ticks": 60864,
          "time": 126.80000000000001,
          "velocity": 0.8503937007874016
        },
        {
          "duration": 0.20000000000000284,
          "durationTicks": 96,
          "midi": 36,
          "name": "C2",
          "ticks": 61056,
          "time": 127.2,
          "velocity": 0.8503937007874016
        },
        {
          "duration": 0.20000000000000284,
          "durationTicks": 96,
          "midi": 36,
          "name": "C2",
          "ticks": 61248,
          "time": 127.60000000000001,
          "velocity": 0.8503937007874016
        },
        {
          "duration": 0.19999999999998863,
          "durationTicks": 96,
          "midi": 36,
          "name": "C2",
          "ticks": 61440,
          "time": 128,
          "velocity": 0.8503937007874016
        },
        {
          "duration": 0.19999999999998863,
          "durationTicks": 96,
          "midi": 36,
          "name": "C2",
          "ticks": 61632,
          "time": 128.4,
          "velocity": 0.8503937007874016
        },
        {
          "duration": 0.19999999999998863,
          "durationTicks": 96,
          "midi": 36,
          "name": "C2",
          "ticks": 61824,
          "time": 128.8,
          "velocity": 0.8503937007874016
        },
        {
          "duration": 0.20000000000001705,
          "durationTicks": 96,
          "midi": 36,
          "name": "C2",
          "ticks": 62016,
          "time": 129.2,
          "velocity": 0.8503937007874016
        },
        {
          "duration": 0.20000000000001705,
          "durationTicks": 96,
          "midi": 36,
          "name": "C2",
          "ticks": 62208,
          "time": 129.6,
          "velocity": 0.8503937007874016
        },
        {
          "duration": 0.19999999999998863,
          "durationTicks": 96,
          "midi": 36,
          "name": "C2",
          "ticks": 62400,
          "time": 130,
          "velocity": 0.8503937007874016
        },
        {
          "duration": 0.19999999999998863,
          "durationTicks": 96,
          "midi": 36,
          "name": "C2",
          "ticks": 62592,
          "time": 130.4,
          "velocity": 0.8503937007874016
        },
        {
          "duration": 0.19999999999998863,
          "durationTicks": 96,
          "midi": 36,
          "name": "C2",
          "ticks": 62784,
          "time": 130.8,
          "velocity": 0.8503937007874016
        },
        {
          "duration": 0.20000000000001705,
          "durationTicks": 96,
          "midi": 36,
          "name": "C2",
          "ticks": 62976,
          "time": 131.2,
          "velocity": 0.8503937007874016
        },
        {
          "duration": 0.20000000000001705,
          "durationTicks": 96,
          "midi": 36,
          "name": "C2",
          "ticks": 63168,
          "time": 131.6,
          "velocity": 0.8503937007874016
        },
        {
          "duration": 0.19999999999998863,
          "durationTicks": 96,
          "midi": 36,
          "name": "C2",
          "ticks": 63360,
          "time": 132,
          "velocity": 0.8503937007874016
        },
        {
          "duration": 0.19999999999998863,
          "durationTicks": 96,
          "midi": 36,
          "name": "C2",
          "ticks": 63552,
          "time": 132.4,
          "velocity": 0.8503937007874016
        },
        {
          "duration": 0.19999999999998863,
          "durationTicks": 96,
          "midi": 36,
          "name": "C2",
          "ticks": 63744,
          "time": 132.8,
          "velocity": 0.8503937007874016
        },
        {
          "duration": 0.20000000000001705,
          "durationTicks": 96,
          "midi": 36,
          "name": "C2",
          "ticks": 63936,
          "time": 133.2,
          "velocity": 0.8503937007874016
        },
        {
          "duration": 0.20000000000001705,
          "durationTicks": 96,
          "midi": 36,
          "name": "C2",
          "ticks": 64128,
          "time": 133.6,
          "velocity": 0.8503937007874016
        },
        {
          "duration": 0.19999999999998863,
          "durationTicks": 96,
          "midi": 36,
          "name": "C2",
          "ticks": 64320,
          "time": 134,
          "velocity": 0.8503937007874016
        },
        {
          "duration": 0.19999999999998863,
          "durationTicks": 96,
          "midi": 36,
          "name": "C2",
          "ticks": 64512,
          "time": 134.4,
          "velocity": 0.8503937007874016
        },
        {
          "duration": 0.19999999999998863,
          "durationTicks": 96,
          "midi": 36,
          "name": "C2",
          "ticks": 64704,
          "time": 134.8,
          "velocity": 0.8503937007874016
        },
        {
          "duration": 0.20000000000001705,
          "durationTicks": 96,
          "midi": 36,
          "name": "C2",
          "ticks": 64896,
          "time": 135.2,
          "velocity": 0.8503937007874016
        },
        {
          "duration": 0.20000000000001705,
          "durationTicks": 96,
          "midi": 36,
          "name": "C2",
          "ticks": 65088,
          "time": 135.6,
          "velocity": 0.8503937007874016
        },
        {
          "duration": 0.19999999999998863,
          "durationTicks": 96,
          "midi": 36,
          "name": "C2",
          "ticks": 65280,
          "time": 136,
          "velocity": 0.8503937007874016
        },
        {
          "duration": 0.19999999999998863,
          "durationTicks": 96,
          "midi": 36,
          "name": "C2",
          "ticks": 65472,
          "time": 136.4,
          "velocity": 0.8503937007874016
        },
        {
          "duration": 0.19999999999998863,
          "durationTicks": 96,
          "midi": 36,
          "name": "C2",
          "ticks": 65664,
          "time": 136.8,
          "velocity": 0.8503937007874016
        },
        {
          "duration": 0.20000000000001705,
          "durationTicks": 96,
          "midi": 36,
          "name": "C2",
          "ticks": 65856,
          "time": 137.2,
          "velocity": 0.8503937007874016
        },
        {
          "duration": 0.20000000000001705,
          "durationTicks": 96,
          "midi": 36,
          "name": "C2",
          "ticks": 66048,
          "time": 137.6,
          "velocity": 0.8503937007874016
        },
        {
          "duration": 0.19999999999998863,
          "durationTicks": 96,
          "midi": 36,
          "name": "C2",
          "ticks": 66240,
          "time": 138,
          "velocity": 0.8503937007874016
        },
        {
          "duration": 0.19999999999998863,
          "durationTicks": 96,
          "midi": 36,
          "name": "C2",
          "ticks": 66432,
          "time": 138.4,
          "velocity": 0.8503937007874016
        },
        {
          "duration": 0.19999999999998863,
          "durationTicks": 96,
          "midi": 36,
          "name": "C2",
          "ticks": 66624,
          "time": 138.8,
          "velocity": 0.8503937007874016
        },
        {
          "duration": 0.20000000000001705,
          "durationTicks": 96,
          "midi": 36,
          "name": "C2",
          "ticks": 66816,
          "time": 139.2,
          "velocity": 0.8503937007874016
        },
        {
          "duration": 0.20000000000001705,
          "durationTicks": 96,
          "midi": 36,
          "name": "C2",
          "ticks": 67008,
          "time": 139.6,
          "velocity": 0.8503937007874016
        },
        {
          "duration": 0.19999999999998863,
          "durationTicks": 96,
          "midi": 36,
          "name": "C2",
          "ticks": 67200,
          "time": 140,
          "velocity": 0.8503937007874016
        },
        {
          "duration": 0.19999999999998863,
          "durationTicks": 96,
          "midi": 36,
          "name": "C2",
          "ticks": 67392,
          "time": 140.4,
          "velocity": 0.8503937007874016
        },
        {
          "duration": 0.19999999999998863,
          "durationTicks": 96,
          "midi": 36,
          "name": "C2",
          "ticks": 67584,
          "time": 140.8,
          "velocity": 0.8503937007874016
        },
        {
          "duration": 0.20000000000001705,
          "durationTicks": 96,
          "midi": 36,
          "name": "C2",
          "ticks": 67776,
          "time": 141.2,
          "velocity": 0.8503937007874016
        },
        {
          "duration": 0.20000000000001705,
          "durationTicks": 96,
          "midi": 36,
          "name": "C2",
          "ticks": 67968,
          "time": 141.6,
          "velocity": 0.8503937007874016
        },
        {
          "duration": 0.19999999999998863,
          "durationTicks": 96,
          "midi": 36,
          "name": "C2",
          "ticks": 68160,
          "time": 142,
          "velocity": 0.8503937007874016
        },
        {
          "duration": 0.19999999999998863,
          "durationTicks": 96,
          "midi": 36,
          "name": "C2",
          "ticks": 68352,
          "time": 142.4,
          "velocity": 0.8503937007874016
        },
        {
          "duration": 0.19999999999998863,
          "durationTicks": 96,
          "midi": 36,
          "name": "C2",
          "ticks": 68544,
          "time": 142.8,
          "velocity": 0.8503937007874016
        },
        {
          "duration": 0.20000000000001705,
          "durationTicks": 96,
          "midi": 36,
          "name": "C2",
          "ticks": 68736,
          "time": 143.2,
          "velocity": 0.8503937007874016
        },
        {
          "duration": 0.20000000000001705,
          "durationTicks": 96,
          "midi": 36,
          "name": "C2",
          "ticks": 68928,
          "time": 143.6,
          "velocity": 0.8503937007874016
        },
        {
          "duration": 0.19999999999998863,
          "durationTicks": 96,
          "midi": 36,
          "name": "C2",
          "ticks": 69120,
          "time": 144,
          "velocity": 0.8503937007874016
        },
        {
          "duration": 0.19999999999998863,
          "durationTicks": 96,
          "midi": 36,
          "name": "C2",
          "ticks": 69312,
          "time": 144.4,
          "velocity": 0.8503937007874016
        },
        {
          "duration": 0.19999999999998863,
          "durationTicks": 96,
          "midi": 36,
          "name": "C2",
          "ticks": 69504,
          "time": 144.8,
          "velocity": 0.8503937007874016
        },
        {
          "duration": 0.20000000000001705,
          "durationTicks": 96,
          "midi": 36,
          "name": "C2",
          "ticks": 69696,
          "time": 145.2,
          "velocity": 0.8503937007874016
        },
        {
          "duration": 0.20000000000001705,
          "durationTicks": 96,
          "midi": 36,
          "name": "C2",
          "ticks": 69888,
          "time": 145.6,
          "velocity": 0.8503937007874016
        },
        {
          "duration": 0.19999999999998863,
          "durationTicks": 96,
          "midi": 36,
          "name": "C2",
          "ticks": 70080,
          "time": 146,
          "velocity": 0.8503937007874016
        },
        {
          "duration": 0.19999999999998863,
          "durationTicks": 96,
          "midi": 36,
          "name": "C2",
          "ticks": 70272,
          "time": 146.4,
          "velocity": 0.8503937007874016
        },
        {
          "duration": 0.20000000000001705,
          "durationTicks": 96,
          "midi": 41,
          "name": "F2",
          "ticks": 70656,
          "time": 147.2,
          "velocity": 0.8503937007874016
        },
        {
          "duration": 0.20000000000001705,
          "durationTicks": 96,
          "midi": 36,
          "name": "C2",
          "ticks": 70848,
          "time": 147.6,
          "velocity": 0.8503937007874016
        },
        {
          "duration": 0.19999999999998863,
          "durationTicks": 96,
          "midi": 41,
          "name": "F2",
          "ticks": 71040,
          "time": 148,
          "velocity": 0.8503937007874016
        },
        {
          "duration": 0.19999999999998863,
          "durationTicks": 96,
          "midi": 36,
          "name": "C2",
          "ticks": 71232,
          "time": 148.4,
          "velocity": 0.8503937007874016
        },
        {
          "duration": 0.19999999999998863,
          "durationTicks": 96,
          "midi": 43,
          "name": "G2",
          "ticks": 71424,
          "time": 148.8,
          "velocity": 0.8503937007874016
        },
        {
          "duration": 0.20000000000001705,
          "durationTicks": 96,
          "midi": 38,
          "name": "D2",
          "ticks": 71616,
          "time": 149.2,
          "velocity": 0.8503937007874016
        },
        {
          "duration": 0.20000000000001705,
          "durationTicks": 96,
          "midi": 43,
          "name": "G2",
          "ticks": 71808,
          "time": 149.6,
          "velocity": 0.8503937007874016
        },
        {
          "duration": 0.19999999999998863,
          "durationTicks": 96,
          "midi": 38,
          "name": "D2",
          "ticks": 72000,
          "time": 150,
          "velocity": 0.8503937007874016
        },
        {
          "duration": 0.19999999999998863,
          "durationTicks": 96,
          "midi": 44,
          "name": "G#2",
          "ticks": 72192,
          "time": 150.4,
          "velocity": 0.8503937007874016
        },
        {
          "duration": 0.19999999999998863,
          "durationTicks": 96,
          "midi": 39,
          "name": "D#2",
          "ticks": 72384,
          "time": 150.8,
          "velocity": 0.8503937007874016
        },
        {
          "duration": 0.20000000000001705,
          "durationTicks": 96,
          "midi": 44,
          "name": "G#2",
          "ticks": 72576,
          "time": 151.2,
          "velocity": 0.8503937007874016
        },
        {
          "duration": 0.20000000000001705,
          "durationTicks": 96,
          "midi": 39,
          "name": "D#2",
          "ticks": 72768,
          "time": 151.6,
          "velocity": 0.8503937007874016
        },
        {
          "duration": 0.19999999999998863,
          "durationTicks": 96,
          "midi": 39,
          "name": "D#2",
          "ticks": 72960,
          "time": 152,
          "velocity": 0.8503937007874016
        },
        {
          "duration": 0.19999999999998863,
          "durationTicks": 96,
          "midi": 34,
          "name": "A#1",
          "ticks": 73152,
          "time": 152.4,
          "velocity": 0.8503937007874016
        },
        {
          "duration": 0.19999999999998863,
          "durationTicks": 96,
          "midi": 37,
          "name": "C#2",
          "ticks": 73344,
          "time": 152.8,
          "velocity": 0.8503937007874016
        },
        {
          "duration": 0.20000000000001705,
          "durationTicks": 96,
          "midi": 43,
          "name": "G2",
          "ticks": 73536,
          "time": 153.2,
          "velocity": 0.8503937007874016
        },
        {
          "duration": 0.19999999999998863,
          "durationTicks": 96,
          "midi": 41,
          "name": "F2",
          "ticks": 73728,
          "time": 153.60000000000002,
          "velocity": 0.8503937007874016
        },
        {
          "duration": 0.19999999999998863,
          "durationTicks": 96,
          "midi": 36,
          "name": "C2",
          "ticks": 73920,
          "time": 154,
          "velocity": 0.8503937007874016
        },
        {
          "duration": 0.20000000000001705,
          "durationTicks": 96,
          "midi": 41,
          "name": "F2",
          "ticks": 74112,
          "time": 154.4,
          "velocity": 0.8503937007874016
        },
        {
          "duration": 0.19999999999998863,
          "durationTicks": 96,
          "midi": 36,
          "name": "C2",
          "ticks": 74304,
          "time": 154.8,
          "velocity": 0.8503937007874016
        },
        {
          "duration": 0.20000000000001705,
          "durationTicks": 96,
          "midi": 43,
          "name": "G2",
          "ticks": 74496,
          "time": 155.2,
          "velocity": 0.8503937007874016
        },
        {
          "duration": 0.19999999999998863,
          "durationTicks": 96,
          "midi": 38,
          "name": "D2",
          "ticks": 74688,
          "time": 155.60000000000002,
          "velocity": 0.8503937007874016
        },
        {
          "duration": 0.19999999999998863,
          "durationTicks": 96,
          "midi": 43,
          "name": "G2",
          "ticks": 74880,
          "time": 156,
          "velocity": 0.8503937007874016
        },
        {
          "duration": 0.20000000000001705,
          "durationTicks": 96,
          "midi": 38,
          "name": "D2",
          "ticks": 75072,
          "time": 156.4,
          "velocity": 0.8503937007874016
        },
        {
          "duration": 0.19999999999998863,
          "durationTicks": 96,
          "midi": 44,
          "name": "G#2",
          "ticks": 75264,
          "time": 156.8,
          "velocity": 0.8503937007874016
        },
        {
          "duration": 0.20000000000001705,
          "durationTicks": 96,
          "midi": 39,
          "name": "D#2",
          "ticks": 75456,
          "time": 157.2,
          "velocity": 0.8503937007874016
        },
        {
          "duration": 0.19999999999998863,
          "durationTicks": 96,
          "midi": 44,
          "name": "G#2",
          "ticks": 75648,
          "time": 157.60000000000002,
          "velocity": 0.8503937007874016
        },
        {
          "duration": 0.19999999999998863,
          "durationTicks": 96,
          "midi": 39,
          "name": "D#2",
          "ticks": 75840,
          "time": 158,
          "velocity": 0.8503937007874016
        },
        {
          "duration": 0.20000000000001705,
          "durationTicks": 96,
          "midi": 41,
          "name": "F2",
          "ticks": 76032,
          "time": 158.4,
          "velocity": 0.8503937007874016
        },
        {
          "duration": 0.19999999999998863,
          "durationTicks": 96,
          "midi": 36,
          "name": "C2",
          "ticks": 76224,
          "time": 158.8,
          "velocity": 0.8503937007874016
        },
        {
          "duration": 0.09583333333335986,
          "durationTicks": 46,
          "midi": 43,
          "name": "G2",
          "ticks": 76416,
          "time": 159.2,
          "velocity": 0.8503937007874016
        },
        {
          "duration": 0.09583333333333144,
          "durationTicks": 46,
          "midi": 41,
          "name": "F2",
          "ticks": 76512,
          "time": 159.4,
          "velocity": 0.8503937007874016
        },
        {
          "duration": 0.09583333333330302,
          "durationTicks": 46,
          "midi": 39,
          "name": "D#2",
          "ticks": 76608,
          "time": 159.60000000000002,
          "velocity": 0.8503937007874016
        },
        {
          "duration": 0.09583333333333144,
          "durationTicks": 46,
          "midi": 38,
          "name": "D2",
          "ticks": 76704,
          "time": 159.8,
          "velocity": 0.8503937007874016
        },
        {
          "duration": 0.19999999999998863,
          "durationTicks": 96,
          "midi": 41,
          "name": "F2",
          "ticks": 76800,
          "time": 160,
          "velocity": 0.8503937007874016
        },
        {
          "duration": 0.20000000000001705,
          "durationTicks": 96,
          "midi": 36,
          "name": "C2",
          "ticks": 76992,
          "time": 160.4,
          "velocity": 0.8503937007874016
        },
        {
          "duration": 0.19999999999998863,
          "durationTicks": 96,
          "midi": 41,
          "name": "F2",
          "ticks": 77184,
          "time": 160.8,
          "velocity": 0.8503937007874016
        },
        {
          "duration": 0.20000000000001705,
          "durationTicks": 96,
          "midi": 36,
          "name": "C2",
          "ticks": 77376,
          "time": 161.2,
          "velocity": 0.8503937007874016
        },
        {
          "duration": 0.19999999999998863,
          "durationTicks": 96,
          "midi": 43,
          "name": "G2",
          "ticks": 77568,
          "time": 161.60000000000002,
          "velocity": 0.8503937007874016
        },
        {
          "duration": 0.19999999999998863,
          "durationTicks": 96,
          "midi": 38,
          "name": "D2",
          "ticks": 77760,
          "time": 162,
          "velocity": 0.8503937007874016
        },
        {
          "duration": 0.20000000000001705,
          "durationTicks": 96,
          "midi": 43,
          "name": "G2",
          "ticks": 77952,
          "time": 162.4,
          "velocity": 0.8503937007874016
        },
        {
          "duration": 0.19999999999998863,
          "durationTicks": 96,
          "midi": 38,
          "name": "D2",
          "ticks": 78144,
          "time": 162.8,
          "velocity": 0.8503937007874016
        },
        {
          "duration": 0.20000000000001705,
          "durationTicks": 96,
          "midi": 44,
          "name": "G#2",
          "ticks": 78336,
          "time": 163.2,
          "velocity": 0.8503937007874016
        },
        {
          "duration": 0.19999999999998863,
          "durationTicks": 96,
          "midi": 39,
          "name": "D#2",
          "ticks": 78528,
          "time": 163.60000000000002,
          "velocity": 0.8503937007874016
        },
        {
          "duration": 0.19999999999998863,
          "durationTicks": 96,
          "midi": 44,
          "name": "G#2",
          "ticks": 78720,
          "time": 164,
          "velocity": 0.8503937007874016
        },
        {
          "duration": 0.20000000000001705,
          "durationTicks": 96,
          "midi": 39,
          "name": "D#2",
          "ticks": 78912,
          "time": 164.4,
          "velocity": 0.8503937007874016
        },
        {
          "duration": 0.19999999999998863,
          "durationTicks": 96,
          "midi": 39,
          "name": "D#2",
          "ticks": 79104,
          "time": 164.8,
          "velocity": 0.8503937007874016
        },
        {
          "duration": 0.20000000000001705,
          "durationTicks": 96,
          "midi": 34,
          "name": "A#1",
          "ticks": 79296,
          "time": 165.2,
          "velocity": 0.8503937007874016
        },
        {
          "duration": 0.19999999999998863,
          "durationTicks": 96,
          "midi": 37,
          "name": "C#2",
          "ticks": 79488,
          "time": 165.60000000000002,
          "velocity": 0.8503937007874016
        },
        {
          "duration": 0.19999999999998863,
          "durationTicks": 96,
          "midi": 43,
          "name": "G2",
          "ticks": 79680,
          "time": 166,
          "velocity": 0.8503937007874016
        },
        {
          "duration": 0.20000000000001705,
          "durationTicks": 96,
          "midi": 41,
          "name": "F2",
          "ticks": 79872,
          "time": 166.4,
          "velocity": 0.7244094488188977
        },
        {
          "duration": 0.19999999999998863,
          "durationTicks": 96,
          "midi": 36,
          "name": "C2",
          "ticks": 80064,
          "time": 166.8,
          "velocity": 0.7244094488188977
        },
        {
          "duration": 0.20000000000001705,
          "durationTicks": 96,
          "midi": 41,
          "name": "F2",
          "ticks": 80256,
          "time": 167.2,
          "velocity": 0.7244094488188977
        },
        {
          "duration": 0.19999999999998863,
          "durationTicks": 96,
          "midi": 36,
          "name": "C2",
          "ticks": 80448,
          "time": 167.60000000000002,
          "velocity": 0.7244094488188977
        },
        {
          "duration": 0.19999999999998863,
          "durationTicks": 96,
          "midi": 43,
          "name": "G2",
          "ticks": 80640,
          "time": 168,
          "velocity": 0.7244094488188977
        },
        {
          "duration": 0.20000000000001705,
          "durationTicks": 96,
          "midi": 38,
          "name": "D2",
          "ticks": 80832,
          "time": 168.4,
          "velocity": 0.7244094488188977
        },
        {
          "duration": 0.19999999999998863,
          "durationTicks": 96,
          "midi": 43,
          "name": "G2",
          "ticks": 81024,
          "time": 168.8,
          "velocity": 0.7244094488188977
        },
        {
          "duration": 0.20000000000001705,
          "durationTicks": 96,
          "midi": 38,
          "name": "D2",
          "ticks": 81216,
          "time": 169.2,
          "velocity": 0.7244094488188977
        },
        {
          "duration": 0.19999999999998863,
          "durationTicks": 96,
          "midi": 44,
          "name": "G#2",
          "ticks": 81408,
          "time": 169.60000000000002,
          "velocity": 0.7244094488188977
        },
        {
          "duration": 0.19999999999998863,
          "durationTicks": 96,
          "midi": 44,
          "name": "G#2",
          "ticks": 81600,
          "time": 170,
          "velocity": 0.7244094488188977
        },
        {
          "duration": 0.5999999999999943,
          "durationTicks": 288,
          "midi": 44,
          "name": "G#2",
          "ticks": 81792,
          "time": 170.4,
          "velocity": 0.7244094488188977
        },
        {
          "duration": 0.20000000000001705,
          "durationTicks": 96,
          "midi": 31,
          "name": "G1",
          "ticks": 82176,
          "time": 171.2,
          "velocity": 0.7244094488188977
        },
        {
          "duration": 0.20000000000001705,
          "durationTicks": 96,
          "midi": 31,
          "name": "G1",
          "ticks": 82272,
          "time": 171.4,
          "velocity": 0.7244094488188977
        },
        {
          "duration": 0.19999999999998863,
          "durationTicks": 96,
          "midi": 35,
          "name": "B1",
          "ticks": 82368,
          "time": 171.60000000000002,
          "velocity": 0.7244094488188977
        },
        {
          "duration": 0.19999999999998863,
          "durationTicks": 96,
          "midi": 36,
          "name": "C2",
          "ticks": 82560,
          "time": 172,
          "velocity": 0.7244094488188977
        }
      ],
      "endOfTrackTicks": 82656
    },
    {
      "channel": 2,
      "controlChanges": {
        "7": [
          {
            "number": 7,
            "ticks": 0,
            "time": 0,
            "value": 1
          }
        ],
        "10": [
          {
            "number": 10,
            "ticks": 0,
            "time": 0,
            "value": 0.5039370078740157
          }
        ]
      },
      "pitchBends": [],
      "instrument": {
        "family": "brass",
        "number": 58,
        "name": "tuba"
      },
      "name": "Staff-10",
      "notes": [
        {
          "duration": 0.20000000000000284,
          "durationTicks": 96,
          "midi": 41,
          "name": "F2",
          "ticks": 15360,
          "time": 32,
          "velocity": 0.8661417322834646
        },
        {
          "duration": 0.20000000000000284,
          "durationTicks": 96,
          "midi": 36,
          "name": "C2",
          "ticks": 15552,
          "time": 32.4,
          "velocity": 0.8661417322834646
        },
        {
          "duration": 0.19999999999999574,
          "durationTicks": 96,
          "midi": 41,
          "name": "F2",
          "ticks": 15744,
          "time": 32.800000000000004,
          "velocity": 0.8661417322834646
        },
        {
          "duration": 0.19999999999999574,
          "durationTicks": 96,
          "midi": 36,
          "name": "C2",
          "ticks": 15936,
          "time": 33.2,
          "velocity": 0.8661417322834646
        },
        {
          "duration": 0.20000000000000284,
          "durationTicks": 96,
          "midi": 43,
          "name": "G2",
          "ticks": 16128,
          "time": 33.6,
          "velocity": 0.8661417322834646
        },
        {
          "duration": 0.20000000000000284,
          "durationTicks": 96,
          "midi": 38,
          "name": "D2",
          "ticks": 16320,
          "time": 34,
          "velocity": 0.8661417322834646
        },
        {
          "duration": 0.20000000000000284,
          "durationTicks": 96,
          "midi": 43,
          "name": "G2",
          "ticks": 16512,
          "time": 34.4,
          "velocity": 0.8661417322834646
        },
        {
          "duration": 0.19999999999999574,
          "durationTicks": 96,
          "midi": 38,
          "name": "D2",
          "ticks": 16704,
          "time": 34.800000000000004,
          "velocity": 0.8661417322834646
        },
        {
          "duration": 0.19999999999999574,
          "durationTicks": 96,
          "midi": 44,
          "name": "G#2",
          "ticks": 16896,
          "time": 35.2,
          "velocity": 0.8661417322834646
        },
        {
          "duration": 0.20000000000000284,
          "durationTicks": 96,
          "midi": 39,
          "name": "D#2",
          "ticks": 17088,
          "time": 35.6,
          "velocity": 0.8661417322834646
        },
        {
          "duration": 0.20000000000000284,
          "durationTicks": 96,
          "midi": 44,
          "name": "G#2",
          "ticks": 17280,
          "time": 36,
          "velocity": 0.8661417322834646
        },
        {
          "duration": 0.20000000000000284,
          "durationTicks": 96,
          "midi": 39,
          "name": "D#2",
          "ticks": 17472,
          "time": 36.4,
          "velocity": 0.8661417322834646
        },
        {
          "duration": 0.19999999999999574,
          "durationTicks": 96,
          "midi": 39,
          "name": "D#2",
          "ticks": 17664,
          "time": 36.800000000000004,
          "velocity": 0.8661417322834646
        },
        {
          "duration": 0.19999999999999574,
          "durationTicks": 96,
          "midi": 34,
          "name": "A#1",
          "ticks": 17856,
          "time": 37.2,
          "velocity": 0.8661417322834646
        },
        {
          "duration": 0.20000000000000284,
          "durationTicks": 96,
          "midi": 37,
          "name": "C#2",
          "ticks": 18048,
          "time": 37.6,
          "velocity": 0.8661417322834646
        },
        {
          "duration": 0.20000000000000284,
          "durationTicks": 96,
          "midi": 43,
          "name": "G2",
          "ticks": 18240,
          "time": 38,
          "velocity": 0.8661417322834646
        },
        {
          "duration": 0.19999999999999574,
          "durationTicks": 96,
          "midi": 41,
          "name": "F2",
          "ticks": 18432,
          "time": 38.400000000000006,
          "velocity": 0.8661417322834646
        },
        {
          "duration": 0.19999999999999574,
          "durationTicks": 96,
          "midi": 36,
          "name": "C2",
          "ticks": 18624,
          "time": 38.800000000000004,
          "velocity": 0.8661417322834646
        },
        {
          "duration": 0.20000000000000284,
          "durationTicks": 96,
          "midi": 41,
          "name": "F2",
          "ticks": 18816,
          "time": 39.2,
          "velocity": 0.8661417322834646
        },
        {
          "duration": 0.20000000000000284,
          "durationTicks": 96,
          "midi": 36,
          "name": "C2",
          "ticks": 19008,
          "time": 39.6,
          "velocity": 0.8661417322834646
        },
        {
          "duration": 0.20000000000000284,
          "durationTicks": 96,
          "midi": 43,
          "name": "G2",
          "ticks": 19200,
          "time": 40,
          "velocity": 0.8661417322834646
        },
        {
          "duration": 0.19999999999999574,
          "durationTicks": 96,
          "midi": 38,
          "name": "D2",
          "ticks": 19392,
          "time": 40.400000000000006,
          "velocity": 0.8661417322834646
        },
        {
          "duration": 0.19999999999999574,
          "durationTicks": 96,
          "midi": 43,
          "name": "G2",
          "ticks": 19584,
          "time": 40.800000000000004,
          "velocity": 0.8661417322834646
        },
        {
          "duration": 0.20000000000000284,
          "durationTicks": 96,
          "midi": 38,
          "name": "D2",
          "ticks": 19776,
          "time": 41.2,
          "velocity": 0.8661417322834646
        },
        {
          "duration": 0.20000000000000284,
          "durationTicks": 96,
          "midi": 44,
          "name": "G#2",
          "ticks": 19968,
          "time": 41.6,
          "velocity": 0.8661417322834646
        },
        {
          "duration": 0.20000000000000284,
          "durationTicks": 96,
          "midi": 39,
          "name": "D#2",
          "ticks": 20160,
          "time": 42,
          "velocity": 0.8661417322834646
        },
        {
          "duration": 0.19999999999999574,
          "durationTicks": 96,
          "midi": 44,
          "name": "G#2",
          "ticks": 20352,
          "time": 42.400000000000006,
          "velocity": 0.8661417322834646
        },
        {
          "duration": 0.19999999999999574,
          "durationTicks": 96,
          "midi": 39,
          "name": "D#2",
          "ticks": 20544,
          "time": 42.800000000000004,
          "velocity": 0.8661417322834646
        },
        {
          "duration": 0.20000000000000284,
          "durationTicks": 96,
          "midi": 41,
          "name": "F2",
          "ticks": 20736,
          "time": 43.2,
          "velocity": 0.8661417322834646
        },
        {
          "duration": 0.20000000000000284,
          "durationTicks": 96,
          "midi": 36,
          "name": "C2",
          "ticks": 20928,
          "time": 43.6,
          "velocity": 0.8661417322834646
        },
        {
          "duration": 0.09583333333333144,
          "durationTicks": 46,
          "midi": 43,
          "name": "G2",
          "ticks": 21120,
          "time": 44,
          "velocity": 0.8661417322834646
        },
        {
          "duration": 0.09583333333333144,
          "durationTicks": 46,
          "midi": 41,
          "name": "F2",
          "ticks": 21216,
          "time": 44.2,
          "velocity": 0.8661417322834646
        },
        {
          "duration": 0.09583333333333144,
          "durationTicks": 46,
          "midi": 39,
          "name": "D#2",
          "ticks": 21312,
          "time": 44.400000000000006,
          "velocity": 0.8661417322834646
        },
        {
          "duration": 0.09583333333333144,
          "durationTicks": 46,
          "midi": 38,
          "name": "D2",
          "ticks": 21408,
          "time": 44.6,
          "velocity": 0.8661417322834646
        },
        {
          "duration": 0.19999999999999574,
          "durationTicks": 96,
          "midi": 41,
          "name": "F2",
          "ticks": 21504,
          "time": 44.800000000000004,
          "velocity": 0.8661417322834646
        },
        {
          "duration": 0.20000000000000284,
          "durationTicks": 96,
          "midi": 36,
          "name": "C2",
          "ticks": 21696,
          "time": 45.2,
          "velocity": 0.8661417322834646
        },
        {
          "duration": 0.20000000000000284,
          "durationTicks": 96,
          "midi": 41,
          "name": "F2",
          "ticks": 21888,
          "time": 45.6,
          "velocity": 0.8661417322834646
        },
        {
          "duration": 0.20000000000000284,
          "durationTicks": 96,
          "midi": 36,
          "name": "C2",
          "ticks": 22080,
          "time": 46,
          "velocity": 0.8661417322834646
        },
        {
          "duration": 0.19999999999999574,
          "durationTicks": 96,
          "midi": 43,
          "name": "G2",
          "ticks": 22272,
          "time": 46.400000000000006,
          "velocity": 0.8661417322834646
        },
        {
          "duration": 0.19999999999999574,
          "durationTicks": 96,
          "midi": 38,
          "name": "D2",
          "ticks": 22464,
          "time": 46.800000000000004,
          "velocity": 0.8661417322834646
        },
        {
          "duration": 0.20000000000000284,
          "durationTicks": 96,
          "midi": 43,
          "name": "G2",
          "ticks": 22656,
          "time": 47.2,
          "velocity": 0.8661417322834646
        },
        {
          "duration": 0.20000000000000284,
          "durationTicks": 96,
          "midi": 38,
          "name": "D2",
          "ticks": 22848,
          "time": 47.6,
          "velocity": 0.8661417322834646
        },
        {
          "duration": 0.20000000000000284,
          "durationTicks": 96,
          "midi": 44,
          "name": "G#2",
          "ticks": 23040,
          "time": 48,
          "velocity": 0.8661417322834646
        },
        {
          "duration": 0.19999999999999574,
          "durationTicks": 96,
          "midi": 39,
          "name": "D#2",
          "ticks": 23232,
          "time": 48.400000000000006,
          "velocity": 0.8661417322834646
        },
        {
          "duration": 0.19999999999999574,
          "durationTicks": 96,
          "midi": 44,
          "name": "G#2",
          "ticks": 23424,
          "time": 48.800000000000004,
          "velocity": 0.8661417322834646
        },
        {
          "duration": 0.20000000000000284,
          "durationTicks": 96,
          "midi": 39,
          "name": "D#2",
          "ticks": 23616,
          "time": 49.2,
          "velocity": 0.8661417322834646
        },
        {
          "duration": 0.20000000000000284,
          "durationTicks": 96,
          "midi": 39,
          "name": "D#2",
          "ticks": 23808,
          "time": 49.6,
          "velocity": 0.8661417322834646
        },
        {
          "duration": 0.20000000000000284,
          "durationTicks": 96,
          "midi": 34,
          "name": "A#1",
          "ticks": 24000,
          "time": 50,
          "velocity": 0.8661417322834646
        },
        {
          "duration": 0.19999999999999574,
          "durationTicks": 96,
          "midi": 37,
          "name": "C#2",
          "ticks": 24192,
          "time": 50.400000000000006,
          "velocity": 0.8661417322834646
        },
        {
          "duration": 0.19999999999999574,
          "durationTicks": 96,
          "midi": 43,
          "name": "G2",
          "ticks": 24384,
          "time": 50.800000000000004,
          "velocity": 0.8661417322834646
        },
        {
          "duration": 0.20000000000001705,
          "durationTicks": 96,
          "midi": 41,
          "name": "F2",
          "ticks": 43008,
          "time": 89.6,
          "velocity": 0.8661417322834646
        },
        {
          "duration": 0.20000000000000284,
          "durationTicks": 96,
          "midi": 36,
          "name": "C2",
          "ticks": 43200,
          "time": 90,
          "velocity": 0.8661417322834646
        },
        {
          "duration": 0.19999999999998863,
          "durationTicks": 96,
          "midi": 41,
          "name": "F2",
          "ticks": 43392,
          "time": 90.4,
          "velocity": 0.8661417322834646
        },
        {
          "duration": 0.19999999999998863,
          "durationTicks": 96,
          "midi": 36,
          "name": "C2",
          "ticks": 43584,
          "time": 90.80000000000001,
          "velocity": 0.8661417322834646
        },
        {
          "duration": 0.20000000000000284,
          "durationTicks": 96,
          "midi": 43,
          "name": "G2",
          "ticks": 43776,
          "time": 91.2,
          "velocity": 0.8661417322834646
        },
        {
          "duration": 0.20000000000001705,
          "durationTicks": 96,
          "midi": 38,
          "name": "D2",
          "ticks": 43968,
          "time": 91.6,
          "velocity": 0.8661417322834646
        },
        {
          "duration": 0.20000000000000284,
          "durationTicks": 96,
          "midi": 43,
          "name": "G2",
          "ticks": 44160,
          "time": 92,
          "velocity": 0.8661417322834646
        },
        {
          "duration": 0.19999999999998863,
          "durationTicks": 96,
          "midi": 38,
          "name": "D2",
          "ticks": 44352,
          "time": 92.4,
          "velocity": 0.8661417322834646
        },
        {
          "duration": 0.19999999999998863,
          "durationTicks": 96,
          "midi": 44,
          "name": "G#2",
          "ticks": 44544,
          "time": 92.80000000000001,
          "velocity": 0.8661417322834646
        },
        {
          "duration": 0.20000000000000284,
          "durationTicks": 96,
          "midi": 39,
          "name": "D#2",
          "ticks": 44736,
          "time": 93.2,
          "velocity": 0.8661417322834646
        },
        {
          "duration": 0.20000000000001705,
          "durationTicks": 96,
          "midi": 44,
          "name": "G#2",
          "ticks": 44928,
          "time": 93.6,
          "velocity": 0.8661417322834646
        },
        {
          "duration": 0.20000000000000284,
          "durationTicks": 96,
          "midi": 39,
          "name": "D#2",
          "ticks": 45120,
          "time": 94,
          "velocity": 0.8661417322834646
        },
        {
          "duration": 0.19999999999998863,
          "durationTicks": 96,
          "midi": 39,
          "name": "D#2",
          "ticks": 45312,
          "time": 94.4,
          "velocity": 0.8661417322834646
        },
        {
          "duration": 0.19999999999998863,
          "durationTicks": 96,
          "midi": 34,
          "name": "A#1",
          "ticks": 45504,
          "time": 94.80000000000001,
          "velocity": 0.8661417322834646
        },
        {
          "duration": 0.20000000000000284,
          "durationTicks": 96,
          "midi": 37,
          "name": "C#2",
          "ticks": 45696,
          "time": 95.2,
          "velocity": 0.8661417322834646
        },
        {
          "duration": 0.20000000000001705,
          "durationTicks": 96,
          "midi": 43,
          "name": "G2",
          "ticks": 45888,
          "time": 95.6,
          "velocity": 0.8661417322834646
        },
        {
          "duration": 0.20000000000000284,
          "durationTicks": 96,
          "midi": 41,
          "name": "F2",
          "ticks": 46080,
          "time": 96,
          "velocity": 0.8661417322834646
        },
        {
          "duration": 0.19999999999998863,
          "durationTicks": 96,
          "midi": 36,
          "name": "C2",
          "ticks": 46272,
          "time": 96.4,
          "velocity": 0.8661417322834646
        },
        {
          "duration": 0.19999999999998863,
          "durationTicks": 96,
          "midi": 41,
          "name": "F2",
          "ticks": 46464,
          "time": 96.80000000000001,
          "velocity": 0.8661417322834646
        },
        {
          "duration": 0.20000000000000284,
          "durationTicks": 96,
          "midi": 36,
          "name": "C2",
          "ticks": 46656,
          "time": 97.2,
          "velocity": 0.8661417322834646
        },
        {
          "duration": 0.20000000000001705,
          "durationTicks": 96,
          "midi": 43,
          "name": "G2",
          "ticks": 46848,
          "time": 97.6,
          "velocity": 0.8661417322834646
        },
        {
          "duration": 0.20000000000000284,
          "durationTicks": 96,
          "midi": 38,
          "name": "D2",
          "ticks": 47040,
          "time": 98,
          "velocity": 0.8661417322834646
        },
        {
          "duration": 0.19999999999998863,
          "durationTicks": 96,
          "midi": 43,
          "name": "G2",
          "ticks": 47232,
          "time": 98.4,
          "velocity": 0.8661417322834646
        },
        {
          "duration": 0.19999999999998863,
          "durationTicks": 96,
          "midi": 38,
          "name": "D2",
          "ticks": 47424,
          "time": 98.80000000000001,
          "velocity": 0.8661417322834646
        },
        {
          "duration": 0.20000000000000284,
          "durationTicks": 96,
          "midi": 44,
          "name": "G#2",
          "ticks": 47616,
          "time": 99.2,
          "velocity": 0.8661417322834646
        },
        {
          "duration": 0.20000000000001705,
          "durationTicks": 96,
          "midi": 39,
          "name": "D#2",
          "ticks": 47808,
          "time": 99.6,
          "velocity": 0.8661417322834646
        },
        {
          "duration": 0.20000000000000284,
          "durationTicks": 96,
          "midi": 44,
          "name": "G#2",
          "ticks": 48000,
          "time": 100,
          "velocity": 0.8661417322834646
        },
        {
          "duration": 0.19999999999998863,
          "durationTicks": 96,
          "midi": 39,
          "name": "D#2",
          "ticks": 48192,
          "time": 100.4,
          "velocity": 0.8661417322834646
        },
        {
          "duration": 0.19999999999998863,
          "durationTicks": 96,
          "midi": 41,
          "name": "F2",
          "ticks": 48384,
          "time": 100.80000000000001,
          "velocity": 0.8661417322834646
        },
        {
          "duration": 0.20000000000000284,
          "durationTicks": 96,
          "midi": 36,
          "name": "C2",
          "ticks": 48576,
          "time": 101.2,
          "velocity": 0.8661417322834646
        },
        {
          "duration": 0.09583333333333144,
          "durationTicks": 46,
          "midi": 43,
          "name": "G2",
          "ticks": 48768,
          "time": 101.6,
          "velocity": 0.8661417322834646
        },
        {
          "duration": 0.09583333333333144,
          "durationTicks": 46,
          "midi": 41,
          "name": "F2",
          "ticks": 48864,
          "time": 101.80000000000001,
          "velocity": 0.8661417322834646
        },
        {
          "duration": 0.09583333333333144,
          "durationTicks": 46,
          "midi": 39,
          "name": "D#2",
          "ticks": 48960,
          "time": 102,
          "velocity": 0.8661417322834646
        },
        {
          "duration": 0.09583333333333144,
          "durationTicks": 46,
          "midi": 38,
          "name": "D2",
          "ticks": 49056,
          "time": 102.2,
          "velocity": 0.8661417322834646
        },
        {
          "duration": 0.19999999999998863,
          "durationTicks": 96,
          "midi": 41,
          "name": "F2",
          "ticks": 49152,
          "time": 102.4,
          "velocity": 0.8661417322834646
        },
        {
          "duration": 0.19999999999998863,
          "durationTicks": 96,
          "midi": 36,
          "name": "C2",
          "ticks": 49344,
          "time": 102.80000000000001,
          "velocity": 0.8661417322834646
        },
        {
          "duration": 0.20000000000000284,
          "durationTicks": 96,
          "midi": 41,
          "name": "F2",
          "ticks": 49536,
          "time": 103.2,
          "velocity": 0.8661417322834646
        },
        {
          "duration": 0.20000000000001705,
          "durationTicks": 96,
          "midi": 36,
          "name": "C2",
          "ticks": 49728,
          "time": 103.6,
          "velocity": 0.8661417322834646
        },
        {
          "duration": 0.20000000000000284,
          "durationTicks": 96,
          "midi": 43,
          "name": "G2",
          "ticks": 49920,
          "time": 104,
          "velocity": 0.8661417322834646
        },
        {
          "duration": 0.19999999999998863,
          "durationTicks": 96,
          "midi": 38,
          "name": "D2",
          "ticks": 50112,
          "time": 104.4,
          "velocity": 0.8661417322834646
        },
        {
          "duration": 0.19999999999998863,
          "durationTicks": 96,
          "midi": 43,
          "name": "G2",
          "ticks": 50304,
          "time": 104.80000000000001,
          "velocity": 0.8661417322834646
        },
        {
          "duration": 0.20000000000000284,
          "durationTicks": 96,
          "midi": 38,
          "name": "D2",
          "ticks": 50496,
          "time": 105.2,
          "velocity": 0.8661417322834646
        },
        {
          "duration": 0.20000000000001705,
          "durationTicks": 96,
          "midi": 44,
          "name": "G#2",
          "ticks": 50688,
          "time": 105.6,
          "velocity": 0.8661417322834646
        },
        {
          "duration": 0.20000000000000284,
          "durationTicks": 96,
          "midi": 39,
          "name": "D#2",
          "ticks": 50880,
          "time": 106,
          "velocity": 0.8661417322834646
        },
        {
          "duration": 0.19999999999998863,
          "durationTicks": 96,
          "midi": 44,
          "name": "G#2",
          "ticks": 51072,
          "time": 106.4,
          "velocity": 0.8661417322834646
        },
        {
          "duration": 0.19999999999998863,
          "durationTicks": 96,
          "midi": 39,
          "name": "D#2",
          "ticks": 51264,
          "time": 106.80000000000001,
          "velocity": 0.8661417322834646
        },
        {
          "duration": 0.20000000000000284,
          "durationTicks": 96,
          "midi": 39,
          "name": "D#2",
          "ticks": 51456,
          "time": 107.2,
          "velocity": 0.8661417322834646
        },
        {
          "duration": 0.20000000000001705,
          "durationTicks": 96,
          "midi": 34,
          "name": "A#1",
          "ticks": 51648,
          "time": 107.6,
          "velocity": 0.8661417322834646
        },
        {
          "duration": 0.20000000000000284,
          "durationTicks": 96,
          "midi": 37,
          "name": "C#2",
          "ticks": 51840,
          "time": 108,
          "velocity": 0.8661417322834646
        },
        {
          "duration": 0.19999999999998863,
          "durationTicks": 96,
          "midi": 43,
          "name": "G2",
          "ticks": 52032,
          "time": 108.4,
          "velocity": 0.8661417322834646
        },
        {
          "duration": 0.20000000000001705,
          "durationTicks": 96,
          "midi": 41,
          "name": "F2",
          "ticks": 70656,
          "time": 147.2,
          "velocity": 0.8661417322834646
        },
        {
          "duration": 0.20000000000001705,
          "durationTicks": 96,
          "midi": 36,
          "name": "C2",
          "ticks": 70848,
          "time": 147.6,
          "velocity": 0.8661417322834646
        },
        {
          "duration": 0.19999999999998863,
          "durationTicks": 96,
          "midi": 41,
          "name": "F2",
          "ticks": 71040,
          "time": 148,
          "velocity": 0.8661417322834646
        },
        {
          "duration": 0.19999999999998863,
          "durationTicks": 96,
          "midi": 36,
          "name": "C2",
          "ticks": 71232,
          "time": 148.4,
          "velocity": 0.8661417322834646
        },
        {
          "duration": 0.19999999999998863,
          "durationTicks": 96,
          "midi": 43,
          "name": "G2",
          "ticks": 71424,
          "time": 148.8,
          "velocity": 0.8661417322834646
        },
        {
          "duration": 0.20000000000001705,
          "durationTicks": 96,
          "midi": 38,
          "name": "D2",
          "ticks": 71616,
          "time": 149.2,
          "velocity": 0.8661417322834646
        },
        {
          "duration": 0.20000000000001705,
          "durationTicks": 96,
          "midi": 43,
          "name": "G2",
          "ticks": 71808,
          "time": 149.6,
          "velocity": 0.8661417322834646
        },
        {
          "duration": 0.19999999999998863,
          "durationTicks": 96,
          "midi": 38,
          "name": "D2",
          "ticks": 72000,
          "time": 150,
          "velocity": 0.8661417322834646
        },
        {
          "duration": 0.19999999999998863,
          "durationTicks": 96,
          "midi": 44,
          "name": "G#2",
          "ticks": 72192,
          "time": 150.4,
          "velocity": 0.8661417322834646
        },
        {
          "duration": 0.19999999999998863,
          "durationTicks": 96,
          "midi": 39,
          "name": "D#2",
          "ticks": 72384,
          "time": 150.8,
          "velocity": 0.8661417322834646
        },
        {
          "duration": 0.20000000000001705,
          "durationTicks": 96,
          "midi": 44,
          "name": "G#2",
          "ticks": 72576,
          "time": 151.2,
          "velocity": 0.8661417322834646
        },
        {
          "duration": 0.20000000000001705,
          "durationTicks": 96,
          "midi": 39,
          "name": "D#2",
          "ticks": 72768,
          "time": 151.6,
          "velocity": 0.8661417322834646
        },
        {
          "duration": 0.19999999999998863,
          "durationTicks": 96,
          "midi": 39,
          "name": "D#2",
          "ticks": 72960,
          "time": 152,
          "velocity": 0.8661417322834646
        },
        {
          "duration": 0.19999999999998863,
          "durationTicks": 96,
          "midi": 34,
          "name": "A#1",
          "ticks": 73152,
          "time": 152.4,
          "velocity": 0.8661417322834646
        },
        {
          "duration": 0.19999999999998863,
          "durationTicks": 96,
          "midi": 37,
          "name": "C#2",
          "ticks": 73344,
          "time": 152.8,
          "velocity": 0.8661417322834646
        },
        {
          "duration": 0.20000000000001705,
          "durationTicks": 96,
          "midi": 43,
          "name": "G2",
          "ticks": 73536,
          "time": 153.2,
          "velocity": 0.8661417322834646
        },
        {
          "duration": 0.19999999999998863,
          "durationTicks": 96,
          "midi": 41,
          "name": "F2",
          "ticks": 73728,
          "time": 153.60000000000002,
          "velocity": 0.8661417322834646
        },
        {
          "duration": 0.19999999999998863,
          "durationTicks": 96,
          "midi": 36,
          "name": "C2",
          "ticks": 73920,
          "time": 154,
          "velocity": 0.8661417322834646
        },
        {
          "duration": 0.20000000000001705,
          "durationTicks": 96,
          "midi": 41,
          "name": "F2",
          "ticks": 74112,
          "time": 154.4,
          "velocity": 0.8661417322834646
        },
        {
          "duration": 0.19999999999998863,
          "durationTicks": 96,
          "midi": 36,
          "name": "C2",
          "ticks": 74304,
          "time": 154.8,
          "velocity": 0.8661417322834646
        },
        {
          "duration": 0.20000000000001705,
          "durationTicks": 96,
          "midi": 43,
          "name": "G2",
          "ticks": 74496,
          "time": 155.2,
          "velocity": 0.8661417322834646
        },
        {
          "duration": 0.19999999999998863,
          "durationTicks": 96,
          "midi": 38,
          "name": "D2",
          "ticks": 74688,
          "time": 155.60000000000002,
          "velocity": 0.8661417322834646
        },
        {
          "duration": 0.19999999999998863,
          "durationTicks": 96,
          "midi": 43,
          "name": "G2",
          "ticks": 74880,
          "time": 156,
          "velocity": 0.8661417322834646
        },
        {
          "duration": 0.20000000000001705,
          "durationTicks": 96,
          "midi": 38,
          "name": "D2",
          "ticks": 75072,
          "time": 156.4,
          "velocity": 0.8661417322834646
        },
        {
          "duration": 0.19999999999998863,
          "durationTicks": 96,
          "midi": 44,
          "name": "G#2",
          "ticks": 75264,
          "time": 156.8,
          "velocity": 0.8661417322834646
        },
        {
          "duration": 0.20000000000001705,
          "durationTicks": 96,
          "midi": 39,
          "name": "D#2",
          "ticks": 75456,
          "time": 157.2,
          "velocity": 0.8661417322834646
        },
        {
          "duration": 0.19999999999998863,
          "durationTicks": 96,
          "midi": 44,
          "name": "G#2",
          "ticks": 75648,
          "time": 157.60000000000002,
          "velocity": 0.8661417322834646
        },
        {
          "duration": 0.19999999999998863,
          "durationTicks": 96,
          "midi": 39,
          "name": "D#2",
          "ticks": 75840,
          "time": 158,
          "velocity": 0.8661417322834646
        },
        {
          "duration": 0.20000000000001705,
          "durationTicks": 96,
          "midi": 41,
          "name": "F2",
          "ticks": 76032,
          "time": 158.4,
          "velocity": 0.8661417322834646
        },
        {
          "duration": 0.19999999999998863,
          "durationTicks": 96,
          "midi": 36,
          "name": "C2",
          "ticks": 76224,
          "time": 158.8,
          "velocity": 0.8661417322834646
        },
        {
          "duration": 0.09583333333335986,
          "durationTicks": 46,
          "midi": 43,
          "name": "G2",
          "ticks": 76416,
          "time": 159.2,
          "velocity": 0.8661417322834646
        },
        {
          "duration": 0.09583333333333144,
          "durationTicks": 46,
          "midi": 41,
          "name": "F2",
          "ticks": 76512,
          "time": 159.4,
          "velocity": 0.8661417322834646
        },
        {
          "duration": 0.09583333333330302,
          "durationTicks": 46,
          "midi": 39,
          "name": "D#2",
          "ticks": 76608,
          "time": 159.60000000000002,
          "velocity": 0.8661417322834646
        },
        {
          "duration": 0.09583333333333144,
          "durationTicks": 46,
          "midi": 38,
          "name": "D2",
          "ticks": 76704,
          "time": 159.8,
          "velocity": 0.8661417322834646
        },
        {
          "duration": 0.19999999999998863,
          "durationTicks": 96,
          "midi": 41,
          "name": "F2",
          "ticks": 76800,
          "time": 160,
          "velocity": 0.8661417322834646
        },
        {
          "duration": 0.20000000000001705,
          "durationTicks": 96,
          "midi": 36,
          "name": "C2",
          "ticks": 76992,
          "time": 160.4,
          "velocity": 0.8661417322834646
        },
        {
          "duration": 0.19999999999998863,
          "durationTicks": 96,
          "midi": 41,
          "name": "F2",
          "ticks": 77184,
          "time": 160.8,
          "velocity": 0.8661417322834646
        },
        {
          "duration": 0.20000000000001705,
          "durationTicks": 96,
          "midi": 36,
          "name": "C2",
          "ticks": 77376,
          "time": 161.2,
          "velocity": 0.8661417322834646
        },
        {
          "duration": 0.19999999999998863,
          "durationTicks": 96,
          "midi": 43,
          "name": "G2",
          "ticks": 77568,
          "time": 161.60000000000002,
          "velocity": 0.8661417322834646
        },
        {
          "duration": 0.19999999999998863,
          "durationTicks": 96,
          "midi": 38,
          "name": "D2",
          "ticks": 77760,
          "time": 162,
          "velocity": 0.8661417322834646
        },
        {
          "duration": 0.20000000000001705,
          "durationTicks": 96,
          "midi": 43,
          "name": "G2",
          "ticks": 77952,
          "time": 162.4,
          "velocity": 0.8661417322834646
        },
        {
          "duration": 0.19999999999998863,
          "durationTicks": 96,
          "midi": 38,
          "name": "D2",
          "ticks": 78144,
          "time": 162.8,
          "velocity": 0.8661417322834646
        },
        {
          "duration": 0.20000000000001705,
          "durationTicks": 96,
          "midi": 44,
          "name": "G#2",
          "ticks": 78336,
          "time": 163.2,
          "velocity": 0.8661417322834646
        },
        {
          "duration": 0.19999999999998863,
          "durationTicks": 96,
          "midi": 39,
          "name": "D#2",
          "ticks": 78528,
          "time": 163.60000000000002,
          "velocity": 0.8661417322834646
        },
        {
          "duration": 0.19999999999998863,
          "durationTicks": 96,
          "midi": 44,
          "name": "G#2",
          "ticks": 78720,
          "time": 164,
          "velocity": 0.8661417322834646
        },
        {
          "duration": 0.20000000000001705,
          "durationTicks": 96,
          "midi": 39,
          "name": "D#2",
          "ticks": 78912,
          "time": 164.4,
          "velocity": 0.8661417322834646
        },
        {
          "duration": 0.19999999999998863,
          "durationTicks": 96,
          "midi": 39,
          "name": "D#2",
          "ticks": 79104,
          "time": 164.8,
          "velocity": 0.8661417322834646
        },
        {
          "duration": 0.20000000000001705,
          "durationTicks": 96,
          "midi": 34,
          "name": "A#1",
          "ticks": 79296,
          "time": 165.2,
          "velocity": 0.8661417322834646
        },
        {
          "duration": 0.19999999999998863,
          "durationTicks": 96,
          "midi": 37,
          "name": "C#2",
          "ticks": 79488,
          "time": 165.60000000000002,
          "velocity": 0.8661417322834646
        },
        {
          "duration": 0.19999999999998863,
          "durationTicks": 96,
          "midi": 43,
          "name": "G2",
          "ticks": 79680,
          "time": 166,
          "velocity": 0.8661417322834646
        }
      ],
      "endOfTrackTicks": 79776
    },
    {
      "channel": 3,
      "controlChanges": {
        "7": [
          {
            "number": 7,
            "ticks": 0,
            "time": 0,
            "value": 1
          }
        ],
        "10": [
          {
            "number": 10,
            "ticks": 0,
            "time": 0,
            "value": 0.5039370078740157
          }
        ]
      },
      "pitchBends": [],
      "instrument": {
        "family": "brass",
        "number": 58,
        "name": "tuba"
      },
      "name": "Staff-11",
      "notes": [
        {
          "duration": 0.20000000000000284,
          "durationTicks": 96,
          "midi": 29,
          "name": "F1",
          "ticks": 15360,
          "time": 32,
          "velocity": 0.8661417322834646
        },
        {
          "duration": 0.20000000000000284,
          "durationTicks": 96,
          "midi": 24,
          "name": "C1",
          "ticks": 15552,
          "time": 32.4,
          "velocity": 0.8661417322834646
        },
        {
          "duration": 0.19999999999999574,
          "durationTicks": 96,
          "midi": 29,
          "name": "F1",
          "ticks": 15744,
          "time": 32.800000000000004,
          "velocity": 0.8661417322834646
        },
        {
          "duration": 0.19999999999999574,
          "durationTicks": 96,
          "midi": 24,
          "name": "C1",
          "ticks": 15936,
          "time": 33.2,
          "velocity": 0.8661417322834646
        },
        {
          "duration": 0.20000000000000284,
          "durationTicks": 96,
          "midi": 31,
          "name": "G1",
          "ticks": 16128,
          "time": 33.6,
          "velocity": 0.8661417322834646
        },
        {
          "duration": 0.20000000000000284,
          "durationTicks": 96,
          "midi": 26,
          "name": "D1",
          "ticks": 16320,
          "time": 34,
          "velocity": 0.8661417322834646
        },
        {
          "duration": 0.20000000000000284,
          "durationTicks": 96,
          "midi": 31,
          "name": "G1",
          "ticks": 16512,
          "time": 34.4,
          "velocity": 0.8661417322834646
        },
        {
          "duration": 0.19999999999999574,
          "durationTicks": 96,
          "midi": 26,
          "name": "D1",
          "ticks": 16704,
          "time": 34.800000000000004,
          "velocity": 0.8661417322834646
        },
        {
          "duration": 0.19999999999999574,
          "durationTicks": 96,
          "midi": 32,
          "name": "G#1",
          "ticks": 16896,
          "time": 35.2,
          "velocity": 0.8661417322834646
        },
        {
          "duration": 0.20000000000000284,
          "durationTicks": 96,
          "midi": 27,
          "name": "D#1",
          "ticks": 17088,
          "time": 35.6,
          "velocity": 0.8661417322834646
        },
        {
          "duration": 0.20000000000000284,
          "durationTicks": 96,
          "midi": 32,
          "name": "G#1",
          "ticks": 17280,
          "time": 36,
          "velocity": 0.8661417322834646
        },
        {
          "duration": 0.20000000000000284,
          "durationTicks": 96,
          "midi": 27,
          "name": "D#1",
          "ticks": 17472,
          "time": 36.4,
          "velocity": 0.8661417322834646
        },
        {
          "duration": 0.19999999999999574,
          "durationTicks": 96,
          "midi": 27,
          "name": "D#1",
          "ticks": 17664,
          "time": 36.800000000000004,
          "velocity": 0.8661417322834646
        },
        {
          "duration": 0.19999999999999574,
          "durationTicks": 96,
          "midi": 22,
          "name": "A#0",
          "ticks": 17856,
          "time": 37.2,
          "velocity": 0.8661417322834646
        },
        {
          "duration": 0.20000000000000284,
          "durationTicks": 96,
          "midi": 25,
          "name": "C#1",
          "ticks": 18048,
          "time": 37.6,
          "velocity": 0.8661417322834646
        },
        {
          "duration": 0.20000000000000284,
          "durationTicks": 96,
          "midi": 31,
          "name": "G1",
          "ticks": 18240,
          "time": 38,
          "velocity": 0.8661417322834646
        },
        {
          "duration": 0.19999999999999574,
          "durationTicks": 96,
          "midi": 29,
          "name": "F1",
          "ticks": 18432,
          "time": 38.400000000000006,
          "velocity": 0.8661417322834646
        },
        {
          "duration": 0.19999999999999574,
          "durationTicks": 96,
          "midi": 24,
          "name": "C1",
          "ticks": 18624,
          "time": 38.800000000000004,
          "velocity": 0.8661417322834646
        },
        {
          "duration": 0.20000000000000284,
          "durationTicks": 96,
          "midi": 29,
          "name": "F1",
          "ticks": 18816,
          "time": 39.2,
          "velocity": 0.8661417322834646
        },
        {
          "duration": 0.20000000000000284,
          "durationTicks": 96,
          "midi": 24,
          "name": "C1",
          "ticks": 19008,
          "time": 39.6,
          "velocity": 0.8661417322834646
        },
        {
          "duration": 0.20000000000000284,
          "durationTicks": 96,
          "midi": 31,
          "name": "G1",
          "ticks": 19200,
          "time": 40,
          "velocity": 0.8661417322834646
        },
        {
          "duration": 0.19999999999999574,
          "durationTicks": 96,
          "midi": 26,
          "name": "D1",
          "ticks": 19392,
          "time": 40.400000000000006,
          "velocity": 0.8661417322834646
        },
        {
          "duration": 0.19999999999999574,
          "durationTicks": 96,
          "midi": 31,
          "name": "G1",
          "ticks": 19584,
          "time": 40.800000000000004,
          "velocity": 0.8661417322834646
        },
        {
          "duration": 0.20000000000000284,
          "durationTicks": 96,
          "midi": 26,
          "name": "D1",
          "ticks": 19776,
          "time": 41.2,
          "velocity": 0.8661417322834646
        },
        {
          "duration": 0.20000000000000284,
          "durationTicks": 96,
          "midi": 32,
          "name": "G#1",
          "ticks": 19968,
          "time": 41.6,
          "velocity": 0.8661417322834646
        },
        {
          "duration": 0.20000000000000284,
          "durationTicks": 96,
          "midi": 27,
          "name": "D#1",
          "ticks": 20160,
          "time": 42,
          "velocity": 0.8661417322834646
        },
        {
          "duration": 0.19999999999999574,
          "durationTicks": 96,
          "midi": 32,
          "name": "G#1",
          "ticks": 20352,
          "time": 42.400000000000006,
          "velocity": 0.8661417322834646
        },
        {
          "duration": 0.19999999999999574,
          "durationTicks": 96,
          "midi": 27,
          "name": "D#1",
          "ticks": 20544,
          "time": 42.800000000000004,
          "velocity": 0.8661417322834646
        },
        {
          "duration": 0.20000000000000284,
          "durationTicks": 96,
          "midi": 29,
          "name": "F1",
          "ticks": 20736,
          "time": 43.2,
          "velocity": 0.8661417322834646
        },
        {
          "duration": 0.20000000000000284,
          "durationTicks": 96,
          "midi": 24,
          "name": "C1",
          "ticks": 20928,
          "time": 43.6,
          "velocity": 0.8661417322834646
        },
        {
          "duration": 0.09583333333333144,
          "durationTicks": 46,
          "midi": 31,
          "name": "G1",
          "ticks": 21120,
          "time": 44,
          "velocity": 0.8661417322834646
        },
        {
          "duration": 0.09583333333333144,
          "durationTicks": 46,
          "midi": 29,
          "name": "F1",
          "ticks": 21216,
          "time": 44.2,
          "velocity": 0.8661417322834646
        },
        {
          "duration": 0.09583333333333144,
          "durationTicks": 46,
          "midi": 27,
          "name": "D#1",
          "ticks": 21312,
          "time": 44.400000000000006,
          "velocity": 0.8661417322834646
        },
        {
          "duration": 0.09583333333333144,
          "durationTicks": 46,
          "midi": 26,
          "name": "D1",
          "ticks": 21408,
          "time": 44.6,
          "velocity": 0.8661417322834646
        },
        {
          "duration": 0.19999999999999574,
          "durationTicks": 96,
          "midi": 29,
          "name": "F1",
          "ticks": 21504,
          "time": 44.800000000000004,
          "velocity": 0.8661417322834646
        },
        {
          "duration": 0.20000000000000284,
          "durationTicks": 96,
          "midi": 24,
          "name": "C1",
          "ticks": 21696,
          "time": 45.2,
          "velocity": 0.8661417322834646
        },
        {
          "duration": 0.20000000000000284,
          "durationTicks": 96,
          "midi": 29,
          "name": "F1",
          "ticks": 21888,
          "time": 45.6,
          "velocity": 0.8661417322834646
        },
        {
          "duration": 0.20000000000000284,
          "durationTicks": 96,
          "midi": 24,
          "name": "C1",
          "ticks": 22080,
          "time": 46,
          "velocity": 0.8661417322834646
        },
        {
          "duration": 0.19999999999999574,
          "durationTicks": 96,
          "midi": 31,
          "name": "G1",
          "ticks": 22272,
          "time": 46.400000000000006,
          "velocity": 0.8661417322834646
        },
        {
          "duration": 0.19999999999999574,
          "durationTicks": 96,
          "midi": 26,
          "name": "D1",
          "ticks": 22464,
          "time": 46.800000000000004,
          "velocity": 0.8661417322834646
        },
        {
          "duration": 0.20000000000000284,
          "durationTicks": 96,
          "midi": 31,
          "name": "G1",
          "ticks": 22656,
          "time": 47.2,
          "velocity": 0.8661417322834646
        },
        {
          "duration": 0.20000000000000284,
          "durationTicks": 96,
          "midi": 26,
          "name": "D1",
          "ticks": 22848,
          "time": 47.6,
          "velocity": 0.8661417322834646
        },
        {
          "duration": 0.20000000000000284,
          "durationTicks": 96,
          "midi": 32,
          "name": "G#1",
          "ticks": 23040,
          "time": 48,
          "velocity": 0.8661417322834646
        },
        {
          "duration": 0.19999999999999574,
          "durationTicks": 96,
          "midi": 27,
          "name": "D#1",
          "ticks": 23232,
          "time": 48.400000000000006,
          "velocity": 0.8661417322834646
        },
        {
          "duration": 0.19999999999999574,
          "durationTicks": 96,
          "midi": 32,
          "name": "G#1",
          "ticks": 23424,
          "time": 48.800000000000004,
          "velocity": 0.8661417322834646
        },
        {
          "duration": 0.20000000000000284,
          "durationTicks": 96,
          "midi": 27,
          "name": "D#1",
          "ticks": 23616,
          "time": 49.2,
          "velocity": 0.8661417322834646
        },
        {
          "duration": 0.20000000000000284,
          "durationTicks": 96,
          "midi": 27,
          "name": "D#1",
          "ticks": 23808,
          "time": 49.6,
          "velocity": 0.8661417322834646
        },
        {
          "duration": 0.20000000000000284,
          "durationTicks": 96,
          "midi": 22,
          "name": "A#0",
          "ticks": 24000,
          "time": 50,
          "velocity": 0.8661417322834646
        },
        {
          "duration": 0.19999999999999574,
          "durationTicks": 96,
          "midi": 25,
          "name": "C#1",
          "ticks": 24192,
          "time": 50.400000000000006,
          "velocity": 0.8661417322834646
        },
        {
          "duration": 0.19999999999999574,
          "durationTicks": 96,
          "midi": 31,
          "name": "G1",
          "ticks": 24384,
          "time": 50.800000000000004,
          "velocity": 0.8661417322834646
        },
        {
          "duration": 0.20000000000001705,
          "durationTicks": 96,
          "midi": 29,
          "name": "F1",
          "ticks": 43008,
          "time": 89.6,
          "velocity": 0.8661417322834646
        },
        {
          "duration": 0.20000000000000284,
          "durationTicks": 96,
          "midi": 24,
          "name": "C1",
          "ticks": 43200,
          "time": 90,
          "velocity": 0.8661417322834646
        },
        {
          "duration": 0.19999999999998863,
          "durationTicks": 96,
          "midi": 29,
          "name": "F1",
          "ticks": 43392,
          "time": 90.4,
          "velocity": 0.8661417322834646
        },
        {
          "duration": 0.19999999999998863,
          "durationTicks": 96,
          "midi": 24,
          "name": "C1",
          "ticks": 43584,
          "time": 90.80000000000001,
          "velocity": 0.8661417322834646
        },
        {
          "duration": 0.20000000000000284,
          "durationTicks": 96,
          "midi": 31,
          "name": "G1",
          "ticks": 43776,
          "time": 91.2,
          "velocity": 0.8661417322834646
        },
        {
          "duration": 0.20000000000001705,
          "durationTicks": 96,
          "midi": 26,
          "name": "D1",
          "ticks": 43968,
          "time": 91.6,
          "velocity": 0.8661417322834646
        },
        {
          "duration": 0.20000000000000284,
          "durationTicks": 96,
          "midi": 31,
          "name": "G1",
          "ticks": 44160,
          "time": 92,
          "velocity": 0.8661417322834646
        },
        {
          "duration": 0.19999999999998863,
          "durationTicks": 96,
          "midi": 26,
          "name": "D1",
          "ticks": 44352,
          "time": 92.4,
          "velocity": 0.8661417322834646
        },
        {
          "duration": 0.19999999999998863,
          "durationTicks": 96,
          "midi": 32,
          "name": "G#1",
          "ticks": 44544,
          "time": 92.80000000000001,
          "velocity": 0.8661417322834646
        },
        {
          "duration": 0.20000000000000284,
          "durationTicks": 96,
          "midi": 27,
          "name": "D#1",
          "ticks": 44736,
          "time": 93.2,
          "velocity": 0.8661417322834646
        },
        {
          "duration": 0.20000000000001705,
          "durationTicks": 96,
          "midi": 32,
          "name": "G#1",
          "ticks": 44928,
          "time": 93.6,
          "velocity": 0.8661417322834646
        },
        {
          "duration": 0.20000000000000284,
          "durationTicks": 96,
          "midi": 27,
          "name": "D#1",
          "ticks": 45120,
          "time": 94,
          "velocity": 0.8661417322834646
        },
        {
          "duration": 0.19999999999998863,
          "durationTicks": 96,
          "midi": 27,
          "name": "D#1",
          "ticks": 45312,
          "time": 94.4,
          "velocity": 0.8661417322834646
        },
        {
          "duration": 0.19999999999998863,
          "durationTicks": 96,
          "midi": 22,
          "name": "A#0",
          "ticks": 45504,
          "time": 94.80000000000001,
          "velocity": 0.8661417322834646
        },
        {
          "duration": 0.20000000000000284,
          "durationTicks": 96,
          "midi": 25,
          "name": "C#1",
          "ticks": 45696,
          "time": 95.2,
          "velocity": 0.8661417322834646
        },
        {
          "duration": 0.20000000000001705,
          "durationTicks": 96,
          "midi": 31,
          "name": "G1",
          "ticks": 45888,
          "time": 95.6,
          "velocity": 0.8661417322834646
        },
        {
          "duration": 0.20000000000000284,
          "durationTicks": 96,
          "midi": 29,
          "name": "F1",
          "ticks": 46080,
          "time": 96,
          "velocity": 0.8661417322834646
        },
        {
          "duration": 0.19999999999998863,
          "durationTicks": 96,
          "midi": 24,
          "name": "C1",
          "ticks": 46272,
          "time": 96.4,
          "velocity": 0.8661417322834646
        },
        {
          "duration": 0.19999999999998863,
          "durationTicks": 96,
          "midi": 29,
          "name": "F1",
          "ticks": 46464,
          "time": 96.80000000000001,
          "velocity": 0.8661417322834646
        },
        {
          "duration": 0.20000000000000284,
          "durationTicks": 96,
          "midi": 24,
          "name": "C1",
          "ticks": 46656,
          "time": 97.2,
          "velocity": 0.8661417322834646
        },
        {
          "duration": 0.20000000000001705,
          "durationTicks": 96,
          "midi": 31,
          "name": "G1",
          "ticks": 46848,
          "time": 97.6,
          "velocity": 0.8661417322834646
        },
        {
          "duration": 0.20000000000000284,
          "durationTicks": 96,
          "midi": 26,
          "name": "D1",
          "ticks": 47040,
          "time": 98,
          "velocity": 0.8661417322834646
        },
        {
          "duration": 0.19999999999998863,
          "durationTicks": 96,
          "midi": 31,
          "name": "G1",
          "ticks": 47232,
          "time": 98.4,
          "velocity": 0.8661417322834646
        },
        {
          "duration": 0.19999999999998863,
          "durationTicks": 96,
          "midi": 26,
          "name": "D1",
          "ticks": 47424,
          "time": 98.80000000000001,
          "velocity": 0.8661417322834646
        },
        {
          "duration": 0.20000000000000284,
          "durationTicks": 96,
          "midi": 32,
          "name": "G#1",
          "ticks": 47616,
          "time": 99.2,
          "velocity": 0.8661417322834646
        },
        {
          "duration": 0.20000000000001705,
          "durationTicks": 96,
          "midi": 27,
          "name": "D#1",
          "ticks": 47808,
          "time": 99.6,
          "velocity": 0.8661417322834646
        },
        {
          "duration": 0.20000000000000284,
          "durationTicks": 96,
          "midi": 32,
          "name": "G#1",
          "ticks": 48000,
          "time": 100,
          "velocity": 0.8661417322834646
        },
        {
          "duration": 0.19999999999998863,
          "durationTicks": 96,
          "midi": 27,
          "name": "D#1",
          "ticks": 48192,
          "time": 100.4,
          "velocity": 0.8661417322834646
        },
        {
          "duration": 0.19999999999998863,
          "durationTicks": 96,
          "midi": 29,
          "name": "F1",
          "ticks": 48384,
          "time": 100.80000000000001,
          "velocity": 0.8661417322834646
        },
        {
          "duration": 0.20000000000000284,
          "durationTicks": 96,
          "midi": 24,
          "name": "C1",
          "ticks": 48576,
          "time": 101.2,
          "velocity": 0.8661417322834646
        },
        {
          "duration": 0.09583333333333144,
          "durationTicks": 46,
          "midi": 31,
          "name": "G1",
          "ticks": 48768,
          "time": 101.6,
          "velocity": 0.8661417322834646
        },
        {
          "duration": 0.09583333333333144,
          "durationTicks": 46,
          "midi": 29,
          "name": "F1",
          "ticks": 48864,
          "time": 101.80000000000001,
          "velocity": 0.8661417322834646
        },
        {
          "duration": 0.09583333333333144,
          "durationTicks": 46,
          "midi": 27,
          "name": "D#1",
          "ticks": 48960,
          "time": 102,
          "velocity": 0.8661417322834646
        },
        {
          "duration": 0.09583333333333144,
          "durationTicks": 46,
          "midi": 26,
          "name": "D1",
          "ticks": 49056,
          "time": 102.2,
          "velocity": 0.8661417322834646
        },
        {
          "duration": 0.19999999999998863,
          "durationTicks": 96,
          "midi": 29,
          "name": "F1",
          "ticks": 49152,
          "time": 102.4,
          "velocity": 0.8661417322834646
        },
        {
          "duration": 0.19999999999998863,
          "durationTicks": 96,
          "midi": 24,
          "name": "C1",
          "ticks": 49344,
          "time": 102.80000000000001,
          "velocity": 0.8661417322834646
        },
        {
          "duration": 0.20000000000000284,
          "durationTicks": 96,
          "midi": 29,
          "name": "F1",
          "ticks": 49536,
          "time": 103.2,
          "velocity": 0.8661417322834646
        },
        {
          "duration": 0.20000000000001705,
          "durationTicks": 96,
          "midi": 24,
          "name": "C1",
          "ticks": 49728,
          "time": 103.6,
          "velocity": 0.8661417322834646
        },
        {
          "duration": 0.20000000000000284,
          "durationTicks": 96,
          "midi": 31,
          "name": "G1",
          "ticks": 49920,
          "time": 104,
          "velocity": 0.8661417322834646
        },
        {
          "duration": 0.19999999999998863,
          "durationTicks": 96,
          "midi": 26,
          "name": "D1",
          "ticks": 50112,
          "time": 104.4,
          "velocity": 0.8661417322834646
        },
        {
          "duration": 0.19999999999998863,
          "durationTicks": 96,
          "midi": 31,
          "name": "G1",
          "ticks": 50304,
          "time": 104.80000000000001,
          "velocity": 0.8661417322834646
        },
        {
          "duration": 0.20000000000000284,
          "durationTicks": 96,
          "midi": 26,
          "name": "D1",
          "ticks": 50496,
          "time": 105.2,
          "velocity": 0.8661417322834646
        },
        {
          "duration": 0.20000000000001705,
          "durationTicks": 96,
          "midi": 32,
          "name": "G#1",
          "ticks": 50688,
          "time": 105.6,
          "velocity": 0.8661417322834646
        },
        {
          "duration": 0.20000000000000284,
          "durationTicks": 96,
          "midi": 27,
          "name": "D#1",
          "ticks": 50880,
          "time": 106,
          "velocity": 0.8661417322834646
        },
        {
          "duration": 0.19999999999998863,
          "durationTicks": 96,
          "midi": 32,
          "name": "G#1",
          "ticks": 51072,
          "time": 106.4,
          "velocity": 0.8661417322834646
        },
        {
          "duration": 0.19999999999998863,
          "durationTicks": 96,
          "midi": 27,
          "name": "D#1",
          "ticks": 51264,
          "time": 106.80000000000001,
          "velocity": 0.8661417322834646
        },
        {
          "duration": 0.20000000000000284,
          "durationTicks": 96,
          "midi": 27,
          "name": "D#1",
          "ticks": 51456,
          "time": 107.2,
          "velocity": 0.8661417322834646
        },
        {
          "duration": 0.20000000000001705,
          "durationTicks": 96,
          "midi": 22,
          "name": "A#0",
          "ticks": 51648,
          "time": 107.6,
          "velocity": 0.8661417322834646
        },
        {
          "duration": 0.20000000000000284,
          "durationTicks": 96,
          "midi": 25,
          "name": "C#1",
          "ticks": 51840,
          "time": 108,
          "velocity": 0.8661417322834646
        },
        {
          "duration": 0.19999999999998863,
          "durationTicks": 96,
          "midi": 31,
          "name": "G1",
          "ticks": 52032,
          "time": 108.4,
          "velocity": 0.8661417322834646
        },
        {
          "duration": 0.20000000000001705,
          "durationTicks": 96,
          "midi": 29,
          "name": "F1",
          "ticks": 70656,
          "time": 147.2,
          "velocity": 0.8661417322834646
        },
        {
          "duration": 0.20000000000001705,
          "durationTicks": 96,
          "midi": 24,
          "name": "C1",
          "ticks": 70848,
          "time": 147.6,
          "velocity": 0.8661417322834646
        },
        {
          "duration": 0.19999999999998863,
          "durationTicks": 96,
          "midi": 29,
          "name": "F1",
          "ticks": 71040,
          "time": 148,
          "velocity": 0.8661417322834646
        },
        {
          "duration": 0.19999999999998863,
          "durationTicks": 96,
          "midi": 24,
          "name": "C1",
          "ticks": 71232,
          "time": 148.4,
          "velocity": 0.8661417322834646
        },
        {
          "duration": 0.19999999999998863,
          "durationTicks": 96,
          "midi": 31,
          "name": "G1",
          "ticks": 71424,
          "time": 148.8,
          "velocity": 0.8661417322834646
        },
        {
          "duration": 0.20000000000001705,
          "durationTicks": 96,
          "midi": 26,
          "name": "D1",
          "ticks": 71616,
          "time": 149.2,
          "velocity": 0.8661417322834646
        },
        {
          "duration": 0.20000000000001705,
          "durationTicks": 96,
          "midi": 31,
          "name": "G1",
          "ticks": 71808,
          "time": 149.6,
          "velocity": 0.8661417322834646
        },
        {
          "duration": 0.19999999999998863,
          "durationTicks": 96,
          "midi": 26,
          "name": "D1",
          "ticks": 72000,
          "time": 150,
          "velocity": 0.8661417322834646
        },
        {
          "duration": 0.19999999999998863,
          "durationTicks": 96,
          "midi": 32,
          "name": "G#1",
          "ticks": 72192,
          "time": 150.4,
          "velocity": 0.8661417322834646
        },
        {
          "duration": 0.19999999999998863,
          "durationTicks": 96,
          "midi": 27,
          "name": "D#1",
          "ticks": 72384,
          "time": 150.8,
          "velocity": 0.8661417322834646
        },
        {
          "duration": 0.20000000000001705,
          "durationTicks": 96,
          "midi": 32,
          "name": "G#1",
          "ticks": 72576,
          "time": 151.2,
          "velocity": 0.8661417322834646
        },
        {
          "duration": 0.20000000000001705,
          "durationTicks": 96,
          "midi": 27,
          "name": "D#1",
          "ticks": 72768,
          "time": 151.6,
          "velocity": 0.8661417322834646
        },
        {
          "duration": 0.19999999999998863,
          "durationTicks": 96,
          "midi": 27,
          "name": "D#1",
          "ticks": 72960,
          "time": 152,
          "velocity": 0.8661417322834646
        },
        {
          "duration": 0.19999999999998863,
          "durationTicks": 96,
          "midi": 22,
          "name": "A#0",
          "ticks": 73152,
          "time": 152.4,
          "velocity": 0.8661417322834646
        },
        {
          "duration": 0.19999999999998863,
          "durationTicks": 96,
          "midi": 25,
          "name": "C#1",
          "ticks": 73344,
          "time": 152.8,
          "velocity": 0.8661417322834646
        },
        {
          "duration": 0.20000000000001705,
          "durationTicks": 96,
          "midi": 31,
          "name": "G1",
          "ticks": 73536,
          "time": 153.2,
          "velocity": 0.8661417322834646
        },
        {
          "duration": 0.19999999999998863,
          "durationTicks": 96,
          "midi": 29,
          "name": "F1",
          "ticks": 73728,
          "time": 153.60000000000002,
          "velocity": 0.8661417322834646
        },
        {
          "duration": 0.19999999999998863,
          "durationTicks": 96,
          "midi": 24,
          "name": "C1",
          "ticks": 73920,
          "time": 154,
          "velocity": 0.8661417322834646
        },
        {
          "duration": 0.20000000000001705,
          "durationTicks": 96,
          "midi": 29,
          "name": "F1",
          "ticks": 74112,
          "time": 154.4,
          "velocity": 0.8661417322834646
        },
        {
          "duration": 0.19999999999998863,
          "durationTicks": 96,
          "midi": 24,
          "name": "C1",
          "ticks": 74304,
          "time": 154.8,
          "velocity": 0.8661417322834646
        },
        {
          "duration": 0.20000000000001705,
          "durationTicks": 96,
          "midi": 31,
          "name": "G1",
          "ticks": 74496,
          "time": 155.2,
          "velocity": 0.8661417322834646
        },
        {
          "duration": 0.19999999999998863,
          "durationTicks": 96,
          "midi": 26,
          "name": "D1",
          "ticks": 74688,
          "time": 155.60000000000002,
          "velocity": 0.8661417322834646
        },
        {
          "duration": 0.19999999999998863,
          "durationTicks": 96,
          "midi": 31,
          "name": "G1",
          "ticks": 74880,
          "time": 156,
          "velocity": 0.8661417322834646
        },
        {
          "duration": 0.20000000000001705,
          "durationTicks": 96,
          "midi": 26,
          "name": "D1",
          "ticks": 75072,
          "time": 156.4,
          "velocity": 0.8661417322834646
        },
        {
          "duration": 0.19999999999998863,
          "durationTicks": 96,
          "midi": 32,
          "name": "G#1",
          "ticks": 75264,
          "time": 156.8,
          "velocity": 0.8661417322834646
        },
        {
          "duration": 0.20000000000001705,
          "durationTicks": 96,
          "midi": 27,
          "name": "D#1",
          "ticks": 75456,
          "time": 157.2,
          "velocity": 0.8661417322834646
        },
        {
          "duration": 0.19999999999998863,
          "durationTicks": 96,
          "midi": 32,
          "name": "G#1",
          "ticks": 75648,
          "time": 157.60000000000002,
          "velocity": 0.8661417322834646
        },
        {
          "duration": 0.19999999999998863,
          "durationTicks": 96,
          "midi": 27,
          "name": "D#1",
          "ticks": 75840,
          "time": 158,
          "velocity": 0.8661417322834646
        },
        {
          "duration": 0.20000000000001705,
          "durationTicks": 96,
          "midi": 29,
          "name": "F1",
          "ticks": 76032,
          "time": 158.4,
          "velocity": 0.8661417322834646
        },
        {
          "duration": 0.19999999999998863,
          "durationTicks": 96,
          "midi": 24,
          "name": "C1",
          "ticks": 76224,
          "time": 158.8,
          "velocity": 0.8661417322834646
        },
        {
          "duration": 0.09583333333335986,
          "durationTicks": 46,
          "midi": 31,
          "name": "G1",
          "ticks": 76416,
          "time": 159.2,
          "velocity": 0.8661417322834646
        },
        {
          "duration": 0.09583333333333144,
          "durationTicks": 46,
          "midi": 29,
          "name": "F1",
          "ticks": 76512,
          "time": 159.4,
          "velocity": 0.8661417322834646
        },
        {
          "duration": 0.09583333333330302,
          "durationTicks": 46,
          "midi": 27,
          "name": "D#1",
          "ticks": 76608,
          "time": 159.60000000000002,
          "velocity": 0.8661417322834646
        },
        {
          "duration": 0.09583333333333144,
          "durationTicks": 46,
          "midi": 26,
          "name": "D1",
          "ticks": 76704,
          "time": 159.8,
          "velocity": 0.8661417322834646
        },
        {
          "duration": 0.19999999999998863,
          "durationTicks": 96,
          "midi": 29,
          "name": "F1",
          "ticks": 76800,
          "time": 160,
          "velocity": 0.8661417322834646
        },
        {
          "duration": 0.20000000000001705,
          "durationTicks": 96,
          "midi": 24,
          "name": "C1",
          "ticks": 76992,
          "time": 160.4,
          "velocity": 0.8661417322834646
        },
        {
          "duration": 0.19999999999998863,
          "durationTicks": 96,
          "midi": 29,
          "name": "F1",
          "ticks": 77184,
          "time": 160.8,
          "velocity": 0.8661417322834646
        },
        {
          "duration": 0.20000000000001705,
          "durationTicks": 96,
          "midi": 24,
          "name": "C1",
          "ticks": 77376,
          "time": 161.2,
          "velocity": 0.8661417322834646
        },
        {
          "duration": 0.19999999999998863,
          "durationTicks": 96,
          "midi": 31,
          "name": "G1",
          "ticks": 77568,
          "time": 161.60000000000002,
          "velocity": 0.8661417322834646
        },
        {
          "duration": 0.19999999999998863,
          "durationTicks": 96,
          "midi": 26,
          "name": "D1",
          "ticks": 77760,
          "time": 162,
          "velocity": 0.8661417322834646
        },
        {
          "duration": 0.20000000000001705,
          "durationTicks": 96,
          "midi": 31,
          "name": "G1",
          "ticks": 77952,
          "time": 162.4,
          "velocity": 0.8661417322834646
        },
        {
          "duration": 0.19999999999998863,
          "durationTicks": 96,
          "midi": 26,
          "name": "D1",
          "ticks": 78144,
          "time": 162.8,
          "velocity": 0.8661417322834646
        },
        {
          "duration": 0.20000000000001705,
          "durationTicks": 96,
          "midi": 32,
          "name": "G#1",
          "ticks": 78336,
          "time": 163.2,
          "velocity": 0.8661417322834646
        },
        {
          "duration": 0.19999999999998863,
          "durationTicks": 96,
          "midi": 27,
          "name": "D#1",
          "ticks": 78528,
          "time": 163.60000000000002,
          "velocity": 0.8661417322834646
        },
        {
          "duration": 0.19999999999998863,
          "durationTicks": 96,
          "midi": 32,
          "name": "G#1",
          "ticks": 78720,
          "time": 164,
          "velocity": 0.8661417322834646
        },
        {
          "duration": 0.20000000000001705,
          "durationTicks": 96,
          "midi": 27,
          "name": "D#1",
          "ticks": 78912,
          "time": 164.4,
          "velocity": 0.8661417322834646
        },
        {
          "duration": 0.19999999999998863,
          "durationTicks": 96,
          "midi": 27,
          "name": "D#1",
          "ticks": 79104,
          "time": 164.8,
          "velocity": 0.8661417322834646
        },
        {
          "duration": 0.20000000000001705,
          "durationTicks": 96,
          "midi": 22,
          "name": "A#0",
          "ticks": 79296,
          "time": 165.2,
          "velocity": 0.8661417322834646
        },
        {
          "duration": 0.19999999999998863,
          "durationTicks": 96,
          "midi": 25,
          "name": "C#1",
          "ticks": 79488,
          "time": 165.60000000000002,
          "velocity": 0.8661417322834646
        },
        {
          "duration": 0.19999999999998863,
          "durationTicks": 96,
          "midi": 31,
          "name": "G1",
          "ticks": 79680,
          "time": 166,
          "velocity": 0.8661417322834646
        }
      ],
      "endOfTrackTicks": 79776
    },
    {
      "channel": 9,
      "controlChanges": {
        "7": [
          {
            "number": 7,
            "ticks": 0,
            "time": 0,
            "value": 1
          }
        ],
        "10": [
          {
            "number": 10,
            "ticks": 0,
            "time": 0,
            "value": 0.5039370078740157
          }
        ]
      },
      "pitchBends": [],
      "instrument": {
        "family": "drums",
        "number": 16,
        "name": "power kit"
      },
      "name": "Staff-3",
      "notes": [
        {
          "duration": 0.19583333333333336,
          "durationTicks": 94,
          "midi": 42,
          "name": "F#2",
          "ticks": 96,
          "time": 0.2,
          "velocity": 0.8661417322834646
        },
        {
          "duration": 0.1958333333333333,
          "durationTicks": 94,
          "midi": 46,
          "name": "A#2",
          "ticks": 288,
          "time": 0.6000000000000001,
          "velocity": 0.8661417322834646
        },
        {
          "duration": 0.19583333333333341,
          "durationTicks": 94,
          "midi": 44,
          "name": "G#2",
          "ticks": 384,
          "time": 0.8,
          "velocity": 0.8661417322834646
        },
        {
          "duration": 0.19583333333333353,
          "durationTicks": 94,
          "midi": 46,
          "name": "A#2",
          "ticks": 480,
          "time": 1,
          "velocity": 0.8661417322834646
        },
        {
          "duration": 0.09583333333333321,
          "durationTicks": 46,
          "midi": 44,
          "name": "G#2",
          "ticks": 576,
          "time": 1.2000000000000002,
          "velocity": 0.8661417322834646
        },
        {
          "duration": 0.09583333333333344,
          "durationTicks": 46,
          "midi": 42,
          "name": "F#2",
          "ticks": 624,
          "time": 1.3,
          "velocity": 0.8661417322834646
        },
        {
          "duration": 0.09583333333333344,
          "durationTicks": 46,
          "midi": 42,
          "name": "F#2",
          "ticks": 672,
          "time": 1.4000000000000001,
          "velocity": 0.8661417322834646
        },
        {
          "duration": 0.1958333333333333,
          "durationTicks": 94,
          "midi": 42,
          "name": "F#2",
          "ticks": 864,
          "time": 1.8,
          "velocity": 0.8661417322834646
        },
        {
          "duration": 0.1958333333333333,
          "durationTicks": 94,
          "midi": 46,
          "name": "A#2",
          "ticks": 1056,
          "time": 2.2,
          "velocity": 0.8661417322834646
        },
        {
          "duration": 0.19583333333333286,
          "durationTicks": 94,
          "midi": 44,
          "name": "G#2",
          "ticks": 1152,
          "time": 2.4000000000000004,
          "velocity": 0.8661417322834646
        },
        {
          "duration": 0.1958333333333333,
          "durationTicks": 94,
          "midi": 46,
          "name": "A#2",
          "ticks": 1248,
          "time": 2.6,
          "velocity": 0.8661417322834646
        },
        {
          "duration": 0.09583333333333321,
          "durationTicks": 46,
          "midi": 44,
          "name": "G#2",
          "ticks": 1344,
          "time": 2.8000000000000003,
          "velocity": 0.8661417322834646
        },
        {
          "duration": 0.09583333333333321,
          "durationTicks": 46,
          "midi": 42,
          "name": "F#2",
          "ticks": 1392,
          "time": 2.9000000000000004,
          "velocity": 0.8661417322834646
        },
        {
          "duration": 0.09583333333333321,
          "durationTicks": 46,
          "midi": 42,
          "name": "F#2",
          "ticks": 1440,
          "time": 3,
          "velocity": 0.8661417322834646
        },
        {
          "duration": 0.1958333333333333,
          "durationTicks": 94,
          "midi": 42,
          "name": "F#2",
          "ticks": 1632,
          "time": 3.4000000000000004,
          "velocity": 0.8661417322834646
        },
        {
          "duration": 0.1958333333333333,
          "durationTicks": 94,
          "midi": 46,
          "name": "A#2",
          "ticks": 1824,
          "time": 3.8000000000000003,
          "velocity": 0.8661417322834646
        },
        {
          "duration": 0.19583333333333375,
          "durationTicks": 94,
          "midi": 44,
          "name": "G#2",
          "ticks": 1920,
          "time": 4,
          "velocity": 0.8661417322834646
        },
        {
          "duration": 0.19583333333333375,
          "durationTicks": 94,
          "midi": 46,
          "name": "A#2",
          "ticks": 2016,
          "time": 4.2,
          "velocity": 0.8661417322834646
        },
        {
          "duration": 0.09583333333333321,
          "durationTicks": 46,
          "midi": 44,
          "name": "G#2",
          "ticks": 2112,
          "time": 4.4,
          "velocity": 0.8661417322834646
        },
        {
          "duration": 0.0958333333333341,
          "durationTicks": 46,
          "midi": 42,
          "name": "F#2",
          "ticks": 2160,
          "time": 4.5,
          "velocity": 0.8661417322834646
        },
        {
          "duration": 0.09583333333333321,
          "durationTicks": 46,
          "midi": 42,
          "name": "F#2",
          "ticks": 2208,
          "time": 4.6000000000000005,
          "velocity": 0.8661417322834646
        },
        {
          "duration": 0.19583333333333375,
          "durationTicks": 94,
          "midi": 42,
          "name": "F#2",
          "ticks": 2400,
          "time": 5,
          "velocity": 0.8661417322834646
        },
        {
          "duration": 0.19583333333333375,
          "durationTicks": 94,
          "midi": 46,
          "name": "A#2",
          "ticks": 2592,
          "time": 5.4,
          "velocity": 0.8661417322834646
        },
        {
          "duration": 0.19583333333333375,
          "durationTicks": 94,
          "midi": 44,
          "name": "G#2",
          "ticks": 2688,
          "time": 5.6000000000000005,
          "velocity": 0.8661417322834646
        },
        {
          "duration": 0.19583333333333286,
          "durationTicks": 94,
          "midi": 46,
          "name": "A#2",
          "ticks": 2784,
          "time": 5.800000000000001,
          "velocity": 0.8661417322834646
        },
        {
          "duration": 0.0958333333333341,
          "durationTicks": 46,
          "midi": 44,
          "name": "G#2",
          "ticks": 2880,
          "time": 6,
          "velocity": 0.8661417322834646
        },
        {
          "duration": 0.09583333333333321,
          "durationTicks": 46,
          "midi": 42,
          "name": "F#2",
          "ticks": 2928,
          "time": 6.1000000000000005,
          "velocity": 0.8661417322834646
        },
        {
          "duration": 0.0958333333333341,
          "durationTicks": 46,
          "midi": 42,
          "name": "F#2",
          "ticks": 2976,
          "time": 6.2,
          "velocity": 0.8661417322834646
        },
        {
          "duration": 0.19583333333333286,
          "durationTicks": 94,
          "midi": 42,
          "name": "F#2",
          "ticks": 3168,
          "time": 6.6000000000000005,
          "velocity": 0.8661417322834646
        },
        {
          "duration": 0.19583333333333286,
          "durationTicks": 94,
          "midi": 46,
          "name": "A#2",
          "ticks": 3360,
          "time": 7,
          "velocity": 0.8661417322834646
        },
        {
          "duration": 0.19583333333333286,
          "durationTicks": 94,
          "midi": 44,
          "name": "G#2",
          "ticks": 3456,
          "time": 7.2,
          "velocity": 0.8661417322834646
        },
        {
          "duration": 0.19583333333333286,
          "durationTicks": 94,
          "midi": 46,
          "name": "A#2",
          "ticks": 3552,
          "time": 7.4,
          "velocity": 0.8661417322834646
        },
        {
          "duration": 0.09583333333333233,
          "durationTicks": 46,
          "midi": 44,
          "name": "G#2",
          "ticks": 3648,
          "time": 7.6000000000000005,
          "velocity": 0.8661417322834646
        },
        {
          "duration": 0.09583333333333321,
          "durationTicks": 46,
          "midi": 42,
          "name": "F#2",
          "ticks": 3696,
          "time": 7.7,
          "velocity": 0.8661417322834646
        },
        {
          "duration": 0.09583333333333233,
          "durationTicks": 46,
          "midi": 42,
          "name": "F#2",
          "ticks": 3744,
          "time": 7.800000000000001,
          "velocity": 0.8661417322834646
        },
        {
          "duration": 0.19583333333333286,
          "durationTicks": 94,
          "midi": 42,
          "name": "F#2",
          "ticks": 3936,
          "time": 8.200000000000001,
          "velocity": 0.8661417322834646
        },
        {
          "duration": 0.19583333333333286,
          "durationTicks": 94,
          "midi": 46,
          "name": "A#2",
          "ticks": 4128,
          "time": 8.6,
          "velocity": 0.8661417322834646
        },
        {
          "duration": 0.19583333333333286,
          "durationTicks": 94,
          "midi": 44,
          "name": "G#2",
          "ticks": 4224,
          "time": 8.8,
          "velocity": 0.8661417322834646
        },
        {
          "duration": 0.19583333333333286,
          "durationTicks": 94,
          "midi": 46,
          "name": "A#2",
          "ticks": 4320,
          "time": 9,
          "velocity": 0.8661417322834646
        },
        {
          "duration": 0.09583333333333144,
          "durationTicks": 46,
          "midi": 44,
          "name": "G#2",
          "ticks": 4416,
          "time": 9.200000000000001,
          "velocity": 0.8661417322834646
        },
        {
          "duration": 0.09583333333333321,
          "durationTicks": 46,
          "midi": 42,
          "name": "F#2",
          "ticks": 4464,
          "time": 9.3,
          "velocity": 0.8661417322834646
        },
        {
          "duration": 0.09583333333333321,
          "durationTicks": 46,
          "midi": 42,
          "name": "F#2",
          "ticks": 4512,
          "time": 9.4,
          "velocity": 0.8661417322834646
        },
        {
          "duration": 0.19583333333333286,
          "durationTicks": 94,
          "midi": 42,
          "name": "F#2",
          "ticks": 4704,
          "time": 9.8,
          "velocity": 0.8661417322834646
        },
        {
          "duration": 0.19583333333333286,
          "durationTicks": 94,
          "midi": 46,
          "name": "A#2",
          "ticks": 4896,
          "time": 10.200000000000001,
          "velocity": 0.8661417322834646
        },
        {
          "duration": 0.19583333333333286,
          "durationTicks": 94,
          "midi": 44,
          "name": "G#2",
          "ticks": 4992,
          "time": 10.4,
          "velocity": 0.8661417322834646
        },
        {
          "duration": 0.19583333333333286,
          "durationTicks": 94,
          "midi": 46,
          "name": "A#2",
          "ticks": 5088,
          "time": 10.600000000000001,
          "velocity": 0.8661417322834646
        },
        {
          "duration": 0.09583333333333321,
          "durationTicks": 46,
          "midi": 44,
          "name": "G#2",
          "ticks": 5184,
          "time": 10.8,
          "velocity": 0.8661417322834646
        },
        {
          "duration": 0.09583333333333321,
          "durationTicks": 46,
          "midi": 42,
          "name": "F#2",
          "ticks": 5232,
          "time": 10.9,
          "velocity": 0.8661417322834646
        },
        {
          "duration": 0.09583333333333321,
          "durationTicks": 46,
          "midi": 42,
          "name": "F#2",
          "ticks": 5280,
          "time": 11,
          "velocity": 0.8661417322834646
        },
        {
          "duration": 0.19583333333333286,
          "durationTicks": 94,
          "midi": 42,
          "name": "F#2",
          "ticks": 5472,
          "time": 11.4,
          "velocity": 0.8661417322834646
        },
        {
          "duration": 0.19583333333333286,
          "durationTicks": 94,
          "midi": 46,
          "name": "A#2",
          "ticks": 5664,
          "time": 11.8,
          "velocity": 0.8661417322834646
        },
        {
          "duration": 0.19583333333333286,
          "durationTicks": 94,
          "midi": 44,
          "name": "G#2",
          "ticks": 5760,
          "time": 12,
          "velocity": 0.8661417322834646
        },
        {
          "duration": 0.19583333333333286,
          "durationTicks": 94,
          "midi": 46,
          "name": "A#2",
          "ticks": 5856,
          "time": 12.200000000000001,
          "velocity": 0.8661417322834646
        },
        {
          "duration": 0.09583333333333321,
          "durationTicks": 46,
          "midi": 44,
          "name": "G#2",
          "ticks": 5952,
          "time": 12.4,
          "velocity": 0.8661417322834646
        },
        {
          "duration": 0.09583333333333321,
          "durationTicks": 46,
          "midi": 42,
          "name": "F#2",
          "ticks": 6000,
          "time": 12.5,
          "velocity": 0.8661417322834646
        },
        {
          "duration": 0.09583333333333144,
          "durationTicks": 46,
          "midi": 42,
          "name": "F#2",
          "ticks": 6048,
          "time": 12.600000000000001,
          "velocity": 0.8661417322834646
        },
        {
          "duration": 0.19583333333333464,
          "durationTicks": 94,
          "midi": 42,
          "name": "F#2",
          "ticks": 6240,
          "time": 13,
          "velocity": 0.8661417322834646
        },
        {
          "duration": 0.19583333333333464,
          "durationTicks": 94,
          "midi": 46,
          "name": "A#2",
          "ticks": 6432,
          "time": 13.4,
          "velocity": 0.8661417322834646
        },
        {
          "duration": 0.19583333333333286,
          "durationTicks": 94,
          "midi": 44,
          "name": "G#2",
          "ticks": 6528,
          "time": 13.600000000000001,
          "velocity": 0.8661417322834646
        },
        {
          "duration": 0.19583333333333464,
          "durationTicks": 94,
          "midi": 46,
          "name": "A#2",
          "ticks": 6624,
          "time": 13.8,
          "velocity": 0.8661417322834646
        },
        {
          "duration": 0.09583333333333499,
          "durationTicks": 46,
          "midi": 44,
          "name": "G#2",
          "ticks": 6720,
          "time": 14,
          "velocity": 0.8661417322834646
        },
        {
          "duration": 0.09583333333333321,
          "durationTicks": 46,
          "midi": 42,
          "name": "F#2",
          "ticks": 6768,
          "time": 14.100000000000001,
          "velocity": 0.8661417322834646
        },
        {
          "duration": 0.09583333333333321,
          "durationTicks": 46,
          "midi": 42,
          "name": "F#2",
          "ticks": 6816,
          "time": 14.200000000000001,
          "velocity": 0.8661417322834646
        },
        {
          "duration": 0.19583333333333286,
          "durationTicks": 94,
          "midi": 42,
          "name": "F#2",
          "ticks": 7008,
          "time": 14.600000000000001,
          "velocity": 0.8661417322834646
        },
        {
          "duration": 0.19583333333333464,
          "durationTicks": 94,
          "midi": 46,
          "name": "A#2",
          "ticks": 7200,
          "time": 15,
          "velocity": 0.8661417322834646
        },
        {
          "duration": 0.19583333333333464,
          "durationTicks": 94,
          "midi": 44,
          "name": "G#2",
          "ticks": 7296,
          "time": 15.200000000000001,
          "velocity": 0.8661417322834646
        },
        {
          "duration": 0.19583333333333464,
          "durationTicks": 94,
          "midi": 46,
          "name": "A#2",
          "ticks": 7392,
          "time": 15.4,
          "velocity": 0.8661417322834646
        },
        {
          "duration": 0.09583333333333321,
          "durationTicks": 46,
          "midi": 44,
          "name": "G#2",
          "ticks": 7488,
          "time": 15.600000000000001,
          "velocity": 0.8661417322834646
        },
        {
          "duration": 0.09583333333333321,
          "durationTicks": 46,
          "midi": 42,
          "name": "F#2",
          "ticks": 7536,
          "time": 15.700000000000001,
          "velocity": 0.8661417322834646
        },
        {
          "duration": 0.09583333333333499,
          "durationTicks": 46,
          "midi": 42,
          "name": "F#2",
          "ticks": 7584,
          "time": 15.8,
          "velocity": 0.8661417322834646
        },
        {
          "duration": 0.1958333333333364,
          "durationTicks": 94,
          "midi": 42,
          "name": "F#2",
          "ticks": 7776,
          "time": 16.2,
          "velocity": 0.8661417322834646
        },
        {
          "duration": 0.19583333333333286,
          "durationTicks": 94,
          "midi": 46,
          "name": "A#2",
          "ticks": 7968,
          "time": 16.6,
          "velocity": 0.8661417322834646
        },
        {
          "duration": 0.19583333333333286,
          "durationTicks": 94,
          "midi": 44,
          "name": "G#2",
          "ticks": 8064,
          "time": 16.8,
          "velocity": 0.8661417322834646
        },
        {
          "duration": 0.1958333333333364,
          "durationTicks": 94,
          "midi": 46,
          "name": "A#2",
          "ticks": 8160,
          "time": 17,
          "velocity": 0.8661417322834646
        },
        {
          "duration": 0.09583333333333499,
          "durationTicks": 46,
          "midi": 44,
          "name": "G#2",
          "ticks": 8256,
          "time": 17.2,
          "velocity": 0.8661417322834646
        },
        {
          "duration": 0.09583333333333499,
          "durationTicks": 46,
          "midi": 42,
          "name": "F#2",
          "ticks": 8304,
          "time": 17.3,
          "velocity": 0.8661417322834646
        },
        {
          "duration": 0.09583333333333144,
          "durationTicks": 46,
          "midi": 42,
          "name": "F#2",
          "ticks": 8352,
          "time": 17.400000000000002,
          "velocity": 0.8661417322834646
        },
        {
          "duration": 0.19583333333333286,
          "durationTicks": 94,
          "midi": 42,
          "name": "F#2",
          "ticks": 8544,
          "time": 17.8,
          "velocity": 0.8661417322834646
        },
        {
          "duration": 0.1958333333333364,
          "durationTicks": 94,
          "midi": 46,
          "name": "A#2",
          "ticks": 8736,
          "time": 18.2,
          "velocity": 0.8661417322834646
        },
        {
          "duration": 0.19583333333333286,
          "durationTicks": 94,
          "midi": 44,
          "name": "G#2",
          "ticks": 8832,
          "time": 18.400000000000002,
          "velocity": 0.8661417322834646
        },
        {
          "duration": 0.19583333333333286,
          "durationTicks": 94,
          "midi": 46,
          "name": "A#2",
          "ticks": 8928,
          "time": 18.6,
          "velocity": 0.8661417322834646
        },
        {
          "duration": 0.09583333333333499,
          "durationTicks": 46,
          "midi": 44,
          "name": "G#2",
          "ticks": 9024,
          "time": 18.8,
          "velocity": 0.8661417322834646
        },
        {
          "duration": 0.09583333333333144,
          "durationTicks": 46,
          "midi": 42,
          "name": "F#2",
          "ticks": 9072,
          "time": 18.900000000000002,
          "velocity": 0.8661417322834646
        },
        {
          "duration": 0.09583333333333499,
          "durationTicks": 46,
          "midi": 42,
          "name": "F#2",
          "ticks": 9120,
          "time": 19,
          "velocity": 0.8661417322834646
        },
        {
          "duration": 0.19583333333333286,
          "durationTicks": 94,
          "midi": 42,
          "name": "F#2",
          "ticks": 9312,
          "time": 19.400000000000002,
          "velocity": 0.8661417322834646
        },
        {
          "duration": 0.1958333333333364,
          "durationTicks": 94,
          "midi": 46,
          "name": "A#2",
          "ticks": 9504,
          "time": 19.8,
          "velocity": 0.8661417322834646
        },
        {
          "duration": 0.1958333333333364,
          "durationTicks": 94,
          "midi": 44,
          "name": "G#2",
          "ticks": 9600,
          "time": 20,
          "velocity": 0.8661417322834646
        },
        {
          "duration": 0.19583333333333286,
          "durationTicks": 94,
          "midi": 46,
          "name": "A#2",
          "ticks": 9696,
          "time": 20.200000000000003,
          "velocity": 0.8661417322834646
        },
        {
          "duration": 0.09583333333333499,
          "durationTicks": 46,
          "midi": 44,
          "name": "G#2",
          "ticks": 9792,
          "time": 20.400000000000002,
          "velocity": 0.8661417322834646
        },
        {
          "duration": 0.09583333333333499,
          "durationTicks": 46,
          "midi": 42,
          "name": "F#2",
          "ticks": 9840,
          "time": 20.5,
          "velocity": 0.8661417322834646
        },
        {
          "duration": 0.09583333333333499,
          "durationTicks": 46,
          "midi": 42,
          "name": "F#2",
          "ticks": 9888,
          "time": 20.6,
          "velocity": 0.8661417322834646
        },
        {
          "duration": 0.1958333333333364,
          "durationTicks": 94,
          "midi": 42,
          "name": "F#2",
          "ticks": 10080,
          "time": 21,
          "velocity": 0.8661417322834646
        },
        {
          "duration": 0.19583333333333286,
          "durationTicks": 94,
          "midi": 46,
          "name": "A#2",
          "ticks": 10272,
          "time": 21.400000000000002,
          "velocity": 0.8661417322834646
        },
        {
          "duration": 0.19583333333333286,
          "durationTicks": 94,
          "midi": 44,
          "name": "G#2",
          "ticks": 10368,
          "time": 21.6,
          "velocity": 0.8661417322834646
        },
        {
          "duration": 0.1958333333333364,
          "durationTicks": 94,
          "midi": 46,
          "name": "A#2",
          "ticks": 10464,
          "time": 21.8,
          "velocity": 0.8661417322834646
        },
        {
          "duration": 0.09583333333333499,
          "durationTicks": 46,
          "midi": 44,
          "name": "G#2",
          "ticks": 10560,
          "time": 22,
          "velocity": 0.8661417322834646
        },
        {
          "duration": 0.09583333333333499,
          "durationTicks": 46,
          "midi": 42,
          "name": "F#2",
          "ticks": 10608,
          "time": 22.1,
          "velocity": 0.8661417322834646
        },
        {
          "duration": 0.09583333333333144,
          "durationTicks": 46,
          "midi": 42,
          "name": "F#2",
          "ticks": 10656,
          "time": 22.200000000000003,
          "velocity": 0.8661417322834646
        },
        {
          "duration": 0.19583333333333286,
          "durationTicks": 94,
          "midi": 42,
          "name": "F#2",
          "ticks": 10848,
          "time": 22.6,
          "velocity": 0.8661417322834646
        },
        {
          "duration": 0.1958333333333364,
          "durationTicks": 94,
          "midi": 46,
          "name": "A#2",
          "ticks": 11040,
          "time": 23,
          "velocity": 0.8661417322834646
        },
        {
          "duration": 0.19583333333333286,
          "durationTicks": 94,
          "midi": 44,
          "name": "G#2",
          "ticks": 11136,
          "time": 23.200000000000003,
          "velocity": 0.8661417322834646
        },
        {
          "duration": 0.19583333333333286,
          "durationTicks": 94,
          "midi": 46,
          "name": "A#2",
          "ticks": 11232,
          "time": 23.400000000000002,
          "velocity": 0.8661417322834646
        },
        {
          "duration": 0.09583333333333499,
          "durationTicks": 46,
          "midi": 44,
          "name": "G#2",
          "ticks": 11328,
          "time": 23.6,
          "velocity": 0.8661417322834646
        },
        {
          "duration": 0.09583333333333144,
          "durationTicks": 46,
          "midi": 42,
          "name": "F#2",
          "ticks": 11376,
          "time": 23.700000000000003,
          "velocity": 0.8661417322834646
        },
        {
          "duration": 0.09583333333333499,
          "durationTicks": 46,
          "midi": 42,
          "name": "F#2",
          "ticks": 11424,
          "time": 23.8,
          "velocity": 0.8661417322834646
        },
        {
          "duration": 0.19583333333333286,
          "durationTicks": 94,
          "midi": 42,
          "name": "F#2",
          "ticks": 11616,
          "time": 24.200000000000003,
          "velocity": 0.8661417322834646
        },
        {
          "duration": 0.19583333333333286,
          "durationTicks": 94,
          "midi": 46,
          "name": "A#2",
          "ticks": 11808,
          "time": 24.6,
          "velocity": 0.8661417322834646
        },
        {
          "duration": 0.1958333333333364,
          "durationTicks": 94,
          "midi": 44,
          "name": "G#2",
          "ticks": 11904,
          "time": 24.8,
          "velocity": 0.8661417322834646
        },
        {
          "duration": 0.1958333333333364,
          "durationTicks": 94,
          "midi": 46,
          "name": "A#2",
          "ticks": 12000,
          "time": 25,
          "velocity": 0.8661417322834646
        },
        {
          "duration": 0.09583333333333144,
          "durationTicks": 46,
          "midi": 44,
          "name": "G#2",
          "ticks": 12096,
          "time": 25.200000000000003,
          "velocity": 0.8661417322834646
        },
        {
          "duration": 0.09583333333333499,
          "durationTicks": 46,
          "midi": 42,
          "name": "F#2",
          "ticks": 12144,
          "time": 25.3,
          "velocity": 0.8661417322834646
        },
        {
          "duration": 0.09583333333333499,
          "durationTicks": 46,
          "midi": 42,
          "name": "F#2",
          "ticks": 12192,
          "time": 25.400000000000002,
          "velocity": 0.8661417322834646
        },
        {
          "duration": 0.19583333333333286,
          "durationTicks": 94,
          "midi": 42,
          "name": "F#2",
          "ticks": 12384,
          "time": 25.8,
          "velocity": 0.8661417322834646
        },
        {
          "duration": 0.1958333333333293,
          "durationTicks": 94,
          "midi": 46,
          "name": "A#2",
          "ticks": 12576,
          "time": 26.200000000000003,
          "velocity": 0.8661417322834646
        },
        {
          "duration": 0.1958333333333293,
          "durationTicks": 94,
          "midi": 44,
          "name": "G#2",
          "ticks": 12672,
          "time": 26.400000000000002,
          "velocity": 0.8661417322834646
        },
        {
          "duration": 0.19583333333333286,
          "durationTicks": 94,
          "midi": 46,
          "name": "A#2",
          "ticks": 12768,
          "time": 26.6,
          "velocity": 0.8661417322834646
        },
        {
          "duration": 0.09583333333333144,
          "durationTicks": 46,
          "midi": 44,
          "name": "G#2",
          "ticks": 12864,
          "time": 26.8,
          "velocity": 0.8661417322834646
        },
        {
          "duration": 0.09583333333333144,
          "durationTicks": 46,
          "midi": 42,
          "name": "F#2",
          "ticks": 12912,
          "time": 26.900000000000002,
          "velocity": 0.8661417322834646
        },
        {
          "duration": 0.09583333333333144,
          "durationTicks": 46,
          "midi": 42,
          "name": "F#2",
          "ticks": 12960,
          "time": 27,
          "velocity": 0.8661417322834646
        },
        {
          "duration": 0.1958333333333293,
          "durationTicks": 94,
          "midi": 42,
          "name": "F#2",
          "ticks": 13152,
          "time": 27.400000000000002,
          "velocity": 0.8661417322834646
        },
        {
          "duration": 0.19583333333333286,
          "durationTicks": 94,
          "midi": 46,
          "name": "A#2",
          "ticks": 13344,
          "time": 27.8,
          "velocity": 0.8661417322834646
        },
        {
          "duration": 0.19583333333333286,
          "durationTicks": 94,
          "midi": 44,
          "name": "G#2",
          "ticks": 13440,
          "time": 28,
          "velocity": 0.8661417322834646
        },
        {
          "duration": 0.1958333333333293,
          "durationTicks": 94,
          "midi": 46,
          "name": "A#2",
          "ticks": 13536,
          "time": 28.200000000000003,
          "velocity": 0.8661417322834646
        },
        {
          "duration": 0.09583333333333144,
          "durationTicks": 46,
          "midi": 44,
          "name": "G#2",
          "ticks": 13632,
          "time": 28.400000000000002,
          "velocity": 0.8661417322834646
        },
        {
          "duration": 0.09583333333333144,
          "durationTicks": 46,
          "midi": 42,
          "name": "F#2",
          "ticks": 13680,
          "time": 28.5,
          "velocity": 0.8661417322834646
        },
        {
          "duration": 0.09583333333333144,
          "durationTicks": 46,
          "midi": 42,
          "name": "F#2",
          "ticks": 13728,
          "time": 28.6,
          "velocity": 0.8661417322834646
        },
        {
          "duration": 0.19583333333333286,
          "durationTicks": 94,
          "midi": 42,
          "name": "F#2",
          "ticks": 13920,
          "time": 29,
          "velocity": 0.8661417322834646
        },
        {
          "duration": 0.1958333333333293,
          "durationTicks": 94,
          "midi": 46,
          "name": "A#2",
          "ticks": 14112,
          "time": 29.400000000000002,
          "velocity": 0.8661417322834646
        },
        {
          "duration": 0.19583333333333286,
          "durationTicks": 94,
          "midi": 44,
          "name": "G#2",
          "ticks": 14208,
          "time": 29.6,
          "velocity": 0.8661417322834646
        },
        {
          "duration": 0.19583333333333286,
          "durationTicks": 94,
          "midi": 46,
          "name": "A#2",
          "ticks": 14304,
          "time": 29.8,
          "velocity": 0.8661417322834646
        },
        {
          "duration": 0.09583333333333144,
          "durationTicks": 46,
          "midi": 44,
          "name": "G#2",
          "ticks": 14400,
          "time": 30,
          "velocity": 0.8661417322834646
        },
        {
          "duration": 0.09583333333333144,
          "durationTicks": 46,
          "midi": 42,
          "name": "F#2",
          "ticks": 14448,
          "time": 30.1,
          "velocity": 0.8661417322834646
        },
        {
          "duration": 0.09583333333333144,
          "durationTicks": 46,
          "midi": 42,
          "name": "F#2",
          "ticks": 14496,
          "time": 30.200000000000003,
          "velocity": 0.8661417322834646
        },
        {
          "duration": 0.19583333333333286,
          "durationTicks": 94,
          "midi": 42,
          "name": "F#2",
          "ticks": 14688,
          "time": 30.6,
          "velocity": 0.8661417322834646
        },
        {
          "duration": 0.19583333333333286,
          "durationTicks": 94,
          "midi": 46,
          "name": "A#2",
          "ticks": 14880,
          "time": 31,
          "velocity": 0.8661417322834646
        },
        {
          "duration": 0.09583333333333144,
          "durationTicks": 46,
          "midi": 42,
          "name": "F#2",
          "ticks": 14976,
          "time": 31.200000000000003,
          "velocity": 0.8661417322834646
        },
        {
          "duration": 0.09583333333333144,
          "durationTicks": 46,
          "midi": 42,
          "name": "F#2",
          "ticks": 15072,
          "time": 31.400000000000002,
          "velocity": 0.8661417322834646
        },
        {
          "duration": 0.09583333333333144,
          "durationTicks": 46,
          "midi": 42,
          "name": "F#2",
          "ticks": 15168,
          "time": 31.6,
          "velocity": 0.8661417322834646
        },
        {
          "duration": 0.09583333333333144,
          "durationTicks": 46,
          "midi": 42,
          "name": "F#2",
          "ticks": 15216,
          "time": 31.700000000000003,
          "velocity": 0.8661417322834646
        },
        {
          "duration": 0.09583333333333144,
          "durationTicks": 46,
          "midi": 46,
          "name": "A#2",
          "ticks": 15264,
          "time": 31.8,
          "velocity": 0.8661417322834646
        },
        {
          "duration": 0.19583333333333286,
          "durationTicks": 94,
          "midi": 42,
          "name": "F#2",
          "ticks": 15360,
          "time": 32,
          "velocity": 0.8661417322834646
        },
        {
          "duration": 0.19583333333333286,
          "durationTicks": 94,
          "midi": 49,
          "name": "C#3",
          "ticks": 15360,
          "time": 32,
          "velocity": 0.8661417322834646
        },
        {
          "duration": 0.19583333333333286,
          "durationTicks": 94,
          "midi": 46,
          "name": "A#2",
          "ticks": 15456,
          "time": 32.2,
          "velocity": 0.8661417322834646
        },
        {
          "duration": 0.19583333333333286,
          "durationTicks": 94,
          "midi": 42,
          "name": "F#2",
          "ticks": 15552,
          "time": 32.4,
          "velocity": 0.8661417322834646
        },
        {
          "duration": 0.19583333333333286,
          "durationTicks": 94,
          "midi": 46,
          "name": "A#2",
          "ticks": 15648,
          "time": 32.6,
          "velocity": 0.8661417322834646
        },
        {
          "duration": 0.19583333333332575,
          "durationTicks": 94,
          "midi": 42,
          "name": "F#2",
          "ticks": 15744,
          "time": 32.800000000000004,
          "velocity": 0.8661417322834646
        },
        {
          "duration": 0.19583333333333286,
          "durationTicks": 94,
          "midi": 46,
          "name": "A#2",
          "ticks": 15840,
          "time": 33,
          "velocity": 0.8661417322834646
        },
        {
          "duration": 0.19583333333333286,
          "durationTicks": 94,
          "midi": 42,
          "name": "F#2",
          "ticks": 15936,
          "time": 33.2,
          "velocity": 0.8661417322834646
        },
        {
          "duration": 0.19583333333333286,
          "durationTicks": 94,
          "midi": 46,
          "name": "A#2",
          "ticks": 16032,
          "time": 33.4,
          "velocity": 0.8661417322834646
        },
        {
          "duration": 0.19583333333333286,
          "durationTicks": 94,
          "midi": 42,
          "name": "F#2",
          "ticks": 16128,
          "time": 33.6,
          "velocity": 0.8661417322834646
        },
        {
          "duration": 0.19583333333332575,
          "durationTicks": 94,
          "midi": 46,
          "name": "A#2",
          "ticks": 16224,
          "time": 33.800000000000004,
          "velocity": 0.8661417322834646
        },
        {
          "duration": 0.19583333333333286,
          "durationTicks": 94,
          "midi": 42,
          "name": "F#2",
          "ticks": 16320,
          "time": 34,
          "velocity": 0.8661417322834646
        },
        {
          "duration": 0.19583333333333286,
          "durationTicks": 94,
          "midi": 46,
          "name": "A#2",
          "ticks": 16416,
          "time": 34.2,
          "velocity": 0.8661417322834646
        },
        {
          "duration": 0.19583333333333286,
          "durationTicks": 94,
          "midi": 42,
          "name": "F#2",
          "ticks": 16512,
          "time": 34.4,
          "velocity": 0.8661417322834646
        },
        {
          "duration": 0.19583333333333286,
          "durationTicks": 94,
          "midi": 46,
          "name": "A#2",
          "ticks": 16608,
          "time": 34.6,
          "velocity": 0.8661417322834646
        },
        {
          "duration": 0.19583333333332575,
          "durationTicks": 94,
          "midi": 42,
          "name": "F#2",
          "ticks": 16704,
          "time": 34.800000000000004,
          "velocity": 0.8661417322834646
        },
        {
          "duration": 0.19583333333333286,
          "durationTicks": 94,
          "midi": 46,
          "name": "A#2",
          "ticks": 16800,
          "time": 35,
          "velocity": 0.8661417322834646
        },
        {
          "duration": 0.19583333333333286,
          "durationTicks": 94,
          "midi": 42,
          "name": "F#2",
          "ticks": 16896,
          "time": 35.2,
          "velocity": 0.8661417322834646
        },
        {
          "duration": 0.19583333333333286,
          "durationTicks": 94,
          "midi": 46,
          "name": "A#2",
          "ticks": 16992,
          "time": 35.4,
          "velocity": 0.8661417322834646
        },
        {
          "duration": 0.19583333333333286,
          "durationTicks": 94,
          "midi": 42,
          "name": "F#2",
          "ticks": 17088,
          "time": 35.6,
          "velocity": 0.8661417322834646
        },
        {
          "duration": 0.19583333333332575,
          "durationTicks": 94,
          "midi": 46,
          "name": "A#2",
          "ticks": 17184,
          "time": 35.800000000000004,
          "velocity": 0.8661417322834646
        },
        {
          "duration": 0.19583333333333286,
          "durationTicks": 94,
          "midi": 42,
          "name": "F#2",
          "ticks": 17280,
          "time": 36,
          "velocity": 0.8661417322834646
        },
        {
          "duration": 0.19583333333333286,
          "durationTicks": 94,
          "midi": 46,
          "name": "A#2",
          "ticks": 17376,
          "time": 36.2,
          "velocity": 0.8661417322834646
        },
        {
          "duration": 0.19583333333333286,
          "durationTicks": 94,
          "midi": 42,
          "name": "F#2",
          "ticks": 17472,
          "time": 36.4,
          "velocity": 0.8661417322834646
        },
        {
          "duration": 0.19583333333333286,
          "durationTicks": 94,
          "midi": 46,
          "name": "A#2",
          "ticks": 17568,
          "time": 36.6,
          "velocity": 0.8661417322834646
        },
        {
          "duration": 0.19583333333332575,
          "durationTicks": 94,
          "midi": 42,
          "name": "F#2",
          "ticks": 17664,
          "time": 36.800000000000004,
          "velocity": 0.8661417322834646
        },
        {
          "duration": 0.19583333333333286,
          "durationTicks": 94,
          "midi": 46,
          "name": "A#2",
          "ticks": 17760,
          "time": 37,
          "velocity": 0.8661417322834646
        },
        {
          "duration": 0.19583333333333286,
          "durationTicks": 94,
          "midi": 42,
          "name": "F#2",
          "ticks": 17856,
          "time": 37.2,
          "velocity": 0.8661417322834646
        },
        {
          "duration": 0.19583333333333286,
          "durationTicks": 94,
          "midi": 46,
          "name": "A#2",
          "ticks": 17952,
          "time": 37.4,
          "velocity": 0.8661417322834646
        },
        {
          "duration": 0.19583333333333286,
          "durationTicks": 94,
          "midi": 42,
          "name": "F#2",
          "ticks": 18048,
          "time": 37.6,
          "velocity": 0.8661417322834646
        },
        {
          "duration": 0.19583333333332575,
          "durationTicks": 94,
          "midi": 46,
          "name": "A#2",
          "ticks": 18144,
          "time": 37.800000000000004,
          "velocity": 0.8661417322834646
        },
        {
          "duration": 0.19583333333333286,
          "durationTicks": 94,
          "midi": 42,
          "name": "F#2",
          "ticks": 18240,
          "time": 38,
          "velocity": 0.8661417322834646
        },
        {
          "duration": 0.19583333333333286,
          "durationTicks": 94,
          "midi": 46,
          "name": "A#2",
          "ticks": 18336,
          "time": 38.2,
          "velocity": 0.8661417322834646
        },
        {
          "duration": 0.19583333333332575,
          "durationTicks": 94,
          "midi": 42,
          "name": "F#2",
          "ticks": 18432,
          "time": 38.400000000000006,
          "velocity": 0.8661417322834646
        },
        {
          "duration": 0.19583333333332575,
          "durationTicks": 94,
          "midi": 49,
          "name": "C#3",
          "ticks": 18432,
          "time": 38.400000000000006,
          "velocity": 0.8661417322834646
        },
        {
          "duration": 0.19583333333333286,
          "durationTicks": 94,
          "midi": 46,
          "name": "A#2",
          "ticks": 18528,
          "time": 38.6,
          "velocity": 0.8661417322834646
        },
        {
          "duration": 0.19583333333333286,
          "durationTicks": 94,
          "midi": 42,
          "name": "F#2",
          "ticks": 18624,
          "time": 38.800000000000004,
          "velocity": 0.8661417322834646
        },
        {
          "duration": 0.19583333333333286,
          "durationTicks": 94,
          "midi": 46,
          "name": "A#2",
          "ticks": 18720,
          "time": 39,
          "velocity": 0.8661417322834646
        },
        {
          "duration": 0.19583333333333286,
          "durationTicks": 94,
          "midi": 42,
          "name": "F#2",
          "ticks": 18816,
          "time": 39.2,
          "velocity": 0.8661417322834646
        },
        {
          "duration": 0.19583333333332575,
          "durationTicks": 94,
          "midi": 46,
          "name": "A#2",
          "ticks": 18912,
          "time": 39.400000000000006,
          "velocity": 0.8661417322834646
        },
        {
          "duration": 0.19583333333333286,
          "durationTicks": 94,
          "midi": 42,
          "name": "F#2",
          "ticks": 19008,
          "time": 39.6,
          "velocity": 0.8661417322834646
        },
        {
          "duration": 0.19583333333333286,
          "durationTicks": 94,
          "midi": 46,
          "name": "A#2",
          "ticks": 19104,
          "time": 39.800000000000004,
          "velocity": 0.8661417322834646
        },
        {
          "duration": 0.19583333333333286,
          "durationTicks": 94,
          "midi": 42,
          "name": "F#2",
          "ticks": 19200,
          "time": 40,
          "velocity": 0.8661417322834646
        },
        {
          "duration": 0.19583333333333286,
          "durationTicks": 94,
          "midi": 46,
          "name": "A#2",
          "ticks": 19296,
          "time": 40.2,
          "velocity": 0.8661417322834646
        },
        {
          "duration": 0.19583333333332575,
          "durationTicks": 94,
          "midi": 42,
          "name": "F#2",
          "ticks": 19392,
          "time": 40.400000000000006,
          "velocity": 0.8661417322834646
        },
        {
          "duration": 0.19583333333333286,
          "durationTicks": 94,
          "midi": 46,
          "name": "A#2",
          "ticks": 19488,
          "time": 40.6,
          "velocity": 0.8661417322834646
        },
        {
          "duration": 0.19583333333333286,
          "durationTicks": 94,
          "midi": 42,
          "name": "F#2",
          "ticks": 19584,
          "time": 40.800000000000004,
          "velocity": 0.8661417322834646
        },
        {
          "duration": 0.19583333333333286,
          "durationTicks": 94,
          "midi": 46,
          "name": "A#2",
          "ticks": 19680,
          "time": 41,
          "velocity": 0.8661417322834646
        },
        {
          "duration": 0.19583333333333286,
          "durationTicks": 94,
          "midi": 42,
          "name": "F#2",
          "ticks": 19776,
          "time": 41.2,
          "velocity": 0.8661417322834646
        },
        {
          "duration": 0.19583333333332575,
          "durationTicks": 94,
          "midi": 46,
          "name": "A#2",
          "ticks": 19872,
          "time": 41.400000000000006,
          "velocity": 0.8661417322834646
        },
        {
          "duration": 0.19583333333333286,
          "durationTicks": 94,
          "midi": 42,
          "name": "F#2",
          "ticks": 19968,
          "time": 41.6,
          "velocity": 0.8661417322834646
        },
        {
          "duration": 0.19583333333333286,
          "durationTicks": 94,
          "midi": 46,
          "name": "A#2",
          "ticks": 20064,
          "time": 41.800000000000004,
          "velocity": 0.8661417322834646
        },
        {
          "duration": 0.19583333333333286,
          "durationTicks": 94,
          "midi": 42,
          "name": "F#2",
          "ticks": 20160,
          "time": 42,
          "velocity": 0.8661417322834646
        },
        {
          "duration": 0.19583333333333286,
          "durationTicks": 94,
          "midi": 46,
          "name": "A#2",
          "ticks": 20256,
          "time": 42.2,
          "velocity": 0.8661417322834646
        },
        {
          "duration": 0.19583333333332575,
          "durationTicks": 94,
          "midi": 42,
          "name": "F#2",
          "ticks": 20352,
          "time": 42.400000000000006,
          "velocity": 0.8661417322834646
        },
        {
          "duration": 0.19583333333333286,
          "durationTicks": 94,
          "midi": 46,
          "name": "A#2",
          "ticks": 20448,
          "time": 42.6,
          "velocity": 0.8661417322834646
        },
        {
          "duration": 0.19583333333333286,
          "durationTicks": 94,
          "midi": 42,
          "name": "F#2",
          "ticks": 20544,
          "time": 42.800000000000004,
          "velocity": 0.8661417322834646
        },
        {
          "duration": 0.19583333333333286,
          "durationTicks": 94,
          "midi": 46,
          "name": "A#2",
          "ticks": 20640,
          "time": 43,
          "velocity": 0.8661417322834646
        },
        {
          "duration": 0.19583333333333286,
          "durationTicks": 94,
          "midi": 42,
          "name": "F#2",
          "ticks": 20736,
          "time": 43.2,
          "velocity": 0.8661417322834646
        },
        {
          "duration": 0.19583333333332575,
          "durationTicks": 94,
          "midi": 46,
          "name": "A#2",
          "ticks": 20832,
          "time": 43.400000000000006,
          "velocity": 0.8661417322834646
        },
        {
          "duration": 0.19583333333333286,
          "durationTicks": 94,
          "midi": 42,
          "name": "F#2",
          "ticks": 20928,
          "time": 43.6,
          "velocity": 0.8661417322834646
        },
        {
          "duration": 0.19583333333333286,
          "durationTicks": 94,
          "midi": 46,
          "name": "A#2",
          "ticks": 21024,
          "time": 43.800000000000004,
          "velocity": 0.8661417322834646
        },
        {
          "duration": 0.19583333333333286,
          "durationTicks": 94,
          "midi": 42,
          "name": "F#2",
          "ticks": 21120,
          "time": 44,
          "velocity": 0.8661417322834646
        },
        {
          "duration": 0.19583333333333286,
          "durationTicks": 94,
          "midi": 46,
          "name": "A#2",
          "ticks": 21216,
          "time": 44.2,
          "velocity": 0.8661417322834646
        },
        {
          "duration": 0.19583333333332575,
          "durationTicks": 94,
          "midi": 42,
          "name": "F#2",
          "ticks": 21312,
          "time": 44.400000000000006,
          "velocity": 0.8661417322834646
        },
        {
          "duration": 0.19583333333333286,
          "durationTicks": 94,
          "midi": 46,
          "name": "A#2",
          "ticks": 21408,
          "time": 44.6,
          "velocity": 0.8661417322834646
        },
        {
          "duration": 0.19583333333333286,
          "durationTicks": 94,
          "midi": 42,
          "name": "F#2",
          "ticks": 21504,
          "time": 44.800000000000004,
          "velocity": 0.8661417322834646
        },
        {
          "duration": 0.19583333333333286,
          "durationTicks": 94,
          "midi": 49,
          "name": "C#3",
          "ticks": 21504,
          "time": 44.800000000000004,
          "velocity": 0.8661417322834646
        },
        {
          "duration": 0.19583333333333286,
          "durationTicks": 94,
          "midi": 46,
          "name": "A#2",
          "ticks": 21600,
          "time": 45,
          "velocity": 0.8661417322834646
        },
        {
          "duration": 0.19583333333333286,
          "durationTicks": 94,
          "midi": 42,
          "name": "F#2",
          "ticks": 21696,
          "time": 45.2,
          "velocity": 0.8661417322834646
        },
        {
          "duration": 0.19583333333332575,
          "durationTicks": 94,
          "midi": 46,
          "name": "A#2",
          "ticks": 21792,
          "time": 45.400000000000006,
          "velocity": 0.8661417322834646
        },
        {
          "duration": 0.19583333333333286,
          "durationTicks": 94,
          "midi": 42,
          "name": "F#2",
          "ticks": 21888,
          "time": 45.6,
          "velocity": 0.8661417322834646
        },
        {
          "duration": 0.19583333333333286,
          "durationTicks": 94,
          "midi": 46,
          "name": "A#2",
          "ticks": 21984,
          "time": 45.800000000000004,
          "velocity": 0.8661417322834646
        },
        {
          "duration": 0.19583333333333286,
          "durationTicks": 94,
          "midi": 42,
          "name": "F#2",
          "ticks": 22080,
          "time": 46,
          "velocity": 0.8661417322834646
        },
        {
          "duration": 0.19583333333333286,
          "durationTicks": 94,
          "midi": 46,
          "name": "A#2",
          "ticks": 22176,
          "time": 46.2,
          "velocity": 0.8661417322834646
        },
        {
          "duration": 0.19583333333332575,
          "durationTicks": 94,
          "midi": 42,
          "name": "F#2",
          "ticks": 22272,
          "time": 46.400000000000006,
          "velocity": 0.8661417322834646
        },
        {
          "duration": 0.19583333333333286,
          "durationTicks": 94,
          "midi": 46,
          "name": "A#2",
          "ticks": 22368,
          "time": 46.6,
          "velocity": 0.8661417322834646
        },
        {
          "duration": 0.19583333333333286,
          "durationTicks": 94,
          "midi": 42,
          "name": "F#2",
          "ticks": 22464,
          "time": 46.800000000000004,
          "velocity": 0.8661417322834646
        },
        {
          "duration": 0.19583333333333286,
          "durationTicks": 94,
          "midi": 46,
          "name": "A#2",
          "ticks": 22560,
          "time": 47,
          "velocity": 0.8661417322834646
        },
        {
          "duration": 0.19583333333333286,
          "durationTicks": 94,
          "midi": 42,
          "name": "F#2",
          "ticks": 22656,
          "time": 47.2,
          "velocity": 0.8661417322834646
        },
        {
          "duration": 0.19583333333332575,
          "durationTicks": 94,
          "midi": 46,
          "name": "A#2",
          "ticks": 22752,
          "time": 47.400000000000006,
          "velocity": 0.8661417322834646
        },
        {
          "duration": 0.19583333333333286,
          "durationTicks": 94,
          "midi": 42,
          "name": "F#2",
          "ticks": 22848,
          "time": 47.6,
          "velocity": 0.8661417322834646
        },
        {
          "duration": 0.19583333333333286,
          "durationTicks": 94,
          "midi": 46,
          "name": "A#2",
          "ticks": 22944,
          "time": 47.800000000000004,
          "velocity": 0.8661417322834646
        },
        {
          "duration": 0.19583333333333286,
          "durationTicks": 94,
          "midi": 42,
          "name": "F#2",
          "ticks": 23040,
          "time": 48,
          "velocity": 0.8661417322834646
        },
        {
          "duration": 0.19583333333333286,
          "durationTicks": 94,
          "midi": 46,
          "name": "A#2",
          "ticks": 23136,
          "time": 48.2,
          "velocity": 0.8661417322834646
        },
        {
          "duration": 0.19583333333332575,
          "durationTicks": 94,
          "midi": 42,
          "name": "F#2",
          "ticks": 23232,
          "time": 48.400000000000006,
          "velocity": 0.8661417322834646
        },
        {
          "duration": 0.19583333333333286,
          "durationTicks": 94,
          "midi": 46,
          "name": "A#2",
          "ticks": 23328,
          "time": 48.6,
          "velocity": 0.8661417322834646
        },
        {
          "duration": 0.19583333333333286,
          "durationTicks": 94,
          "midi": 42,
          "name": "F#2",
          "ticks": 23424,
          "time": 48.800000000000004,
          "velocity": 0.8661417322834646
        },
        {
          "duration": 0.19583333333333286,
          "durationTicks": 94,
          "midi": 46,
          "name": "A#2",
          "ticks": 23520,
          "time": 49,
          "velocity": 0.8661417322834646
        },
        {
          "duration": 0.19583333333333286,
          "durationTicks": 94,
          "midi": 42,
          "name": "F#2",
          "ticks": 23616,
          "time": 49.2,
          "velocity": 0.8661417322834646
        },
        {
          "duration": 0.19583333333332575,
          "durationTicks": 94,
          "midi": 46,
          "name": "A#2",
          "ticks": 23712,
          "time": 49.400000000000006,
          "velocity": 0.8661417322834646
        },
        {
          "duration": 0.19583333333333286,
          "durationTicks": 94,
          "midi": 42,
          "name": "F#2",
          "ticks": 23808,
          "time": 49.6,
          "velocity": 0.8661417322834646
        },
        {
          "duration": 0.19583333333333286,
          "durationTicks": 94,
          "midi": 46,
          "name": "A#2",
          "ticks": 23904,
          "time": 49.800000000000004,
          "velocity": 0.8661417322834646
        },
        {
          "duration": 0.19583333333333286,
          "durationTicks": 94,
          "midi": 42,
          "name": "F#2",
          "ticks": 24000,
          "time": 50,
          "velocity": 0.8661417322834646
        },
        {
          "duration": 0.19583333333333286,
          "durationTicks": 94,
          "midi": 46,
          "name": "A#2",
          "ticks": 24096,
          "time": 50.2,
          "velocity": 0.8661417322834646
        },
        {
          "duration": 0.19583333333332575,
          "durationTicks": 94,
          "midi": 42,
          "name": "F#2",
          "ticks": 24192,
          "time": 50.400000000000006,
          "velocity": 0.8661417322834646
        },
        {
          "duration": 0.19583333333333286,
          "durationTicks": 94,
          "midi": 46,
          "name": "A#2",
          "ticks": 24288,
          "time": 50.6,
          "velocity": 0.8661417322834646
        },
        {
          "duration": 0.19583333333333286,
          "durationTicks": 94,
          "midi": 42,
          "name": "F#2",
          "ticks": 24384,
          "time": 50.800000000000004,
          "velocity": 0.8661417322834646
        },
        {
          "duration": 0.19583333333333286,
          "durationTicks": 94,
          "midi": 46,
          "name": "A#2",
          "ticks": 24480,
          "time": 51,
          "velocity": 0.8661417322834646
        },
        {
          "duration": 0.19583333333333286,
          "durationTicks": 94,
          "midi": 42,
          "name": "F#2",
          "ticks": 27744,
          "time": 57.800000000000004,
          "velocity": 0.8661417322834646
        },
        {
          "duration": 0.19583333333333286,
          "durationTicks": 94,
          "midi": 46,
          "name": "A#2",
          "ticks": 27936,
          "time": 58.2,
          "velocity": 0.8661417322834646
        },
        {
          "duration": 0.19583333333333286,
          "durationTicks": 94,
          "midi": 44,
          "name": "G#2",
          "ticks": 28032,
          "time": 58.4,
          "velocity": 0.8661417322834646
        },
        {
          "duration": 0.19583333333333286,
          "durationTicks": 94,
          "midi": 46,
          "name": "A#2",
          "ticks": 28128,
          "time": 58.6,
          "velocity": 0.8661417322834646
        },
        {
          "duration": 0.09583333333333144,
          "durationTicks": 46,
          "midi": 44,
          "name": "G#2",
          "ticks": 28224,
          "time": 58.800000000000004,
          "velocity": 0.8661417322834646
        },
        {
          "duration": 0.09583333333333854,
          "durationTicks": 46,
          "midi": 42,
          "name": "F#2",
          "ticks": 28272,
          "time": 58.9,
          "velocity": 0.8661417322834646
        },
        {
          "duration": 0.09583333333333144,
          "durationTicks": 46,
          "midi": 42,
          "name": "F#2",
          "ticks": 28320,
          "time": 59,
          "velocity": 0.8661417322834646
        },
        {
          "duration": 0.19583333333333286,
          "durationTicks": 94,
          "midi": 42,
          "name": "F#2",
          "ticks": 28512,
          "time": 59.4,
          "velocity": 0.8661417322834646
        },
        {
          "duration": 0.19583333333333286,
          "durationTicks": 94,
          "midi": 46,
          "name": "A#2",
          "ticks": 28704,
          "time": 59.800000000000004,
          "velocity": 0.8661417322834646
        },
        {
          "duration": 0.19583333333333286,
          "durationTicks": 94,
          "midi": 44,
          "name": "G#2",
          "ticks": 28800,
          "time": 60,
          "velocity": 0.8661417322834646
        },
        {
          "duration": 0.19583333333333286,
          "durationTicks": 94,
          "midi": 46,
          "name": "A#2",
          "ticks": 28896,
          "time": 60.2,
          "velocity": 0.8661417322834646
        },
        {
          "duration": 0.09583333333333854,
          "durationTicks": 46,
          "midi": 44,
          "name": "G#2",
          "ticks": 28992,
          "time": 60.4,
          "velocity": 0.8661417322834646
        },
        {
          "duration": 0.09583333333333144,
          "durationTicks": 46,
          "midi": 42,
          "name": "F#2",
          "ticks": 29040,
          "time": 60.5,
          "velocity": 0.8661417322834646
        },
        {
          "duration": 0.09583333333333144,
          "durationTicks": 46,
          "midi": 42,
          "name": "F#2",
          "ticks": 29088,
          "time": 60.6,
          "velocity": 0.8661417322834646
        },
        {
          "duration": 0.19583333333333286,
          "durationTicks": 94,
          "midi": 42,
          "name": "F#2",
          "ticks": 29280,
          "time": 61,
          "velocity": 0.8661417322834646
        },
        {
          "duration": 0.19583333333333286,
          "durationTicks": 94,
          "midi": 46,
          "name": "A#2",
          "ticks": 29472,
          "time": 61.4,
          "velocity": 0.8661417322834646
        },
        {
          "duration": 0.19583333333333286,
          "durationTicks": 94,
          "midi": 44,
          "name": "G#2",
          "ticks": 29568,
          "time": 61.6,
          "velocity": 0.8661417322834646
        },
        {
          "duration": 0.19583333333333286,
          "durationTicks": 94,
          "midi": 46,
          "name": "A#2",
          "ticks": 29664,
          "time": 61.800000000000004,
          "velocity": 0.8661417322834646
        },
        {
          "duration": 0.09583333333333144,
          "durationTicks": 46,
          "midi": 44,
          "name": "G#2",
          "ticks": 29760,
          "time": 62,
          "velocity": 0.8661417322834646
        },
        {
          "duration": 0.09583333333333144,
          "durationTicks": 46,
          "midi": 42,
          "name": "F#2",
          "ticks": 29808,
          "time": 62.1,
          "velocity": 0.8661417322834646
        },
        {
          "duration": 0.09583333333333144,
          "durationTicks": 46,
          "midi": 42,
          "name": "F#2",
          "ticks": 29856,
          "time": 62.2,
          "velocity": 0.8661417322834646
        },
        {
          "duration": 0.19583333333333286,
          "durationTicks": 94,
          "midi": 42,
          "name": "F#2",
          "ticks": 30048,
          "time": 62.6,
          "velocity": 0.8661417322834646
        },
        {
          "duration": 0.19583333333333286,
          "durationTicks": 94,
          "midi": 46,
          "name": "A#2",
          "ticks": 30240,
          "time": 63,
          "velocity": 0.8661417322834646
        },
        {
          "duration": 0.19583333333333286,
          "durationTicks": 94,
          "midi": 44,
          "name": "G#2",
          "ticks": 30336,
          "time": 63.2,
          "velocity": 0.8661417322834646
        },
        {
          "duration": 0.19583333333332575,
          "durationTicks": 94,
          "midi": 46,
          "name": "A#2",
          "ticks": 30432,
          "time": 63.400000000000006,
          "velocity": 0.8661417322834646
        },
        {
          "duration": 0.09583333333333144,
          "durationTicks": 46,
          "midi": 44,
          "name": "G#2",
          "ticks": 30528,
          "time": 63.6,
          "velocity": 0.8661417322834646
        },
        {
          "duration": 0.09583333333333144,
          "durationTicks": 46,
          "midi": 42,
          "name": "F#2",
          "ticks": 30576,
          "time": 63.7,
          "velocity": 0.8661417322834646
        },
        {
          "duration": 0.09583333333333144,
          "durationTicks": 46,
          "midi": 42,
          "name": "F#2",
          "ticks": 30624,
          "time": 63.800000000000004,
          "velocity": 0.8661417322834646
        },
        {
          "duration": 0.19583333333332575,
          "durationTicks": 94,
          "midi": 42,
          "name": "F#2",
          "ticks": 30816,
          "time": 64.2,
          "velocity": 0.8661417322834646
        },
        {
          "duration": 0.19583333333333997,
          "durationTicks": 94,
          "midi": 46,
          "name": "A#2",
          "ticks": 31008,
          "time": 64.6,
          "velocity": 0.8661417322834646
        },
        {
          "duration": 0.19583333333333997,
          "durationTicks": 94,
          "midi": 44,
          "name": "G#2",
          "ticks": 31104,
          "time": 64.8,
          "velocity": 0.8661417322834646
        },
        {
          "duration": 0.19583333333333997,
          "durationTicks": 94,
          "midi": 46,
          "name": "A#2",
          "ticks": 31200,
          "time": 65,
          "velocity": 0.8661417322834646
        },
        {
          "duration": 0.09583333333333144,
          "durationTicks": 46,
          "midi": 44,
          "name": "G#2",
          "ticks": 31296,
          "time": 65.2,
          "velocity": 0.8661417322834646
        },
        {
          "duration": 0.09583333333333144,
          "durationTicks": 46,
          "midi": 42,
          "name": "F#2",
          "ticks": 31344,
          "time": 65.3,
          "velocity": 0.8661417322834646
        },
        {
          "duration": 0.09583333333333144,
          "durationTicks": 46,
          "midi": 42,
          "name": "F#2",
          "ticks": 31392,
          "time": 65.4,
          "velocity": 0.8661417322834646
        },
        {
          "duration": 0.19583333333333997,
          "durationTicks": 94,
          "midi": 42,
          "name": "F#2",
          "ticks": 31584,
          "time": 65.8,
          "velocity": 0.8661417322834646
        },
        {
          "duration": 0.19583333333332575,
          "durationTicks": 94,
          "midi": 46,
          "name": "A#2",
          "ticks": 31776,
          "time": 66.2,
          "velocity": 0.8661417322834646
        },
        {
          "duration": 0.19583333333332575,
          "durationTicks": 94,
          "midi": 44,
          "name": "G#2",
          "ticks": 31872,
          "time": 66.4,
          "velocity": 0.8661417322834646
        },
        {
          "duration": 0.19583333333333997,
          "durationTicks": 94,
          "midi": 46,
          "name": "A#2",
          "ticks": 31968,
          "time": 66.6,
          "velocity": 0.8661417322834646
        },
        {
          "duration": 0.09583333333333144,
          "durationTicks": 46,
          "midi": 44,
          "name": "G#2",
          "ticks": 32064,
          "time": 66.8,
          "velocity": 0.8661417322834646
        },
        {
          "duration": 0.09583333333333144,
          "durationTicks": 46,
          "midi": 42,
          "name": "F#2",
          "ticks": 32112,
          "time": 66.9,
          "velocity": 0.8661417322834646
        },
        {
          "duration": 0.09583333333333144,
          "durationTicks": 46,
          "midi": 42,
          "name": "F#2",
          "ticks": 32160,
          "time": 67,
          "velocity": 0.8661417322834646
        },
        {
          "duration": 0.19583333333332575,
          "durationTicks": 94,
          "midi": 42,
          "name": "F#2",
          "ticks": 32352,
          "time": 67.4,
          "velocity": 0.8661417322834646
        },
        {
          "duration": 0.19583333333333997,
          "durationTicks": 94,
          "midi": 46,
          "name": "A#2",
          "ticks": 32544,
          "time": 67.8,
          "velocity": 0.8661417322834646
        },
        {
          "duration": 0.19583333333333997,
          "durationTicks": 94,
          "midi": 44,
          "name": "G#2",
          "ticks": 32640,
          "time": 68,
          "velocity": 0.8661417322834646
        },
        {
          "duration": 0.19583333333333997,
          "durationTicks": 94,
          "midi": 46,
          "name": "A#2",
          "ticks": 32736,
          "time": 68.2,
          "velocity": 0.8661417322834646
        },
        {
          "duration": 0.09583333333333144,
          "durationTicks": 46,
          "midi": 44,
          "name": "G#2",
          "ticks": 32832,
          "time": 68.4,
          "velocity": 0.8661417322834646
        },
        {
          "duration": 0.09583333333333144,
          "durationTicks": 46,
          "midi": 42,
          "name": "F#2",
          "ticks": 32880,
          "time": 68.5,
          "velocity": 0.8661417322834646
        },
        {
          "duration": 0.09583333333334565,
          "durationTicks": 46,
          "midi": 42,
          "name": "F#2",
          "ticks": 32928,
          "time": 68.6,
          "velocity": 0.8661417322834646
        },
        {
          "duration": 0.19583333333333997,
          "durationTicks": 94,
          "midi": 42,
          "name": "F#2",
          "ticks": 33120,
          "time": 69,
          "velocity": 0.8661417322834646
        },
        {
          "duration": 0.19583333333332575,
          "durationTicks": 94,
          "midi": 46,
          "name": "A#2",
          "ticks": 33312,
          "time": 69.4,
          "velocity": 0.8661417322834646
        },
        {
          "duration": 0.19583333333333997,
          "durationTicks": 94,
          "midi": 44,
          "name": "G#2",
          "ticks": 33408,
          "time": 69.6,
          "velocity": 0.8661417322834646
        },
        {
          "duration": 0.19583333333333997,
          "durationTicks": 94,
          "midi": 46,
          "name": "A#2",
          "ticks": 33504,
          "time": 69.8,
          "velocity": 0.8661417322834646
        },
        {
          "duration": 0.09583333333333144,
          "durationTicks": 46,
          "midi": 44,
          "name": "G#2",
          "ticks": 33600,
          "time": 70,
          "velocity": 0.8661417322834646
        },
        {
          "duration": 0.09583333333334565,
          "durationTicks": 46,
          "midi": 42,
          "name": "F#2",
          "ticks": 33648,
          "time": 70.1,
          "velocity": 0.8661417322834646
        },
        {
          "duration": 0.09583333333333144,
          "durationTicks": 46,
          "midi": 42,
          "name": "F#2",
          "ticks": 33696,
          "time": 70.2,
          "velocity": 0.8661417322834646
        },
        {
          "duration": 0.19583333333333997,
          "durationTicks": 94,
          "midi": 42,
          "name": "F#2",
          "ticks": 33888,
          "time": 70.6,
          "velocity": 0.8661417322834646
        },
        {
          "duration": 0.19583333333333997,
          "durationTicks": 94,
          "midi": 46,
          "name": "A#2",
          "ticks": 34080,
          "time": 71,
          "velocity": 0.8661417322834646
        },
        {
          "duration": 0.19583333333333997,
          "durationTicks": 94,
          "midi": 44,
          "name": "G#2",
          "ticks": 34176,
          "time": 71.2,
          "velocity": 0.8661417322834646
        },
        {
          "duration": 0.19583333333332575,
          "durationTicks": 94,
          "midi": 46,
          "name": "A#2",
          "ticks": 34272,
          "time": 71.4,
          "velocity": 0.8661417322834646
        },
        {
          "duration": 0.09583333333334565,
          "durationTicks": 46,
          "midi": 44,
          "name": "G#2",
          "ticks": 34368,
          "time": 71.6,
          "velocity": 0.8661417322834646
        },
        {
          "duration": 0.09583333333333144,
          "durationTicks": 46,
          "midi": 42,
          "name": "F#2",
          "ticks": 34416,
          "time": 71.7,
          "velocity": 0.8661417322834646
        },
        {
          "duration": 0.09583333333334565,
          "durationTicks": 46,
          "midi": 42,
          "name": "F#2",
          "ticks": 34464,
          "time": 71.8,
          "velocity": 0.8661417322834646
        },
        {
          "duration": 0.19583333333333997,
          "durationTicks": 94,
          "midi": 42,
          "name": "F#2",
          "ticks": 34656,
          "time": 72.2,
          "velocity": 0.8661417322834646
        },
        {
          "duration": 0.19583333333333997,
          "durationTicks": 94,
          "midi": 46,
          "name": "A#2",
          "ticks": 34848,
          "time": 72.6,
          "velocity": 0.8661417322834646
        },
        {
          "duration": 0.19583333333333997,
          "durationTicks": 94,
          "midi": 44,
          "name": "G#2",
          "ticks": 34944,
          "time": 72.8,
          "velocity": 0.8661417322834646
        },
        {
          "duration": 0.19583333333333997,
          "durationTicks": 94,
          "midi": 46,
          "name": "A#2",
          "ticks": 35040,
          "time": 73,
          "velocity": 0.8661417322834646
        },
        {
          "duration": 0.09583333333333144,
          "durationTicks": 46,
          "midi": 44,
          "name": "G#2",
          "ticks": 35136,
          "time": 73.2,
          "velocity": 0.8661417322834646
        },
        {
          "duration": 0.09583333333334565,
          "durationTicks": 46,
          "midi": 42,
          "name": "F#2",
          "ticks": 35184,
          "time": 73.3,
          "velocity": 0.8661417322834646
        },
        {
          "duration": 0.09583333333333144,
          "durationTicks": 46,
          "midi": 42,
          "name": "F#2",
          "ticks": 35232,
          "time": 73.4,
          "velocity": 0.8661417322834646
        },
        {
          "duration": 0.19583333333333997,
          "durationTicks": 94,
          "midi": 42,
          "name": "F#2",
          "ticks": 35424,
          "time": 73.8,
          "velocity": 0.8661417322834646
        },
        {
          "duration": 0.19583333333333997,
          "durationTicks": 94,
          "midi": 46,
          "name": "A#2",
          "ticks": 35616,
          "time": 74.2,
          "velocity": 0.8661417322834646
        },
        {
          "duration": 0.19583333333332575,
          "durationTicks": 94,
          "midi": 44,
          "name": "G#2",
          "ticks": 35712,
          "time": 74.4,
          "velocity": 0.8661417322834646
        },
        {
          "duration": 0.19583333333333997,
          "durationTicks": 94,
          "midi": 46,
          "name": "A#2",
          "ticks": 35808,
          "time": 74.6,
          "velocity": 0.8661417322834646
        },
        {
          "duration": 0.09583333333334565,
          "durationTicks": 46,
          "midi": 44,
          "name": "G#2",
          "ticks": 35904,
          "time": 74.8,
          "velocity": 0.8661417322834646
        },
        {
          "duration": 0.09583333333333144,
          "durationTicks": 46,
          "midi": 42,
          "name": "F#2",
          "ticks": 35952,
          "time": 74.9,
          "velocity": 0.8661417322834646
        },
        {
          "duration": 0.09583333333333144,
          "durationTicks": 46,
          "midi": 42,
          "name": "F#2",
          "ticks": 36000,
          "time": 75,
          "velocity": 0.8661417322834646
        },
        {
          "duration": 0.19583333333332575,
          "durationTicks": 94,
          "midi": 42,
          "name": "F#2",
          "ticks": 36192,
          "time": 75.4,
          "velocity": 0.8661417322834646
        },
        {
          "duration": 0.19583333333333997,
          "durationTicks": 94,
          "midi": 46,
          "name": "A#2",
          "ticks": 36384,
          "time": 75.8,
          "velocity": 0.8661417322834646
        },
        {
          "duration": 0.19583333333333997,
          "durationTicks": 94,
          "midi": 44,
          "name": "G#2",
          "ticks": 36480,
          "time": 76,
          "velocity": 0.8661417322834646
        },
        {
          "duration": 0.19583333333333997,
          "durationTicks": 94,
          "midi": 46,
          "name": "A#2",
          "ticks": 36576,
          "time": 76.2,
          "velocity": 0.8661417322834646
        },
        {
          "duration": 0.09583333333333144,
          "durationTicks": 46,
          "midi": 44,
          "name": "G#2",
          "ticks": 36672,
          "time": 76.4,
          "velocity": 0.8661417322834646
        },
        {
          "duration": 0.09583333333333144,
          "durationTicks": 46,
          "midi": 42,
          "name": "F#2",
          "ticks": 36720,
          "time": 76.5,
          "velocity": 0.8661417322834646
        },
        {
          "duration": 0.09583333333334565,
          "durationTicks": 46,
          "midi": 42,
          "name": "F#2",
          "ticks": 36768,
          "time": 76.6,
          "velocity": 0.8661417322834646
        },
        {
          "duration": 0.19583333333333997,
          "durationTicks": 94,
          "midi": 42,
          "name": "F#2",
          "ticks": 36960,
          "time": 77,
          "velocity": 0.8661417322834646
        },
        {
          "duration": 0.19583333333332575,
          "durationTicks": 94,
          "midi": 46,
          "name": "A#2",
          "ticks": 37152,
          "time": 77.4,
          "velocity": 0.8661417322834646
        },
        {
          "duration": 0.19583333333333997,
          "durationTicks": 94,
          "midi": 44,
          "name": "G#2",
          "ticks": 37248,
          "time": 77.6,
          "velocity": 0.8661417322834646
        },
        {
          "duration": 0.19583333333332575,
          "durationTicks": 94,
          "midi": 46,
          "name": "A#2",
          "ticks": 37344,
          "time": 77.80000000000001,
          "velocity": 0.8661417322834646
        },
        {
          "duration": 0.09583333333333144,
          "durationTicks": 46,
          "midi": 44,
          "name": "G#2",
          "ticks": 37440,
          "time": 78,
          "velocity": 0.8661417322834646
        },
        {
          "duration": 0.09583333333334565,
          "durationTicks": 46,
          "midi": 42,
          "name": "F#2",
          "ticks": 37488,
          "time": 78.1,
          "velocity": 0.8661417322834646
        },
        {
          "duration": 0.09583333333333144,
          "durationTicks": 46,
          "midi": 42,
          "name": "F#2",
          "ticks": 37536,
          "time": 78.2,
          "velocity": 0.8661417322834646
        },
        {
          "duration": 0.19583333333333997,
          "durationTicks": 94,
          "midi": 42,
          "name": "F#2",
          "ticks": 37728,
          "time": 78.6,
          "velocity": 0.8661417322834646
        },
        {
          "duration": 0.19583333333333997,
          "durationTicks": 94,
          "midi": 46,
          "name": "A#2",
          "ticks": 37920,
          "time": 79,
          "velocity": 0.8661417322834646
        },
        {
          "duration": 0.19583333333333997,
          "durationTicks": 94,
          "midi": 44,
          "name": "G#2",
          "ticks": 38016,
          "time": 79.2,
          "velocity": 0.8661417322834646
        },
        {
          "duration": 0.19583333333332575,
          "durationTicks": 94,
          "midi": 46,
          "name": "A#2",
          "ticks": 38112,
          "time": 79.4,
          "velocity": 0.8661417322834646
        },
        {
          "duration": 0.09583333333334565,
          "durationTicks": 46,
          "midi": 44,
          "name": "G#2",
          "ticks": 38208,
          "time": 79.6,
          "velocity": 0.8661417322834646
        },
        {
          "duration": 0.09583333333333144,
          "durationTicks": 46,
          "midi": 42,
          "name": "F#2",
          "ticks": 38256,
          "time": 79.7,
          "velocity": 0.8661417322834646
        },
        {
          "duration": 0.09583333333333144,
          "durationTicks": 46,
          "midi": 42,
          "name": "F#2",
          "ticks": 38304,
          "time": 79.80000000000001,
          "velocity": 0.8661417322834646
        },
        {
          "duration": 0.19583333333333997,
          "durationTicks": 94,
          "midi": 42,
          "name": "F#2",
          "ticks": 38496,
          "time": 80.2,
          "velocity": 0.8661417322834646
        },
        {
          "duration": 0.19583333333333997,
          "durationTicks": 94,
          "midi": 46,
          "name": "A#2",
          "ticks": 38688,
          "time": 80.6,
          "velocity": 0.8661417322834646
        },
        {
          "duration": 0.19583333333332575,
          "durationTicks": 94,
          "midi": 44,
          "name": "G#2",
          "ticks": 38784,
          "time": 80.80000000000001,
          "velocity": 0.8661417322834646
        },
        {
          "duration": 0.19583333333333997,
          "durationTicks": 94,
          "midi": 46,
          "name": "A#2",
          "ticks": 38880,
          "time": 81,
          "velocity": 0.8661417322834646
        },
        {
          "duration": 0.09583333333333144,
          "durationTicks": 46,
          "midi": 44,
          "name": "G#2",
          "ticks": 38976,
          "time": 81.2,
          "velocity": 0.8661417322834646
        },
        {
          "duration": 0.09583333333333144,
          "durationTicks": 46,
          "midi": 42,
          "name": "F#2",
          "ticks": 39024,
          "time": 81.30000000000001,
          "velocity": 0.8661417322834646
        },
        {
          "duration": 0.09583333333333144,
          "durationTicks": 46,
          "midi": 42,
          "name": "F#2",
          "ticks": 39072,
          "time": 81.4,
          "velocity": 0.8661417322834646
        },
        {
          "duration": 0.19583333333332575,
          "durationTicks": 94,
          "midi": 42,
          "name": "F#2",
          "ticks": 39264,
          "time": 81.80000000000001,
          "velocity": 0.8661417322834646
        },
        {
          "duration": 0.19583333333333997,
          "durationTicks": 94,
          "midi": 46,
          "name": "A#2",
          "ticks": 39456,
          "time": 82.2,
          "velocity": 0.8661417322834646
        },
        {
          "duration": 0.19583333333332575,
          "durationTicks": 94,
          "midi": 44,
          "name": "G#2",
          "ticks": 39552,
          "time": 82.4,
          "velocity": 0.8661417322834646
        },
        {
          "duration": 0.19583333333333997,
          "durationTicks": 94,
          "midi": 46,
          "name": "A#2",
          "ticks": 39648,
          "time": 82.6,
          "velocity": 0.8661417322834646
        },
        {
          "duration": 0.09583333333333144,
          "durationTicks": 46,
          "midi": 44,
          "name": "G#2",
          "ticks": 39744,
          "time": 82.80000000000001,
          "velocity": 0.8661417322834646
        },
        {
          "duration": 0.09583333333333144,
          "durationTicks": 46,
          "midi": 42,
          "name": "F#2",
          "ticks": 39792,
          "time": 82.9,
          "velocity": 0.8661417322834646
        },
        {
          "duration": 0.09583333333333144,
          "durationTicks": 46,
          "midi": 42,
          "name": "F#2",
          "ticks": 39840,
          "time": 83,
          "velocity": 0.8661417322834646
        },
        {
          "duration": 0.19583333333332575,
          "durationTicks": 94,
          "midi": 42,
          "name": "F#2",
          "ticks": 40032,
          "time": 83.4,
          "velocity": 0.8661417322834646
        },
        {
          "duration": 0.19583333333332575,
          "durationTicks": 94,
          "midi": 46,
          "name": "A#2",
          "ticks": 40224,
          "time": 83.80000000000001,
          "velocity": 0.8661417322834646
        },
        {
          "duration": 0.19583333333332575,
          "durationTicks": 94,
          "midi": 44,
          "name": "G#2",
          "ticks": 40320,
          "time": 84,
          "velocity": 0.8661417322834646
        },
        {
          "duration": 0.19583333333333997,
          "durationTicks": 94,
          "midi": 46,
          "name": "A#2",
          "ticks": 40416,
          "time": 84.2,
          "velocity": 0.8661417322834646
        },
        {
          "duration": 0.09583333333333144,
          "durationTicks": 46,
          "midi": 44,
          "name": "G#2",
          "ticks": 40512,
          "time": 84.4,
          "velocity": 0.8661417322834646
        },
        {
          "duration": 0.09583333333333144,
          "durationTicks": 46,
          "midi": 42,
          "name": "F#2",
          "ticks": 40560,
          "time": 84.5,
          "velocity": 0.8661417322834646
        },
        {
          "duration": 0.09583333333333144,
          "durationTicks": 46,
          "midi": 42,
          "name": "F#2",
          "ticks": 40608,
          "time": 84.6,
          "velocity": 0.8661417322834646
        },
        {
          "duration": 0.19583333333332575,
          "durationTicks": 94,
          "midi": 42,
          "name": "F#2",
          "ticks": 40800,
          "time": 85,
          "velocity": 0.8661417322834646
        },
        {
          "duration": 0.19583333333332575,
          "durationTicks": 94,
          "midi": 46,
          "name": "A#2",
          "ticks": 40992,
          "time": 85.4,
          "velocity": 0.8661417322834646
        },
        {
          "duration": 0.19583333333333997,
          "durationTicks": 94,
          "midi": 44,
          "name": "G#2",
          "ticks": 41088,
          "time": 85.6,
          "velocity": 0.8661417322834646
        },
        {
          "duration": 0.19583333333332575,
          "durationTicks": 94,
          "midi": 46,
          "name": "A#2",
          "ticks": 41184,
          "time": 85.80000000000001,
          "velocity": 0.8661417322834646
        },
        {
          "duration": 0.09583333333333144,
          "durationTicks": 46,
          "midi": 44,
          "name": "G#2",
          "ticks": 41280,
          "time": 86,
          "velocity": 0.8661417322834646
        },
        {
          "duration": 0.09583333333333144,
          "durationTicks": 46,
          "midi": 42,
          "name": "F#2",
          "ticks": 41328,
          "time": 86.1,
          "velocity": 0.8661417322834646
        },
        {
          "duration": 0.09583333333333144,
          "durationTicks": 46,
          "midi": 42,
          "name": "F#2",
          "ticks": 41376,
          "time": 86.2,
          "velocity": 0.8661417322834646
        },
        {
          "duration": 0.19583333333333997,
          "durationTicks": 94,
          "midi": 42,
          "name": "F#2",
          "ticks": 41568,
          "time": 86.6,
          "velocity": 0.8661417322834646
        },
        {
          "duration": 0.19583333333332575,
          "durationTicks": 94,
          "midi": 46,
          "name": "A#2",
          "ticks": 41760,
          "time": 87,
          "velocity": 0.8661417322834646
        },
        {
          "duration": 0.19583333333333997,
          "durationTicks": 94,
          "midi": 44,
          "name": "G#2",
          "ticks": 41856,
          "time": 87.2,
          "velocity": 0.8661417322834646
        },
        {
          "duration": 0.19583333333332575,
          "durationTicks": 94,
          "midi": 46,
          "name": "A#2",
          "ticks": 41952,
          "time": 87.4,
          "velocity": 0.8661417322834646
        },
        {
          "duration": 0.09583333333333144,
          "durationTicks": 46,
          "midi": 44,
          "name": "G#2",
          "ticks": 42048,
          "time": 87.6,
          "velocity": 0.8661417322834646
        },
        {
          "duration": 0.09583333333333144,
          "durationTicks": 46,
          "midi": 42,
          "name": "F#2",
          "ticks": 42096,
          "time": 87.7,
          "velocity": 0.8661417322834646
        },
        {
          "duration": 0.09583333333333144,
          "durationTicks": 46,
          "midi": 42,
          "name": "F#2",
          "ticks": 42144,
          "time": 87.80000000000001,
          "velocity": 0.8661417322834646
        },
        {
          "duration": 0.19583333333333997,
          "durationTicks": 94,
          "midi": 42,
          "name": "F#2",
          "ticks": 42336,
          "time": 88.2,
          "velocity": 0.8661417322834646
        },
        {
          "duration": 0.19583333333333997,
          "durationTicks": 94,
          "midi": 46,
          "name": "A#2",
          "ticks": 42528,
          "time": 88.6,
          "velocity": 0.8661417322834646
        },
        {
          "duration": 0.09583333333333144,
          "durationTicks": 46,
          "midi": 42,
          "name": "F#2",
          "ticks": 42624,
          "time": 88.80000000000001,
          "velocity": 0.8661417322834646
        },
        {
          "duration": 0.09583333333333144,
          "durationTicks": 46,
          "midi": 42,
          "name": "F#2",
          "ticks": 42720,
          "time": 89,
          "velocity": 0.8661417322834646
        },
        {
          "duration": 0.09583333333333144,
          "durationTicks": 46,
          "midi": 42,
          "name": "F#2",
          "ticks": 42816,
          "time": 89.2,
          "velocity": 0.8661417322834646
        },
        {
          "duration": 0.09583333333333144,
          "durationTicks": 46,
          "midi": 42,
          "name": "F#2",
          "ticks": 42864,
          "time": 89.30000000000001,
          "velocity": 0.8661417322834646
        },
        {
          "duration": 0.09583333333333144,
          "durationTicks": 46,
          "midi": 46,
          "name": "A#2",
          "ticks": 42912,
          "time": 89.4,
          "velocity": 0.8661417322834646
        },
        {
          "duration": 0.19583333333333997,
          "durationTicks": 94,
          "midi": 42,
          "name": "F#2",
          "ticks": 43008,
          "time": 89.6,
          "velocity": 0.8661417322834646
        },
        {
          "duration": 0.19583333333333997,
          "durationTicks": 94,
          "midi": 49,
          "name": "C#3",
          "ticks": 43008,
          "time": 89.6,
          "velocity": 0.8661417322834646
        },
        {
          "duration": 0.19583333333332575,
          "durationTicks": 94,
          "midi": 46,
          "name": "A#2",
          "ticks": 43104,
          "time": 89.80000000000001,
          "velocity": 0.8661417322834646
        },
        {
          "duration": 0.19583333333332575,
          "durationTicks": 94,
          "midi": 42,
          "name": "F#2",
          "ticks": 43200,
          "time": 90,
          "velocity": 0.8661417322834646
        },
        {
          "duration": 0.19583333333333997,
          "durationTicks": 94,
          "midi": 46,
          "name": "A#2",
          "ticks": 43296,
          "time": 90.2,
          "velocity": 0.8661417322834646
        },
        {
          "duration": 0.19583333333332575,
          "durationTicks": 94,
          "midi": 42,
          "name": "F#2",
          "ticks": 43392,
          "time": 90.4,
          "velocity": 0.8661417322834646
        },
        {
          "duration": 0.19583333333333997,
          "durationTicks": 94,
          "midi": 46,
          "name": "A#2",
          "ticks": 43488,
          "time": 90.6,
          "velocity": 0.8661417322834646
        },
        {
          "duration": 0.19583333333332575,
          "durationTicks": 94,
          "midi": 42,
          "name": "F#2",
          "ticks": 43584,
          "time": 90.80000000000001,
          "velocity": 0.8661417322834646
        },
        {
          "duration": 0.19583333333332575,
          "durationTicks": 94,
          "midi": 46,
          "name": "A#2",
          "ticks": 43680,
          "time": 91,
          "velocity": 0.8661417322834646
        },
        {
          "duration": 0.19583333333333997,
          "durationTicks": 94,
          "midi": 42,
          "name": "F#2",
          "ticks": 43776,
          "time": 91.2,
          "velocity": 0.8661417322834646
        },
        {
          "duration": 0.19583333333332575,
          "durationTicks": 94,
          "midi": 46,
          "name": "A#2",
          "ticks": 43872,
          "time": 91.4,
          "velocity": 0.8661417322834646
        },
        {
          "duration": 0.19583333333333997,
          "durationTicks": 94,
          "midi": 42,
          "name": "F#2",
          "ticks": 43968,
          "time": 91.6,
          "velocity": 0.8661417322834646
        },
        {
          "duration": 0.19583333333332575,
          "durationTicks": 94,
          "midi": 46,
          "name": "A#2",
          "ticks": 44064,
          "time": 91.80000000000001,
          "velocity": 0.8661417322834646
        },
        {
          "duration": 0.19583333333332575,
          "durationTicks": 94,
          "midi": 42,
          "name": "F#2",
          "ticks": 44160,
          "time": 92,
          "velocity": 0.8661417322834646
        },
        {
          "duration": 0.19583333333333997,
          "durationTicks": 94,
          "midi": 46,
          "name": "A#2",
          "ticks": 44256,
          "time": 92.2,
          "velocity": 0.8661417322834646
        },
        {
          "duration": 0.19583333333332575,
          "durationTicks": 94,
          "midi": 42,
          "name": "F#2",
          "ticks": 44352,
          "time": 92.4,
          "velocity": 0.8661417322834646
        },
        {
          "duration": 0.19583333333333997,
          "durationTicks": 94,
          "midi": 46,
          "name": "A#2",
          "ticks": 44448,
          "time": 92.6,
          "velocity": 0.8661417322834646
        },
        {
          "duration": 0.19583333333332575,
          "durationTicks": 94,
          "midi": 42,
          "name": "F#2",
          "ticks": 44544,
          "time": 92.80000000000001,
          "velocity": 0.8661417322834646
        },
        {
          "duration": 0.19583333333332575,
          "durationTicks": 94,
          "midi": 46,
          "name": "A#2",
          "ticks": 44640,
          "time": 93,
          "velocity": 0.8661417322834646
        },
        {
          "duration": 0.19583333333333997,
          "durationTicks": 94,
          "midi": 42,
          "name": "F#2",
          "ticks": 44736,
          "time": 93.2,
          "velocity": 0.8661417322834646
        },
        {
          "duration": 0.19583333333332575,
          "durationTicks": 94,
          "midi": 46,
          "name": "A#2",
          "ticks": 44832,
          "time": 93.4,
          "velocity": 0.8661417322834646
        },
        {
          "duration": 0.19583333333333997,
          "durationTicks": 94,
          "midi": 42,
          "name": "F#2",
          "ticks": 44928,
          "time": 93.6,
          "velocity": 0.8661417322834646
        },
        {
          "duration": 0.19583333333332575,
          "durationTicks": 94,
          "midi": 46,
          "name": "A#2",
          "ticks": 45024,
          "time": 93.80000000000001,
          "velocity": 0.8661417322834646
        },
        {
          "duration": 0.19583333333332575,
          "durationTicks": 94,
          "midi": 42,
          "name": "F#2",
          "ticks": 45120,
          "time": 94,
          "velocity": 0.8661417322834646
        },
        {
          "duration": 0.19583333333333997,
          "durationTicks": 94,
          "midi": 46,
          "name": "A#2",
          "ticks": 45216,
          "time": 94.2,
          "velocity": 0.8661417322834646
        },
        {
          "duration": 0.19583333333332575,
          "durationTicks": 94,
          "midi": 42,
          "name": "F#2",
          "ticks": 45312,
          "time": 94.4,
          "velocity": 0.8661417322834646
        },
        {
          "duration": 0.19583333333333997,
          "durationTicks": 94,
          "midi": 46,
          "name": "A#2",
          "ticks": 45408,
          "time": 94.6,
          "velocity": 0.8661417322834646
        },
        {
          "duration": 0.19583333333332575,
          "durationTicks": 94,
          "midi": 42,
          "name": "F#2",
          "ticks": 45504,
          "time": 94.80000000000001,
          "velocity": 0.8661417322834646
        },
        {
          "duration": 0.19583333333332575,
          "durationTicks": 94,
          "midi": 46,
          "name": "A#2",
          "ticks": 45600,
          "time": 95,
          "velocity": 0.8661417322834646
        },
        {
          "duration": 0.19583333333333997,
          "durationTicks": 94,
          "midi": 42,
          "name": "F#2",
          "ticks": 45696,
          "time": 95.2,
          "velocity": 0.8661417322834646
        },
        {
          "duration": 0.19583333333332575,
          "durationTicks": 94,
          "midi": 46,
          "name": "A#2",
          "ticks": 45792,
          "time": 95.4,
          "velocity": 0.8661417322834646
        },
        {
          "duration": 0.19583333333333997,
          "durationTicks": 94,
          "midi": 42,
          "name": "F#2",
          "ticks": 45888,
          "time": 95.6,
          "velocity": 0.8661417322834646
        },
        {
          "duration": 0.19583333333332575,
          "durationTicks": 94,
          "midi": 46,
          "name": "A#2",
          "ticks": 45984,
          "time": 95.80000000000001,
          "velocity": 0.8661417322834646
        },
        {
          "duration": 0.19583333333332575,
          "durationTicks": 94,
          "midi": 42,
          "name": "F#2",
          "ticks": 46080,
          "time": 96,
          "velocity": 0.8661417322834646
        },
        {
          "duration": 0.19583333333332575,
          "durationTicks": 94,
          "midi": 49,
          "name": "C#3",
          "ticks": 46080,
          "time": 96,
          "velocity": 0.8661417322834646
        },
        {
          "duration": 0.19583333333333997,
          "durationTicks": 94,
          "midi": 46,
          "name": "A#2",
          "ticks": 46176,
          "time": 96.2,
          "velocity": 0.8661417322834646
        },
        {
          "duration": 0.19583333333332575,
          "durationTicks": 94,
          "midi": 42,
          "name": "F#2",
          "ticks": 46272,
          "time": 96.4,
          "velocity": 0.8661417322834646
        },
        {
          "duration": 0.19583333333333997,
          "durationTicks": 94,
          "midi": 46,
          "name": "A#2",
          "ticks": 46368,
          "time": 96.6,
          "velocity": 0.8661417322834646
        },
        {
          "duration": 0.19583333333332575,
          "durationTicks": 94,
          "midi": 42,
          "name": "F#2",
          "ticks": 46464,
          "time": 96.80000000000001,
          "velocity": 0.8661417322834646
        },
        {
          "duration": 0.19583333333332575,
          "durationTicks": 94,
          "midi": 46,
          "name": "A#2",
          "ticks": 46560,
          "time": 97,
          "velocity": 0.8661417322834646
        },
        {
          "duration": 0.19583333333333997,
          "durationTicks": 94,
          "midi": 42,
          "name": "F#2",
          "ticks": 46656,
          "time": 97.2,
          "velocity": 0.8661417322834646
        },
        {
          "duration": 0.19583333333332575,
          "durationTicks": 94,
          "midi": 46,
          "name": "A#2",
          "ticks": 46752,
          "time": 97.4,
          "velocity": 0.8661417322834646
        },
        {
          "duration": 0.19583333333333997,
          "durationTicks": 94,
          "midi": 42,
          "name": "F#2",
          "ticks": 46848,
          "time": 97.6,
          "velocity": 0.8661417322834646
        },
        {
          "duration": 0.19583333333332575,
          "durationTicks": 94,
          "midi": 46,
          "name": "A#2",
          "ticks": 46944,
          "time": 97.80000000000001,
          "velocity": 0.8661417322834646
        },
        {
          "duration": 0.19583333333332575,
          "durationTicks": 94,
          "midi": 42,
          "name": "F#2",
          "ticks": 47040,
          "time": 98,
          "velocity": 0.8661417322834646
        },
        {
          "duration": 0.19583333333333997,
          "durationTicks": 94,
          "midi": 46,
          "name": "A#2",
          "ticks": 47136,
          "time": 98.2,
          "velocity": 0.8661417322834646
        },
        {
          "duration": 0.19583333333332575,
          "durationTicks": 94,
          "midi": 42,
          "name": "F#2",
          "ticks": 47232,
          "time": 98.4,
          "velocity": 0.8661417322834646
        },
        {
          "duration": 0.19583333333333997,
          "durationTicks": 94,
          "midi": 46,
          "name": "A#2",
          "ticks": 47328,
          "time": 98.6,
          "velocity": 0.8661417322834646
        },
        {
          "duration": 0.19583333333332575,
          "durationTicks": 94,
          "midi": 42,
          "name": "F#2",
          "ticks": 47424,
          "time": 98.80000000000001,
          "velocity": 0.8661417322834646
        },
        {
          "duration": 0.19583333333332575,
          "durationTicks": 94,
          "midi": 46,
          "name": "A#2",
          "ticks": 47520,
          "time": 99,
          "velocity": 0.8661417322834646
        },
        {
          "duration": 0.19583333333333997,
          "durationTicks": 94,
          "midi": 42,
          "name": "F#2",
          "ticks": 47616,
          "time": 99.2,
          "velocity": 0.8661417322834646
        },
        {
          "duration": 0.19583333333332575,
          "durationTicks": 94,
          "midi": 46,
          "name": "A#2",
          "ticks": 47712,
          "time": 99.4,
          "velocity": 0.8661417322834646
        },
        {
          "duration": 0.19583333333333997,
          "durationTicks": 94,
          "midi": 42,
          "name": "F#2",
          "ticks": 47808,
          "time": 99.6,
          "velocity": 0.8661417322834646
        },
        {
          "duration": 0.19583333333332575,
          "durationTicks": 94,
          "midi": 46,
          "name": "A#2",
          "ticks": 47904,
          "time": 99.80000000000001,
          "velocity": 0.8661417322834646
        },
        {
          "duration": 0.19583333333332575,
          "durationTicks": 94,
          "midi": 42,
          "name": "F#2",
          "ticks": 48000,
          "time": 100,
          "velocity": 0.8661417322834646
        },
        {
          "duration": 0.19583333333333997,
          "durationTicks": 94,
          "midi": 46,
          "name": "A#2",
          "ticks": 48096,
          "time": 100.2,
          "velocity": 0.8661417322834646
        },
        {
          "duration": 0.19583333333332575,
          "durationTicks": 94,
          "midi": 42,
          "name": "F#2",
          "ticks": 48192,
          "time": 100.4,
          "velocity": 0.8661417322834646
        },
        {
          "duration": 0.19583333333333997,
          "durationTicks": 94,
          "midi": 46,
          "name": "A#2",
          "ticks": 48288,
          "time": 100.6,
          "velocity": 0.8661417322834646
        },
        {
          "duration": 0.19583333333332575,
          "durationTicks": 94,
          "midi": 42,
          "name": "F#2",
          "ticks": 48384,
          "time": 100.80000000000001,
          "velocity": 0.8661417322834646
        },
        {
          "duration": 0.19583333333332575,
          "durationTicks": 94,
          "midi": 46,
          "name": "A#2",
          "ticks": 48480,
          "time": 101,
          "velocity": 0.8661417322834646
        },
        {
          "duration": 0.19583333333333997,
          "durationTicks": 94,
          "midi": 42,
          "name": "F#2",
          "ticks": 48576,
          "time": 101.2,
          "velocity": 0.8661417322834646
        },
        {
          "duration": 0.19583333333332575,
          "durationTicks": 94,
          "midi": 46,
          "name": "A#2",
          "ticks": 48672,
          "time": 101.4,
          "velocity": 0.8661417322834646
        },
        {
          "duration": 0.19583333333333997,
          "durationTicks": 94,
          "midi": 42,
          "name": "F#2",
          "ticks": 48768,
          "time": 101.6,
          "velocity": 0.8661417322834646
        },
        {
          "duration": 0.19583333333332575,
          "durationTicks": 94,
          "midi": 46,
          "name": "A#2",
          "ticks": 48864,
          "time": 101.80000000000001,
          "velocity": 0.8661417322834646
        },
        {
          "duration": 0.19583333333332575,
          "durationTicks": 94,
          "midi": 42,
          "name": "F#2",
          "ticks": 48960,
          "time": 102,
          "velocity": 0.8661417322834646
        },
        {
          "duration": 0.19583333333333997,
          "durationTicks": 94,
          "midi": 46,
          "name": "A#2",
          "ticks": 49056,
          "time": 102.2,
          "velocity": 0.8661417322834646
        },
        {
          "duration": 0.19583333333332575,
          "durationTicks": 94,
          "midi": 42,
          "name": "F#2",
          "ticks": 49152,
          "time": 102.4,
          "velocity": 0.8661417322834646
        },
        {
          "duration": 0.19583333333332575,
          "durationTicks": 94,
          "midi": 49,
          "name": "C#3",
          "ticks": 49152,
          "time": 102.4,
          "velocity": 0.8661417322834646
        },
        {
          "duration": 0.19583333333333997,
          "durationTicks": 94,
          "midi": 46,
          "name": "A#2",
          "ticks": 49248,
          "time": 102.6,
          "velocity": 0.8661417322834646
        },
        {
          "duration": 0.19583333333332575,
          "durationTicks": 94,
          "midi": 42,
          "name": "F#2",
          "ticks": 49344,
          "time": 102.80000000000001,
          "velocity": 0.8661417322834646
        },
        {
          "duration": 0.19583333333332575,
          "durationTicks": 94,
          "midi": 46,
          "name": "A#2",
          "ticks": 49440,
          "time": 103,
          "velocity": 0.8661417322834646
        },
        {
          "duration": 0.19583333333333997,
          "durationTicks": 94,
          "midi": 42,
          "name": "F#2",
          "ticks": 49536,
          "time": 103.2,
          "velocity": 0.8661417322834646
        },
        {
          "duration": 0.19583333333332575,
          "durationTicks": 94,
          "midi": 46,
          "name": "A#2",
          "ticks": 49632,
          "time": 103.4,
          "velocity": 0.8661417322834646
        },
        {
          "duration": 0.19583333333333997,
          "durationTicks": 94,
          "midi": 42,
          "name": "F#2",
          "ticks": 49728,
          "time": 103.6,
          "velocity": 0.8661417322834646
        },
        {
          "duration": 0.19583333333332575,
          "durationTicks": 94,
          "midi": 46,
          "name": "A#2",
          "ticks": 49824,
          "time": 103.80000000000001,
          "velocity": 0.8661417322834646
        },
        {
          "duration": 0.19583333333332575,
          "durationTicks": 94,
          "midi": 42,
          "name": "F#2",
          "ticks": 49920,
          "time": 104,
          "velocity": 0.8661417322834646
        },
        {
          "duration": 0.19583333333333997,
          "durationTicks": 94,
          "midi": 46,
          "name": "A#2",
          "ticks": 50016,
          "time": 104.2,
          "velocity": 0.8661417322834646
        },
        {
          "duration": 0.19583333333332575,
          "durationTicks": 94,
          "midi": 42,
          "name": "F#2",
          "ticks": 50112,
          "time": 104.4,
          "velocity": 0.8661417322834646
        },
        {
          "duration": 0.19583333333333997,
          "durationTicks": 94,
          "midi": 46,
          "name": "A#2",
          "ticks": 50208,
          "time": 104.6,
          "velocity": 0.8661417322834646
        },
        {
          "duration": 0.19583333333332575,
          "durationTicks": 94,
          "midi": 42,
          "name": "F#2",
          "ticks": 50304,
          "time": 104.80000000000001,
          "velocity": 0.8661417322834646
        },
        {
          "duration": 0.19583333333332575,
          "durationTicks": 94,
          "midi": 46,
          "name": "A#2",
          "ticks": 50400,
          "time": 105,
          "velocity": 0.8661417322834646
        },
        {
          "duration": 0.19583333333333997,
          "durationTicks": 94,
          "midi": 42,
          "name": "F#2",
          "ticks": 50496,
          "time": 105.2,
          "velocity": 0.8661417322834646
        },
        {
          "duration": 0.19583333333332575,
          "durationTicks": 94,
          "midi": 46,
          "name": "A#2",
          "ticks": 50592,
          "time": 105.4,
          "velocity": 0.8661417322834646
        },
        {
          "duration": 0.19583333333333997,
          "durationTicks": 94,
          "midi": 42,
          "name": "F#2",
          "ticks": 50688,
          "time": 105.6,
          "velocity": 0.8661417322834646
        },
        {
          "duration": 0.19583333333332575,
          "durationTicks": 94,
          "midi": 46,
          "name": "A#2",
          "ticks": 50784,
          "time": 105.80000000000001,
          "velocity": 0.8661417322834646
        },
        {
          "duration": 0.19583333333332575,
          "durationTicks": 94,
          "midi": 42,
          "name": "F#2",
          "ticks": 50880,
          "time": 106,
          "velocity": 0.8661417322834646
        },
        {
          "duration": 0.19583333333333997,
          "durationTicks": 94,
          "midi": 46,
          "name": "A#2",
          "ticks": 50976,
          "time": 106.2,
          "velocity": 0.8661417322834646
        },
        {
          "duration": 0.19583333333332575,
          "durationTicks": 94,
          "midi": 42,
          "name": "F#2",
          "ticks": 51072,
          "time": 106.4,
          "velocity": 0.8661417322834646
        },
        {
          "duration": 0.19583333333333997,
          "durationTicks": 94,
          "midi": 46,
          "name": "A#2",
          "ticks": 51168,
          "time": 106.6,
          "velocity": 0.8661417322834646
        },
        {
          "duration": 0.19583333333332575,
          "durationTicks": 94,
          "midi": 42,
          "name": "F#2",
          "ticks": 51264,
          "time": 106.80000000000001,
          "velocity": 0.8661417322834646
        },
        {
          "duration": 0.19583333333332575,
          "durationTicks": 94,
          "midi": 46,
          "name": "A#2",
          "ticks": 51360,
          "time": 107,
          "velocity": 0.8661417322834646
        },
        {
          "duration": 0.19583333333333997,
          "durationTicks": 94,
          "midi": 42,
          "name": "F#2",
          "ticks": 51456,
          "time": 107.2,
          "velocity": 0.8661417322834646
        },
        {
          "duration": 0.19583333333332575,
          "durationTicks": 94,
          "midi": 46,
          "name": "A#2",
          "ticks": 51552,
          "time": 107.4,
          "velocity": 0.8661417322834646
        },
        {
          "duration": 0.19583333333333997,
          "durationTicks": 94,
          "midi": 42,
          "name": "F#2",
          "ticks": 51648,
          "time": 107.6,
          "velocity": 0.8661417322834646
        },
        {
          "duration": 0.19583333333332575,
          "durationTicks": 94,
          "midi": 46,
          "name": "A#2",
          "ticks": 51744,
          "time": 107.80000000000001,
          "velocity": 0.8661417322834646
        },
        {
          "duration": 0.19583333333332575,
          "durationTicks": 94,
          "midi": 42,
          "name": "F#2",
          "ticks": 51840,
          "time": 108,
          "velocity": 0.8661417322834646
        },
        {
          "duration": 0.19583333333333997,
          "durationTicks": 94,
          "midi": 46,
          "name": "A#2",
          "ticks": 51936,
          "time": 108.2,
          "velocity": 0.8661417322834646
        },
        {
          "duration": 0.19583333333332575,
          "durationTicks": 94,
          "midi": 42,
          "name": "F#2",
          "ticks": 52032,
          "time": 108.4,
          "velocity": 0.8661417322834646
        },
        {
          "duration": 0.19583333333333997,
          "durationTicks": 94,
          "midi": 46,
          "name": "A#2",
          "ticks": 52128,
          "time": 108.6,
          "velocity": 0.8661417322834646
        },
        {
          "duration": 0.19583333333332575,
          "durationTicks": 94,
          "midi": 42,
          "name": "F#2",
          "ticks": 55392,
          "time": 115.4,
          "velocity": 0.8661417322834646
        },
        {
          "duration": 0.19583333333333997,
          "durationTicks": 94,
          "midi": 46,
          "name": "A#2",
          "ticks": 55584,
          "time": 115.8,
          "velocity": 0.8661417322834646
        },
        {
          "duration": 0.19583333333333997,
          "durationTicks": 94,
          "midi": 44,
          "name": "G#2",
          "ticks": 55680,
          "time": 116,
          "velocity": 0.8661417322834646
        },
        {
          "duration": 0.19583333333333997,
          "durationTicks": 94,
          "midi": 46,
          "name": "A#2",
          "ticks": 55776,
          "time": 116.2,
          "velocity": 0.8661417322834646
        },
        {
          "duration": 0.09583333333333144,
          "durationTicks": 46,
          "midi": 44,
          "name": "G#2",
          "ticks": 55872,
          "time": 116.4,
          "velocity": 0.8661417322834646
        },
        {
          "duration": 0.09583333333333144,
          "durationTicks": 46,
          "midi": 42,
          "name": "F#2",
          "ticks": 55920,
          "time": 116.5,
          "velocity": 0.8661417322834646
        },
        {
          "duration": 0.09583333333333144,
          "durationTicks": 46,
          "midi": 42,
          "name": "F#2",
          "ticks": 55968,
          "time": 116.60000000000001,
          "velocity": 0.8661417322834646
        },
        {
          "duration": 0.19583333333333997,
          "durationTicks": 94,
          "midi": 42,
          "name": "F#2",
          "ticks": 56160,
          "time": 117,
          "velocity": 0.8661417322834646
        },
        {
          "duration": 0.19583333333332575,
          "durationTicks": 94,
          "midi": 46,
          "name": "A#2",
          "ticks": 56352,
          "time": 117.4,
          "velocity": 0.8661417322834646
        },
        {
          "duration": 0.19583333333332575,
          "durationTicks": 94,
          "midi": 44,
          "name": "G#2",
          "ticks": 56448,
          "time": 117.60000000000001,
          "velocity": 0.8661417322834646
        },
        {
          "duration": 0.19583333333333997,
          "durationTicks": 94,
          "midi": 46,
          "name": "A#2",
          "ticks": 56544,
          "time": 117.8,
          "velocity": 0.8661417322834646
        },
        {
          "duration": 0.09583333333333144,
          "durationTicks": 46,
          "midi": 44,
          "name": "G#2",
          "ticks": 56640,
          "time": 118,
          "velocity": 0.8661417322834646
        },
        {
          "duration": 0.09583333333333144,
          "durationTicks": 46,
          "midi": 42,
          "name": "F#2",
          "ticks": 56688,
          "time": 118.10000000000001,
          "velocity": 0.8661417322834646
        },
        {
          "duration": 0.09583333333333144,
          "durationTicks": 46,
          "midi": 42,
          "name": "F#2",
          "ticks": 56736,
          "time": 118.2,
          "velocity": 0.8661417322834646
        },
        {
          "duration": 0.19583333333332575,
          "durationTicks": 94,
          "midi": 42,
          "name": "F#2",
          "ticks": 56928,
          "time": 118.60000000000001,
          "velocity": 0.8661417322834646
        },
        {
          "duration": 0.19583333333333997,
          "durationTicks": 94,
          "midi": 46,
          "name": "A#2",
          "ticks": 57120,
          "time": 119,
          "velocity": 0.8661417322834646
        },
        {
          "duration": 0.19583333333333997,
          "durationTicks": 94,
          "midi": 44,
          "name": "G#2",
          "ticks": 57216,
          "time": 119.2,
          "velocity": 0.8661417322834646
        },
        {
          "duration": 0.19583333333332575,
          "durationTicks": 94,
          "midi": 46,
          "name": "A#2",
          "ticks": 57312,
          "time": 119.4,
          "velocity": 0.8661417322834646
        },
        {
          "duration": 0.09583333333333144,
          "durationTicks": 46,
          "midi": 44,
          "name": "G#2",
          "ticks": 57408,
          "time": 119.60000000000001,
          "velocity": 0.8661417322834646
        },
        {
          "duration": 0.09583333333333144,
          "durationTicks": 46,
          "midi": 42,
          "name": "F#2",
          "ticks": 57456,
          "time": 119.7,
          "velocity": 0.8661417322834646
        },
        {
          "duration": 0.09583333333334565,
          "durationTicks": 46,
          "midi": 42,
          "name": "F#2",
          "ticks": 57504,
          "time": 119.8,
          "velocity": 0.8661417322834646
        },
        {
          "duration": 0.19583333333333997,
          "durationTicks": 94,
          "midi": 42,
          "name": "F#2",
          "ticks": 57696,
          "time": 120.2,
          "velocity": 0.8661417322834646
        },
        {
          "duration": 0.19583333333332575,
          "durationTicks": 94,
          "midi": 46,
          "name": "A#2",
          "ticks": 57888,
          "time": 120.60000000000001,
          "velocity": 0.8661417322834646
        },
        {
          "duration": 0.19583333333333997,
          "durationTicks": 94,
          "midi": 44,
          "name": "G#2",
          "ticks": 57984,
          "time": 120.8,
          "velocity": 0.8661417322834646
        },
        {
          "duration": 0.19583333333333997,
          "durationTicks": 94,
          "midi": 46,
          "name": "A#2",
          "ticks": 58080,
          "time": 121,
          "velocity": 0.8661417322834646
        },
        {
          "duration": 0.09583333333333144,
          "durationTicks": 46,
          "midi": 44,
          "name": "G#2",
          "ticks": 58176,
          "time": 121.2,
          "velocity": 0.8661417322834646
        },
        {
          "duration": 0.09583333333334565,
          "durationTicks": 46,
          "midi": 42,
          "name": "F#2",
          "ticks": 58224,
          "time": 121.3,
          "velocity": 0.8661417322834646
        },
        {
          "duration": 0.09583333333333144,
          "durationTicks": 46,
          "midi": 42,
          "name": "F#2",
          "ticks": 58272,
          "time": 121.4,
          "velocity": 0.8661417322834646
        },
        {
          "duration": 0.19583333333333997,
          "durationTicks": 94,
          "midi": 42,
          "name": "F#2",
          "ticks": 58464,
          "time": 121.8,
          "velocity": 0.8661417322834646
        },
        {
          "duration": 0.19583333333333997,
          "durationTicks": 94,
          "midi": 46,
          "name": "A#2",
          "ticks": 58656,
          "time": 122.2,
          "velocity": 0.8661417322834646
        },
        {
          "duration": 0.19583333333332575,
          "durationTicks": 94,
          "midi": 44,
          "name": "G#2",
          "ticks": 58752,
          "time": 122.4,
          "velocity": 0.8661417322834646
        },
        {
          "duration": 0.19583333333332575,
          "durationTicks": 94,
          "midi": 46,
          "name": "A#2",
          "ticks": 58848,
          "time": 122.60000000000001,
          "velocity": 0.8661417322834646
        },
        {
          "duration": 0.09583333333334565,
          "durationTicks": 46,
          "midi": 44,
          "name": "G#2",
          "ticks": 58944,
          "time": 122.8,
          "velocity": 0.8661417322834646
        },
        {
          "duration": 0.09583333333333144,
          "durationTicks": 46,
          "midi": 42,
          "name": "F#2",
          "ticks": 58992,
          "time": 122.9,
          "velocity": 0.8661417322834646
        },
        {
          "duration": 0.09583333333333144,
          "durationTicks": 46,
          "midi": 42,
          "name": "F#2",
          "ticks": 59040,
          "time": 123,
          "velocity": 0.8661417322834646
        },
        {
          "duration": 0.19583333333332575,
          "durationTicks": 94,
          "midi": 42,
          "name": "F#2",
          "ticks": 59232,
          "time": 123.4,
          "velocity": 0.8661417322834646
        },
        {
          "duration": 0.19583333333333997,
          "durationTicks": 94,
          "midi": 46,
          "name": "A#2",
          "ticks": 59424,
          "time": 123.8,
          "velocity": 0.8661417322834646
        },
        {
          "duration": 0.19583333333333997,
          "durationTicks": 94,
          "midi": 44,
          "name": "G#2",
          "ticks": 59520,
          "time": 124,
          "velocity": 0.8661417322834646
        },
        {
          "duration": 0.19583333333333997,
          "durationTicks": 94,
          "midi": 46,
          "name": "A#2",
          "ticks": 59616,
          "time": 124.2,
          "velocity": 0.8661417322834646
        },
        {
          "duration": 0.09583333333333144,
          "durationTicks": 46,
          "midi": 44,
          "name": "G#2",
          "ticks": 59712,
          "time": 124.4,
          "velocity": 0.8661417322834646
        },
        {
          "duration": 0.09583333333333144,
          "durationTicks": 46,
          "midi": 42,
          "name": "F#2",
          "ticks": 59760,
          "time": 124.5,
          "velocity": 0.8661417322834646
        },
        {
          "duration": 0.09583333333333144,
          "durationTicks": 46,
          "midi": 42,
          "name": "F#2",
          "ticks": 59808,
          "time": 124.60000000000001,
          "velocity": 0.8661417322834646
        },
        {
          "duration": 0.19583333333333997,
          "durationTicks": 94,
          "midi": 42,
          "name": "F#2",
          "ticks": 60000,
          "time": 125,
          "velocity": 0.8661417322834646
        },
        {
          "duration": 0.19583333333332575,
          "durationTicks": 94,
          "midi": 46,
          "name": "A#2",
          "ticks": 60192,
          "time": 125.4,
          "velocity": 0.8661417322834646
        },
        {
          "duration": 0.19583333333332575,
          "durationTicks": 94,
          "midi": 44,
          "name": "G#2",
          "ticks": 60288,
          "time": 125.60000000000001,
          "velocity": 0.8661417322834646
        },
        {
          "duration": 0.19583333333332575,
          "durationTicks": 94,
          "midi": 46,
          "name": "A#2",
          "ticks": 60384,
          "time": 125.80000000000001,
          "velocity": 0.8661417322834646
        },
        {
          "duration": 0.09583333333333144,
          "durationTicks": 46,
          "midi": 44,
          "name": "G#2",
          "ticks": 60480,
          "time": 126,
          "velocity": 0.8661417322834646
        },
        {
          "duration": 0.09583333333333144,
          "durationTicks": 46,
          "midi": 42,
          "name": "F#2",
          "ticks": 60528,
          "time": 126.10000000000001,
          "velocity": 0.8661417322834646
        },
        {
          "duration": 0.09583333333333144,
          "durationTicks": 46,
          "midi": 42,
          "name": "F#2",
          "ticks": 60576,
          "time": 126.2,
          "velocity": 0.8661417322834646
        },
        {
          "duration": 0.19583333333332575,
          "durationTicks": 94,
          "midi": 42,
          "name": "F#2",
          "ticks": 60768,
          "time": 126.60000000000001,
          "velocity": 0.8661417322834646
        },
        {
          "duration": 0.19583333333333997,
          "durationTicks": 94,
          "midi": 46,
          "name": "A#2",
          "ticks": 60960,
          "time": 127,
          "velocity": 0.8661417322834646
        },
        {
          "duration": 0.19583333333333997,
          "durationTicks": 94,
          "midi": 44,
          "name": "G#2",
          "ticks": 61056,
          "time": 127.2,
          "velocity": 0.8661417322834646
        },
        {
          "duration": 0.19583333333332575,
          "durationTicks": 94,
          "midi": 46,
          "name": "A#2",
          "ticks": 61152,
          "time": 127.4,
          "velocity": 0.8661417322834646
        },
        {
          "duration": 0.09583333333333144,
          "durationTicks": 46,
          "midi": 44,
          "name": "G#2",
          "ticks": 61248,
          "time": 127.60000000000001,
          "velocity": 0.8661417322834646
        },
        {
          "duration": 0.09583333333333144,
          "durationTicks": 46,
          "midi": 42,
          "name": "F#2",
          "ticks": 61296,
          "time": 127.7,
          "velocity": 0.8661417322834646
        },
        {
          "duration": 0.09583333333333144,
          "durationTicks": 46,
          "midi": 42,
          "name": "F#2",
          "ticks": 61344,
          "time": 127.80000000000001,
          "velocity": 0.8661417322834646
        },
        {
          "duration": 0.19583333333335418,
          "durationTicks": 94,
          "midi": 42,
          "name": "F#2",
          "ticks": 61536,
          "time": 128.2,
          "velocity": 0.8661417322834646
        },
        {
          "duration": 0.19583333333335418,
          "durationTicks": 94,
          "midi": 46,
          "name": "A#2",
          "ticks": 61728,
          "time": 128.6,
          "velocity": 0.8661417322834646
        },
        {
          "duration": 0.19583333333332575,
          "durationTicks": 94,
          "midi": 44,
          "name": "G#2",
          "ticks": 61824,
          "time": 128.8,
          "velocity": 0.8661417322834646
        },
        {
          "duration": 0.19583333333332575,
          "durationTicks": 94,
          "midi": 46,
          "name": "A#2",
          "ticks": 61920,
          "time": 129,
          "velocity": 0.8661417322834646
        },
        {
          "duration": 0.09583333333335986,
          "durationTicks": 46,
          "midi": 44,
          "name": "G#2",
          "ticks": 62016,
          "time": 129.2,
          "velocity": 0.8661417322834646
        },
        {
          "duration": 0.09583333333333144,
          "durationTicks": 46,
          "midi": 42,
          "name": "F#2",
          "ticks": 62064,
          "time": 129.3,
          "velocity": 0.8661417322834646
        },
        {
          "duration": 0.09583333333333144,
          "durationTicks": 46,
          "midi": 42,
          "name": "F#2",
          "ticks": 62112,
          "time": 129.4,
          "velocity": 0.8661417322834646
        },
        {
          "duration": 0.19583333333332575,
          "durationTicks": 94,
          "midi": 42,
          "name": "F#2",
          "ticks": 62304,
          "time": 129.8,
          "velocity": 0.8661417322834646
        },
        {
          "duration": 0.19583333333335418,
          "durationTicks": 94,
          "midi": 46,
          "name": "A#2",
          "ticks": 62496,
          "time": 130.2,
          "velocity": 0.8661417322834646
        },
        {
          "duration": 0.19583333333332575,
          "durationTicks": 94,
          "midi": 44,
          "name": "G#2",
          "ticks": 62592,
          "time": 130.4,
          "velocity": 0.8661417322834646
        },
        {
          "duration": 0.19583333333335418,
          "durationTicks": 94,
          "midi": 46,
          "name": "A#2",
          "ticks": 62688,
          "time": 130.6,
          "velocity": 0.8661417322834646
        },
        {
          "duration": 0.09583333333333144,
          "durationTicks": 46,
          "midi": 44,
          "name": "G#2",
          "ticks": 62784,
          "time": 130.8,
          "velocity": 0.8661417322834646
        },
        {
          "duration": 0.09583333333333144,
          "durationTicks": 46,
          "midi": 42,
          "name": "F#2",
          "ticks": 62832,
          "time": 130.9,
          "velocity": 0.8661417322834646
        },
        {
          "duration": 0.09583333333333144,
          "durationTicks": 46,
          "midi": 42,
          "name": "F#2",
          "ticks": 62880,
          "time": 131,
          "velocity": 0.8661417322834646
        },
        {
          "duration": 0.19583333333332575,
          "durationTicks": 94,
          "midi": 42,
          "name": "F#2",
          "ticks": 63072,
          "time": 131.4,
          "velocity": 0.8661417322834646
        },
        {
          "duration": 0.19583333333332575,
          "durationTicks": 94,
          "midi": 46,
          "name": "A#2",
          "ticks": 63264,
          "time": 131.8,
          "velocity": 0.8661417322834646
        },
        {
          "duration": 0.19583333333332575,
          "durationTicks": 94,
          "midi": 44,
          "name": "G#2",
          "ticks": 63360,
          "time": 132,
          "velocity": 0.8661417322834646
        },
        {
          "duration": 0.19583333333335418,
          "durationTicks": 94,
          "midi": 46,
          "name": "A#2",
          "ticks": 63456,
          "time": 132.2,
          "velocity": 0.8661417322834646
        },
        {
          "duration": 0.09583333333333144,
          "durationTicks": 46,
          "midi": 44,
          "name": "G#2",
          "ticks": 63552,
          "time": 132.4,
          "velocity": 0.8661417322834646
        },
        {
          "duration": 0.09583333333333144,
          "durationTicks": 46,
          "midi": 42,
          "name": "F#2",
          "ticks": 63600,
          "time": 132.5,
          "velocity": 0.8661417322834646
        },
        {
          "duration": 0.09583333333333144,
          "durationTicks": 46,
          "midi": 42,
          "name": "F#2",
          "ticks": 63648,
          "time": 132.6,
          "velocity": 0.8661417322834646
        },
        {
          "duration": 0.19583333333332575,
          "durationTicks": 94,
          "midi": 42,
          "name": "F#2",
          "ticks": 63840,
          "time": 133,
          "velocity": 0.8661417322834646
        },
        {
          "duration": 0.19583333333332575,
          "durationTicks": 94,
          "midi": 46,
          "name": "A#2",
          "ticks": 64032,
          "time": 133.4,
          "velocity": 0.8661417322834646
        },
        {
          "duration": 0.19583333333335418,
          "durationTicks": 94,
          "midi": 44,
          "name": "G#2",
          "ticks": 64128,
          "time": 133.6,
          "velocity": 0.8661417322834646
        },
        {
          "duration": 0.19583333333332575,
          "durationTicks": 94,
          "midi": 46,
          "name": "A#2",
          "ticks": 64224,
          "time": 133.8,
          "velocity": 0.8661417322834646
        },
        {
          "duration": 0.09583333333333144,
          "durationTicks": 46,
          "midi": 44,
          "name": "G#2",
          "ticks": 64320,
          "time": 134,
          "velocity": 0.8661417322834646
        },
        {
          "duration": 0.09583333333333144,
          "durationTicks": 46,
          "midi": 42,
          "name": "F#2",
          "ticks": 64368,
          "time": 134.1,
          "velocity": 0.8661417322834646
        },
        {
          "duration": 0.09583333333335986,
          "durationTicks": 46,
          "midi": 42,
          "name": "F#2",
          "ticks": 64416,
          "time": 134.2,
          "velocity": 0.8661417322834646
        },
        {
          "duration": 0.19583333333335418,
          "durationTicks": 94,
          "midi": 42,
          "name": "F#2",
          "ticks": 64608,
          "time": 134.6,
          "velocity": 0.8661417322834646
        },
        {
          "duration": 0.19583333333332575,
          "durationTicks": 94,
          "midi": 46,
          "name": "A#2",
          "ticks": 64800,
          "time": 135,
          "velocity": 0.8661417322834646
        },
        {
          "duration": 0.19583333333335418,
          "durationTicks": 94,
          "midi": 44,
          "name": "G#2",
          "ticks": 64896,
          "time": 135.2,
          "velocity": 0.8661417322834646
        },
        {
          "duration": 0.19583333333332575,
          "durationTicks": 94,
          "midi": 46,
          "name": "A#2",
          "ticks": 64992,
          "time": 135.4,
          "velocity": 0.8661417322834646
        },
        {
          "duration": 0.09583333333333144,
          "durationTicks": 46,
          "midi": 44,
          "name": "G#2",
          "ticks": 65088,
          "time": 135.6,
          "velocity": 0.8661417322834646
        },
        {
          "duration": 0.09583333333335986,
          "durationTicks": 46,
          "midi": 42,
          "name": "F#2",
          "ticks": 65136,
          "time": 135.7,
          "velocity": 0.8661417322834646
        },
        {
          "duration": 0.09583333333333144,
          "durationTicks": 46,
          "midi": 42,
          "name": "F#2",
          "ticks": 65184,
          "time": 135.8,
          "velocity": 0.8661417322834646
        },
        {
          "duration": 0.19583333333335418,
          "durationTicks": 94,
          "midi": 42,
          "name": "F#2",
          "ticks": 65376,
          "time": 136.2,
          "velocity": 0.8661417322834646
        },
        {
          "duration": 0.19583333333335418,
          "durationTicks": 94,
          "midi": 46,
          "name": "A#2",
          "ticks": 65568,
          "time": 136.6,
          "velocity": 0.8661417322834646
        },
        {
          "duration": 0.19583333333332575,
          "durationTicks": 94,
          "midi": 44,
          "name": "G#2",
          "ticks": 65664,
          "time": 136.8,
          "velocity": 0.8661417322834646
        },
        {
          "duration": 0.19583333333332575,
          "durationTicks": 94,
          "midi": 46,
          "name": "A#2",
          "ticks": 65760,
          "time": 137,
          "velocity": 0.8661417322834646
        },
        {
          "duration": 0.09583333333335986,
          "durationTicks": 46,
          "midi": 44,
          "name": "G#2",
          "ticks": 65856,
          "time": 137.2,
          "velocity": 0.8661417322834646
        },
        {
          "duration": 0.09583333333333144,
          "durationTicks": 46,
          "midi": 42,
          "name": "F#2",
          "ticks": 65904,
          "time": 137.3,
          "velocity": 0.8661417322834646
        },
        {
          "duration": 0.09583333333333144,
          "durationTicks": 46,
          "midi": 42,
          "name": "F#2",
          "ticks": 65952,
          "time": 137.4,
          "velocity": 0.8661417322834646
        },
        {
          "duration": 0.19583333333332575,
          "durationTicks": 94,
          "midi": 42,
          "name": "F#2",
          "ticks": 66144,
          "time": 137.8,
          "velocity": 0.8661417322834646
        },
        {
          "duration": 0.19583333333335418,
          "durationTicks": 94,
          "midi": 46,
          "name": "A#2",
          "ticks": 66336,
          "time": 138.2,
          "velocity": 0.8661417322834646
        },
        {
          "duration": 0.19583333333332575,
          "durationTicks": 94,
          "midi": 44,
          "name": "G#2",
          "ticks": 66432,
          "time": 138.4,
          "velocity": 0.8661417322834646
        },
        {
          "duration": 0.19583333333335418,
          "durationTicks": 94,
          "midi": 46,
          "name": "A#2",
          "ticks": 66528,
          "time": 138.6,
          "velocity": 0.8661417322834646
        },
        {
          "duration": 0.09583333333333144,
          "durationTicks": 46,
          "midi": 44,
          "name": "G#2",
          "ticks": 66624,
          "time": 138.8,
          "velocity": 0.8661417322834646
        },
        {
          "duration": 0.09583333333333144,
          "durationTicks": 46,
          "midi": 42,
          "name": "F#2",
          "ticks": 66672,
          "time": 138.9,
          "velocity": 0.8661417322834646
        },
        {
          "duration": 0.09583333333333144,
          "durationTicks": 46,
          "midi": 42,
          "name": "F#2",
          "ticks": 66720,
          "time": 139,
          "velocity": 0.8661417322834646
        },
        {
          "duration": 0.19583333333332575,
          "durationTicks": 94,
          "midi": 42,
          "name": "F#2",
          "ticks": 66912,
          "time": 139.4,
          "velocity": 0.8661417322834646
        },
        {
          "duration": 0.19583333333332575,
          "durationTicks": 94,
          "midi": 46,
          "name": "A#2",
          "ticks": 67104,
          "time": 139.8,
          "velocity": 0.8661417322834646
        },
        {
          "duration": 0.19583333333332575,
          "durationTicks": 94,
          "midi": 44,
          "name": "G#2",
          "ticks": 67200,
          "time": 140,
          "velocity": 0.8661417322834646
        },
        {
          "duration": 0.19583333333335418,
          "durationTicks": 94,
          "midi": 46,
          "name": "A#2",
          "ticks": 67296,
          "time": 140.2,
          "velocity": 0.8661417322834646
        },
        {
          "duration": 0.09583333333333144,
          "durationTicks": 46,
          "midi": 44,
          "name": "G#2",
          "ticks": 67392,
          "time": 140.4,
          "velocity": 0.8661417322834646
        },
        {
          "duration": 0.09583333333333144,
          "durationTicks": 46,
          "midi": 42,
          "name": "F#2",
          "ticks": 67440,
          "time": 140.5,
          "velocity": 0.8661417322834646
        },
        {
          "duration": 0.09583333333333144,
          "durationTicks": 46,
          "midi": 42,
          "name": "F#2",
          "ticks": 67488,
          "time": 140.6,
          "velocity": 0.8661417322834646
        },
        {
          "duration": 0.19583333333332575,
          "durationTicks": 94,
          "midi": 42,
          "name": "F#2",
          "ticks": 67680,
          "time": 141,
          "velocity": 0.8661417322834646
        },
        {
          "duration": 0.19583333333332575,
          "durationTicks": 94,
          "midi": 46,
          "name": "A#2",
          "ticks": 67872,
          "time": 141.4,
          "velocity": 0.8661417322834646
        },
        {
          "duration": 0.19583333333335418,
          "durationTicks": 94,
          "midi": 44,
          "name": "G#2",
          "ticks": 67968,
          "time": 141.6,
          "velocity": 0.8661417322834646
        },
        {
          "duration": 0.19583333333332575,
          "durationTicks": 94,
          "midi": 46,
          "name": "A#2",
          "ticks": 68064,
          "time": 141.8,
          "velocity": 0.8661417322834646
        },
        {
          "duration": 0.09583333333333144,
          "durationTicks": 46,
          "midi": 44,
          "name": "G#2",
          "ticks": 68160,
          "time": 142,
          "velocity": 0.8661417322834646
        },
        {
          "duration": 0.09583333333333144,
          "durationTicks": 46,
          "midi": 42,
          "name": "F#2",
          "ticks": 68208,
          "time": 142.1,
          "velocity": 0.8661417322834646
        },
        {
          "duration": 0.09583333333335986,
          "durationTicks": 46,
          "midi": 42,
          "name": "F#2",
          "ticks": 68256,
          "time": 142.2,
          "velocity": 0.8661417322834646
        },
        {
          "duration": 0.19583333333335418,
          "durationTicks": 94,
          "midi": 42,
          "name": "F#2",
          "ticks": 68448,
          "time": 142.6,
          "velocity": 0.8661417322834646
        },
        {
          "duration": 0.19583333333332575,
          "durationTicks": 94,
          "midi": 46,
          "name": "A#2",
          "ticks": 68640,
          "time": 143,
          "velocity": 0.8661417322834646
        },
        {
          "duration": 0.19583333333335418,
          "durationTicks": 94,
          "midi": 44,
          "name": "G#2",
          "ticks": 68736,
          "time": 143.2,
          "velocity": 0.8661417322834646
        },
        {
          "duration": 0.19583333333332575,
          "durationTicks": 94,
          "midi": 46,
          "name": "A#2",
          "ticks": 68832,
          "time": 143.4,
          "velocity": 0.8661417322834646
        },
        {
          "duration": 0.09583333333333144,
          "durationTicks": 46,
          "midi": 44,
          "name": "G#2",
          "ticks": 68928,
          "time": 143.6,
          "velocity": 0.8661417322834646
        },
        {
          "duration": 0.09583333333335986,
          "durationTicks": 46,
          "midi": 42,
          "name": "F#2",
          "ticks": 68976,
          "time": 143.7,
          "velocity": 0.8661417322834646
        },
        {
          "duration": 0.09583333333333144,
          "durationTicks": 46,
          "midi": 42,
          "name": "F#2",
          "ticks": 69024,
          "time": 143.8,
          "velocity": 0.8661417322834646
        },
        {
          "duration": 0.19583333333335418,
          "durationTicks": 94,
          "midi": 42,
          "name": "F#2",
          "ticks": 69216,
          "time": 144.2,
          "velocity": 0.8661417322834646
        },
        {
          "duration": 0.19583333333335418,
          "durationTicks": 94,
          "midi": 46,
          "name": "A#2",
          "ticks": 69408,
          "time": 144.6,
          "velocity": 0.8661417322834646
        },
        {
          "duration": 0.19583333333332575,
          "durationTicks": 94,
          "midi": 44,
          "name": "G#2",
          "ticks": 69504,
          "time": 144.8,
          "velocity": 0.8661417322834646
        },
        {
          "duration": 0.19583333333332575,
          "durationTicks": 94,
          "midi": 46,
          "name": "A#2",
          "ticks": 69600,
          "time": 145,
          "velocity": 0.8661417322834646
        },
        {
          "duration": 0.09583333333335986,
          "durationTicks": 46,
          "midi": 44,
          "name": "G#2",
          "ticks": 69696,
          "time": 145.2,
          "velocity": 0.8661417322834646
        },
        {
          "duration": 0.09583333333333144,
          "durationTicks": 46,
          "midi": 42,
          "name": "F#2",
          "ticks": 69744,
          "time": 145.3,
          "velocity": 0.8661417322834646
        },
        {
          "duration": 0.09583333333333144,
          "durationTicks": 46,
          "midi": 42,
          "name": "F#2",
          "ticks": 69792,
          "time": 145.4,
          "velocity": 0.8661417322834646
        },
        {
          "duration": 0.19583333333332575,
          "durationTicks": 94,
          "midi": 42,
          "name": "F#2",
          "ticks": 69984,
          "time": 145.8,
          "velocity": 0.8661417322834646
        },
        {
          "duration": 0.19583333333335418,
          "durationTicks": 94,
          "midi": 46,
          "name": "A#2",
          "ticks": 70176,
          "time": 146.2,
          "velocity": 0.8661417322834646
        },
        {
          "duration": 0.09583333333333144,
          "durationTicks": 46,
          "midi": 42,
          "name": "F#2",
          "ticks": 70272,
          "time": 146.4,
          "velocity": 0.8661417322834646
        },
        {
          "duration": 0.09583333333333144,
          "durationTicks": 46,
          "midi": 42,
          "name": "F#2",
          "ticks": 70368,
          "time": 146.6,
          "velocity": 0.8661417322834646
        },
        {
          "duration": 0.09583333333333144,
          "durationTicks": 46,
          "midi": 42,
          "name": "F#2",
          "ticks": 70464,
          "time": 146.8,
          "velocity": 0.8661417322834646
        },
        {
          "duration": 0.09583333333333144,
          "durationTicks": 46,
          "midi": 42,
          "name": "F#2",
          "ticks": 70512,
          "time": 146.9,
          "velocity": 0.8661417322834646
        },
        {
          "duration": 0.09583333333333144,
          "durationTicks": 46,
          "midi": 46,
          "name": "A#2",
          "ticks": 70560,
          "time": 147,
          "velocity": 0.8661417322834646
        },
        {
          "duration": 0.19583333333335418,
          "durationTicks": 94,
          "midi": 42,
          "name": "F#2",
          "ticks": 70656,
          "time": 147.2,
          "velocity": 0.8661417322834646
        },
        {
          "duration": 0.19583333333335418,
          "durationTicks": 94,
          "midi": 49,
          "name": "C#3",
          "ticks": 70656,
          "time": 147.2,
          "velocity": 0.8661417322834646
        },
        {
          "duration": 0.19583333333332575,
          "durationTicks": 94,
          "midi": 46,
          "name": "A#2",
          "ticks": 70752,
          "time": 147.4,
          "velocity": 0.8661417322834646
        },
        {
          "duration": 0.19583333333335418,
          "durationTicks": 94,
          "midi": 42,
          "name": "F#2",
          "ticks": 70848,
          "time": 147.6,
          "velocity": 0.8661417322834646
        },
        {
          "duration": 0.19583333333332575,
          "durationTicks": 94,
          "midi": 46,
          "name": "A#2",
          "ticks": 70944,
          "time": 147.8,
          "velocity": 0.8661417322834646
        },
        {
          "duration": 0.19583333333332575,
          "durationTicks": 94,
          "midi": 42,
          "name": "F#2",
          "ticks": 71040,
          "time": 148,
          "velocity": 0.8661417322834646
        },
        {
          "duration": 0.19583333333335418,
          "durationTicks": 94,
          "midi": 46,
          "name": "A#2",
          "ticks": 71136,
          "time": 148.2,
          "velocity": 0.8661417322834646
        },
        {
          "duration": 0.19583333333332575,
          "durationTicks": 94,
          "midi": 42,
          "name": "F#2",
          "ticks": 71232,
          "time": 148.4,
          "velocity": 0.8661417322834646
        },
        {
          "duration": 0.19583333333335418,
          "durationTicks": 94,
          "midi": 46,
          "name": "A#2",
          "ticks": 71328,
          "time": 148.6,
          "velocity": 0.8661417322834646
        },
        {
          "duration": 0.19583333333332575,
          "durationTicks": 94,
          "midi": 42,
          "name": "F#2",
          "ticks": 71424,
          "time": 148.8,
          "velocity": 0.8661417322834646
        },
        {
          "duration": 0.19583333333332575,
          "durationTicks": 94,
          "midi": 46,
          "name": "A#2",
          "ticks": 71520,
          "time": 149,
          "velocity": 0.8661417322834646
        },
        {
          "duration": 0.19583333333335418,
          "durationTicks": 94,
          "midi": 42,
          "name": "F#2",
          "ticks": 71616,
          "time": 149.2,
          "velocity": 0.8661417322834646
        },
        {
          "duration": 0.19583333333332575,
          "durationTicks": 94,
          "midi": 46,
          "name": "A#2",
          "ticks": 71712,
          "time": 149.4,
          "velocity": 0.8661417322834646
        },
        {
          "duration": 0.19583333333335418,
          "durationTicks": 94,
          "midi": 42,
          "name": "F#2",
          "ticks": 71808,
          "time": 149.6,
          "velocity": 0.8661417322834646
        },
        {
          "duration": 0.19583333333332575,
          "durationTicks": 94,
          "midi": 46,
          "name": "A#2",
          "ticks": 71904,
          "time": 149.8,
          "velocity": 0.8661417322834646
        },
        {
          "duration": 0.19583333333332575,
          "durationTicks": 94,
          "midi": 42,
          "name": "F#2",
          "ticks": 72000,
          "time": 150,
          "velocity": 0.8661417322834646
        },
        {
          "duration": 0.19583333333335418,
          "durationTicks": 94,
          "midi": 46,
          "name": "A#2",
          "ticks": 72096,
          "time": 150.2,
          "velocity": 0.8661417322834646
        },
        {
          "duration": 0.19583333333332575,
          "durationTicks": 94,
          "midi": 42,
          "name": "F#2",
          "ticks": 72192,
          "time": 150.4,
          "velocity": 0.8661417322834646
        },
        {
          "duration": 0.19583333333335418,
          "durationTicks": 94,
          "midi": 46,
          "name": "A#2",
          "ticks": 72288,
          "time": 150.6,
          "velocity": 0.8661417322834646
        },
        {
          "duration": 0.19583333333332575,
          "durationTicks": 94,
          "midi": 42,
          "name": "F#2",
          "ticks": 72384,
          "time": 150.8,
          "velocity": 0.8661417322834646
        },
        {
          "duration": 0.19583333333332575,
          "durationTicks": 94,
          "midi": 46,
          "name": "A#2",
          "ticks": 72480,
          "time": 151,
          "velocity": 0.8661417322834646
        },
        {
          "duration": 0.19583333333335418,
          "durationTicks": 94,
          "midi": 42,
          "name": "F#2",
          "ticks": 72576,
          "time": 151.2,
          "velocity": 0.8661417322834646
        },
        {
          "duration": 0.19583333333332575,
          "durationTicks": 94,
          "midi": 46,
          "name": "A#2",
          "ticks": 72672,
          "time": 151.4,
          "velocity": 0.8661417322834646
        },
        {
          "duration": 0.19583333333335418,
          "durationTicks": 94,
          "midi": 42,
          "name": "F#2",
          "ticks": 72768,
          "time": 151.6,
          "velocity": 0.8661417322834646
        },
        {
          "duration": 0.19583333333332575,
          "durationTicks": 94,
          "midi": 46,
          "name": "A#2",
          "ticks": 72864,
          "time": 151.8,
          "velocity": 0.8661417322834646
        },
        {
          "duration": 0.19583333333332575,
          "durationTicks": 94,
          "midi": 42,
          "name": "F#2",
          "ticks": 72960,
          "time": 152,
          "velocity": 0.8661417322834646
        },
        {
          "duration": 0.19583333333335418,
          "durationTicks": 94,
          "midi": 46,
          "name": "A#2",
          "ticks": 73056,
          "time": 152.2,
          "velocity": 0.8661417322834646
        },
        {
          "duration": 0.19583333333332575,
          "durationTicks": 94,
          "midi": 42,
          "name": "F#2",
          "ticks": 73152,
          "time": 152.4,
          "velocity": 0.8661417322834646
        },
        {
          "duration": 0.19583333333335418,
          "durationTicks": 94,
          "midi": 46,
          "name": "A#2",
          "ticks": 73248,
          "time": 152.6,
          "velocity": 0.8661417322834646
        },
        {
          "duration": 0.19583333333332575,
          "durationTicks": 94,
          "midi": 42,
          "name": "F#2",
          "ticks": 73344,
          "time": 152.8,
          "velocity": 0.8661417322834646
        },
        {
          "duration": 0.19583333333332575,
          "durationTicks": 94,
          "midi": 46,
          "name": "A#2",
          "ticks": 73440,
          "time": 153,
          "velocity": 0.8661417322834646
        },
        {
          "duration": 0.19583333333335418,
          "durationTicks": 94,
          "midi": 42,
          "name": "F#2",
          "ticks": 73536,
          "time": 153.2,
          "velocity": 0.8661417322834646
        },
        {
          "duration": 0.19583333333332575,
          "durationTicks": 94,
          "midi": 46,
          "name": "A#2",
          "ticks": 73632,
          "time": 153.4,
          "velocity": 0.8661417322834646
        },
        {
          "duration": 0.19583333333332575,
          "durationTicks": 94,
          "midi": 42,
          "name": "F#2",
          "ticks": 73728,
          "time": 153.60000000000002,
          "velocity": 0.8661417322834646
        },
        {
          "duration": 0.19583333333332575,
          "durationTicks": 94,
          "midi": 49,
          "name": "C#3",
          "ticks": 73728,
          "time": 153.60000000000002,
          "velocity": 0.8661417322834646
        },
        {
          "duration": 0.19583333333332575,
          "durationTicks": 94,
          "midi": 46,
          "name": "A#2",
          "ticks": 73824,
          "time": 153.8,
          "velocity": 0.8661417322834646
        },
        {
          "duration": 0.19583333333332575,
          "durationTicks": 94,
          "midi": 42,
          "name": "F#2",
          "ticks": 73920,
          "time": 154,
          "velocity": 0.8661417322834646
        },
        {
          "duration": 0.19583333333335418,
          "durationTicks": 94,
          "midi": 46,
          "name": "A#2",
          "ticks": 74016,
          "time": 154.2,
          "velocity": 0.8661417322834646
        },
        {
          "duration": 0.19583333333332575,
          "durationTicks": 94,
          "midi": 42,
          "name": "F#2",
          "ticks": 74112,
          "time": 154.4,
          "velocity": 0.8661417322834646
        },
        {
          "duration": 0.19583333333332575,
          "durationTicks": 94,
          "midi": 46,
          "name": "A#2",
          "ticks": 74208,
          "time": 154.60000000000002,
          "velocity": 0.8661417322834646
        },
        {
          "duration": 0.19583333333332575,
          "durationTicks": 94,
          "midi": 42,
          "name": "F#2",
          "ticks": 74304,
          "time": 154.8,
          "velocity": 0.8661417322834646
        },
        {
          "duration": 0.19583333333332575,
          "durationTicks": 94,
          "midi": 46,
          "name": "A#2",
          "ticks": 74400,
          "time": 155,
          "velocity": 0.8661417322834646
        },
        {
          "duration": 0.19583333333335418,
          "durationTicks": 94,
          "midi": 42,
          "name": "F#2",
          "ticks": 74496,
          "time": 155.2,
          "velocity": 0.8661417322834646
        },
        {
          "duration": 0.19583333333332575,
          "durationTicks": 94,
          "midi": 46,
          "name": "A#2",
          "ticks": 74592,
          "time": 155.4,
          "velocity": 0.8661417322834646
        },
        {
          "duration": 0.19583333333332575,
          "durationTicks": 94,
          "midi": 42,
          "name": "F#2",
          "ticks": 74688,
          "time": 155.60000000000002,
          "velocity": 0.8661417322834646
        },
        {
          "duration": 0.19583333333332575,
          "durationTicks": 94,
          "midi": 46,
          "name": "A#2",
          "ticks": 74784,
          "time": 155.8,
          "velocity": 0.8661417322834646
        },
        {
          "duration": 0.19583333333332575,
          "durationTicks": 94,
          "midi": 42,
          "name": "F#2",
          "ticks": 74880,
          "time": 156,
          "velocity": 0.8661417322834646
        },
        {
          "duration": 0.19583333333335418,
          "durationTicks": 94,
          "midi": 46,
          "name": "A#2",
          "ticks": 74976,
          "time": 156.2,
          "velocity": 0.8661417322834646
        },
        {
          "duration": 0.19583333333332575,
          "durationTicks": 94,
          "midi": 42,
          "name": "F#2",
          "ticks": 75072,
          "time": 156.4,
          "velocity": 0.8661417322834646
        },
        {
          "duration": 0.19583333333332575,
          "durationTicks": 94,
          "midi": 46,
          "name": "A#2",
          "ticks": 75168,
          "time": 156.60000000000002,
          "velocity": 0.8661417322834646
        },
        {
          "duration": 0.19583333333332575,
          "durationTicks": 94,
          "midi": 42,
          "name": "F#2",
          "ticks": 75264,
          "time": 156.8,
          "velocity": 0.8661417322834646
        },
        {
          "duration": 0.19583333333332575,
          "durationTicks": 94,
          "midi": 46,
          "name": "A#2",
          "ticks": 75360,
          "time": 157,
          "velocity": 0.8661417322834646
        },
        {
          "duration": 0.19583333333335418,
          "durationTicks": 94,
          "midi": 42,
          "name": "F#2",
          "ticks": 75456,
          "time": 157.2,
          "velocity": 0.8661417322834646
        },
        {
          "duration": 0.19583333333332575,
          "durationTicks": 94,
          "midi": 46,
          "name": "A#2",
          "ticks": 75552,
          "time": 157.4,
          "velocity": 0.8661417322834646
        },
        {
          "duration": 0.19583333333332575,
          "durationTicks": 94,
          "midi": 42,
          "name": "F#2",
          "ticks": 75648,
          "time": 157.60000000000002,
          "velocity": 0.8661417322834646
        },
        {
          "duration": 0.19583333333332575,
          "durationTicks": 94,
          "midi": 46,
          "name": "A#2",
          "ticks": 75744,
          "time": 157.8,
          "velocity": 0.8661417322834646
        },
        {
          "duration": 0.19583333333332575,
          "durationTicks": 94,
          "midi": 42,
          "name": "F#2",
          "ticks": 75840,
          "time": 158,
          "velocity": 0.8661417322834646
        },
        {
          "duration": 0.19583333333335418,
          "durationTicks": 94,
          "midi": 46,
          "name": "A#2",
          "ticks": 75936,
          "time": 158.2,
          "velocity": 0.8661417322834646
        },
        {
          "duration": 0.19583333333332575,
          "durationTicks": 94,
          "midi": 42,
          "name": "F#2",
          "ticks": 76032,
          "time": 158.4,
          "velocity": 0.8661417322834646
        },
        {
          "duration": 0.19583333333332575,
          "durationTicks": 94,
          "midi": 46,
          "name": "A#2",
          "ticks": 76128,
          "time": 158.60000000000002,
          "velocity": 0.8661417322834646
        },
        {
          "duration": 0.19583333333332575,
          "durationTicks": 94,
          "midi": 42,
          "name": "F#2",
          "ticks": 76224,
          "time": 158.8,
          "velocity": 0.8661417322834646
        },
        {
          "duration": 0.19583333333332575,
          "durationTicks": 94,
          "midi": 46,
          "name": "A#2",
          "ticks": 76320,
          "time": 159,
          "velocity": 0.8661417322834646
        },
        {
          "duration": 0.19583333333335418,
          "durationTicks": 94,
          "midi": 42,
          "name": "F#2",
          "ticks": 76416,
          "time": 159.2,
          "velocity": 0.8661417322834646
        },
        {
          "duration": 0.19583333333332575,
          "durationTicks": 94,
          "midi": 46,
          "name": "A#2",
          "ticks": 76512,
          "time": 159.4,
          "velocity": 0.8661417322834646
        },
        {
          "duration": 0.19583333333332575,
          "durationTicks": 94,
          "midi": 42,
          "name": "F#2",
          "ticks": 76608,
          "time": 159.60000000000002,
          "velocity": 0.8661417322834646
        },
        {
          "duration": 0.19583333333332575,
          "durationTicks": 94,
          "midi": 46,
          "name": "A#2",
          "ticks": 76704,
          "time": 159.8,
          "velocity": 0.8661417322834646
        },
        {
          "duration": 0.19583333333332575,
          "durationTicks": 94,
          "midi": 42,
          "name": "F#2",
          "ticks": 76800,
          "time": 160,
          "velocity": 0.8661417322834646
        },
        {
          "duration": 0.19583333333332575,
          "durationTicks": 94,
          "midi": 49,
          "name": "C#3",
          "ticks": 76800,
          "time": 160,
          "velocity": 0.8661417322834646
        },
        {
          "duration": 0.19583333333335418,
          "durationTicks": 94,
          "midi": 46,
          "name": "A#2",
          "ticks": 76896,
          "time": 160.2,
          "velocity": 0.8661417322834646
        },
        {
          "duration": 0.19583333333332575,
          "durationTicks": 94,
          "midi": 42,
          "name": "F#2",
          "ticks": 76992,
          "time": 160.4,
          "velocity": 0.8661417322834646
        },
        {
          "duration": 0.19583333333332575,
          "durationTicks": 94,
          "midi": 46,
          "name": "A#2",
          "ticks": 77088,
          "time": 160.60000000000002,
          "velocity": 0.8661417322834646
        },
        {
          "duration": 0.19583333333332575,
          "durationTicks": 94,
          "midi": 42,
          "name": "F#2",
          "ticks": 77184,
          "time": 160.8,
          "velocity": 0.8661417322834646
        },
        {
          "duration": 0.19583333333332575,
          "durationTicks": 94,
          "midi": 46,
          "name": "A#2",
          "ticks": 77280,
          "time": 161,
          "velocity": 0.8661417322834646
        },
        {
          "duration": 0.19583333333335418,
          "durationTicks": 94,
          "midi": 42,
          "name": "F#2",
          "ticks": 77376,
          "time": 161.2,
          "velocity": 0.8661417322834646
        },
        {
          "duration": 0.19583333333332575,
          "durationTicks": 94,
          "midi": 46,
          "name": "A#2",
          "ticks": 77472,
          "time": 161.4,
          "velocity": 0.8661417322834646
        },
        {
          "duration": 0.19583333333332575,
          "durationTicks": 94,
          "midi": 42,
          "name": "F#2",
          "ticks": 77568,
          "time": 161.60000000000002,
          "velocity": 0.8661417322834646
        },
        {
          "duration": 0.19583333333332575,
          "durationTicks": 94,
          "midi": 46,
          "name": "A#2",
          "ticks": 77664,
          "time": 161.8,
          "velocity": 0.8661417322834646
        },
        {
          "duration": 0.19583333333332575,
          "durationTicks": 94,
          "midi": 42,
          "name": "F#2",
          "ticks": 77760,
          "time": 162,
          "velocity": 0.8661417322834646
        },
        {
          "duration": 0.19583333333335418,
          "durationTicks": 94,
          "midi": 46,
          "name": "A#2",
          "ticks": 77856,
          "time": 162.2,
          "velocity": 0.8661417322834646
        },
        {
          "duration": 0.19583333333332575,
          "durationTicks": 94,
          "midi": 42,
          "name": "F#2",
          "ticks": 77952,
          "time": 162.4,
          "velocity": 0.8661417322834646
        },
        {
          "duration": 0.19583333333332575,
          "durationTicks": 94,
          "midi": 46,
          "name": "A#2",
          "ticks": 78048,
          "time": 162.60000000000002,
          "velocity": 0.8661417322834646
        },
        {
          "duration": 0.19583333333332575,
          "durationTicks": 94,
          "midi": 42,
          "name": "F#2",
          "ticks": 78144,
          "time": 162.8,
          "velocity": 0.8661417322834646
        },
        {
          "duration": 0.19583333333332575,
          "durationTicks": 94,
          "midi": 46,
          "name": "A#2",
          "ticks": 78240,
          "time": 163,
          "velocity": 0.8661417322834646
        },
        {
          "duration": 0.19583333333335418,
          "durationTicks": 94,
          "midi": 42,
          "name": "F#2",
          "ticks": 78336,
          "time": 163.2,
          "velocity": 0.8661417322834646
        },
        {
          "duration": 0.19583333333332575,
          "durationTicks": 94,
          "midi": 46,
          "name": "A#2",
          "ticks": 78432,
          "time": 163.4,
          "velocity": 0.8661417322834646
        },
        {
          "duration": 0.19583333333332575,
          "durationTicks": 94,
          "midi": 42,
          "name": "F#2",
          "ticks": 78528,
          "time": 163.60000000000002,
          "velocity": 0.8661417322834646
        },
        {
          "duration": 0.19583333333332575,
          "durationTicks": 94,
          "midi": 46,
          "name": "A#2",
          "ticks": 78624,
          "time": 163.8,
          "velocity": 0.8661417322834646
        },
        {
          "duration": 0.19583333333332575,
          "durationTicks": 94,
          "midi": 42,
          "name": "F#2",
          "ticks": 78720,
          "time": 164,
          "velocity": 0.8661417322834646
        },
        {
          "duration": 0.19583333333335418,
          "durationTicks": 94,
          "midi": 46,
          "name": "A#2",
          "ticks": 78816,
          "time": 164.2,
          "velocity": 0.8661417322834646
        },
        {
          "duration": 0.19583333333332575,
          "durationTicks": 94,
          "midi": 42,
          "name": "F#2",
          "ticks": 78912,
          "time": 164.4,
          "velocity": 0.8661417322834646
        },
        {
          "duration": 0.19583333333332575,
          "durationTicks": 94,
          "midi": 46,
          "name": "A#2",
          "ticks": 79008,
          "time": 164.60000000000002,
          "velocity": 0.8661417322834646
        },
        {
          "duration": 0.19583333333332575,
          "durationTicks": 94,
          "midi": 42,
          "name": "F#2",
          "ticks": 79104,
          "time": 164.8,
          "velocity": 0.8661417322834646
        },
        {
          "duration": 0.19583333333332575,
          "durationTicks": 94,
          "midi": 46,
          "name": "A#2",
          "ticks": 79200,
          "time": 165,
          "velocity": 0.8661417322834646
        },
        {
          "duration": 0.19583333333335418,
          "durationTicks": 94,
          "midi": 42,
          "name": "F#2",
          "ticks": 79296,
          "time": 165.2,
          "velocity": 0.8661417322834646
        },
        {
          "duration": 0.19583333333332575,
          "durationTicks": 94,
          "midi": 46,
          "name": "A#2",
          "ticks": 79392,
          "time": 165.4,
          "velocity": 0.8661417322834646
        },
        {
          "duration": 0.19583333333332575,
          "durationTicks": 94,
          "midi": 42,
          "name": "F#2",
          "ticks": 79488,
          "time": 165.60000000000002,
          "velocity": 0.8661417322834646
        },
        {
          "duration": 0.19583333333332575,
          "durationTicks": 94,
          "midi": 46,
          "name": "A#2",
          "ticks": 79584,
          "time": 165.8,
          "velocity": 0.8661417322834646
        },
        {
          "duration": 0.19583333333332575,
          "durationTicks": 94,
          "midi": 42,
          "name": "F#2",
          "ticks": 79680,
          "time": 166,
          "velocity": 0.8661417322834646
        },
        {
          "duration": 0.19583333333335418,
          "durationTicks": 94,
          "midi": 46,
          "name": "A#2",
          "ticks": 79776,
          "time": 166.2,
          "velocity": 0.8661417322834646
        }
      ],
      "endOfTrackTicks": 79870
    },
    {
      "channel": 9,
      "controlChanges": {
        "7": [
          {
            "number": 7,
            "ticks": 0,
            "time": 0,
            "value": 1
          }
        ],
        "10": [
          {
            "number": 10,
            "ticks": 0,
            "time": 0,
            "value": 0.5039370078740157
          }
        ]
      },
      "pitchBends": [],
      "instrument": {
        "family": "drums",
        "number": 16,
        "name": "power kit"
      },
      "name": "Staff-1",
      "notes": [
        {
          "duration": 0.33333333333333337,
          "durationTicks": 160,
          "midi": 36,
          "name": "C2",
          "ticks": 0,
          "time": 0,
          "velocity": 0.8503937007874016
        },
        {
          "duration": 0.33333333333333337,
          "durationTicks": 160,
          "midi": 38,
          "name": "D2",
          "ticks": 192,
          "time": 0.4,
          "velocity": 0.8503937007874016
        },
        {
          "duration": 0.3333333333333335,
          "durationTicks": 160,
          "midi": 36,
          "name": "C2",
          "ticks": 384,
          "time": 0.8,
          "velocity": 0.8503937007874016
        },
        {
          "duration": 0.1958333333333333,
          "durationTicks": 94,
          "midi": 38,
          "name": "D2",
          "ticks": 576,
          "time": 1.2000000000000002,
          "velocity": 0.8503937007874016
        },
        {
          "duration": 0.1958333333333333,
          "durationTicks": 94,
          "midi": 36,
          "name": "C2",
          "ticks": 672,
          "time": 1.4000000000000001,
          "velocity": 0.8503937007874016
        },
        {
          "duration": 0.33333333333333326,
          "durationTicks": 160,
          "midi": 36,
          "name": "C2",
          "ticks": 768,
          "time": 1.6,
          "velocity": 0.8503937007874016
        },
        {
          "duration": 0.3333333333333335,
          "durationTicks": 160,
          "midi": 38,
          "name": "D2",
          "ticks": 960,
          "time": 2,
          "velocity": 0.8503937007874016
        },
        {
          "duration": 0.33333333333333304,
          "durationTicks": 160,
          "midi": 36,
          "name": "C2",
          "ticks": 1152,
          "time": 2.4000000000000004,
          "velocity": 0.8503937007874016
        },
        {
          "duration": 0.1958333333333333,
          "durationTicks": 94,
          "midi": 38,
          "name": "D2",
          "ticks": 1344,
          "time": 2.8000000000000003,
          "velocity": 0.8503937007874016
        },
        {
          "duration": 0.1958333333333333,
          "durationTicks": 94,
          "midi": 36,
          "name": "C2",
          "ticks": 1440,
          "time": 3,
          "velocity": 0.8503937007874016
        },
        {
          "duration": 0.3333333333333335,
          "durationTicks": 160,
          "midi": 36,
          "name": "C2",
          "ticks": 1536,
          "time": 3.2,
          "velocity": 0.8503937007874016
        },
        {
          "duration": 0.3333333333333335,
          "durationTicks": 160,
          "midi": 38,
          "name": "D2",
          "ticks": 1728,
          "time": 3.6,
          "velocity": 0.8503937007874016
        },
        {
          "duration": 0.3333333333333339,
          "durationTicks": 160,
          "midi": 36,
          "name": "C2",
          "ticks": 1920,
          "time": 4,
          "velocity": 0.8503937007874016
        },
        {
          "duration": 0.19583333333333375,
          "durationTicks": 94,
          "midi": 38,
          "name": "D2",
          "ticks": 2112,
          "time": 4.4,
          "velocity": 0.8503937007874016
        },
        {
          "duration": 0.19583333333333286,
          "durationTicks": 94,
          "midi": 36,
          "name": "C2",
          "ticks": 2208,
          "time": 4.6000000000000005,
          "velocity": 0.8503937007874016
        },
        {
          "duration": 0.33333333333333304,
          "durationTicks": 160,
          "midi": 36,
          "name": "C2",
          "ticks": 2304,
          "time": 4.800000000000001,
          "velocity": 0.8503937007874016
        },
        {
          "duration": 0.3333333333333339,
          "durationTicks": 160,
          "midi": 38,
          "name": "D2",
          "ticks": 2496,
          "time": 5.2,
          "velocity": 0.8503937007874016
        },
        {
          "duration": 0.33333333333333304,
          "durationTicks": 160,
          "midi": 36,
          "name": "C2",
          "ticks": 2688,
          "time": 5.6000000000000005,
          "velocity": 0.8503937007874016
        },
        {
          "duration": 0.19583333333333375,
          "durationTicks": 94,
          "midi": 38,
          "name": "D2",
          "ticks": 2880,
          "time": 6,
          "velocity": 0.8503937007874016
        },
        {
          "duration": 0.19583333333333375,
          "durationTicks": 94,
          "midi": 36,
          "name": "C2",
          "ticks": 2976,
          "time": 6.2,
          "velocity": 0.8503937007874016
        },
        {
          "duration": 0.33333333333333304,
          "durationTicks": 160,
          "midi": 36,
          "name": "C2",
          "ticks": 3072,
          "time": 6.4,
          "velocity": 0.8503937007874016
        },
        {
          "duration": 0.33333333333333215,
          "durationTicks": 160,
          "midi": 38,
          "name": "D2",
          "ticks": 3264,
          "time": 6.800000000000001,
          "velocity": 0.8503937007874016
        },
        {
          "duration": 0.33333333333333304,
          "durationTicks": 160,
          "midi": 36,
          "name": "C2",
          "ticks": 3456,
          "time": 7.2,
          "velocity": 0.8503937007874016
        },
        {
          "duration": 0.19583333333333286,
          "durationTicks": 94,
          "midi": 38,
          "name": "D2",
          "ticks": 3648,
          "time": 7.6000000000000005,
          "velocity": 0.8503937007874016
        },
        {
          "duration": 0.19583333333333286,
          "durationTicks": 94,
          "midi": 36,
          "name": "C2",
          "ticks": 3744,
          "time": 7.800000000000001,
          "velocity": 0.8503937007874016
        },
        {
          "duration": 0.3333333333333339,
          "durationTicks": 160,
          "midi": 36,
          "name": "C2",
          "ticks": 3840,
          "time": 8,
          "velocity": 0.8503937007874016
        },
        {
          "duration": 0.33333333333333215,
          "durationTicks": 160,
          "midi": 38,
          "name": "D2",
          "ticks": 4032,
          "time": 8.4,
          "velocity": 0.8503937007874016
        },
        {
          "duration": 0.33333333333333215,
          "durationTicks": 160,
          "midi": 36,
          "name": "C2",
          "ticks": 4224,
          "time": 8.8,
          "velocity": 0.8503937007874016
        },
        {
          "duration": 0.19583333333333286,
          "durationTicks": 94,
          "midi": 38,
          "name": "D2",
          "ticks": 4416,
          "time": 9.200000000000001,
          "velocity": 0.8503937007874016
        },
        {
          "duration": 0.19583333333333286,
          "durationTicks": 94,
          "midi": 36,
          "name": "C2",
          "ticks": 4512,
          "time": 9.4,
          "velocity": 0.8503937007874016
        },
        {
          "duration": 0.33333333333333215,
          "durationTicks": 160,
          "midi": 36,
          "name": "C2",
          "ticks": 4608,
          "time": 9.600000000000001,
          "velocity": 0.8503937007874016
        },
        {
          "duration": 0.3333333333333339,
          "durationTicks": 160,
          "midi": 38,
          "name": "D2",
          "ticks": 4800,
          "time": 10,
          "velocity": 0.8503937007874016
        },
        {
          "duration": 0.3333333333333339,
          "durationTicks": 160,
          "midi": 36,
          "name": "C2",
          "ticks": 4992,
          "time": 10.4,
          "velocity": 0.8503937007874016
        },
        {
          "duration": 0.19583333333333286,
          "durationTicks": 94,
          "midi": 38,
          "name": "D2",
          "ticks": 5184,
          "time": 10.8,
          "velocity": 0.8503937007874016
        },
        {
          "duration": 0.19583333333333286,
          "durationTicks": 94,
          "midi": 36,
          "name": "C2",
          "ticks": 5280,
          "time": 11,
          "velocity": 0.8503937007874016
        },
        {
          "duration": 0.33333333333333215,
          "durationTicks": 160,
          "midi": 36,
          "name": "C2",
          "ticks": 5376,
          "time": 11.200000000000001,
          "velocity": 0.8503937007874016
        },
        {
          "duration": 0.33333333333333215,
          "durationTicks": 160,
          "midi": 38,
          "name": "D2",
          "ticks": 5568,
          "time": 11.600000000000001,
          "velocity": 0.8503937007874016
        },
        {
          "duration": 0.3333333333333339,
          "durationTicks": 160,
          "midi": 36,
          "name": "C2",
          "ticks": 5760,
          "time": 12,
          "velocity": 0.8503937007874016
        },
        {
          "duration": 0.19583333333333286,
          "durationTicks": 94,
          "midi": 38,
          "name": "D2",
          "ticks": 5952,
          "time": 12.4,
          "velocity": 0.8503937007874016
        },
        {
          "duration": 0.19583333333333286,
          "durationTicks": 94,
          "midi": 36,
          "name": "C2",
          "ticks": 6048,
          "time": 12.600000000000001,
          "velocity": 0.8503937007874016
        },
        {
          "duration": 0.3333333333333339,
          "durationTicks": 160,
          "midi": 36,
          "name": "C2",
          "ticks": 6144,
          "time": 12.8,
          "velocity": 0.8503937007874016
        },
        {
          "duration": 0.3333333333333339,
          "durationTicks": 160,
          "midi": 38,
          "name": "D2",
          "ticks": 6336,
          "time": 13.200000000000001,
          "velocity": 0.8503937007874016
        },
        {
          "duration": 0.3333333333333339,
          "durationTicks": 160,
          "midi": 36,
          "name": "C2",
          "ticks": 6528,
          "time": 13.600000000000001,
          "velocity": 0.8503937007874016
        },
        {
          "duration": 0.19583333333333464,
          "durationTicks": 94,
          "midi": 38,
          "name": "D2",
          "ticks": 6720,
          "time": 14,
          "velocity": 0.8503937007874016
        },
        {
          "duration": 0.19583333333333464,
          "durationTicks": 94,
          "midi": 36,
          "name": "C2",
          "ticks": 6816,
          "time": 14.200000000000001,
          "velocity": 0.8503937007874016
        },
        {
          "duration": 0.3333333333333339,
          "durationTicks": 160,
          "midi": 36,
          "name": "C2",
          "ticks": 6912,
          "time": 14.4,
          "velocity": 0.8503937007874016
        },
        {
          "duration": 0.3333333333333339,
          "durationTicks": 160,
          "midi": 38,
          "name": "D2",
          "ticks": 7104,
          "time": 14.8,
          "velocity": 0.8503937007874016
        },
        {
          "duration": 0.3333333333333339,
          "durationTicks": 160,
          "midi": 36,
          "name": "C2",
          "ticks": 7296,
          "time": 15.200000000000001,
          "velocity": 0.8503937007874016
        },
        {
          "duration": 0.19583333333333286,
          "durationTicks": 94,
          "midi": 38,
          "name": "D2",
          "ticks": 7488,
          "time": 15.600000000000001,
          "velocity": 0.8503937007874016
        },
        {
          "duration": 0.19583333333333464,
          "durationTicks": 94,
          "midi": 36,
          "name": "C2",
          "ticks": 7584,
          "time": 15.8,
          "velocity": 0.8503937007874016
        },
        {
          "duration": 0.3333333333333357,
          "durationTicks": 160,
          "midi": 36,
          "name": "C2",
          "ticks": 7680,
          "time": 16,
          "velocity": 0.8503937007874016
        },
        {
          "duration": 0.33333333333333215,
          "durationTicks": 160,
          "midi": 38,
          "name": "D2",
          "ticks": 7872,
          "time": 16.400000000000002,
          "velocity": 0.8503937007874016
        },
        {
          "duration": 0.3333333333333357,
          "durationTicks": 160,
          "midi": 36,
          "name": "C2",
          "ticks": 8064,
          "time": 16.8,
          "velocity": 0.8503937007874016
        },
        {
          "duration": 0.1958333333333364,
          "durationTicks": 94,
          "midi": 38,
          "name": "D2",
          "ticks": 8256,
          "time": 17.2,
          "velocity": 0.8503937007874016
        },
        {
          "duration": 0.19583333333333286,
          "durationTicks": 94,
          "midi": 36,
          "name": "C2",
          "ticks": 8352,
          "time": 17.400000000000002,
          "velocity": 0.8503937007874016
        },
        {
          "duration": 0.33333333333333215,
          "durationTicks": 160,
          "midi": 36,
          "name": "C2",
          "ticks": 8448,
          "time": 17.6,
          "velocity": 0.8503937007874016
        },
        {
          "duration": 0.3333333333333357,
          "durationTicks": 160,
          "midi": 38,
          "name": "D2",
          "ticks": 8640,
          "time": 18,
          "velocity": 0.8503937007874016
        },
        {
          "duration": 0.33333333333333215,
          "durationTicks": 160,
          "midi": 36,
          "name": "C2",
          "ticks": 8832,
          "time": 18.400000000000002,
          "velocity": 0.8503937007874016
        },
        {
          "duration": 0.19583333333333286,
          "durationTicks": 94,
          "midi": 38,
          "name": "D2",
          "ticks": 9024,
          "time": 18.8,
          "velocity": 0.8503937007874016
        },
        {
          "duration": 0.1958333333333364,
          "durationTicks": 94,
          "midi": 36,
          "name": "C2",
          "ticks": 9120,
          "time": 19,
          "velocity": 0.8503937007874016
        },
        {
          "duration": 0.33333333333333215,
          "durationTicks": 160,
          "midi": 36,
          "name": "C2",
          "ticks": 9216,
          "time": 19.200000000000003,
          "velocity": 0.8503937007874016
        },
        {
          "duration": 0.3333333333333357,
          "durationTicks": 160,
          "midi": 38,
          "name": "D2",
          "ticks": 9408,
          "time": 19.6,
          "velocity": 0.8503937007874016
        },
        {
          "duration": 0.3333333333333357,
          "durationTicks": 160,
          "midi": 36,
          "name": "C2",
          "ticks": 9600,
          "time": 20,
          "velocity": 0.8503937007874016
        },
        {
          "duration": 0.19583333333333286,
          "durationTicks": 94,
          "midi": 38,
          "name": "D2",
          "ticks": 9792,
          "time": 20.400000000000002,
          "velocity": 0.8503937007874016
        },
        {
          "duration": 0.19583333333333286,
          "durationTicks": 94,
          "midi": 36,
          "name": "C2",
          "ticks": 9888,
          "time": 20.6,
          "velocity": 0.8503937007874016
        },
        {
          "duration": 0.3333333333333357,
          "durationTicks": 160,
          "midi": 36,
          "name": "C2",
          "ticks": 9984,
          "time": 20.8,
          "velocity": 0.8503937007874016
        },
        {
          "duration": 0.33333333333333215,
          "durationTicks": 160,
          "midi": 38,
          "name": "D2",
          "ticks": 10176,
          "time": 21.200000000000003,
          "velocity": 0.8503937007874016
        },
        {
          "duration": 0.3333333333333357,
          "durationTicks": 160,
          "midi": 36,
          "name": "C2",
          "ticks": 10368,
          "time": 21.6,
          "velocity": 0.8503937007874016
        },
        {
          "duration": 0.1958333333333364,
          "durationTicks": 94,
          "midi": 38,
          "name": "D2",
          "ticks": 10560,
          "time": 22,
          "velocity": 0.8503937007874016
        },
        {
          "duration": 0.19583333333333286,
          "durationTicks": 94,
          "midi": 36,
          "name": "C2",
          "ticks": 10656,
          "time": 22.200000000000003,
          "velocity": 0.8503937007874016
        },
        {
          "duration": 0.33333333333333215,
          "durationTicks": 160,
          "midi": 36,
          "name": "C2",
          "ticks": 10752,
          "time": 22.400000000000002,
          "velocity": 0.8503937007874016
        },
        {
          "duration": 0.3333333333333357,
          "durationTicks": 160,
          "midi": 38,
          "name": "D2",
          "ticks": 10944,
          "time": 22.8,
          "velocity": 0.8503937007874016
        },
        {
          "duration": 0.33333333333333215,
          "durationTicks": 160,
          "midi": 36,
          "name": "C2",
          "ticks": 11136,
          "time": 23.200000000000003,
          "velocity": 0.8503937007874016
        },
        {
          "duration": 0.19583333333333286,
          "durationTicks": 94,
          "midi": 38,
          "name": "D2",
          "ticks": 11328,
          "time": 23.6,
          "velocity": 0.8503937007874016
        },
        {
          "duration": 0.1958333333333364,
          "durationTicks": 94,
          "midi": 36,
          "name": "C2",
          "ticks": 11424,
          "time": 23.8,
          "velocity": 0.8503937007874016
        },
        {
          "duration": 0.3333333333333357,
          "durationTicks": 160,
          "midi": 36,
          "name": "C2",
          "ticks": 11520,
          "time": 24,
          "velocity": 0.8503937007874016
        },
        {
          "duration": 0.33333333333333215,
          "durationTicks": 160,
          "midi": 38,
          "name": "D2",
          "ticks": 11712,
          "time": 24.400000000000002,
          "velocity": 0.8503937007874016
        },
        {
          "duration": 0.3333333333333357,
          "durationTicks": 160,
          "midi": 36,
          "name": "C2",
          "ticks": 11904,
          "time": 24.8,
          "velocity": 0.8503937007874016
        },
        {
          "duration": 0.19583333333333286,
          "durationTicks": 94,
          "midi": 38,
          "name": "D2",
          "ticks": 12096,
          "time": 25.200000000000003,
          "velocity": 0.8503937007874016
        },
        {
          "duration": 0.19583333333333286,
          "durationTicks": 94,
          "midi": 36,
          "name": "C2",
          "ticks": 12192,
          "time": 25.400000000000002,
          "velocity": 0.8503937007874016
        },
        {
          "duration": 0.33333333333333215,
          "durationTicks": 160,
          "midi": 36,
          "name": "C2",
          "ticks": 12288,
          "time": 25.6,
          "velocity": 0.8503937007874016
        },
        {
          "duration": 0.33333333333333215,
          "durationTicks": 160,
          "midi": 38,
          "name": "D2",
          "ticks": 12480,
          "time": 26,
          "velocity": 0.8503937007874016
        },
        {
          "duration": 0.33333333333333215,
          "durationTicks": 160,
          "midi": 36,
          "name": "C2",
          "ticks": 12672,
          "time": 26.400000000000002,
          "velocity": 0.8503937007874016
        },
        {
          "duration": 0.19583333333333286,
          "durationTicks": 94,
          "midi": 38,
          "name": "D2",
          "ticks": 12864,
          "time": 26.8,
          "velocity": 0.8503937007874016
        },
        {
          "duration": 0.19583333333333286,
          "durationTicks": 94,
          "midi": 36,
          "name": "C2",
          "ticks": 12960,
          "time": 27,
          "velocity": 0.8503937007874016
        },
        {
          "duration": 0.3333333333333286,
          "durationTicks": 160,
          "midi": 36,
          "name": "C2",
          "ticks": 13056,
          "time": 27.200000000000003,
          "velocity": 0.8503937007874016
        },
        {
          "duration": 0.33333333333333215,
          "durationTicks": 160,
          "midi": 38,
          "name": "D2",
          "ticks": 13248,
          "time": 27.6,
          "velocity": 0.8503937007874016
        },
        {
          "duration": 0.33333333333333215,
          "durationTicks": 160,
          "midi": 36,
          "name": "C2",
          "ticks": 13440,
          "time": 28,
          "velocity": 0.8503937007874016
        },
        {
          "duration": 0.1958333333333293,
          "durationTicks": 94,
          "midi": 38,
          "name": "D2",
          "ticks": 13632,
          "time": 28.400000000000002,
          "velocity": 0.8503937007874016
        },
        {
          "duration": 0.19583333333333286,
          "durationTicks": 94,
          "midi": 36,
          "name": "C2",
          "ticks": 13728,
          "time": 28.6,
          "velocity": 0.8503937007874016
        },
        {
          "duration": 0.33333333333333215,
          "durationTicks": 160,
          "midi": 36,
          "name": "C2",
          "ticks": 13824,
          "time": 28.8,
          "velocity": 0.8503937007874016
        },
        {
          "duration": 0.3333333333333286,
          "durationTicks": 160,
          "midi": 38,
          "name": "D2",
          "ticks": 14016,
          "time": 29.200000000000003,
          "velocity": 0.8503937007874016
        },
        {
          "duration": 0.33333333333333215,
          "durationTicks": 160,
          "midi": 36,
          "name": "C2",
          "ticks": 14208,
          "time": 29.6,
          "velocity": 0.8503937007874016
        },
        {
          "duration": 0.19583333333333286,
          "durationTicks": 94,
          "midi": 38,
          "name": "D2",
          "ticks": 14400,
          "time": 30,
          "velocity": 0.8503937007874016
        },
        {
          "duration": 0.1958333333333293,
          "durationTicks": 94,
          "midi": 36,
          "name": "C2",
          "ticks": 14496,
          "time": 30.200000000000003,
          "velocity": 0.8503937007874016
        },
        {
          "duration": 0.33333333333333215,
          "durationTicks": 160,
          "midi": 36,
          "name": "C2",
          "ticks": 14592,
          "time": 30.400000000000002,
          "velocity": 0.8503937007874016
        },
        {
          "duration": 0.33333333333333215,
          "durationTicks": 160,
          "midi": 38,
          "name": "D2",
          "ticks": 14784,
          "time": 30.8,
          "velocity": 0.8503937007874016
        },
        {
          "duration": 0.3333333333333286,
          "durationTicks": 160,
          "midi": 36,
          "name": "C2",
          "ticks": 14976,
          "time": 31.200000000000003,
          "velocity": 0.8503937007874016
        },
        {
          "duration": 0.3333333333333357,
          "durationTicks": 160,
          "midi": 36,
          "name": "C2",
          "ticks": 15360,
          "time": 32,
          "velocity": 0.8503937007874016
        },
        {
          "duration": 0.3333333333333357,
          "durationTicks": 160,
          "midi": 38,
          "name": "D2",
          "ticks": 15552,
          "time": 32.4,
          "velocity": 0.8503937007874016
        },
        {
          "duration": 0.3333333333333286,
          "durationTicks": 160,
          "midi": 36,
          "name": "C2",
          "ticks": 15744,
          "time": 32.800000000000004,
          "velocity": 0.8503937007874016
        },
        {
          "duration": 0.19583333333333286,
          "durationTicks": 94,
          "midi": 38,
          "name": "D2",
          "ticks": 15936,
          "time": 33.2,
          "velocity": 0.8503937007874016
        },
        {
          "duration": 0.19583333333333286,
          "durationTicks": 94,
          "midi": 36,
          "name": "C2",
          "ticks": 16032,
          "time": 33.4,
          "velocity": 0.8503937007874016
        },
        {
          "duration": 0.3333333333333286,
          "durationTicks": 160,
          "midi": 36,
          "name": "C2",
          "ticks": 16128,
          "time": 33.6,
          "velocity": 0.8503937007874016
        },
        {
          "duration": 0.3333333333333357,
          "durationTicks": 160,
          "midi": 38,
          "name": "D2",
          "ticks": 16320,
          "time": 34,
          "velocity": 0.8503937007874016
        },
        {
          "duration": 0.3333333333333357,
          "durationTicks": 160,
          "midi": 36,
          "name": "C2",
          "ticks": 16512,
          "time": 34.4,
          "velocity": 0.8503937007874016
        },
        {
          "duration": 0.19583333333332575,
          "durationTicks": 94,
          "midi": 38,
          "name": "D2",
          "ticks": 16704,
          "time": 34.800000000000004,
          "velocity": 0.8503937007874016
        },
        {
          "duration": 0.19583333333333286,
          "durationTicks": 94,
          "midi": 36,
          "name": "C2",
          "ticks": 16800,
          "time": 35,
          "velocity": 0.8503937007874016
        },
        {
          "duration": 0.3333333333333286,
          "durationTicks": 160,
          "midi": 36,
          "name": "C2",
          "ticks": 16896,
          "time": 35.2,
          "velocity": 0.8503937007874016
        },
        {
          "duration": 0.3333333333333286,
          "durationTicks": 160,
          "midi": 38,
          "name": "D2",
          "ticks": 17088,
          "time": 35.6,
          "velocity": 0.8503937007874016
        },
        {
          "duration": 0.3333333333333357,
          "durationTicks": 160,
          "midi": 36,
          "name": "C2",
          "ticks": 17280,
          "time": 36,
          "velocity": 0.8503937007874016
        },
        {
          "duration": 0.19583333333333286,
          "durationTicks": 94,
          "midi": 38,
          "name": "D2",
          "ticks": 17472,
          "time": 36.4,
          "velocity": 0.8503937007874016
        },
        {
          "duration": 0.19583333333333286,
          "durationTicks": 94,
          "midi": 36,
          "name": "C2",
          "ticks": 17568,
          "time": 36.6,
          "velocity": 0.8503937007874016
        },
        {
          "duration": 0.3333333333333286,
          "durationTicks": 160,
          "midi": 36,
          "name": "C2",
          "ticks": 17664,
          "time": 36.800000000000004,
          "velocity": 0.8503937007874016
        },
        {
          "duration": 0.3333333333333286,
          "durationTicks": 160,
          "midi": 38,
          "name": "D2",
          "ticks": 17856,
          "time": 37.2,
          "velocity": 0.8503937007874016
        },
        {
          "duration": 0.3333333333333286,
          "durationTicks": 160,
          "midi": 36,
          "name": "C2",
          "ticks": 18048,
          "time": 37.6,
          "velocity": 0.8503937007874016
        },
        {
          "duration": 0.19583333333333286,
          "durationTicks": 94,
          "midi": 38,
          "name": "D2",
          "ticks": 18240,
          "time": 38,
          "velocity": 0.8503937007874016
        },
        {
          "duration": 0.19583333333333286,
          "durationTicks": 94,
          "midi": 36,
          "name": "C2",
          "ticks": 18336,
          "time": 38.2,
          "velocity": 0.8503937007874016
        },
        {
          "duration": 0.3333333333333286,
          "durationTicks": 160,
          "midi": 36,
          "name": "C2",
          "ticks": 18432,
          "time": 38.400000000000006,
          "velocity": 0.8503937007874016
        },
        {
          "duration": 0.3333333333333286,
          "durationTicks": 160,
          "midi": 38,
          "name": "D2",
          "ticks": 18624,
          "time": 38.800000000000004,
          "velocity": 0.8503937007874016
        },
        {
          "duration": 0.3333333333333286,
          "durationTicks": 160,
          "midi": 36,
          "name": "C2",
          "ticks": 18816,
          "time": 39.2,
          "velocity": 0.8503937007874016
        },
        {
          "duration": 0.19583333333333286,
          "durationTicks": 94,
          "midi": 38,
          "name": "D2",
          "ticks": 19008,
          "time": 39.6,
          "velocity": 0.8503937007874016
        },
        {
          "duration": 0.19583333333333286,
          "durationTicks": 94,
          "midi": 36,
          "name": "C2",
          "ticks": 19104,
          "time": 39.800000000000004,
          "velocity": 0.8503937007874016
        },
        {
          "duration": 0.3333333333333357,
          "durationTicks": 160,
          "midi": 36,
          "name": "C2",
          "ticks": 19200,
          "time": 40,
          "velocity": 0.8503937007874016
        },
        {
          "duration": 0.3333333333333286,
          "durationTicks": 160,
          "midi": 38,
          "name": "D2",
          "ticks": 19392,
          "time": 40.400000000000006,
          "velocity": 0.8503937007874016
        },
        {
          "duration": 0.3333333333333286,
          "durationTicks": 160,
          "midi": 36,
          "name": "C2",
          "ticks": 19584,
          "time": 40.800000000000004,
          "velocity": 0.8503937007874016
        },
        {
          "duration": 0.19583333333333286,
          "durationTicks": 94,
          "midi": 38,
          "name": "D2",
          "ticks": 19776,
          "time": 41.2,
          "velocity": 0.8503937007874016
        },
        {
          "duration": 0.19583333333332575,
          "durationTicks": 94,
          "midi": 36,
          "name": "C2",
          "ticks": 19872,
          "time": 41.400000000000006,
          "velocity": 0.8503937007874016
        },
        {
          "duration": 0.3333333333333357,
          "durationTicks": 160,
          "midi": 36,
          "name": "C2",
          "ticks": 19968,
          "time": 41.6,
          "velocity": 0.8503937007874016
        },
        {
          "duration": 0.3333333333333357,
          "durationTicks": 160,
          "midi": 38,
          "name": "D2",
          "ticks": 20160,
          "time": 42,
          "velocity": 0.8503937007874016
        },
        {
          "duration": 0.3333333333333286,
          "durationTicks": 160,
          "midi": 36,
          "name": "C2",
          "ticks": 20352,
          "time": 42.400000000000006,
          "velocity": 0.8503937007874016
        },
        {
          "duration": 0.19583333333333286,
          "durationTicks": 94,
          "midi": 38,
          "name": "D2",
          "ticks": 20544,
          "time": 42.800000000000004,
          "velocity": 0.8503937007874016
        },
        {
          "duration": 0.19583333333333286,
          "durationTicks": 94,
          "midi": 36,
          "name": "C2",
          "ticks": 20640,
          "time": 43,
          "velocity": 0.8503937007874016
        },
        {
          "duration": 0.3333333333333286,
          "durationTicks": 160,
          "midi": 36,
          "name": "C2",
          "ticks": 20736,
          "time": 43.2,
          "velocity": 0.8503937007874016
        },
        {
          "duration": 0.3333333333333357,
          "durationTicks": 160,
          "midi": 38,
          "name": "D2",
          "ticks": 20928,
          "time": 43.6,
          "velocity": 0.8503937007874016
        },
        {
          "duration": 0.3333333333333357,
          "durationTicks": 160,
          "midi": 36,
          "name": "C2",
          "ticks": 21120,
          "time": 44,
          "velocity": 0.8503937007874016
        },
        {
          "duration": 0.19583333333332575,
          "durationTicks": 94,
          "midi": 38,
          "name": "D2",
          "ticks": 21312,
          "time": 44.400000000000006,
          "velocity": 0.8503937007874016
        },
        {
          "duration": 0.19583333333333286,
          "durationTicks": 94,
          "midi": 36,
          "name": "C2",
          "ticks": 21408,
          "time": 44.6,
          "velocity": 0.8503937007874016
        },
        {
          "duration": 0.3333333333333286,
          "durationTicks": 160,
          "midi": 36,
          "name": "C2",
          "ticks": 21504,
          "time": 44.800000000000004,
          "velocity": 0.8503937007874016
        },
        {
          "duration": 0.3333333333333286,
          "durationTicks": 160,
          "midi": 38,
          "name": "D2",
          "ticks": 21696,
          "time": 45.2,
          "velocity": 0.8503937007874016
        },
        {
          "duration": 0.3333333333333357,
          "durationTicks": 160,
          "midi": 36,
          "name": "C2",
          "ticks": 21888,
          "time": 45.6,
          "velocity": 0.8503937007874016
        },
        {
          "duration": 0.19583333333333286,
          "durationTicks": 94,
          "midi": 38,
          "name": "D2",
          "ticks": 22080,
          "time": 46,
          "velocity": 0.8503937007874016
        },
        {
          "duration": 0.19583333333333286,
          "durationTicks": 94,
          "midi": 36,
          "name": "C2",
          "ticks": 22176,
          "time": 46.2,
          "velocity": 0.8503937007874016
        },
        {
          "duration": 0.3333333333333286,
          "durationTicks": 160,
          "midi": 36,
          "name": "C2",
          "ticks": 22272,
          "time": 46.400000000000006,
          "velocity": 0.8503937007874016
        },
        {
          "duration": 0.3333333333333286,
          "durationTicks": 160,
          "midi": 38,
          "name": "D2",
          "ticks": 22464,
          "time": 46.800000000000004,
          "velocity": 0.8503937007874016
        },
        {
          "duration": 0.3333333333333286,
          "durationTicks": 160,
          "midi": 36,
          "name": "C2",
          "ticks": 22656,
          "time": 47.2,
          "velocity": 0.8503937007874016
        },
        {
          "duration": 0.19583333333333286,
          "durationTicks": 94,
          "midi": 38,
          "name": "D2",
          "ticks": 22848,
          "time": 47.6,
          "velocity": 0.8503937007874016
        },
        {
          "duration": 0.19583333333333286,
          "durationTicks": 94,
          "midi": 36,
          "name": "C2",
          "ticks": 22944,
          "time": 47.800000000000004,
          "velocity": 0.8503937007874016
        },
        {
          "duration": 0.3333333333333357,
          "durationTicks": 160,
          "midi": 36,
          "name": "C2",
          "ticks": 23040,
          "time": 48,
          "velocity": 0.8503937007874016
        },
        {
          "duration": 0.3333333333333286,
          "durationTicks": 160,
          "midi": 38,
          "name": "D2",
          "ticks": 23232,
          "time": 48.400000000000006,
          "velocity": 0.8503937007874016
        },
        {
          "duration": 0.3333333333333286,
          "durationTicks": 160,
          "midi": 36,
          "name": "C2",
          "ticks": 23424,
          "time": 48.800000000000004,
          "velocity": 0.8503937007874016
        },
        {
          "duration": 0.19583333333333286,
          "durationTicks": 94,
          "midi": 38,
          "name": "D2",
          "ticks": 23616,
          "time": 49.2,
          "velocity": 0.8503937007874016
        },
        {
          "duration": 0.19583333333332575,
          "durationTicks": 94,
          "midi": 36,
          "name": "C2",
          "ticks": 23712,
          "time": 49.400000000000006,
          "velocity": 0.8503937007874016
        },
        {
          "duration": 0.3333333333333357,
          "durationTicks": 160,
          "midi": 36,
          "name": "C2",
          "ticks": 23808,
          "time": 49.6,
          "velocity": 0.8503937007874016
        },
        {
          "duration": 0.3333333333333357,
          "durationTicks": 160,
          "midi": 38,
          "name": "D2",
          "ticks": 24000,
          "time": 50,
          "velocity": 0.8503937007874016
        },
        {
          "duration": 0.3333333333333286,
          "durationTicks": 160,
          "midi": 36,
          "name": "C2",
          "ticks": 24192,
          "time": 50.400000000000006,
          "velocity": 0.8503937007874016
        },
        {
          "duration": 0.19583333333333286,
          "durationTicks": 94,
          "midi": 38,
          "name": "D2",
          "ticks": 24384,
          "time": 50.800000000000004,
          "velocity": 0.8503937007874016
        },
        {
          "duration": 0.19583333333333286,
          "durationTicks": 94,
          "midi": 36,
          "name": "C2",
          "ticks": 24480,
          "time": 51,
          "velocity": 0.8503937007874016
        },
        {
          "duration": 0.19583333333333997,
          "durationTicks": 94,
          "midi": 35,
          "name": "B1",
          "ticks": 24576,
          "time": 51.2,
          "velocity": 0.5905511811023622
        },
        {
          "duration": 0.19583333333333286,
          "durationTicks": 94,
          "midi": 40,
          "name": "E2",
          "ticks": 24672,
          "time": 51.400000000000006,
          "velocity": 0.5905511811023622
        },
        {
          "duration": 0.19583333333333997,
          "durationTicks": 94,
          "midi": 35,
          "name": "B1",
          "ticks": 24768,
          "time": 51.6,
          "velocity": 0.5905511811023622
        },
        {
          "duration": 0.19583333333333286,
          "durationTicks": 94,
          "midi": 40,
          "name": "E2",
          "ticks": 24864,
          "time": 51.800000000000004,
          "velocity": 0.5905511811023622
        },
        {
          "duration": 0.19583333333333997,
          "durationTicks": 94,
          "midi": 35,
          "name": "B1",
          "ticks": 24960,
          "time": 52,
          "velocity": 0.5905511811023622
        },
        {
          "duration": 0.19583333333333997,
          "durationTicks": 94,
          "midi": 40,
          "name": "E2",
          "ticks": 25056,
          "time": 52.2,
          "velocity": 0.5905511811023622
        },
        {
          "duration": 0.09583333333333144,
          "durationTicks": 46,
          "midi": 40,
          "name": "E2",
          "ticks": 25152,
          "time": 52.400000000000006,
          "velocity": 0.5905511811023622
        },
        {
          "duration": 0.09583333333333854,
          "durationTicks": 46,
          "midi": 40,
          "name": "E2",
          "ticks": 25200,
          "time": 52.5,
          "velocity": 0.5905511811023622
        },
        {
          "duration": 0.19583333333333997,
          "durationTicks": 94,
          "midi": 40,
          "name": "E2",
          "ticks": 25248,
          "time": 52.6,
          "velocity": 0.5905511811023622
        },
        {
          "duration": 0.19583333333333286,
          "durationTicks": 94,
          "midi": 35,
          "name": "B1",
          "ticks": 25344,
          "time": 52.800000000000004,
          "velocity": 0.5905511811023622
        },
        {
          "duration": 0.19583333333333997,
          "durationTicks": 94,
          "midi": 40,
          "name": "E2",
          "ticks": 25440,
          "time": 53,
          "velocity": 0.5905511811023622
        },
        {
          "duration": 0.19583333333333997,
          "durationTicks": 94,
          "midi": 35,
          "name": "B1",
          "ticks": 25536,
          "time": 53.2,
          "velocity": 0.5905511811023622
        },
        {
          "duration": 0.19583333333333286,
          "durationTicks": 94,
          "midi": 40,
          "name": "E2",
          "ticks": 25632,
          "time": 53.400000000000006,
          "velocity": 0.5905511811023622
        },
        {
          "duration": 0.19583333333333997,
          "durationTicks": 94,
          "midi": 35,
          "name": "B1",
          "ticks": 25728,
          "time": 53.6,
          "velocity": 0.5905511811023622
        },
        {
          "duration": 0.19583333333333286,
          "durationTicks": 94,
          "midi": 40,
          "name": "E2",
          "ticks": 25824,
          "time": 53.800000000000004,
          "velocity": 0.5905511811023622
        },
        {
          "duration": 0.09583333333333854,
          "durationTicks": 46,
          "midi": 40,
          "name": "E2",
          "ticks": 25920,
          "time": 54,
          "velocity": 0.5905511811023622
        },
        {
          "duration": 0.09583333333333854,
          "durationTicks": 46,
          "midi": 40,
          "name": "E2",
          "ticks": 25968,
          "time": 54.1,
          "velocity": 0.5905511811023622
        },
        {
          "duration": 0.19583333333333997,
          "durationTicks": 94,
          "midi": 40,
          "name": "E2",
          "ticks": 26016,
          "time": 54.2,
          "velocity": 0.5905511811023622
        },
        {
          "duration": 0.19583333333333286,
          "durationTicks": 94,
          "midi": 35,
          "name": "B1",
          "ticks": 26112,
          "time": 54.400000000000006,
          "velocity": 0.5905511811023622
        },
        {
          "duration": 0.19583333333333997,
          "durationTicks": 94,
          "midi": 35,
          "name": "B1",
          "ticks": 26208,
          "time": 54.6,
          "velocity": 0.5905511811023622
        },
        {
          "duration": 0.19583333333333286,
          "durationTicks": 94,
          "midi": 40,
          "name": "E2",
          "ticks": 26304,
          "time": 54.800000000000004,
          "velocity": 0.5905511811023622
        },
        {
          "duration": 0.19583333333333997,
          "durationTicks": 94,
          "midi": 35,
          "name": "B1",
          "ticks": 26400,
          "time": 55,
          "velocity": 0.5905511811023622
        },
        {
          "duration": 0.19583333333333997,
          "durationTicks": 94,
          "midi": 40,
          "name": "E2",
          "ticks": 26496,
          "time": 55.2,
          "velocity": 0.5905511811023622
        },
        {
          "duration": 0.19583333333333997,
          "durationTicks": 94,
          "midi": 40,
          "name": "E2",
          "ticks": 26880,
          "time": 56,
          "velocity": 0.5905511811023622
        },
        {
          "duration": 0.19583333333333997,
          "durationTicks": 94,
          "midi": 40,
          "name": "E2",
          "ticks": 26976,
          "time": 56.2,
          "velocity": 0.5905511811023622
        },
        {
          "duration": 0.19583333333333286,
          "durationTicks": 94,
          "midi": 35,
          "name": "B1",
          "ticks": 27072,
          "time": 56.400000000000006,
          "velocity": 0.5905511811023622
        },
        {
          "duration": 0.19583333333333997,
          "durationTicks": 94,
          "midi": 40,
          "name": "E2",
          "ticks": 27168,
          "time": 56.6,
          "velocity": 0.5905511811023622
        },
        {
          "duration": 0.19583333333333286,
          "durationTicks": 94,
          "midi": 35,
          "name": "B1",
          "ticks": 27264,
          "time": 56.800000000000004,
          "velocity": 0.5905511811023622
        },
        {
          "duration": 0.19583333333333286,
          "durationTicks": 94,
          "midi": 2,
          "name": "D-1",
          "ticks": 27552,
          "time": 57.400000000000006,
          "velocity": 0.5905511811023622
        },
        {
          "duration": 0.3333333333333357,
          "durationTicks": 160,
          "midi": 36,
          "name": "C2",
          "ticks": 27648,
          "time": 57.6,
          "velocity": 0.8503937007874016
        },
        {
          "duration": 0.3333333333333357,
          "durationTicks": 160,
          "midi": 38,
          "name": "D2",
          "ticks": 27840,
          "time": 58,
          "velocity": 0.8503937007874016
        },
        {
          "duration": 0.3333333333333357,
          "durationTicks": 160,
          "midi": 36,
          "name": "C2",
          "ticks": 28032,
          "time": 58.4,
          "velocity": 0.8503937007874016
        },
        {
          "duration": 0.19583333333333286,
          "durationTicks": 94,
          "midi": 38,
          "name": "D2",
          "ticks": 28224,
          "time": 58.800000000000004,
          "velocity": 0.8503937007874016
        },
        {
          "duration": 0.19583333333333286,
          "durationTicks": 94,
          "midi": 36,
          "name": "C2",
          "ticks": 28320,
          "time": 59,
          "velocity": 0.8503937007874016
        },
        {
          "duration": 0.3333333333333286,
          "durationTicks": 160,
          "midi": 36,
          "name": "C2",
          "ticks": 28416,
          "time": 59.2,
          "velocity": 0.8503937007874016
        },
        {
          "duration": 0.3333333333333357,
          "durationTicks": 160,
          "midi": 38,
          "name": "D2",
          "ticks": 28608,
          "time": 59.6,
          "velocity": 0.8503937007874016
        },
        {
          "duration": 0.3333333333333357,
          "durationTicks": 160,
          "midi": 36,
          "name": "C2",
          "ticks": 28800,
          "time": 60,
          "velocity": 0.8503937007874016
        },
        {
          "duration": 0.19583333333333286,
          "durationTicks": 94,
          "midi": 38,
          "name": "D2",
          "ticks": 28992,
          "time": 60.4,
          "velocity": 0.8503937007874016
        },
        {
          "duration": 0.19583333333333286,
          "durationTicks": 94,
          "midi": 36,
          "name": "C2",
          "ticks": 29088,
          "time": 60.6,
          "velocity": 0.8503937007874016
        },
        {
          "duration": 0.3333333333333286,
          "durationTicks": 160,
          "midi": 36,
          "name": "C2",
          "ticks": 29184,
          "time": 60.800000000000004,
          "velocity": 0.8503937007874016
        },
        {
          "duration": 0.3333333333333286,
          "durationTicks": 160,
          "midi": 38,
          "name": "D2",
          "ticks": 29376,
          "time": 61.2,
          "velocity": 0.8503937007874016
        },
        {
          "duration": 0.3333333333333357,
          "durationTicks": 160,
          "midi": 36,
          "name": "C2",
          "ticks": 29568,
          "time": 61.6,
          "velocity": 0.8503937007874016
        },
        {
          "duration": 0.19583333333333286,
          "durationTicks": 94,
          "midi": 38,
          "name": "D2",
          "ticks": 29760,
          "time": 62,
          "velocity": 0.8503937007874016
        },
        {
          "duration": 0.19583333333333286,
          "durationTicks": 94,
          "midi": 36,
          "name": "C2",
          "ticks": 29856,
          "time": 62.2,
          "velocity": 0.8503937007874016
        },
        {
          "duration": 0.3333333333333286,
          "durationTicks": 160,
          "midi": 36,
          "name": "C2",
          "ticks": 29952,
          "time": 62.400000000000006,
          "velocity": 0.8503937007874016
        },
        {
          "duration": 0.3333333333333286,
          "durationTicks": 160,
          "midi": 38,
          "name": "D2",
          "ticks": 30144,
          "time": 62.800000000000004,
          "velocity": 0.8503937007874016
        },
        {
          "duration": 0.3333333333333286,
          "durationTicks": 160,
          "midi": 36,
          "name": "C2",
          "ticks": 30336,
          "time": 63.2,
          "velocity": 0.8503937007874016
        },
        {
          "duration": 0.19583333333333286,
          "durationTicks": 94,
          "midi": 38,
          "name": "D2",
          "ticks": 30528,
          "time": 63.6,
          "velocity": 0.8503937007874016
        },
        {
          "duration": 0.19583333333333286,
          "durationTicks": 94,
          "midi": 36,
          "name": "C2",
          "ticks": 30624,
          "time": 63.800000000000004,
          "velocity": 0.8503937007874016
        },
        {
          "duration": 0.3333333333333286,
          "durationTicks": 160,
          "midi": 36,
          "name": "C2",
          "ticks": 30720,
          "time": 64,
          "velocity": 0.8503937007874016
        },
        {
          "duration": 0.3333333333333286,
          "durationTicks": 160,
          "midi": 38,
          "name": "D2",
          "ticks": 30912,
          "time": 64.4,
          "velocity": 0.8503937007874016
        },
        {
          "duration": 0.3333333333333428,
          "durationTicks": 160,
          "midi": 36,
          "name": "C2",
          "ticks": 31104,
          "time": 64.8,
          "velocity": 0.8503937007874016
        },
        {
          "duration": 0.19583333333332575,
          "durationTicks": 94,
          "midi": 38,
          "name": "D2",
          "ticks": 31296,
          "time": 65.2,
          "velocity": 0.8503937007874016
        },
        {
          "duration": 0.19583333333332575,
          "durationTicks": 94,
          "midi": 36,
          "name": "C2",
          "ticks": 31392,
          "time": 65.4,
          "velocity": 0.8503937007874016
        },
        {
          "duration": 0.3333333333333428,
          "durationTicks": 160,
          "midi": 36,
          "name": "C2",
          "ticks": 31488,
          "time": 65.6,
          "velocity": 0.8503937007874016
        },
        {
          "duration": 0.3333333333333286,
          "durationTicks": 160,
          "midi": 38,
          "name": "D2",
          "ticks": 31680,
          "time": 66,
          "velocity": 0.8503937007874016
        },
        {
          "duration": 0.3333333333333286,
          "durationTicks": 160,
          "midi": 36,
          "name": "C2",
          "ticks": 31872,
          "time": 66.4,
          "velocity": 0.8503937007874016
        },
        {
          "duration": 0.19583333333333997,
          "durationTicks": 94,
          "midi": 38,
          "name": "D2",
          "ticks": 32064,
          "time": 66.8,
          "velocity": 0.8503937007874016
        },
        {
          "duration": 0.19583333333333997,
          "durationTicks": 94,
          "midi": 36,
          "name": "C2",
          "ticks": 32160,
          "time": 67,
          "velocity": 0.8503937007874016
        },
        {
          "duration": 0.3333333333333286,
          "durationTicks": 160,
          "midi": 36,
          "name": "C2",
          "ticks": 32256,
          "time": 67.2,
          "velocity": 0.8503937007874016
        },
        {
          "duration": 0.3333333333333428,
          "durationTicks": 160,
          "midi": 38,
          "name": "D2",
          "ticks": 32448,
          "time": 67.6,
          "velocity": 0.8503937007874016
        },
        {
          "duration": 0.3333333333333428,
          "durationTicks": 160,
          "midi": 36,
          "name": "C2",
          "ticks": 32640,
          "time": 68,
          "velocity": 0.8503937007874016
        },
        {
          "duration": 0.19583333333332575,
          "durationTicks": 94,
          "midi": 38,
          "name": "D2",
          "ticks": 32832,
          "time": 68.4,
          "velocity": 0.8503937007874016
        },
        {
          "duration": 0.19583333333333997,
          "durationTicks": 94,
          "midi": 36,
          "name": "C2",
          "ticks": 32928,
          "time": 68.6,
          "velocity": 0.8503937007874016
        },
        {
          "duration": 0.3333333333333428,
          "durationTicks": 160,
          "midi": 36,
          "name": "C2",
          "ticks": 33024,
          "time": 68.8,
          "velocity": 0.8503937007874016
        },
        {
          "duration": 0.3333333333333286,
          "durationTicks": 160,
          "midi": 38,
          "name": "D2",
          "ticks": 33216,
          "time": 69.2,
          "velocity": 0.8503937007874016
        },
        {
          "duration": 0.3333333333333428,
          "durationTicks": 160,
          "midi": 36,
          "name": "C2",
          "ticks": 33408,
          "time": 69.6,
          "velocity": 0.8503937007874016
        },
        {
          "duration": 0.19583333333333997,
          "durationTicks": 94,
          "midi": 38,
          "name": "D2",
          "ticks": 33600,
          "time": 70,
          "velocity": 0.8503937007874016
        },
        {
          "duration": 0.19583333333333997,
          "durationTicks": 94,
          "midi": 36,
          "name": "C2",
          "ticks": 33696,
          "time": 70.2,
          "velocity": 0.8503937007874016
        },
        {
          "duration": 0.3333333333333286,
          "durationTicks": 160,
          "midi": 36,
          "name": "C2",
          "ticks": 33792,
          "time": 70.4,
          "velocity": 0.8503937007874016
        },
        {
          "duration": 0.3333333333333428,
          "durationTicks": 160,
          "midi": 38,
          "name": "D2",
          "ticks": 33984,
          "time": 70.8,
          "velocity": 0.8503937007874016
        },
        {
          "duration": 0.3333333333333286,
          "durationTicks": 160,
          "midi": 36,
          "name": "C2",
          "ticks": 34176,
          "time": 71.2,
          "velocity": 0.8503937007874016
        },
        {
          "duration": 0.19583333333333997,
          "durationTicks": 94,
          "midi": 38,
          "name": "D2",
          "ticks": 34368,
          "time": 71.6,
          "velocity": 0.8503937007874016
        },
        {
          "duration": 0.19583333333333997,
          "durationTicks": 94,
          "midi": 36,
          "name": "C2",
          "ticks": 34464,
          "time": 71.8,
          "velocity": 0.8503937007874016
        },
        {
          "duration": 0.3333333333333428,
          "durationTicks": 160,
          "midi": 36,
          "name": "C2",
          "ticks": 34560,
          "time": 72,
          "velocity": 0.8503937007874016
        },
        {
          "duration": 0.3333333333333286,
          "durationTicks": 160,
          "midi": 38,
          "name": "D2",
          "ticks": 34752,
          "time": 72.4,
          "velocity": 0.8503937007874016
        },
        {
          "duration": 0.3333333333333428,
          "durationTicks": 160,
          "midi": 36,
          "name": "C2",
          "ticks": 34944,
          "time": 72.8,
          "velocity": 0.8503937007874016
        },
        {
          "duration": 0.19583333333333997,
          "durationTicks": 94,
          "midi": 38,
          "name": "D2",
          "ticks": 35136,
          "time": 73.2,
          "velocity": 0.8503937007874016
        },
        {
          "duration": 0.19583333333332575,
          "durationTicks": 94,
          "midi": 36,
          "name": "C2",
          "ticks": 35232,
          "time": 73.4,
          "velocity": 0.8503937007874016
        },
        {
          "duration": 0.3333333333333428,
          "durationTicks": 160,
          "midi": 36,
          "name": "C2",
          "ticks": 35328,
          "time": 73.6,
          "velocity": 0.8503937007874016
        },
        {
          "duration": 0.3333333333333428,
          "durationTicks": 160,
          "midi": 38,
          "name": "D2",
          "ticks": 35520,
          "time": 74,
          "velocity": 0.8503937007874016
        },
        {
          "duration": 0.3333333333333286,
          "durationTicks": 160,
          "midi": 36,
          "name": "C2",
          "ticks": 35712,
          "time": 74.4,
          "velocity": 0.8503937007874016
        },
        {
          "duration": 0.19583333333333997,
          "durationTicks": 94,
          "midi": 38,
          "name": "D2",
          "ticks": 35904,
          "time": 74.8,
          "velocity": 0.8503937007874016
        },
        {
          "duration": 0.19583333333333997,
          "durationTicks": 94,
          "midi": 36,
          "name": "C2",
          "ticks": 36000,
          "time": 75,
          "velocity": 0.8503937007874016
        },
        {
          "duration": 0.3333333333333286,
          "durationTicks": 160,
          "midi": 36,
          "name": "C2",
          "ticks": 36096,
          "time": 75.2,
          "velocity": 0.8503937007874016
        },
        {
          "duration": 0.3333333333333428,
          "durationTicks": 160,
          "midi": 38,
          "name": "D2",
          "ticks": 36288,
          "time": 75.6,
          "velocity": 0.8503937007874016
        },
        {
          "duration": 0.3333333333333428,
          "durationTicks": 160,
          "midi": 36,
          "name": "C2",
          "ticks": 36480,
          "time": 76,
          "velocity": 0.8503937007874016
        },
        {
          "duration": 0.19583333333332575,
          "durationTicks": 94,
          "midi": 38,
          "name": "D2",
          "ticks": 36672,
          "time": 76.4,
          "velocity": 0.8503937007874016
        },
        {
          "duration": 0.19583333333333997,
          "durationTicks": 94,
          "midi": 36,
          "name": "C2",
          "ticks": 36768,
          "time": 76.6,
          "velocity": 0.8503937007874016
        },
        {
          "duration": 0.3333333333333286,
          "durationTicks": 160,
          "midi": 36,
          "name": "C2",
          "ticks": 36864,
          "time": 76.80000000000001,
          "velocity": 0.8503937007874016
        },
        {
          "duration": 0.3333333333333286,
          "durationTicks": 160,
          "midi": 38,
          "name": "D2",
          "ticks": 37056,
          "time": 77.2,
          "velocity": 0.8503937007874016
        },
        {
          "duration": 0.3333333333333428,
          "durationTicks": 160,
          "midi": 36,
          "name": "C2",
          "ticks": 37248,
          "time": 77.6,
          "velocity": 0.8503937007874016
        },
        {
          "duration": 0.19583333333333997,
          "durationTicks": 94,
          "midi": 38,
          "name": "D2",
          "ticks": 37440,
          "time": 78,
          "velocity": 0.8503937007874016
        },
        {
          "duration": 0.19583333333333997,
          "durationTicks": 94,
          "midi": 36,
          "name": "C2",
          "ticks": 37536,
          "time": 78.2,
          "velocity": 0.8503937007874016
        },
        {
          "duration": 0.3333333333333286,
          "durationTicks": 160,
          "midi": 36,
          "name": "C2",
          "ticks": 37632,
          "time": 78.4,
          "velocity": 0.8503937007874016
        },
        {
          "duration": 0.3333333333333286,
          "durationTicks": 160,
          "midi": 38,
          "name": "D2",
          "ticks": 37824,
          "time": 78.80000000000001,
          "velocity": 0.8503937007874016
        },
        {
          "duration": 0.3333333333333286,
          "durationTicks": 160,
          "midi": 36,
          "name": "C2",
          "ticks": 38016,
          "time": 79.2,
          "velocity": 0.8503937007874016
        },
        {
          "duration": 0.19583333333333997,
          "durationTicks": 94,
          "midi": 38,
          "name": "D2",
          "ticks": 38208,
          "time": 79.6,
          "velocity": 0.8503937007874016
        },
        {
          "duration": 0.19583333333332575,
          "durationTicks": 94,
          "midi": 36,
          "name": "C2",
          "ticks": 38304,
          "time": 79.80000000000001,
          "velocity": 0.8503937007874016
        },
        {
          "duration": 0.3333333333333428,
          "durationTicks": 160,
          "midi": 36,
          "name": "C2",
          "ticks": 38400,
          "time": 80,
          "velocity": 0.8503937007874016
        },
        {
          "duration": 0.3333333333333286,
          "durationTicks": 160,
          "midi": 38,
          "name": "D2",
          "ticks": 38592,
          "time": 80.4,
          "velocity": 0.8503937007874016
        },
        {
          "duration": 0.3333333333333286,
          "durationTicks": 160,
          "midi": 36,
          "name": "C2",
          "ticks": 38784,
          "time": 80.80000000000001,
          "velocity": 0.8503937007874016
        },
        {
          "duration": 0.19583333333333997,
          "durationTicks": 94,
          "midi": 38,
          "name": "D2",
          "ticks": 38976,
          "time": 81.2,
          "velocity": 0.8503937007874016
        },
        {
          "duration": 0.19583333333332575,
          "durationTicks": 94,
          "midi": 36,
          "name": "C2",
          "ticks": 39072,
          "time": 81.4,
          "velocity": 0.8503937007874016
        },
        {
          "duration": 0.3333333333333428,
          "durationTicks": 160,
          "midi": 36,
          "name": "C2",
          "ticks": 39168,
          "time": 81.6,
          "velocity": 0.8503937007874016
        },
        {
          "duration": 0.3333333333333428,
          "durationTicks": 160,
          "midi": 38,
          "name": "D2",
          "ticks": 39360,
          "time": 82,
          "velocity": 0.8503937007874016
        },
        {
          "duration": 0.3333333333333286,
          "durationTicks": 160,
          "midi": 36,
          "name": "C2",
          "ticks": 39552,
          "time": 82.4,
          "velocity": 0.8503937007874016
        },
        {
          "duration": 0.19583333333332575,
          "durationTicks": 94,
          "midi": 38,
          "name": "D2",
          "ticks": 39744,
          "time": 82.80000000000001,
          "velocity": 0.8503937007874016
        },
        {
          "duration": 0.19583333333333997,
          "durationTicks": 94,
          "midi": 36,
          "name": "C2",
          "ticks": 39840,
          "time": 83,
          "velocity": 0.8503937007874016
        },
        {
          "duration": 0.3333333333333286,
          "durationTicks": 160,
          "midi": 36,
          "name": "C2",
          "ticks": 39936,
          "time": 83.2,
          "velocity": 0.8503937007874016
        },
        {
          "duration": 0.3333333333333428,
          "durationTicks": 160,
          "midi": 38,
          "name": "D2",
          "ticks": 40128,
          "time": 83.6,
          "velocity": 0.8503937007874016
        },
        {
          "duration": 0.3333333333333428,
          "durationTicks": 160,
          "midi": 36,
          "name": "C2",
          "ticks": 40320,
          "time": 84,
          "velocity": 0.8503937007874016
        },
        {
          "duration": 0.19583333333332575,
          "durationTicks": 94,
          "midi": 38,
          "name": "D2",
          "ticks": 40512,
          "time": 84.4,
          "velocity": 0.8503937007874016
        },
        {
          "duration": 0.19583333333333997,
          "durationTicks": 94,
          "midi": 36,
          "name": "C2",
          "ticks": 40608,
          "time": 84.6,
          "velocity": 0.8503937007874016
        },
        {
          "duration": 0.3333333333333144,
          "durationTicks": 160,
          "midi": 36,
          "name": "C2",
          "ticks": 40704,
          "time": 84.80000000000001,
          "velocity": 0.8503937007874016
        },
        {
          "duration": 0.3333333333333286,
          "durationTicks": 160,
          "midi": 38,
          "name": "D2",
          "ticks": 40896,
          "time": 85.2,
          "velocity": 0.8503937007874016
        },
        {
          "duration": 0.3333333333333428,
          "durationTicks": 160,
          "midi": 36,
          "name": "C2",
          "ticks": 41088,
          "time": 85.6,
          "velocity": 0.8503937007874016
        },
        {
          "duration": 0.19583333333332575,
          "durationTicks": 94,
          "midi": 38,
          "name": "D2",
          "ticks": 41280,
          "time": 86,
          "velocity": 0.8503937007874016
        },
        {
          "duration": 0.19583333333333997,
          "durationTicks": 94,
          "midi": 36,
          "name": "C2",
          "ticks": 41376,
          "time": 86.2,
          "velocity": 0.8503937007874016
        },
        {
          "duration": 0.3333333333333286,
          "durationTicks": 160,
          "midi": 36,
          "name": "C2",
          "ticks": 41472,
          "time": 86.4,
          "velocity": 0.8503937007874016
        },
        {
          "duration": 0.3333333333333144,
          "durationTicks": 160,
          "midi": 38,
          "name": "D2",
          "ticks": 41664,
          "time": 86.80000000000001,
          "velocity": 0.8503937007874016
        },
        {
          "duration": 0.3333333333333286,
          "durationTicks": 160,
          "midi": 36,
          "name": "C2",
          "ticks": 41856,
          "time": 87.2,
          "velocity": 0.8503937007874016
        },
        {
          "duration": 0.19583333333333997,
          "durationTicks": 94,
          "midi": 38,
          "name": "D2",
          "ticks": 42048,
          "time": 87.6,
          "velocity": 0.8503937007874016
        },
        {
          "duration": 0.19583333333332575,
          "durationTicks": 94,
          "midi": 36,
          "name": "C2",
          "ticks": 42144,
          "time": 87.80000000000001,
          "velocity": 0.8503937007874016
        },
        {
          "duration": 0.3333333333333428,
          "durationTicks": 160,
          "midi": 36,
          "name": "C2",
          "ticks": 42240,
          "time": 88,
          "velocity": 0.8503937007874016
        },
        {
          "duration": 0.3333333333333286,
          "durationTicks": 160,
          "midi": 38,
          "name": "D2",
          "ticks": 42432,
          "time": 88.4,
          "velocity": 0.8503937007874016
        },
        {
          "duration": 0.3333333333333144,
          "durationTicks": 160,
          "midi": 36,
          "name": "C2",
          "ticks": 42624,
          "time": 88.80000000000001,
          "velocity": 0.8503937007874016
        },
        {
          "duration": 0.3333333333333428,
          "durationTicks": 160,
          "midi": 36,
          "name": "C2",
          "ticks": 43008,
          "time": 89.6,
          "velocity": 0.8503937007874016
        },
        {
          "duration": 0.3333333333333428,
          "durationTicks": 160,
          "midi": 38,
          "name": "D2",
          "ticks": 43200,
          "time": 90,
          "velocity": 0.8503937007874016
        },
        {
          "duration": 0.3333333333333286,
          "durationTicks": 160,
          "midi": 36,
          "name": "C2",
          "ticks": 43392,
          "time": 90.4,
          "velocity": 0.8503937007874016
        },
        {
          "duration": 0.19583333333332575,
          "durationTicks": 94,
          "midi": 38,
          "name": "D2",
          "ticks": 43584,
          "time": 90.80000000000001,
          "velocity": 0.8503937007874016
        },
        {
          "duration": 0.19583333333332575,
          "durationTicks": 94,
          "midi": 36,
          "name": "C2",
          "ticks": 43680,
          "time": 91,
          "velocity": 0.8503937007874016
        },
        {
          "duration": 0.3333333333333286,
          "durationTicks": 160,
          "midi": 36,
          "name": "C2",
          "ticks": 43776,
          "time": 91.2,
          "velocity": 0.8503937007874016
        },
        {
          "duration": 0.3333333333333428,
          "durationTicks": 160,
          "midi": 38,
          "name": "D2",
          "ticks": 43968,
          "time": 91.6,
          "velocity": 0.8503937007874016
        },
        {
          "duration": 0.3333333333333428,
          "durationTicks": 160,
          "midi": 36,
          "name": "C2",
          "ticks": 44160,
          "time": 92,
          "velocity": 0.8503937007874016
        },
        {
          "duration": 0.19583333333332575,
          "durationTicks": 94,
          "midi": 38,
          "name": "D2",
          "ticks": 44352,
          "time": 92.4,
          "velocity": 0.8503937007874016
        },
        {
          "duration": 0.19583333333333997,
          "durationTicks": 94,
          "midi": 36,
          "name": "C2",
          "ticks": 44448,
          "time": 92.6,
          "velocity": 0.8503937007874016
        },
        {
          "duration": 0.3333333333333144,
          "durationTicks": 160,
          "midi": 36,
          "name": "C2",
          "ticks": 44544,
          "time": 92.80000000000001,
          "velocity": 0.8503937007874016
        },
        {
          "duration": 0.3333333333333286,
          "durationTicks": 160,
          "midi": 38,
          "name": "D2",
          "ticks": 44736,
          "time": 93.2,
          "velocity": 0.8503937007874016
        },
        {
          "duration": 0.3333333333333428,
          "durationTicks": 160,
          "midi": 36,
          "name": "C2",
          "ticks": 44928,
          "time": 93.6,
          "velocity": 0.8503937007874016
        },
        {
          "duration": 0.19583333333332575,
          "durationTicks": 94,
          "midi": 38,
          "name": "D2",
          "ticks": 45120,
          "time": 94,
          "velocity": 0.8503937007874016
        },
        {
          "duration": 0.19583333333333997,
          "durationTicks": 94,
          "midi": 36,
          "name": "C2",
          "ticks": 45216,
          "time": 94.2,
          "velocity": 0.8503937007874016
        },
        {
          "duration": 0.3333333333333286,
          "durationTicks": 160,
          "midi": 36,
          "name": "C2",
          "ticks": 45312,
          "time": 94.4,
          "velocity": 0.8503937007874016
        },
        {
          "duration": 0.3333333333333144,
          "durationTicks": 160,
          "midi": 38,
          "name": "D2",
          "ticks": 45504,
          "time": 94.80000000000001,
          "velocity": 0.8503937007874016
        },
        {
          "duration": 0.3333333333333286,
          "durationTicks": 160,
          "midi": 36,
          "name": "C2",
          "ticks": 45696,
          "time": 95.2,
          "velocity": 0.8503937007874016
        },
        {
          "duration": 0.19583333333333997,
          "durationTicks": 94,
          "midi": 38,
          "name": "D2",
          "ticks": 45888,
          "time": 95.6,
          "velocity": 0.8503937007874016
        },
        {
          "duration": 0.19583333333332575,
          "durationTicks": 94,
          "midi": 36,
          "name": "C2",
          "ticks": 45984,
          "time": 95.80000000000001,
          "velocity": 0.8503937007874016
        },
        {
          "duration": 0.3333333333333428,
          "durationTicks": 160,
          "midi": 36,
          "name": "C2",
          "ticks": 46080,
          "time": 96,
          "velocity": 0.8503937007874016
        },
        {
          "duration": 0.3333333333333286,
          "durationTicks": 160,
          "midi": 38,
          "name": "D2",
          "ticks": 46272,
          "time": 96.4,
          "velocity": 0.8503937007874016
        },
        {
          "duration": 0.3333333333333144,
          "durationTicks": 160,
          "midi": 36,
          "name": "C2",
          "ticks": 46464,
          "time": 96.80000000000001,
          "velocity": 0.8503937007874016
        },
        {
          "duration": 0.19583333333333997,
          "durationTicks": 94,
          "midi": 38,
          "name": "D2",
          "ticks": 46656,
          "time": 97.2,
          "velocity": 0.8503937007874016
        },
        {
          "duration": 0.19583333333332575,
          "durationTicks": 94,
          "midi": 36,
          "name": "C2",
          "ticks": 46752,
          "time": 97.4,
          "velocity": 0.8503937007874016
        },
        {
          "duration": 0.3333333333333428,
          "durationTicks": 160,
          "midi": 36,
          "name": "C2",
          "ticks": 46848,
          "time": 97.6,
          "velocity": 0.8503937007874016
        },
        {
          "duration": 0.3333333333333428,
          "durationTicks": 160,
          "midi": 38,
          "name": "D2",
          "ticks": 47040,
          "time": 98,
          "velocity": 0.8503937007874016
        },
        {
          "duration": 0.3333333333333286,
          "durationTicks": 160,
          "midi": 36,
          "name": "C2",
          "ticks": 47232,
          "time": 98.4,
          "velocity": 0.8503937007874016
        },
        {
          "duration": 0.19583333333332575,
          "durationTicks": 94,
          "midi": 38,
          "name": "D2",
          "ticks": 47424,
          "time": 98.80000000000001,
          "velocity": 0.8503937007874016
        },
        {
          "duration": 0.19583333333332575,
          "durationTicks": 94,
          "midi": 36,
          "name": "C2",
          "ticks": 47520,
          "time": 99,
          "velocity": 0.8503937007874016
        },
        {
          "duration": 0.3333333333333286,
          "durationTicks": 160,
          "midi": 36,
          "name": "C2",
          "ticks": 47616,
          "time": 99.2,
          "velocity": 0.8503937007874016
        },
        {
          "duration": 0.3333333333333428,
          "durationTicks": 160,
          "midi": 38,
          "name": "D2",
          "ticks": 47808,
          "time": 99.6,
          "velocity": 0.8503937007874016
        },
        {
          "duration": 0.3333333333333428,
          "durationTicks": 160,
          "midi": 36,
          "name": "C2",
          "ticks": 48000,
          "time": 100,
          "velocity": 0.8503937007874016
        },
        {
          "duration": 0.19583333333332575,
          "durationTicks": 94,
          "midi": 38,
          "name": "D2",
          "ticks": 48192,
          "time": 100.4,
          "velocity": 0.8503937007874016
        },
        {
          "duration": 0.19583333333333997,
          "durationTicks": 94,
          "midi": 36,
          "name": "C2",
          "ticks": 48288,
          "time": 100.6,
          "velocity": 0.8503937007874016
        },
        {
          "duration": 0.3333333333333144,
          "durationTicks": 160,
          "midi": 36,
          "name": "C2",
          "ticks": 48384,
          "time": 100.80000000000001,
          "velocity": 0.8503937007874016
        },
        {
          "duration": 0.3333333333333286,
          "durationTicks": 160,
          "midi": 38,
          "name": "D2",
          "ticks": 48576,
          "time": 101.2,
          "velocity": 0.8503937007874016
        },
        {
          "duration": 0.3333333333333428,
          "durationTicks": 160,
          "midi": 36,
          "name": "C2",
          "ticks": 48768,
          "time": 101.6,
          "velocity": 0.8503937007874016
        },
        {
          "duration": 0.19583333333332575,
          "durationTicks": 94,
          "midi": 38,
          "name": "D2",
          "ticks": 48960,
          "time": 102,
          "velocity": 0.8503937007874016
        },
        {
          "duration": 0.19583333333333997,
          "durationTicks": 94,
          "midi": 36,
          "name": "C2",
          "ticks": 49056,
          "time": 102.2,
          "velocity": 0.8503937007874016
        },
        {
          "duration": 0.3333333333333286,
          "durationTicks": 160,
          "midi": 36,
          "name": "C2",
          "ticks": 49152,
          "time": 102.4,
          "velocity": 0.8503937007874016
        },
        {
          "duration": 0.3333333333333144,
          "durationTicks": 160,
          "midi": 38,
          "name": "D2",
          "ticks": 49344,
          "time": 102.80000000000001,
          "velocity": 0.8503937007874016
        },
        {
          "duration": 0.3333333333333286,
          "durationTicks": 160,
          "midi": 36,
          "name": "C2",
          "ticks": 49536,
          "time": 103.2,
          "velocity": 0.8503937007874016
        },
        {
          "duration": 0.19583333333333997,
          "durationTicks": 94,
          "midi": 38,
          "name": "D2",
          "ticks": 49728,
          "time": 103.6,
          "velocity": 0.8503937007874016
        },
        {
          "duration": 0.19583333333332575,
          "durationTicks": 94,
          "midi": 36,
          "name": "C2",
          "ticks": 49824,
          "time": 103.80000000000001,
          "velocity": 0.8503937007874016
        },
        {
          "duration": 0.3333333333333428,
          "durationTicks": 160,
          "midi": 36,
          "name": "C2",
          "ticks": 49920,
          "time": 104,
          "velocity": 0.8503937007874016
        },
        {
          "duration": 0.3333333333333286,
          "durationTicks": 160,
          "midi": 38,
          "name": "D2",
          "ticks": 50112,
          "time": 104.4,
          "velocity": 0.8503937007874016
        },
        {
          "duration": 0.3333333333333144,
          "durationTicks": 160,
          "midi": 36,
          "name": "C2",
          "ticks": 50304,
          "time": 104.80000000000001,
          "velocity": 0.8503937007874016
        },
        {
          "duration": 0.19583333333333997,
          "durationTicks": 94,
          "midi": 38,
          "name": "D2",
          "ticks": 50496,
          "time": 105.2,
          "velocity": 0.8503937007874016
        },
        {
          "duration": 0.19583333333332575,
          "durationTicks": 94,
          "midi": 36,
          "name": "C2",
          "ticks": 50592,
          "time": 105.4,
          "velocity": 0.8503937007874016
        },
        {
          "duration": 0.3333333333333428,
          "durationTicks": 160,
          "midi": 36,
          "name": "C2",
          "ticks": 50688,
          "time": 105.6,
          "velocity": 0.8503937007874016
        },
        {
          "duration": 0.3333333333333428,
          "durationTicks": 160,
          "midi": 38,
          "name": "D2",
          "ticks": 50880,
          "time": 106,
          "velocity": 0.8503937007874016
        },
        {
          "duration": 0.3333333333333286,
          "durationTicks": 160,
          "midi": 36,
          "name": "C2",
          "ticks": 51072,
          "time": 106.4,
          "velocity": 0.8503937007874016
        },
        {
          "duration": 0.19583333333332575,
          "durationTicks": 94,
          "midi": 38,
          "name": "D2",
          "ticks": 51264,
          "time": 106.80000000000001,
          "velocity": 0.8503937007874016
        },
        {
          "duration": 0.19583333333332575,
          "durationTicks": 94,
          "midi": 36,
          "name": "C2",
          "ticks": 51360,
          "time": 107,
          "velocity": 0.8503937007874016
        },
        {
          "duration": 0.3333333333333286,
          "durationTicks": 160,
          "midi": 36,
          "name": "C2",
          "ticks": 51456,
          "time": 107.2,
          "velocity": 0.8503937007874016
        },
        {
          "duration": 0.3333333333333428,
          "durationTicks": 160,
          "midi": 38,
          "name": "D2",
          "ticks": 51648,
          "time": 107.6,
          "velocity": 0.8503937007874016
        },
        {
          "duration": 0.3333333333333428,
          "durationTicks": 160,
          "midi": 36,
          "name": "C2",
          "ticks": 51840,
          "time": 108,
          "velocity": 0.8503937007874016
        },
        {
          "duration": 0.19583333333332575,
          "durationTicks": 94,
          "midi": 38,
          "name": "D2",
          "ticks": 52032,
          "time": 108.4,
          "velocity": 0.8503937007874016
        },
        {
          "duration": 0.19583333333333997,
          "durationTicks": 94,
          "midi": 36,
          "name": "C2",
          "ticks": 52128,
          "time": 108.6,
          "velocity": 0.8503937007874016
        },
        {
          "duration": 0.19583333333332575,
          "durationTicks": 94,
          "midi": 35,
          "name": "B1",
          "ticks": 52224,
          "time": 108.80000000000001,
          "velocity": 0.5905511811023622
        },
        {
          "duration": 0.19583333333333997,
          "durationTicks": 94,
          "midi": 40,
          "name": "E2",
          "ticks": 52320,
          "time": 109,
          "velocity": 0.5905511811023622
        },
        {
          "duration": 0.19583333333333997,
          "durationTicks": 94,
          "midi": 35,
          "name": "B1",
          "ticks": 52416,
          "time": 109.2,
          "velocity": 0.5905511811023622
        },
        {
          "duration": 0.19583333333332575,
          "durationTicks": 94,
          "midi": 40,
          "name": "E2",
          "ticks": 52512,
          "time": 109.4,
          "velocity": 0.5905511811023622
        },
        {
          "duration": 0.19583333333335418,
          "durationTicks": 94,
          "midi": 35,
          "name": "B1",
          "ticks": 52608,
          "time": 109.6,
          "velocity": 0.5905511811023622
        },
        {
          "duration": 0.19583333333332575,
          "durationTicks": 94,
          "midi": 40,
          "name": "E2",
          "ticks": 52704,
          "time": 109.80000000000001,
          "velocity": 0.5905511811023622
        },
        {
          "duration": 0.09583333333333144,
          "durationTicks": 46,
          "midi": 40,
          "name": "E2",
          "ticks": 52800,
          "time": 110,
          "velocity": 0.5905511811023622
        },
        {
          "duration": 0.09583333333334565,
          "durationTicks": 46,
          "midi": 40,
          "name": "E2",
          "ticks": 52848,
          "time": 110.1,
          "velocity": 0.5905511811023622
        },
        {
          "duration": 0.19583333333333997,
          "durationTicks": 94,
          "midi": 40,
          "name": "E2",
          "ticks": 52896,
          "time": 110.2,
          "velocity": 0.5905511811023622
        },
        {
          "duration": 0.19583333333332575,
          "durationTicks": 94,
          "midi": 35,
          "name": "B1",
          "ticks": 52992,
          "time": 110.4,
          "velocity": 0.5905511811023622
        },
        {
          "duration": 0.19583333333335418,
          "durationTicks": 94,
          "midi": 40,
          "name": "E2",
          "ticks": 53088,
          "time": 110.6,
          "velocity": 0.5905511811023622
        },
        {
          "duration": 0.19583333333332575,
          "durationTicks": 94,
          "midi": 35,
          "name": "B1",
          "ticks": 53184,
          "time": 110.80000000000001,
          "velocity": 0.5905511811023622
        },
        {
          "duration": 0.19583333333333997,
          "durationTicks": 94,
          "midi": 40,
          "name": "E2",
          "ticks": 53280,
          "time": 111,
          "velocity": 0.5905511811023622
        },
        {
          "duration": 0.19583333333333997,
          "durationTicks": 94,
          "midi": 35,
          "name": "B1",
          "ticks": 53376,
          "time": 111.2,
          "velocity": 0.5905511811023622
        },
        {
          "duration": 0.19583333333332575,
          "durationTicks": 94,
          "midi": 40,
          "name": "E2",
          "ticks": 53472,
          "time": 111.4,
          "velocity": 0.5905511811023622
        },
        {
          "duration": 0.09583333333334565,
          "durationTicks": 46,
          "midi": 40,
          "name": "E2",
          "ticks": 53568,
          "time": 111.6,
          "velocity": 0.5905511811023622
        },
        {
          "duration": 0.09583333333334565,
          "durationTicks": 46,
          "midi": 40,
          "name": "E2",
          "ticks": 53616,
          "time": 111.7,
          "velocity": 0.5905511811023622
        },
        {
          "duration": 0.19583333333332575,
          "durationTicks": 94,
          "midi": 40,
          "name": "E2",
          "ticks": 53664,
          "time": 111.80000000000001,
          "velocity": 0.5905511811023622
        },
        {
          "duration": 0.19583333333333997,
          "durationTicks": 94,
          "midi": 35,
          "name": "B1",
          "ticks": 53760,
          "time": 112,
          "velocity": 0.5905511811023622
        },
        {
          "duration": 0.19583333333333997,
          "durationTicks": 94,
          "midi": 35,
          "name": "B1",
          "ticks": 53856,
          "time": 112.2,
          "velocity": 0.5905511811023622
        },
        {
          "duration": 0.19583333333332575,
          "durationTicks": 94,
          "midi": 40,
          "name": "E2",
          "ticks": 53952,
          "time": 112.4,
          "velocity": 0.5905511811023622
        },
        {
          "duration": 0.19583333333335418,
          "durationTicks": 94,
          "midi": 35,
          "name": "B1",
          "ticks": 54048,
          "time": 112.6,
          "velocity": 0.5905511811023622
        },
        {
          "duration": 0.19583333333332575,
          "durationTicks": 94,
          "midi": 40,
          "name": "E2",
          "ticks": 54144,
          "time": 112.80000000000001,
          "velocity": 0.5905511811023622
        },
        {
          "duration": 0.19583333333335418,
          "durationTicks": 94,
          "midi": 40,
          "name": "E2",
          "ticks": 54528,
          "time": 113.6,
          "velocity": 0.5905511811023622
        },
        {
          "duration": 0.19583333333332575,
          "durationTicks": 94,
          "midi": 40,
          "name": "E2",
          "ticks": 54624,
          "time": 113.80000000000001,
          "velocity": 0.5905511811023622
        },
        {
          "duration": 0.19583333333333997,
          "durationTicks": 94,
          "midi": 35,
          "name": "B1",
          "ticks": 54720,
          "time": 114,
          "velocity": 0.5905511811023622
        },
        {
          "duration": 0.19583333333333997,
          "durationTicks": 94,
          "midi": 40,
          "name": "E2",
          "ticks": 54816,
          "time": 114.2,
          "velocity": 0.5905511811023622
        },
        {
          "duration": 0.19583333333332575,
          "durationTicks": 94,
          "midi": 35,
          "name": "B1",
          "ticks": 54912,
          "time": 114.4,
          "velocity": 0.5905511811023622
        },
        {
          "duration": 0.19583333333333997,
          "durationTicks": 94,
          "midi": 2,
          "name": "D-1",
          "ticks": 55200,
          "time": 115,
          "velocity": 0.5905511811023622
        },
        {
          "duration": 0.3333333333333286,
          "durationTicks": 160,
          "midi": 36,
          "name": "C2",
          "ticks": 55296,
          "time": 115.2,
          "velocity": 0.8503937007874016
        },
        {
          "duration": 0.3333333333333286,
          "durationTicks": 160,
          "midi": 38,
          "name": "D2",
          "ticks": 55488,
          "time": 115.60000000000001,
          "velocity": 0.8503937007874016
        },
        {
          "duration": 0.3333333333333428,
          "durationTicks": 160,
          "midi": 36,
          "name": "C2",
          "ticks": 55680,
          "time": 116,
          "velocity": 0.8503937007874016
        },
        {
          "duration": 0.19583333333332575,
          "durationTicks": 94,
          "midi": 38,
          "name": "D2",
          "ticks": 55872,
          "time": 116.4,
          "velocity": 0.8503937007874016
        },
        {
          "duration": 0.19583333333332575,
          "durationTicks": 94,
          "midi": 36,
          "name": "C2",
          "ticks": 55968,
          "time": 116.60000000000001,
          "velocity": 0.8503937007874016
        },
        {
          "duration": 0.3333333333333428,
          "durationTicks": 160,
          "midi": 36,
          "name": "C2",
          "ticks": 56064,
          "time": 116.8,
          "velocity": 0.8503937007874016
        },
        {
          "duration": 0.3333333333333286,
          "durationTicks": 160,
          "midi": 38,
          "name": "D2",
          "ticks": 56256,
          "time": 117.2,
          "velocity": 0.8503937007874016
        },
        {
          "duration": 0.3333333333333286,
          "durationTicks": 160,
          "midi": 36,
          "name": "C2",
          "ticks": 56448,
          "time": 117.60000000000001,
          "velocity": 0.8503937007874016
        },
        {
          "duration": 0.19583333333333997,
          "durationTicks": 94,
          "midi": 38,
          "name": "D2",
          "ticks": 56640,
          "time": 118,
          "velocity": 0.8503937007874016
        },
        {
          "duration": 0.19583333333333997,
          "durationTicks": 94,
          "midi": 36,
          "name": "C2",
          "ticks": 56736,
          "time": 118.2,
          "velocity": 0.8503937007874016
        },
        {
          "duration": 0.3333333333333286,
          "durationTicks": 160,
          "midi": 36,
          "name": "C2",
          "ticks": 56832,
          "time": 118.4,
          "velocity": 0.8503937007874016
        },
        {
          "duration": 0.3333333333333428,
          "durationTicks": 160,
          "midi": 38,
          "name": "D2",
          "ticks": 57024,
          "time": 118.8,
          "velocity": 0.8503937007874016
        },
        {
          "duration": 0.3333333333333286,
          "durationTicks": 160,
          "midi": 36,
          "name": "C2",
          "ticks": 57216,
          "time": 119.2,
          "velocity": 0.8503937007874016
        },
        {
          "duration": 0.19583333333332575,
          "durationTicks": 94,
          "midi": 38,
          "name": "D2",
          "ticks": 57408,
          "time": 119.60000000000001,
          "velocity": 0.8503937007874016
        },
        {
          "duration": 0.19583333333333997,
          "durationTicks": 94,
          "midi": 36,
          "name": "C2",
          "ticks": 57504,
          "time": 119.8,
          "velocity": 0.8503937007874016
        },
        {
          "duration": 0.3333333333333428,
          "durationTicks": 160,
          "midi": 36,
          "name": "C2",
          "ticks": 57600,
          "time": 120,
          "velocity": 0.8503937007874016
        },
        {
          "duration": 0.3333333333333286,
          "durationTicks": 160,
          "midi": 38,
          "name": "D2",
          "ticks": 57792,
          "time": 120.4,
          "velocity": 0.8503937007874016
        },
        {
          "duration": 0.3333333333333428,
          "durationTicks": 160,
          "midi": 36,
          "name": "C2",
          "ticks": 57984,
          "time": 120.8,
          "velocity": 0.8503937007874016
        },
        {
          "duration": 0.19583333333333997,
          "durationTicks": 94,
          "midi": 38,
          "name": "D2",
          "ticks": 58176,
          "time": 121.2,
          "velocity": 0.8503937007874016
        },
        {
          "duration": 0.19583333333332575,
          "durationTicks": 94,
          "midi": 36,
          "name": "C2",
          "ticks": 58272,
          "time": 121.4,
          "velocity": 0.8503937007874016
        },
        {
          "duration": 0.3333333333333286,
          "durationTicks": 160,
          "midi": 36,
          "name": "C2",
          "ticks": 58368,
          "time": 121.60000000000001,
          "velocity": 0.8503937007874016
        },
        {
          "duration": 0.3333333333333428,
          "durationTicks": 160,
          "midi": 38,
          "name": "D2",
          "ticks": 58560,
          "time": 122,
          "velocity": 0.8503937007874016
        },
        {
          "duration": 0.3333333333333286,
          "durationTicks": 160,
          "midi": 36,
          "name": "C2",
          "ticks": 58752,
          "time": 122.4,
          "velocity": 0.8503937007874016
        },
        {
          "duration": 0.19583333333333997,
          "durationTicks": 94,
          "midi": 38,
          "name": "D2",
          "ticks": 58944,
          "time": 122.8,
          "velocity": 0.8503937007874016
        },
        {
          "duration": 0.19583333333333997,
          "durationTicks": 94,
          "midi": 36,
          "name": "C2",
          "ticks": 59040,
          "time": 123,
          "velocity": 0.8503937007874016
        },
        {
          "duration": 0.3333333333333286,
          "durationTicks": 160,
          "midi": 36,
          "name": "C2",
          "ticks": 59136,
          "time": 123.2,
          "velocity": 0.8503937007874016
        },
        {
          "duration": 0.3333333333333286,
          "durationTicks": 160,
          "midi": 38,
          "name": "D2",
          "ticks": 59328,
          "time": 123.60000000000001,
          "velocity": 0.8503937007874016
        },
        {
          "duration": 0.3333333333333428,
          "durationTicks": 160,
          "midi": 36,
          "name": "C2",
          "ticks": 59520,
          "time": 124,
          "velocity": 0.8503937007874016
        },
        {
          "duration": 0.19583333333332575,
          "durationTicks": 94,
          "midi": 38,
          "name": "D2",
          "ticks": 59712,
          "time": 124.4,
          "velocity": 0.8503937007874016
        },
        {
          "duration": 0.19583333333332575,
          "durationTicks": 94,
          "midi": 36,
          "name": "C2",
          "ticks": 59808,
          "time": 124.60000000000001,
          "velocity": 0.8503937007874016
        },
        {
          "duration": 0.3333333333333286,
          "durationTicks": 160,
          "midi": 36,
          "name": "C2",
          "ticks": 59904,
          "time": 124.80000000000001,
          "velocity": 0.8503937007874016
        },
        {
          "duration": 0.3333333333333286,
          "durationTicks": 160,
          "midi": 38,
          "name": "D2",
          "ticks": 60096,
          "time": 125.2,
          "velocity": 0.8503937007874016
        },
        {
          "duration": 0.3333333333333286,
          "durationTicks": 160,
          "midi": 36,
          "name": "C2",
          "ticks": 60288,
          "time": 125.60000000000001,
          "velocity": 0.8503937007874016
        },
        {
          "duration": 0.19583333333333997,
          "durationTicks": 94,
          "midi": 38,
          "name": "D2",
          "ticks": 60480,
          "time": 126,
          "velocity": 0.8503937007874016
        },
        {
          "duration": 0.19583333333333997,
          "durationTicks": 94,
          "midi": 36,
          "name": "C2",
          "ticks": 60576,
          "time": 126.2,
          "velocity": 0.8503937007874016
        },
        {
          "duration": 0.3333333333333286,
          "durationTicks": 160,
          "midi": 36,
          "name": "C2",
          "ticks": 60672,
          "time": 126.4,
          "velocity": 0.8503937007874016
        },
        {
          "duration": 0.3333333333333286,
          "durationTicks": 160,
          "midi": 38,
          "name": "D2",
          "ticks": 60864,
          "time": 126.80000000000001,
          "velocity": 0.8503937007874016
        },
        {
          "duration": 0.3333333333333286,
          "durationTicks": 160,
          "midi": 36,
          "name": "C2",
          "ticks": 61056,
          "time": 127.2,
          "velocity": 0.8503937007874016
        },
        {
          "duration": 0.19583333333332575,
          "durationTicks": 94,
          "midi": 38,
          "name": "D2",
          "ticks": 61248,
          "time": 127.60000000000001,
          "velocity": 0.8503937007874016
        },
        {
          "duration": 0.19583333333332575,
          "durationTicks": 94,
          "midi": 36,
          "name": "C2",
          "ticks": 61344,
          "time": 127.80000000000001,
          "velocity": 0.8503937007874016
        },
        {
          "duration": 0.3333333333333428,
          "durationTicks": 160,
          "midi": 36,
          "name": "C2",
          "ticks": 61440,
          "time": 128,
          "velocity": 0.8503937007874016
        },
        {
          "duration": 0.3333333333333428,
          "durationTicks": 160,
          "midi": 38,
          "name": "D2",
          "ticks": 61632,
          "time": 128.4,
          "velocity": 0.8503937007874016
        },
        {
          "duration": 0.3333333333333144,
          "durationTicks": 160,
          "midi": 36,
          "name": "C2",
          "ticks": 61824,
          "time": 128.8,
          "velocity": 0.8503937007874016
        },
        {
          "duration": 0.19583333333335418,
          "durationTicks": 94,
          "midi": 38,
          "name": "D2",
          "ticks": 62016,
          "time": 129.2,
          "velocity": 0.8503937007874016
        },
        {
          "duration": 0.19583333333332575,
          "durationTicks": 94,
          "midi": 36,
          "name": "C2",
          "ticks": 62112,
          "time": 129.4,
          "velocity": 0.8503937007874016
        },
        {
          "duration": 0.3333333333333428,
          "durationTicks": 160,
          "midi": 36,
          "name": "C2",
          "ticks": 62208,
          "time": 129.6,
          "velocity": 0.8503937007874016
        },
        {
          "duration": 0.3333333333333428,
          "durationTicks": 160,
          "midi": 38,
          "name": "D2",
          "ticks": 62400,
          "time": 130,
          "velocity": 0.8503937007874016
        },
        {
          "duration": 0.3333333333333428,
          "durationTicks": 160,
          "midi": 36,
          "name": "C2",
          "ticks": 62592,
          "time": 130.4,
          "velocity": 0.8503937007874016
        },
        {
          "duration": 0.19583333333332575,
          "durationTicks": 94,
          "midi": 38,
          "name": "D2",
          "ticks": 62784,
          "time": 130.8,
          "velocity": 0.8503937007874016
        },
        {
          "duration": 0.19583333333332575,
          "durationTicks": 94,
          "midi": 36,
          "name": "C2",
          "ticks": 62880,
          "time": 131,
          "velocity": 0.8503937007874016
        },
        {
          "duration": 0.3333333333333428,
          "durationTicks": 160,
          "midi": 36,
          "name": "C2",
          "ticks": 62976,
          "time": 131.2,
          "velocity": 0.8503937007874016
        },
        {
          "duration": 0.3333333333333428,
          "durationTicks": 160,
          "midi": 38,
          "name": "D2",
          "ticks": 63168,
          "time": 131.6,
          "velocity": 0.8503937007874016
        },
        {
          "duration": 0.3333333333333428,
          "durationTicks": 160,
          "midi": 36,
          "name": "C2",
          "ticks": 63360,
          "time": 132,
          "velocity": 0.8503937007874016
        },
        {
          "duration": 0.19583333333332575,
          "durationTicks": 94,
          "midi": 38,
          "name": "D2",
          "ticks": 63552,
          "time": 132.4,
          "velocity": 0.8503937007874016
        },
        {
          "duration": 0.19583333333335418,
          "durationTicks": 94,
          "midi": 36,
          "name": "C2",
          "ticks": 63648,
          "time": 132.6,
          "velocity": 0.8503937007874016
        },
        {
          "duration": 0.3333333333333144,
          "durationTicks": 160,
          "midi": 36,
          "name": "C2",
          "ticks": 63744,
          "time": 132.8,
          "velocity": 0.8503937007874016
        },
        {
          "duration": 0.3333333333333428,
          "durationTicks": 160,
          "midi": 38,
          "name": "D2",
          "ticks": 63936,
          "time": 133.2,
          "velocity": 0.8503937007874016
        },
        {
          "duration": 0.3333333333333428,
          "durationTicks": 160,
          "midi": 36,
          "name": "C2",
          "ticks": 64128,
          "time": 133.6,
          "velocity": 0.8503937007874016
        },
        {
          "duration": 0.19583333333332575,
          "durationTicks": 94,
          "midi": 38,
          "name": "D2",
          "ticks": 64320,
          "time": 134,
          "velocity": 0.8503937007874016
        },
        {
          "duration": 0.19583333333335418,
          "durationTicks": 94,
          "midi": 36,
          "name": "C2",
          "ticks": 64416,
          "time": 134.2,
          "velocity": 0.8503937007874016
        },
        {
          "duration": 0.3333333333333428,
          "durationTicks": 160,
          "midi": 36,
          "name": "C2",
          "ticks": 64512,
          "time": 134.4,
          "velocity": 0.8503937007874016
        },
        {
          "duration": 0.3333333333333144,
          "durationTicks": 160,
          "midi": 38,
          "name": "D2",
          "ticks": 64704,
          "time": 134.8,
          "velocity": 0.8503937007874016
        },
        {
          "duration": 0.3333333333333428,
          "durationTicks": 160,
          "midi": 36,
          "name": "C2",
          "ticks": 64896,
          "time": 135.2,
          "velocity": 0.8503937007874016
        },
        {
          "duration": 0.19583333333335418,
          "durationTicks": 94,
          "midi": 38,
          "name": "D2",
          "ticks": 65088,
          "time": 135.6,
          "velocity": 0.8503937007874016
        },
        {
          "duration": 0.19583333333332575,
          "durationTicks": 94,
          "midi": 36,
          "name": "C2",
          "ticks": 65184,
          "time": 135.8,
          "velocity": 0.8503937007874016
        },
        {
          "duration": 0.3333333333333428,
          "durationTicks": 160,
          "midi": 36,
          "name": "C2",
          "ticks": 65280,
          "time": 136,
          "velocity": 0.8503937007874016
        },
        {
          "duration": 0.3333333333333428,
          "durationTicks": 160,
          "midi": 38,
          "name": "D2",
          "ticks": 65472,
          "time": 136.4,
          "velocity": 0.8503937007874016
        },
        {
          "duration": 0.3333333333333144,
          "durationTicks": 160,
          "midi": 36,
          "name": "C2",
          "ticks": 65664,
          "time": 136.8,
          "velocity": 0.8503937007874016
        },
        {
          "duration": 0.19583333333335418,
          "durationTicks": 94,
          "midi": 38,
          "name": "D2",
          "ticks": 65856,
          "time": 137.2,
          "velocity": 0.8503937007874016
        },
        {
          "duration": 0.19583333333332575,
          "durationTicks": 94,
          "midi": 36,
          "name": "C2",
          "ticks": 65952,
          "time": 137.4,
          "velocity": 0.8503937007874016
        },
        {
          "duration": 0.3333333333333428,
          "durationTicks": 160,
          "midi": 36,
          "name": "C2",
          "ticks": 66048,
          "time": 137.6,
          "velocity": 0.8503937007874016
        },
        {
          "duration": 0.3333333333333428,
          "durationTicks": 160,
          "midi": 38,
          "name": "D2",
          "ticks": 66240,
          "time": 138,
          "velocity": 0.8503937007874016
        },
        {
          "duration": 0.3333333333333428,
          "durationTicks": 160,
          "midi": 36,
          "name": "C2",
          "ticks": 66432,
          "time": 138.4,
          "velocity": 0.8503937007874016
        },
        {
          "duration": 0.19583333333332575,
          "durationTicks": 94,
          "midi": 38,
          "name": "D2",
          "ticks": 66624,
          "time": 138.8,
          "velocity": 0.8503937007874016
        },
        {
          "duration": 0.19583333333332575,
          "durationTicks": 94,
          "midi": 36,
          "name": "C2",
          "ticks": 66720,
          "time": 139,
          "velocity": 0.8503937007874016
        },
        {
          "duration": 0.3333333333333428,
          "durationTicks": 160,
          "midi": 36,
          "name": "C2",
          "ticks": 66816,
          "time": 139.2,
          "velocity": 0.8503937007874016
        },
        {
          "duration": 0.3333333333333428,
          "durationTicks": 160,
          "midi": 38,
          "name": "D2",
          "ticks": 67008,
          "time": 139.6,
          "velocity": 0.8503937007874016
        },
        {
          "duration": 0.3333333333333428,
          "durationTicks": 160,
          "midi": 36,
          "name": "C2",
          "ticks": 67200,
          "time": 140,
          "velocity": 0.8503937007874016
        },
        {
          "duration": 0.19583333333332575,
          "durationTicks": 94,
          "midi": 38,
          "name": "D2",
          "ticks": 67392,
          "time": 140.4,
          "velocity": 0.8503937007874016
        },
        {
          "duration": 0.19583333333335418,
          "durationTicks": 94,
          "midi": 36,
          "name": "C2",
          "ticks": 67488,
          "time": 140.6,
          "velocity": 0.8503937007874016
        },
        {
          "duration": 0.3333333333333144,
          "durationTicks": 160,
          "midi": 36,
          "name": "C2",
          "ticks": 67584,
          "time": 140.8,
          "velocity": 0.8503937007874016
        },
        {
          "duration": 0.3333333333333428,
          "durationTicks": 160,
          "midi": 38,
          "name": "D2",
          "ticks": 67776,
          "time": 141.2,
          "velocity": 0.8503937007874016
        },
        {
          "duration": 0.3333333333333428,
          "durationTicks": 160,
          "midi": 36,
          "name": "C2",
          "ticks": 67968,
          "time": 141.6,
          "velocity": 0.8503937007874016
        },
        {
          "duration": 0.19583333333332575,
          "durationTicks": 94,
          "midi": 38,
          "name": "D2",
          "ticks": 68160,
          "time": 142,
          "velocity": 0.8503937007874016
        },
        {
          "duration": 0.19583333333335418,
          "durationTicks": 94,
          "midi": 36,
          "name": "C2",
          "ticks": 68256,
          "time": 142.2,
          "velocity": 0.8503937007874016
        },
        {
          "duration": 0.3333333333333428,
          "durationTicks": 160,
          "midi": 36,
          "name": "C2",
          "ticks": 68352,
          "time": 142.4,
          "velocity": 0.8503937007874016
        },
        {
          "duration": 0.3333333333333144,
          "durationTicks": 160,
          "midi": 38,
          "name": "D2",
          "ticks": 68544,
          "time": 142.8,
          "velocity": 0.8503937007874016
        },
        {
          "duration": 0.3333333333333428,
          "durationTicks": 160,
          "midi": 36,
          "name": "C2",
          "ticks": 68736,
          "time": 143.2,
          "velocity": 0.8503937007874016
        },
        {
          "duration": 0.19583333333335418,
          "durationTicks": 94,
          "midi": 38,
          "name": "D2",
          "ticks": 68928,
          "time": 143.6,
          "velocity": 0.8503937007874016
        },
        {
          "duration": 0.19583333333332575,
          "durationTicks": 94,
          "midi": 36,
          "name": "C2",
          "ticks": 69024,
          "time": 143.8,
          "velocity": 0.8503937007874016
        },
        {
          "duration": 0.3333333333333428,
          "durationTicks": 160,
          "midi": 36,
          "name": "C2",
          "ticks": 69120,
          "time": 144,
          "velocity": 0.8503937007874016
        },
        {
          "duration": 0.3333333333333428,
          "durationTicks": 160,
          "midi": 38,
          "name": "D2",
          "ticks": 69312,
          "time": 144.4,
          "velocity": 0.8503937007874016
        },
        {
          "duration": 0.3333333333333144,
          "durationTicks": 160,
          "midi": 36,
          "name": "C2",
          "ticks": 69504,
          "time": 144.8,
          "velocity": 0.8503937007874016
        },
        {
          "duration": 0.19583333333335418,
          "durationTicks": 94,
          "midi": 38,
          "name": "D2",
          "ticks": 69696,
          "time": 145.2,
          "velocity": 0.8503937007874016
        },
        {
          "duration": 0.19583333333332575,
          "durationTicks": 94,
          "midi": 36,
          "name": "C2",
          "ticks": 69792,
          "time": 145.4,
          "velocity": 0.8503937007874016
        },
        {
          "duration": 0.3333333333333428,
          "durationTicks": 160,
          "midi": 36,
          "name": "C2",
          "ticks": 69888,
          "time": 145.6,
          "velocity": 0.8503937007874016
        },
        {
          "duration": 0.3333333333333428,
          "durationTicks": 160,
          "midi": 38,
          "name": "D2",
          "ticks": 70080,
          "time": 146,
          "velocity": 0.8503937007874016
        },
        {
          "duration": 0.3333333333333428,
          "durationTicks": 160,
          "midi": 36,
          "name": "C2",
          "ticks": 70272,
          "time": 146.4,
          "velocity": 0.8503937007874016
        },
        {
          "duration": 0.3333333333333428,
          "durationTicks": 160,
          "midi": 36,
          "name": "C2",
          "ticks": 70656,
          "time": 147.2,
          "velocity": 0.8503937007874016
        },
        {
          "duration": 0.3333333333333428,
          "durationTicks": 160,
          "midi": 38,
          "name": "D2",
          "ticks": 70848,
          "time": 147.6,
          "velocity": 0.8503937007874016
        },
        {
          "duration": 0.3333333333333428,
          "durationTicks": 160,
          "midi": 36,
          "name": "C2",
          "ticks": 71040,
          "time": 148,
          "velocity": 0.8503937007874016
        },
        {
          "duration": 0.19583333333332575,
          "durationTicks": 94,
          "midi": 38,
          "name": "D2",
          "ticks": 71232,
          "time": 148.4,
          "velocity": 0.8503937007874016
        },
        {
          "duration": 0.19583333333335418,
          "durationTicks": 94,
          "midi": 36,
          "name": "C2",
          "ticks": 71328,
          "time": 148.6,
          "velocity": 0.8503937007874016
        },
        {
          "duration": 0.3333333333333144,
          "durationTicks": 160,
          "midi": 36,
          "name": "C2",
          "ticks": 71424,
          "time": 148.8,
          "velocity": 0.8503937007874016
        },
        {
          "duration": 0.3333333333333428,
          "durationTicks": 160,
          "midi": 38,
          "name": "D2",
          "ticks": 71616,
          "time": 149.2,
          "velocity": 0.8503937007874016
        },
        {
          "duration": 0.3333333333333428,
          "durationTicks": 160,
          "midi": 36,
          "name": "C2",
          "ticks": 71808,
          "time": 149.6,
          "velocity": 0.8503937007874016
        },
        {
          "duration": 0.19583333333332575,
          "durationTicks": 94,
          "midi": 38,
          "name": "D2",
          "ticks": 72000,
          "time": 150,
          "velocity": 0.8503937007874016
        },
        {
          "duration": 0.19583333333335418,
          "durationTicks": 94,
          "midi": 36,
          "name": "C2",
          "ticks": 72096,
          "time": 150.2,
          "velocity": 0.8503937007874016
        },
        {
          "duration": 0.3333333333333428,
          "durationTicks": 160,
          "midi": 36,
          "name": "C2",
          "ticks": 72192,
          "time": 150.4,
          "velocity": 0.8503937007874016
        },
        {
          "duration": 0.3333333333333144,
          "durationTicks": 160,
          "midi": 38,
          "name": "D2",
          "ticks": 72384,
          "time": 150.8,
          "velocity": 0.8503937007874016
        },
        {
          "duration": 0.3333333333333428,
          "durationTicks": 160,
          "midi": 36,
          "name": "C2",
          "ticks": 72576,
          "time": 151.2,
          "velocity": 0.8503937007874016
        },
        {
          "duration": 0.19583333333335418,
          "durationTicks": 94,
          "midi": 38,
          "name": "D2",
          "ticks": 72768,
          "time": 151.6,
          "velocity": 0.8503937007874016
        },
        {
          "duration": 0.19583333333332575,
          "durationTicks": 94,
          "midi": 36,
          "name": "C2",
          "ticks": 72864,
          "time": 151.8,
          "velocity": 0.8503937007874016
        },
        {
          "duration": 0.3333333333333428,
          "durationTicks": 160,
          "midi": 36,
          "name": "C2",
          "ticks": 72960,
          "time": 152,
          "velocity": 0.8503937007874016
        },
        {
          "duration": 0.3333333333333428,
          "durationTicks": 160,
          "midi": 38,
          "name": "D2",
          "ticks": 73152,
          "time": 152.4,
          "velocity": 0.8503937007874016
        },
        {
          "duration": 0.3333333333333144,
          "durationTicks": 160,
          "midi": 36,
          "name": "C2",
          "ticks": 73344,
          "time": 152.8,
          "velocity": 0.8503937007874016
        },
        {
          "duration": 0.19583333333335418,
          "durationTicks": 94,
          "midi": 38,
          "name": "D2",
          "ticks": 73536,
          "time": 153.2,
          "velocity": 0.8503937007874016
        },
        {
          "duration": 0.19583333333332575,
          "durationTicks": 94,
          "midi": 36,
          "name": "C2",
          "ticks": 73632,
          "time": 153.4,
          "velocity": 0.8503937007874016
        },
        {
          "duration": 0.3333333333333144,
          "durationTicks": 160,
          "midi": 36,
          "name": "C2",
          "ticks": 73728,
          "time": 153.60000000000002,
          "velocity": 0.8503937007874016
        },
        {
          "duration": 0.3333333333333428,
          "durationTicks": 160,
          "midi": 38,
          "name": "D2",
          "ticks": 73920,
          "time": 154,
          "velocity": 0.8503937007874016
        },
        {
          "duration": 0.3333333333333428,
          "durationTicks": 160,
          "midi": 36,
          "name": "C2",
          "ticks": 74112,
          "time": 154.4,
          "velocity": 0.8503937007874016
        },
        {
          "duration": 0.19583333333332575,
          "durationTicks": 94,
          "midi": 38,
          "name": "D2",
          "ticks": 74304,
          "time": 154.8,
          "velocity": 0.8503937007874016
        },
        {
          "duration": 0.19583333333332575,
          "durationTicks": 94,
          "midi": 36,
          "name": "C2",
          "ticks": 74400,
          "time": 155,
          "velocity": 0.8503937007874016
        },
        {
          "duration": 0.3333333333333428,
          "durationTicks": 160,
          "midi": 36,
          "name": "C2",
          "ticks": 74496,
          "time": 155.2,
          "velocity": 0.8503937007874016
        },
        {
          "duration": 0.3333333333333144,
          "durationTicks": 160,
          "midi": 38,
          "name": "D2",
          "ticks": 74688,
          "time": 155.60000000000002,
          "velocity": 0.8503937007874016
        },
        {
          "duration": 0.3333333333333428,
          "durationTicks": 160,
          "midi": 36,
          "name": "C2",
          "ticks": 74880,
          "time": 156,
          "velocity": 0.8503937007874016
        },
        {
          "duration": 0.19583333333332575,
          "durationTicks": 94,
          "midi": 38,
          "name": "D2",
          "ticks": 75072,
          "time": 156.4,
          "velocity": 0.8503937007874016
        },
        {
          "duration": 0.19583333333332575,
          "durationTicks": 94,
          "midi": 36,
          "name": "C2",
          "ticks": 75168,
          "time": 156.60000000000002,
          "velocity": 0.8503937007874016
        },
        {
          "duration": 0.3333333333333144,
          "durationTicks": 160,
          "midi": 36,
          "name": "C2",
          "ticks": 75264,
          "time": 156.8,
          "velocity": 0.8503937007874016
        },
        {
          "duration": 0.3333333333333428,
          "durationTicks": 160,
          "midi": 38,
          "name": "D2",
          "ticks": 75456,
          "time": 157.2,
          "velocity": 0.8503937007874016
        },
        {
          "duration": 0.3333333333333144,
          "durationTicks": 160,
          "midi": 36,
          "name": "C2",
          "ticks": 75648,
          "time": 157.60000000000002,
          "velocity": 0.8503937007874016
        },
        {
          "duration": 0.19583333333332575,
          "durationTicks": 94,
          "midi": 38,
          "name": "D2",
          "ticks": 75840,
          "time": 158,
          "velocity": 0.8503937007874016
        },
        {
          "duration": 0.19583333333335418,
          "durationTicks": 94,
          "midi": 36,
          "name": "C2",
          "ticks": 75936,
          "time": 158.2,
          "velocity": 0.8503937007874016
        },
        {
          "duration": 0.3333333333333428,
          "durationTicks": 160,
          "midi": 36,
          "name": "C2",
          "ticks": 76032,
          "time": 158.4,
          "velocity": 0.8503937007874016
        },
        {
          "duration": 0.3333333333333144,
          "durationTicks": 160,
          "midi": 38,
          "name": "D2",
          "ticks": 76224,
          "time": 158.8,
          "velocity": 0.8503937007874016
        },
        {
          "duration": 0.3333333333333428,
          "durationTicks": 160,
          "midi": 36,
          "name": "C2",
          "ticks": 76416,
          "time": 159.2,
          "velocity": 0.8503937007874016
        },
        {
          "duration": 0.19583333333332575,
          "durationTicks": 94,
          "midi": 38,
          "name": "D2",
          "ticks": 76608,
          "time": 159.60000000000002,
          "velocity": 0.8503937007874016
        },
        {
          "duration": 0.19583333333332575,
          "durationTicks": 94,
          "midi": 36,
          "name": "C2",
          "ticks": 76704,
          "time": 159.8,
          "velocity": 0.8503937007874016
        },
        {
          "duration": 0.3333333333333428,
          "durationTicks": 160,
          "midi": 36,
          "name": "C2",
          "ticks": 76800,
          "time": 160,
          "velocity": 0.8503937007874016
        },
        {
          "duration": 0.3333333333333428,
          "durationTicks": 160,
          "midi": 38,
          "name": "D2",
          "ticks": 76992,
          "time": 160.4,
          "velocity": 0.8503937007874016
        },
        {
          "duration": 0.3333333333333144,
          "durationTicks": 160,
          "midi": 36,
          "name": "C2",
          "ticks": 77184,
          "time": 160.8,
          "velocity": 0.8503937007874016
        },
        {
          "duration": 0.19583333333335418,
          "durationTicks": 94,
          "midi": 38,
          "name": "D2",
          "ticks": 77376,
          "time": 161.2,
          "velocity": 0.8503937007874016
        },
        {
          "duration": 0.19583333333332575,
          "durationTicks": 94,
          "midi": 36,
          "name": "C2",
          "ticks": 77472,
          "time": 161.4,
          "velocity": 0.8503937007874016
        },
        {
          "duration": 0.3333333333333144,
          "durationTicks": 160,
          "midi": 36,
          "name": "C2",
          "ticks": 77568,
          "time": 161.60000000000002,
          "velocity": 0.8503937007874016
        },
        {
          "duration": 0.3333333333333428,
          "durationTicks": 160,
          "midi": 38,
          "name": "D2",
          "ticks": 77760,
          "time": 162,
          "velocity": 0.8503937007874016
        },
        {
          "duration": 0.3333333333333428,
          "durationTicks": 160,
          "midi": 36,
          "name": "C2",
          "ticks": 77952,
          "time": 162.4,
          "velocity": 0.8503937007874016
        },
        {
          "duration": 0.19583333333332575,
          "durationTicks": 94,
          "midi": 38,
          "name": "D2",
          "ticks": 78144,
          "time": 162.8,
          "velocity": 0.8503937007874016
        },
        {
          "duration": 0.19583333333332575,
          "durationTicks": 94,
          "midi": 36,
          "name": "C2",
          "ticks": 78240,
          "time": 163,
          "velocity": 0.8503937007874016
        },
        {
          "duration": 0.3333333333333428,
          "durationTicks": 160,
          "midi": 36,
          "name": "C2",
          "ticks": 78336,
          "time": 163.2,
          "velocity": 0.8503937007874016
        },
        {
          "duration": 0.3333333333333144,
          "durationTicks": 160,
          "midi": 38,
          "name": "D2",
          "ticks": 78528,
          "time": 163.60000000000002,
          "velocity": 0.8503937007874016
        },
        {
          "duration": 0.3333333333333428,
          "durationTicks": 160,
          "midi": 36,
          "name": "C2",
          "ticks": 78720,
          "time": 164,
          "velocity": 0.8503937007874016
        },
        {
          "duration": 0.19583333333332575,
          "durationTicks": 94,
          "midi": 38,
          "name": "D2",
          "ticks": 78912,
          "time": 164.4,
          "velocity": 0.8503937007874016
        },
        {
          "duration": 0.19583333333332575,
          "durationTicks": 94,
          "midi": 36,
          "name": "C2",
          "ticks": 79008,
          "time": 164.60000000000002,
          "velocity": 0.8503937007874016
        },
        {
          "duration": 0.3333333333333144,
          "durationTicks": 160,
          "midi": 36,
          "name": "C2",
          "ticks": 79104,
          "time": 164.8,
          "velocity": 0.8503937007874016
        },
        {
          "duration": 0.3333333333333428,
          "durationTicks": 160,
          "midi": 38,
          "name": "D2",
          "ticks": 79296,
          "time": 165.2,
          "velocity": 0.8503937007874016
        },
        {
          "duration": 0.3333333333333144,
          "durationTicks": 160,
          "midi": 36,
          "name": "C2",
          "ticks": 79488,
          "time": 165.60000000000002,
          "velocity": 0.8503937007874016
        },
        {
          "duration": 0.19583333333332575,
          "durationTicks": 94,
          "midi": 38,
          "name": "D2",
          "ticks": 79680,
          "time": 166,
          "velocity": 0.8503937007874016
        },
        {
          "duration": 0.19583333333335418,
          "durationTicks": 94,
          "midi": 36,
          "name": "C2",
          "ticks": 79776,
          "time": 166.2,
          "velocity": 0.8503937007874016
        },
        {
          "duration": 0.19583333333335418,
          "durationTicks": 94,
          "midi": 35,
          "name": "B1",
          "ticks": 79872,
          "time": 166.4,
          "velocity": 0.5905511811023622
        },
        {
          "duration": 0.19583333333332575,
          "durationTicks": 94,
          "midi": 40,
          "name": "E2",
          "ticks": 79968,
          "time": 166.60000000000002,
          "velocity": 0.5905511811023622
        },
        {
          "duration": 0.19583333333332575,
          "durationTicks": 94,
          "midi": 35,
          "name": "B1",
          "ticks": 80064,
          "time": 166.8,
          "velocity": 0.5905511811023622
        },
        {
          "duration": 0.19583333333332575,
          "durationTicks": 94,
          "midi": 40,
          "name": "E2",
          "ticks": 80160,
          "time": 167,
          "velocity": 0.5905511811023622
        },
        {
          "duration": 0.19583333333335418,
          "durationTicks": 94,
          "midi": 35,
          "name": "B1",
          "ticks": 80256,
          "time": 167.2,
          "velocity": 0.5905511811023622
        },
        {
          "duration": 0.19583333333335418,
          "durationTicks": 94,
          "midi": 40,
          "name": "E2",
          "ticks": 80352,
          "time": 167.4,
          "velocity": 0.5905511811023622
        },
        {
          "duration": 0.09583333333330302,
          "durationTicks": 46,
          "midi": 40,
          "name": "E2",
          "ticks": 80448,
          "time": 167.60000000000002,
          "velocity": 0.5905511811023622
        },
        {
          "duration": 0.09583333333335986,
          "durationTicks": 46,
          "midi": 40,
          "name": "E2",
          "ticks": 80496,
          "time": 167.7,
          "velocity": 0.5905511811023622
        },
        {
          "duration": 0.19583333333332575,
          "durationTicks": 94,
          "midi": 40,
          "name": "E2",
          "ticks": 80544,
          "time": 167.8,
          "velocity": 0.5905511811023622
        },
        {
          "duration": 0.19583333333332575,
          "durationTicks": 94,
          "midi": 35,
          "name": "B1",
          "ticks": 80640,
          "time": 168,
          "velocity": 0.5905511811023622
        },
        {
          "duration": 0.19583333333335418,
          "durationTicks": 94,
          "midi": 40,
          "name": "E2",
          "ticks": 80736,
          "time": 168.2,
          "velocity": 0.5905511811023622
        },
        {
          "duration": 0.19583333333335418,
          "durationTicks": 94,
          "midi": 35,
          "name": "B1",
          "ticks": 80832,
          "time": 168.4,
          "velocity": 0.5905511811023622
        },
        {
          "duration": 0.19583333333332575,
          "durationTicks": 94,
          "midi": 40,
          "name": "E2",
          "ticks": 80928,
          "time": 168.60000000000002,
          "velocity": 0.5905511811023622
        },
        {
          "duration": 0.19583333333332575,
          "durationTicks": 94,
          "midi": 35,
          "name": "B1",
          "ticks": 81024,
          "time": 168.8,
          "velocity": 0.5905511811023622
        },
        {
          "duration": 0.19583333333332575,
          "durationTicks": 94,
          "midi": 40,
          "name": "E2",
          "ticks": 81120,
          "time": 169,
          "velocity": 0.5905511811023622
        },
        {
          "duration": 0.09583333333335986,
          "durationTicks": 46,
          "midi": 40,
          "name": "E2",
          "ticks": 81216,
          "time": 169.2,
          "velocity": 0.5905511811023622
        },
        {
          "duration": 0.09583333333333144,
          "durationTicks": 46,
          "midi": 40,
          "name": "E2",
          "ticks": 81264,
          "time": 169.3,
          "velocity": 0.5905511811023622
        },
        {
          "duration": 0.19583333333335418,
          "durationTicks": 94,
          "midi": 40,
          "name": "E2",
          "ticks": 81312,
          "time": 169.4,
          "velocity": 0.5905511811023622
        },
        {
          "duration": 0.19583333333332575,
          "durationTicks": 94,
          "midi": 35,
          "name": "B1",
          "ticks": 81408,
          "time": 169.60000000000002,
          "velocity": 0.5905511811023622
        },
        {
          "duration": 0.19583333333332575,
          "durationTicks": 94,
          "midi": 35,
          "name": "B1",
          "ticks": 81504,
          "time": 169.8,
          "velocity": 0.5905511811023622
        },
        {
          "duration": 0.19583333333332575,
          "durationTicks": 94,
          "midi": 40,
          "name": "E2",
          "ticks": 81600,
          "time": 170,
          "velocity": 0.5905511811023622
        },
        {
          "duration": 0.19583333333335418,
          "durationTicks": 94,
          "midi": 35,
          "name": "B1",
          "ticks": 81696,
          "time": 170.2,
          "velocity": 0.5905511811023622
        },
        {
          "duration": 0.19583333333335418,
          "durationTicks": 94,
          "midi": 40,
          "name": "E2",
          "ticks": 81792,
          "time": 170.4,
          "velocity": 0.5905511811023622
        },
        {
          "duration": 0.19583333333335418,
          "durationTicks": 94,
          "midi": 40,
          "name": "E2",
          "ticks": 82176,
          "time": 171.2,
          "velocity": 0.5905511811023622
        },
        {
          "duration": 0.19583333333335418,
          "durationTicks": 94,
          "midi": 40,
          "name": "E2",
          "ticks": 82272,
          "time": 171.4,
          "velocity": 0.5905511811023622
        },
        {
          "duration": 0.19583333333332575,
          "durationTicks": 94,
          "midi": 35,
          "name": "B1",
          "ticks": 82368,
          "time": 171.60000000000002,
          "velocity": 0.5905511811023622
        },
        {
          "duration": 0.19583333333332575,
          "durationTicks": 94,
          "midi": 40,
          "name": "E2",
          "ticks": 82464,
          "time": 171.8,
          "velocity": 0.5905511811023622
        },
        {
          "duration": 0.19583333333332575,
          "durationTicks": 94,
          "midi": 35,
          "name": "B1",
          "ticks": 82560,
          "time": 172,
          "velocity": 0.5905511811023622
        },
        {
          "duration": 0.19583333333332575,
          "durationTicks": 94,
          "midi": 2,
          "name": "D-1",
          "ticks": 82848,
          "time": 172.60000000000002,
          "velocity": 0.5905511811023622
        }
      ],
      "endOfTrackTicks": 82942
    }
  ]
}