{
  "header": {
    "keySignatures": [
      {
        "key": "C",
        "scale": "major",
        "ticks": 0
      }
    ],
    "meta": [
      {
        "text": "Thunderstruck",
        "ticks": 0,
        "type": "marker"
      },
      {
        "text": "by AC/DC",
        "ticks": 0,
        "type": "marker"
      },
      {
        "text": "Mel Powell - 2001 (Axemaniac@btinternet.com)",
        "ticks": 0,
        "type": "marker"
      },
      {
        "text": "Mel Powell - 2001 (Rev 1.1)",
        "ticks": 0,
        "type": "marker"
      },
      {
        "text": "Midi files for use as backing track",
        "ticks": 0,
        "type": "marker"
      },
      {
        "text": "untitled",
        "ticks": 0,
        "type": "marker"
      },
      {
        "text": "untitled",
        "ticks": 0,
        "type": "marker"
      },
      {
        "text": "Dr In",
        "ticks": 10080,
        "type": "marker"
      },
      {
        "text": "Bs In",
        "ticks": 12000,
        "type": "marker"
      },
      {
        "text": "Gt 2 In",
        "ticks": 15840,
        "type": "marker"
      },
      {
        "text": "Verse 1",
        "ticks": 19680,
        "type": "marker"
      },
      {
        "text": "Gt 1 Change",
        "ticks": 27360,
        "type": "marker"
      },
      {
        "text": "Bridge 1",
        "ticks": 31200,
        "type": "marker"
      },
      {
        "text": "Verse 2",
        "ticks": 34080,
        "type": "marker"
      },
      {
        "text": "Bridge 2",
        "ticks": 41760,
        "type": "marker"
      },
      {
        "text": "Chorus 1",
        "ticks": 45600,
        "type": "marker"
      },
      {
        "text": "Bridge 3",
        "ticks": 49440,
        "type": "marker"
      },
      {
        "text": "Solo 1",
        "ticks": 53280,
        "type": "marker"
      },
      {
        "text": "Break 1",
        "ticks": 57120,
        "type": "marker"
      },
      {
        "text": "Chorus 2",
        "ticks": 61920,
        "type": "marker"
      }
    ],
    "name": "",
    "ppq": 120,
    "tempos": [
      {
        "bpm": 132.9999468000213,
        "ticks": 0
      },
      {
        "bpm": 132.9999468000213,
        "ticks": 58560
      },
      {
        "bpm": 132.9999468000213,
        "ticks": 75330
      },
      {
        "bpm": 122.99996925000768,
        "ticks": 77280
      },
      {
        "bpm": 123.4999897083342,
        "ticks": 78720
      },
      {
        "bpm": 122.0000691333725,
        "ticks": 78730
      },
      {
        "bpm": 120.50007531254707,
        "ticks": 78740
      },
      {
        "bpm": 118.99992463338107,
        "ticks": 78750
      },
      {
        "bpm": 117.50006854170665,
        "ticks": 78760
      },
      {
        "bpm": 116.00008506672904,
        "ticks": 78770
      },
      {
        "bpm": 114.50010209592436,
        "ticks": 78780
      },
      {
        "bpm": 112.50007031254394,
        "ticks": 78790
      },
      {
        "bpm": 110.9999056500802,
        "ticks": 78800
      },
      {
        "bpm": 109.5000410625154,
        "ticks": 78810
      },
      {
        "bpm": 107.99991360006912,
        "ticks": 78820
      },
      {
        "bpm": 106.50005325002662,
        "ticks": 78830
      },
      {
        "bpm": 104.99992125005906,
        "ticks": 78840
      },
      {
        "bpm": 103.50002587500647,
        "ticks": 78850
      },
      {
        "bpm": 101.50000084583334,
        "ticks": 78860
      },
      {
        "bpm": 100,
        "ticks": 78870
      },
      {
        "bpm": 98.5000090291675,
        "ticks": 78880
      },
      {
        "bpm": 96.99995311668933,
        "ticks": 78890
      },
      {
        "bpm": 95.50003820001528,
        "ticks": 78900
      },
      {
        "bpm": 93.99998120000376,
        "ticks": 78910
      },
      {
        "bpm": 92.49994989586047,
        "ticks": 78920
      },
      {
        "bpm": 90.5000580708706,
        "ticks": 78930
      },
      {
        "bpm": 89.00004005001803,
        "ticks": 78940
      },
      {
        "bpm": 87.50003645834852,
        "ticks": 78950
      },
      {
        "bpm": 86.00005160003096,
        "ticks": 78960
      },
      {
        "bpm": 84.50002042083827,
        "ticks": 78970
      },
      {
        "bpm": 82.99995020002989,
        "ticks": 78980
      },
      {
        "bpm": 81.50003531668197,
        "ticks": 78990
      },
      {
        "bpm": 79.49999801250004,
        "ticks": 79000
      },
      {
        "bpm": 77.99997660000702,
        "ticks": 79010
      },
      {
        "bpm": 76.49997322500937,
        "ticks": 79020
      },
      {
        "bpm": 75,
        "ticks": 79030
      },
      {
        "bpm": 73.4999577375243,
        "ticks": 79040
      },
      {
        "bpm": 72.00002880001152,
        "ticks": 79050
      },
      {
        "bpm": 70.49998590000283,
        "ticks": 79060
      },
      {
        "bpm": 68.50003196668159,
        "ticks": 79070
      },
      {
        "bpm": 67.00002903334591,
        "ticks": 79080
      },
      {
        "bpm": 65.49996670418359,
        "ticks": 79090
      },
      {
        "bpm": 64,
        "ticks": 79100
      },
      {
        "bpm": 62.5,
        "ticks": 79110
      },
      {
        "bpm": 60.99997255001235,
        "ticks": 79120
      },
      {
        "bpm": 59.50002132084097,
        "ticks": 79130
      },
      {
        "bpm": 57.500014375003595,
        "ticks": 79140
      },
      {
        "bpm": 55.99997760000896,
        "ticks": 79150
      },
      {
        "bpm": 54.500021345841695,
        "ticks": 79160
      },
      {
        "bpm": 53.000022083342536,
        "ticks": 79170
      },
      {
        "bpm": 51.49997982917456,
        "ticks": 79180
      },
      {
        "bpm": 50,
        "ticks": 79190
      },
      {
        "bpm": 48,
        "ticks": 79200
      },
      {
        "bpm": 123.4999897083342,
        "ticks": 79210
      }
    ],
    "timeSignatures": [
      {
        "ticks": 0,
        "timeSignature": [
          4,
          4
        ],
        "measures": 0
      }
    ]
  },
  "tracks": [
    {
      "channel": 8,
      "controlChanges": {
        "7": [
          {
            "number": 7,
            "ticks": 0,
            "time": 0,
            "value": 0.7086614173228346
          }
        ],
        "10": [
          {
            "number": 10,
            "ticks": 0,
            "time": 0,
            "value": 0.5039370078740157
          }
        ]
      },
      "pitchBends": [],
      "instrument": {
        "family": "bass",
        "number": 33,
        "name": "electric bass (finger)"
      },
      "name": "Bass",
      "notes": [
        {
          "duration": 0.16541359999999372,
          "durationTicks": 44,
          "midi": 35,
          "name": "B1",
          "ticks": 12000,
          "time": 45.1128,
          "velocity": 0.7874015748031497
        },
        {
          "duration": 0.16541359999999372,
          "durationTicks": 44,
          "midi": 35,
          "name": "B1",
          "ticks": 12060,
          "time": 45.338364,
          "velocity": 0.7874015748031497
        },
        {
          "duration": 0.16541359999999372,
          "durationTicks": 44,
          "midi": 35,
          "name": "B1",
          "ticks": 12120,
          "time": 45.563928,
          "velocity": 0.7874015748031497
        },
        {
          "duration": 0.16541360000000083,
          "durationTicks": 44,
          "midi": 35,
          "name": "B1",
          "ticks": 12180,
          "time": 45.789491999999996,
          "velocity": 0.7874015748031497
        },
        {
          "duration": 0.16541360000000083,
          "durationTicks": 44,
          "midi": 35,
          "name": "B1",
          "ticks": 12240,
          "time": 46.015055999999994,
          "velocity": 0.7874015748031497
        },
        {
          "duration": 0.16541359999999372,
          "durationTicks": 44,
          "midi": 35,
          "name": "B1",
          "ticks": 12300,
          "time": 46.24062,
          "velocity": 0.7874015748031497
        },
        {
          "duration": 0.16541359999999372,
          "durationTicks": 44,
          "midi": 35,
          "name": "B1",
          "ticks": 12360,
          "time": 46.466184,
          "velocity": 0.7874015748031497
        },
        {
          "duration": 0.16541360000000083,
          "durationTicks": 44,
          "midi": 35,
          "name": "B1",
          "ticks": 12420,
          "time": 46.691748,
          "velocity": 0.7874015748031497
        },
        {
          "duration": 0.16541360000000083,
          "durationTicks": 44,
          "midi": 35,
          "name": "B1",
          "ticks": 12480,
          "time": 46.917311999999995,
          "velocity": 0.7874015748031497
        },
        {
          "duration": 0.16541360000000083,
          "durationTicks": 44,
          "midi": 35,
          "name": "B1",
          "ticks": 12540,
          "time": 47.142875999999994,
          "velocity": 0.7874015748031497
        },
        {
          "duration": 0.16541359999999372,
          "durationTicks": 44,
          "midi": 35,
          "name": "B1",
          "ticks": 12600,
          "time": 47.36844,
          "velocity": 0.7874015748031497
        },
        {
          "duration": 0.16541359999999372,
          "durationTicks": 44,
          "midi": 35,
          "name": "B1",
          "ticks": 12660,
          "time": 47.594004,
          "velocity": 0.7874015748031497
        },
        {
          "duration": 0.16541360000000083,
          "durationTicks": 44,
          "midi": 35,
          "name": "B1",
          "ticks": 12720,
          "time": 47.819568,
          "velocity": 0.7874015748031497
        },
        {
          "duration": 0.16541360000000083,
          "durationTicks": 44,
          "midi": 35,
          "name": "B1",
          "ticks": 12780,
          "time": 48.045131999999995,
          "velocity": 0.7874015748031497
        },
        {
          "duration": 0.16541360000000083,
          "durationTicks": 44,
          "midi": 35,
          "name": "B1",
          "ticks": 12840,
          "time": 48.270695999999994,
          "velocity": 0.7874015748031497
        },
        {
          "duration": 0.16541359999999372,
          "durationTicks": 44,
          "midi": 35,
          "name": "B1",
          "ticks": 12900,
          "time": 48.49626,
          "velocity": 0.7874015748031497
        },
        {
          "duration": 0.16541359999999372,
          "durationTicks": 44,
          "midi": 35,
          "name": "B1",
          "ticks": 12960,
          "time": 48.721824,
          "velocity": 0.7874015748031497
        },
        {
          "duration": 0.16541360000000083,
          "durationTicks": 44,
          "midi": 35,
          "name": "B1",
          "ticks": 13020,
          "time": 48.947388,
          "velocity": 0.7874015748031497
        },
        {
          "duration": 0.16541360000000083,
          "durationTicks": 44,
          "midi": 35,
          "name": "B1",
          "ticks": 13080,
          "time": 49.172951999999995,
          "velocity": 0.7874015748031497
        },
        {
          "duration": 0.16541360000000083,
          "durationTicks": 44,
          "midi": 35,
          "name": "B1",
          "ticks": 13140,
          "time": 49.398515999999994,
          "velocity": 0.7874015748031497
        },
        {
          "duration": 0.16541359999999372,
          "durationTicks": 44,
          "midi": 35,
          "name": "B1",
          "ticks": 13200,
          "time": 49.62408,
          "velocity": 0.7874015748031497
        },
        {
          "duration": 0.16541359999999372,
          "durationTicks": 44,
          "midi": 35,
          "name": "B1",
          "ticks": 13260,
          "time": 49.849644,
          "velocity": 0.7874015748031497
        },
        {
          "duration": 0.16541360000000083,
          "durationTicks": 44,
          "midi": 35,
          "name": "B1",
          "ticks": 13320,
          "time": 50.075207999999996,
          "velocity": 0.7874015748031497
        },
        {
          "duration": 0.16541360000000083,
          "durationTicks": 44,
          "midi": 35,
          "name": "B1",
          "ticks": 13380,
          "time": 50.300771999999995,
          "velocity": 0.7874015748031497
        },
        {
          "duration": 0.16541359999999372,
          "durationTicks": 44,
          "midi": 35,
          "name": "B1",
          "ticks": 13440,
          "time": 50.526336,
          "velocity": 0.7874015748031497
        },
        {
          "duration": 0.16541359999999372,
          "durationTicks": 44,
          "midi": 35,
          "name": "B1",
          "ticks": 13500,
          "time": 50.7519,
          "velocity": 0.7874015748031497
        },
        {
          "duration": 0.16541359999999372,
          "durationTicks": 44,
          "midi": 35,
          "name": "B1",
          "ticks": 13560,
          "time": 50.977464,
          "velocity": 0.7874015748031497
        },
        {
          "duration": 0.16541360000000083,
          "durationTicks": 44,
          "midi": 35,
          "name": "B1",
          "ticks": 13620,
          "time": 51.203027999999996,
          "velocity": 0.7874015748031497
        },
        {
          "duration": 0.16541360000000083,
          "durationTicks": 44,
          "midi": 35,
          "name": "B1",
          "ticks": 13680,
          "time": 51.428591999999995,
          "velocity": 0.7874015748031497
        },
        {
          "duration": 0.16541359999999372,
          "durationTicks": 44,
          "midi": 35,
          "name": "B1",
          "ticks": 13740,
          "time": 51.654156,
          "velocity": 0.7874015748031497
        },
        {
          "duration": 0.16541359999999372,
          "durationTicks": 44,
          "midi": 35,
          "name": "B1",
          "ticks": 13800,
          "time": 51.87972,
          "velocity": 0.7874015748031497
        },
        {
          "duration": 0.16541359999999372,
          "durationTicks": 44,
          "midi": 35,
          "name": "B1",
          "ticks": 13860,
          "time": 52.105284,
          "velocity": 0.7874015748031497
        },
        {
          "duration": 0.16541360000000083,
          "durationTicks": 44,
          "midi": 35,
          "name": "B1",
          "ticks": 13920,
          "time": 52.330847999999996,
          "velocity": 0.7874015748031497
        },
        {
          "duration": 0.16541360000000083,
          "durationTicks": 44,
          "midi": 35,
          "name": "B1",
          "ticks": 13980,
          "time": 52.556411999999995,
          "velocity": 0.7874015748031497
        },
        {
          "duration": 0.16541359999999372,
          "durationTicks": 44,
          "midi": 35,
          "name": "B1",
          "ticks": 14040,
          "time": 52.781976,
          "velocity": 0.7874015748031497
        },
        {
          "duration": 0.16541359999999372,
          "durationTicks": 44,
          "midi": 35,
          "name": "B1",
          "ticks": 14100,
          "time": 53.00754,
          "velocity": 0.7874015748031497
        },
        {
          "duration": 0.16541359999999372,
          "durationTicks": 44,
          "midi": 35,
          "name": "B1",
          "ticks": 14160,
          "time": 53.233104,
          "velocity": 0.7874015748031497
        },
        {
          "duration": 0.16541360000000083,
          "durationTicks": 44,
          "midi": 35,
          "name": "B1",
          "ticks": 14220,
          "time": 53.458667999999996,
          "velocity": 0.7874015748031497
        },
        {
          "duration": 0.16541360000000083,
          "durationTicks": 44,
          "midi": 35,
          "name": "B1",
          "ticks": 14280,
          "time": 53.684231999999994,
          "velocity": 0.7874015748031497
        },
        {
          "duration": 0.16541359999999372,
          "durationTicks": 44,
          "midi": 35,
          "name": "B1",
          "ticks": 14340,
          "time": 53.909796,
          "velocity": 0.7874015748031497
        },
        {
          "duration": 0.16541359999999372,
          "durationTicks": 44,
          "midi": 35,
          "name": "B1",
          "ticks": 14400,
          "time": 54.13536,
          "velocity": 0.7874015748031497
        },
        {
          "duration": 0.16541359999999372,
          "durationTicks": 44,
          "midi": 35,
          "name": "B1",
          "ticks": 14460,
          "time": 54.360924,
          "velocity": 0.7874015748031497
        },
        {
          "duration": 0.16541360000000083,
          "durationTicks": 44,
          "midi": 35,
          "name": "B1",
          "ticks": 14520,
          "time": 54.586487999999996,
          "velocity": 0.7874015748031497
        },
        {
          "duration": 0.16541360000000083,
          "durationTicks": 44,
          "midi": 35,
          "name": "B1",
          "ticks": 14580,
          "time": 54.812051999999994,
          "velocity": 0.7874015748031497
        },
        {
          "duration": 0.16541359999999372,
          "durationTicks": 44,
          "midi": 35,
          "name": "B1",
          "ticks": 14640,
          "time": 55.037616,
          "velocity": 0.7874015748031497
        },
        {
          "duration": 0.16541359999999372,
          "durationTicks": 44,
          "midi": 35,
          "name": "B1",
          "ticks": 14700,
          "time": 55.26318,
          "velocity": 0.7874015748031497
        },
        {
          "duration": 0.16541359999999372,
          "durationTicks": 44,
          "midi": 35,
          "name": "B1",
          "ticks": 14760,
          "time": 55.488744,
          "velocity": 0.7874015748031497
        },
        {
          "duration": 0.16541360000000083,
          "durationTicks": 44,
          "midi": 35,
          "name": "B1",
          "ticks": 14820,
          "time": 55.714307999999996,
          "velocity": 0.7874015748031497
        },
        {
          "duration": 0.16541360000000083,
          "durationTicks": 44,
          "midi": 35,
          "name": "B1",
          "ticks": 14880,
          "time": 55.939871999999994,
          "velocity": 0.7874015748031497
        },
        {
          "duration": 0.16541359999999372,
          "durationTicks": 44,
          "midi": 35,
          "name": "B1",
          "ticks": 14940,
          "time": 56.165436,
          "velocity": 0.7874015748031497
        },
        {
          "duration": 0.16541359999999372,
          "durationTicks": 44,
          "midi": 35,
          "name": "B1",
          "ticks": 15000,
          "time": 56.391,
          "velocity": 0.7874015748031497
        },
        {
          "duration": 0.16541359999999372,
          "durationTicks": 44,
          "midi": 35,
          "name": "B1",
          "ticks": 15060,
          "time": 56.616564,
          "velocity": 0.7874015748031497
        },
        {
          "duration": 0.16541360000000083,
          "durationTicks": 44,
          "midi": 35,
          "name": "B1",
          "ticks": 15120,
          "time": 56.842127999999995,
          "velocity": 0.7874015748031497
        },
        {
          "duration": 0.16541360000000083,
          "durationTicks": 44,
          "midi": 35,
          "name": "B1",
          "ticks": 15180,
          "time": 57.067691999999994,
          "velocity": 0.7874015748031497
        },
        {
          "duration": 0.16541359999999372,
          "durationTicks": 44,
          "midi": 35,
          "name": "B1",
          "ticks": 15240,
          "time": 57.293256,
          "velocity": 0.7874015748031497
        },
        {
          "duration": 0.16541359999999372,
          "durationTicks": 44,
          "midi": 35,
          "name": "B1",
          "ticks": 15300,
          "time": 57.51882,
          "velocity": 0.7874015748031497
        },
        {
          "duration": 0.16541360000000083,
          "durationTicks": 44,
          "midi": 35,
          "name": "B1",
          "ticks": 15360,
          "time": 57.744384,
          "velocity": 0.7874015748031497
        },
        {
          "duration": 0.16541360000000793,
          "durationTicks": 44,
          "midi": 35,
          "name": "B1",
          "ticks": 15420,
          "time": 57.969947999999995,
          "velocity": 0.7874015748031497
        },
        {
          "duration": 0.16541360000000793,
          "durationTicks": 44,
          "midi": 35,
          "name": "B1",
          "ticks": 15480,
          "time": 58.195511999999994,
          "velocity": 0.7874015748031497
        },
        {
          "duration": 0.16541360000000083,
          "durationTicks": 44,
          "midi": 35,
          "name": "B1",
          "ticks": 15540,
          "time": 58.421076,
          "velocity": 0.7874015748031497
        },
        {
          "duration": 0.16541360000000083,
          "durationTicks": 44,
          "midi": 35,
          "name": "B1",
          "ticks": 15600,
          "time": 58.64664,
          "velocity": 0.7874015748031497
        },
        {
          "duration": 0.16541360000000083,
          "durationTicks": 44,
          "midi": 35,
          "name": "B1",
          "ticks": 15660,
          "time": 58.872203999999996,
          "velocity": 0.7874015748031497
        },
        {
          "duration": 0.16541360000000793,
          "durationTicks": 44,
          "midi": 35,
          "name": "B1",
          "ticks": 15720,
          "time": 59.097767999999995,
          "velocity": 0.7874015748031497
        },
        {
          "duration": 0.16541360000000793,
          "durationTicks": 44,
          "midi": 35,
          "name": "B1",
          "ticks": 15780,
          "time": 59.32333199999999,
          "velocity": 0.7874015748031497
        },
        {
          "duration": 0.16541360000000083,
          "durationTicks": 44,
          "midi": 35,
          "name": "B1",
          "ticks": 15840,
          "time": 59.548896,
          "velocity": 0.7874015748031497
        },
        {
          "duration": 0.16541360000000083,
          "durationTicks": 44,
          "midi": 35,
          "name": "B1",
          "ticks": 15900,
          "time": 59.77446,
          "velocity": 0.7874015748031497
        },
        {
          "duration": 0.16541360000000083,
          "durationTicks": 44,
          "midi": 35,
          "name": "B1",
          "ticks": 15960,
          "time": 60.000023999999996,
          "velocity": 0.7874015748031497
        },
        {
          "duration": 0.16541360000000793,
          "durationTicks": 44,
          "midi": 35,
          "name": "B1",
          "ticks": 16020,
          "time": 60.225587999999995,
          "velocity": 0.7874015748031497
        },
        {
          "duration": 0.16541360000000793,
          "durationTicks": 44,
          "midi": 35,
          "name": "B1",
          "ticks": 16080,
          "time": 60.45115199999999,
          "velocity": 0.7874015748031497
        },
        {
          "duration": 0.16541360000000083,
          "durationTicks": 44,
          "midi": 35,
          "name": "B1",
          "ticks": 16140,
          "time": 60.676716,
          "velocity": 0.7874015748031497
        },
        {
          "duration": 0.16541360000000083,
          "durationTicks": 44,
          "midi": 35,
          "name": "B1",
          "ticks": 16200,
          "time": 60.90228,
          "velocity": 0.7874015748031497
        },
        {
          "duration": 0.16541360000000083,
          "durationTicks": 44,
          "midi": 35,
          "name": "B1",
          "ticks": 16260,
          "time": 61.127843999999996,
          "velocity": 0.7874015748031497
        },
        {
          "duration": 0.16541360000000793,
          "durationTicks": 44,
          "midi": 35,
          "name": "B1",
          "ticks": 16320,
          "time": 61.353407999999995,
          "velocity": 0.7874015748031497
        },
        {
          "duration": 0.16541360000000793,
          "durationTicks": 44,
          "midi": 35,
          "name": "B1",
          "ticks": 16380,
          "time": 61.57897199999999,
          "velocity": 0.7874015748031497
        },
        {
          "duration": 0.16541360000000083,
          "durationTicks": 44,
          "midi": 35,
          "name": "B1",
          "ticks": 16440,
          "time": 61.804536,
          "velocity": 0.7874015748031497
        },
        {
          "duration": 0.16541360000000083,
          "durationTicks": 44,
          "midi": 35,
          "name": "B1",
          "ticks": 16500,
          "time": 62.0301,
          "velocity": 0.7874015748031497
        },
        {
          "duration": 0.16541360000000083,
          "durationTicks": 44,
          "midi": 35,
          "name": "B1",
          "ticks": 16560,
          "time": 62.255663999999996,
          "velocity": 0.7874015748031497
        },
        {
          "duration": 0.16541360000000793,
          "durationTicks": 44,
          "midi": 35,
          "name": "B1",
          "ticks": 16620,
          "time": 62.481227999999994,
          "velocity": 0.7874015748031497
        },
        {
          "duration": 0.16541360000000793,
          "durationTicks": 44,
          "midi": 35,
          "name": "B1",
          "ticks": 16680,
          "time": 62.70679199999999,
          "velocity": 0.7874015748031497
        },
        {
          "duration": 0.16541360000000083,
          "durationTicks": 44,
          "midi": 35,
          "name": "B1",
          "ticks": 16740,
          "time": 62.932356,
          "velocity": 0.7874015748031497
        },
        {
          "duration": 0.16541360000000083,
          "durationTicks": 44,
          "midi": 35,
          "name": "B1",
          "ticks": 16800,
          "time": 63.15792,
          "velocity": 0.7874015748031497
        },
        {
          "duration": 0.16541360000000083,
          "durationTicks": 44,
          "midi": 35,
          "name": "B1",
          "ticks": 16860,
          "time": 63.383483999999996,
          "velocity": 0.7874015748031497
        },
        {
          "duration": 0.16541360000000793,
          "durationTicks": 44,
          "midi": 35,
          "name": "B1",
          "ticks": 16920,
          "time": 63.609047999999994,
          "velocity": 0.7874015748031497
        },
        {
          "duration": 0.16541360000000793,
          "durationTicks": 44,
          "midi": 35,
          "name": "B1",
          "ticks": 16980,
          "time": 63.83461199999999,
          "velocity": 0.7874015748031497
        },
        {
          "duration": 0.16541360000000793,
          "durationTicks": 44,
          "midi": 35,
          "name": "B1",
          "ticks": 17040,
          "time": 64.060176,
          "velocity": 0.7874015748031497
        },
        {
          "duration": 0.16541360000000793,
          "durationTicks": 44,
          "midi": 35,
          "name": "B1",
          "ticks": 17100,
          "time": 64.28573999999999,
          "velocity": 0.7874015748031497
        },
        {
          "duration": 0.16541360000000793,
          "durationTicks": 44,
          "midi": 35,
          "name": "B1",
          "ticks": 17160,
          "time": 64.511304,
          "velocity": 0.7874015748031497
        },
        {
          "duration": 0.16541359999999372,
          "durationTicks": 44,
          "midi": 35,
          "name": "B1",
          "ticks": 17220,
          "time": 64.736868,
          "velocity": 0.7874015748031497
        },
        {
          "duration": 0.16541360000000793,
          "durationTicks": 44,
          "midi": 35,
          "name": "B1",
          "ticks": 17280,
          "time": 64.96243199999999,
          "velocity": 0.7874015748031497
        },
        {
          "duration": 0.16541360000000793,
          "durationTicks": 44,
          "midi": 35,
          "name": "B1",
          "ticks": 17340,
          "time": 65.187996,
          "velocity": 0.7874015748031497
        },
        {
          "duration": 0.16541360000000793,
          "durationTicks": 44,
          "midi": 35,
          "name": "B1",
          "ticks": 17400,
          "time": 65.41355999999999,
          "velocity": 0.7874015748031497
        },
        {
          "duration": 0.16541360000000793,
          "durationTicks": 44,
          "midi": 35,
          "name": "B1",
          "ticks": 17460,
          "time": 65.639124,
          "velocity": 0.7874015748031497
        },
        {
          "duration": 0.16541359999999372,
          "durationTicks": 44,
          "midi": 35,
          "name": "B1",
          "ticks": 17520,
          "time": 65.864688,
          "velocity": 0.7874015748031497
        },
        {
          "duration": 0.16541360000000793,
          "durationTicks": 44,
          "midi": 35,
          "name": "B1",
          "ticks": 17580,
          "time": 66.09025199999999,
          "velocity": 0.7874015748031497
        },
        {
          "duration": 0.16541360000000793,
          "durationTicks": 44,
          "midi": 35,
          "name": "B1",
          "ticks": 17640,
          "time": 66.315816,
          "velocity": 0.7874015748031497
        },
        {
          "duration": 0.16541360000000793,
          "durationTicks": 44,
          "midi": 35,
          "name": "B1",
          "ticks": 17700,
          "time": 66.54137999999999,
          "velocity": 0.7874015748031497
        },
        {
          "duration": 0.16541360000000793,
          "durationTicks": 44,
          "midi": 35,
          "name": "B1",
          "ticks": 17760,
          "time": 66.766944,
          "velocity": 0.7874015748031497
        },
        {
          "duration": 0.16541359999999372,
          "durationTicks": 44,
          "midi": 35,
          "name": "B1",
          "ticks": 17820,
          "time": 66.992508,
          "velocity": 0.7874015748031497
        },
        {
          "duration": 0.16541360000000793,
          "durationTicks": 44,
          "midi": 35,
          "name": "B1",
          "ticks": 17880,
          "time": 67.21807199999999,
          "velocity": 0.7874015748031497
        },
        {
          "duration": 0.16541360000000793,
          "durationTicks": 44,
          "midi": 35,
          "name": "B1",
          "ticks": 17940,
          "time": 67.443636,
          "velocity": 0.7874015748031497
        },
        {
          "duration": 0.16541360000000793,
          "durationTicks": 44,
          "midi": 35,
          "name": "B1",
          "ticks": 18000,
          "time": 67.66919999999999,
          "velocity": 0.7874015748031497
        },
        {
          "duration": 0.16541360000000793,
          "durationTicks": 44,
          "midi": 35,
          "name": "B1",
          "ticks": 18060,
          "time": 67.894764,
          "velocity": 0.7874015748031497
        },
        {
          "duration": 0.16541359999999372,
          "durationTicks": 44,
          "midi": 35,
          "name": "B1",
          "ticks": 18120,
          "time": 68.120328,
          "velocity": 0.7874015748031497
        },
        {
          "duration": 0.16541360000000793,
          "durationTicks": 44,
          "midi": 35,
          "name": "B1",
          "ticks": 18180,
          "time": 68.34589199999999,
          "velocity": 0.7874015748031497
        },
        {
          "duration": 0.16541360000000793,
          "durationTicks": 44,
          "midi": 35,
          "name": "B1",
          "ticks": 18240,
          "time": 68.571456,
          "velocity": 0.7874015748031497
        },
        {
          "duration": 0.16541360000000793,
          "durationTicks": 44,
          "midi": 35,
          "name": "B1",
          "ticks": 18300,
          "time": 68.79701999999999,
          "velocity": 0.7874015748031497
        },
        {
          "duration": 0.16541360000000793,
          "durationTicks": 44,
          "midi": 35,
          "name": "B1",
          "ticks": 18360,
          "time": 69.022584,
          "velocity": 0.7874015748031497
        },
        {
          "duration": 0.16541359999999372,
          "durationTicks": 44,
          "midi": 35,
          "name": "B1",
          "ticks": 18420,
          "time": 69.248148,
          "velocity": 0.7874015748031497
        },
        {
          "duration": 0.16541360000000793,
          "durationTicks": 44,
          "midi": 35,
          "name": "B1",
          "ticks": 18480,
          "time": 69.47371199999999,
          "velocity": 0.7874015748031497
        },
        {
          "duration": 0.16541360000000793,
          "durationTicks": 44,
          "midi": 35,
          "name": "B1",
          "ticks": 18540,
          "time": 69.699276,
          "velocity": 0.7874015748031497
        },
        {
          "duration": 0.16541360000000793,
          "durationTicks": 44,
          "midi": 35,
          "name": "B1",
          "ticks": 18600,
          "time": 69.92483999999999,
          "velocity": 0.7874015748031497
        },
        {
          "duration": 0.16541360000000793,
          "durationTicks": 44,
          "midi": 35,
          "name": "B1",
          "ticks": 18660,
          "time": 70.150404,
          "velocity": 0.7874015748031497
        },
        {
          "duration": 0.16541359999999372,
          "durationTicks": 44,
          "midi": 35,
          "name": "B1",
          "ticks": 18720,
          "time": 70.375968,
          "velocity": 0.7874015748031497
        },
        {
          "duration": 0.16541360000000793,
          "durationTicks": 44,
          "midi": 35,
          "name": "B1",
          "ticks": 18780,
          "time": 70.60153199999999,
          "velocity": 0.7874015748031497
        },
        {
          "duration": 0.16541360000000793,
          "durationTicks": 44,
          "midi": 35,
          "name": "B1",
          "ticks": 18840,
          "time": 70.827096,
          "velocity": 0.7874015748031497
        },
        {
          "duration": 0.16541360000000793,
          "durationTicks": 44,
          "midi": 35,
          "name": "B1",
          "ticks": 18900,
          "time": 71.05265999999999,
          "velocity": 0.7874015748031497
        },
        {
          "duration": 0.16541360000000793,
          "durationTicks": 44,
          "midi": 35,
          "name": "B1",
          "ticks": 18960,
          "time": 71.278224,
          "velocity": 0.7874015748031497
        },
        {
          "duration": 0.16541359999999372,
          "durationTicks": 44,
          "midi": 35,
          "name": "B1",
          "ticks": 19020,
          "time": 71.503788,
          "velocity": 0.7874015748031497
        },
        {
          "duration": 0.16541360000000793,
          "durationTicks": 44,
          "midi": 35,
          "name": "B1",
          "ticks": 19080,
          "time": 71.72935199999999,
          "velocity": 0.7874015748031497
        },
        {
          "duration": 0.16541360000000793,
          "durationTicks": 44,
          "midi": 35,
          "name": "B1",
          "ticks": 19140,
          "time": 71.954916,
          "velocity": 0.7874015748031497
        },
        {
          "duration": 0.16541360000000793,
          "durationTicks": 44,
          "midi": 35,
          "name": "B1",
          "ticks": 19200,
          "time": 72.18047999999999,
          "velocity": 0.7874015748031497
        },
        {
          "duration": 0.16541360000000793,
          "durationTicks": 44,
          "midi": 35,
          "name": "B1",
          "ticks": 19260,
          "time": 72.406044,
          "velocity": 0.7874015748031497
        },
        {
          "duration": 0.16541359999999372,
          "durationTicks": 44,
          "midi": 35,
          "name": "B1",
          "ticks": 19320,
          "time": 72.631608,
          "velocity": 0.7874015748031497
        },
        {
          "duration": 0.16541360000000793,
          "durationTicks": 44,
          "midi": 35,
          "name": "B1",
          "ticks": 19380,
          "time": 72.85717199999999,
          "velocity": 0.7874015748031497
        },
        {
          "duration": 0.16541360000000793,
          "durationTicks": 44,
          "midi": 35,
          "name": "B1",
          "ticks": 19440,
          "time": 73.082736,
          "velocity": 0.7874015748031497
        },
        {
          "duration": 0.16541359999999372,
          "durationTicks": 44,
          "midi": 35,
          "name": "B1",
          "ticks": 19500,
          "time": 73.3083,
          "velocity": 0.7874015748031497
        },
        {
          "duration": 0.16541360000000793,
          "durationTicks": 44,
          "midi": 35,
          "name": "B1",
          "ticks": 19560,
          "time": 73.533864,
          "velocity": 0.7874015748031497
        },
        {
          "duration": 0.16541359999999372,
          "durationTicks": 44,
          "midi": 35,
          "name": "B1",
          "ticks": 19620,
          "time": 73.759428,
          "velocity": 0.7874015748031497
        },
        {
          "duration": 0.16541360000000793,
          "durationTicks": 44,
          "midi": 35,
          "name": "B1",
          "ticks": 19680,
          "time": 73.98499199999999,
          "velocity": 0.7874015748031497
        },
        {
          "duration": 0.16541360000000793,
          "durationTicks": 44,
          "midi": 35,
          "name": "B1",
          "ticks": 19740,
          "time": 74.210556,
          "velocity": 0.7874015748031497
        },
        {
          "duration": 0.16541359999999372,
          "durationTicks": 44,
          "midi": 35,
          "name": "B1",
          "ticks": 19800,
          "time": 74.43612,
          "velocity": 0.7874015748031497
        },
        {
          "duration": 0.16541360000000793,
          "durationTicks": 44,
          "midi": 35,
          "name": "B1",
          "ticks": 19860,
          "time": 74.661684,
          "velocity": 0.7874015748031497
        },
        {
          "duration": 0.16541359999999372,
          "durationTicks": 44,
          "midi": 35,
          "name": "B1",
          "ticks": 19920,
          "time": 74.887248,
          "velocity": 0.7874015748031497
        },
        {
          "duration": 0.16541360000000793,
          "durationTicks": 44,
          "midi": 35,
          "name": "B1",
          "ticks": 19980,
          "time": 75.11281199999999,
          "velocity": 0.7874015748031497
        },
        {
          "duration": 0.16541360000000793,
          "durationTicks": 44,
          "midi": 35,
          "name": "B1",
          "ticks": 20040,
          "time": 75.338376,
          "velocity": 0.7874015748031497
        },
        {
          "duration": 0.16541359999999372,
          "durationTicks": 44,
          "midi": 35,
          "name": "B1",
          "ticks": 20100,
          "time": 75.56394,
          "velocity": 0.7874015748031497
        },
        {
          "duration": 0.16541360000000793,
          "durationTicks": 44,
          "midi": 35,
          "name": "B1",
          "ticks": 20160,
          "time": 75.789504,
          "velocity": 0.7874015748031497
        },
        {
          "duration": 0.16541359999999372,
          "durationTicks": 44,
          "midi": 35,
          "name": "B1",
          "ticks": 20220,
          "time": 76.015068,
          "velocity": 0.7874015748031497
        },
        {
          "duration": 0.16541360000000793,
          "durationTicks": 44,
          "midi": 35,
          "name": "B1",
          "ticks": 20280,
          "time": 76.24063199999999,
          "velocity": 0.7874015748031497
        },
        {
          "duration": 0.16541360000000793,
          "durationTicks": 44,
          "midi": 35,
          "name": "B1",
          "ticks": 20340,
          "time": 76.466196,
          "velocity": 0.7874015748031497
        },
        {
          "duration": 0.16541359999999372,
          "durationTicks": 44,
          "midi": 35,
          "name": "B1",
          "ticks": 20400,
          "time": 76.69176,
          "velocity": 0.7874015748031497
        },
        {
          "duration": 0.16541360000000793,
          "durationTicks": 44,
          "midi": 35,
          "name": "B1",
          "ticks": 20460,
          "time": 76.917324,
          "velocity": 0.7874015748031497
        },
        {
          "duration": 0.16541359999999372,
          "durationTicks": 44,
          "midi": 35,
          "name": "B1",
          "ticks": 20520,
          "time": 77.142888,
          "velocity": 0.7874015748031497
        },
        {
          "duration": 0.16541360000000793,
          "durationTicks": 44,
          "midi": 35,
          "name": "B1",
          "ticks": 20580,
          "time": 77.36845199999999,
          "velocity": 0.7874015748031497
        },
        {
          "duration": 0.16541360000000793,
          "durationTicks": 44,
          "midi": 35,
          "name": "B1",
          "ticks": 20640,
          "time": 77.594016,
          "velocity": 0.7874015748031497
        },
        {
          "duration": 0.16541359999999372,
          "durationTicks": 44,
          "midi": 35,
          "name": "B1",
          "ticks": 20700,
          "time": 77.81958,
          "velocity": 0.7874015748031497
        },
        {
          "duration": 0.16541360000000793,
          "durationTicks": 44,
          "midi": 35,
          "name": "B1",
          "ticks": 20760,
          "time": 78.045144,
          "velocity": 0.7874015748031497
        },
        {
          "duration": 0.16541359999999372,
          "durationTicks": 44,
          "midi": 35,
          "name": "B1",
          "ticks": 20820,
          "time": 78.270708,
          "velocity": 0.7874015748031497
        },
        {
          "duration": 0.16541360000000793,
          "durationTicks": 44,
          "midi": 35,
          "name": "B1",
          "ticks": 20880,
          "time": 78.49627199999999,
          "velocity": 0.7874015748031497
        },
        {
          "duration": 0.16541360000000793,
          "durationTicks": 44,
          "midi": 35,
          "name": "B1",
          "ticks": 20940,
          "time": 78.721836,
          "velocity": 0.7874015748031497
        },
        {
          "duration": 0.16541359999999372,
          "durationTicks": 44,
          "midi": 35,
          "name": "B1",
          "ticks": 21000,
          "time": 78.9474,
          "velocity": 0.7874015748031497
        },
        {
          "duration": 0.16541360000000793,
          "durationTicks": 44,
          "midi": 35,
          "name": "B1",
          "ticks": 21060,
          "time": 79.172964,
          "velocity": 0.7874015748031497
        },
        {
          "duration": 0.16541359999999372,
          "durationTicks": 44,
          "midi": 35,
          "name": "B1",
          "ticks": 21120,
          "time": 79.398528,
          "velocity": 0.7874015748031497
        },
        {
          "duration": 0.16541360000000793,
          "durationTicks": 44,
          "midi": 35,
          "name": "B1",
          "ticks": 21180,
          "time": 79.62409199999999,
          "velocity": 0.7874015748031497
        },
        {
          "duration": 0.16541360000000793,
          "durationTicks": 44,
          "midi": 35,
          "name": "B1",
          "ticks": 21240,
          "time": 79.849656,
          "velocity": 0.7874015748031497
        },
        {
          "duration": 0.16541359999999372,
          "durationTicks": 44,
          "midi": 35,
          "name": "B1",
          "ticks": 21300,
          "time": 80.07522,
          "velocity": 0.7874015748031497
        },
        {
          "duration": 0.16541360000000793,
          "durationTicks": 44,
          "midi": 35,
          "name": "B1",
          "ticks": 21360,
          "time": 80.300784,
          "velocity": 0.7874015748031497
        },
        {
          "duration": 0.16541359999999372,
          "durationTicks": 44,
          "midi": 35,
          "name": "B1",
          "ticks": 21420,
          "time": 80.526348,
          "velocity": 0.7874015748031497
        },
        {
          "duration": 0.16541360000000793,
          "durationTicks": 44,
          "midi": 35,
          "name": "B1",
          "ticks": 21480,
          "time": 80.75191199999999,
          "velocity": 0.7874015748031497
        },
        {
          "duration": 0.16541360000000793,
          "durationTicks": 44,
          "midi": 35,
          "name": "B1",
          "ticks": 21540,
          "time": 80.977476,
          "velocity": 0.7874015748031497
        },
        {
          "duration": 0.16541359999999372,
          "durationTicks": 44,
          "midi": 35,
          "name": "B1",
          "ticks": 21600,
          "time": 81.20304,
          "velocity": 0.7874015748031497
        },
        {
          "duration": 0.16541360000000793,
          "durationTicks": 44,
          "midi": 35,
          "name": "B1",
          "ticks": 21660,
          "time": 81.42860399999999,
          "velocity": 0.7874015748031497
        },
        {
          "duration": 0.16541359999999372,
          "durationTicks": 44,
          "midi": 35,
          "name": "B1",
          "ticks": 21720,
          "time": 81.654168,
          "velocity": 0.7874015748031497
        },
        {
          "duration": 0.16541360000000793,
          "durationTicks": 44,
          "midi": 35,
          "name": "B1",
          "ticks": 21780,
          "time": 81.87973199999999,
          "velocity": 0.7874015748031497
        },
        {
          "duration": 0.16541360000000793,
          "durationTicks": 44,
          "midi": 35,
          "name": "B1",
          "ticks": 21840,
          "time": 82.105296,
          "velocity": 0.7874015748031497
        },
        {
          "duration": 0.16541359999999372,
          "durationTicks": 44,
          "midi": 35,
          "name": "B1",
          "ticks": 21900,
          "time": 82.33086,
          "velocity": 0.7874015748031497
        },
        {
          "duration": 0.16541360000000793,
          "durationTicks": 44,
          "midi": 35,
          "name": "B1",
          "ticks": 21960,
          "time": 82.55642399999999,
          "velocity": 0.7874015748031497
        },
        {
          "duration": 0.16541359999999372,
          "durationTicks": 44,
          "midi": 35,
          "name": "B1",
          "ticks": 22020,
          "time": 82.781988,
          "velocity": 0.7874015748031497
        },
        {
          "duration": 0.16541360000000793,
          "durationTicks": 44,
          "midi": 35,
          "name": "B1",
          "ticks": 22080,
          "time": 83.00755199999999,
          "velocity": 0.7874015748031497
        },
        {
          "duration": 0.16541360000000793,
          "durationTicks": 44,
          "midi": 35,
          "name": "B1",
          "ticks": 22140,
          "time": 83.233116,
          "velocity": 0.7874015748031497
        },
        {
          "duration": 0.16541359999999372,
          "durationTicks": 44,
          "midi": 35,
          "name": "B1",
          "ticks": 22200,
          "time": 83.45868,
          "velocity": 0.7874015748031497
        },
        {
          "duration": 0.16541360000000793,
          "durationTicks": 44,
          "midi": 35,
          "name": "B1",
          "ticks": 22260,
          "time": 83.68424399999999,
          "velocity": 0.7874015748031497
        },
        {
          "duration": 0.16541359999999372,
          "durationTicks": 44,
          "midi": 35,
          "name": "B1",
          "ticks": 22320,
          "time": 83.909808,
          "velocity": 0.7874015748031497
        },
        {
          "duration": 0.16541360000000793,
          "durationTicks": 44,
          "midi": 35,
          "name": "B1",
          "ticks": 22380,
          "time": 84.13537199999999,
          "velocity": 0.7874015748031497
        },
        {
          "duration": 0.16541360000000793,
          "durationTicks": 44,
          "midi": 35,
          "name": "B1",
          "ticks": 22440,
          "time": 84.360936,
          "velocity": 0.7874015748031497
        },
        {
          "duration": 0.16541359999999372,
          "durationTicks": 44,
          "midi": 35,
          "name": "B1",
          "ticks": 22500,
          "time": 84.5865,
          "velocity": 0.7874015748031497
        },
        {
          "duration": 0.16541360000000793,
          "durationTicks": 44,
          "midi": 35,
          "name": "B1",
          "ticks": 22560,
          "time": 84.81206399999999,
          "velocity": 0.7874015748031497
        },
        {
          "duration": 0.16541359999999372,
          "durationTicks": 44,
          "midi": 35,
          "name": "B1",
          "ticks": 22620,
          "time": 85.037628,
          "velocity": 0.7874015748031497
        },
        {
          "duration": 0.16541360000000793,
          "durationTicks": 44,
          "midi": 35,
          "name": "B1",
          "ticks": 22680,
          "time": 85.26319199999999,
          "velocity": 0.7874015748031497
        },
        {
          "duration": 0.16541360000000793,
          "durationTicks": 44,
          "midi": 35,
          "name": "B1",
          "ticks": 22740,
          "time": 85.488756,
          "velocity": 0.7874015748031497
        },
        {
          "duration": 0.16541359999999372,
          "durationTicks": 44,
          "midi": 35,
          "name": "B1",
          "ticks": 22800,
          "time": 85.71432,
          "velocity": 0.7874015748031497
        },
        {
          "duration": 0.16541360000000793,
          "durationTicks": 44,
          "midi": 35,
          "name": "B1",
          "ticks": 22860,
          "time": 85.93988399999999,
          "velocity": 0.7874015748031497
        },
        {
          "duration": 0.16541359999999372,
          "durationTicks": 44,
          "midi": 35,
          "name": "B1",
          "ticks": 22920,
          "time": 86.165448,
          "velocity": 0.7874015748031497
        },
        {
          "duration": 0.16541360000000793,
          "durationTicks": 44,
          "midi": 35,
          "name": "B1",
          "ticks": 22980,
          "time": 86.39101199999999,
          "velocity": 0.7874015748031497
        },
        {
          "duration": 0.16541360000000793,
          "durationTicks": 44,
          "midi": 35,
          "name": "B1",
          "ticks": 23040,
          "time": 86.616576,
          "velocity": 0.7874015748031497
        },
        {
          "duration": 0.16541359999999372,
          "durationTicks": 44,
          "midi": 35,
          "name": "B1",
          "ticks": 23100,
          "time": 86.84214,
          "velocity": 0.7874015748031497
        },
        {
          "duration": 0.16541360000000793,
          "durationTicks": 44,
          "midi": 35,
          "name": "B1",
          "ticks": 23160,
          "time": 87.06770399999999,
          "velocity": 0.7874015748031497
        },
        {
          "duration": 0.16541359999999372,
          "durationTicks": 44,
          "midi": 35,
          "name": "B1",
          "ticks": 23220,
          "time": 87.293268,
          "velocity": 0.7874015748031497
        },
        {
          "duration": 0.16541360000000793,
          "durationTicks": 44,
          "midi": 35,
          "name": "B1",
          "ticks": 23280,
          "time": 87.51883199999999,
          "velocity": 0.7874015748031497
        },
        {
          "duration": 0.16541360000000793,
          "durationTicks": 44,
          "midi": 35,
          "name": "B1",
          "ticks": 23340,
          "time": 87.744396,
          "velocity": 0.7874015748031497
        },
        {
          "duration": 0.16541359999999372,
          "durationTicks": 44,
          "midi": 35,
          "name": "B1",
          "ticks": 23400,
          "time": 87.96996,
          "velocity": 0.7874015748031497
        },
        {
          "duration": 0.16541360000000793,
          "durationTicks": 44,
          "midi": 35,
          "name": "B1",
          "ticks": 23460,
          "time": 88.19552399999999,
          "velocity": 0.7874015748031497
        },
        {
          "duration": 0.16541359999999372,
          "durationTicks": 44,
          "midi": 35,
          "name": "B1",
          "ticks": 23520,
          "time": 88.421088,
          "velocity": 0.7874015748031497
        },
        {
          "duration": 0.16541360000000793,
          "durationTicks": 44,
          "midi": 35,
          "name": "B1",
          "ticks": 23580,
          "time": 88.64665199999999,
          "velocity": 0.7874015748031497
        },
        {
          "duration": 0.16541360000000793,
          "durationTicks": 44,
          "midi": 35,
          "name": "B1",
          "ticks": 23640,
          "time": 88.872216,
          "velocity": 0.7874015748031497
        },
        {
          "duration": 0.16541359999999372,
          "durationTicks": 44,
          "midi": 35,
          "name": "B1",
          "ticks": 23700,
          "time": 89.09778,
          "velocity": 0.7874015748031497
        },
        {
          "duration": 0.16541360000000793,
          "durationTicks": 44,
          "midi": 35,
          "name": "B1",
          "ticks": 23760,
          "time": 89.32334399999999,
          "velocity": 0.7874015748031497
        },
        {
          "duration": 0.16541360000000793,
          "durationTicks": 44,
          "midi": 35,
          "name": "B1",
          "ticks": 23820,
          "time": 89.548908,
          "velocity": 0.7874015748031497
        },
        {
          "duration": 0.16541360000000793,
          "durationTicks": 44,
          "midi": 35,
          "name": "B1",
          "ticks": 23880,
          "time": 89.77447199999999,
          "velocity": 0.7874015748031497
        },
        {
          "duration": 0.16541360000000793,
          "durationTicks": 44,
          "midi": 35,
          "name": "B1",
          "ticks": 23940,
          "time": 90.000036,
          "velocity": 0.7874015748031497
        },
        {
          "duration": 0.16541359999999372,
          "durationTicks": 44,
          "midi": 35,
          "name": "B1",
          "ticks": 24000,
          "time": 90.2256,
          "velocity": 0.7874015748031497
        },
        {
          "duration": 0.16541360000000793,
          "durationTicks": 44,
          "midi": 35,
          "name": "B1",
          "ticks": 24060,
          "time": 90.45116399999999,
          "velocity": 0.7874015748031497
        },
        {
          "duration": 0.16541360000000793,
          "durationTicks": 44,
          "midi": 35,
          "name": "B1",
          "ticks": 24120,
          "time": 90.676728,
          "velocity": 0.7874015748031497
        },
        {
          "duration": 0.16541360000000793,
          "durationTicks": 44,
          "midi": 35,
          "name": "B1",
          "ticks": 24180,
          "time": 90.90229199999999,
          "velocity": 0.7874015748031497
        },
        {
          "duration": 0.16541360000000793,
          "durationTicks": 44,
          "midi": 35,
          "name": "B1",
          "ticks": 24240,
          "time": 91.127856,
          "velocity": 0.7874015748031497
        },
        {
          "duration": 0.16541359999999372,
          "durationTicks": 44,
          "midi": 35,
          "name": "B1",
          "ticks": 24300,
          "time": 91.35342,
          "velocity": 0.7874015748031497
        },
        {
          "duration": 0.16541360000000793,
          "durationTicks": 44,
          "midi": 35,
          "name": "B1",
          "ticks": 24360,
          "time": 91.57898399999999,
          "velocity": 0.7874015748031497
        },
        {
          "duration": 0.16541360000000793,
          "durationTicks": 44,
          "midi": 35,
          "name": "B1",
          "ticks": 24420,
          "time": 91.804548,
          "velocity": 0.7874015748031497
        },
        {
          "duration": 0.16541360000000793,
          "durationTicks": 44,
          "midi": 35,
          "name": "B1",
          "ticks": 24480,
          "time": 92.03011199999999,
          "velocity": 0.7874015748031497
        },
        {
          "duration": 0.16541360000000793,
          "durationTicks": 44,
          "midi": 35,
          "name": "B1",
          "ticks": 24540,
          "time": 92.255676,
          "velocity": 0.7874015748031497
        },
        {
          "duration": 0.16541359999999372,
          "durationTicks": 44,
          "midi": 35,
          "name": "B1",
          "ticks": 24600,
          "time": 92.48124,
          "velocity": 0.7874015748031497
        },
        {
          "duration": 0.16541360000000793,
          "durationTicks": 44,
          "midi": 35,
          "name": "B1",
          "ticks": 24660,
          "time": 92.70680399999999,
          "velocity": 0.7874015748031497
        },
        {
          "duration": 0.16541360000000793,
          "durationTicks": 44,
          "midi": 35,
          "name": "B1",
          "ticks": 24720,
          "time": 92.932368,
          "velocity": 0.7874015748031497
        },
        {
          "duration": 0.16541360000000793,
          "durationTicks": 44,
          "midi": 35,
          "name": "B1",
          "ticks": 24780,
          "time": 93.15793199999999,
          "velocity": 0.7874015748031497
        },
        {
          "duration": 0.16541360000000793,
          "durationTicks": 44,
          "midi": 35,
          "name": "B1",
          "ticks": 24840,
          "time": 93.383496,
          "velocity": 0.7874015748031497
        },
        {
          "duration": 0.16541359999999372,
          "durationTicks": 44,
          "midi": 35,
          "name": "B1",
          "ticks": 24900,
          "time": 93.60906,
          "velocity": 0.7874015748031497
        },
        {
          "duration": 0.16541360000000793,
          "durationTicks": 44,
          "midi": 35,
          "name": "B1",
          "ticks": 24960,
          "time": 93.83462399999999,
          "velocity": 0.7874015748031497
        },
        {
          "duration": 0.16541360000000793,
          "durationTicks": 44,
          "midi": 35,
          "name": "B1",
          "ticks": 25020,
          "time": 94.060188,
          "velocity": 0.7874015748031497
        },
        {
          "duration": 0.16541360000000793,
          "durationTicks": 44,
          "midi": 35,
          "name": "B1",
          "ticks": 25080,
          "time": 94.28575199999999,
          "velocity": 0.7874015748031497
        },
        {
          "duration": 0.16541360000000793,
          "durationTicks": 44,
          "midi": 35,
          "name": "B1",
          "ticks": 25140,
          "time": 94.511316,
          "velocity": 0.7874015748031497
        },
        {
          "duration": 0.16541359999999372,
          "durationTicks": 44,
          "midi": 35,
          "name": "B1",
          "ticks": 25200,
          "time": 94.73688,
          "velocity": 0.7874015748031497
        },
        {
          "duration": 0.16541360000000793,
          "durationTicks": 44,
          "midi": 35,
          "name": "B1",
          "ticks": 25260,
          "time": 94.96244399999999,
          "velocity": 0.7874015748031497
        },
        {
          "duration": 0.16541360000000793,
          "durationTicks": 44,
          "midi": 35,
          "name": "B1",
          "ticks": 25320,
          "time": 95.188008,
          "velocity": 0.7874015748031497
        },
        {
          "duration": 0.16541360000000793,
          "durationTicks": 44,
          "midi": 35,
          "name": "B1",
          "ticks": 25380,
          "time": 95.41357199999999,
          "velocity": 0.7874015748031497
        },
        {
          "duration": 0.16541360000000793,
          "durationTicks": 44,
          "midi": 35,
          "name": "B1",
          "ticks": 25440,
          "time": 95.639136,
          "velocity": 0.7874015748031497
        },
        {
          "duration": 0.16541359999999372,
          "durationTicks": 44,
          "midi": 35,
          "name": "B1",
          "ticks": 25500,
          "time": 95.8647,
          "velocity": 0.7874015748031497
        },
        {
          "duration": 0.16541360000000793,
          "durationTicks": 44,
          "midi": 35,
          "name": "B1",
          "ticks": 25560,
          "time": 96.09026399999999,
          "velocity": 0.7874015748031497
        },
        {
          "duration": 0.16541360000000793,
          "durationTicks": 44,
          "midi": 35,
          "name": "B1",
          "ticks": 25620,
          "time": 96.315828,
          "velocity": 0.7874015748031497
        },
        {
          "duration": 0.16541360000000793,
          "durationTicks": 44,
          "midi": 35,
          "name": "B1",
          "ticks": 25680,
          "time": 96.54139199999999,
          "velocity": 0.7874015748031497
        },
        {
          "duration": 0.16541360000000793,
          "durationTicks": 44,
          "midi": 35,
          "name": "B1",
          "ticks": 25740,
          "time": 96.766956,
          "velocity": 0.7874015748031497
        },
        {
          "duration": 0.16541359999999372,
          "durationTicks": 44,
          "midi": 35,
          "name": "B1",
          "ticks": 25800,
          "time": 96.99252,
          "velocity": 0.7874015748031497
        },
        {
          "duration": 0.16541360000000793,
          "durationTicks": 44,
          "midi": 35,
          "name": "B1",
          "ticks": 25860,
          "time": 97.21808399999999,
          "velocity": 0.7874015748031497
        },
        {
          "duration": 0.16541360000000793,
          "durationTicks": 44,
          "midi": 35,
          "name": "B1",
          "ticks": 25920,
          "time": 97.443648,
          "velocity": 0.7874015748031497
        },
        {
          "duration": 0.16541360000000793,
          "durationTicks": 44,
          "midi": 35,
          "name": "B1",
          "ticks": 25980,
          "time": 97.66921199999999,
          "velocity": 0.7874015748031497
        },
        {
          "duration": 0.16541360000000793,
          "durationTicks": 44,
          "midi": 35,
          "name": "B1",
          "ticks": 26040,
          "time": 97.894776,
          "velocity": 0.7874015748031497
        },
        {
          "duration": 0.16541359999999372,
          "durationTicks": 44,
          "midi": 35,
          "name": "B1",
          "ticks": 26100,
          "time": 98.12034,
          "velocity": 0.7874015748031497
        },
        {
          "duration": 0.16541360000000793,
          "durationTicks": 44,
          "midi": 35,
          "name": "B1",
          "ticks": 26160,
          "time": 98.34590399999999,
          "velocity": 0.7874015748031497
        },
        {
          "duration": 0.16541360000000793,
          "durationTicks": 44,
          "midi": 35,
          "name": "B1",
          "ticks": 26220,
          "time": 98.571468,
          "velocity": 0.7874015748031497
        },
        {
          "duration": 0.16541360000000793,
          "durationTicks": 44,
          "midi": 35,
          "name": "B1",
          "ticks": 26280,
          "time": 98.79703199999999,
          "velocity": 0.7874015748031497
        },
        {
          "duration": 0.16541360000000793,
          "durationTicks": 44,
          "midi": 35,
          "name": "B1",
          "ticks": 26340,
          "time": 99.022596,
          "velocity": 0.7874015748031497
        },
        {
          "duration": 0.16541359999999372,
          "durationTicks": 44,
          "midi": 35,
          "name": "B1",
          "ticks": 26400,
          "time": 99.24816,
          "velocity": 0.7874015748031497
        },
        {
          "duration": 0.16541360000000793,
          "durationTicks": 44,
          "midi": 35,
          "name": "B1",
          "ticks": 26460,
          "time": 99.47372399999999,
          "velocity": 0.7874015748031497
        },
        {
          "duration": 0.16541360000000793,
          "durationTicks": 44,
          "midi": 35,
          "name": "B1",
          "ticks": 26520,
          "time": 99.699288,
          "velocity": 0.7874015748031497
        },
        {
          "duration": 0.16541360000000793,
          "durationTicks": 44,
          "midi": 35,
          "name": "B1",
          "ticks": 26580,
          "time": 99.92485199999999,
          "velocity": 0.7874015748031497
        },
        {
          "duration": 0.16541360000000793,
          "durationTicks": 44,
          "midi": 35,
          "name": "B1",
          "ticks": 26640,
          "time": 100.15041599999999,
          "velocity": 0.7874015748031497
        },
        {
          "duration": 0.16541359999999372,
          "durationTicks": 44,
          "midi": 35,
          "name": "B1",
          "ticks": 26700,
          "time": 100.37598,
          "velocity": 0.7874015748031497
        },
        {
          "duration": 0.16541360000000793,
          "durationTicks": 44,
          "midi": 35,
          "name": "B1",
          "ticks": 26760,
          "time": 100.60154399999999,
          "velocity": 0.7874015748031497
        },
        {
          "duration": 0.16541360000000793,
          "durationTicks": 44,
          "midi": 35,
          "name": "B1",
          "ticks": 26820,
          "time": 100.827108,
          "velocity": 0.7874015748031497
        },
        {
          "duration": 0.16541359999999372,
          "durationTicks": 44,
          "midi": 35,
          "name": "B1",
          "ticks": 26880,
          "time": 101.052672,
          "velocity": 0.7874015748031497
        },
        {
          "duration": 0.16541360000000793,
          "durationTicks": 44,
          "midi": 35,
          "name": "B1",
          "ticks": 26940,
          "time": 101.27823599999999,
          "velocity": 0.7874015748031497
        },
        {
          "duration": 0.16541359999999372,
          "durationTicks": 44,
          "midi": 35,
          "name": "B1",
          "ticks": 27000,
          "time": 101.5038,
          "velocity": 0.7874015748031497
        },
        {
          "duration": 0.16541360000000793,
          "durationTicks": 44,
          "midi": 35,
          "name": "B1",
          "ticks": 27060,
          "time": 101.72936399999999,
          "velocity": 0.7874015748031497
        },
        {
          "duration": 0.16541360000000793,
          "durationTicks": 44,
          "midi": 35,
          "name": "B1",
          "ticks": 27120,
          "time": 101.954928,
          "velocity": 0.7874015748031497
        },
        {
          "duration": 0.16541359999999372,
          "durationTicks": 44,
          "midi": 35,
          "name": "B1",
          "ticks": 27180,
          "time": 102.180492,
          "velocity": 0.7874015748031497
        },
        {
          "duration": 0.16541360000000793,
          "durationTicks": 44,
          "midi": 35,
          "name": "B1",
          "ticks": 27240,
          "time": 102.40605599999999,
          "velocity": 0.7874015748031497
        },
        {
          "duration": 0.16541359999999372,
          "durationTicks": 44,
          "midi": 35,
          "name": "B1",
          "ticks": 27300,
          "time": 102.63162,
          "velocity": 0.7874015748031497
        },
        {
          "duration": 0.16541360000000793,
          "durationTicks": 44,
          "midi": 35,
          "name": "B1",
          "ticks": 27360,
          "time": 102.85718399999999,
          "velocity": 0.7874015748031497
        },
        {
          "duration": 0.16541360000000793,
          "durationTicks": 44,
          "midi": 35,
          "name": "B1",
          "ticks": 27420,
          "time": 103.082748,
          "velocity": 0.7874015748031497
        },
        {
          "duration": 0.16541359999999372,
          "durationTicks": 44,
          "midi": 35,
          "name": "B1",
          "ticks": 27480,
          "time": 103.308312,
          "velocity": 0.7874015748031497
        },
        {
          "duration": 0.16541360000000793,
          "durationTicks": 44,
          "midi": 35,
          "name": "B1",
          "ticks": 27540,
          "time": 103.53387599999999,
          "velocity": 0.7874015748031497
        },
        {
          "duration": 0.16541359999999372,
          "durationTicks": 44,
          "midi": 35,
          "name": "B1",
          "ticks": 27600,
          "time": 103.75944,
          "velocity": 0.7874015748031497
        },
        {
          "duration": 0.16541360000000793,
          "durationTicks": 44,
          "midi": 35,
          "name": "B1",
          "ticks": 27660,
          "time": 103.98500399999999,
          "velocity": 0.7874015748031497
        },
        {
          "duration": 0.16541360000000793,
          "durationTicks": 44,
          "midi": 35,
          "name": "B1",
          "ticks": 27720,
          "time": 104.210568,
          "velocity": 0.7874015748031497
        },
        {
          "duration": 0.16541359999999372,
          "durationTicks": 44,
          "midi": 35,
          "name": "B1",
          "ticks": 27780,
          "time": 104.436132,
          "velocity": 0.7874015748031497
        },
        {
          "duration": 0.16541360000000793,
          "durationTicks": 44,
          "midi": 35,
          "name": "B1",
          "ticks": 27840,
          "time": 104.66169599999999,
          "velocity": 0.7874015748031497
        },
        {
          "duration": 0.16541359999999372,
          "durationTicks": 44,
          "midi": 35,
          "name": "B1",
          "ticks": 27900,
          "time": 104.88726,
          "velocity": 0.7874015748031497
        },
        {
          "duration": 0.16541360000000793,
          "durationTicks": 44,
          "midi": 35,
          "name": "B1",
          "ticks": 27960,
          "time": 105.11282399999999,
          "velocity": 0.7874015748031497
        },
        {
          "duration": 0.16541360000000793,
          "durationTicks": 44,
          "midi": 35,
          "name": "B1",
          "ticks": 28020,
          "time": 105.338388,
          "velocity": 0.7874015748031497
        },
        {
          "duration": 0.16541359999999372,
          "durationTicks": 44,
          "midi": 35,
          "name": "B1",
          "ticks": 28080,
          "time": 105.563952,
          "velocity": 0.7874015748031497
        },
        {
          "duration": 0.16541360000000793,
          "durationTicks": 44,
          "midi": 35,
          "name": "B1",
          "ticks": 28140,
          "time": 105.78951599999999,
          "velocity": 0.7874015748031497
        },
        {
          "duration": 0.16541359999999372,
          "durationTicks": 44,
          "midi": 35,
          "name": "B1",
          "ticks": 28200,
          "time": 106.01508,
          "velocity": 0.7874015748031497
        },
        {
          "duration": 0.16541360000000793,
          "durationTicks": 44,
          "midi": 35,
          "name": "B1",
          "ticks": 28260,
          "time": 106.24064399999999,
          "velocity": 0.7874015748031497
        },
        {
          "duration": 0.16541360000000793,
          "durationTicks": 44,
          "midi": 35,
          "name": "B1",
          "ticks": 28320,
          "time": 106.466208,
          "velocity": 0.7874015748031497
        },
        {
          "duration": 0.16541359999999372,
          "durationTicks": 44,
          "midi": 35,
          "name": "B1",
          "ticks": 28380,
          "time": 106.691772,
          "velocity": 0.7874015748031497
        },
        {
          "duration": 0.16541360000000793,
          "durationTicks": 44,
          "midi": 35,
          "name": "B1",
          "ticks": 28440,
          "time": 106.91733599999999,
          "velocity": 0.7874015748031497
        },
        {
          "duration": 0.16541359999999372,
          "durationTicks": 44,
          "midi": 35,
          "name": "B1",
          "ticks": 28500,
          "time": 107.1429,
          "velocity": 0.7874015748031497
        },
        {
          "duration": 0.16541360000000793,
          "durationTicks": 44,
          "midi": 35,
          "name": "B1",
          "ticks": 28560,
          "time": 107.36846399999999,
          "velocity": 0.7874015748031497
        },
        {
          "duration": 0.16541360000000793,
          "durationTicks": 44,
          "midi": 35,
          "name": "B1",
          "ticks": 28620,
          "time": 107.594028,
          "velocity": 0.7874015748031497
        },
        {
          "duration": 0.16541359999999372,
          "durationTicks": 44,
          "midi": 35,
          "name": "B1",
          "ticks": 28680,
          "time": 107.819592,
          "velocity": 0.7874015748031497
        },
        {
          "duration": 0.16541360000000793,
          "durationTicks": 44,
          "midi": 35,
          "name": "B1",
          "ticks": 28740,
          "time": 108.04515599999999,
          "velocity": 0.7874015748031497
        },
        {
          "duration": 0.16541359999999372,
          "durationTicks": 44,
          "midi": 35,
          "name": "B1",
          "ticks": 28800,
          "time": 108.27072,
          "velocity": 0.7874015748031497
        },
        {
          "duration": 0.16541360000000793,
          "durationTicks": 44,
          "midi": 35,
          "name": "B1",
          "ticks": 28860,
          "time": 108.49628399999999,
          "velocity": 0.7874015748031497
        },
        {
          "duration": 0.16541360000000793,
          "durationTicks": 44,
          "midi": 35,
          "name": "B1",
          "ticks": 28920,
          "time": 108.721848,
          "velocity": 0.7874015748031497
        },
        {
          "duration": 0.16541359999999372,
          "durationTicks": 44,
          "midi": 35,
          "name": "B1",
          "ticks": 28980,
          "time": 108.947412,
          "velocity": 0.7874015748031497
        },
        {
          "duration": 0.16541360000000793,
          "durationTicks": 44,
          "midi": 35,
          "name": "B1",
          "ticks": 29040,
          "time": 109.17297599999999,
          "velocity": 0.7874015748031497
        },
        {
          "duration": 0.16541359999999372,
          "durationTicks": 44,
          "midi": 35,
          "name": "B1",
          "ticks": 29100,
          "time": 109.39854,
          "velocity": 0.7874015748031497
        },
        {
          "duration": 0.16541360000000793,
          "durationTicks": 44,
          "midi": 35,
          "name": "B1",
          "ticks": 29160,
          "time": 109.62410399999999,
          "velocity": 0.7874015748031497
        },
        {
          "duration": 0.16541360000000793,
          "durationTicks": 44,
          "midi": 35,
          "name": "B1",
          "ticks": 29220,
          "time": 109.849668,
          "velocity": 0.7874015748031497
        },
        {
          "duration": 0.16541359999999372,
          "durationTicks": 44,
          "midi": 35,
          "name": "B1",
          "ticks": 29280,
          "time": 110.075232,
          "velocity": 0.7874015748031497
        },
        {
          "duration": 0.16541360000000793,
          "durationTicks": 44,
          "midi": 35,
          "name": "B1",
          "ticks": 29340,
          "time": 110.30079599999999,
          "velocity": 0.7874015748031497
        },
        {
          "duration": 0.16541359999999372,
          "durationTicks": 44,
          "midi": 35,
          "name": "B1",
          "ticks": 29400,
          "time": 110.52636,
          "velocity": 0.7874015748031497
        },
        {
          "duration": 0.16541360000000793,
          "durationTicks": 44,
          "midi": 35,
          "name": "B1",
          "ticks": 29460,
          "time": 110.75192399999999,
          "velocity": 0.7874015748031497
        },
        {
          "duration": 0.16541360000000793,
          "durationTicks": 44,
          "midi": 35,
          "name": "B1",
          "ticks": 29520,
          "time": 110.977488,
          "velocity": 0.7874015748031497
        },
        {
          "duration": 0.16541359999999372,
          "durationTicks": 44,
          "midi": 35,
          "name": "B1",
          "ticks": 29580,
          "time": 111.203052,
          "velocity": 0.7874015748031497
        },
        {
          "duration": 0.16541360000000793,
          "durationTicks": 44,
          "midi": 35,
          "name": "B1",
          "ticks": 29640,
          "time": 111.42861599999999,
          "velocity": 0.7874015748031497
        },
        {
          "duration": 0.16541359999999372,
          "durationTicks": 44,
          "midi": 35,
          "name": "B1",
          "ticks": 29700,
          "time": 111.65418,
          "velocity": 0.7874015748031497
        },
        {
          "duration": 0.16541360000000793,
          "durationTicks": 44,
          "midi": 35,
          "name": "B1",
          "ticks": 29760,
          "time": 111.87974399999999,
          "velocity": 0.7874015748031497
        },
        {
          "duration": 0.16541360000000793,
          "durationTicks": 44,
          "midi": 35,
          "name": "B1",
          "ticks": 29820,
          "time": 112.105308,
          "velocity": 0.7874015748031497
        },
        {
          "duration": 0.16541359999999372,
          "durationTicks": 44,
          "midi": 35,
          "name": "B1",
          "ticks": 29880,
          "time": 112.330872,
          "velocity": 0.7874015748031497
        },
        {
          "duration": 0.16541360000000793,
          "durationTicks": 44,
          "midi": 35,
          "name": "B1",
          "ticks": 29940,
          "time": 112.55643599999999,
          "velocity": 0.7874015748031497
        },
        {
          "duration": 0.16541359999999372,
          "durationTicks": 44,
          "midi": 35,
          "name": "B1",
          "ticks": 30000,
          "time": 112.782,
          "velocity": 0.7874015748031497
        },
        {
          "duration": 0.16541360000000793,
          "durationTicks": 44,
          "midi": 35,
          "name": "B1",
          "ticks": 30060,
          "time": 113.00756399999999,
          "velocity": 0.7874015748031497
        },
        {
          "duration": 0.16541360000000793,
          "durationTicks": 44,
          "midi": 35,
          "name": "B1",
          "ticks": 30120,
          "time": 113.233128,
          "velocity": 0.7874015748031497
        },
        {
          "duration": 0.16541359999999372,
          "durationTicks": 44,
          "midi": 35,
          "name": "B1",
          "ticks": 30180,
          "time": 113.458692,
          "velocity": 0.7874015748031497
        },
        {
          "duration": 0.16541360000000793,
          "durationTicks": 44,
          "midi": 35,
          "name": "B1",
          "ticks": 30240,
          "time": 113.68425599999999,
          "velocity": 0.7874015748031497
        },
        {
          "duration": 0.16541359999999372,
          "durationTicks": 44,
          "midi": 35,
          "name": "B1",
          "ticks": 30300,
          "time": 113.90982,
          "velocity": 0.7874015748031497
        },
        {
          "duration": 0.16541360000000793,
          "durationTicks": 44,
          "midi": 35,
          "name": "B1",
          "ticks": 30360,
          "time": 114.13538399999999,
          "velocity": 0.7874015748031497
        },
        {
          "duration": 0.16541360000000793,
          "durationTicks": 44,
          "midi": 35,
          "name": "B1",
          "ticks": 30420,
          "time": 114.360948,
          "velocity": 0.7874015748031497
        },
        {
          "duration": 0.16541359999999372,
          "durationTicks": 44,
          "midi": 35,
          "name": "B1",
          "ticks": 30480,
          "time": 114.586512,
          "velocity": 0.7874015748031497
        },
        {
          "duration": 0.16541360000000793,
          "durationTicks": 44,
          "midi": 35,
          "name": "B1",
          "ticks": 30540,
          "time": 114.81207599999999,
          "velocity": 0.7874015748031497
        },
        {
          "duration": 0.16541359999999372,
          "durationTicks": 44,
          "midi": 35,
          "name": "B1",
          "ticks": 30600,
          "time": 115.03764,
          "velocity": 0.7874015748031497
        },
        {
          "duration": 0.16541360000000793,
          "durationTicks": 44,
          "midi": 35,
          "name": "B1",
          "ticks": 30660,
          "time": 115.26320399999999,
          "velocity": 0.7874015748031497
        },
        {
          "duration": 0.16541360000000793,
          "durationTicks": 44,
          "midi": 35,
          "name": "B1",
          "ticks": 30720,
          "time": 115.488768,
          "velocity": 0.7874015748031497
        },
        {
          "duration": 0.16541359999999372,
          "durationTicks": 44,
          "midi": 35,
          "name": "B1",
          "ticks": 30780,
          "time": 115.714332,
          "velocity": 0.7874015748031497
        },
        {
          "duration": 0.16541360000000793,
          "durationTicks": 44,
          "midi": 35,
          "name": "B1",
          "ticks": 30840,
          "time": 115.93989599999999,
          "velocity": 0.7874015748031497
        },
        {
          "duration": 0.16541359999999372,
          "durationTicks": 44,
          "midi": 35,
          "name": "B1",
          "ticks": 30900,
          "time": 116.16546,
          "velocity": 0.7874015748031497
        },
        {
          "duration": 0.16541360000000793,
          "durationTicks": 44,
          "midi": 35,
          "name": "B1",
          "ticks": 30960,
          "time": 116.39102399999999,
          "velocity": 0.7874015748031497
        },
        {
          "duration": 0.16541360000000793,
          "durationTicks": 44,
          "midi": 35,
          "name": "B1",
          "ticks": 31020,
          "time": 116.616588,
          "velocity": 0.7874015748031497
        },
        {
          "duration": 0.16541359999999372,
          "durationTicks": 44,
          "midi": 35,
          "name": "B1",
          "ticks": 31080,
          "time": 116.842152,
          "velocity": 0.7874015748031497
        },
        {
          "duration": 0.16541360000000793,
          "durationTicks": 44,
          "midi": 35,
          "name": "B1",
          "ticks": 31140,
          "time": 117.06771599999999,
          "velocity": 0.7874015748031497
        },
        {
          "duration": 0.16541359999999372,
          "durationTicks": 44,
          "midi": 35,
          "name": "B1",
          "ticks": 31200,
          "time": 117.29328,
          "velocity": 0.7874015748031497
        },
        {
          "duration": 0.16541360000000793,
          "durationTicks": 44,
          "midi": 35,
          "name": "B1",
          "ticks": 31260,
          "time": 117.51884399999999,
          "velocity": 0.7874015748031497
        },
        {
          "duration": 0.16541360000000793,
          "durationTicks": 44,
          "midi": 35,
          "name": "B1",
          "ticks": 31320,
          "time": 117.74440799999999,
          "velocity": 0.7874015748031497
        },
        {
          "duration": 0.16541359999999372,
          "durationTicks": 44,
          "midi": 35,
          "name": "B1",
          "ticks": 31380,
          "time": 117.969972,
          "velocity": 0.7874015748031497
        },
        {
          "duration": 0.16541360000000793,
          "durationTicks": 44,
          "midi": 35,
          "name": "B1",
          "ticks": 31440,
          "time": 118.19553599999999,
          "velocity": 0.7874015748031497
        },
        {
          "duration": 0.16541360000000793,
          "durationTicks": 44,
          "midi": 35,
          "name": "B1",
          "ticks": 31500,
          "time": 118.4211,
          "velocity": 0.7874015748031497
        },
        {
          "duration": 0.16541360000000793,
          "durationTicks": 44,
          "midi": 35,
          "name": "B1",
          "ticks": 31560,
          "time": 118.64666399999999,
          "velocity": 0.7874015748031497
        },
        {
          "duration": 0.16541360000000793,
          "durationTicks": 44,
          "midi": 35,
          "name": "B1",
          "ticks": 31620,
          "time": 118.87222799999999,
          "velocity": 0.7874015748031497
        },
        {
          "duration": 0.16541359999999372,
          "durationTicks": 44,
          "midi": 35,
          "name": "B1",
          "ticks": 31680,
          "time": 119.097792,
          "velocity": 0.7874015748031497
        },
        {
          "duration": 0.16541360000000793,
          "durationTicks": 44,
          "midi": 35,
          "name": "B1",
          "ticks": 31740,
          "time": 119.32335599999999,
          "velocity": 0.7874015748031497
        },
        {
          "duration": 0.16541360000000793,
          "durationTicks": 44,
          "midi": 35,
          "name": "B1",
          "ticks": 31800,
          "time": 119.54892,
          "velocity": 0.7874015748031497
        },
        {
          "duration": 0.16541360000000793,
          "durationTicks": 44,
          "midi": 35,
          "name": "B1",
          "ticks": 31860,
          "time": 119.77448399999999,
          "velocity": 0.7874015748031497
        },
        {
          "duration": 0.16541360000000793,
          "durationTicks": 44,
          "midi": 35,
          "name": "B1",
          "ticks": 31920,
          "time": 120.00004799999999,
          "velocity": 0.7874015748031497
        },
        {
          "duration": 0.16541359999999372,
          "durationTicks": 44,
          "midi": 35,
          "name": "B1",
          "ticks": 31980,
          "time": 120.225612,
          "velocity": 0.7874015748031497
        },
        {
          "duration": 0.16541360000000793,
          "durationTicks": 44,
          "midi": 35,
          "name": "B1",
          "ticks": 32040,
          "time": 120.45117599999999,
          "velocity": 0.7874015748031497
        },
        {
          "duration": 0.16541360000000793,
          "durationTicks": 44,
          "midi": 35,
          "name": "B1",
          "ticks": 32100,
          "time": 120.67674,
          "velocity": 0.7874015748031497
        },
        {
          "duration": 0.16541360000000793,
          "durationTicks": 44,
          "midi": 35,
          "name": "B1",
          "ticks": 32160,
          "time": 120.90230399999999,
          "velocity": 0.7874015748031497
        },
        {
          "duration": 0.16541360000000793,
          "durationTicks": 44,
          "midi": 35,
          "name": "B1",
          "ticks": 32220,
          "time": 121.12786799999999,
          "velocity": 0.7874015748031497
        },
        {
          "duration": 0.16541359999999372,
          "durationTicks": 44,
          "midi": 35,
          "name": "B1",
          "ticks": 32280,
          "time": 121.353432,
          "velocity": 0.7874015748031497
        },
        {
          "duration": 0.16541360000000793,
          "durationTicks": 44,
          "midi": 35,
          "name": "B1",
          "ticks": 32340,
          "time": 121.57899599999999,
          "velocity": 0.7874015748031497
        },
        {
          "duration": 0.16541360000000793,
          "durationTicks": 44,
          "midi": 35,
          "name": "B1",
          "ticks": 32400,
          "time": 121.80456,
          "velocity": 0.7874015748031497
        },
        {
          "duration": 0.16541360000000793,
          "durationTicks": 44,
          "midi": 35,
          "name": "B1",
          "ticks": 32460,
          "time": 122.03012399999999,
          "velocity": 0.7874015748031497
        },
        {
          "duration": 0.16541360000000793,
          "durationTicks": 44,
          "midi": 35,
          "name": "B1",
          "ticks": 32520,
          "time": 122.25568799999999,
          "velocity": 0.7874015748031497
        },
        {
          "duration": 0.16541359999999372,
          "durationTicks": 44,
          "midi": 35,
          "name": "B1",
          "ticks": 32580,
          "time": 122.481252,
          "velocity": 0.7874015748031497
        },
        {
          "duration": 0.16541360000000793,
          "durationTicks": 44,
          "midi": 35,
          "name": "B1",
          "ticks": 32640,
          "time": 122.70681599999999,
          "velocity": 0.7874015748031497
        },
        {
          "duration": 0.16541360000000793,
          "durationTicks": 44,
          "midi": 35,
          "name": "B1",
          "ticks": 32700,
          "time": 122.93238,
          "velocity": 0.7874015748031497
        },
        {
          "duration": 0.16541360000000793,
          "durationTicks": 44,
          "midi": 35,
          "name": "B1",
          "ticks": 32760,
          "time": 123.15794399999999,
          "velocity": 0.7874015748031497
        },
        {
          "duration": 0.16541360000000793,
          "durationTicks": 44,
          "midi": 35,
          "name": "B1",
          "ticks": 32820,
          "time": 123.38350799999999,
          "velocity": 0.7874015748031497
        },
        {
          "duration": 0.16541359999999372,
          "durationTicks": 44,
          "midi": 35,
          "name": "B1",
          "ticks": 32880,
          "time": 123.609072,
          "velocity": 0.7874015748031497
        },
        {
          "duration": 0.16541360000000793,
          "durationTicks": 44,
          "midi": 35,
          "name": "B1",
          "ticks": 32940,
          "time": 123.83463599999999,
          "velocity": 0.7874015748031497
        },
        {
          "duration": 0.16541360000000793,
          "durationTicks": 44,
          "midi": 35,
          "name": "B1",
          "ticks": 33000,
          "time": 124.0602,
          "velocity": 0.7874015748031497
        },
        {
          "duration": 0.16541360000000793,
          "durationTicks": 44,
          "midi": 35,
          "name": "B1",
          "ticks": 33060,
          "time": 124.28576399999999,
          "velocity": 0.7874015748031497
        },
        {
          "duration": 0.16541360000000793,
          "durationTicks": 44,
          "midi": 35,
          "name": "B1",
          "ticks": 33120,
          "time": 124.51132799999999,
          "velocity": 0.7874015748031497
        },
        {
          "duration": 0.16541359999999372,
          "durationTicks": 44,
          "midi": 35,
          "name": "B1",
          "ticks": 33180,
          "time": 124.736892,
          "velocity": 0.7874015748031497
        },
        {
          "duration": 0.16541360000000793,
          "durationTicks": 44,
          "midi": 35,
          "name": "B1",
          "ticks": 33240,
          "time": 124.96245599999999,
          "velocity": 0.7874015748031497
        },
        {
          "duration": 0.16541360000000793,
          "durationTicks": 44,
          "midi": 35,
          "name": "B1",
          "ticks": 33300,
          "time": 125.18802,
          "velocity": 0.7874015748031497
        },
        {
          "duration": 0.16541360000000793,
          "durationTicks": 44,
          "midi": 35,
          "name": "B1",
          "ticks": 33360,
          "time": 125.41358399999999,
          "velocity": 0.7874015748031497
        },
        {
          "duration": 0.16541360000000793,
          "durationTicks": 44,
          "midi": 35,
          "name": "B1",
          "ticks": 33420,
          "time": 125.63914799999999,
          "velocity": 0.7874015748031497
        },
        {
          "duration": 0.16541359999999372,
          "durationTicks": 44,
          "midi": 35,
          "name": "B1",
          "ticks": 33480,
          "time": 125.864712,
          "velocity": 0.7874015748031497
        },
        {
          "duration": 0.16541360000000793,
          "durationTicks": 44,
          "midi": 35,
          "name": "B1",
          "ticks": 33540,
          "time": 126.09027599999999,
          "velocity": 0.7874015748031497
        },
        {
          "duration": 0.16541360000000793,
          "durationTicks": 44,
          "midi": 35,
          "name": "B1",
          "ticks": 33600,
          "time": 126.31584,
          "velocity": 0.7874015748031497
        },
        {
          "duration": 0.16541360000000793,
          "durationTicks": 44,
          "midi": 35,
          "name": "B1",
          "ticks": 33660,
          "time": 126.54140399999999,
          "velocity": 0.7874015748031497
        },
        {
          "duration": 0.16541360000000793,
          "durationTicks": 44,
          "midi": 35,
          "name": "B1",
          "ticks": 33720,
          "time": 126.76696799999999,
          "velocity": 0.7874015748031497
        },
        {
          "duration": 0.16541359999999372,
          "durationTicks": 44,
          "midi": 35,
          "name": "B1",
          "ticks": 33780,
          "time": 126.992532,
          "velocity": 0.7874015748031497
        },
        {
          "duration": 0.16541360000000793,
          "durationTicks": 44,
          "midi": 35,
          "name": "B1",
          "ticks": 33840,
          "time": 127.21809599999999,
          "velocity": 0.7874015748031497
        },
        {
          "duration": 0.16541360000000793,
          "durationTicks": 44,
          "midi": 35,
          "name": "B1",
          "ticks": 33900,
          "time": 127.44366,
          "velocity": 0.7874015748031497
        },
        {
          "duration": 0.16541360000000793,
          "durationTicks": 44,
          "midi": 35,
          "name": "B1",
          "ticks": 33960,
          "time": 127.66922399999999,
          "velocity": 0.7874015748031497
        },
        {
          "duration": 0.16541360000000793,
          "durationTicks": 44,
          "midi": 35,
          "name": "B1",
          "ticks": 34020,
          "time": 127.89478799999999,
          "velocity": 0.7874015748031497
        },
        {
          "duration": 0.16541359999999372,
          "durationTicks": 44,
          "midi": 35,
          "name": "B1",
          "ticks": 34080,
          "time": 128.120352,
          "velocity": 0.7874015748031497
        },
        {
          "duration": 0.16541359999999372,
          "durationTicks": 44,
          "midi": 35,
          "name": "B1",
          "ticks": 34140,
          "time": 128.345916,
          "velocity": 0.7874015748031497
        },
        {
          "duration": 0.16541360000002214,
          "durationTicks": 44,
          "midi": 35,
          "name": "B1",
          "ticks": 34200,
          "time": 128.57147999999998,
          "velocity": 0.7874015748031497
        },
        {
          "duration": 0.16541359999999372,
          "durationTicks": 44,
          "midi": 35,
          "name": "B1",
          "ticks": 34260,
          "time": 128.797044,
          "velocity": 0.7874015748031497
        },
        {
          "duration": 0.16541359999999372,
          "durationTicks": 44,
          "midi": 35,
          "name": "B1",
          "ticks": 34320,
          "time": 129.022608,
          "velocity": 0.7874015748031497
        },
        {
          "duration": 0.16541360000002214,
          "durationTicks": 44,
          "midi": 35,
          "name": "B1",
          "ticks": 34380,
          "time": 129.24817199999998,
          "velocity": 0.7874015748031497
        },
        {
          "duration": 0.16541359999999372,
          "durationTicks": 44,
          "midi": 35,
          "name": "B1",
          "ticks": 34440,
          "time": 129.473736,
          "velocity": 0.7874015748031497
        },
        {
          "duration": 0.16541359999999372,
          "durationTicks": 44,
          "midi": 35,
          "name": "B1",
          "ticks": 34500,
          "time": 129.6993,
          "velocity": 0.7874015748031497
        },
        {
          "duration": 0.16541360000002214,
          "durationTicks": 44,
          "midi": 35,
          "name": "B1",
          "ticks": 34560,
          "time": 129.92486399999999,
          "velocity": 0.7874015748031497
        },
        {
          "duration": 0.16541359999999372,
          "durationTicks": 44,
          "midi": 35,
          "name": "B1",
          "ticks": 34620,
          "time": 130.150428,
          "velocity": 0.7874015748031497
        },
        {
          "duration": 0.16541359999999372,
          "durationTicks": 44,
          "midi": 35,
          "name": "B1",
          "ticks": 34680,
          "time": 130.375992,
          "velocity": 0.7874015748031497
        },
        {
          "duration": 0.16541359999999372,
          "durationTicks": 44,
          "midi": 35,
          "name": "B1",
          "ticks": 34740,
          "time": 130.601556,
          "velocity": 0.7874015748031497
        },
        {
          "duration": 0.16541360000002214,
          "durationTicks": 44,
          "midi": 35,
          "name": "B1",
          "ticks": 34800,
          "time": 130.82711999999998,
          "velocity": 0.7874015748031497
        },
        {
          "duration": 0.16541359999999372,
          "durationTicks": 44,
          "midi": 35,
          "name": "B1",
          "ticks": 34860,
          "time": 131.052684,
          "velocity": 0.7874015748031497
        },
        {
          "duration": 0.16541359999999372,
          "durationTicks": 44,
          "midi": 35,
          "name": "B1",
          "ticks": 34920,
          "time": 131.278248,
          "velocity": 0.7874015748031497
        },
        {
          "duration": 0.16541360000002214,
          "durationTicks": 44,
          "midi": 35,
          "name": "B1",
          "ticks": 34980,
          "time": 131.50381199999998,
          "velocity": 0.7874015748031497
        },
        {
          "duration": 0.16541359999999372,
          "durationTicks": 44,
          "midi": 35,
          "name": "B1",
          "ticks": 35040,
          "time": 131.729376,
          "velocity": 0.7874015748031497
        },
        {
          "duration": 0.16541359999999372,
          "durationTicks": 44,
          "midi": 35,
          "name": "B1",
          "ticks": 35100,
          "time": 131.95494,
          "velocity": 0.7874015748031497
        },
        {
          "duration": 0.16541360000002214,
          "durationTicks": 44,
          "midi": 35,
          "name": "B1",
          "ticks": 35160,
          "time": 132.18050399999998,
          "velocity": 0.7874015748031497
        },
        {
          "duration": 0.16541359999999372,
          "durationTicks": 44,
          "midi": 35,
          "name": "B1",
          "ticks": 35220,
          "time": 132.406068,
          "velocity": 0.7874015748031497
        },
        {
          "duration": 0.16541359999999372,
          "durationTicks": 44,
          "midi": 35,
          "name": "B1",
          "ticks": 35280,
          "time": 132.631632,
          "velocity": 0.7874015748031497
        },
        {
          "duration": 0.16541360000002214,
          "durationTicks": 44,
          "midi": 35,
          "name": "B1",
          "ticks": 35340,
          "time": 132.857196,
          "velocity": 0.7874015748031497
        },
        {
          "duration": 0.16541360000002214,
          "durationTicks": 44,
          "midi": 35,
          "name": "B1",
          "ticks": 35400,
          "time": 133.08275999999998,
          "velocity": 0.7874015748031497
        },
        {
          "duration": 0.16541359999999372,
          "durationTicks": 44,
          "midi": 35,
          "name": "B1",
          "ticks": 35460,
          "time": 133.308324,
          "velocity": 0.7874015748031497
        },
        {
          "duration": 0.16541359999999372,
          "durationTicks": 44,
          "midi": 35,
          "name": "B1",
          "ticks": 35520,
          "time": 133.533888,
          "velocity": 0.7874015748031497
        },
        {
          "duration": 0.16541360000002214,
          "durationTicks": 44,
          "midi": 35,
          "name": "B1",
          "ticks": 35580,
          "time": 133.75945199999998,
          "velocity": 0.7874015748031497
        },
        {
          "duration": 0.16541359999999372,
          "durationTicks": 44,
          "midi": 35,
          "name": "B1",
          "ticks": 35640,
          "time": 133.985016,
          "velocity": 0.7874015748031497
        },
        {
          "duration": 0.16541359999999372,
          "durationTicks": 44,
          "midi": 35,
          "name": "B1",
          "ticks": 35700,
          "time": 134.21058,
          "velocity": 0.7874015748031497
        },
        {
          "duration": 0.16541360000002214,
          "durationTicks": 44,
          "midi": 35,
          "name": "B1",
          "ticks": 35760,
          "time": 134.43614399999998,
          "velocity": 0.7874015748031497
        },
        {
          "duration": 0.16541359999999372,
          "durationTicks": 44,
          "midi": 35,
          "name": "B1",
          "ticks": 35820,
          "time": 134.661708,
          "velocity": 0.7874015748031497
        },
        {
          "duration": 0.16541359999999372,
          "durationTicks": 44,
          "midi": 35,
          "name": "B1",
          "ticks": 35880,
          "time": 134.887272,
          "velocity": 0.7874015748031497
        },
        {
          "duration": 0.16541360000002214,
          "durationTicks": 44,
          "midi": 35,
          "name": "B1",
          "ticks": 35940,
          "time": 135.112836,
          "velocity": 0.7874015748031497
        },
        {
          "duration": 0.16541360000002214,
          "durationTicks": 44,
          "midi": 35,
          "name": "B1",
          "ticks": 36000,
          "time": 135.33839999999998,
          "velocity": 0.7874015748031497
        },
        {
          "duration": 0.16541359999999372,
          "durationTicks": 44,
          "midi": 35,
          "name": "B1",
          "ticks": 36060,
          "time": 135.563964,
          "velocity": 0.7874015748031497
        },
        {
          "duration": 0.16541359999999372,
          "durationTicks": 44,
          "midi": 35,
          "name": "B1",
          "ticks": 36120,
          "time": 135.789528,
          "velocity": 0.7874015748031497
        },
        {
          "duration": 0.16541360000002214,
          "durationTicks": 44,
          "midi": 35,
          "name": "B1",
          "ticks": 36180,
          "time": 136.01509199999998,
          "velocity": 0.7874015748031497
        },
        {
          "duration": 0.16541359999999372,
          "durationTicks": 44,
          "midi": 35,
          "name": "B1",
          "ticks": 36240,
          "time": 136.240656,
          "velocity": 0.7874015748031497
        },
        {
          "duration": 0.16541359999999372,
          "durationTicks": 44,
          "midi": 35,
          "name": "B1",
          "ticks": 36300,
          "time": 136.46622,
          "velocity": 0.7874015748031497
        },
        {
          "duration": 0.16541360000002214,
          "durationTicks": 44,
          "midi": 35,
          "name": "B1",
          "ticks": 36360,
          "time": 136.69178399999998,
          "velocity": 0.7874015748031497
        },
        {
          "duration": 0.16541359999999372,
          "durationTicks": 44,
          "midi": 35,
          "name": "B1",
          "ticks": 36420,
          "time": 136.917348,
          "velocity": 0.7874015748031497
        },
        {
          "duration": 0.16541359999999372,
          "durationTicks": 44,
          "midi": 35,
          "name": "B1",
          "ticks": 36480,
          "time": 137.142912,
          "velocity": 0.7874015748031497
        },
        {
          "duration": 0.16541360000002214,
          "durationTicks": 44,
          "midi": 35,
          "name": "B1",
          "ticks": 36540,
          "time": 137.368476,
          "velocity": 0.7874015748031497
        },
        {
          "duration": 0.16541360000002214,
          "durationTicks": 44,
          "midi": 35,
          "name": "B1",
          "ticks": 36600,
          "time": 137.59403999999998,
          "velocity": 0.7874015748031497
        },
        {
          "duration": 0.16541359999999372,
          "durationTicks": 44,
          "midi": 35,
          "name": "B1",
          "ticks": 36660,
          "time": 137.819604,
          "velocity": 0.7874015748031497
        },
        {
          "duration": 0.16541359999999372,
          "durationTicks": 44,
          "midi": 35,
          "name": "B1",
          "ticks": 36720,
          "time": 138.045168,
          "velocity": 0.7874015748031497
        },
        {
          "duration": 0.16541360000002214,
          "durationTicks": 44,
          "midi": 35,
          "name": "B1",
          "ticks": 36780,
          "time": 138.27073199999998,
          "velocity": 0.7874015748031497
        },
        {
          "duration": 0.16541359999999372,
          "durationTicks": 44,
          "midi": 35,
          "name": "B1",
          "ticks": 36840,
          "time": 138.496296,
          "velocity": 0.7874015748031497
        },
        {
          "duration": 0.16541359999999372,
          "durationTicks": 44,
          "midi": 35,
          "name": "B1",
          "ticks": 36900,
          "time": 138.72186,
          "velocity": 0.7874015748031497
        },
        {
          "duration": 0.16541360000002214,
          "durationTicks": 44,
          "midi": 35,
          "name": "B1",
          "ticks": 36960,
          "time": 138.94742399999998,
          "velocity": 0.7874015748031497
        },
        {
          "duration": 0.16541359999999372,
          "durationTicks": 44,
          "midi": 35,
          "name": "B1",
          "ticks": 37020,
          "time": 139.172988,
          "velocity": 0.7874015748031497
        },
        {
          "duration": 0.16541359999999372,
          "durationTicks": 44,
          "midi": 35,
          "name": "B1",
          "ticks": 37080,
          "time": 139.398552,
          "velocity": 0.7874015748031497
        },
        {
          "duration": 0.16541360000002214,
          "durationTicks": 44,
          "midi": 35,
          "name": "B1",
          "ticks": 37140,
          "time": 139.624116,
          "velocity": 0.7874015748031497
        },
        {
          "duration": 0.16541360000002214,
          "durationTicks": 44,
          "midi": 35,
          "name": "B1",
          "ticks": 37200,
          "time": 139.84967999999998,
          "velocity": 0.7874015748031497
        },
        {
          "duration": 0.16541359999999372,
          "durationTicks": 44,
          "midi": 35,
          "name": "B1",
          "ticks": 37260,
          "time": 140.075244,
          "velocity": 0.7874015748031497
        },
        {
          "duration": 0.16541359999999372,
          "durationTicks": 44,
          "midi": 35,
          "name": "B1",
          "ticks": 37320,
          "time": 140.300808,
          "velocity": 0.7874015748031497
        },
        {
          "duration": 0.16541360000002214,
          "durationTicks": 44,
          "midi": 35,
          "name": "B1",
          "ticks": 37380,
          "time": 140.52637199999998,
          "velocity": 0.7874015748031497
        },
        {
          "duration": 0.16541359999999372,
          "durationTicks": 44,
          "midi": 35,
          "name": "B1",
          "ticks": 37440,
          "time": 140.751936,
          "velocity": 0.7874015748031497
        },
        {
          "duration": 0.16541359999999372,
          "durationTicks": 44,
          "midi": 35,
          "name": "B1",
          "ticks": 37500,
          "time": 140.9775,
          "velocity": 0.7874015748031497
        },
        {
          "duration": 0.16541360000002214,
          "durationTicks": 44,
          "midi": 35,
          "name": "B1",
          "ticks": 37560,
          "time": 141.20306399999998,
          "velocity": 0.7874015748031497
        },
        {
          "duration": 0.16541359999999372,
          "durationTicks": 44,
          "midi": 35,
          "name": "B1",
          "ticks": 37620,
          "time": 141.428628,
          "velocity": 0.7874015748031497
        },
        {
          "duration": 0.16541359999999372,
          "durationTicks": 44,
          "midi": 35,
          "name": "B1",
          "ticks": 37680,
          "time": 141.654192,
          "velocity": 0.7874015748031497
        },
        {
          "duration": 0.16541360000002214,
          "durationTicks": 44,
          "midi": 35,
          "name": "B1",
          "ticks": 37740,
          "time": 141.879756,
          "velocity": 0.7874015748031497
        },
        {
          "duration": 0.16541360000002214,
          "durationTicks": 44,
          "midi": 35,
          "name": "B1",
          "ticks": 37800,
          "time": 142.10531999999998,
          "velocity": 0.7874015748031497
        },
        {
          "duration": 0.16541359999999372,
          "durationTicks": 44,
          "midi": 35,
          "name": "B1",
          "ticks": 37860,
          "time": 142.330884,
          "velocity": 0.7874015748031497
        },
        {
          "duration": 0.16541359999999372,
          "durationTicks": 44,
          "midi": 35,
          "name": "B1",
          "ticks": 37920,
          "time": 142.556448,
          "velocity": 0.7874015748031497
        },
        {
          "duration": 0.16541360000002214,
          "durationTicks": 44,
          "midi": 35,
          "name": "B1",
          "ticks": 37980,
          "time": 142.78201199999998,
          "velocity": 0.7874015748031497
        },
        {
          "duration": 0.16541359999999372,
          "durationTicks": 44,
          "midi": 35,
          "name": "B1",
          "ticks": 38040,
          "time": 143.007576,
          "velocity": 0.7874015748031497
        },
        {
          "duration": 0.16541359999999372,
          "durationTicks": 44,
          "midi": 35,
          "name": "B1",
          "ticks": 38100,
          "time": 143.23314,
          "velocity": 0.7874015748031497
        },
        {
          "duration": 0.16541360000002214,
          "durationTicks": 44,
          "midi": 35,
          "name": "B1",
          "ticks": 38160,
          "time": 143.45870399999998,
          "velocity": 0.7874015748031497
        },
        {
          "duration": 0.16541359999999372,
          "durationTicks": 44,
          "midi": 35,
          "name": "B1",
          "ticks": 38220,
          "time": 143.684268,
          "velocity": 0.7874015748031497
        },
        {
          "duration": 0.16541359999999372,
          "durationTicks": 44,
          "midi": 35,
          "name": "B1",
          "ticks": 38280,
          "time": 143.909832,
          "velocity": 0.7874015748031497
        },
        {
          "duration": 0.16541360000002214,
          "durationTicks": 44,
          "midi": 35,
          "name": "B1",
          "ticks": 38340,
          "time": 144.135396,
          "velocity": 0.7874015748031497
        },
        {
          "duration": 0.16541360000002214,
          "durationTicks": 44,
          "midi": 35,
          "name": "B1",
          "ticks": 38400,
          "time": 144.36095999999998,
          "velocity": 0.7874015748031497
        },
        {
          "duration": 0.16541359999999372,
          "durationTicks": 44,
          "midi": 35,
          "name": "B1",
          "ticks": 38460,
          "time": 144.586524,
          "velocity": 0.7874015748031497
        },
        {
          "duration": 0.16541359999999372,
          "durationTicks": 44,
          "midi": 35,
          "name": "B1",
          "ticks": 38520,
          "time": 144.812088,
          "velocity": 0.7874015748031497
        },
        {
          "duration": 0.16541360000002214,
          "durationTicks": 44,
          "midi": 35,
          "name": "B1",
          "ticks": 38580,
          "time": 145.03765199999998,
          "velocity": 0.7874015748031497
        },
        {
          "duration": 0.16541359999999372,
          "durationTicks": 44,
          "midi": 35,
          "name": "B1",
          "ticks": 38640,
          "time": 145.263216,
          "velocity": 0.7874015748031497
        },
        {
          "duration": 0.16541359999999372,
          "durationTicks": 44,
          "midi": 35,
          "name": "B1",
          "ticks": 38700,
          "time": 145.48878,
          "velocity": 0.7874015748031497
        },
        {
          "duration": 0.16541360000002214,
          "durationTicks": 44,
          "midi": 35,
          "name": "B1",
          "ticks": 38760,
          "time": 145.71434399999998,
          "velocity": 0.7874015748031497
        },
        {
          "duration": 0.16541359999999372,
          "durationTicks": 44,
          "midi": 35,
          "name": "B1",
          "ticks": 38820,
          "time": 145.939908,
          "velocity": 0.7874015748031497
        },
        {
          "duration": 0.16541359999999372,
          "durationTicks": 44,
          "midi": 35,
          "name": "B1",
          "ticks": 38880,
          "time": 146.165472,
          "velocity": 0.7874015748031497
        },
        {
          "duration": 0.16541360000002214,
          "durationTicks": 44,
          "midi": 35,
          "name": "B1",
          "ticks": 38940,
          "time": 146.39103599999999,
          "velocity": 0.7874015748031497
        },
        {
          "duration": 0.16541359999999372,
          "durationTicks": 44,
          "midi": 35,
          "name": "B1",
          "ticks": 39000,
          "time": 146.6166,
          "velocity": 0.7874015748031497
        },
        {
          "duration": 0.16541359999999372,
          "durationTicks": 44,
          "midi": 35,
          "name": "B1",
          "ticks": 39060,
          "time": 146.842164,
          "velocity": 0.7874015748031497
        },
        {
          "duration": 0.16541359999999372,
          "durationTicks": 44,
          "midi": 35,
          "name": "B1",
          "ticks": 39120,
          "time": 147.067728,
          "velocity": 0.7874015748031497
        },
        {
          "duration": 0.16541360000002214,
          "durationTicks": 44,
          "midi": 35,
          "name": "B1",
          "ticks": 39180,
          "time": 147.29329199999998,
          "velocity": 0.7874015748031497
        },
        {
          "duration": 0.16541359999999372,
          "durationTicks": 44,
          "midi": 35,
          "name": "B1",
          "ticks": 39240,
          "time": 147.518856,
          "velocity": 0.7874015748031497
        },
        {
          "duration": 0.16541359999999372,
          "durationTicks": 44,
          "midi": 35,
          "name": "B1",
          "ticks": 39300,
          "time": 147.74442,
          "velocity": 0.7874015748031497
        },
        {
          "duration": 0.16541360000002214,
          "durationTicks": 44,
          "midi": 35,
          "name": "B1",
          "ticks": 39360,
          "time": 147.96998399999998,
          "velocity": 0.7874015748031497
        },
        {
          "duration": 0.16541359999999372,
          "durationTicks": 44,
          "midi": 35,
          "name": "B1",
          "ticks": 39420,
          "time": 148.195548,
          "velocity": 0.7874015748031497
        },
        {
          "duration": 0.16541359999999372,
          "durationTicks": 44,
          "midi": 35,
          "name": "B1",
          "ticks": 39480,
          "time": 148.421112,
          "velocity": 0.7874015748031497
        },
        {
          "duration": 0.16541360000002214,
          "durationTicks": 44,
          "midi": 35,
          "name": "B1",
          "ticks": 39540,
          "time": 148.64667599999999,
          "velocity": 0.7874015748031497
        },
        {
          "duration": 0.16541359999999372,
          "durationTicks": 44,
          "midi": 35,
          "name": "B1",
          "ticks": 39600,
          "time": 148.87224,
          "velocity": 0.7874015748031497
        },
        {
          "duration": 0.16541359999999372,
          "durationTicks": 44,
          "midi": 35,
          "name": "B1",
          "ticks": 39660,
          "time": 149.097804,
          "velocity": 0.7874015748031497
        },
        {
          "duration": 0.16541359999999372,
          "durationTicks": 44,
          "midi": 35,
          "name": "B1",
          "ticks": 39720,
          "time": 149.323368,
          "velocity": 0.7874015748031497
        },
        {
          "duration": 0.16541360000002214,
          "durationTicks": 44,
          "midi": 35,
          "name": "B1",
          "ticks": 39780,
          "time": 149.54893199999998,
          "velocity": 0.7874015748031497
        },
        {
          "duration": 0.16541359999999372,
          "durationTicks": 44,
          "midi": 35,
          "name": "B1",
          "ticks": 39840,
          "time": 149.774496,
          "velocity": 0.7874015748031497
        },
        {
          "duration": 0.16541359999999372,
          "durationTicks": 44,
          "midi": 35,
          "name": "B1",
          "ticks": 39900,
          "time": 150.00006,
          "velocity": 0.7874015748031497
        },
        {
          "duration": 0.16541360000002214,
          "durationTicks": 44,
          "midi": 35,
          "name": "B1",
          "ticks": 39960,
          "time": 150.22562399999998,
          "velocity": 0.7874015748031497
        },
        {
          "duration": 0.16541359999999372,
          "durationTicks": 44,
          "midi": 35,
          "name": "B1",
          "ticks": 40020,
          "time": 150.451188,
          "velocity": 0.7874015748031497
        },
        {
          "duration": 0.16541359999999372,
          "durationTicks": 44,
          "midi": 35,
          "name": "B1",
          "ticks": 40080,
          "time": 150.676752,
          "velocity": 0.7874015748031497
        },
        {
          "duration": 0.16541360000002214,
          "durationTicks": 44,
          "midi": 35,
          "name": "B1",
          "ticks": 40140,
          "time": 150.90231599999998,
          "velocity": 0.7874015748031497
        },
        {
          "duration": 0.16541359999999372,
          "durationTicks": 44,
          "midi": 35,
          "name": "B1",
          "ticks": 40200,
          "time": 151.12788,
          "velocity": 0.7874015748031497
        },
        {
          "duration": 0.16541359999999372,
          "durationTicks": 44,
          "midi": 35,
          "name": "B1",
          "ticks": 40260,
          "time": 151.353444,
          "velocity": 0.7874015748031497
        },
        {
          "duration": 0.16541359999999372,
          "durationTicks": 44,
          "midi": 35,
          "name": "B1",
          "ticks": 40320,
          "time": 151.579008,
          "velocity": 0.7874015748031497
        },
        {
          "duration": 0.16541360000002214,
          "durationTicks": 44,
          "midi": 35,
          "name": "B1",
          "ticks": 40380,
          "time": 151.80457199999998,
          "velocity": 0.7874015748031497
        },
        {
          "duration": 0.16541359999999372,
          "durationTicks": 44,
          "midi": 35,
          "name": "B1",
          "ticks": 40440,
          "time": 152.030136,
          "velocity": 0.7874015748031497
        },
        {
          "duration": 0.16541359999999372,
          "durationTicks": 44,
          "midi": 35,
          "name": "B1",
          "ticks": 40500,
          "time": 152.2557,
          "velocity": 0.7874015748031497
        },
        {
          "duration": 0.16541360000002214,
          "durationTicks": 44,
          "midi": 35,
          "name": "B1",
          "ticks": 40560,
          "time": 152.48126399999998,
          "velocity": 0.7874015748031497
        },
        {
          "duration": 0.16541359999999372,
          "durationTicks": 44,
          "midi": 35,
          "name": "B1",
          "ticks": 40620,
          "time": 152.706828,
          "velocity": 0.7874015748031497
        },
        {
          "duration": 0.16541359999999372,
          "durationTicks": 44,
          "midi": 35,
          "name": "B1",
          "ticks": 40680,
          "time": 152.932392,
          "velocity": 0.7874015748031497
        },
        {
          "duration": 0.16541360000002214,
          "durationTicks": 44,
          "midi": 35,
          "name": "B1",
          "ticks": 40740,
          "time": 153.15795599999998,
          "velocity": 0.7874015748031497
        },
        {
          "duration": 0.16541359999999372,
          "durationTicks": 44,
          "midi": 35,
          "name": "B1",
          "ticks": 40800,
          "time": 153.38352,
          "velocity": 0.7874015748031497
        },
        {
          "duration": 0.16541359999999372,
          "durationTicks": 44,
          "midi": 35,
          "name": "B1",
          "ticks": 40860,
          "time": 153.609084,
          "velocity": 0.7874015748031497
        },
        {
          "duration": 0.16541359999999372,
          "durationTicks": 44,
          "midi": 35,
          "name": "B1",
          "ticks": 40920,
          "time": 153.834648,
          "velocity": 0.7874015748031497
        },
        {
          "duration": 0.16541360000002214,
          "durationTicks": 44,
          "midi": 35,
          "name": "B1",
          "ticks": 40980,
          "time": 154.06021199999998,
          "velocity": 0.7874015748031497
        },
        {
          "duration": 0.16541359999999372,
          "durationTicks": 44,
          "midi": 35,
          "name": "B1",
          "ticks": 41040,
          "time": 154.285776,
          "velocity": 0.7874015748031497
        },
        {
          "duration": 0.16541359999999372,
          "durationTicks": 44,
          "midi": 35,
          "name": "B1",
          "ticks": 41100,
          "time": 154.51134,
          "velocity": 0.7874015748031497
        },
        {
          "duration": 0.16541360000002214,
          "durationTicks": 44,
          "midi": 35,
          "name": "B1",
          "ticks": 41160,
          "time": 154.73690399999998,
          "velocity": 0.7874015748031497
        },
        {
          "duration": 0.16541359999999372,
          "durationTicks": 44,
          "midi": 35,
          "name": "B1",
          "ticks": 41220,
          "time": 154.962468,
          "velocity": 0.7874015748031497
        },
        {
          "duration": 0.16541359999999372,
          "durationTicks": 44,
          "midi": 35,
          "name": "B1",
          "ticks": 41280,
          "time": 155.188032,
          "velocity": 0.7874015748031497
        },
        {
          "duration": 0.16541360000002214,
          "durationTicks": 44,
          "midi": 35,
          "name": "B1",
          "ticks": 41340,
          "time": 155.41359599999998,
          "velocity": 0.7874015748031497
        },
        {
          "duration": 0.16541359999999372,
          "durationTicks": 44,
          "midi": 35,
          "name": "B1",
          "ticks": 41400,
          "time": 155.63916,
          "velocity": 0.7874015748031497
        },
        {
          "duration": 0.16541359999999372,
          "durationTicks": 44,
          "midi": 35,
          "name": "B1",
          "ticks": 41460,
          "time": 155.864724,
          "velocity": 0.7874015748031497
        },
        {
          "duration": 0.16541359999999372,
          "durationTicks": 44,
          "midi": 35,
          "name": "B1",
          "ticks": 41520,
          "time": 156.090288,
          "velocity": 0.7874015748031497
        },
        {
          "duration": 0.16541360000002214,
          "durationTicks": 44,
          "midi": 35,
          "name": "B1",
          "ticks": 41580,
          "time": 156.31585199999998,
          "velocity": 0.7874015748031497
        },
        {
          "duration": 0.16541359999999372,
          "durationTicks": 44,
          "midi": 35,
          "name": "B1",
          "ticks": 41640,
          "time": 156.541416,
          "velocity": 0.7874015748031497
        },
        {
          "duration": 0.16541359999999372,
          "durationTicks": 44,
          "midi": 35,
          "name": "B1",
          "ticks": 41700,
          "time": 156.76698,
          "velocity": 0.7874015748031497
        },
        {
          "duration": 0.44736860000000434,
          "durationTicks": 119,
          "midi": 35,
          "name": "B1",
          "ticks": 41760,
          "time": 156.99254399999998,
          "velocity": 0.7874015748031497
        },
        {
          "duration": 0.44736860000000434,
          "durationTicks": 119,
          "midi": 33,
          "name": "A1",
          "ticks": 41880,
          "time": 157.443672,
          "velocity": 0.7874015748031497
        },
        {
          "duration": 0.3345865999999944,
          "durationTicks": 89,
          "midi": 28,
          "name": "E1",
          "ticks": 42000,
          "time": 157.8948,
          "velocity": 0.7874015748031497
        },
        {
          "duration": 0.44736860000000434,
          "durationTicks": 119,
          "midi": 33,
          "name": "A1",
          "ticks": 42600,
          "time": 160.15044,
          "velocity": 0.7874015748031497
        },
        {
          "duration": 0.44736860000000434,
          "durationTicks": 119,
          "midi": 35,
          "name": "B1",
          "ticks": 42720,
          "time": 160.601568,
          "velocity": 0.7874015748031497
        },
        {
          "duration": 0.44736860000000434,
          "durationTicks": 119,
          "midi": 33,
          "name": "A1",
          "ticks": 42840,
          "time": 161.052696,
          "velocity": 0.7874015748031497
        },
        {
          "duration": 0.3345866000000228,
          "durationTicks": 89,
          "midi": 28,
          "name": "E1",
          "ticks": 42960,
          "time": 161.50382399999998,
          "velocity": 0.7874015748031497
        },
        {
          "duration": 0.44736860000000434,
          "durationTicks": 119,
          "midi": 33,
          "name": "A1",
          "ticks": 43560,
          "time": 163.75946399999998,
          "velocity": 0.7874015748031497
        },
        {
          "duration": 0.44736860000000434,
          "durationTicks": 119,
          "midi": 35,
          "name": "B1",
          "ticks": 43680,
          "time": 164.210592,
          "velocity": 0.7874015748031497
        },
        {
          "duration": 0.44736860000000434,
          "durationTicks": 119,
          "midi": 33,
          "name": "A1",
          "ticks": 43800,
          "time": 164.66172,
          "velocity": 0.7874015748031497
        },
        {
          "duration": 0.3345865999999944,
          "durationTicks": 89,
          "midi": 28,
          "name": "E1",
          "ticks": 43920,
          "time": 165.11284799999999,
          "velocity": 0.7874015748031497
        },
        {
          "duration": 0.44736860000000434,
          "durationTicks": 119,
          "midi": 33,
          "name": "A1",
          "ticks": 44520,
          "time": 167.36848799999999,
          "velocity": 0.7874015748031497
        },
        {
          "duration": 0.44736860000000434,
          "durationTicks": 119,
          "midi": 35,
          "name": "B1",
          "ticks": 44640,
          "time": 167.819616,
          "velocity": 0.7874015748031497
        },
        {
          "duration": 0.44736860000000434,
          "durationTicks": 119,
          "midi": 33,
          "name": "A1",
          "ticks": 44760,
          "time": 168.27074399999998,
          "velocity": 0.7874015748031497
        },
        {
          "duration": 0.3345865999999944,
          "durationTicks": 89,
          "midi": 28,
          "name": "E1",
          "ticks": 44880,
          "time": 168.721872,
          "velocity": 0.7874015748031497
        },
        {
          "duration": 0.22180459999998448,
          "durationTicks": 59,
          "midi": 35,
          "name": "B1",
          "ticks": 45600,
          "time": 171.42864,
          "velocity": 0.7874015748031497
        },
        {
          "duration": 0.2218046000000129,
          "durationTicks": 59,
          "midi": 35,
          "name": "B1",
          "ticks": 45660,
          "time": 171.654204,
          "velocity": 0.7874015748031497
        },
        {
          "duration": 0.2218046000000129,
          "durationTicks": 59,
          "midi": 35,
          "name": "B1",
          "ticks": 45720,
          "time": 171.87976799999998,
          "velocity": 0.7874015748031497
        },
        {
          "duration": 0.6729326000000242,
          "durationTicks": 179,
          "midi": 33,
          "name": "A1",
          "ticks": 45780,
          "time": 172.10533199999998,
          "velocity": 0.7874015748031497
        },
        {
          "duration": 0.2218046000000129,
          "durationTicks": 59,
          "midi": 38,
          "name": "D2",
          "ticks": 45960,
          "time": 172.78202399999998,
          "velocity": 0.7874015748031497
        },
        {
          "duration": 0.22180459999998448,
          "durationTicks": 59,
          "midi": 32,
          "name": "G#1",
          "ticks": 46020,
          "time": 173.007588,
          "velocity": 0.7874015748031497
        },
        {
          "duration": 0.2218046000000129,
          "durationTicks": 59,
          "midi": 33,
          "name": "A1",
          "ticks": 46080,
          "time": 173.233152,
          "velocity": 0.7874015748031497
        },
        {
          "duration": 0.2218046000000129,
          "durationTicks": 59,
          "midi": 33,
          "name": "A1",
          "ticks": 46140,
          "time": 173.45871599999998,
          "velocity": 0.7874015748031497
        },
        {
          "duration": 0.22180459999998448,
          "durationTicks": 59,
          "midi": 33,
          "name": "A1",
          "ticks": 46200,
          "time": 173.68428,
          "velocity": 0.7874015748031497
        },
        {
          "duration": 1.124060600000007,
          "durationTicks": 299,
          "midi": 28,
          "name": "E1",
          "ticks": 46260,
          "time": 173.909844,
          "velocity": 0.7874015748031497
        },
        {
          "duration": 0.2218046000000129,
          "durationTicks": 59,
          "midi": 35,
          "name": "B1",
          "ticks": 46560,
          "time": 175.03766399999998,
          "velocity": 0.7874015748031497
        },
        {
          "duration": 0.22180459999998448,
          "durationTicks": 59,
          "midi": 35,
          "name": "B1",
          "ticks": 46620,
          "time": 175.263228,
          "velocity": 0.7874015748031497
        },
        {
          "duration": 0.2218046000000129,
          "durationTicks": 59,
          "midi": 35,
          "name": "B1",
          "ticks": 46680,
          "time": 175.488792,
          "velocity": 0.7874015748031497
        },
        {
          "duration": 0.6729326000000242,
          "durationTicks": 179,
          "midi": 33,
          "name": "A1",
          "ticks": 46740,
          "time": 175.71435599999998,
          "velocity": 0.7874015748031497
        },
        {
          "duration": 0.2218046000000129,
          "durationTicks": 59,
          "midi": 38,
          "name": "D2",
          "ticks": 46920,
          "time": 176.39104799999998,
          "velocity": 0.7874015748031497
        },
        {
          "duration": 0.22180459999998448,
          "durationTicks": 59,
          "midi": 32,
          "name": "G#1",
          "ticks": 46980,
          "time": 176.616612,
          "velocity": 0.7874015748031497
        },
        {
          "duration": 0.22180459999998448,
          "durationTicks": 59,
          "midi": 33,
          "name": "A1",
          "ticks": 47040,
          "time": 176.842176,
          "velocity": 0.7874015748031497
        },
        {
          "duration": 0.2218046000000129,
          "durationTicks": 59,
          "midi": 33,
          "name": "A1",
          "ticks": 47100,
          "time": 177.06774,
          "velocity": 0.7874015748031497
        },
        {
          "duration": 0.2218046000000129,
          "durationTicks": 59,
          "midi": 33,
          "name": "A1",
          "ticks": 47160,
          "time": 177.29330399999998,
          "velocity": 0.7874015748031497
        },
        {
          "duration": 1.124060600000007,
          "durationTicks": 299,
          "midi": 28,
          "name": "E1",
          "ticks": 47220,
          "time": 177.518868,
          "velocity": 0.7874015748031497
        },
        {
          "duration": 0.2218046000000129,
          "durationTicks": 59,
          "midi": 35,
          "name": "B1",
          "ticks": 47520,
          "time": 178.64668799999998,
          "velocity": 0.7874015748031497
        },
        {
          "duration": 0.22180459999998448,
          "durationTicks": 59,
          "midi": 35,
          "name": "B1",
          "ticks": 47580,
          "time": 178.872252,
          "velocity": 0.7874015748031497
        },
        {
          "duration": 0.22180459999998448,
          "durationTicks": 59,
          "midi": 35,
          "name": "B1",
          "ticks": 47640,
          "time": 179.097816,
          "velocity": 0.7874015748031497
        },
        {
          "duration": 0.6729325999999958,
          "durationTicks": 179,
          "midi": 33,
          "name": "A1",
          "ticks": 47700,
          "time": 179.32338,
          "velocity": 0.7874015748031497
        },
        {
          "duration": 0.2218046000000129,
          "durationTicks": 59,
          "midi": 38,
          "name": "D2",
          "ticks": 47880,
          "time": 180.000072,
          "velocity": 0.7874015748031497
        },
        {
          "duration": 0.2218046000000129,
          "durationTicks": 59,
          "midi": 32,
          "name": "G#1",
          "ticks": 47940,
          "time": 180.22563599999998,
          "velocity": 0.7874015748031497
        },
        {
          "duration": 0.22180459999998448,
          "durationTicks": 59,
          "midi": 33,
          "name": "A1",
          "ticks": 48000,
          "time": 180.4512,
          "velocity": 0.7874015748031497
        },
        {
          "duration": 0.2218046000000129,
          "durationTicks": 59,
          "midi": 33,
          "name": "A1",
          "ticks": 48060,
          "time": 180.676764,
          "velocity": 0.7874015748031497
        },
        {
          "duration": 0.2218046000000129,
          "durationTicks": 59,
          "midi": 33,
          "name": "A1",
          "ticks": 48120,
          "time": 180.90232799999998,
          "velocity": 0.7874015748031497
        },
        {
          "duration": 1.1240605999999786,
          "durationTicks": 299,
          "midi": 28,
          "name": "E1",
          "ticks": 48180,
          "time": 181.127892,
          "velocity": 0.7874015748031497
        },
        {
          "duration": 0.2218046000000129,
          "durationTicks": 59,
          "midi": 35,
          "name": "B1",
          "ticks": 48480,
          "time": 182.255712,
          "velocity": 0.7874015748031497
        },
        {
          "duration": 0.2218046000000129,
          "durationTicks": 59,
          "midi": 35,
          "name": "B1",
          "ticks": 48540,
          "time": 182.48127599999998,
          "velocity": 0.7874015748031497
        },
        {
          "duration": 0.22180459999998448,
          "durationTicks": 59,
          "midi": 35,
          "name": "B1",
          "ticks": 48600,
          "time": 182.70684,
          "velocity": 0.7874015748031497
        },
        {
          "duration": 0.6729325999999958,
          "durationTicks": 179,
          "midi": 33,
          "name": "A1",
          "ticks": 48660,
          "time": 182.932404,
          "velocity": 0.7874015748031497
        },
        {
          "duration": 0.2218046000000129,
          "durationTicks": 59,
          "midi": 38,
          "name": "D2",
          "ticks": 48840,
          "time": 183.609096,
          "velocity": 0.7874015748031497
        },
        {
          "duration": 0.2218046000000129,
          "durationTicks": 59,
          "midi": 32,
          "name": "G#1",
          "ticks": 48900,
          "time": 183.83465999999999,
          "velocity": 0.7874015748031497
        },
        {
          "duration": 0.2218046000000129,
          "durationTicks": 59,
          "midi": 33,
          "name": "A1",
          "ticks": 48960,
          "time": 184.06022399999998,
          "velocity": 0.7874015748031497
        },
        {
          "duration": 0.22180459999998448,
          "durationTicks": 59,
          "midi": 33,
          "name": "A1",
          "ticks": 49020,
          "time": 184.285788,
          "velocity": 0.7874015748031497
        },
        {
          "duration": 0.2218046000000129,
          "durationTicks": 59,
          "midi": 33,
          "name": "A1",
          "ticks": 49080,
          "time": 184.511352,
          "velocity": 0.7874015748031497
        },
        {
          "duration": 1.124060600000007,
          "durationTicks": 299,
          "midi": 28,
          "name": "E1",
          "ticks": 49140,
          "time": 184.73691599999998,
          "velocity": 0.7874015748031497
        },
        {
          "duration": 0.16541359999999372,
          "durationTicks": 44,
          "midi": 35,
          "name": "B1",
          "ticks": 49440,
          "time": 185.864736,
          "velocity": 0.7874015748031497
        },
        {
          "duration": 0.16541359999999372,
          "durationTicks": 44,
          "midi": 35,
          "name": "B1",
          "ticks": 49500,
          "time": 186.09029999999998,
          "velocity": 0.7874015748031497
        },
        {
          "duration": 0.16541360000002214,
          "durationTicks": 44,
          "midi": 35,
          "name": "B1",
          "ticks": 49560,
          "time": 186.31586399999998,
          "velocity": 0.7874015748031497
        },
        {
          "duration": 0.16541359999999372,
          "durationTicks": 44,
          "midi": 35,
          "name": "B1",
          "ticks": 49620,
          "time": 186.541428,
          "velocity": 0.7874015748031497
        },
        {
          "duration": 0.16541359999999372,
          "durationTicks": 44,
          "midi": 35,
          "name": "B1",
          "ticks": 49680,
          "time": 186.766992,
          "velocity": 0.7874015748031497
        },
        {
          "duration": 0.16541360000002214,
          "durationTicks": 44,
          "midi": 35,
          "name": "B1",
          "ticks": 49740,
          "time": 186.99255599999998,
          "velocity": 0.7874015748031497
        },
        {
          "duration": 0.16541359999999372,
          "durationTicks": 44,
          "midi": 35,
          "name": "B1",
          "ticks": 49800,
          "time": 187.21812,
          "velocity": 0.7874015748031497
        },
        {
          "duration": 0.16541359999999372,
          "durationTicks": 44,
          "midi": 35,
          "name": "B1",
          "ticks": 49860,
          "time": 187.443684,
          "velocity": 0.7874015748031497
        },
        {
          "duration": 0.16541360000002214,
          "durationTicks": 44,
          "midi": 35,
          "name": "B1",
          "ticks": 49920,
          "time": 187.66924799999998,
          "velocity": 0.7874015748031497
        },
        {
          "duration": 0.16541359999999372,
          "durationTicks": 44,
          "midi": 35,
          "name": "B1",
          "ticks": 49980,
          "time": 187.894812,
          "velocity": 0.7874015748031497
        },
        {
          "duration": 0.16541359999999372,
          "durationTicks": 44,
          "midi": 35,
          "name": "B1",
          "ticks": 50040,
          "time": 188.120376,
          "velocity": 0.7874015748031497
        },
        {
          "duration": 0.16541359999999372,
          "durationTicks": 44,
          "midi": 35,
          "name": "B1",
          "ticks": 50100,
          "time": 188.34593999999998,
          "velocity": 0.7874015748031497
        },
        {
          "duration": 0.16541360000002214,
          "durationTicks": 44,
          "midi": 35,
          "name": "B1",
          "ticks": 50160,
          "time": 188.57150399999998,
          "velocity": 0.7874015748031497
        },
        {
          "duration": 0.16541359999999372,
          "durationTicks": 44,
          "midi": 35,
          "name": "B1",
          "ticks": 50220,
          "time": 188.797068,
          "velocity": 0.7874015748031497
        },
        {
          "duration": 0.16541359999999372,
          "durationTicks": 44,
          "midi": 35,
          "name": "B1",
          "ticks": 50280,
          "time": 189.022632,
          "velocity": 0.7874015748031497
        },
        {
          "duration": 0.16541360000002214,
          "durationTicks": 44,
          "midi": 35,
          "name": "B1",
          "ticks": 50340,
          "time": 189.24819599999998,
          "velocity": 0.7874015748031497
        },
        {
          "duration": 0.16541359999999372,
          "durationTicks": 44,
          "midi": 35,
          "name": "B1",
          "ticks": 50400,
          "time": 189.47376,
          "velocity": 0.7874015748031497
        },
        {
          "duration": 0.16541359999999372,
          "durationTicks": 44,
          "midi": 35,
          "name": "B1",
          "ticks": 50460,
          "time": 189.699324,
          "velocity": 0.7874015748031497
        },
        {
          "duration": 0.16541360000002214,
          "durationTicks": 44,
          "midi": 35,
          "name": "B1",
          "ticks": 50520,
          "time": 189.92488799999998,
          "velocity": 0.7874015748031497
        },
        {
          "duration": 0.16541359999999372,
          "durationTicks": 44,
          "midi": 35,
          "name": "B1",
          "ticks": 50580,
          "time": 190.150452,
          "velocity": 0.7874015748031497
        },
        {
          "duration": 0.16541359999999372,
          "durationTicks": 44,
          "midi": 35,
          "name": "B1",
          "ticks": 50640,
          "time": 190.376016,
          "velocity": 0.7874015748031497
        },
        {
          "duration": 0.16541360000002214,
          "durationTicks": 44,
          "midi": 35,
          "name": "B1",
          "ticks": 50700,
          "time": 190.60157999999998,
          "velocity": 0.7874015748031497
        },
        {
          "duration": 0.16541360000002214,
          "durationTicks": 44,
          "midi": 35,
          "name": "B1",
          "ticks": 50760,
          "time": 190.82714399999998,
          "velocity": 0.7874015748031497
        },
        {
          "duration": 0.16541359999999372,
          "durationTicks": 44,
          "midi": 35,
          "name": "B1",
          "ticks": 50820,
          "time": 191.052708,
          "velocity": 0.7874015748031497
        },
        {
          "duration": 0.16541359999999372,
          "durationTicks": 44,
          "midi": 35,
          "name": "B1",
          "ticks": 50880,
          "time": 191.278272,
          "velocity": 0.7874015748031497
        },
        {
          "duration": 0.16541360000002214,
          "durationTicks": 44,
          "midi": 35,
          "name": "B1",
          "ticks": 50940,
          "time": 191.50383599999998,
          "velocity": 0.7874015748031497
        },
        {
          "duration": 0.16541359999999372,
          "durationTicks": 44,
          "midi": 35,
          "name": "B1",
          "ticks": 51000,
          "time": 191.7294,
          "velocity": 0.7874015748031497
        },
        {
          "duration": 0.16541359999999372,
          "durationTicks": 44,
          "midi": 35,
          "name": "B1",
          "ticks": 51060,
          "time": 191.954964,
          "velocity": 0.7874015748031497
        },
        {
          "duration": 0.16541360000002214,
          "durationTicks": 44,
          "midi": 35,
          "name": "B1",
          "ticks": 51120,
          "time": 192.18052799999998,
          "velocity": 0.7874015748031497
        },
        {
          "duration": 0.16541359999999372,
          "durationTicks": 44,
          "midi": 35,
          "name": "B1",
          "ticks": 51180,
          "time": 192.406092,
          "velocity": 0.7874015748031497
        },
        {
          "duration": 0.16541359999999372,
          "durationTicks": 44,
          "midi": 35,
          "name": "B1",
          "ticks": 51240,
          "time": 192.631656,
          "velocity": 0.7874015748031497
        },
        {
          "duration": 0.16541360000002214,
          "durationTicks": 44,
          "midi": 35,
          "name": "B1",
          "ticks": 51300,
          "time": 192.85721999999998,
          "velocity": 0.7874015748031497
        },
        {
          "duration": 0.16541360000002214,
          "durationTicks": 44,
          "midi": 35,
          "name": "B1",
          "ticks": 51360,
          "time": 193.08278399999998,
          "velocity": 0.7874015748031497
        },
        {
          "duration": 0.16541359999999372,
          "durationTicks": 44,
          "midi": 35,
          "name": "B1",
          "ticks": 51420,
          "time": 193.308348,
          "velocity": 0.7874015748031497
        },
        {
          "duration": 0.16541359999999372,
          "durationTicks": 44,
          "midi": 35,
          "name": "B1",
          "ticks": 51480,
          "time": 193.533912,
          "velocity": 0.7874015748031497
        },
        {
          "duration": 0.16541360000002214,
          "durationTicks": 44,
          "midi": 35,
          "name": "B1",
          "ticks": 51540,
          "time": 193.75947599999998,
          "velocity": 0.7874015748031497
        },
        {
          "duration": 0.16541359999999372,
          "durationTicks": 44,
          "midi": 35,
          "name": "B1",
          "ticks": 51600,
          "time": 193.98504,
          "velocity": 0.7874015748031497
        },
        {
          "duration": 0.16541359999999372,
          "durationTicks": 44,
          "midi": 35,
          "name": "B1",
          "ticks": 51660,
          "time": 194.210604,
          "velocity": 0.7874015748031497
        },
        {
          "duration": 0.16541360000002214,
          "durationTicks": 44,
          "midi": 35,
          "name": "B1",
          "ticks": 51720,
          "time": 194.43616799999998,
          "velocity": 0.7874015748031497
        },
        {
          "duration": 0.16541359999999372,
          "durationTicks": 44,
          "midi": 35,
          "name": "B1",
          "ticks": 51780,
          "time": 194.661732,
          "velocity": 0.7874015748031497
        },
        {
          "duration": 0.16541359999999372,
          "durationTicks": 44,
          "midi": 35,
          "name": "B1",
          "ticks": 51840,
          "time": 194.887296,
          "velocity": 0.7874015748031497
        },
        {
          "duration": 0.16541360000002214,
          "durationTicks": 44,
          "midi": 35,
          "name": "B1",
          "ticks": 51900,
          "time": 195.11285999999998,
          "velocity": 0.7874015748031497
        },
        {
          "duration": 0.16541360000002214,
          "durationTicks": 44,
          "midi": 35,
          "name": "B1",
          "ticks": 51960,
          "time": 195.33842399999997,
          "velocity": 0.7874015748031497
        },
        {
          "duration": 0.16541359999999372,
          "durationTicks": 44,
          "midi": 35,
          "name": "B1",
          "ticks": 52020,
          "time": 195.563988,
          "velocity": 0.7874015748031497
        },
        {
          "duration": 0.16541359999999372,
          "durationTicks": 44,
          "midi": 35,
          "name": "B1",
          "ticks": 52080,
          "time": 195.789552,
          "velocity": 0.7874015748031497
        },
        {
          "duration": 0.16541360000002214,
          "durationTicks": 44,
          "midi": 35,
          "name": "B1",
          "ticks": 52140,
          "time": 196.01511599999998,
          "velocity": 0.7874015748031497
        },
        {
          "duration": 0.16541359999999372,
          "durationTicks": 44,
          "midi": 35,
          "name": "B1",
          "ticks": 52200,
          "time": 196.24068,
          "velocity": 0.7874015748031497
        },
        {
          "duration": 0.16541359999999372,
          "durationTicks": 44,
          "midi": 35,
          "name": "B1",
          "ticks": 52260,
          "time": 196.466244,
          "velocity": 0.7874015748031497
        },
        {
          "duration": 0.16541360000002214,
          "durationTicks": 44,
          "midi": 35,
          "name": "B1",
          "ticks": 52320,
          "time": 196.69180799999998,
          "velocity": 0.7874015748031497
        },
        {
          "duration": 0.16541359999999372,
          "durationTicks": 44,
          "midi": 35,
          "name": "B1",
          "ticks": 52380,
          "time": 196.917372,
          "velocity": 0.7874015748031497
        },
        {
          "duration": 0.16541359999999372,
          "durationTicks": 44,
          "midi": 35,
          "name": "B1",
          "ticks": 52440,
          "time": 197.142936,
          "velocity": 0.7874015748031497
        },
        {
          "duration": 0.16541360000002214,
          "durationTicks": 44,
          "midi": 35,
          "name": "B1",
          "ticks": 52500,
          "time": 197.36849999999998,
          "velocity": 0.7874015748031497
        },
        {
          "duration": 0.16541360000002214,
          "durationTicks": 44,
          "midi": 35,
          "name": "B1",
          "ticks": 52560,
          "time": 197.59406399999997,
          "velocity": 0.7874015748031497
        },
        {
          "duration": 0.16541359999999372,
          "durationTicks": 44,
          "midi": 35,
          "name": "B1",
          "ticks": 52620,
          "time": 197.819628,
          "velocity": 0.7874015748031497
        },
        {
          "duration": 0.16541359999999372,
          "durationTicks": 44,
          "midi": 35,
          "name": "B1",
          "ticks": 52680,
          "time": 198.045192,
          "velocity": 0.7874015748031497
        },
        {
          "duration": 0.16541360000002214,
          "durationTicks": 44,
          "midi": 35,
          "name": "B1",
          "ticks": 52740,
          "time": 198.27075599999998,
          "velocity": 0.7874015748031497
        },
        {
          "duration": 0.16541359999999372,
          "durationTicks": 44,
          "midi": 35,
          "name": "B1",
          "ticks": 52800,
          "time": 198.49632,
          "velocity": 0.7874015748031497
        },
        {
          "duration": 0.16541359999999372,
          "durationTicks": 44,
          "midi": 35,
          "name": "B1",
          "ticks": 52860,
          "time": 198.721884,
          "velocity": 0.7874015748031497
        },
        {
          "duration": 0.16541360000002214,
          "durationTicks": 44,
          "midi": 35,
          "name": "B1",
          "ticks": 52920,
          "time": 198.94744799999998,
          "velocity": 0.7874015748031497
        },
        {
          "duration": 0.16541359999999372,
          "durationTicks": 44,
          "midi": 35,
          "name": "B1",
          "ticks": 52980,
          "time": 199.173012,
          "velocity": 0.7874015748031497
        },
        {
          "duration": 0.16541359999999372,
          "durationTicks": 44,
          "midi": 35,
          "name": "B1",
          "ticks": 53040,
          "time": 199.398576,
          "velocity": 0.7874015748031497
        },
        {
          "duration": 0.16541360000002214,
          "durationTicks": 44,
          "midi": 35,
          "name": "B1",
          "ticks": 53100,
          "time": 199.62413999999998,
          "velocity": 0.7874015748031497
        },
        {
          "duration": 0.16541360000002214,
          "durationTicks": 44,
          "midi": 35,
          "name": "B1",
          "ticks": 53160,
          "time": 199.84970399999997,
          "velocity": 0.7874015748031497
        },
        {
          "duration": 0.16541359999999372,
          "durationTicks": 44,
          "midi": 35,
          "name": "B1",
          "ticks": 53220,
          "time": 200.075268,
          "velocity": 0.7874015748031497
        },
        {
          "duration": 0.6729325999999958,
          "durationTicks": 179,
          "midi": 28,
          "name": "E1",
          "ticks": 53280,
          "time": 200.30083199999999,
          "velocity": 0.7874015748031497
        },
        {
          "duration": 0.44736860000000434,
          "durationTicks": 119,
          "midi": 35,
          "name": "B1",
          "ticks": 53460,
          "time": 200.977524,
          "velocity": 0.7874015748031497
        },
        {
          "duration": 0.22180459999998448,
          "durationTicks": 59,
          "midi": 28,
          "name": "E1",
          "ticks": 53580,
          "time": 201.428652,
          "velocity": 0.7874015748031497
        },
        {
          "duration": 0.2218046000000129,
          "durationTicks": 59,
          "midi": 31,
          "name": "G1",
          "ticks": 53640,
          "time": 201.654216,
          "velocity": 0.7874015748031497
        },
        {
          "duration": 0.2218046000000129,
          "durationTicks": 59,
          "midi": 32,
          "name": "G#1",
          "ticks": 53700,
          "time": 201.87977999999998,
          "velocity": 0.7874015748031497
        },
        {
          "duration": 0.6729325999999958,
          "durationTicks": 179,
          "midi": 33,
          "name": "A1",
          "ticks": 53760,
          "time": 202.105344,
          "velocity": 0.7874015748031497
        },
        {
          "duration": 1.124060600000007,
          "durationTicks": 299,
          "midi": 28,
          "name": "E1",
          "ticks": 53940,
          "time": 202.78203599999998,
          "velocity": 0.7874015748031497
        },
        {
          "duration": 0.6729325999999958,
          "durationTicks": 179,
          "midi": 28,
          "name": "E1",
          "ticks": 54240,
          "time": 203.909856,
          "velocity": 0.7874015748031497
        },
        {
          "duration": 0.44736860000000434,
          "durationTicks": 119,
          "midi": 35,
          "name": "B1",
          "ticks": 54420,
          "time": 204.586548,
          "velocity": 0.7874015748031497
        },
        {
          "duration": 0.2218046000000129,
          "durationTicks": 59,
          "midi": 28,
          "name": "E1",
          "ticks": 54540,
          "time": 205.03767599999998,
          "velocity": 0.7874015748031497
        },
        {
          "duration": 0.22180459999998448,
          "durationTicks": 59,
          "midi": 31,
          "name": "G1",
          "ticks": 54600,
          "time": 205.26324,
          "velocity": 0.7874015748031497
        },
        {
          "duration": 0.2218046000000129,
          "durationTicks": 59,
          "midi": 32,
          "name": "G#1",
          "ticks": 54660,
          "time": 205.488804,
          "velocity": 0.7874015748031497
        },
        {
          "duration": 0.6729326000000242,
          "durationTicks": 179,
          "midi": 33,
          "name": "A1",
          "ticks": 54720,
          "time": 205.71436799999998,
          "velocity": 0.7874015748031497
        },
        {
          "duration": 1.124060600000007,
          "durationTicks": 299,
          "midi": 28,
          "name": "E1",
          "ticks": 54900,
          "time": 206.39105999999998,
          "velocity": 0.7874015748031497
        },
        {
          "duration": 0.6729325999999958,
          "durationTicks": 179,
          "midi": 28,
          "name": "E1",
          "ticks": 55200,
          "time": 207.51888,
          "velocity": 0.7874015748031497
        },
        {
          "duration": 0.44736860000000434,
          "durationTicks": 119,
          "midi": 35,
          "name": "B1",
          "ticks": 55380,
          "time": 208.195572,
          "velocity": 0.7874015748031497
        },
        {
          "duration": 0.2218046000000129,
          "durationTicks": 59,
          "midi": 28,
          "name": "E1",
          "ticks": 55500,
          "time": 208.64669999999998,
          "velocity": 0.7874015748031497
        },
        {
          "duration": 0.22180459999998448,
          "durationTicks": 59,
          "midi": 31,
          "name": "G1",
          "ticks": 55560,
          "time": 208.872264,
          "velocity": 0.7874015748031497
        },
        {
          "duration": 0.22180459999998448,
          "durationTicks": 59,
          "midi": 32,
          "name": "G#1",
          "ticks": 55620,
          "time": 209.097828,
          "velocity": 0.7874015748031497
        },
        {
          "duration": 0.6729325999999958,
          "durationTicks": 179,
          "midi": 33,
          "name": "A1",
          "ticks": 55680,
          "time": 209.32339199999998,
          "velocity": 0.7874015748031497
        },
        {
          "duration": 1.124060600000007,
          "durationTicks": 299,
          "midi": 28,
          "name": "E1",
          "ticks": 55860,
          "time": 210.000084,
          "velocity": 0.7874015748031497
        },
        {
          "duration": 0.6729325999999958,
          "durationTicks": 179,
          "midi": 28,
          "name": "E1",
          "ticks": 56160,
          "time": 211.127904,
          "velocity": 0.7874015748031497
        },
        {
          "duration": 0.44736860000000434,
          "durationTicks": 119,
          "midi": 35,
          "name": "B1",
          "ticks": 56340,
          "time": 211.80459599999998,
          "velocity": 0.7874015748031497
        },
        {
          "duration": 0.2218046000000129,
          "durationTicks": 59,
          "midi": 28,
          "name": "E1",
          "ticks": 56460,
          "time": 212.255724,
          "velocity": 0.7874015748031497
        },
        {
          "duration": 0.2218046000000129,
          "durationTicks": 59,
          "midi": 31,
          "name": "G1",
          "ticks": 56520,
          "time": 212.48128799999998,
          "velocity": 0.7874015748031497
        },
        {
          "duration": 0.22180459999998448,
          "durationTicks": 59,
          "midi": 32,
          "name": "G#1",
          "ticks": 56580,
          "time": 212.706852,
          "velocity": 0.7874015748031497
        },
        {
          "duration": 0.6729325999999958,
          "durationTicks": 179,
          "midi": 33,
          "name": "A1",
          "ticks": 56640,
          "time": 212.932416,
          "velocity": 0.7874015748031497
        },
        {
          "duration": 1.124060600000007,
          "durationTicks": 299,
          "midi": 28,
          "name": "E1",
          "ticks": 56820,
          "time": 213.609108,
          "velocity": 0.7874015748031497
        },
        {
          "duration": 0.16541360000002214,
          "durationTicks": 44,
          "midi": 35,
          "name": "B1",
          "ticks": 57120,
          "time": 214.73692799999998,
          "velocity": 0.7874015748031497
        },
        {
          "duration": 0.16541359999999372,
          "durationTicks": 44,
          "midi": 35,
          "name": "B1",
          "ticks": 57180,
          "time": 214.962492,
          "velocity": 0.7874015748031497
        },
        {
          "duration": 0.16541359999999372,
          "durationTicks": 44,
          "midi": 35,
          "name": "B1",
          "ticks": 57240,
          "time": 215.188056,
          "velocity": 0.7874015748031497
        },
        {
          "duration": 0.16541360000002214,
          "durationTicks": 44,
          "midi": 35,
          "name": "B1",
          "ticks": 57300,
          "time": 215.41361999999998,
          "velocity": 0.7874015748031497
        },
        {
          "duration": 0.16541359999999372,
          "durationTicks": 44,
          "midi": 35,
          "name": "B1",
          "ticks": 57360,
          "time": 215.639184,
          "velocity": 0.7874015748031497
        },
        {
          "duration": 0.16541359999999372,
          "durationTicks": 44,
          "midi": 35,
          "name": "B1",
          "ticks": 57420,
          "time": 215.864748,
          "velocity": 0.7874015748031497
        },
        {
          "duration": 0.16541359999999372,
          "durationTicks": 44,
          "midi": 35,
          "name": "B1",
          "ticks": 57480,
          "time": 216.09031199999998,
          "velocity": 0.7874015748031497
        },
        {
          "duration": 0.16541360000002214,
          "durationTicks": 44,
          "midi": 35,
          "name": "B1",
          "ticks": 57540,
          "time": 216.31587599999997,
          "velocity": 0.7874015748031497
        },
        {
          "duration": 0.16541359999999372,
          "durationTicks": 44,
          "midi": 35,
          "name": "B1",
          "ticks": 57600,
          "time": 216.54144,
          "velocity": 0.7874015748031497
        },
        {
          "duration": 0.16541359999999372,
          "durationTicks": 44,
          "midi": 35,
          "name": "B1",
          "ticks": 57660,
          "time": 216.767004,
          "velocity": 0.7874015748031497
        },
        {
          "duration": 0.16541360000002214,
          "durationTicks": 44,
          "midi": 35,
          "name": "B1",
          "ticks": 57720,
          "time": 216.99256799999998,
          "velocity": 0.7874015748031497
        },
        {
          "duration": 0.16541359999999372,
          "durationTicks": 44,
          "midi": 35,
          "name": "B1",
          "ticks": 57780,
          "time": 217.218132,
          "velocity": 0.7874015748031497
        },
        {
          "duration": 0.16541359999999372,
          "durationTicks": 44,
          "midi": 35,
          "name": "B1",
          "ticks": 57840,
          "time": 217.443696,
          "velocity": 0.7874015748031497
        },
        {
          "duration": 0.16541360000002214,
          "durationTicks": 44,
          "midi": 35,
          "name": "B1",
          "ticks": 57900,
          "time": 217.66925999999998,
          "velocity": 0.7874015748031497
        },
        {
          "duration": 0.16541359999999372,
          "durationTicks": 44,
          "midi": 35,
          "name": "B1",
          "ticks": 57960,
          "time": 217.894824,
          "velocity": 0.7874015748031497
        },
        {
          "duration": 0.16541359999999372,
          "durationTicks": 44,
          "midi": 35,
          "name": "B1",
          "ticks": 58020,
          "time": 218.120388,
          "velocity": 0.7874015748031497
        },
        {
          "duration": 0.16541359999999372,
          "durationTicks": 44,
          "midi": 35,
          "name": "B1",
          "ticks": 58080,
          "time": 218.34595199999998,
          "velocity": 0.7874015748031497
        },
        {
          "duration": 0.16541360000002214,
          "durationTicks": 44,
          "midi": 35,
          "name": "B1",
          "ticks": 58140,
          "time": 218.57151599999997,
          "velocity": 0.7874015748031497
        },
        {
          "duration": 0.16541359999999372,
          "durationTicks": 44,
          "midi": 35,
          "name": "B1",
          "ticks": 58200,
          "time": 218.79708,
          "velocity": 0.7874015748031497
        },
        {
          "duration": 0.16541359999999372,
          "durationTicks": 44,
          "midi": 35,
          "name": "B1",
          "ticks": 58260,
          "time": 219.02264399999999,
          "velocity": 0.7874015748031497
        },
        {
          "duration": 0.16541360000002214,
          "durationTicks": 44,
          "midi": 35,
          "name": "B1",
          "ticks": 58320,
          "time": 219.24820799999998,
          "velocity": 0.7874015748031497
        },
        {
          "duration": 0.16541359999999372,
          "durationTicks": 44,
          "midi": 35,
          "name": "B1",
          "ticks": 58380,
          "time": 219.473772,
          "velocity": 0.7874015748031497
        },
        {
          "duration": 0.16541359999999372,
          "durationTicks": 44,
          "midi": 35,
          "name": "B1",
          "ticks": 58440,
          "time": 219.699336,
          "velocity": 0.7874015748031497
        },
        {
          "duration": 0.16541360000002214,
          "durationTicks": 44,
          "midi": 35,
          "name": "B1",
          "ticks": 58500,
          "time": 219.92489999999998,
          "velocity": 0.7874015748031497
        },
        {
          "duration": 0.16541359999999372,
          "durationTicks": 44,
          "midi": 35,
          "name": "B1",
          "ticks": 58560,
          "time": 220.150464,
          "velocity": 0.7874015748031497
        },
        {
          "duration": 0.16541360000002214,
          "durationTicks": 44,
          "midi": 35,
          "name": "B1",
          "ticks": 58620,
          "time": 220.376028,
          "velocity": 0.7874015748031497
        },
        {
          "duration": 0.16541359999999372,
          "durationTicks": 44,
          "midi": 35,
          "name": "B1",
          "ticks": 58680,
          "time": 220.601592,
          "velocity": 0.7874015748031497
        },
        {
          "duration": 0.16541359999999372,
          "durationTicks": 44,
          "midi": 35,
          "name": "B1",
          "ticks": 58740,
          "time": 220.827156,
          "velocity": 0.7874015748031497
        },
        {
          "duration": 0.16541359999999372,
          "durationTicks": 44,
          "midi": 35,
          "name": "B1",
          "ticks": 58800,
          "time": 221.05272,
          "velocity": 0.7874015748031497
        },
        {
          "duration": 0.16541360000002214,
          "durationTicks": 44,
          "midi": 35,
          "name": "B1",
          "ticks": 58860,
          "time": 221.27828399999999,
          "velocity": 0.7874015748031497
        },
        {
          "duration": 0.16541359999999372,
          "durationTicks": 44,
          "midi": 35,
          "name": "B1",
          "ticks": 58920,
          "time": 221.503848,
          "velocity": 0.7874015748031497
        },
        {
          "duration": 0.16541359999999372,
          "durationTicks": 44,
          "midi": 35,
          "name": "B1",
          "ticks": 58980,
          "time": 221.729412,
          "velocity": 0.7874015748031497
        },
        {
          "duration": 0.16541360000002214,
          "durationTicks": 44,
          "midi": 35,
          "name": "B1",
          "ticks": 59040,
          "time": 221.954976,
          "velocity": 0.7874015748031497
        },
        {
          "duration": 0.16541359999999372,
          "durationTicks": 44,
          "midi": 35,
          "name": "B1",
          "ticks": 59100,
          "time": 222.18054,
          "velocity": 0.7874015748031497
        },
        {
          "duration": 0.16541359999999372,
          "durationTicks": 44,
          "midi": 35,
          "name": "B1",
          "ticks": 59160,
          "time": 222.406104,
          "velocity": 0.7874015748031497
        },
        {
          "duration": 0.16541360000002214,
          "durationTicks": 44,
          "midi": 35,
          "name": "B1",
          "ticks": 59220,
          "time": 222.631668,
          "velocity": 0.7874015748031497
        },
        {
          "duration": 0.16541359999999372,
          "durationTicks": 44,
          "midi": 35,
          "name": "B1",
          "ticks": 59280,
          "time": 222.857232,
          "velocity": 0.7874015748031497
        },
        {
          "duration": 0.16541359999999372,
          "durationTicks": 44,
          "midi": 35,
          "name": "B1",
          "ticks": 59340,
          "time": 223.082796,
          "velocity": 0.7874015748031497
        },
        {
          "duration": 0.16541359999999372,
          "durationTicks": 44,
          "midi": 35,
          "name": "B1",
          "ticks": 59400,
          "time": 223.30836,
          "velocity": 0.7874015748031497
        },
        {
          "duration": 0.16541359999999372,
          "durationTicks": 44,
          "midi": 35,
          "name": "B1",
          "ticks": 59460,
          "time": 223.533924,
          "velocity": 0.7874015748031497
        },
        {
          "duration": 0.16541359999999372,
          "durationTicks": 44,
          "midi": 35,
          "name": "B1",
          "ticks": 59520,
          "time": 223.759488,
          "velocity": 0.7874015748031497
        },
        {
          "duration": 0.16541359999999372,
          "durationTicks": 44,
          "midi": 35,
          "name": "B1",
          "ticks": 59580,
          "time": 223.985052,
          "velocity": 0.7874015748031497
        },
        {
          "duration": 0.16541360000002214,
          "durationTicks": 44,
          "midi": 35,
          "name": "B1",
          "ticks": 59640,
          "time": 224.210616,
          "velocity": 0.7874015748031497
        },
        {
          "duration": 0.16541359999999372,
          "durationTicks": 44,
          "midi": 35,
          "name": "B1",
          "ticks": 59700,
          "time": 224.43618,
          "velocity": 0.7874015748031497
        },
        {
          "duration": 0.16541359999999372,
          "durationTicks": 44,
          "midi": 35,
          "name": "B1",
          "ticks": 59760,
          "time": 224.661744,
          "velocity": 0.7874015748031497
        },
        {
          "duration": 0.16541360000002214,
          "durationTicks": 44,
          "midi": 35,
          "name": "B1",
          "ticks": 59820,
          "time": 224.887308,
          "velocity": 0.7874015748031497
        },
        {
          "duration": 0.16541359999999372,
          "durationTicks": 44,
          "midi": 35,
          "name": "B1",
          "ticks": 59880,
          "time": 225.112872,
          "velocity": 0.7874015748031497
        },
        {
          "duration": 0.16541359999999372,
          "durationTicks": 44,
          "midi": 35,
          "name": "B1",
          "ticks": 59940,
          "time": 225.338436,
          "velocity": 0.7874015748031497
        },
        {
          "duration": 0.16541359999999372,
          "durationTicks": 44,
          "midi": 35,
          "name": "B1",
          "ticks": 60000,
          "time": 225.564,
          "velocity": 0.7874015748031497
        },
        {
          "duration": 0.16541359999999372,
          "durationTicks": 44,
          "midi": 35,
          "name": "B1",
          "ticks": 60060,
          "time": 225.789564,
          "velocity": 0.7874015748031497
        },
        {
          "duration": 0.16541359999999372,
          "durationTicks": 44,
          "midi": 35,
          "name": "B1",
          "ticks": 60120,
          "time": 226.015128,
          "velocity": 0.7874015748031497
        },
        {
          "duration": 0.16541359999999372,
          "durationTicks": 44,
          "midi": 35,
          "name": "B1",
          "ticks": 60180,
          "time": 226.240692,
          "velocity": 0.7874015748031497
        },
        {
          "duration": 0.16541360000002214,
          "durationTicks": 44,
          "midi": 35,
          "name": "B1",
          "ticks": 60240,
          "time": 226.466256,
          "velocity": 0.7874015748031497
        },
        {
          "duration": 0.16541359999999372,
          "durationTicks": 44,
          "midi": 35,
          "name": "B1",
          "ticks": 60300,
          "time": 226.69182,
          "velocity": 0.7874015748031497
        },
        {
          "duration": 0.16541359999999372,
          "durationTicks": 44,
          "midi": 35,
          "name": "B1",
          "ticks": 60360,
          "time": 226.917384,
          "velocity": 0.7874015748031497
        },
        {
          "duration": 0.16541360000002214,
          "durationTicks": 44,
          "midi": 35,
          "name": "B1",
          "ticks": 60420,
          "time": 227.142948,
          "velocity": 0.7874015748031497
        },
        {
          "duration": 0.16541359999999372,
          "durationTicks": 44,
          "midi": 35,
          "name": "B1",
          "ticks": 60480,
          "time": 227.368512,
          "velocity": 0.7874015748031497
        },
        {
          "duration": 0.16541359999999372,
          "durationTicks": 44,
          "midi": 35,
          "name": "B1",
          "ticks": 60540,
          "time": 227.594076,
          "velocity": 0.7874015748031497
        },
        {
          "duration": 0.16541359999999372,
          "durationTicks": 44,
          "midi": 35,
          "name": "B1",
          "ticks": 60600,
          "time": 227.81964,
          "velocity": 0.7874015748031497
        },
        {
          "duration": 0.16541359999999372,
          "durationTicks": 44,
          "midi": 35,
          "name": "B1",
          "ticks": 60660,
          "time": 228.045204,
          "velocity": 0.7874015748031497
        },
        {
          "duration": 0.16541359999999372,
          "durationTicks": 44,
          "midi": 35,
          "name": "B1",
          "ticks": 60720,
          "time": 228.270768,
          "velocity": 0.7874015748031497
        },
        {
          "duration": 0.16541359999999372,
          "durationTicks": 44,
          "midi": 35,
          "name": "B1",
          "ticks": 60780,
          "time": 228.496332,
          "velocity": 0.7874015748031497
        },
        {
          "duration": 0.16541360000002214,
          "durationTicks": 44,
          "midi": 35,
          "name": "B1",
          "ticks": 60840,
          "time": 228.721896,
          "velocity": 0.7874015748031497
        },
        {
          "duration": 0.16541359999999372,
          "durationTicks": 44,
          "midi": 35,
          "name": "B1",
          "ticks": 60900,
          "time": 228.94746,
          "velocity": 0.7874015748031497
        },
        {
          "duration": 0.16541359999999372,
          "durationTicks": 44,
          "midi": 35,
          "name": "B1",
          "ticks": 60960,
          "time": 229.173024,
          "velocity": 0.7874015748031497
        },
        {
          "duration": 0.16541360000002214,
          "durationTicks": 44,
          "midi": 35,
          "name": "B1",
          "ticks": 61020,
          "time": 229.398588,
          "velocity": 0.7874015748031497
        },
        {
          "duration": 0.16541359999999372,
          "durationTicks": 44,
          "midi": 35,
          "name": "B1",
          "ticks": 61080,
          "time": 229.624152,
          "velocity": 0.7874015748031497
        },
        {
          "duration": 0.16541359999999372,
          "durationTicks": 44,
          "midi": 35,
          "name": "B1",
          "ticks": 61140,
          "time": 229.849716,
          "velocity": 0.7874015748031497
        },
        {
          "duration": 0.16541359999999372,
          "durationTicks": 44,
          "midi": 35,
          "name": "B1",
          "ticks": 61200,
          "time": 230.07528,
          "velocity": 0.7874015748031497
        },
        {
          "duration": 0.16541359999999372,
          "durationTicks": 44,
          "midi": 35,
          "name": "B1",
          "ticks": 61260,
          "time": 230.300844,
          "velocity": 0.7874015748031497
        },
        {
          "duration": 0.16541359999999372,
          "durationTicks": 44,
          "midi": 35,
          "name": "B1",
          "ticks": 61320,
          "time": 230.526408,
          "velocity": 0.7874015748031497
        },
        {
          "duration": 0.16541359999999372,
          "durationTicks": 44,
          "midi": 35,
          "name": "B1",
          "ticks": 61380,
          "time": 230.751972,
          "velocity": 0.7874015748031497
        },
        {
          "duration": 0.16541360000002214,
          "durationTicks": 44,
          "midi": 35,
          "name": "B1",
          "ticks": 61440,
          "time": 230.977536,
          "velocity": 0.7874015748031497
        },
        {
          "duration": 0.16541359999999372,
          "durationTicks": 44,
          "midi": 35,
          "name": "B1",
          "ticks": 61500,
          "time": 231.2031,
          "velocity": 0.7874015748031497
        },
        {
          "duration": 0.16541359999999372,
          "durationTicks": 44,
          "midi": 35,
          "name": "B1",
          "ticks": 61560,
          "time": 231.428664,
          "velocity": 0.7874015748031497
        },
        {
          "duration": 0.16541360000002214,
          "durationTicks": 44,
          "midi": 35,
          "name": "B1",
          "ticks": 61620,
          "time": 231.654228,
          "velocity": 0.7874015748031497
        },
        {
          "duration": 0.16541359999999372,
          "durationTicks": 44,
          "midi": 35,
          "name": "B1",
          "ticks": 61680,
          "time": 231.879792,
          "velocity": 0.7874015748031497
        },
        {
          "duration": 0.16541359999999372,
          "durationTicks": 44,
          "midi": 35,
          "name": "B1",
          "ticks": 61740,
          "time": 232.105356,
          "velocity": 0.7874015748031497
        },
        {
          "duration": 0.16541360000002214,
          "durationTicks": 44,
          "midi": 35,
          "name": "B1",
          "ticks": 61800,
          "time": 232.33092,
          "velocity": 0.7874015748031497
        },
        {
          "duration": 0.16541359999999372,
          "durationTicks": 44,
          "midi": 35,
          "name": "B1",
          "ticks": 61860,
          "time": 232.556484,
          "velocity": 0.7874015748031497
        },
        {
          "duration": 0.22180459999998448,
          "durationTicks": 59,
          "midi": 35,
          "name": "B1",
          "ticks": 61920,
          "time": 232.782048,
          "velocity": 0.7874015748031497
        },
        {
          "duration": 0.2218046000000129,
          "durationTicks": 59,
          "midi": 35,
          "name": "B1",
          "ticks": 61980,
          "time": 233.007612,
          "velocity": 0.7874015748031497
        },
        {
          "duration": 0.2218046000000129,
          "durationTicks": 59,
          "midi": 35,
          "name": "B1",
          "ticks": 62040,
          "time": 233.233176,
          "velocity": 0.7874015748031497
        },
        {
          "duration": 0.6729325999999958,
          "durationTicks": 179,
          "midi": 33,
          "name": "A1",
          "ticks": 62100,
          "time": 233.45874,
          "velocity": 0.7874015748031497
        },
        {
          "duration": 0.22180459999998448,
          "durationTicks": 59,
          "midi": 38,
          "name": "D2",
          "ticks": 62280,
          "time": 234.135432,
          "velocity": 0.7874015748031497
        },
        {
          "duration": 0.22180459999998448,
          "durationTicks": 59,
          "midi": 32,
          "name": "G#1",
          "ticks": 62340,
          "time": 234.360996,
          "velocity": 0.7874015748031497
        },
        {
          "duration": 0.2218046000000129,
          "durationTicks": 59,
          "midi": 33,
          "name": "A1",
          "ticks": 62400,
          "time": 234.58656,
          "velocity": 0.7874015748031497
        },
        {
          "duration": 0.22180459999998448,
          "durationTicks": 59,
          "midi": 33,
          "name": "A1",
          "ticks": 62460,
          "time": 234.812124,
          "velocity": 0.7874015748031497
        },
        {
          "duration": 0.22180459999998448,
          "durationTicks": 59,
          "midi": 33,
          "name": "A1",
          "ticks": 62520,
          "time": 235.037688,
          "velocity": 0.7874015748031497
        },
        {
          "duration": 1.124060600000007,
          "durationTicks": 299,
          "midi": 28,
          "name": "E1",
          "ticks": 62580,
          "time": 235.263252,
          "velocity": 0.7874015748031497
        },
        {
          "duration": 0.22180459999998448,
          "durationTicks": 59,
          "midi": 35,
          "name": "B1",
          "ticks": 62880,
          "time": 236.391072,
          "velocity": 0.7874015748031497
        },
        {
          "duration": 0.2218046000000129,
          "durationTicks": 59,
          "midi": 35,
          "name": "B1",
          "ticks": 62940,
          "time": 236.616636,
          "velocity": 0.7874015748031497
        },
        {
          "duration": 0.2218046000000129,
          "durationTicks": 59,
          "midi": 35,
          "name": "B1",
          "ticks": 63000,
          "time": 236.8422,
          "velocity": 0.7874015748031497
        },
        {
          "duration": 0.6729325999999958,
          "durationTicks": 179,
          "midi": 33,
          "name": "A1",
          "ticks": 63060,
          "time": 237.067764,
          "velocity": 0.7874015748031497
        },
        {
          "duration": 0.22180459999998448,
          "durationTicks": 59,
          "midi": 38,
          "name": "D2",
          "ticks": 63240,
          "time": 237.744456,
          "velocity": 0.7874015748031497
        },
        {
          "duration": 0.22180459999998448,
          "durationTicks": 59,
          "midi": 32,
          "name": "G#1",
          "ticks": 63300,
          "time": 237.97002,
          "velocity": 0.7874015748031497
        },
        {
          "duration": 0.2218046000000129,
          "durationTicks": 59,
          "midi": 33,
          "name": "A1",
          "ticks": 63360,
          "time": 238.195584,
          "velocity": 0.7874015748031497
        },
        {
          "duration": 0.2218046000000129,
          "durationTicks": 59,
          "midi": 33,
          "name": "A1",
          "ticks": 63420,
          "time": 238.421148,
          "velocity": 0.7874015748031497
        },
        {
          "duration": 0.22180459999998448,
          "durationTicks": 59,
          "midi": 33,
          "name": "A1",
          "ticks": 63480,
          "time": 238.646712,
          "velocity": 0.7874015748031497
        },
        {
          "duration": 1.124060600000007,
          "durationTicks": 299,
          "midi": 28,
          "name": "E1",
          "ticks": 63540,
          "time": 238.872276,
          "velocity": 0.7874015748031497
        },
        {
          "duration": 0.2218046000000129,
          "durationTicks": 59,
          "midi": 35,
          "name": "B1",
          "ticks": 63840,
          "time": 240.00009599999998,
          "velocity": 0.7874015748031497
        },
        {
          "duration": 0.22180459999998448,
          "durationTicks": 59,
          "midi": 35,
          "name": "B1",
          "ticks": 63900,
          "time": 240.22566,
          "velocity": 0.7874015748031497
        },
        {
          "duration": 0.2218046000000129,
          "durationTicks": 59,
          "midi": 35,
          "name": "B1",
          "ticks": 63960,
          "time": 240.451224,
          "velocity": 0.7874015748031497
        },
        {
          "duration": 0.6729326000000242,
          "durationTicks": 179,
          "midi": 33,
          "name": "A1",
          "ticks": 64020,
          "time": 240.676788,
          "velocity": 0.7874015748031497
        },
        {
          "duration": 0.2218046000000129,
          "durationTicks": 59,
          "midi": 38,
          "name": "D2",
          "ticks": 64200,
          "time": 241.35348,
          "velocity": 0.7874015748031497
        },
        {
          "duration": 0.22180459999998448,
          "durationTicks": 59,
          "midi": 32,
          "name": "G#1",
          "ticks": 64260,
          "time": 241.579044,
          "velocity": 0.7874015748031497
        },
        {
          "duration": 0.22180459999998448,
          "durationTicks": 59,
          "midi": 33,
          "name": "A1",
          "ticks": 64320,
          "time": 241.804608,
          "velocity": 0.7874015748031497
        },
        {
          "duration": 0.2218046000000129,
          "durationTicks": 59,
          "midi": 33,
          "name": "A1",
          "ticks": 64380,
          "time": 242.030172,
          "velocity": 0.7874015748031497
        },
        {
          "duration": 0.22180459999998448,
          "durationTicks": 59,
          "midi": 33,
          "name": "A1",
          "ticks": 64440,
          "time": 242.255736,
          "velocity": 0.7874015748031497
        },
        {
          "duration": 1.1240605999999786,
          "durationTicks": 299,
          "midi": 28,
          "name": "E1",
          "ticks": 64500,
          "time": 242.4813,
          "velocity": 0.7874015748031497
        },
        {
          "duration": 0.2218046000000129,
          "durationTicks": 59,
          "midi": 35,
          "name": "B1",
          "ticks": 64800,
          "time": 243.60912,
          "velocity": 0.7874015748031497
        },
        {
          "duration": 0.22180459999998448,
          "durationTicks": 59,
          "midi": 35,
          "name": "B1",
          "ticks": 64860,
          "time": 243.834684,
          "velocity": 0.7874015748031497
        },
        {
          "duration": 0.22180459999998448,
          "durationTicks": 59,
          "midi": 35,
          "name": "B1",
          "ticks": 64920,
          "time": 244.060248,
          "velocity": 0.7874015748031497
        },
        {
          "duration": 0.6729325999999958,
          "durationTicks": 179,
          "midi": 33,
          "name": "A1",
          "ticks": 64980,
          "time": 244.285812,
          "velocity": 0.7874015748031497
        },
        {
          "duration": 0.2218046000000129,
          "durationTicks": 59,
          "midi": 38,
          "name": "D2",
          "ticks": 65160,
          "time": 244.962504,
          "velocity": 0.7874015748031497
        },
        {
          "duration": 0.2218046000000129,
          "durationTicks": 59,
          "midi": 32,
          "name": "G#1",
          "ticks": 65220,
          "time": 245.188068,
          "velocity": 0.7874015748031497
        },
        {
          "duration": 0.22180459999998448,
          "durationTicks": 59,
          "midi": 33,
          "name": "A1",
          "ticks": 65280,
          "time": 245.413632,
          "velocity": 0.7874015748031497
        },
        {
          "duration": 0.2218046000000129,
          "durationTicks": 59,
          "midi": 33,
          "name": "A1",
          "ticks": 65340,
          "time": 245.639196,
          "velocity": 0.7874015748031497
        },
        {
          "duration": 0.2218046000000129,
          "durationTicks": 59,
          "midi": 33,
          "name": "A1",
          "ticks": 65400,
          "time": 245.86476,
          "velocity": 0.7874015748031497
        },
        {
          "duration": 1.1240605999999786,
          "durationTicks": 299,
          "midi": 28,
          "name": "E1",
          "ticks": 65460,
          "time": 246.090324,
          "velocity": 0.7874015748031497
        },
        {
          "duration": 1.124060600000007,
          "durationTicks": 299,
          "midi": 35,
          "name": "B1",
          "ticks": 65760,
          "time": 247.218144,
          "velocity": 0.7874015748031497
        },
        {
          "duration": 0.22180459999998448,
          "durationTicks": 59,
          "midi": 32,
          "name": "G#1",
          "ticks": 66060,
          "time": 248.345964,
          "velocity": 0.7874015748031497
        },
        {
          "duration": 0.22180459999998448,
          "durationTicks": 59,
          "midi": 33,
          "name": "A1",
          "ticks": 66120,
          "time": 248.571528,
          "velocity": 0.7874015748031497
        },
        {
          "duration": 2.0263166000000012,
          "durationTicks": 539,
          "midi": 28,
          "name": "E1",
          "ticks": 66180,
          "time": 248.797092,
          "velocity": 0.7874015748031497
        },
        {
          "duration": 1.1240605999999786,
          "durationTicks": 299,
          "midi": 35,
          "name": "B1",
          "ticks": 66720,
          "time": 250.827168,
          "velocity": 0.7874015748031497
        },
        {
          "duration": 0.2218046000000129,
          "durationTicks": 59,
          "midi": 32,
          "name": "G#1",
          "ticks": 67020,
          "time": 251.954988,
          "velocity": 0.7874015748031497
        },
        {
          "duration": 0.22180459999998448,
          "durationTicks": 59,
          "midi": 33,
          "name": "A1",
          "ticks": 67080,
          "time": 252.180552,
          "velocity": 0.7874015748031497
        },
        {
          "duration": 2.0263166000000012,
          "durationTicks": 539,
          "midi": 28,
          "name": "E1",
          "ticks": 67140,
          "time": 252.406116,
          "velocity": 0.7874015748031497
        },
        {
          "duration": 1.1240605999999786,
          "durationTicks": 299,
          "midi": 35,
          "name": "B1",
          "ticks": 67680,
          "time": 254.436192,
          "velocity": 0.7874015748031497
        },
        {
          "duration": 0.2218046000000129,
          "durationTicks": 59,
          "midi": 32,
          "name": "G#1",
          "ticks": 67980,
          "time": 255.564012,
          "velocity": 0.7874015748031497
        },
        {
          "duration": 0.22180459999998448,
          "durationTicks": 59,
          "midi": 33,
          "name": "A1",
          "ticks": 68040,
          "time": 255.789576,
          "velocity": 0.7874015748031497
        },
        {
          "duration": 2.0263166000000297,
          "durationTicks": 539,
          "midi": 28,
          "name": "E1",
          "ticks": 68100,
          "time": 256.01514,
          "velocity": 0.7874015748031497
        },
        {
          "duration": 1.124060600000007,
          "durationTicks": 299,
          "midi": 35,
          "name": "B1",
          "ticks": 68640,
          "time": 258.045216,
          "velocity": 0.7874015748031497
        },
        {
          "duration": 0.22180459999998448,
          "durationTicks": 59,
          "midi": 32,
          "name": "G#1",
          "ticks": 68940,
          "time": 259.173036,
          "velocity": 0.7874015748031497
        },
        {
          "duration": 0.22180459999998448,
          "durationTicks": 59,
          "midi": 33,
          "name": "A1",
          "ticks": 69000,
          "time": 259.3986,
          "velocity": 0.7874015748031497
        },
        {
          "duration": 2.026316599999973,
          "durationTicks": 539,
          "midi": 28,
          "name": "E1",
          "ticks": 69060,
          "time": 259.624164,
          "velocity": 0.7874015748031497
        },
        {
          "duration": 0.22180459999998448,
          "durationTicks": 59,
          "midi": 35,
          "name": "B1",
          "ticks": 69600,
          "time": 261.65424,
          "velocity": 0.7874015748031497
        },
        {
          "duration": 0.22180459999998448,
          "durationTicks": 59,
          "midi": 35,
          "name": "B1",
          "ticks": 69660,
          "time": 261.879804,
          "velocity": 0.7874015748031497
        },
        {
          "duration": 0.22180459999998448,
          "durationTicks": 59,
          "midi": 35,
          "name": "B1",
          "ticks": 69720,
          "time": 262.105368,
          "velocity": 0.7874015748031497
        },
        {
          "duration": 0.6729325999999674,
          "durationTicks": 179,
          "midi": 33,
          "name": "A1",
          "ticks": 69780,
          "time": 262.330932,
          "velocity": 0.7874015748031497
        },
        {
          "duration": 0.22180459999998448,
          "durationTicks": 59,
          "midi": 38,
          "name": "D2",
          "ticks": 69960,
          "time": 263.007624,
          "velocity": 0.7874015748031497
        },
        {
          "duration": 0.22180459999998448,
          "durationTicks": 59,
          "midi": 32,
          "name": "G#1",
          "ticks": 70020,
          "time": 263.233188,
          "velocity": 0.7874015748031497
        },
        {
          "duration": 0.22180459999998448,
          "durationTicks": 59,
          "midi": 33,
          "name": "A1",
          "ticks": 70080,
          "time": 263.458752,
          "velocity": 0.7874015748031497
        },
        {
          "duration": 0.22180460000004132,
          "durationTicks": 59,
          "midi": 33,
          "name": "A1",
          "ticks": 70140,
          "time": 263.68431599999997,
          "velocity": 0.7874015748031497
        },
        {
          "duration": 0.22180459999998448,
          "durationTicks": 59,
          "midi": 33,
          "name": "A1",
          "ticks": 70200,
          "time": 263.90988,
          "velocity": 0.7874015748031497
        },
        {
          "duration": 1.124060600000007,
          "durationTicks": 299,
          "midi": 28,
          "name": "E1",
          "ticks": 70260,
          "time": 264.135444,
          "velocity": 0.7874015748031497
        },
        {
          "duration": 0.22180459999998448,
          "durationTicks": 59,
          "midi": 35,
          "name": "B1",
          "ticks": 70560,
          "time": 265.263264,
          "velocity": 0.7874015748031497
        },
        {
          "duration": 0.22180459999998448,
          "durationTicks": 59,
          "midi": 35,
          "name": "B1",
          "ticks": 70620,
          "time": 265.488828,
          "velocity": 0.7874015748031497
        },
        {
          "duration": 0.22180460000004132,
          "durationTicks": 59,
          "midi": 35,
          "name": "B1",
          "ticks": 70680,
          "time": 265.714392,
          "velocity": 0.7874015748031497
        },
        {
          "duration": 0.6729326000000242,
          "durationTicks": 179,
          "midi": 33,
          "name": "A1",
          "ticks": 70740,
          "time": 265.939956,
          "velocity": 0.7874015748031497
        },
        {
          "duration": 0.22180459999998448,
          "durationTicks": 59,
          "midi": 38,
          "name": "D2",
          "ticks": 70920,
          "time": 266.616648,
          "velocity": 0.7874015748031497
        },
        {
          "duration": 0.22180459999998448,
          "durationTicks": 59,
          "midi": 32,
          "name": "G#1",
          "ticks": 70980,
          "time": 266.842212,
          "velocity": 0.7874015748031497
        },
        {
          "duration": 0.22180460000004132,
          "durationTicks": 59,
          "midi": 33,
          "name": "A1",
          "ticks": 71040,
          "time": 267.067776,
          "velocity": 0.7874015748031497
        },
        {
          "duration": 0.22180459999998448,
          "durationTicks": 59,
          "midi": 33,
          "name": "A1",
          "ticks": 71100,
          "time": 267.29334,
          "velocity": 0.7874015748031497
        },
        {
          "duration": 0.22180459999998448,
          "durationTicks": 59,
          "midi": 33,
          "name": "A1",
          "ticks": 71160,
          "time": 267.518904,
          "velocity": 0.7874015748031497
        },
        {
          "duration": 1.124060600000007,
          "durationTicks": 299,
          "midi": 28,
          "name": "E1",
          "ticks": 71220,
          "time": 267.744468,
          "velocity": 0.7874015748031497
        },
        {
          "duration": 0.22180459999998448,
          "durationTicks": 59,
          "midi": 35,
          "name": "B1",
          "ticks": 71520,
          "time": 268.872288,
          "velocity": 0.7874015748031497
        },
        {
          "duration": 0.22180459999998448,
          "durationTicks": 59,
          "midi": 35,
          "name": "B1",
          "ticks": 71580,
          "time": 269.097852,
          "velocity": 0.7874015748031497
        },
        {
          "duration": 0.22180459999998448,
          "durationTicks": 59,
          "midi": 35,
          "name": "B1",
          "ticks": 71640,
          "time": 269.323416,
          "velocity": 0.7874015748031497
        },
        {
          "duration": 0.6729326000000242,
          "durationTicks": 179,
          "midi": 33,
          "name": "A1",
          "ticks": 71700,
          "time": 269.54898,
          "velocity": 0.7874015748031497
        },
        {
          "duration": 0.22180460000004132,
          "durationTicks": 59,
          "midi": 38,
          "name": "D2",
          "ticks": 71880,
          "time": 270.225672,
          "velocity": 0.7874015748031497
        },
        {
          "duration": 0.22180459999998448,
          "durationTicks": 59,
          "midi": 32,
          "name": "G#1",
          "ticks": 71940,
          "time": 270.451236,
          "velocity": 0.7874015748031497
        },
        {
          "duration": 0.22180459999998448,
          "durationTicks": 59,
          "midi": 33,
          "name": "A1",
          "ticks": 72000,
          "time": 270.6768,
          "velocity": 0.7874015748031497
        },
        {
          "duration": 0.22180459999998448,
          "durationTicks": 59,
          "midi": 33,
          "name": "A1",
          "ticks": 72060,
          "time": 270.902364,
          "velocity": 0.7874015748031497
        },
        {
          "duration": 0.22180459999998448,
          "durationTicks": 59,
          "midi": 33,
          "name": "A1",
          "ticks": 72120,
          "time": 271.127928,
          "velocity": 0.7874015748031497
        },
        {
          "duration": 1.1240605999999502,
          "durationTicks": 299,
          "midi": 28,
          "name": "E1",
          "ticks": 72180,
          "time": 271.353492,
          "velocity": 0.7874015748031497
        },
        {
          "duration": 0.22180459999998448,
          "durationTicks": 59,
          "midi": 35,
          "name": "B1",
          "ticks": 72480,
          "time": 272.481312,
          "velocity": 0.7874015748031497
        },
        {
          "duration": 0.22180460000004132,
          "durationTicks": 59,
          "midi": 35,
          "name": "B1",
          "ticks": 72540,
          "time": 272.70687599999997,
          "velocity": 0.7874015748031497
        },
        {
          "duration": 0.22180459999998448,
          "durationTicks": 59,
          "midi": 35,
          "name": "B1",
          "ticks": 72600,
          "time": 272.93244,
          "velocity": 0.7874015748031497
        },
        {
          "duration": 0.6729325999999674,
          "durationTicks": 179,
          "midi": 33,
          "name": "A1",
          "ticks": 72660,
          "time": 273.158004,
          "velocity": 0.7874015748031497
        },
        {
          "duration": 0.22180459999998448,
          "durationTicks": 59,
          "midi": 38,
          "name": "D2",
          "ticks": 72840,
          "time": 273.834696,
          "velocity": 0.7874015748031497
        },
        {
          "duration": 0.22180460000004132,
          "durationTicks": 59,
          "midi": 32,
          "name": "G#1",
          "ticks": 72900,
          "time": 274.06025999999997,
          "velocity": 0.7874015748031497
        },
        {
          "duration": 0.22180459999998448,
          "durationTicks": 59,
          "midi": 33,
          "name": "A1",
          "ticks": 72960,
          "time": 274.285824,
          "velocity": 0.7874015748031497
        },
        {
          "duration": 0.22180459999998448,
          "durationTicks": 59,
          "midi": 33,
          "name": "A1",
          "ticks": 73020,
          "time": 274.511388,
          "velocity": 0.7874015748031497
        },
        {
          "duration": 0.22180460000004132,
          "durationTicks": 59,
          "midi": 33,
          "name": "A1",
          "ticks": 73080,
          "time": 274.736952,
          "velocity": 0.7874015748031497
        },
        {
          "duration": 1.124060600000007,
          "durationTicks": 299,
          "midi": 28,
          "name": "E1",
          "ticks": 73140,
          "time": 274.962516,
          "velocity": 0.7874015748031497
        },
        {
          "duration": 0.22180460000004132,
          "durationTicks": 59,
          "midi": 35,
          "name": "B1",
          "ticks": 73440,
          "time": 276.090336,
          "velocity": 0.7874015748031497
        },
        {
          "duration": 0.22180459999998448,
          "durationTicks": 59,
          "midi": 35,
          "name": "B1",
          "ticks": 73500,
          "time": 276.3159,
          "velocity": 0.7874015748031497
        },
        {
          "duration": 0.22180459999998448,
          "durationTicks": 59,
          "midi": 35,
          "name": "B1",
          "ticks": 73560,
          "time": 276.541464,
          "velocity": 0.7874015748031497
        },
        {
          "duration": 0.6729326000000242,
          "durationTicks": 179,
          "midi": 33,
          "name": "A1",
          "ticks": 73620,
          "time": 276.767028,
          "velocity": 0.7874015748031497
        },
        {
          "duration": 0.22180459999998448,
          "durationTicks": 59,
          "midi": 38,
          "name": "D2",
          "ticks": 73800,
          "time": 277.44372,
          "velocity": 0.7874015748031497
        },
        {
          "duration": 0.22180459999998448,
          "durationTicks": 59,
          "midi": 32,
          "name": "G#1",
          "ticks": 73860,
          "time": 277.669284,
          "velocity": 0.7874015748031497
        },
        {
          "duration": 0.22180459999998448,
          "durationTicks": 59,
          "midi": 33,
          "name": "A1",
          "ticks": 73920,
          "time": 277.894848,
          "velocity": 0.7874015748031497
        },
        {
          "duration": 0.22180460000004132,
          "durationTicks": 59,
          "midi": 33,
          "name": "A1",
          "ticks": 73980,
          "time": 278.120412,
          "velocity": 0.7874015748031497
        },
        {
          "duration": 0.22180459999998448,
          "durationTicks": 59,
          "midi": 33,
          "name": "A1",
          "ticks": 74040,
          "time": 278.345976,
          "velocity": 0.7874015748031497
        },
        {
          "duration": 1.1240605999999502,
          "durationTicks": 299,
          "midi": 28,
          "name": "E1",
          "ticks": 74100,
          "time": 278.57154,
          "velocity": 0.7874015748031497
        },
        {
          "duration": 0.22180459999998448,
          "durationTicks": 59,
          "midi": 35,
          "name": "B1",
          "ticks": 74400,
          "time": 279.69936,
          "velocity": 0.7874015748031497
        },
        {
          "duration": 0.22180460000004132,
          "durationTicks": 59,
          "midi": 35,
          "name": "B1",
          "ticks": 74460,
          "time": 279.924924,
          "velocity": 0.7874015748031497
        },
        {
          "duration": 0.22180459999998448,
          "durationTicks": 59,
          "midi": 35,
          "name": "B1",
          "ticks": 74520,
          "time": 280.150488,
          "velocity": 0.7874015748031497
        },
        {
          "duration": 0.6729325999999674,
          "durationTicks": 179,
          "midi": 33,
          "name": "A1",
          "ticks": 74580,
          "time": 280.376052,
          "velocity": 0.7874015748031497
        },
        {
          "duration": 0.22180459999998448,
          "durationTicks": 59,
          "midi": 38,
          "name": "D2",
          "ticks": 74760,
          "time": 281.052744,
          "velocity": 0.7874015748031497
        },
        {
          "duration": 0.22180460000004132,
          "durationTicks": 59,
          "midi": 32,
          "name": "G#1",
          "ticks": 74820,
          "time": 281.278308,
          "velocity": 0.7874015748031497
        },
        {
          "duration": 0.22180459999998448,
          "durationTicks": 59,
          "midi": 33,
          "name": "A1",
          "ticks": 74880,
          "time": 281.503872,
          "velocity": 0.7874015748031497
        },
        {
          "duration": 0.22180460000004132,
          "durationTicks": 59,
          "midi": 33,
          "name": "A1",
          "ticks": 74940,
          "time": 281.72943599999996,
          "velocity": 0.7874015748031497
        },
        {
          "duration": 0.22180459999998448,
          "durationTicks": 59,
          "midi": 33,
          "name": "A1",
          "ticks": 75000,
          "time": 281.955,
          "velocity": 0.7874015748031497
        },
        {
          "duration": 1.124060600000007,
          "durationTicks": 299,
          "midi": 28,
          "name": "E1",
          "ticks": 75060,
          "time": 282.180564,
          "velocity": 0.7874015748031497
        },
        {
          "duration": 0.22180460000004132,
          "durationTicks": 59,
          "midi": 35,
          "name": "B1",
          "ticks": 75360,
          "time": 283.308384,
          "velocity": 0.7874015748031497
        },
        {
          "duration": 0.22180459999998448,
          "durationTicks": 59,
          "midi": 35,
          "name": "B1",
          "ticks": 75420,
          "time": 283.533948,
          "velocity": 0.7874015748031497
        },
        {
          "duration": 0.22180459999998448,
          "durationTicks": 59,
          "midi": 35,
          "name": "B1",
          "ticks": 75480,
          "time": 283.75951200000003,
          "velocity": 0.7874015748031497
        },
        {
          "duration": 0.6729326000000242,
          "durationTicks": 179,
          "midi": 33,
          "name": "A1",
          "ticks": 75540,
          "time": 283.985076,
          "velocity": 0.7874015748031497
        },
        {
          "duration": 0.22180459999998448,
          "durationTicks": 59,
          "midi": 38,
          "name": "D2",
          "ticks": 75720,
          "time": 284.661768,
          "velocity": 0.7874015748031497
        },
        {
          "duration": 0.22180459999998448,
          "durationTicks": 59,
          "midi": 32,
          "name": "G#1",
          "ticks": 75780,
          "time": 284.887332,
          "velocity": 0.7874015748031497
        },
        {
          "duration": 0.22180459999998448,
          "durationTicks": 59,
          "midi": 33,
          "name": "A1",
          "ticks": 75840,
          "time": 285.11289600000003,
          "velocity": 0.7874015748031497
        },
        {
          "duration": 0.22180459999998448,
          "durationTicks": 59,
          "midi": 33,
          "name": "A1",
          "ticks": 75900,
          "time": 285.33846,
          "velocity": 0.7874015748031497
        },
        {
          "duration": 0.22180459999998448,
          "durationTicks": 59,
          "midi": 33,
          "name": "A1",
          "ticks": 75960,
          "time": 285.564024,
          "velocity": 0.7874015748031497
        },
        {
          "duration": 1.124060600000007,
          "durationTicks": 299,
          "midi": 28,
          "name": "E1",
          "ticks": 76020,
          "time": 285.789588,
          "velocity": 0.7874015748031497
        },
        {
          "duration": 0.22180459999998448,
          "durationTicks": 59,
          "midi": 35,
          "name": "B1",
          "ticks": 76320,
          "time": 286.917408,
          "velocity": 0.7874015748031497
        },
        {
          "duration": 0.22180460000004132,
          "durationTicks": 59,
          "midi": 35,
          "name": "B1",
          "ticks": 76380,
          "time": 287.142972,
          "velocity": 0.7874015748031497
        },
        {
          "duration": 0.22180459999998448,
          "durationTicks": 59,
          "midi": 35,
          "name": "B1",
          "ticks": 76440,
          "time": 287.368536,
          "velocity": 0.7874015748031497
        },
        {
          "duration": 0.6729325999999674,
          "durationTicks": 179,
          "midi": 33,
          "name": "A1",
          "ticks": 76500,
          "time": 287.5941,
          "velocity": 0.7874015748031497
        },
        {
          "duration": 0.22180459999998448,
          "durationTicks": 59,
          "midi": 38,
          "name": "D2",
          "ticks": 76680,
          "time": 288.27079200000003,
          "velocity": 0.7874015748031497
        },
        {
          "duration": 0.22180460000004132,
          "durationTicks": 59,
          "midi": 32,
          "name": "G#1",
          "ticks": 76740,
          "time": 288.496356,
          "velocity": 0.7874015748031497
        },
        {
          "duration": 0.22180459999998448,
          "durationTicks": 59,
          "midi": 33,
          "name": "A1",
          "ticks": 76800,
          "time": 288.72192,
          "velocity": 0.7874015748031497
        },
        {
          "duration": 0.22180459999998448,
          "durationTicks": 59,
          "midi": 33,
          "name": "A1",
          "ticks": 76860,
          "time": 288.94748400000003,
          "velocity": 0.7874015748031497
        },
        {
          "duration": 0.22180460000004132,
          "durationTicks": 59,
          "midi": 33,
          "name": "A1",
          "ticks": 76920,
          "time": 289.173048,
          "velocity": 0.7874015748031497
        },
        {
          "duration": 1.124060600000007,
          "durationTicks": 299,
          "midi": 28,
          "name": "E1",
          "ticks": 76980,
          "time": 289.398612,
          "velocity": 0.7874015748031497
        },
        {
          "duration": 3.8983749583333065,
          "durationTicks": 959,
          "midi": 35,
          "name": "B1",
          "ticks": 77280,
          "time": 290.526432,
          "velocity": 0.7874015748031497
        },
        {
          "duration": 4.903401666666753,
          "durationTicks": 959,
          "midi": 35,
          "name": "B1",
          "ticks": 78240,
          "time": 294.428872,
          "velocity": 0.7874015748031497
        },
        {
          "duration": 0.5454622500000141,
          "durationTicks": 119,
          "midi": 35,
          "name": "B1",
          "ticks": 79200,
          "time": 299.3422736666668,
          "velocity": 0.7874015748031497
        }
      ],
      "endOfTrackTicks": 79319
    },
    {
      "channel": 9,
      "controlChanges": {
        "0": [
          {
            "number": 0,
            "ticks": 1921,
            "time": 7.221807399999999,
            "value": 0.015748031496062992
          },
          {
            "number": 0,
            "ticks": 1923,
            "time": 7.229326199999999,
            "value": 0
          },
          {
            "number": 0,
            "ticks": 1923,
            "time": 7.229326199999999,
            "value": 0
          },
          {
            "number": 0,
            "ticks": 1923,
            "time": 7.229326199999999,
            "value": 0
          },
          {
            "number": 0,
            "ticks": 1923,
            "time": 7.229326199999999,
            "value": 0
          }
        ],
        "7": [
          {
            "number": 7,
            "ticks": 0,
            "time": 0,
            "value": 0.7874015748031497
          }
        ],
        "32": [
          {
            "number": 32,
            "ticks": 1922,
            "time": 7.225566799999999,
            "value": 0
          },
          {
            "number": 32,
            "ticks": 1923,
            "time": 7.229326199999999,
            "value": 0
          },
          {
            "number": 32,
            "ticks": 1923,
            "time": 7.229326199999999,
            "value": 0
          },
          {
            "number": 32,
            "ticks": 1923,
            "time": 7.229326199999999,
            "value": 0
          },
          {
            "number": 32,
            "ticks": 1923,
            "time": 7.229326199999999,
            "value": 0
          }
        ]
      },
      "pitchBends": [],
      "instrument": {
        "family": "drums",
        "number": 1
      },
      "name": "Drums",
      "notes": [
        {
          "duration": 0.0112782,
          "durationTicks": 3,
          "midi": 31,
          "name": "G1",
          "ticks": 0,
          "time": 0,
          "velocity": 0.7874015748031497
        },
        {
          "duration": 0.01127819999999996,
          "durationTicks": 3,
          "midi": 31,
          "name": "G1",
          "ticks": 120,
          "time": 0.451128,
          "velocity": 0.7874015748031497
        },
        {
          "duration": 0.011278199999999905,
          "durationTicks": 3,
          "midi": 31,
          "name": "G1",
          "ticks": 240,
          "time": 0.902256,
          "velocity": 0.7874015748031497
        },
        {
          "duration": 0.011278200000000016,
          "durationTicks": 3,
          "midi": 31,
          "name": "G1",
          "ticks": 360,
          "time": 1.353384,
          "velocity": 0.7874015748031497
        },
        {
          "duration": 0.011278200000000238,
          "durationTicks": 3,
          "midi": 46,
          "name": "A#2",
          "ticks": 482,
          "time": 1.8120307999999998,
          "velocity": 0.7874015748031497
        },
        {
          "duration": 0.05263159999999978,
          "durationTicks": 14,
          "midi": 46,
          "name": "A#2",
          "ticks": 540,
          "time": 2.0300759999999998,
          "velocity": 0.31496062992125984
        },
        {
          "duration": 0.06015040000000038,
          "durationTicks": 16,
          "midi": 46,
          "name": "A#2",
          "ticks": 600,
          "time": 2.2556399999999996,
          "velocity": 0.7874015748031497
        },
        {
          "duration": 0.05263159999999978,
          "durationTicks": 14,
          "midi": 46,
          "name": "A#2",
          "ticks": 660,
          "time": 2.481204,
          "velocity": 0.31496062992125984
        },
        {
          "duration": 0.018797000000000175,
          "durationTicks": 5,
          "midi": 46,
          "name": "A#2",
          "ticks": 718,
          "time": 2.6992491999999997,
          "velocity": 0.7874015748031497
        },
        {
          "duration": 0.05263159999999978,
          "durationTicks": 14,
          "midi": 46,
          "name": "A#2",
          "ticks": 780,
          "time": 2.9323319999999997,
          "velocity": 0.31496062992125984
        },
        {
          "duration": 0.007518800000000159,
          "durationTicks": 2,
          "midi": 46,
          "name": "A#2",
          "ticks": 841,
          "time": 3.1616554,
          "velocity": 0.7874015748031497
        },
        {
          "duration": 0.05263159999999978,
          "durationTicks": 14,
          "midi": 46,
          "name": "A#2",
          "ticks": 900,
          "time": 3.38346,
          "velocity": 0.31496062992125984
        },
        {
          "duration": 0.011278200000000016,
          "durationTicks": 3,
          "midi": 46,
          "name": "A#2",
          "ticks": 960,
          "time": 3.609024,
          "velocity": 0.7874015748031497
        },
        {
          "duration": 0.05263160000000022,
          "durationTicks": 14,
          "midi": 46,
          "name": "A#2",
          "ticks": 1020,
          "time": 3.8345879999999997,
          "velocity": 0.31496062992125984
        },
        {
          "duration": 0.01127820000000046,
          "durationTicks": 3,
          "midi": 46,
          "name": "A#2",
          "ticks": 1080,
          "time": 4.0601519999999995,
          "velocity": 0.7874015748031497
        },
        {
          "duration": 0.05263159999999978,
          "durationTicks": 14,
          "midi": 46,
          "name": "A#2",
          "ticks": 1140,
          "time": 4.285716,
          "velocity": 0.31496062992125984
        },
        {
          "duration": 0.01127820000000046,
          "durationTicks": 3,
          "midi": 46,
          "name": "A#2",
          "ticks": 1200,
          "time": 4.511279999999999,
          "velocity": 0.7874015748031497
        },
        {
          "duration": 0.05263160000000067,
          "durationTicks": 14,
          "midi": 46,
          "name": "A#2",
          "ticks": 1260,
          "time": 4.736844,
          "velocity": 0.31496062992125984
        },
        {
          "duration": 0.011278199999999572,
          "durationTicks": 3,
          "midi": 46,
          "name": "A#2",
          "ticks": 1321,
          "time": 4.9661674,
          "velocity": 0.7874015748031497
        },
        {
          "duration": 0.05263160000000067,
          "durationTicks": 14,
          "midi": 46,
          "name": "A#2",
          "ticks": 1380,
          "time": 5.187971999999999,
          "velocity": 0.31496062992125984
        },
        {
          "duration": 0.01127820000000046,
          "durationTicks": 3,
          "midi": 46,
          "name": "A#2",
          "ticks": 1441,
          "time": 5.4172953999999995,
          "velocity": 0.7874015748031497
        },
        {
          "duration": 0.05263159999999978,
          "durationTicks": 14,
          "midi": 46,
          "name": "A#2",
          "ticks": 1500,
          "time": 5.6391,
          "velocity": 0.31496062992125984
        },
        {
          "duration": 0.01127820000000046,
          "durationTicks": 3,
          "midi": 46,
          "name": "A#2",
          "ticks": 1560,
          "time": 5.864663999999999,
          "velocity": 0.7874015748031497
        },
        {
          "duration": 0.05263159999999978,
          "durationTicks": 14,
          "midi": 46,
          "name": "A#2",
          "ticks": 1620,
          "time": 6.090228,
          "velocity": 0.31496062992125984
        },
        {
          "duration": 0.011278199999999572,
          "durationTicks": 3,
          "midi": 46,
          "name": "A#2",
          "ticks": 1680,
          "time": 6.315792,
          "velocity": 0.7874015748031497
        },
        {
          "duration": 0.05263160000000067,
          "durationTicks": 14,
          "midi": 46,
          "name": "A#2",
          "ticks": 1740,
          "time": 6.5413559999999995,
          "velocity": 0.31496062992125984
        },
        {
          "duration": 0.007518799999999715,
          "durationTicks": 2,
          "midi": 46,
          "name": "A#2",
          "ticks": 1801,
          "time": 6.7706794,
          "velocity": 0.7874015748031497
        },
        {
          "duration": 0.05263160000000067,
          "durationTicks": 14,
          "midi": 46,
          "name": "A#2",
          "ticks": 1860,
          "time": 6.992483999999999,
          "velocity": 0.7874015748031497
        },
        {
          "duration": 0.05263159999999978,
          "durationTicks": 14,
          "midi": 46,
          "name": "A#2",
          "ticks": 1980,
          "time": 7.443612,
          "velocity": 0.31496062992125984
        },
        {
          "duration": 0.05263160000000067,
          "durationTicks": 14,
          "midi": 46,
          "name": "A#2",
          "ticks": 2040,
          "time": 7.669175999999999,
          "velocity": 0.7874015748031497
        },
        {
          "duration": 0.05263159999999978,
          "durationTicks": 14,
          "midi": 46,
          "name": "A#2",
          "ticks": 2100,
          "time": 7.89474,
          "velocity": 0.31496062992125984
        },
        {
          "duration": 0.05263159999999978,
          "durationTicks": 14,
          "midi": 46,
          "name": "A#2",
          "ticks": 2160,
          "time": 8.120303999999999,
          "velocity": 0.7874015748031497
        },
        {
          "duration": 0.05263159999999978,
          "durationTicks": 14,
          "midi": 46,
          "name": "A#2",
          "ticks": 2220,
          "time": 8.345868,
          "velocity": 0.31496062992125984
        },
        {
          "duration": 0.05263159999999978,
          "durationTicks": 14,
          "midi": 46,
          "name": "A#2",
          "ticks": 2280,
          "time": 8.571432,
          "velocity": 0.7874015748031497
        },
        {
          "duration": 0.05263159999999978,
          "durationTicks": 14,
          "midi": 46,
          "name": "A#2",
          "ticks": 2340,
          "time": 8.796996,
          "velocity": 0.31496062992125984
        },
        {
          "duration": 0.052631600000001555,
          "durationTicks": 14,
          "midi": 46,
          "name": "A#2",
          "ticks": 2400,
          "time": 9.022559999999999,
          "velocity": 0.7874015748031497
        },
        {
          "duration": 0.052631600000001555,
          "durationTicks": 14,
          "midi": 46,
          "name": "A#2",
          "ticks": 2460,
          "time": 9.248123999999999,
          "velocity": 0.31496062992125984
        },
        {
          "duration": 0.05263159999999978,
          "durationTicks": 14,
          "midi": 46,
          "name": "A#2",
          "ticks": 2520,
          "time": 9.473688,
          "velocity": 0.7874015748031497
        },
        {
          "duration": 0.05263159999999978,
          "durationTicks": 14,
          "midi": 46,
          "name": "A#2",
          "ticks": 2580,
          "time": 9.699252,
          "velocity": 0.31496062992125984
        },
        {
          "duration": 0.05263159999999978,
          "durationTicks": 14,
          "midi": 46,
          "name": "A#2",
          "ticks": 2640,
          "time": 9.924816,
          "velocity": 0.7874015748031497
        },
        {
          "duration": 0.05263159999999978,
          "durationTicks": 14,
          "midi": 46,
          "name": "A#2",
          "ticks": 2700,
          "time": 10.15038,
          "velocity": 0.31496062992125984
        },
        {
          "duration": 0.052631600000001555,
          "durationTicks": 14,
          "midi": 46,
          "name": "A#2",
          "ticks": 2760,
          "time": 10.375943999999999,
          "velocity": 0.7874015748031497
        },
        {
          "duration": 0.05263159999999978,
          "durationTicks": 14,
          "midi": 46,
          "name": "A#2",
          "ticks": 2820,
          "time": 10.601507999999999,
          "velocity": 0.31496062992125984
        },
        {
          "duration": 0.05263159999999978,
          "durationTicks": 14,
          "midi": 46,
          "name": "A#2",
          "ticks": 2880,
          "time": 10.827072,
          "velocity": 0.7874015748031497
        },
        {
          "duration": 0.05263159999999978,
          "durationTicks": 14,
          "midi": 46,
          "name": "A#2",
          "ticks": 2940,
          "time": 11.052636,
          "velocity": 0.31496062992125984
        },
        {
          "duration": 0.05263159999999978,
          "durationTicks": 14,
          "midi": 46,
          "name": "A#2",
          "ticks": 3000,
          "time": 11.2782,
          "velocity": 0.7874015748031497
        },
        {
          "duration": 0.052631600000001555,
          "durationTicks": 14,
          "midi": 46,
          "name": "A#2",
          "ticks": 3060,
          "time": 11.503763999999999,
          "velocity": 0.31496062992125984
        },
        {
          "duration": 0.05263159999999978,
          "durationTicks": 14,
          "midi": 46,
          "name": "A#2",
          "ticks": 3120,
          "time": 11.729327999999999,
          "velocity": 0.7874015748031497
        },
        {
          "duration": 0.05263159999999978,
          "durationTicks": 14,
          "midi": 46,
          "name": "A#2",
          "ticks": 3180,
          "time": 11.954892,
          "velocity": 0.31496062992125984
        },
        {
          "duration": 0.05263159999999978,
          "durationTicks": 14,
          "midi": 46,
          "name": "A#2",
          "ticks": 3240,
          "time": 12.180456,
          "velocity": 0.7874015748031497
        },
        {
          "duration": 0.05263159999999978,
          "durationTicks": 14,
          "midi": 46,
          "name": "A#2",
          "ticks": 3300,
          "time": 12.40602,
          "velocity": 0.31496062992125984
        },
        {
          "duration": 0.05263159999999978,
          "durationTicks": 14,
          "midi": 46,
          "name": "A#2",
          "ticks": 3360,
          "time": 12.631584,
          "velocity": 0.7874015748031497
        },
        {
          "duration": 0.052631600000001555,
          "durationTicks": 14,
          "midi": 46,
          "name": "A#2",
          "ticks": 3420,
          "time": 12.857147999999999,
          "velocity": 0.31496062992125984
        },
        {
          "duration": 0.05263159999999978,
          "durationTicks": 14,
          "midi": 46,
          "name": "A#2",
          "ticks": 3480,
          "time": 13.082711999999999,
          "velocity": 0.7874015748031497
        },
        {
          "duration": 0.05263159999999978,
          "durationTicks": 14,
          "midi": 46,
          "name": "A#2",
          "ticks": 3540,
          "time": 13.308276,
          "velocity": 0.31496062992125984
        },
        {
          "duration": 0.05263159999999978,
          "durationTicks": 14,
          "midi": 46,
          "name": "A#2",
          "ticks": 3600,
          "time": 13.53384,
          "velocity": 0.7874015748031497
        },
        {
          "duration": 0.05263159999999978,
          "durationTicks": 14,
          "midi": 46,
          "name": "A#2",
          "ticks": 3660,
          "time": 13.759404,
          "velocity": 0.31496062992125984
        },
        {
          "duration": 0.052631600000001555,
          "durationTicks": 14,
          "midi": 46,
          "name": "A#2",
          "ticks": 3720,
          "time": 13.984967999999999,
          "velocity": 0.7874015748031497
        },
        {
          "duration": 0.05263159999999978,
          "durationTicks": 14,
          "midi": 46,
          "name": "A#2",
          "ticks": 3780,
          "time": 14.210531999999999,
          "velocity": 0.31496062992125984
        },
        {
          "duration": 0.05263159999999978,
          "durationTicks": 14,
          "midi": 46,
          "name": "A#2",
          "ticks": 3840,
          "time": 14.436096,
          "velocity": 0.7874015748031497
        },
        {
          "duration": 0.05263159999999978,
          "durationTicks": 14,
          "midi": 46,
          "name": "A#2",
          "ticks": 3900,
          "time": 14.66166,
          "velocity": 0.31496062992125984
        },
        {
          "duration": 0.05263159999999978,
          "durationTicks": 14,
          "midi": 46,
          "name": "A#2",
          "ticks": 3960,
          "time": 14.887224,
          "velocity": 0.7874015748031497
        },
        {
          "duration": 0.052631600000001555,
          "durationTicks": 14,
          "midi": 46,
          "name": "A#2",
          "ticks": 4020,
          "time": 15.112787999999998,
          "velocity": 0.31496062992125984
        },
        {
          "duration": 0.05263159999999978,
          "durationTicks": 14,
          "midi": 46,
          "name": "A#2",
          "ticks": 4080,
          "time": 15.338351999999999,
          "velocity": 0.7874015748031497
        },
        {
          "duration": 0.05263159999999978,
          "durationTicks": 14,
          "midi": 46,
          "name": "A#2",
          "ticks": 4140,
          "time": 15.563915999999999,
          "velocity": 0.31496062992125984
        },
        {
          "duration": 0.05263159999999978,
          "durationTicks": 14,
          "midi": 46,
          "name": "A#2",
          "ticks": 4200,
          "time": 15.78948,
          "velocity": 0.7874015748031497
        },
        {
          "duration": 0.052631599999998,
          "durationTicks": 14,
          "midi": 46,
          "name": "A#2",
          "ticks": 4260,
          "time": 16.015044,
          "velocity": 0.31496062992125984
        },
        {
          "duration": 0.052631600000001555,
          "durationTicks": 14,
          "midi": 46,
          "name": "A#2",
          "ticks": 4320,
          "time": 16.240607999999998,
          "velocity": 0.7874015748031497
        },
        {
          "duration": 0.052631599999998,
          "durationTicks": 14,
          "midi": 46,
          "name": "A#2",
          "ticks": 4380,
          "time": 16.466172,
          "velocity": 0.31496062992125984
        },
        {
          "duration": 0.052631600000001555,
          "durationTicks": 14,
          "midi": 46,
          "name": "A#2",
          "ticks": 4440,
          "time": 16.691736,
          "velocity": 0.7874015748031497
        },
        {
          "duration": 0.052631600000001555,
          "durationTicks": 14,
          "midi": 46,
          "name": "A#2",
          "ticks": 4500,
          "time": 16.917299999999997,
          "velocity": 0.31496062992125984
        },
        {
          "duration": 0.052631599999998,
          "durationTicks": 14,
          "midi": 46,
          "name": "A#2",
          "ticks": 4560,
          "time": 17.142864,
          "velocity": 0.7874015748031497
        },
        {
          "duration": 0.052631600000001555,
          "durationTicks": 14,
          "midi": 46,
          "name": "A#2",
          "ticks": 4620,
          "time": 17.368427999999998,
          "velocity": 0.31496062992125984
        },
        {
          "duration": 0.052631599999998,
          "durationTicks": 14,
          "midi": 46,
          "name": "A#2",
          "ticks": 4680,
          "time": 17.593992,
          "velocity": 0.7874015748031497
        },
        {
          "duration": 0.052631600000001555,
          "durationTicks": 14,
          "midi": 46,
          "name": "A#2",
          "ticks": 4740,
          "time": 17.819556,
          "velocity": 0.31496062992125984
        },
        {
          "duration": 0.052631600000001555,
          "durationTicks": 14,
          "midi": 46,
          "name": "A#2",
          "ticks": 4800,
          "time": 18.045119999999997,
          "velocity": 0.7874015748031497
        },
        {
          "duration": 0.052631600000001555,
          "durationTicks": 14,
          "midi": 46,
          "name": "A#2",
          "ticks": 4860,
          "time": 18.270684,
          "velocity": 0.31496062992125984
        },
        {
          "duration": 0.052631600000001555,
          "durationTicks": 14,
          "midi": 46,
          "name": "A#2",
          "ticks": 4920,
          "time": 18.496247999999998,
          "velocity": 0.7874015748031497
        },
        {
          "duration": 0.052631599999998,
          "durationTicks": 14,
          "midi": 46,
          "name": "A#2",
          "ticks": 4980,
          "time": 18.721812,
          "velocity": 0.31496062992125984
        },
        {
          "duration": 0.052631600000001555,
          "durationTicks": 14,
          "midi": 46,
          "name": "A#2",
          "ticks": 5040,
          "time": 18.947376,
          "velocity": 0.7874015748031497
        },
        {
          "duration": 0.052631599999998,
          "durationTicks": 14,
          "midi": 46,
          "name": "A#2",
          "ticks": 5100,
          "time": 19.17294,
          "velocity": 0.31496062992125984
        },
        {
          "duration": 0.052631600000001555,
          "durationTicks": 14,
          "midi": 46,
          "name": "A#2",
          "ticks": 5160,
          "time": 19.398504,
          "velocity": 0.7874015748031497
        },
        {
          "duration": 0.052631600000001555,
          "durationTicks": 14,
          "midi": 46,
          "name": "A#2",
          "ticks": 5220,
          "time": 19.624067999999998,
          "velocity": 0.31496062992125984
        },
        {
          "duration": 0.052631599999998,
          "durationTicks": 14,
          "midi": 46,
          "name": "A#2",
          "ticks": 5280,
          "time": 19.849632,
          "velocity": 0.7874015748031497
        },
        {
          "duration": 0.052631600000001555,
          "durationTicks": 14,
          "midi": 46,
          "name": "A#2",
          "ticks": 5340,
          "time": 20.075196,
          "velocity": 0.31496062992125984
        },
        {
          "duration": 0.052631599999998,
          "durationTicks": 14,
          "midi": 46,
          "name": "A#2",
          "ticks": 5400,
          "time": 20.30076,
          "velocity": 0.7874015748031497
        },
        {
          "duration": 0.052631600000001555,
          "durationTicks": 14,
          "midi": 46,
          "name": "A#2",
          "ticks": 5460,
          "time": 20.526324,
          "velocity": 0.31496062992125984
        },
        {
          "duration": 0.052631600000001555,
          "durationTicks": 14,
          "midi": 46,
          "name": "A#2",
          "ticks": 5520,
          "time": 20.751887999999997,
          "velocity": 0.7874015748031497
        },
        {
          "duration": 0.052631599999998,
          "durationTicks": 14,
          "midi": 46,
          "name": "A#2",
          "ticks": 5580,
          "time": 20.977452,
          "velocity": 0.31496062992125984
        },
        {
          "duration": 0.052631600000001555,
          "durationTicks": 14,
          "midi": 46,
          "name": "A#2",
          "ticks": 5640,
          "time": 21.203015999999998,
          "velocity": 0.7874015748031497
        },
        {
          "duration": 0.052631599999998,
          "durationTicks": 14,
          "midi": 46,
          "name": "A#2",
          "ticks": 5700,
          "time": 21.42858,
          "velocity": 0.31496062992125984
        },
        {
          "duration": 0.052631600000001555,
          "durationTicks": 14,
          "midi": 46,
          "name": "A#2",
          "ticks": 5760,
          "time": 21.654144,
          "velocity": 0.7874015748031497
        },
        {
          "duration": 0.052631600000001555,
          "durationTicks": 14,
          "midi": 46,
          "name": "A#2",
          "ticks": 5820,
          "time": 21.879707999999997,
          "velocity": 0.31496062992125984
        },
        {
          "duration": 0.052631599999998,
          "durationTicks": 14,
          "midi": 46,
          "name": "A#2",
          "ticks": 5880,
          "time": 22.105272,
          "velocity": 0.7874015748031497
        },
        {
          "duration": 0.052631600000001555,
          "durationTicks": 14,
          "midi": 46,
          "name": "A#2",
          "ticks": 5940,
          "time": 22.330835999999998,
          "velocity": 0.31496062992125984
        },
        {
          "duration": 0.052631599999998,
          "durationTicks": 14,
          "midi": 46,
          "name": "A#2",
          "ticks": 6000,
          "time": 22.5564,
          "velocity": 0.7874015748031497
        },
        {
          "duration": 0.052631600000001555,
          "durationTicks": 14,
          "midi": 46,
          "name": "A#2",
          "ticks": 6060,
          "time": 22.781964,
          "velocity": 0.31496062992125984
        },
        {
          "duration": 0.052631600000001555,
          "durationTicks": 14,
          "midi": 46,
          "name": "A#2",
          "ticks": 6120,
          "time": 23.007527999999997,
          "velocity": 0.7874015748031497
        },
        {
          "duration": 0.052631599999998,
          "durationTicks": 14,
          "midi": 46,
          "name": "A#2",
          "ticks": 6180,
          "time": 23.233092,
          "velocity": 0.31496062992125984
        },
        {
          "duration": 0.052631600000001555,
          "durationTicks": 14,
          "midi": 46,
          "name": "A#2",
          "ticks": 6240,
          "time": 23.458655999999998,
          "velocity": 0.7874015748031497
        },
        {
          "duration": 0.052631599999998,
          "durationTicks": 14,
          "midi": 46,
          "name": "A#2",
          "ticks": 6300,
          "time": 23.68422,
          "velocity": 0.31496062992125984
        },
        {
          "duration": 0.052631600000001555,
          "durationTicks": 14,
          "midi": 46,
          "name": "A#2",
          "ticks": 6360,
          "time": 23.909784,
          "velocity": 0.7874015748031497
        },
        {
          "duration": 0.052631600000001555,
          "durationTicks": 14,
          "midi": 46,
          "name": "A#2",
          "ticks": 6420,
          "time": 24.135347999999997,
          "velocity": 0.31496062992125984
        },
        {
          "duration": 0.052631599999998,
          "durationTicks": 14,
          "midi": 46,
          "name": "A#2",
          "ticks": 6480,
          "time": 24.360912,
          "velocity": 0.7874015748031497
        },
        {
          "duration": 0.052631600000001555,
          "durationTicks": 14,
          "midi": 46,
          "name": "A#2",
          "ticks": 6540,
          "time": 24.586475999999998,
          "velocity": 0.31496062992125984
        },
        {
          "duration": 0.052631599999998,
          "durationTicks": 14,
          "midi": 46,
          "name": "A#2",
          "ticks": 6600,
          "time": 24.81204,
          "velocity": 0.7874015748031497
        },
        {
          "duration": 0.052631600000001555,
          "durationTicks": 14,
          "midi": 46,
          "name": "A#2",
          "ticks": 6660,
          "time": 25.037603999999998,
          "velocity": 0.31496062992125984
        },
        {
          "duration": 0.052631599999998,
          "durationTicks": 14,
          "midi": 46,
          "name": "A#2",
          "ticks": 6720,
          "time": 25.263168,
          "velocity": 0.7874015748031497
        },
        {
          "duration": 0.052631600000001555,
          "durationTicks": 14,
          "midi": 46,
          "name": "A#2",
          "ticks": 6780,
          "time": 25.488732,
          "velocity": 0.31496062992125984
        },
        {
          "duration": 0.052631600000001555,
          "durationTicks": 14,
          "midi": 46,
          "name": "A#2",
          "ticks": 6840,
          "time": 25.714295999999997,
          "velocity": 0.7874015748031497
        },
        {
          "duration": 0.052631599999998,
          "durationTicks": 14,
          "midi": 46,
          "name": "A#2",
          "ticks": 6900,
          "time": 25.93986,
          "velocity": 0.31496062992125984
        },
        {
          "duration": 0.052631600000001555,
          "durationTicks": 14,
          "midi": 46,
          "name": "A#2",
          "ticks": 6960,
          "time": 26.165423999999998,
          "velocity": 0.7874015748031497
        },
        {
          "duration": 0.052631599999998,
          "durationTicks": 14,
          "midi": 46,
          "name": "A#2",
          "ticks": 7020,
          "time": 26.390988,
          "velocity": 0.31496062992125984
        },
        {
          "duration": 0.052631600000001555,
          "durationTicks": 14,
          "midi": 46,
          "name": "A#2",
          "ticks": 7080,
          "time": 26.616552,
          "velocity": 0.7874015748031497
        },
        {
          "duration": 0.052631600000001555,
          "durationTicks": 14,
          "midi": 46,
          "name": "A#2",
          "ticks": 7140,
          "time": 26.842115999999997,
          "velocity": 0.31496062992125984
        },
        {
          "duration": 0.052631599999998,
          "durationTicks": 14,
          "midi": 46,
          "name": "A#2",
          "ticks": 7200,
          "time": 27.06768,
          "velocity": 0.7874015748031497
        },
        {
          "duration": 0.052631600000001555,
          "durationTicks": 14,
          "midi": 46,
          "name": "A#2",
          "ticks": 7260,
          "time": 27.293243999999998,
          "velocity": 0.31496062992125984
        },
        {
          "duration": 0.052631599999998,
          "durationTicks": 14,
          "midi": 46,
          "name": "A#2",
          "ticks": 7320,
          "time": 27.518808,
          "velocity": 0.7874015748031497
        },
        {
          "duration": 0.052631600000001555,
          "durationTicks": 14,
          "midi": 46,
          "name": "A#2",
          "ticks": 7380,
          "time": 27.744372,
          "velocity": 0.31496062992125984
        },
        {
          "duration": 0.052631600000001555,
          "durationTicks": 14,
          "midi": 46,
          "name": "A#2",
          "ticks": 7440,
          "time": 27.969935999999997,
          "velocity": 0.7874015748031497
        },
        {
          "duration": 0.052631599999998,
          "durationTicks": 14,
          "midi": 46,
          "name": "A#2",
          "ticks": 7500,
          "time": 28.1955,
          "velocity": 0.31496062992125984
        },
        {
          "duration": 0.052631600000001555,
          "durationTicks": 14,
          "midi": 46,
          "name": "A#2",
          "ticks": 7560,
          "time": 28.421063999999998,
          "velocity": 0.7874015748031497
        },
        {
          "duration": 0.052631599999998,
          "durationTicks": 14,
          "midi": 46,
          "name": "A#2",
          "ticks": 7620,
          "time": 28.646628,
          "velocity": 0.31496062992125984
        },
        {
          "duration": 0.052631599999998,
          "durationTicks": 14,
          "midi": 46,
          "name": "A#2",
          "ticks": 7680,
          "time": 28.872192,
          "velocity": 0.7874015748031497
        },
        {
          "duration": 0.052631599999998,
          "durationTicks": 14,
          "midi": 46,
          "name": "A#2",
          "ticks": 7740,
          "time": 29.097755999999997,
          "velocity": 0.31496062992125984
        },
        {
          "duration": 0.052631599999998,
          "durationTicks": 14,
          "midi": 46,
          "name": "A#2",
          "ticks": 7800,
          "time": 29.32332,
          "velocity": 0.7874015748031497
        },
        {
          "duration": 0.052631599999998,
          "durationTicks": 14,
          "midi": 46,
          "name": "A#2",
          "ticks": 7860,
          "time": 29.548883999999997,
          "velocity": 0.31496062992125984
        },
        {
          "duration": 0.05263159999999445,
          "durationTicks": 14,
          "midi": 46,
          "name": "A#2",
          "ticks": 7920,
          "time": 29.774448,
          "velocity": 0.7874015748031497
        },
        {
          "duration": 0.052631599999998,
          "durationTicks": 14,
          "midi": 46,
          "name": "A#2",
          "ticks": 7980,
          "time": 30.000011999999998,
          "velocity": 0.31496062992125984
        },
        {
          "duration": 0.052631599999998,
          "durationTicks": 14,
          "midi": 46,
          "name": "A#2",
          "ticks": 8040,
          "time": 30.225575999999997,
          "velocity": 0.7874015748031497
        },
        {
          "duration": 0.052631599999998,
          "durationTicks": 14,
          "midi": 46,
          "name": "A#2",
          "ticks": 8100,
          "time": 30.45114,
          "velocity": 0.31496062992125984
        },
        {
          "duration": 0.052631599999998,
          "durationTicks": 14,
          "midi": 46,
          "name": "A#2",
          "ticks": 8160,
          "time": 30.676703999999997,
          "velocity": 0.7874015748031497
        },
        {
          "duration": 0.05263159999999445,
          "durationTicks": 14,
          "midi": 46,
          "name": "A#2",
          "ticks": 8220,
          "time": 30.902268,
          "velocity": 0.31496062992125984
        },
        {
          "duration": 0.052631599999998,
          "durationTicks": 14,
          "midi": 46,
          "name": "A#2",
          "ticks": 8280,
          "time": 31.127831999999998,
          "velocity": 0.7874015748031497
        },
        {
          "duration": 0.052631599999998,
          "durationTicks": 14,
          "midi": 46,
          "name": "A#2",
          "ticks": 8340,
          "time": 31.353395999999996,
          "velocity": 0.31496062992125984
        },
        {
          "duration": 0.052631599999998,
          "durationTicks": 14,
          "midi": 46,
          "name": "A#2",
          "ticks": 8400,
          "time": 31.57896,
          "velocity": 0.7874015748031497
        },
        {
          "duration": 0.052631599999998,
          "durationTicks": 14,
          "midi": 46,
          "name": "A#2",
          "ticks": 8460,
          "time": 31.804523999999997,
          "velocity": 0.31496062992125984
        },
        {
          "duration": 0.052631599999998,
          "durationTicks": 14,
          "midi": 46,
          "name": "A#2",
          "ticks": 8520,
          "time": 32.030088,
          "velocity": 0.7874015748031497
        },
        {
          "duration": 0.052631599999998,
          "durationTicks": 14,
          "midi": 46,
          "name": "A#2",
          "ticks": 8580,
          "time": 32.255652,
          "velocity": 0.31496062992125984
        },
        {
          "duration": 0.052631599999998,
          "durationTicks": 14,
          "midi": 46,
          "name": "A#2",
          "ticks": 8640,
          "time": 32.481215999999996,
          "velocity": 0.7874015748031497
        },
        {
          "duration": 0.052631599999998,
          "durationTicks": 14,
          "midi": 46,
          "name": "A#2",
          "ticks": 8700,
          "time": 32.706779999999995,
          "velocity": 0.31496062992125984
        },
        {
          "duration": 0.052631599999998,
          "durationTicks": 14,
          "midi": 46,
          "name": "A#2",
          "ticks": 8760,
          "time": 32.932344,
          "velocity": 0.7874015748031497
        },
        {
          "duration": 0.052631599999998,
          "durationTicks": 14,
          "midi": 46,
          "name": "A#2",
          "ticks": 8820,
          "time": 33.157908,
          "velocity": 0.31496062992125984
        },
        {
          "duration": 0.052631599999998,
          "durationTicks": 14,
          "midi": 46,
          "name": "A#2",
          "ticks": 8880,
          "time": 33.383472,
          "velocity": 0.7874015748031497
        },
        {
          "duration": 0.052631599999998,
          "durationTicks": 14,
          "midi": 46,
          "name": "A#2",
          "ticks": 8940,
          "time": 33.609035999999996,
          "velocity": 0.31496062992125984
        },
        {
          "duration": 0.052631599999998,
          "durationTicks": 14,
          "midi": 46,
          "name": "A#2",
          "ticks": 9000,
          "time": 33.834599999999995,
          "velocity": 0.7874015748031497
        },
        {
          "duration": 0.052631599999998,
          "durationTicks": 14,
          "midi": 46,
          "name": "A#2",
          "ticks": 9060,
          "time": 34.060164,
          "velocity": 0.31496062992125984
        },
        {
          "duration": 0.052631599999998,
          "durationTicks": 14,
          "midi": 46,
          "name": "A#2",
          "ticks": 9120,
          "time": 34.285728,
          "velocity": 0.7874015748031497
        },
        {
          "duration": 0.052631599999998,
          "durationTicks": 14,
          "midi": 46,
          "name": "A#2",
          "ticks": 9180,
          "time": 34.511292,
          "velocity": 0.31496062992125984
        },
        {
          "duration": 0.052631599999998,
          "durationTicks": 14,
          "midi": 46,
          "name": "A#2",
          "ticks": 9240,
          "time": 34.736855999999996,
          "velocity": 0.7874015748031497
        },
        {
          "duration": 0.052631599999998,
          "durationTicks": 14,
          "midi": 46,
          "name": "A#2",
          "ticks": 9300,
          "time": 34.962419999999995,
          "velocity": 0.31496062992125984
        },
        {
          "duration": 0.052631599999998,
          "durationTicks": 14,
          "midi": 46,
          "name": "A#2",
          "ticks": 9360,
          "time": 35.187984,
          "velocity": 0.7874015748031497
        },
        {
          "duration": 0.052631599999998,
          "durationTicks": 14,
          "midi": 46,
          "name": "A#2",
          "ticks": 9420,
          "time": 35.413548,
          "velocity": 0.31496062992125984
        },
        {
          "duration": 0.052631599999998,
          "durationTicks": 14,
          "midi": 46,
          "name": "A#2",
          "ticks": 9480,
          "time": 35.639112,
          "velocity": 0.7874015748031497
        },
        {
          "duration": 0.052631599999998,
          "durationTicks": 14,
          "midi": 46,
          "name": "A#2",
          "ticks": 9540,
          "time": 35.864675999999996,
          "velocity": 0.31496062992125984
        },
        {
          "duration": 0.052631599999998,
          "durationTicks": 14,
          "midi": 46,
          "name": "A#2",
          "ticks": 9600,
          "time": 36.090239999999994,
          "velocity": 0.7874015748031497
        },
        {
          "duration": 0.052631599999998,
          "durationTicks": 14,
          "midi": 46,
          "name": "A#2",
          "ticks": 9660,
          "time": 36.315804,
          "velocity": 0.31496062992125984
        },
        {
          "duration": 0.052631599999998,
          "durationTicks": 14,
          "midi": 46,
          "name": "A#2",
          "ticks": 9720,
          "time": 36.541368,
          "velocity": 0.7874015748031497
        },
        {
          "duration": 0.052631599999998,
          "durationTicks": 14,
          "midi": 46,
          "name": "A#2",
          "ticks": 9780,
          "time": 36.766932,
          "velocity": 0.31496062992125984
        },
        {
          "duration": 0.052631599999998,
          "durationTicks": 14,
          "midi": 46,
          "name": "A#2",
          "ticks": 9840,
          "time": 36.992495999999996,
          "velocity": 0.7874015748031497
        },
        {
          "duration": 0.0526315999999909,
          "durationTicks": 14,
          "midi": 46,
          "name": "A#2",
          "ticks": 9900,
          "time": 37.21806,
          "velocity": 0.31496062992125984
        },
        {
          "duration": 0.052631599999998,
          "durationTicks": 14,
          "midi": 46,
          "name": "A#2",
          "ticks": 9960,
          "time": 37.443624,
          "velocity": 0.7874015748031497
        },
        {
          "duration": 0.052631599999998,
          "durationTicks": 14,
          "midi": 46,
          "name": "A#2",
          "ticks": 10020,
          "time": 37.669188,
          "velocity": 0.31496062992125984
        },
        {
          "duration": 0.052631599999998,
          "durationTicks": 14,
          "midi": 43,
          "name": "G2",
          "ticks": 10080,
          "time": 37.894752,
          "velocity": 0.7874015748031497
        },
        {
          "duration": 0.052631599999998,
          "durationTicks": 14,
          "midi": 41,
          "name": "F2",
          "ticks": 10080,
          "time": 37.894752,
          "velocity": 0.3937007874015748
        },
        {
          "duration": 0.052631599999998,
          "durationTicks": 14,
          "midi": 36,
          "name": "C2",
          "ticks": 10080,
          "time": 37.894752,
          "velocity": 0.7874015748031497
        },
        {
          "duration": 0.052631599999998,
          "durationTicks": 14,
          "midi": 46,
          "name": "A#2",
          "ticks": 10080,
          "time": 37.894752,
          "velocity": 0.7874015748031497
        },
        {
          "duration": 0.0526315999999909,
          "durationTicks": 14,
          "midi": 43,
          "name": "G2",
          "ticks": 10200,
          "time": 38.34588,
          "velocity": 0.7874015748031497
        },
        {
          "duration": 0.0526315999999909,
          "durationTicks": 14,
          "midi": 46,
          "name": "A#2",
          "ticks": 10200,
          "time": 38.34588,
          "velocity": 0.7874015748031497
        },
        {
          "duration": 0.0526315999999909,
          "durationTicks": 14,
          "midi": 41,
          "name": "F2",
          "ticks": 10200,
          "time": 38.34588,
          "velocity": 0.3937007874015748
        },
        {
          "duration": 0.0526315999999909,
          "durationTicks": 14,
          "midi": 36,
          "name": "C2",
          "ticks": 10200,
          "time": 38.34588,
          "velocity": 0.7874015748031497
        },
        {
          "duration": 0.052631599999998,
          "durationTicks": 14,
          "midi": 46,
          "name": "A#2",
          "ticks": 10260,
          "time": 38.571444,
          "velocity": 0.31496062992125984
        },
        {
          "duration": 0.052631599999998,
          "durationTicks": 14,
          "midi": 46,
          "name": "A#2",
          "ticks": 10320,
          "time": 38.797008,
          "velocity": 0.47244094488188976
        },
        {
          "duration": 0.052631599999998,
          "durationTicks": 14,
          "midi": 46,
          "name": "A#2",
          "ticks": 10380,
          "time": 39.022572,
          "velocity": 0.47244094488188976
        },
        {
          "duration": 0.052631599999998,
          "durationTicks": 14,
          "midi": 46,
          "name": "A#2",
          "ticks": 10440,
          "time": 39.248135999999995,
          "velocity": 0.7874015748031497
        },
        {
          "duration": 0.052631599999998,
          "durationTicks": 14,
          "midi": 36,
          "name": "C2",
          "ticks": 10440,
          "time": 39.248135999999995,
          "velocity": 0.7874015748031497
        },
        {
          "duration": 0.0526315999999909,
          "durationTicks": 14,
          "midi": 46,
          "name": "A#2",
          "ticks": 10500,
          "time": 39.4737,
          "velocity": 0.47244094488188976
        },
        {
          "duration": 0.052631599999998,
          "durationTicks": 14,
          "midi": 46,
          "name": "A#2",
          "ticks": 10560,
          "time": 39.699264,
          "velocity": 0.47244094488188976
        },
        {
          "duration": 0.052631599999998,
          "durationTicks": 14,
          "midi": 46,
          "name": "A#2",
          "ticks": 10620,
          "time": 39.924828,
          "velocity": 0.47244094488188976
        },
        {
          "duration": 0.052631599999998,
          "durationTicks": 14,
          "midi": 46,
          "name": "A#2",
          "ticks": 10680,
          "time": 40.150392,
          "velocity": 0.7874015748031497
        },
        {
          "duration": 0.052631599999998,
          "durationTicks": 14,
          "midi": 36,
          "name": "C2",
          "ticks": 10680,
          "time": 40.150392,
          "velocity": 0.7874015748031497
        },
        {
          "duration": 0.052631599999998,
          "durationTicks": 14,
          "midi": 46,
          "name": "A#2",
          "ticks": 10740,
          "time": 40.375955999999995,
          "velocity": 0.47244094488188976
        },
        {
          "duration": 0.0526315999999909,
          "durationTicks": 14,
          "midi": 46,
          "name": "A#2",
          "ticks": 10800,
          "time": 40.60152,
          "velocity": 0.47244094488188976
        },
        {
          "duration": 0.052631599999998,
          "durationTicks": 14,
          "midi": 46,
          "name": "A#2",
          "ticks": 10860,
          "time": 40.827084,
          "velocity": 0.47244094488188976
        },
        {
          "duration": 0.052631599999998,
          "durationTicks": 14,
          "midi": 46,
          "name": "A#2",
          "ticks": 10920,
          "time": 41.052648,
          "velocity": 0.7874015748031497
        },
        {
          "duration": 0.052631599999998,
          "durationTicks": 14,
          "midi": 36,
          "name": "C2",
          "ticks": 10920,
          "time": 41.052648,
          "velocity": 0.7874015748031497
        },
        {
          "duration": 0.052631599999998,
          "durationTicks": 14,
          "midi": 46,
          "name": "A#2",
          "ticks": 10980,
          "time": 41.278211999999996,
          "velocity": 0.47244094488188976
        },
        {
          "duration": 0.052631599999998,
          "durationTicks": 14,
          "midi": 43,
          "name": "G2",
          "ticks": 11040,
          "time": 41.503775999999995,
          "velocity": 0.7874015748031497
        },
        {
          "duration": 0.052631599999998,
          "durationTicks": 14,
          "midi": 41,
          "name": "F2",
          "ticks": 11040,
          "time": 41.503775999999995,
          "velocity": 0.3937007874015748
        },
        {
          "duration": 0.052631599999998,
          "durationTicks": 14,
          "midi": 36,
          "name": "C2",
          "ticks": 11040,
          "time": 41.503775999999995,
          "velocity": 0.7874015748031497
        },
        {
          "duration": 0.052631599999998,
          "durationTicks": 14,
          "midi": 46,
          "name": "A#2",
          "ticks": 11040,
          "time": 41.503775999999995,
          "velocity": 0.7874015748031497
        },
        {
          "duration": 0.052631599999998,
          "durationTicks": 14,
          "midi": 43,
          "name": "G2",
          "ticks": 11160,
          "time": 41.954904,
          "velocity": 0.7874015748031497
        },
        {
          "duration": 0.052631599999998,
          "durationTicks": 14,
          "midi": 41,
          "name": "F2",
          "ticks": 11160,
          "time": 41.954904,
          "velocity": 0.3937007874015748
        },
        {
          "duration": 0.052631599999998,
          "durationTicks": 14,
          "midi": 46,
          "name": "A#2",
          "ticks": 11160,
          "time": 41.954904,
          "velocity": 0.7874015748031497
        },
        {
          "duration": 0.052631599999998,
          "durationTicks": 14,
          "midi": 36,
          "name": "C2",
          "ticks": 11160,
          "time": 41.954904,
          "velocity": 0.7874015748031497
        },
        {
          "duration": 0.052631599999998,
          "durationTicks": 14,
          "midi": 46,
          "name": "A#2",
          "ticks": 11220,
          "time": 42.180468,
          "velocity": 0.31496062992125984
        },
        {
          "duration": 0.052631599999998,
          "durationTicks": 14,
          "midi": 46,
          "name": "A#2",
          "ticks": 11280,
          "time": 42.406031999999996,
          "velocity": 0.47244094488188976
        },
        {
          "duration": 0.052631599999998,
          "durationTicks": 14,
          "midi": 46,
          "name": "A#2",
          "ticks": 11340,
          "time": 42.631595999999995,
          "velocity": 0.47244094488188976
        },
        {
          "duration": 0.0526315999999909,
          "durationTicks": 14,
          "midi": 46,
          "name": "A#2",
          "ticks": 11400,
          "time": 42.85716,
          "velocity": 0.7874015748031497
        },
        {
          "duration": 0.0526315999999909,
          "durationTicks": 14,
          "midi": 36,
          "name": "C2",
          "ticks": 11400,
          "time": 42.85716,
          "velocity": 0.7874015748031497
        },
        {
          "duration": 0.052631599999998,
          "durationTicks": 14,
          "midi": 46,
          "name": "A#2",
          "ticks": 11460,
          "time": 43.082724,
          "velocity": 0.47244094488188976
        },
        {
          "duration": 0.052631599999998,
          "durationTicks": 14,
          "midi": 46,
          "name": "A#2",
          "ticks": 11520,
          "time": 43.308288,
          "velocity": 0.47244094488188976
        },
        {
          "duration": 0.052631599999998,
          "durationTicks": 14,
          "midi": 46,
          "name": "A#2",
          "ticks": 11580,
          "time": 43.533851999999996,
          "velocity": 0.47244094488188976
        },
        {
          "duration": 0.052631599999998,
          "durationTicks": 14,
          "midi": 46,
          "name": "A#2",
          "ticks": 11640,
          "time": 43.759415999999995,
          "velocity": 0.7874015748031497
        },
        {
          "duration": 0.052631599999998,
          "durationTicks": 14,
          "midi": 36,
          "name": "C2",
          "ticks": 11640,
          "time": 43.759415999999995,
          "velocity": 0.7874015748031497
        },
        {
          "duration": 0.0526315999999909,
          "durationTicks": 14,
          "midi": 46,
          "name": "A#2",
          "ticks": 11700,
          "time": 43.98498,
          "velocity": 0.47244094488188976
        },
        {
          "duration": 0.052631599999998,
          "durationTicks": 14,
          "midi": 46,
          "name": "A#2",
          "ticks": 11760,
          "time": 44.210544,
          "velocity": 0.47244094488188976
        },
        {
          "duration": 0.052631599999998,
          "durationTicks": 14,
          "midi": 46,
          "name": "A#2",
          "ticks": 11820,
          "time": 44.436108,
          "velocity": 0.47244094488188976
        },
        {
          "duration": 0.052631599999998,
          "durationTicks": 14,
          "midi": 46,
          "name": "A#2",
          "ticks": 11880,
          "time": 44.661671999999996,
          "velocity": 0.7874015748031497
        },
        {
          "duration": 0.052631599999998,
          "durationTicks": 14,
          "midi": 36,
          "name": "C2",
          "ticks": 11880,
          "time": 44.661671999999996,
          "velocity": 0.7874015748031497
        },
        {
          "duration": 0.052631599999998,
          "durationTicks": 14,
          "midi": 46,
          "name": "A#2",
          "ticks": 11940,
          "time": 44.887235999999994,
          "velocity": 0.47244094488188976
        },
        {
          "duration": 0.0526315999999909,
          "durationTicks": 14,
          "midi": 43,
          "name": "G2",
          "ticks": 12000,
          "time": 45.1128,
          "velocity": 0.7874015748031497
        },
        {
          "duration": 0.0526315999999909,
          "durationTicks": 14,
          "midi": 41,
          "name": "F2",
          "ticks": 12000,
          "time": 45.1128,
          "velocity": 0.3937007874015748
        },
        {
          "duration": 0.0526315999999909,
          "durationTicks": 14,
          "midi": 36,
          "name": "C2",
          "ticks": 12000,
          "time": 45.1128,
          "velocity": 0.7874015748031497
        },
        {
          "duration": 0.0526315999999909,
          "durationTicks": 14,
          "midi": 46,
          "name": "A#2",
          "ticks": 12000,
          "time": 45.1128,
          "velocity": 0.7874015748031497
        },
        {
          "duration": 0.052631599999998,
          "durationTicks": 14,
          "midi": 43,
          "name": "G2",
          "ticks": 12120,
          "time": 45.563928,
          "velocity": 0.7874015748031497
        },
        {
          "duration": 0.052631599999998,
          "durationTicks": 14,
          "midi": 41,
          "name": "F2",
          "ticks": 12120,
          "time": 45.563928,
          "velocity": 0.3937007874015748
        },
        {
          "duration": 0.052631599999998,
          "durationTicks": 14,
          "midi": 46,
          "name": "A#2",
          "ticks": 12120,
          "time": 45.563928,
          "velocity": 0.7874015748031497
        },
        {
          "duration": 0.052631599999998,
          "durationTicks": 14,
          "midi": 36,
          "name": "C2",
          "ticks": 12120,
          "time": 45.563928,
          "velocity": 0.7874015748031497
        },
        {
          "duration": 0.052631599999998,
          "durationTicks": 14,
          "midi": 46,
          "name": "A#2",
          "ticks": 12180,
          "time": 45.789491999999996,
          "velocity": 0.31496062992125984
        },
        {
          "duration": 0.052631599999998,
          "durationTicks": 14,
          "midi": 46,
          "name": "A#2",
          "ticks": 12240,
          "time": 46.015055999999994,
          "velocity": 0.47244094488188976
        },
        {
          "duration": 0.052631599999998,
          "durationTicks": 14,
          "midi": 46,
          "name": "A#2",
          "ticks": 12300,
          "time": 46.24062,
          "velocity": 0.47244094488188976
        },
        {
          "duration": 0.052631599999998,
          "durationTicks": 14,
          "midi": 46,
          "name": "A#2",
          "ticks": 12360,
          "time": 46.466184,
          "velocity": 0.7874015748031497
        },
        {
          "duration": 0.052631599999998,
          "durationTicks": 14,
          "midi": 36,
          "name": "C2",
          "ticks": 12360,
          "time": 46.466184,
          "velocity": 0.7874015748031497
        },
        {
          "duration": 0.052631599999998,
          "durationTicks": 14,
          "midi": 46,
          "name": "A#2",
          "ticks": 12420,
          "time": 46.691748,
          "velocity": 0.47244094488188976
        },
        {
          "duration": 0.052631599999998,
          "durationTicks": 14,
          "midi": 46,
          "name": "A#2",
          "ticks": 12480,
          "time": 46.917311999999995,
          "velocity": 0.47244094488188976
        },
        {
          "duration": 0.052631599999998,
          "durationTicks": 14,
          "midi": 46,
          "name": "A#2",
          "ticks": 12540,
          "time": 47.142875999999994,
          "velocity": 0.47244094488188976
        },
        {
          "duration": 0.052631599999998,
          "durationTicks": 14,
          "midi": 46,
          "name": "A#2",
          "ticks": 12600,
          "time": 47.36844,
          "velocity": 0.7874015748031497
        },
        {
          "duration": 0.052631599999998,
          "durationTicks": 14,
          "midi": 36,
          "name": "C2",
          "ticks": 12600,
          "time": 47.36844,
          "velocity": 0.7874015748031497
        },
        {
          "duration": 0.052631599999998,
          "durationTicks": 14,
          "midi": 46,
          "name": "A#2",
          "ticks": 12660,
          "time": 47.594004,
          "velocity": 0.47244094488188976
        },
        {
          "duration": 0.052631599999998,
          "durationTicks": 14,
          "midi": 46,
          "name": "A#2",
          "ticks": 12720,
          "time": 47.819568,
          "velocity": 0.47244094488188976
        },
        {
          "duration": 0.052631599999998,
          "durationTicks": 14,
          "midi": 46,
          "name": "A#2",
          "ticks": 12780,
          "time": 48.045131999999995,
          "velocity": 0.47244094488188976
        },
        {
          "duration": 0.052631599999998,
          "durationTicks": 14,
          "midi": 46,
          "name": "A#2",
          "ticks": 12840,
          "time": 48.270695999999994,
          "velocity": 0.7874015748031497
        },
        {
          "duration": 0.052631599999998,
          "durationTicks": 14,
          "midi": 36,
          "name": "C2",
          "ticks": 12840,
          "time": 48.270695999999994,
          "velocity": 0.7874015748031497
        },
        {
          "duration": 0.052631599999998,
          "durationTicks": 14,
          "midi": 46,
          "name": "A#2",
          "ticks": 12900,
          "time": 48.49626,
          "velocity": 0.47244094488188976
        },
        {
          "duration": 0.052631599999998,
          "durationTicks": 14,
          "midi": 43,
          "name": "G2",
          "ticks": 12960,
          "time": 48.721824,
          "velocity": 0.7874015748031497
        },
        {
          "duration": 0.052631599999998,
          "durationTicks": 14,
          "midi": 41,
          "name": "F2",
          "ticks": 12960,
          "time": 48.721824,
          "velocity": 0.3937007874015748
        },
        {
          "duration": 0.052631599999998,
          "durationTicks": 14,
          "midi": 36,
          "name": "C2",
          "ticks": 12960,
          "time": 48.721824,
          "velocity": 0.7874015748031497
        },
        {
          "duration": 0.052631599999998,
          "durationTicks": 14,
          "midi": 46,
          "name": "A#2",
          "ticks": 12960,
          "time": 48.721824,
          "velocity": 0.7874015748031497
        },
        {
          "duration": 0.052631599999998,
          "durationTicks": 14,
          "midi": 43,
          "name": "G2",
          "ticks": 13080,
          "time": 49.172951999999995,
          "velocity": 0.7874015748031497
        },
        {
          "duration": 0.052631599999998,
          "durationTicks": 14,
          "midi": 41,
          "name": "F2",
          "ticks": 13080,
          "time": 49.172951999999995,
          "velocity": 0.3937007874015748
        },
        {
          "duration": 0.052631599999998,
          "durationTicks": 14,
          "midi": 46,
          "name": "A#2",
          "ticks": 13080,
          "time": 49.172951999999995,
          "velocity": 0.7874015748031497
        },
        {
          "duration": 0.052631599999998,
          "durationTicks": 14,
          "midi": 36,
          "name": "C2",
          "ticks": 13080,
          "time": 49.172951999999995,
          "velocity": 0.7874015748031497
        },
        {
          "duration": 0.052631599999998,
          "durationTicks": 14,
          "midi": 46,
          "name": "A#2",
          "ticks": 13140,
          "time": 49.398515999999994,
          "velocity": 0.31496062992125984
        },
        {
          "duration": 0.052631599999998,
          "durationTicks": 14,
          "midi": 46,
          "name": "A#2",
          "ticks": 13200,
          "time": 49.62408,
          "velocity": 0.47244094488188976
        },
        {
          "duration": 0.052631599999998,
          "durationTicks": 14,
          "midi": 46,
          "name": "A#2",
          "ticks": 13260,
          "time": 49.849644,
          "velocity": 0.47244094488188976
        },
        {
          "duration": 0.052631599999998,
          "durationTicks": 14,
          "midi": 46,
          "name": "A#2",
          "ticks": 13320,
          "time": 50.075207999999996,
          "velocity": 0.7874015748031497
        },
        {
          "duration": 0.052631599999998,
          "durationTicks": 14,
          "midi": 36,
          "name": "C2",
          "ticks": 13320,
          "time": 50.075207999999996,
          "velocity": 0.7874015748031497
        },
        {
          "duration": 0.052631599999998,
          "durationTicks": 14,
          "midi": 46,
          "name": "A#2",
          "ticks": 13380,
          "time": 50.300771999999995,
          "velocity": 0.47244094488188976
        },
        {
          "duration": 0.0526315999999909,
          "durationTicks": 14,
          "midi": 46,
          "name": "A#2",
          "ticks": 13440,
          "time": 50.526336,
          "velocity": 0.47244094488188976
        },
        {
          "duration": 0.052631599999998,
          "durationTicks": 14,
          "midi": 46,
          "name": "A#2",
          "ticks": 13500,
          "time": 50.7519,
          "velocity": 0.47244094488188976
        },
        {
          "duration": 0.052631599999998,
          "durationTicks": 14,
          "midi": 46,
          "name": "A#2",
          "ticks": 13560,
          "time": 50.977464,
          "velocity": 0.7874015748031497
        },
        {
          "duration": 0.052631599999998,
          "durationTicks": 14,
          "midi": 36,
          "name": "C2",
          "ticks": 13560,
          "time": 50.977464,
          "velocity": 0.7874015748031497
        },
        {
          "duration": 0.052631599999998,
          "durationTicks": 14,
          "midi": 46,
          "name": "A#2",
          "ticks": 13620,
          "time": 51.203027999999996,
          "velocity": 0.47244094488188976
        },
        {
          "duration": 0.052631599999998,
          "durationTicks": 14,
          "midi": 46,
          "name": "A#2",
          "ticks": 13680,
          "time": 51.428591999999995,
          "velocity": 0.47244094488188976
        },
        {
          "duration": 0.0526315999999909,
          "durationTicks": 14,
          "midi": 46,
          "name": "A#2",
          "ticks": 13740,
          "time": 51.654156,
          "velocity": 0.47244094488188976
        },
        {
          "duration": 0.052631599999998,
          "durationTicks": 14,
          "midi": 46,
          "name": "A#2",
          "ticks": 13800,
          "time": 51.87972,
          "velocity": 0.7874015748031497
        },
        {
          "duration": 0.052631599999998,
          "durationTicks": 14,
          "midi": 36,
          "name": "C2",
          "ticks": 13800,
          "time": 51.87972,
          "velocity": 0.7874015748031497
        },
        {
          "duration": 0.052631599999998,
          "durationTicks": 14,
          "midi": 46,
          "name": "A#2",
          "ticks": 13860,
          "time": 52.105284,
          "velocity": 0.47244094488188976
        },
        {
          "duration": 0.052631599999998,
          "durationTicks": 14,
          "midi": 43,
          "name": "G2",
          "ticks": 13920,
          "time": 52.330847999999996,
          "velocity": 0.7874015748031497
        },
        {
          "duration": 0.052631599999998,
          "durationTicks": 14,
          "midi": 41,
          "name": "F2",
          "ticks": 13920,
          "time": 52.330847999999996,
          "velocity": 0.3937007874015748
        },
        {
          "duration": 0.052631599999998,
          "durationTicks": 14,
          "midi": 36,
          "name": "C2",
          "ticks": 13920,
          "time": 52.330847999999996,
          "velocity": 0.7874015748031497
        },
        {
          "duration": 0.052631599999998,
          "durationTicks": 14,
          "midi": 46,
          "name": "A#2",
          "ticks": 13920,
          "time": 52.330847999999996,
          "velocity": 0.7874015748031497
        },
        {
          "duration": 0.0526315999999909,
          "durationTicks": 14,
          "midi": 43,
          "name": "G2",
          "ticks": 14040,
          "time": 52.781976,
          "velocity": 0.7874015748031497
        },
        {
          "duration": 0.0526315999999909,
          "durationTicks": 14,
          "midi": 41,
          "name": "F2",
          "ticks": 14040,
          "time": 52.781976,
          "velocity": 0.3937007874015748
        },
        {
          "duration": 0.0526315999999909,
          "durationTicks": 14,
          "midi": 46,
          "name": "A#2",
          "ticks": 14040,
          "time": 52.781976,
          "velocity": 0.7874015748031497
        },
        {
          "duration": 0.0526315999999909,
          "durationTicks": 14,
          "midi": 36,
          "name": "C2",
          "ticks": 14040,
          "time": 52.781976,
          "velocity": 0.7874015748031497
        },
        {
          "duration": 0.052631599999998,
          "durationTicks": 14,
          "midi": 46,
          "name": "A#2",
          "ticks": 14100,
          "time": 53.00754,
          "velocity": 0.31496062992125984
        },
        {
          "duration": 0.052631599999998,
          "durationTicks": 14,
          "midi": 46,
          "name": "A#2",
          "ticks": 14160,
          "time": 53.233104,
          "velocity": 0.47244094488188976
        },
        {
          "duration": 0.052631599999998,
          "durationTicks": 14,
          "midi": 46,
          "name": "A#2",
          "ticks": 14220,
          "time": 53.458667999999996,
          "velocity": 0.47244094488188976
        },
        {
          "duration": 0.052631599999998,
          "durationTicks": 14,
          "midi": 46,
          "name": "A#2",
          "ticks": 14280,
          "time": 53.684231999999994,
          "velocity": 0.7874015748031497
        },
        {
          "duration": 0.052631599999998,
          "durationTicks": 14,
          "midi": 36,
          "name": "C2",
          "ticks": 14280,
          "time": 53.684231999999994,
          "velocity": 0.7874015748031497
        },
        {
          "duration": 0.0526315999999909,
          "durationTicks": 14,
          "midi": 46,
          "name": "A#2",
          "ticks": 14340,
          "time": 53.909796,
          "velocity": 0.47244094488188976
        },
        {
          "duration": 0.052631599999998,
          "durationTicks": 14,
          "midi": 46,
          "name": "A#2",
          "ticks": 14400,
          "time": 54.13536,
          "velocity": 0.47244094488188976
        },
        {
          "duration": 0.052631599999998,
          "durationTicks": 14,
          "midi": 46,
          "name": "A#2",
          "ticks": 14460,
          "time": 54.360924,
          "velocity": 0.47244094488188976
        },
        {
          "duration": 0.052631599999998,
          "durationTicks": 14,
          "midi": 46,
          "name": "A#2",
          "ticks": 14520,
          "time": 54.586487999999996,
          "velocity": 0.7874015748031497
        },
        {
          "duration": 0.052631599999998,
          "durationTicks": 14,
          "midi": 36,
          "name": "C2",
          "ticks": 14520,
          "time": 54.586487999999996,
          "velocity": 0.7874015748031497
        },
        {
          "duration": 0.052631599999998,
          "durationTicks": 14,
          "midi": 46,
          "name": "A#2",
          "ticks": 14580,
          "time": 54.812051999999994,
          "velocity": 0.47244094488188976
        },
        {
          "duration": 0.0526315999999909,
          "durationTicks": 14,
          "midi": 46,
          "name": "A#2",
          "ticks": 14640,
          "time": 55.037616,
          "velocity": 0.47244094488188976
        },
        {
          "duration": 0.052631599999998,
          "durationTicks": 14,
          "midi": 46,
          "name": "A#2",
          "ticks": 14700,
          "time": 55.26318,
          "velocity": 0.47244094488188976
        },
        {
          "duration": 0.052631599999998,
          "durationTicks": 14,
          "midi": 46,
          "name": "A#2",
          "ticks": 14760,
          "time": 55.488744,
          "velocity": 0.7874015748031497
        },
        {
          "duration": 0.052631599999998,
          "durationTicks": 14,
          "midi": 36,
          "name": "C2",
          "ticks": 14760,
          "time": 55.488744,
          "velocity": 0.7874015748031497
        },
        {
          "duration": 0.052631599999998,
          "durationTicks": 14,
          "midi": 46,
          "name": "A#2",
          "ticks": 14820,
          "time": 55.714307999999996,
          "velocity": 0.47244094488188976
        },
        {
          "duration": 0.052631599999998,
          "durationTicks": 14,
          "midi": 43,
          "name": "G2",
          "ticks": 14880,
          "time": 55.939871999999994,
          "velocity": 0.7874015748031497
        },
        {
          "duration": 0.052631599999998,
          "durationTicks": 14,
          "midi": 41,
          "name": "F2",
          "ticks": 14880,
          "time": 55.939871999999994,
          "velocity": 0.3937007874015748
        },
        {
          "duration": 0.052631599999998,
          "durationTicks": 14,
          "midi": 36,
          "name": "C2",
          "ticks": 14880,
          "time": 55.939871999999994,
          "velocity": 0.7874015748031497
        },
        {
          "duration": 0.052631599999998,
          "durationTicks": 14,
          "midi": 46,
          "name": "A#2",
          "ticks": 14880,
          "time": 55.939871999999994,
          "velocity": 0.7874015748031497
        },
        {
          "duration": 0.052631599999998,
          "durationTicks": 14,
          "midi": 43,
          "name": "G2",
          "ticks": 15000,
          "time": 56.391,
          "velocity": 0.7874015748031497
        },
        {
          "duration": 0.052631599999998,
          "durationTicks": 14,
          "midi": 41,
          "name": "F2",
          "ticks": 15000,
          "time": 56.391,
          "velocity": 0.3937007874015748
        },
        {
          "duration": 0.052631599999998,
          "durationTicks": 14,
          "midi": 46,
          "name": "A#2",
          "ticks": 15000,
          "time": 56.391,
          "velocity": 0.7874015748031497
        },
        {
          "duration": 0.052631599999998,
          "durationTicks": 14,
          "midi": 36,
          "name": "C2",
          "ticks": 15000,
          "time": 56.391,
          "velocity": 0.7874015748031497
        },
        {
          "duration": 0.052631599999998,
          "durationTicks": 14,
          "midi": 46,
          "name": "A#2",
          "ticks": 15060,
          "time": 56.616564,
          "velocity": 0.31496062992125984
        },
        {
          "duration": 0.052631599999998,
          "durationTicks": 14,
          "midi": 46,
          "name": "A#2",
          "ticks": 15120,
          "time": 56.842127999999995,
          "velocity": 0.47244094488188976
        },
        {
          "duration": 0.052631599999998,
          "durationTicks": 14,
          "midi": 46,
          "name": "A#2",
          "ticks": 15180,
          "time": 57.067691999999994,
          "velocity": 0.47244094488188976
        },
        {
          "duration": 0.0526315999999909,
          "durationTicks": 14,
          "midi": 46,
          "name": "A#2",
          "ticks": 15240,
          "time": 57.293256,
          "velocity": 0.7874015748031497
        },
        {
          "duration": 0.0526315999999909,
          "durationTicks": 14,
          "midi": 36,
          "name": "C2",
          "ticks": 15240,
          "time": 57.293256,
          "velocity": 0.7874015748031497
        },
        {
          "duration": 0.052631599999998,
          "durationTicks": 14,
          "midi": 46,
          "name": "A#2",
          "ticks": 15300,
          "time": 57.51882,
          "velocity": 0.47244094488188976
        },
        {
          "duration": 0.05263160000000511,
          "durationTicks": 14,
          "midi": 46,
          "name": "A#2",
          "ticks": 15360,
          "time": 57.744384,
          "velocity": 0.47244094488188976
        },
        {
          "duration": 0.05263160000000511,
          "durationTicks": 14,
          "midi": 46,
          "name": "A#2",
          "ticks": 15420,
          "time": 57.969947999999995,
          "velocity": 0.47244094488188976
        },
        {
          "duration": 0.05263160000000511,
          "durationTicks": 14,
          "midi": 46,
          "name": "A#2",
          "ticks": 15480,
          "time": 58.195511999999994,
          "velocity": 0.7874015748031497
        },
        {
          "duration": 0.05263160000000511,
          "durationTicks": 14,
          "midi": 36,
          "name": "C2",
          "ticks": 15480,
          "time": 58.195511999999994,
          "velocity": 0.7874015748031497
        },
        {
          "duration": 0.052631599999998,
          "durationTicks": 14,
          "midi": 46,
          "name": "A#2",
          "ticks": 15540,
          "time": 58.421076,
          "velocity": 0.47244094488188976
        },
        {
          "duration": 0.05263160000000511,
          "durationTicks": 14,
          "midi": 46,
          "name": "A#2",
          "ticks": 15600,
          "time": 58.64664,
          "velocity": 0.47244094488188976
        },
        {
          "duration": 0.05263160000000511,
          "durationTicks": 14,
          "midi": 46,
          "name": "A#2",
          "ticks": 15660,
          "time": 58.872203999999996,
          "velocity": 0.47244094488188976
        },
        {
          "duration": 0.05263160000000511,
          "durationTicks": 14,
          "midi": 46,
          "name": "A#2",
          "ticks": 15720,
          "time": 59.097767999999995,
          "velocity": 0.7874015748031497
        },
        {
          "duration": 0.05263160000000511,
          "durationTicks": 14,
          "midi": 36,
          "name": "C2",
          "ticks": 15720,
          "time": 59.097767999999995,
          "velocity": 0.7874015748031497
        },
        {
          "duration": 0.05263160000000511,
          "durationTicks": 14,
          "midi": 46,
          "name": "A#2",
          "ticks": 15780,
          "time": 59.32333199999999,
          "velocity": 0.47244094488188976
        },
        {
          "duration": 0.052631599999998,
          "durationTicks": 14,
          "midi": 43,
          "name": "G2",
          "ticks": 15840,
          "time": 59.548896,
          "velocity": 0.7874015748031497
        },
        {
          "duration": 0.052631599999998,
          "durationTicks": 14,
          "midi": 41,
          "name": "F2",
          "ticks": 15840,
          "time": 59.548896,
          "velocity": 0.3937007874015748
        },
        {
          "duration": 0.052631599999998,
          "durationTicks": 14,
          "midi": 36,
          "name": "C2",
          "ticks": 15840,
          "time": 59.548896,
          "velocity": 0.7874015748031497
        },
        {
          "duration": 0.052631599999998,
          "durationTicks": 14,
          "midi": 46,
          "name": "A#2",
          "ticks": 15840,
          "time": 59.548896,
          "velocity": 0.7874015748031497
        },
        {
          "duration": 0.05263160000000511,
          "durationTicks": 14,
          "midi": 43,
          "name": "G2",
          "ticks": 15960,
          "time": 60.000023999999996,
          "velocity": 0.7874015748031497
        },
        {
          "duration": 0.05263160000000511,
          "durationTicks": 14,
          "midi": 41,
          "name": "F2",
          "ticks": 15960,
          "time": 60.000023999999996,
          "velocity": 0.3937007874015748
        },
        {
          "duration": 0.05263160000000511,
          "durationTicks": 14,
          "midi": 46,
          "name": "A#2",
          "ticks": 15960,
          "time": 60.000023999999996,
          "velocity": 0.7874015748031497
        },
        {
          "duration": 0.05263160000000511,
          "durationTicks": 14,
          "midi": 36,
          "name": "C2",
          "ticks": 15960,
          "time": 60.000023999999996,
          "velocity": 0.7874015748031497
        },
        {
          "duration": 0.05263160000000511,
          "durationTicks": 14,
          "midi": 46,
          "name": "A#2",
          "ticks": 16020,
          "time": 60.225587999999995,
          "velocity": 0.31496062992125984
        },
        {
          "duration": 0.05263160000000511,
          "durationTicks": 14,
          "midi": 46,
          "name": "A#2",
          "ticks": 16080,
          "time": 60.45115199999999,
          "velocity": 0.47244094488188976
        },
        {
          "duration": 0.052631599999998,
          "durationTicks": 14,
          "midi": 46,
          "name": "A#2",
          "ticks": 16140,
          "time": 60.676716,
          "velocity": 0.47244094488188976
        },
        {
          "duration": 0.05263160000000511,
          "durationTicks": 14,
          "midi": 46,
          "name": "A#2",
          "ticks": 16200,
          "time": 60.90228,
          "velocity": 0.7874015748031497
        },
        {
          "duration": 0.05263160000000511,
          "durationTicks": 14,
          "midi": 36,
          "name": "C2",
          "ticks": 16200,
          "time": 60.90228,
          "velocity": 0.7874015748031497
        },
        {
          "duration": 0.05263160000000511,
          "durationTicks": 14,
          "midi": 46,
          "name": "A#2",
          "ticks": 16260,
          "time": 61.127843999999996,
          "velocity": 0.47244094488188976
        },
        {
          "duration": 0.05263160000000511,
          "durationTicks": 14,
          "midi": 46,
          "name": "A#2",
          "ticks": 16320,
          "time": 61.353407999999995,
          "velocity": 0.47244094488188976
        },
        {
          "duration": 0.05263160000000511,
          "durationTicks": 14,
          "midi": 46,
          "name": "A#2",
          "ticks": 16380,
          "time": 61.57897199999999,
          "velocity": 0.47244094488188976
        },
        {
          "duration": 0.052631599999998,
          "durationTicks": 14,
          "midi": 46,
          "name": "A#2",
          "ticks": 16440,
          "time": 61.804536,
          "velocity": 0.7874015748031497
        },
        {
          "duration": 0.052631599999998,
          "durationTicks": 14,
          "midi": 36,
          "name": "C2",
          "ticks": 16440,
          "time": 61.804536,
          "velocity": 0.7874015748031497
        },
        {
          "duration": 0.05263160000000511,
          "durationTicks": 14,
          "midi": 46,
          "name": "A#2",
          "ticks": 16500,
          "time": 62.0301,
          "velocity": 0.47244094488188976
        },
        {
          "duration": 0.05263160000000511,
          "durationTicks": 14,
          "midi": 46,
          "name": "A#2",
          "ticks": 16560,
          "time": 62.255663999999996,
          "velocity": 0.47244094488188976
        },
        {
          "duration": 0.05263160000000511,
          "durationTicks": 14,
          "midi": 46,
          "name": "A#2",
          "ticks": 16620,
          "time": 62.481227999999994,
          "velocity": 0.47244094488188976
        },
        {
          "duration": 0.05263160000000511,
          "durationTicks": 14,
          "midi": 46,
          "name": "A#2",
          "ticks": 16680,
          "time": 62.70679199999999,
          "velocity": 0.7874015748031497
        },
        {
          "duration": 0.05263160000000511,
          "durationTicks": 14,
          "midi": 36,
          "name": "C2",
          "ticks": 16680,
          "time": 62.70679199999999,
          "velocity": 0.7874015748031497
        },
        {
          "duration": 0.052631599999998,
          "durationTicks": 14,
          "midi": 46,
          "name": "A#2",
          "ticks": 16740,
          "time": 62.932356,
          "velocity": 0.47244094488188976
        },
        {
          "duration": 0.05263160000000511,
          "durationTicks": 14,
          "midi": 43,
          "name": "G2",
          "ticks": 16800,
          "time": 63.15792,
          "velocity": 0.7874015748031497
        },
        {
          "duration": 0.05263160000000511,
          "durationTicks": 14,
          "midi": 41,
          "name": "F2",
          "ticks": 16800,
          "time": 63.15792,
          "velocity": 0.3937007874015748
        },
        {
          "duration": 0.05263160000000511,
          "durationTicks": 14,
          "midi": 36,
          "name": "C2",
          "ticks": 16800,
          "time": 63.15792,
          "velocity": 0.7874015748031497
        },
        {
          "duration": 0.05263160000000511,
          "durationTicks": 14,
          "midi": 46,
          "name": "A#2",
          "ticks": 16800,
          "time": 63.15792,
          "velocity": 0.7874015748031497
        },
        {
          "duration": 0.05263160000000511,
          "durationTicks": 14,
          "midi": 43,
          "name": "G2",
          "ticks": 16920,
          "time": 63.609047999999994,
          "velocity": 0.7874015748031497
        },
        {
          "duration": 0.05263160000000511,
          "durationTicks": 14,
          "midi": 41,
          "name": "F2",
          "ticks": 16920,
          "time": 63.609047999999994,
          "velocity": 0.3937007874015748
        },
        {
          "duration": 0.05263160000000511,
          "durationTicks": 14,
          "midi": 46,
          "name": "A#2",
          "ticks": 16920,
          "time": 63.609047999999994,
          "velocity": 0.7874015748031497
        },
        {
          "duration": 0.05263160000000511,
          "durationTicks": 14,
          "midi": 36,
          "name": "C2",
          "ticks": 16920,
          "time": 63.609047999999994,
          "velocity": 0.7874015748031497
        },
        {
          "duration": 0.05263160000000511,
          "durationTicks": 14,
          "midi": 46,
          "name": "A#2",
          "ticks": 16980,
          "time": 63.83461199999999,
          "velocity": 0.31496062992125984
        },
        {
          "duration": 0.052631599999998,
          "durationTicks": 14,
          "midi": 46,
          "name": "A#2",
          "ticks": 17040,
          "time": 64.060176,
          "velocity": 0.47244094488188976
        },
        {
          "duration": 0.05263160000001221,
          "durationTicks": 14,
          "midi": 46,
          "name": "A#2",
          "ticks": 17100,
          "time": 64.28573999999999,
          "velocity": 0.47244094488188976
        },
        {
          "duration": 0.052631599999998,
          "durationTicks": 14,
          "midi": 46,
          "name": "A#2",
          "ticks": 17160,
          "time": 64.511304,
          "velocity": 0.7874015748031497
        },
        {
          "duration": 0.052631599999998,
          "durationTicks": 14,
          "midi": 36,
          "name": "C2",
          "ticks": 17160,
          "time": 64.511304,
          "velocity": 0.7874015748031497
        },
        {
          "duration": 0.052631599999998,
          "durationTicks": 14,
          "midi": 46,
          "name": "A#2",
          "ticks": 17220,
          "time": 64.736868,
          "velocity": 0.47244094488188976
        },
        {
          "duration": 0.05263160000001221,
          "durationTicks": 14,
          "midi": 46,
          "name": "A#2",
          "ticks": 17280,
          "time": 64.96243199999999,
          "velocity": 0.47244094488188976
        },
        {
          "duration": 0.052631599999998,
          "durationTicks": 14,
          "midi": 46,
          "name": "A#2",
          "ticks": 17340,
          "time": 65.187996,
          "velocity": 0.47244094488188976
        },
        {
          "duration": 0.05263160000001221,
          "durationTicks": 14,
          "midi": 46,
          "name": "A#2",
          "ticks": 17400,
          "time": 65.41355999999999,
          "velocity": 0.7874015748031497
        },
        {
          "duration": 0.05263160000001221,
          "durationTicks": 14,
          "midi": 36,
          "name": "C2",
          "ticks": 17400,
          "time": 65.41355999999999,
          "velocity": 0.7874015748031497
        },
        {
          "duration": 0.052631599999998,
          "durationTicks": 14,
          "midi": 46,
          "name": "A#2",
          "ticks": 17460,
          "time": 65.639124,
          "velocity": 0.47244094488188976
        },
        {
          "duration": 0.052631599999998,
          "durationTicks": 14,
          "midi": 46,
          "name": "A#2",
          "ticks": 17520,
          "time": 65.864688,
          "velocity": 0.47244094488188976
        },
        {
          "duration": 0.05263160000001221,
          "durationTicks": 14,
          "midi": 46,
          "name": "A#2",
          "ticks": 17580,
          "time": 66.09025199999999,
          "velocity": 0.47244094488188976
        },
        {
          "duration": 0.052631599999998,
          "durationTicks": 14,
          "midi": 46,
          "name": "A#2",
          "ticks": 17640,
          "time": 66.315816,
          "velocity": 0.7874015748031497
        },
        {
          "duration": 0.052631599999998,
          "durationTicks": 14,
          "midi": 36,
          "name": "C2",
          "ticks": 17640,
          "time": 66.315816,
          "velocity": 0.7874015748031497
        },
        {
          "duration": 0.05263160000001221,
          "durationTicks": 14,
          "midi": 46,
          "name": "A#2",
          "ticks": 17700,
          "time": 66.54137999999999,
          "velocity": 0.47244094488188976
        },
        {
          "duration": 0.052631599999998,
          "durationTicks": 14,
          "midi": 43,
          "name": "G2",
          "ticks": 17760,
          "time": 66.766944,
          "velocity": 0.7874015748031497
        },
        {
          "duration": 0.052631599999998,
          "durationTicks": 14,
          "midi": 41,
          "name": "F2",
          "ticks": 17760,
          "time": 66.766944,
          "velocity": 0.3937007874015748
        },
        {
          "duration": 0.052631599999998,
          "durationTicks": 14,
          "midi": 36,
          "name": "C2",
          "ticks": 17760,
          "time": 66.766944,
          "velocity": 0.7874015748031497
        },
        {
          "duration": 0.052631599999998,
          "durationTicks": 14,
          "midi": 46,
          "name": "A#2",
          "ticks": 17760,
          "time": 66.766944,
          "velocity": 0.7874015748031497
        },
        {
          "duration": 0.05263160000001221,
          "durationTicks": 14,
          "midi": 43,
          "name": "G2",
          "ticks": 17880,
          "time": 67.21807199999999,
          "velocity": 0.7874015748031497
        },
        {
          "duration": 0.05263160000001221,
          "durationTicks": 14,
          "midi": 41,
          "name": "F2",
          "ticks": 17880,
          "time": 67.21807199999999,
          "velocity": 0.3937007874015748
        },
        {
          "duration": 0.05263160000001221,
          "durationTicks": 14,
          "midi": 46,
          "name": "A#2",
          "ticks": 17880,
          "time": 67.21807199999999,
          "velocity": 0.7874015748031497
        },
        {
          "duration": 0.05263160000001221,
          "durationTicks": 14,
          "midi": 36,
          "name": "C2",
          "ticks": 17880,
          "time": 67.21807199999999,
          "velocity": 0.7874015748031497
        },
        {
          "duration": 0.052631599999998,
          "durationTicks": 14,
          "midi": 46,
          "name": "A#2",
          "ticks": 17940,
          "time": 67.443636,
          "velocity": 0.31496062992125984
        },
        {
          "duration": 0.05263160000001221,
          "durationTicks": 14,
          "midi": 46,
          "name": "A#2",
          "ticks": 18000,
          "time": 67.66919999999999,
          "velocity": 0.47244094488188976
        },
        {
          "duration": 0.052631599999998,
          "durationTicks": 14,
          "midi": 46,
          "name": "A#2",
          "ticks": 18060,
          "time": 67.894764,
          "velocity": 0.47244094488188976
        },
        {
          "duration": 0.052631599999998,
          "durationTicks": 14,
          "midi": 46,
          "name": "A#2",
          "ticks": 18120,
          "time": 68.120328,
          "velocity": 0.7874015748031497
        },
        {
          "duration": 0.052631599999998,
          "durationTicks": 14,
          "midi": 36,
          "name": "C2",
          "ticks": 18120,
          "time": 68.120328,
          "velocity": 0.7874015748031497
        },
        {
          "duration": 0.05263160000001221,
          "durationTicks": 14,
          "midi": 46,
          "name": "A#2",
          "ticks": 18180,
          "time": 68.34589199999999,
          "velocity": 0.47244094488188976
        },
        {
          "duration": 0.052631599999998,
          "durationTicks": 14,
          "midi": 46,
          "name": "A#2",
          "ticks": 18240,
          "time": 68.571456,
          "velocity": 0.47244094488188976
        },
        {
          "duration": 0.05263160000001221,
          "durationTicks": 14,
          "midi": 46,
          "name": "A#2",
          "ticks": 18300,
          "time": 68.79701999999999,
          "velocity": 0.47244094488188976
        },
        {
          "duration": 0.052631599999998,
          "durationTicks": 14,
          "midi": 46,
          "name": "A#2",
          "ticks": 18360,
          "time": 69.022584,
          "velocity": 0.7874015748031497
        },
        {
          "duration": 0.052631599999998,
          "durationTicks": 14,
          "midi": 36,
          "name": "C2",
          "ticks": 18360,
          "time": 69.022584,
          "velocity": 0.7874015748031497
        },
        {
          "duration": 0.052631599999998,
          "durationTicks": 14,
          "midi": 46,
          "name": "A#2",
          "ticks": 18420,
          "time": 69.248148,
          "velocity": 0.47244094488188976
        },
        {
          "duration": 0.05263160000001221,
          "durationTicks": 14,
          "midi": 46,
          "name": "A#2",
          "ticks": 18480,
          "time": 69.47371199999999,
          "velocity": 0.47244094488188976
        },
        {
          "duration": 0.052631599999998,
          "durationTicks": 14,
          "midi": 46,
          "name": "A#2",
          "ticks": 18540,
          "time": 69.699276,
          "velocity": 0.47244094488188976
        },
        {
          "duration": 0.05263160000001221,
          "durationTicks": 14,
          "midi": 46,
          "name": "A#2",
          "ticks": 18600,
          "time": 69.92483999999999,
          "velocity": 0.7874015748031497
        },
        {
          "duration": 0.05263160000001221,
          "durationTicks": 14,
          "midi": 36,
          "name": "C2",
          "ticks": 18600,
          "time": 69.92483999999999,
          "velocity": 0.7874015748031497
        },
        {
          "duration": 0.052631599999998,
          "durationTicks": 14,
          "midi": 46,
          "name": "A#2",
          "ticks": 18660,
          "time": 70.150404,
          "velocity": 0.47244094488188976
        },
        {
          "duration": 0.052631599999998,
          "durationTicks": 14,
          "midi": 43,
          "name": "G2",
          "ticks": 18720,
          "time": 70.375968,
          "velocity": 0.7874015748031497
        },
        {
          "duration": 0.052631599999998,
          "durationTicks": 14,
          "midi": 41,
          "name": "F2",
          "ticks": 18720,
          "time": 70.375968,
          "velocity": 0.3937007874015748
        },
        {
          "duration": 0.052631599999998,
          "durationTicks": 14,
          "midi": 36,
          "name": "C2",
          "ticks": 18720,
          "time": 70.375968,
          "velocity": 0.7874015748031497
        },
        {
          "duration": 0.052631599999998,
          "durationTicks": 14,
          "midi": 46,
          "name": "A#2",
          "ticks": 18720,
          "time": 70.375968,
          "velocity": 0.7874015748031497
        },
        {
          "duration": 0.052631599999998,
          "durationTicks": 14,
          "midi": 43,
          "name": "G2",
          "ticks": 18840,
          "time": 70.827096,
          "velocity": 0.7874015748031497
        },
        {
          "duration": 0.052631599999998,
          "durationTicks": 14,
          "midi": 41,
          "name": "F2",
          "ticks": 18840,
          "time": 70.827096,
          "velocity": 0.3937007874015748
        },
        {
          "duration": 0.052631599999998,
          "durationTicks": 14,
          "midi": 46,
          "name": "A#2",
          "ticks": 18840,
          "time": 70.827096,
          "velocity": 0.7874015748031497
        },
        {
          "duration": 0.052631599999998,
          "durationTicks": 14,
          "midi": 36,
          "name": "C2",
          "ticks": 18840,
          "time": 70.827096,
          "velocity": 0.7874015748031497
        },
        {
          "duration": 0.05263160000001221,
          "durationTicks": 14,
          "midi": 46,
          "name": "A#2",
          "ticks": 18900,
          "time": 71.05265999999999,
          "velocity": 0.31496062992125984
        },
        {
          "duration": 0.052631599999998,
          "durationTicks": 14,
          "midi": 46,
          "name": "A#2",
          "ticks": 18960,
          "time": 71.278224,
          "velocity": 0.47244094488188976
        },
        {
          "duration": 0.052631599999998,
          "durationTicks": 14,
          "midi": 46,
          "name": "A#2",
          "ticks": 19020,
          "time": 71.503788,
          "velocity": 0.47244094488188976
        },
        {
          "duration": 0.05263160000001221,
          "durationTicks": 14,
          "midi": 46,
          "name": "A#2",
          "ticks": 19080,
          "time": 71.72935199999999,
          "velocity": 0.7874015748031497
        },
        {
          "duration": 0.05263160000001221,
          "durationTicks": 14,
          "midi": 36,
          "name": "C2",
          "ticks": 19080,
          "time": 71.72935199999999,
          "velocity": 0.7874015748031497
        },
        {
          "duration": 0.052631599999998,
          "durationTicks": 14,
          "midi": 46,
          "name": "A#2",
          "ticks": 19140,
          "time": 71.954916,
          "velocity": 0.47244094488188976
        },
        {
          "duration": 0.05263160000001221,
          "durationTicks": 14,
          "midi": 46,
          "name": "A#2",
          "ticks": 19200,
          "time": 72.18047999999999,
          "velocity": 0.47244094488188976
        },
        {
          "duration": 0.052631599999998,
          "durationTicks": 14,
          "midi": 46,
          "name": "A#2",
          "ticks": 19260,
          "time": 72.406044,
          "velocity": 0.47244094488188976
        },
        {
          "duration": 0.052631599999998,
          "durationTicks": 14,
          "midi": 46,
          "name": "A#2",
          "ticks": 19320,
          "time": 72.631608,
          "velocity": 0.7874015748031497
        },
        {
          "duration": 0.052631599999998,
          "durationTicks": 14,
          "midi": 36,
          "name": "C2",
          "ticks": 19320,
          "time": 72.631608,
          "velocity": 0.7874015748031497
        },
        {
          "duration": 0.05263160000001221,
          "durationTicks": 14,
          "midi": 46,
          "name": "A#2",
          "ticks": 19380,
          "time": 72.85717199999999,
          "velocity": 0.47244094488188976
        },
        {
          "duration": 0.052631599999998,
          "durationTicks": 14,
          "midi": 46,
          "name": "A#2",
          "ticks": 19440,
          "time": 73.082736,
          "velocity": 0.47244094488188976
        },
        {
          "duration": 0.052631599999998,
          "durationTicks": 14,
          "midi": 46,
          "name": "A#2",
          "ticks": 19500,
          "time": 73.3083,
          "velocity": 0.47244094488188976
        },
        {
          "duration": 0.052631599999998,
          "durationTicks": 14,
          "midi": 46,
          "name": "A#2",
          "ticks": 19560,
          "time": 73.533864,
          "velocity": 0.7874015748031497
        },
        {
          "duration": 0.052631599999998,
          "durationTicks": 14,
          "midi": 36,
          "name": "C2",
          "ticks": 19560,
          "time": 73.533864,
          "velocity": 0.7874015748031497
        },
        {
          "duration": 0.052631599999998,
          "durationTicks": 14,
          "midi": 46,
          "name": "A#2",
          "ticks": 19620,
          "time": 73.759428,
          "velocity": 0.47244094488188976
        },
        {
          "duration": 0.05263160000001221,
          "durationTicks": 14,
          "midi": 46,
          "name": "A#2",
          "ticks": 19680,
          "time": 73.98499199999999,
          "velocity": 0.47244094488188976
        },
        {
          "duration": 0.052631599999998,
          "durationTicks": 14,
          "midi": 46,
          "name": "A#2",
          "ticks": 19740,
          "time": 74.210556,
          "velocity": 0.47244094488188976
        },
        {
          "duration": 0.052631599999998,
          "durationTicks": 14,
          "midi": 46,
          "name": "A#2",
          "ticks": 19800,
          "time": 74.43612,
          "velocity": 0.7874015748031497
        },
        {
          "duration": 0.052631599999998,
          "durationTicks": 14,
          "midi": 36,
          "name": "C2",
          "ticks": 19800,
          "time": 74.43612,
          "velocity": 0.7874015748031497
        },
        {
          "duration": 0.052631599999998,
          "durationTicks": 14,
          "midi": 46,
          "name": "A#2",
          "ticks": 19860,
          "time": 74.661684,
          "velocity": 0.47244094488188976
        },
        {
          "duration": 0.052631599999998,
          "durationTicks": 14,
          "midi": 46,
          "name": "A#2",
          "ticks": 19920,
          "time": 74.887248,
          "velocity": 0.47244094488188976
        },
        {
          "duration": 0.05263160000001221,
          "durationTicks": 14,
          "midi": 46,
          "name": "A#2",
          "ticks": 19980,
          "time": 75.11281199999999,
          "velocity": 0.47244094488188976
        },
        {
          "duration": 0.052631599999998,
          "durationTicks": 14,
          "midi": 46,
          "name": "A#2",
          "ticks": 20040,
          "time": 75.338376,
          "velocity": 0.7874015748031497
        },
        {
          "duration": 0.052631599999998,
          "durationTicks": 14,
          "midi": 36,
          "name": "C2",
          "ticks": 20040,
          "time": 75.338376,
          "velocity": 0.7874015748031497
        },
        {
          "duration": 0.052631599999998,
          "durationTicks": 14,
          "midi": 46,
          "name": "A#2",
          "ticks": 20100,
          "time": 75.56394,
          "velocity": 0.47244094488188976
        },
        {
          "duration": 0.05263160000001221,
          "durationTicks": 14,
          "midi": 46,
          "name": "A#2",
          "ticks": 20160,
          "time": 75.789504,
          "velocity": 0.47244094488188976
        },
        {
          "duration": 0.052631599999998,
          "durationTicks": 14,
          "midi": 46,
          "name": "A#2",
          "ticks": 20220,
          "time": 76.015068,
          "velocity": 0.47244094488188976
        },
        {
          "duration": 0.05263160000001221,
          "durationTicks": 14,
          "midi": 46,
          "name": "A#2",
          "ticks": 20280,
          "time": 76.24063199999999,
          "velocity": 0.7874015748031497
        },
        {
          "duration": 0.05263160000001221,
          "durationTicks": 14,
          "midi": 36,
          "name": "C2",
          "ticks": 20280,
          "time": 76.24063199999999,
          "velocity": 0.7874015748031497
        },
        {
          "duration": 0.052631599999998,
          "durationTicks": 14,
          "midi": 46,
          "name": "A#2",
          "ticks": 20340,
          "time": 76.466196,
          "velocity": 0.47244094488188976
        },
        {
          "duration": 0.052631599999998,
          "durationTicks": 14,
          "midi": 46,
          "name": "A#2",
          "ticks": 20400,
          "time": 76.69176,
          "velocity": 0.47244094488188976
        },
        {
          "duration": 0.05263160000001221,
          "durationTicks": 14,
          "midi": 46,
          "name": "A#2",
          "ticks": 20460,
          "time": 76.917324,
          "velocity": 0.47244094488188976
        },
        {
          "duration": 0.052631599999998,
          "durationTicks": 14,
          "midi": 46,
          "name": "A#2",
          "ticks": 20520,
          "time": 77.142888,
          "velocity": 0.7874015748031497
        },
        {
          "duration": 0.052631599999998,
          "durationTicks": 14,
          "midi": 36,
          "name": "C2",
          "ticks": 20520,
          "time": 77.142888,
          "velocity": 0.7874015748031497
        },
        {
          "duration": 0.05263160000001221,
          "durationTicks": 14,
          "midi": 46,
          "name": "A#2",
          "ticks": 20580,
          "time": 77.36845199999999,
          "velocity": 0.47244094488188976
        },
        {
          "duration": 0.052631599999998,
          "durationTicks": 14,
          "midi": 46,
          "name": "A#2",
          "ticks": 20640,
          "time": 77.594016,
          "velocity": 0.47244094488188976
        },
        {
          "duration": 0.052631599999998,
          "durationTicks": 14,
          "midi": 46,
          "name": "A#2",
          "ticks": 20700,
          "time": 77.81958,
          "velocity": 0.47244094488188976
        },
        {
          "duration": 0.05263160000001221,
          "durationTicks": 14,
          "midi": 46,
          "name": "A#2",
          "ticks": 20760,
          "time": 78.045144,
          "velocity": 0.7874015748031497
        },
        {
          "duration": 0.05263160000001221,
          "durationTicks": 14,
          "midi": 36,
          "name": "C2",
          "ticks": 20760,
          "time": 78.045144,
          "velocity": 0.7874015748031497
        },
        {
          "duration": 0.052631599999998,
          "durationTicks": 14,
          "midi": 46,
          "name": "A#2",
          "ticks": 20820,
          "time": 78.270708,
          "velocity": 0.47244094488188976
        },
        {
          "duration": 0.05263160000001221,
          "durationTicks": 14,
          "midi": 46,
          "name": "A#2",
          "ticks": 20880,
          "time": 78.49627199999999,
          "velocity": 0.47244094488188976
        },
        {
          "duration": 0.052631599999998,
          "durationTicks": 14,
          "midi": 46,
          "name": "A#2",
          "ticks": 20940,
          "time": 78.721836,
          "velocity": 0.47244094488188976
        },
        {
          "duration": 0.052631599999998,
          "durationTicks": 14,
          "midi": 46,
          "name": "A#2",
          "ticks": 21000,
          "time": 78.9474,
          "velocity": 0.7874015748031497
        },
        {
          "duration": 0.052631599999998,
          "durationTicks": 14,
          "midi": 36,
          "name": "C2",
          "ticks": 21000,
          "time": 78.9474,
          "velocity": 0.7874015748031497
        },
        {
          "duration": 0.05263160000001221,
          "durationTicks": 14,
          "midi": 46,
          "name": "A#2",
          "ticks": 21060,
          "time": 79.172964,
          "velocity": 0.47244094488188976
        },
        {
          "duration": 0.052631599999998,
          "durationTicks": 14,
          "midi": 46,
          "name": "A#2",
          "ticks": 21120,
          "time": 79.398528,
          "velocity": 0.47244094488188976
        },
        {
          "duration": 0.05263160000001221,
          "durationTicks": 14,
          "midi": 46,
          "name": "A#2",
          "ticks": 21180,
          "time": 79.62409199999999,
          "velocity": 0.47244094488188976
        },
        {
          "duration": 0.052631599999998,
          "durationTicks": 14,
          "midi": 46,
          "name": "A#2",
          "ticks": 21240,
          "time": 79.849656,
          "velocity": 0.7874015748031497
        },
        {
          "duration": 0.052631599999998,
          "durationTicks": 14,
          "midi": 36,
          "name": "C2",
          "ticks": 21240,
          "time": 79.849656,
          "velocity": 0.7874015748031497
        },
        {
          "duration": 0.052631599999998,
          "durationTicks": 14,
          "midi": 46,
          "name": "A#2",
          "ticks": 21300,
          "time": 80.07522,
          "velocity": 0.47244094488188976
        },
        {
          "duration": 0.05263160000001221,
          "durationTicks": 14,
          "midi": 46,
          "name": "A#2",
          "ticks": 21360,
          "time": 80.300784,
          "velocity": 0.47244094488188976
        },
        {
          "duration": 0.052631599999998,
          "durationTicks": 14,
          "midi": 46,
          "name": "A#2",
          "ticks": 21420,
          "time": 80.526348,
          "velocity": 0.47244094488188976
        },
        {
          "duration": 0.05263160000001221,
          "durationTicks": 14,
          "midi": 46,
          "name": "A#2",
          "ticks": 21480,
          "time": 80.75191199999999,
          "velocity": 0.7874015748031497
        },
        {
          "duration": 0.05263160000001221,
          "durationTicks": 14,
          "midi": 36,
          "name": "C2",
          "ticks": 21480,
          "time": 80.75191199999999,
          "velocity": 0.7874015748031497
        },
        {
          "duration": 0.052631599999998,
          "durationTicks": 14,
          "midi": 46,
          "name": "A#2",
          "ticks": 21540,
          "time": 80.977476,
          "velocity": 0.47244094488188976
        },
        {
          "duration": 0.052631599999998,
          "durationTicks": 14,
          "midi": 46,
          "name": "A#2",
          "ticks": 21600,
          "time": 81.20304,
          "velocity": 0.47244094488188976
        },
        {
          "duration": 0.05263160000001221,
          "durationTicks": 14,
          "midi": 46,
          "name": "A#2",
          "ticks": 21660,
          "time": 81.42860399999999,
          "velocity": 0.47244094488188976
        },
        {
          "duration": 0.052631599999998,
          "durationTicks": 14,
          "midi": 46,
          "name": "A#2",
          "ticks": 21720,
          "time": 81.654168,
          "velocity": 0.7874015748031497
        },
        {
          "duration": 0.052631599999998,
          "durationTicks": 14,
          "midi": 36,
          "name": "C2",
          "ticks": 21720,
          "time": 81.654168,
          "velocity": 0.7874015748031497
        },
        {
          "duration": 0.05263160000001221,
          "durationTicks": 14,
          "midi": 46,
          "name": "A#2",
          "ticks": 21780,
          "time": 81.87973199999999,
          "velocity": 0.47244094488188976
        },
        {
          "duration": 0.052631599999998,
          "durationTicks": 14,
          "midi": 46,
          "name": "A#2",
          "ticks": 21840,
          "time": 82.105296,
          "velocity": 0.47244094488188976
        },
        {
          "duration": 0.052631599999998,
          "durationTicks": 14,
          "midi": 46,
          "name": "A#2",
          "ticks": 21900,
          "time": 82.33086,
          "velocity": 0.47244094488188976
        },
        {
          "duration": 0.05263160000001221,
          "durationTicks": 14,
          "midi": 46,
          "name": "A#2",
          "ticks": 21960,
          "time": 82.55642399999999,
          "velocity": 0.7874015748031497
        },
        {
          "duration": 0.05263160000001221,
          "durationTicks": 14,
          "midi": 36,
          "name": "C2",
          "ticks": 21960,
          "time": 82.55642399999999,
          "velocity": 0.7874015748031497
        },
        {
          "duration": 0.052631599999998,
          "durationTicks": 14,
          "midi": 46,
          "name": "A#2",
          "ticks": 22020,
          "time": 82.781988,
          "velocity": 0.47244094488188976
        },
        {
          "duration": 0.05263160000001221,
          "durationTicks": 14,
          "midi": 46,
          "name": "A#2",
          "ticks": 22080,
          "time": 83.00755199999999,
          "velocity": 0.47244094488188976
        },
        {
          "duration": 0.052631599999998,
          "durationTicks": 14,
          "midi": 46,
          "name": "A#2",
          "ticks": 22140,
          "time": 83.233116,
          "velocity": 0.47244094488188976
        },
        {
          "duration": 0.052631599999998,
          "durationTicks": 14,
          "midi": 46,
          "name": "A#2",
          "ticks": 22200,
          "time": 83.45868,
          "velocity": 0.7874015748031497
        },
        {
          "duration": 0.052631599999998,
          "durationTicks": 14,
          "midi": 36,
          "name": "C2",
          "ticks": 22200,
          "time": 83.45868,
          "velocity": 0.7874015748031497
        },
        {
          "duration": 0.05263160000001221,
          "durationTicks": 14,
          "midi": 46,
          "name": "A#2",
          "ticks": 22260,
          "time": 83.68424399999999,
          "velocity": 0.47244094488188976
        },
        {
          "duration": 0.052631599999998,
          "durationTicks": 14,
          "midi": 46,
          "name": "A#2",
          "ticks": 22320,
          "time": 83.909808,
          "velocity": 0.47244094488188976
        },
        {
          "duration": 0.05263160000001221,
          "durationTicks": 14,
          "midi": 46,
          "name": "A#2",
          "ticks": 22380,
          "time": 84.13537199999999,
          "velocity": 0.47244094488188976
        },
        {
          "duration": 0.052631599999998,
          "durationTicks": 14,
          "midi": 46,
          "name": "A#2",
          "ticks": 22440,
          "time": 84.360936,
          "velocity": 0.7874015748031497
        },
        {
          "duration": 0.052631599999998,
          "durationTicks": 14,
          "midi": 36,
          "name": "C2",
          "ticks": 22440,
          "time": 84.360936,
          "velocity": 0.7874015748031497
        },
        {
          "duration": 0.052631599999998,
          "durationTicks": 14,
          "midi": 46,
          "name": "A#2",
          "ticks": 22500,
          "time": 84.5865,
          "velocity": 0.47244094488188976
        },
        {
          "duration": 0.05263160000001221,
          "durationTicks": 14,
          "midi": 46,
          "name": "A#2",
          "ticks": 22560,
          "time": 84.81206399999999,
          "velocity": 0.47244094488188976
        },
        {
          "duration": 0.052631599999998,
          "durationTicks": 14,
          "midi": 46,
          "name": "A#2",
          "ticks": 22620,
          "time": 85.037628,
          "velocity": 0.47244094488188976
        },
        {
          "duration": 0.05263160000001221,
          "durationTicks": 14,
          "midi": 46,
          "name": "A#2",
          "ticks": 22680,
          "time": 85.26319199999999,
          "velocity": 0.7874015748031497
        },
        {
          "duration": 0.05263160000001221,
          "durationTicks": 14,
          "midi": 36,
          "name": "C2",
          "ticks": 22680,
          "time": 85.26319199999999,
          "velocity": 0.7874015748031497
        },
        {
          "duration": 0.052631599999998,
          "durationTicks": 14,
          "midi": 46,
          "name": "A#2",
          "ticks": 22740,
          "time": 85.488756,
          "velocity": 0.47244094488188976
        },
        {
          "duration": 0.052631599999998,
          "durationTicks": 14,
          "midi": 46,
          "name": "A#2",
          "ticks": 22800,
          "time": 85.71432,
          "velocity": 0.47244094488188976
        },
        {
          "duration": 0.05263160000001221,
          "durationTicks": 14,
          "midi": 46,
          "name": "A#2",
          "ticks": 22860,
          "time": 85.93988399999999,
          "velocity": 0.47244094488188976
        },
        {
          "duration": 0.052631599999998,
          "durationTicks": 14,
          "midi": 46,
          "name": "A#2",
          "ticks": 22920,
          "time": 86.165448,
          "velocity": 0.7874015748031497
        },
        {
          "duration": 0.052631599999998,
          "durationTicks": 14,
          "midi": 36,
          "name": "C2",
          "ticks": 22920,
          "time": 86.165448,
          "velocity": 0.7874015748031497
        },
        {
          "duration": 0.05263160000001221,
          "durationTicks": 14,
          "midi": 46,
          "name": "A#2",
          "ticks": 22980,
          "time": 86.39101199999999,
          "velocity": 0.47244094488188976
        },
        {
          "duration": 0.052631599999998,
          "durationTicks": 14,
          "midi": 46,
          "name": "A#2",
          "ticks": 23040,
          "time": 86.616576,
          "velocity": 0.47244094488188976
        },
        {
          "duration": 0.052631599999998,
          "durationTicks": 14,
          "midi": 46,
          "name": "A#2",
          "ticks": 23100,
          "time": 86.84214,
          "velocity": 0.47244094488188976
        },
        {
          "duration": 0.05263160000001221,
          "durationTicks": 14,
          "midi": 46,
          "name": "A#2",
          "ticks": 23160,
          "time": 87.06770399999999,
          "velocity": 0.7874015748031497
        },
        {
          "duration": 0.05263160000001221,
          "durationTicks": 14,
          "midi": 36,
          "name": "C2",
          "ticks": 23160,
          "time": 87.06770399999999,
          "velocity": 0.7874015748031497
        },
        {
          "duration": 0.052631599999998,
          "durationTicks": 14,
          "midi": 46,
          "name": "A#2",
          "ticks": 23220,
          "time": 87.293268,
          "velocity": 0.47244094488188976
        },
        {
          "duration": 0.05263160000001221,
          "durationTicks": 14,
          "midi": 46,
          "name": "A#2",
          "ticks": 23280,
          "time": 87.51883199999999,
          "velocity": 0.47244094488188976
        },
        {
          "duration": 0.052631599999998,
          "durationTicks": 14,
          "midi": 46,
          "name": "A#2",
          "ticks": 23340,
          "time": 87.744396,
          "velocity": 0.47244094488188976
        },
        {
          "duration": 0.052631599999998,
          "durationTicks": 14,
          "midi": 46,
          "name": "A#2",
          "ticks": 23400,
          "time": 87.96996,
          "velocity": 0.7874015748031497
        },
        {
          "duration": 0.052631599999998,
          "durationTicks": 14,
          "midi": 36,
          "name": "C2",
          "ticks": 23400,
          "time": 87.96996,
          "velocity": 0.7874015748031497
        },
        {
          "duration": 0.05263160000001221,
          "durationTicks": 14,
          "midi": 46,
          "name": "A#2",
          "ticks": 23460,
          "time": 88.19552399999999,
          "velocity": 0.47244094488188976
        },
        {
          "duration": 0.052631599999998,
          "durationTicks": 14,
          "midi": 46,
          "name": "A#2",
          "ticks": 23520,
          "time": 88.421088,
          "velocity": 0.47244094488188976
        },
        {
          "duration": 0.05263160000001221,
          "durationTicks": 14,
          "midi": 46,
          "name": "A#2",
          "ticks": 23580,
          "time": 88.64665199999999,
          "velocity": 0.47244094488188976
        },
        {
          "duration": 0.052631599999998,
          "durationTicks": 14,
          "midi": 46,
          "name": "A#2",
          "ticks": 23640,
          "time": 88.872216,
          "velocity": 0.7874015748031497
        },
        {
          "duration": 0.052631599999998,
          "durationTicks": 14,
          "midi": 36,
          "name": "C2",
          "ticks": 23640,
          "time": 88.872216,
          "velocity": 0.7874015748031497
        },
        {
          "duration": 0.052631599999998,
          "durationTicks": 14,
          "midi": 46,
          "name": "A#2",
          "ticks": 23700,
          "time": 89.09778,
          "velocity": 0.47244094488188976
        },
        {
          "duration": 0.05263160000001221,
          "durationTicks": 14,
          "midi": 46,
          "name": "A#2",
          "ticks": 23760,
          "time": 89.32334399999999,
          "velocity": 0.47244094488188976
        },
        {
          "duration": 0.052631599999998,
          "durationTicks": 14,
          "midi": 46,
          "name": "A#2",
          "ticks": 23820,
          "time": 89.548908,
          "velocity": 0.47244094488188976
        },
        {
          "duration": 0.05263160000001221,
          "durationTicks": 14,
          "midi": 46,
          "name": "A#2",
          "ticks": 23880,
          "time": 89.77447199999999,
          "velocity": 0.7874015748031497
        },
        {
          "duration": 0.05263160000001221,
          "durationTicks": 14,
          "midi": 36,
          "name": "C2",
          "ticks": 23880,
          "time": 89.77447199999999,
          "velocity": 0.7874015748031497
        },
        {
          "duration": 0.052631599999998,
          "durationTicks": 14,
          "midi": 46,
          "name": "A#2",
          "ticks": 23940,
          "time": 90.000036,
          "velocity": 0.47244094488188976
        },
        {
          "duration": 0.052631599999998,
          "durationTicks": 14,
          "midi": 46,
          "name": "A#2",
          "ticks": 24000,
          "time": 90.2256,
          "velocity": 0.47244094488188976
        },
        {
          "duration": 0.05263160000001221,
          "durationTicks": 14,
          "midi": 46,
          "name": "A#2",
          "ticks": 24060,
          "time": 90.45116399999999,
          "velocity": 0.47244094488188976
        },
        {
          "duration": 0.052631599999998,
          "durationTicks": 14,
          "midi": 46,
          "name": "A#2",
          "ticks": 24120,
          "time": 90.676728,
          "velocity": 0.7874015748031497
        },
        {
          "duration": 0.052631599999998,
          "durationTicks": 14,
          "midi": 36,
          "name": "C2",
          "ticks": 24120,
          "time": 90.676728,
          "velocity": 0.7874015748031497
        },
        {
          "duration": 0.05263160000001221,
          "durationTicks": 14,
          "midi": 46,
          "name": "A#2",
          "ticks": 24180,
          "time": 90.90229199999999,
          "velocity": 0.47244094488188976
        },
        {
          "duration": 0.052631599999998,
          "durationTicks": 14,
          "midi": 46,
          "name": "A#2",
          "ticks": 24240,
          "time": 91.127856,
          "velocity": 0.47244094488188976
        },
        {
          "duration": 0.052631599999998,
          "durationTicks": 14,
          "midi": 46,
          "name": "A#2",
          "ticks": 24300,
          "time": 91.35342,
          "velocity": 0.47244094488188976
        },
        {
          "duration": 0.05263160000001221,
          "durationTicks": 14,
          "midi": 46,
          "name": "A#2",
          "ticks": 24360,
          "time": 91.57898399999999,
          "velocity": 0.7874015748031497
        },
        {
          "duration": 0.05263160000001221,
          "durationTicks": 14,
          "midi": 36,
          "name": "C2",
          "ticks": 24360,
          "time": 91.57898399999999,
          "velocity": 0.7874015748031497
        },
        {
          "duration": 0.052631599999998,
          "durationTicks": 14,
          "midi": 46,
          "name": "A#2",
          "ticks": 24420,
          "time": 91.804548,
          "velocity": 0.47244094488188976
        },
        {
          "duration": 0.05263160000001221,
          "durationTicks": 14,
          "midi": 46,
          "name": "A#2",
          "ticks": 24480,
          "time": 92.03011199999999,
          "velocity": 0.47244094488188976
        },
        {
          "duration": 0.052631599999998,
          "durationTicks": 14,
          "midi": 46,
          "name": "A#2",
          "ticks": 24540,
          "time": 92.255676,
          "velocity": 0.47244094488188976
        },
        {
          "duration": 0.052631599999998,
          "durationTicks": 14,
          "midi": 46,
          "name": "A#2",
          "ticks": 24600,
          "time": 92.48124,
          "velocity": 0.7874015748031497
        },
        {
          "duration": 0.052631599999998,
          "durationTicks": 14,
          "midi": 36,
          "name": "C2",
          "ticks": 24600,
          "time": 92.48124,
          "velocity": 0.7874015748031497
        },
        {
          "duration": 0.05263160000001221,
          "durationTicks": 14,
          "midi": 46,
          "name": "A#2",
          "ticks": 24660,
          "time": 92.70680399999999,
          "velocity": 0.47244094488188976
        },
        {
          "duration": 0.052631599999998,
          "durationTicks": 14,
          "midi": 46,
          "name": "A#2",
          "ticks": 24720,
          "time": 92.932368,
          "velocity": 0.47244094488188976
        },
        {
          "duration": 0.05263160000001221,
          "durationTicks": 14,
          "midi": 46,
          "name": "A#2",
          "ticks": 24780,
          "time": 93.15793199999999,
          "velocity": 0.47244094488188976
        },
        {
          "duration": 0.052631599999998,
          "durationTicks": 14,
          "midi": 46,
          "name": "A#2",
          "ticks": 24840,
          "time": 93.383496,
          "velocity": 0.7874015748031497
        },
        {
          "duration": 0.052631599999998,
          "durationTicks": 14,
          "midi": 36,
          "name": "C2",
          "ticks": 24840,
          "time": 93.383496,
          "velocity": 0.7874015748031497
        },
        {
          "duration": 0.052631599999998,
          "durationTicks": 14,
          "midi": 46,
          "name": "A#2",
          "ticks": 24900,
          "time": 93.60906,
          "velocity": 0.47244094488188976
        },
        {
          "duration": 0.05263160000001221,
          "durationTicks": 14,
          "midi": 46,
          "name": "A#2",
          "ticks": 24960,
          "time": 93.83462399999999,
          "velocity": 0.47244094488188976
        },
        {
          "duration": 0.052631599999998,
          "durationTicks": 14,
          "midi": 46,
          "name": "A#2",
          "ticks": 25020,
          "time": 94.060188,
          "velocity": 0.47244094488188976
        },
        {
          "duration": 0.05263160000001221,
          "durationTicks": 14,
          "midi": 46,
          "name": "A#2",
          "ticks": 25080,
          "time": 94.28575199999999,
          "velocity": 0.7874015748031497
        },
        {
          "duration": 0.05263160000001221,
          "durationTicks": 14,
          "midi": 36,
          "name": "C2",
          "ticks": 25080,
          "time": 94.28575199999999,
          "velocity": 0.7874015748031497
        },
        {
          "duration": 0.052631599999998,
          "durationTicks": 14,
          "midi": 46,
          "name": "A#2",
          "ticks": 25140,
          "time": 94.511316,
          "velocity": 0.47244094488188976
        },
        {
          "duration": 0.052631599999998,
          "durationTicks": 14,
          "midi": 46,
          "name": "A#2",
          "ticks": 25200,
          "time": 94.73688,
          "velocity": 0.47244094488188976
        },
        {
          "duration": 0.05263160000001221,
          "durationTicks": 14,
          "midi": 46,
          "name": "A#2",
          "ticks": 25260,
          "time": 94.96244399999999,
          "velocity": 0.47244094488188976
        },
        {
          "duration": 0.052631599999998,
          "durationTicks": 14,
          "midi": 46,
          "name": "A#2",
          "ticks": 25320,
          "time": 95.188008,
          "velocity": 0.7874015748031497
        },
        {
          "duration": 0.052631599999998,
          "durationTicks": 14,
          "midi": 36,
          "name": "C2",
          "ticks": 25320,
          "time": 95.188008,
          "velocity": 0.7874015748031497
        },
        {
          "duration": 0.05263160000001221,
          "durationTicks": 14,
          "midi": 46,
          "name": "A#2",
          "ticks": 25380,
          "time": 95.41357199999999,
          "velocity": 0.47244094488188976
        },
        {
          "duration": 0.052631599999998,
          "durationTicks": 14,
          "midi": 46,
          "name": "A#2",
          "ticks": 25440,
          "time": 95.639136,
          "velocity": 0.47244094488188976
        },
        {
          "duration": 0.052631599999998,
          "durationTicks": 14,
          "midi": 46,
          "name": "A#2",
          "ticks": 25500,
          "time": 95.8647,
          "velocity": 0.47244094488188976
        },
        {
          "duration": 0.05263160000001221,
          "durationTicks": 14,
          "midi": 46,
          "name": "A#2",
          "ticks": 25560,
          "time": 96.09026399999999,
          "velocity": 0.7874015748031497
        },
        {
          "duration": 0.05263160000001221,
          "durationTicks": 14,
          "midi": 36,
          "name": "C2",
          "ticks": 25560,
          "time": 96.09026399999999,
          "velocity": 0.7874015748031497
        },
        {
          "duration": 0.052631599999998,
          "durationTicks": 14,
          "midi": 46,
          "name": "A#2",
          "ticks": 25620,
          "time": 96.315828,
          "velocity": 0.47244094488188976
        },
        {
          "duration": 0.05263160000001221,
          "durationTicks": 14,
          "midi": 46,
          "name": "A#2",
          "ticks": 25680,
          "time": 96.54139199999999,
          "velocity": 0.47244094488188976
        },
        {
          "duration": 0.052631599999998,
          "durationTicks": 14,
          "midi": 46,
          "name": "A#2",
          "ticks": 25740,
          "time": 96.766956,
          "velocity": 0.47244094488188976
        },
        {
          "duration": 0.052631599999998,
          "durationTicks": 14,
          "midi": 46,
          "name": "A#2",
          "ticks": 25800,
          "time": 96.99252,
          "velocity": 0.7874015748031497
        },
        {
          "duration": 0.052631599999998,
          "durationTicks": 14,
          "midi": 36,
          "name": "C2",
          "ticks": 25800,
          "time": 96.99252,
          "velocity": 0.7874015748031497
        },
        {
          "duration": 0.05263160000001221,
          "durationTicks": 14,
          "midi": 46,
          "name": "A#2",
          "ticks": 25860,
          "time": 97.21808399999999,
          "velocity": 0.47244094488188976
        },
        {
          "duration": 0.052631599999998,
          "durationTicks": 14,
          "midi": 46,
          "name": "A#2",
          "ticks": 25920,
          "time": 97.443648,
          "velocity": 0.47244094488188976
        },
        {
          "duration": 0.05263160000001221,
          "durationTicks": 14,
          "midi": 46,
          "name": "A#2",
          "ticks": 25980,
          "time": 97.66921199999999,
          "velocity": 0.47244094488188976
        },
        {
          "duration": 0.052631599999998,
          "durationTicks": 14,
          "midi": 46,
          "name": "A#2",
          "ticks": 26040,
          "time": 97.894776,
          "velocity": 0.7874015748031497
        },
        {
          "duration": 0.052631599999998,
          "durationTicks": 14,
          "midi": 36,
          "name": "C2",
          "ticks": 26040,
          "time": 97.894776,
          "velocity": 0.7874015748031497
        },
        {
          "duration": 0.052631599999998,
          "durationTicks": 14,
          "midi": 46,
          "name": "A#2",
          "ticks": 26100,
          "time": 98.12034,
          "velocity": 0.47244094488188976
        },
        {
          "duration": 0.05263160000001221,
          "durationTicks": 14,
          "midi": 46,
          "name": "A#2",
          "ticks": 26160,
          "time": 98.34590399999999,
          "velocity": 0.47244094488188976
        },
        {
          "duration": 0.052631599999998,
          "durationTicks": 14,
          "midi": 46,
          "name": "A#2",
          "ticks": 26220,
          "time": 98.571468,
          "velocity": 0.47244094488188976
        },
        {
          "duration": 0.05263160000001221,
          "durationTicks": 14,
          "midi": 46,
          "name": "A#2",
          "ticks": 26280,
          "time": 98.79703199999999,
          "velocity": 0.7874015748031497
        },
        {
          "duration": 0.05263160000001221,
          "durationTicks": 14,
          "midi": 36,
          "name": "C2",
          "ticks": 26280,
          "time": 98.79703199999999,
          "velocity": 0.7874015748031497
        },
        {
          "duration": 0.052631599999998,
          "durationTicks": 14,
          "midi": 46,
          "name": "A#2",
          "ticks": 26340,
          "time": 99.022596,
          "velocity": 0.47244094488188976
        },
        {
          "duration": 0.052631599999998,
          "durationTicks": 14,
          "midi": 46,
          "name": "A#2",
          "ticks": 26400,
          "time": 99.24816,
          "velocity": 0.47244094488188976
        },
        {
          "duration": 0.05263160000001221,
          "durationTicks": 14,
          "midi": 46,
          "name": "A#2",
          "ticks": 26460,
          "time": 99.47372399999999,
          "velocity": 0.47244094488188976
        },
        {
          "duration": 0.052631599999998,
          "durationTicks": 14,
          "midi": 46,
          "name": "A#2",
          "ticks": 26520,
          "time": 99.699288,
          "velocity": 0.7874015748031497
        },
        {
          "duration": 0.052631599999998,
          "durationTicks": 14,
          "midi": 36,
          "name": "C2",
          "ticks": 26520,
          "time": 99.699288,
          "velocity": 0.7874015748031497
        },
        {
          "duration": 0.05263160000001221,
          "durationTicks": 14,
          "midi": 46,
          "name": "A#2",
          "ticks": 26580,
          "time": 99.92485199999999,
          "velocity": 0.47244094488188976
        },
        {
          "duration": 0.052631599999998,
          "durationTicks": 14,
          "midi": 46,
          "name": "A#2",
          "ticks": 26640,
          "time": 100.15041599999999,
          "velocity": 0.47244094488188976
        },
        {
          "duration": 0.052631599999998,
          "durationTicks": 14,
          "midi": 46,
          "name": "A#2",
          "ticks": 26700,
          "time": 100.37598,
          "velocity": 0.47244094488188976
        },
        {
          "duration": 0.05263160000001221,
          "durationTicks": 14,
          "midi": 46,
          "name": "A#2",
          "ticks": 26760,
          "time": 100.60154399999999,
          "velocity": 0.7874015748031497
        },
        {
          "duration": 0.05263160000001221,
          "durationTicks": 14,
          "midi": 36,
          "name": "C2",
          "ticks": 26760,
          "time": 100.60154399999999,
          "velocity": 0.7874015748031497
        },
        {
          "duration": 0.052631599999998,
          "durationTicks": 14,
          "midi": 46,
          "name": "A#2",
          "ticks": 26820,
          "time": 100.827108,
          "velocity": 0.47244094488188976
        },
        {
          "duration": 0.052631599999998,
          "durationTicks": 14,
          "midi": 46,
          "name": "A#2",
          "ticks": 26880,
          "time": 101.052672,
          "velocity": 0.47244094488188976
        },
        {
          "duration": 0.052631599999998,
          "durationTicks": 14,
          "midi": 46,
          "name": "A#2",
          "ticks": 26940,
          "time": 101.27823599999999,
          "velocity": 0.47244094488188976
        },
        {
          "duration": 0.052631599999998,
          "durationTicks": 14,
          "midi": 46,
          "name": "A#2",
          "ticks": 27000,
          "time": 101.5038,
          "velocity": 0.7874015748031497
        },
        {
          "duration": 0.052631599999998,
          "durationTicks": 14,
          "midi": 36,
          "name": "C2",
          "ticks": 27000,
          "time": 101.5038,
          "velocity": 0.7874015748031497
        },
        {
          "duration": 0.05263160000001221,
          "durationTicks": 14,
          "midi": 46,
          "name": "A#2",
          "ticks": 27060,
          "time": 101.72936399999999,
          "velocity": 0.47244094488188976
        },
        {
          "duration": 0.052631599999998,
          "durationTicks": 14,
          "midi": 46,
          "name": "A#2",
          "ticks": 27120,
          "time": 101.954928,
          "velocity": 0.47244094488188976
        },
        {
          "duration": 0.052631599999998,
          "durationTicks": 14,
          "midi": 46,
          "name": "A#2",
          "ticks": 27180,
          "time": 102.180492,
          "velocity": 0.47244094488188976
        },
        {
          "duration": 0.052631599999998,
          "durationTicks": 14,
          "midi": 46,
          "name": "A#2",
          "ticks": 27240,
          "time": 102.40605599999999,
          "velocity": 0.7874015748031497
        },
        {
          "duration": 0.052631599999998,
          "durationTicks": 14,
          "midi": 36,
          "name": "C2",
          "ticks": 27240,
          "time": 102.40605599999999,
          "velocity": 0.7874015748031497
        },
        {
          "duration": 0.052631599999998,
          "durationTicks": 14,
          "midi": 46,
          "name": "A#2",
          "ticks": 27300,
          "time": 102.63162,
          "velocity": 0.47244094488188976
        },
        {
          "duration": 0.05263160000001221,
          "durationTicks": 14,
          "midi": 46,
          "name": "A#2",
          "ticks": 27360,
          "time": 102.85718399999999,
          "velocity": 0.47244094488188976
        },
        {
          "duration": 0.052631599999998,
          "durationTicks": 14,
          "midi": 46,
          "name": "A#2",
          "ticks": 27420,
          "time": 103.082748,
          "velocity": 0.47244094488188976
        },
        {
          "duration": 0.052631599999998,
          "durationTicks": 14,
          "midi": 46,
          "name": "A#2",
          "ticks": 27480,
          "time": 103.308312,
          "velocity": 0.7874015748031497
        },
        {
          "duration": 0.052631599999998,
          "durationTicks": 14,
          "midi": 36,
          "name": "C2",
          "ticks": 27480,
          "time": 103.308312,
          "velocity": 0.7874015748031497
        },
        {
          "duration": 0.052631599999998,
          "durationTicks": 14,
          "midi": 46,
          "name": "A#2",
          "ticks": 27540,
          "time": 103.53387599999999,
          "velocity": 0.47244094488188976
        },
        {
          "duration": 0.052631599999998,
          "durationTicks": 14,
          "midi": 46,
          "name": "A#2",
          "ticks": 27600,
          "time": 103.75944,
          "velocity": 0.47244094488188976
        },
        {
          "duration": 0.05263160000001221,
          "durationTicks": 14,
          "midi": 46,
          "name": "A#2",
          "ticks": 27660,
          "time": 103.98500399999999,
          "velocity": 0.47244094488188976
        },
        {
          "duration": 0.052631599999998,
          "durationTicks": 14,
          "midi": 46,
          "name": "A#2",
          "ticks": 27720,
          "time": 104.210568,
          "velocity": 0.7874015748031497
        },
        {
          "duration": 0.052631599999998,
          "durationTicks": 14,
          "midi": 36,
          "name": "C2",
          "ticks": 27720,
          "time": 104.210568,
          "velocity": 0.7874015748031497
        },
        {
          "duration": 0.052631599999998,
          "durationTicks": 14,
          "midi": 46,
          "name": "A#2",
          "ticks": 27780,
          "time": 104.436132,
          "velocity": 0.47244094488188976
        },
        {
          "duration": 0.05263160000001221,
          "durationTicks": 14,
          "midi": 46,
          "name": "A#2",
          "ticks": 27840,
          "time": 104.66169599999999,
          "velocity": 0.47244094488188976
        },
        {
          "duration": 0.052631599999998,
          "durationTicks": 14,
          "midi": 46,
          "name": "A#2",
          "ticks": 27900,
          "time": 104.88726,
          "velocity": 0.47244094488188976
        },
        {
          "duration": 0.05263160000001221,
          "durationTicks": 14,
          "midi": 46,
          "name": "A#2",
          "ticks": 27960,
          "time": 105.11282399999999,
          "velocity": 0.7874015748031497
        },
        {
          "duration": 0.05263160000001221,
          "durationTicks": 14,
          "midi": 36,
          "name": "C2",
          "ticks": 27960,
          "time": 105.11282399999999,
          "velocity": 0.7874015748031497
        },
        {
          "duration": 0.052631599999998,
          "durationTicks": 14,
          "midi": 46,
          "name": "A#2",
          "ticks": 28020,
          "time": 105.338388,
          "velocity": 0.47244094488188976
        },
        {
          "duration": 0.052631599999998,
          "durationTicks": 14,
          "midi": 46,
          "name": "A#2",
          "ticks": 28080,
          "time": 105.563952,
          "velocity": 0.47244094488188976
        },
        {
          "duration": 0.05263160000001221,
          "durationTicks": 14,
          "midi": 46,
          "name": "A#2",
          "ticks": 28140,
          "time": 105.78951599999999,
          "velocity": 0.47244094488188976
        },
        {
          "duration": 0.052631599999998,
          "durationTicks": 14,
          "midi": 46,
          "name": "A#2",
          "ticks": 28200,
          "time": 106.01508,
          "velocity": 0.7874015748031497
        },
        {
          "duration": 0.052631599999998,
          "durationTicks": 14,
          "midi": 36,
          "name": "C2",
          "ticks": 28200,
          "time": 106.01508,
          "velocity": 0.7874015748031497
        },
        {
          "duration": 0.05263160000001221,
          "durationTicks": 14,
          "midi": 46,
          "name": "A#2",
          "ticks": 28260,
          "time": 106.24064399999999,
          "velocity": 0.47244094488188976
        },
        {
          "duration": 0.052631599999998,
          "durationTicks": 14,
          "midi": 46,
          "name": "A#2",
          "ticks": 28320,
          "time": 106.466208,
          "velocity": 0.47244094488188976
        },
        {
          "duration": 0.052631599999998,
          "durationTicks": 14,
          "midi": 46,
          "name": "A#2",
          "ticks": 28380,
          "time": 106.691772,
          "velocity": 0.47244094488188976
        },
        {
          "duration": 0.05263160000001221,
          "durationTicks": 14,
          "midi": 46,
          "name": "A#2",
          "ticks": 28440,
          "time": 106.91733599999999,
          "velocity": 0.7874015748031497
        },
        {
          "duration": 0.05263160000001221,
          "durationTicks": 14,
          "midi": 36,
          "name": "C2",
          "ticks": 28440,
          "time": 106.91733599999999,
          "velocity": 0.7874015748031497
        },
        {
          "duration": 0.052631599999998,
          "durationTicks": 14,
          "midi": 46,
          "name": "A#2",
          "ticks": 28500,
          "time": 107.1429,
          "velocity": 0.47244094488188976
        },
        {
          "duration": 0.05263160000001221,
          "durationTicks": 14,
          "midi": 46,
          "name": "A#2",
          "ticks": 28560,
          "time": 107.36846399999999,
          "velocity": 0.47244094488188976
        },
        {
          "duration": 0.052631599999998,
          "durationTicks": 14,
          "midi": 46,
          "name": "A#2",
          "ticks": 28620,
          "time": 107.594028,
          "velocity": 0.47244094488188976
        },
        {
          "duration": 0.052631599999998,
          "durationTicks": 14,
          "midi": 46,
          "name": "A#2",
          "ticks": 28680,
          "time": 107.819592,
          "velocity": 0.7874015748031497
        },
        {
          "duration": 0.052631599999998,
          "durationTicks": 14,
          "midi": 36,
          "name": "C2",
          "ticks": 28680,
          "time": 107.819592,
          "velocity": 0.7874015748031497
        },
        {
          "duration": 0.05263160000001221,
          "durationTicks": 14,
          "midi": 46,
          "name": "A#2",
          "ticks": 28740,
          "time": 108.04515599999999,
          "velocity": 0.47244094488188976
        },
        {
          "duration": 0.052631599999998,
          "durationTicks": 14,
          "midi": 46,
          "name": "A#2",
          "ticks": 28800,
          "time": 108.27072,
          "velocity": 0.47244094488188976
        },
        {
          "duration": 0.05263160000001221,
          "durationTicks": 14,
          "midi": 46,
          "name": "A#2",
          "ticks": 28860,
          "time": 108.49628399999999,
          "velocity": 0.47244094488188976
        },
        {
          "duration": 0.052631599999998,
          "durationTicks": 14,
          "midi": 46,
          "name": "A#2",
          "ticks": 28920,
          "time": 108.721848,
          "velocity": 0.7874015748031497
        },
        {
          "duration": 0.052631599999998,
          "durationTicks": 14,
          "midi": 36,
          "name": "C2",
          "ticks": 28920,
          "time": 108.721848,
          "velocity": 0.7874015748031497
        },
        {
          "duration": 0.052631599999998,
          "durationTicks": 14,
          "midi": 46,
          "name": "A#2",
          "ticks": 28980,
          "time": 108.947412,
          "velocity": 0.47244094488188976
        },
        {
          "duration": 0.05263160000001221,
          "durationTicks": 14,
          "midi": 46,
          "name": "A#2",
          "ticks": 29040,
          "time": 109.17297599999999,
          "velocity": 0.47244094488188976
        },
        {
          "duration": 0.052631599999998,
          "durationTicks": 14,
          "midi": 46,
          "name": "A#2",
          "ticks": 29100,
          "time": 109.39854,
          "velocity": 0.47244094488188976
        },
        {
          "duration": 0.05263160000001221,
          "durationTicks": 14,
          "midi": 46,
          "name": "A#2",
          "ticks": 29160,
          "time": 109.62410399999999,
          "velocity": 0.7874015748031497
        },
        {
          "duration": 0.05263160000001221,
          "durationTicks": 14,
          "midi": 36,
          "name": "C2",
          "ticks": 29160,
          "time": 109.62410399999999,
          "velocity": 0.7874015748031497
        },
        {
          "duration": 0.052631599999998,
          "durationTicks": 14,
          "midi": 46,
          "name": "A#2",
          "ticks": 29220,
          "time": 109.849668,
          "velocity": 0.47244094488188976
        },
        {
          "duration": 0.052631599999998,
          "durationTicks": 14,
          "midi": 46,
          "name": "A#2",
          "ticks": 29280,
          "time": 110.075232,
          "velocity": 0.47244094488188976
        },
        {
          "duration": 0.05263160000001221,
          "durationTicks": 14,
          "midi": 46,
          "name": "A#2",
          "ticks": 29340,
          "time": 110.30079599999999,
          "velocity": 0.47244094488188976
        },
        {
          "duration": 0.052631599999998,
          "durationTicks": 14,
          "midi": 43,
          "name": "G2",
          "ticks": 29400,
          "time": 110.52636,
          "velocity": 0.7086614173228346
        },
        {
          "duration": 0.052631599999998,
          "durationTicks": 14,
          "midi": 47,
          "name": "B2",
          "ticks": 29400,
          "time": 110.52636,
          "velocity": 0.8661417322834646
        },
        {
          "duration": 0.052631599999998,
          "durationTicks": 14,
          "midi": 46,
          "name": "A#2",
          "ticks": 29400,
          "time": 110.52636,
          "velocity": 0.7874015748031497
        },
        {
          "duration": 0.052631599999998,
          "durationTicks": 14,
          "midi": 36,
          "name": "C2",
          "ticks": 29400,
          "time": 110.52636,
          "velocity": 0.7874015748031497
        },
        {
          "duration": 0.05263160000001221,
          "durationTicks": 14,
          "midi": 46,
          "name": "A#2",
          "ticks": 29460,
          "time": 110.75192399999999,
          "velocity": 0.47244094488188976
        },
        {
          "duration": 0.052631599999998,
          "durationTicks": 14,
          "midi": 46,
          "name": "A#2",
          "ticks": 29520,
          "time": 110.977488,
          "velocity": 0.47244094488188976
        },
        {
          "duration": 0.052631599999998,
          "durationTicks": 14,
          "midi": 46,
          "name": "A#2",
          "ticks": 29580,
          "time": 111.203052,
          "velocity": 0.47244094488188976
        },
        {
          "duration": 0.05263160000001221,
          "durationTicks": 14,
          "midi": 43,
          "name": "G2",
          "ticks": 29640,
          "time": 111.42861599999999,
          "velocity": 0.7086614173228346
        },
        {
          "duration": 0.05263160000001221,
          "durationTicks": 14,
          "midi": 47,
          "name": "B2",
          "ticks": 29640,
          "time": 111.42861599999999,
          "velocity": 0.8661417322834646
        },
        {
          "duration": 0.05263160000001221,
          "durationTicks": 14,
          "midi": 46,
          "name": "A#2",
          "ticks": 29640,
          "time": 111.42861599999999,
          "velocity": 0.7874015748031497
        },
        {
          "duration": 0.05263160000001221,
          "durationTicks": 14,
          "midi": 36,
          "name": "C2",
          "ticks": 29640,
          "time": 111.42861599999999,
          "velocity": 0.7874015748031497
        },
        {
          "duration": 0.052631599999998,
          "durationTicks": 14,
          "midi": 46,
          "name": "A#2",
          "ticks": 29700,
          "time": 111.65418,
          "velocity": 0.47244094488188976
        },
        {
          "duration": 0.05263160000001221,
          "durationTicks": 14,
          "midi": 46,
          "name": "A#2",
          "ticks": 29760,
          "time": 111.87974399999999,
          "velocity": 0.47244094488188976
        },
        {
          "duration": 0.052631599999998,
          "durationTicks": 14,
          "midi": 46,
          "name": "A#2",
          "ticks": 29820,
          "time": 112.105308,
          "velocity": 0.47244094488188976
        },
        {
          "duration": 0.052631599999998,
          "durationTicks": 14,
          "midi": 46,
          "name": "A#2",
          "ticks": 29880,
          "time": 112.330872,
          "velocity": 0.7874015748031497
        },
        {
          "duration": 0.052631599999998,
          "durationTicks": 14,
          "midi": 36,
          "name": "C2",
          "ticks": 29880,
          "time": 112.330872,
          "velocity": 0.7874015748031497
        },
        {
          "duration": 0.05263160000001221,
          "durationTicks": 14,
          "midi": 46,
          "name": "A#2",
          "ticks": 29940,
          "time": 112.55643599999999,
          "velocity": 0.47244094488188976
        },
        {
          "duration": 0.052631599999998,
          "durationTicks": 14,
          "midi": 46,
          "name": "A#2",
          "ticks": 30000,
          "time": 112.782,
          "velocity": 0.47244094488188976
        },
        {
          "duration": 0.05263160000001221,
          "durationTicks": 14,
          "midi": 46,
          "name": "A#2",
          "ticks": 30060,
          "time": 113.00756399999999,
          "velocity": 0.47244094488188976
        },
        {
          "duration": 0.052631599999998,
          "durationTicks": 14,
          "midi": 46,
          "name": "A#2",
          "ticks": 30120,
          "time": 113.233128,
          "velocity": 0.7874015748031497
        },
        {
          "duration": 0.052631599999998,
          "durationTicks": 14,
          "midi": 36,
          "name": "C2",
          "ticks": 30120,
          "time": 113.233128,
          "velocity": 0.7874015748031497
        },
        {
          "duration": 0.052631599999998,
          "durationTicks": 14,
          "midi": 46,
          "name": "A#2",
          "ticks": 30180,
          "time": 113.458692,
          "velocity": 0.47244094488188976
        },
        {
          "duration": 0.05263160000001221,
          "durationTicks": 14,
          "midi": 46,
          "name": "A#2",
          "ticks": 30240,
          "time": 113.68425599999999,
          "velocity": 0.47244094488188976
        },
        {
          "duration": 0.052631599999998,
          "durationTicks": 14,
          "midi": 46,
          "name": "A#2",
          "ticks": 30300,
          "time": 113.90982,
          "velocity": 0.47244094488188976
        },
        {
          "duration": 0.05263160000001221,
          "durationTicks": 14,
          "midi": 46,
          "name": "A#2",
          "ticks": 30360,
          "time": 114.13538399999999,
          "velocity": 0.7874015748031497
        },
        {
          "duration": 0.05263160000001221,
          "durationTicks": 14,
          "midi": 36,
          "name": "C2",
          "ticks": 30360,
          "time": 114.13538399999999,
          "velocity": 0.7874015748031497
        },
        {
          "duration": 0.052631599999998,
          "durationTicks": 14,
          "midi": 46,
          "name": "A#2",
          "ticks": 30420,
          "time": 114.360948,
          "velocity": 0.47244094488188976
        },
        {
          "duration": 0.052631599999998,
          "durationTicks": 14,
          "midi": 46,
          "name": "A#2",
          "ticks": 30480,
          "time": 114.586512,
          "velocity": 0.47244094488188976
        },
        {
          "duration": 0.05263160000001221,
          "durationTicks": 14,
          "midi": 46,
          "name": "A#2",
          "ticks": 30540,
          "time": 114.81207599999999,
          "velocity": 0.47244094488188976
        },
        {
          "duration": 0.052631599999998,
          "durationTicks": 14,
          "midi": 46,
          "name": "A#2",
          "ticks": 30600,
          "time": 115.03764,
          "velocity": 0.7874015748031497
        },
        {
          "duration": 0.052631599999998,
          "durationTicks": 14,
          "midi": 36,
          "name": "C2",
          "ticks": 30600,
          "time": 115.03764,
          "velocity": 0.7874015748031497
        },
        {
          "duration": 0.05263160000001221,
          "durationTicks": 14,
          "midi": 46,
          "name": "A#2",
          "ticks": 30660,
          "time": 115.26320399999999,
          "velocity": 0.47244094488188976
        },
        {
          "duration": 0.052631599999998,
          "durationTicks": 14,
          "midi": 46,
          "name": "A#2",
          "ticks": 30720,
          "time": 115.488768,
          "velocity": 0.47244094488188976
        },
        {
          "duration": 0.052631599999998,
          "durationTicks": 14,
          "midi": 46,
          "name": "A#2",
          "ticks": 30780,
          "time": 115.714332,
          "velocity": 0.47244094488188976
        },
        {
          "duration": 0.05263160000001221,
          "durationTicks": 14,
          "midi": 46,
          "name": "A#2",
          "ticks": 30840,
          "time": 115.93989599999999,
          "velocity": 0.7874015748031497
        },
        {
          "duration": 0.05263160000001221,
          "durationTicks": 14,
          "midi": 36,
          "name": "C2",
          "ticks": 30840,
          "time": 115.93989599999999,
          "velocity": 0.7874015748031497
        },
        {
          "duration": 0.052631599999998,
          "durationTicks": 14,
          "midi": 46,
          "name": "A#2",
          "ticks": 30900,
          "time": 116.16546,
          "velocity": 0.47244094488188976
        },
        {
          "duration": 0.05263160000001221,
          "durationTicks": 14,
          "midi": 46,
          "name": "A#2",
          "ticks": 30960,
          "time": 116.39102399999999,
          "velocity": 0.47244094488188976
        },
        {
          "duration": 0.052631599999998,
          "durationTicks": 14,
          "midi": 46,
          "name": "A#2",
          "ticks": 31020,
          "time": 116.616588,
          "velocity": 0.47244094488188976
        },
        {
          "duration": 0.052631599999998,
          "durationTicks": 14,
          "midi": 46,
          "name": "A#2",
          "ticks": 31080,
          "time": 116.842152,
          "velocity": 0.7874015748031497
        },
        {
          "duration": 0.052631599999998,
          "durationTicks": 14,
          "midi": 36,
          "name": "C2",
          "ticks": 31080,
          "time": 116.842152,
          "velocity": 0.7874015748031497
        },
        {
          "duration": 0.05263160000001221,
          "durationTicks": 14,
          "midi": 46,
          "name": "A#2",
          "ticks": 31140,
          "time": 117.06771599999999,
          "velocity": 0.47244094488188976
        },
        {
          "duration": 0.052631599999998,
          "durationTicks": 14,
          "midi": 46,
          "name": "A#2",
          "ticks": 31200,
          "time": 117.29328,
          "velocity": 0.7874015748031497
        },
        {
          "duration": 0.05263160000001221,
          "durationTicks": 14,
          "midi": 46,
          "name": "A#2",
          "ticks": 31260,
          "time": 117.51884399999999,
          "velocity": 0.31496062992125984
        },
        {
          "duration": 0.052631599999998,
          "durationTicks": 14,
          "midi": 46,
          "name": "A#2",
          "ticks": 31320,
          "time": 117.74440799999999,
          "velocity": 0.7874015748031497
        },
        {
          "duration": 0.052631599999998,
          "durationTicks": 14,
          "midi": 46,
          "name": "A#2",
          "ticks": 31380,
          "time": 117.969972,
          "velocity": 0.31496062992125984
        },
        {
          "duration": 0.05263160000001221,
          "durationTicks": 14,
          "midi": 46,
          "name": "A#2",
          "ticks": 31440,
          "time": 118.19553599999999,
          "velocity": 0.7874015748031497
        },
        {
          "duration": 0.052631599999998,
          "durationTicks": 14,
          "midi": 46,
          "name": "A#2",
          "ticks": 31500,
          "time": 118.4211,
          "velocity": 0.31496062992125984
        },
        {
          "duration": 0.05263160000001221,
          "durationTicks": 14,
          "midi": 46,
          "name": "A#2",
          "ticks": 31560,
          "time": 118.64666399999999,
          "velocity": 0.7874015748031497
        },
        {
          "duration": 0.052631599999998,
          "durationTicks": 14,
          "midi": 46,
          "name": "A#2",
          "ticks": 31620,
          "time": 118.87222799999999,
          "velocity": 0.31496062992125984
        },
        {
          "duration": 0.052631599999998,
          "durationTicks": 14,
          "midi": 46,
          "name": "A#2",
          "ticks": 31680,
          "time": 119.097792,
          "velocity": 0.7874015748031497
        },
        {
          "duration": 0.05263160000001221,
          "durationTicks": 14,
          "midi": 46,
          "name": "A#2",
          "ticks": 31740,
          "time": 119.32335599999999,
          "velocity": 0.31496062992125984
        },
        {
          "duration": 0.05263160000001221,
          "durationTicks": 14,
          "midi": 40,
          "name": "E2",
          "ticks": 31740,
          "time": 119.32335599999999,
          "velocity": 0.7874015748031497
        },
        {
          "duration": 0.052631599999998,
          "durationTicks": 14,
          "midi": 46,
          "name": "A#2",
          "ticks": 31800,
          "time": 119.54892,
          "velocity": 0.7874015748031497
        },
        {
          "duration": 0.05263160000001221,
          "durationTicks": 14,
          "midi": 36,
          "name": "C2",
          "ticks": 31830,
          "time": 119.66170199999999,
          "velocity": 0.7874015748031497
        },
        {
          "duration": 0.05263160000001221,
          "durationTicks": 14,
          "midi": 46,
          "name": "A#2",
          "ticks": 31860,
          "time": 119.77448399999999,
          "velocity": 0.31496062992125984
        },
        {
          "duration": 0.052631599999998,
          "durationTicks": 14,
          "midi": 46,
          "name": "A#2",
          "ticks": 31920,
          "time": 120.00004799999999,
          "velocity": 0.7874015748031497
        },
        {
          "duration": 0.052631599999998,
          "durationTicks": 14,
          "midi": 40,
          "name": "E2",
          "ticks": 31920,
          "time": 120.00004799999999,
          "velocity": 0.7874015748031497
        },
        {
          "duration": 0.052631599999998,
          "durationTicks": 14,
          "midi": 46,
          "name": "A#2",
          "ticks": 31980,
          "time": 120.225612,
          "velocity": 0.31496062992125984
        },
        {
          "duration": 0.052631599999998,
          "durationTicks": 14,
          "midi": 36,
          "name": "C2",
          "ticks": 32010,
          "time": 120.338394,
          "velocity": 0.7874015748031497
        },
        {
          "duration": 0.05263160000001221,
          "durationTicks": 14,
          "midi": 46,
          "name": "A#2",
          "ticks": 32040,
          "time": 120.45117599999999,
          "velocity": 0.7874015748031497
        },
        {
          "duration": 0.052631599999998,
          "durationTicks": 14,
          "midi": 46,
          "name": "A#2",
          "ticks": 32100,
          "time": 120.67674,
          "velocity": 0.31496062992125984
        },
        {
          "duration": 0.052631599999998,
          "durationTicks": 14,
          "midi": 40,
          "name": "E2",
          "ticks": 32100,
          "time": 120.67674,
          "velocity": 0.7874015748031497
        },
        {
          "duration": 0.05263160000001221,
          "durationTicks": 14,
          "midi": 49,
          "name": "C#3",
          "ticks": 32160,
          "time": 120.90230399999999,
          "velocity": 0.7874015748031497
        },
        {
          "duration": 0.05263160000001221,
          "durationTicks": 14,
          "midi": 36,
          "name": "C2",
          "ticks": 32160,
          "time": 120.90230399999999,
          "velocity": 0.7874015748031497
        },
        {
          "duration": 0.052631599999998,
          "durationTicks": 14,
          "midi": 46,
          "name": "A#2",
          "ticks": 32220,
          "time": 121.12786799999999,
          "velocity": 0.31496062992125984
        },
        {
          "duration": 0.052631599999998,
          "durationTicks": 14,
          "midi": 46,
          "name": "A#2",
          "ticks": 32280,
          "time": 121.353432,
          "velocity": 0.7874015748031497
        },
        {
          "duration": 0.052631599999998,
          "durationTicks": 14,
          "midi": 40,
          "name": "E2",
          "ticks": 32280,
          "time": 121.353432,
          "velocity": 0.7874015748031497
        },
        {
          "duration": 0.05263160000001221,
          "durationTicks": 14,
          "midi": 46,
          "name": "A#2",
          "ticks": 32340,
          "time": 121.57899599999999,
          "velocity": 0.6299212598425197
        },
        {
          "duration": 0.052631599999998,
          "durationTicks": 14,
          "midi": 46,
          "name": "A#2",
          "ticks": 32400,
          "time": 121.80456,
          "velocity": 0.7874015748031497
        },
        {
          "duration": 0.052631599999998,
          "durationTicks": 14,
          "midi": 36,
          "name": "C2",
          "ticks": 32400,
          "time": 121.80456,
          "velocity": 0.7874015748031497
        },
        {
          "duration": 0.05263160000001221,
          "durationTicks": 14,
          "midi": 46,
          "name": "A#2",
          "ticks": 32460,
          "time": 122.03012399999999,
          "velocity": 0.6299212598425197
        },
        {
          "duration": 0.052631599999998,
          "durationTicks": 14,
          "midi": 46,
          "name": "A#2",
          "ticks": 32520,
          "time": 122.25568799999999,
          "velocity": 0.7874015748031497
        },
        {
          "duration": 0.052631599999998,
          "durationTicks": 14,
          "midi": 40,
          "name": "E2",
          "ticks": 32520,
          "time": 122.25568799999999,
          "velocity": 0.7874015748031497
        },
        {
          "duration": 0.052631599999998,
          "durationTicks": 14,
          "midi": 46,
          "name": "A#2",
          "ticks": 32580,
          "time": 122.481252,
          "velocity": 0.6299212598425197
        },
        {
          "duration": 0.05263160000001221,
          "durationTicks": 14,
          "midi": 46,
          "name": "A#2",
          "ticks": 32640,
          "time": 122.70681599999999,
          "velocity": 0.7874015748031497
        },
        {
          "duration": 0.05263160000001221,
          "durationTicks": 14,
          "midi": 36,
          "name": "C2",
          "ticks": 32640,
          "time": 122.70681599999999,
          "velocity": 0.7874015748031497
        },
        {
          "duration": 0.052631599999998,
          "durationTicks": 14,
          "midi": 46,
          "name": "A#2",
          "ticks": 32700,
          "time": 122.93238,
          "velocity": 0.6299212598425197
        },
        {
          "duration": 0.05263160000001221,
          "durationTicks": 14,
          "midi": 46,
          "name": "A#2",
          "ticks": 32760,
          "time": 123.15794399999999,
          "velocity": 0.7874015748031497
        },
        {
          "duration": 0.05263160000001221,
          "durationTicks": 14,
          "midi": 40,
          "name": "E2",
          "ticks": 32760,
          "time": 123.15794399999999,
          "velocity": 0.7874015748031497
        },
        {
          "duration": 0.052631599999998,
          "durationTicks": 14,
          "midi": 46,
          "name": "A#2",
          "ticks": 32820,
          "time": 123.38350799999999,
          "velocity": 0.6299212598425197
        },
        {
          "duration": 0.052631599999998,
          "durationTicks": 14,
          "midi": 46,
          "name": "A#2",
          "ticks": 32880,
          "time": 123.609072,
          "velocity": 0.7874015748031497
        },
        {
          "duration": 0.052631599999998,
          "durationTicks": 14,
          "midi": 36,
          "name": "C2",
          "ticks": 32880,
          "time": 123.609072,
          "velocity": 0.7874015748031497
        },
        {
          "duration": 0.05263160000001221,
          "durationTicks": 14,
          "midi": 46,
          "name": "A#2",
          "ticks": 32940,
          "time": 123.83463599999999,
          "velocity": 0.6299212598425197
        },
        {
          "duration": 0.052631599999998,
          "durationTicks": 14,
          "midi": 40,
          "name": "E2",
          "ticks": 33000,
          "time": 124.0602,
          "velocity": 0.7874015748031497
        },
        {
          "duration": 0.052631599999998,
          "durationTicks": 14,
          "midi": 46,
          "name": "A#2",
          "ticks": 33000,
          "time": 124.0602,
          "velocity": 0.7874015748031497
        },
        {
          "duration": 0.05263160000001221,
          "durationTicks": 14,
          "midi": 46,
          "name": "A#2",
          "ticks": 33060,
          "time": 124.28576399999999,
          "velocity": 0.6299212598425197
        },
        {
          "duration": 0.052631599999998,
          "durationTicks": 14,
          "midi": 46,
          "name": "A#2",
          "ticks": 33120,
          "time": 124.51132799999999,
          "velocity": 0.7874015748031497
        },
        {
          "duration": 0.052631599999998,
          "durationTicks": 14,
          "midi": 36,
          "name": "C2",
          "ticks": 33120,
          "time": 124.51132799999999,
          "velocity": 0.7874015748031497
        },
        {
          "duration": 0.052631599999998,
          "durationTicks": 14,
          "midi": 46,
          "name": "A#2",
          "ticks": 33180,
          "time": 124.736892,
          "velocity": 0.6299212598425197
        },
        {
          "duration": 0.05263160000001221,
          "durationTicks": 14,
          "midi": 46,
          "name": "A#2",
          "ticks": 33240,
          "time": 124.96245599999999,
          "velocity": 0.7874015748031497
        },
        {
          "duration": 0.05263160000001221,
          "durationTicks": 14,
          "midi": 40,
          "name": "E2",
          "ticks": 33240,
          "time": 124.96245599999999,
          "velocity": 0.7874015748031497
        },
        {
          "duration": 0.052631599999998,
          "durationTicks": 14,
          "midi": 46,
          "name": "A#2",
          "ticks": 33300,
          "time": 125.18802,
          "velocity": 0.6299212598425197
        },
        {
          "duration": 0.05263160000001221,
          "durationTicks": 14,
          "midi": 46,
          "name": "A#2",
          "ticks": 33360,
          "time": 125.41358399999999,
          "velocity": 0.7874015748031497
        },
        {
          "duration": 0.05263160000001221,
          "durationTicks": 14,
          "midi": 36,
          "name": "C2",
          "ticks": 33360,
          "time": 125.41358399999999,
          "velocity": 0.7874015748031497
        },
        {
          "duration": 0.052631599999998,
          "durationTicks": 14,
          "midi": 46,
          "name": "A#2",
          "ticks": 33420,
          "time": 125.63914799999999,
          "velocity": 0.6299212598425197
        },
        {
          "duration": 0.052631599999998,
          "durationTicks": 14,
          "midi": 40,
          "name": "E2",
          "ticks": 33480,
          "time": 125.864712,
          "velocity": 0.7874015748031497
        },
        {
          "duration": 0.052631599999998,
          "durationTicks": 14,
          "midi": 46,
          "name": "A#2",
          "ticks": 33480,
          "time": 125.864712,
          "velocity": 0.7874015748031497
        },
        {
          "duration": 0.05263160000001221,
          "durationTicks": 14,
          "midi": 46,
          "name": "A#2",
          "ticks": 33540,
          "time": 126.09027599999999,
          "velocity": 0.6299212598425197
        },
        {
          "duration": 0.052631599999998,
          "durationTicks": 14,
          "midi": 46,
          "name": "A#2",
          "ticks": 33600,
          "time": 126.31584,
          "velocity": 0.7874015748031497
        },
        {
          "duration": 0.052631599999998,
          "durationTicks": 14,
          "midi": 36,
          "name": "C2",
          "ticks": 33600,
          "time": 126.31584,
          "velocity": 0.7874015748031497
        },
        {
          "duration": 0.05263160000001221,
          "durationTicks": 14,
          "midi": 46,
          "name": "A#2",
          "ticks": 33660,
          "time": 126.54140399999999,
          "velocity": 0.6299212598425197
        },
        {
          "duration": 0.052631599999998,
          "durationTicks": 14,
          "midi": 46,
          "name": "A#2",
          "ticks": 33720,
          "time": 126.76696799999999,
          "velocity": 0.7874015748031497
        },
        {
          "duration": 0.052631599999998,
          "durationTicks": 14,
          "midi": 40,
          "name": "E2",
          "ticks": 33720,
          "time": 126.76696799999999,
          "velocity": 0.7874015748031497
        },
        {
          "duration": 0.052631599999998,
          "durationTicks": 14,
          "midi": 46,
          "name": "A#2",
          "ticks": 33780,
          "time": 126.992532,
          "velocity": 0.6299212598425197
        },
        {
          "duration": 0.05263160000001221,
          "durationTicks": 14,
          "midi": 46,
          "name": "A#2",
          "ticks": 33840,
          "time": 127.21809599999999,
          "velocity": 0.7874015748031497
        },
        {
          "duration": 0.05263160000001221,
          "durationTicks": 14,
          "midi": 36,
          "name": "C2",
          "ticks": 33840,
          "time": 127.21809599999999,
          "velocity": 0.7874015748031497
        },
        {
          "duration": 0.052631599999998,
          "durationTicks": 14,
          "midi": 46,
          "name": "A#2",
          "ticks": 33900,
          "time": 127.44366,
          "velocity": 0.6299212598425197
        },
        {
          "duration": 0.05263160000001221,
          "durationTicks": 14,
          "midi": 40,
          "name": "E2",
          "ticks": 33960,
          "time": 127.66922399999999,
          "velocity": 0.7874015748031497
        },
        {
          "duration": 0.05263160000001221,
          "durationTicks": 14,
          "midi": 46,
          "name": "A#2",
          "ticks": 33960,
          "time": 127.66922399999999,
          "velocity": 0.7874015748031497
        },
        {
          "duration": 0.052631599999998,
          "durationTicks": 14,
          "midi": 46,
          "name": "A#2",
          "ticks": 34020,
          "time": 127.89478799999999,
          "velocity": 0.6299212598425197
        },
        {
          "duration": 0.05263160000001221,
          "durationTicks": 14,
          "midi": 46,
          "name": "A#2",
          "ticks": 34080,
          "time": 128.120352,
          "velocity": 0.7874015748031497
        },
        {
          "duration": 0.05263160000001221,
          "durationTicks": 14,
          "midi": 36,
          "name": "C2",
          "ticks": 34080,
          "time": 128.120352,
          "velocity": 0.7874015748031497
        },
        {
          "duration": 0.05263160000001221,
          "durationTicks": 14,
          "midi": 46,
          "name": "A#2",
          "ticks": 34140,
          "time": 128.345916,
          "velocity": 0.6299212598425197
        },
        {
          "duration": 0.05263160000001221,
          "durationTicks": 14,
          "midi": 46,
          "name": "A#2",
          "ticks": 34200,
          "time": 128.57147999999998,
          "velocity": 0.7874015748031497
        },
        {
          "duration": 0.05263160000001221,
          "durationTicks": 14,
          "midi": 40,
          "name": "E2",
          "ticks": 34200,
          "time": 128.57147999999998,
          "velocity": 0.7874015748031497
        },
        {
          "duration": 0.05263159999998379,
          "durationTicks": 14,
          "midi": 46,
          "name": "A#2",
          "ticks": 34260,
          "time": 128.797044,
          "velocity": 0.6299212598425197
        },
        {
          "duration": 0.05263160000001221,
          "durationTicks": 14,
          "midi": 46,
          "name": "A#2",
          "ticks": 34320,
          "time": 129.022608,
          "velocity": 0.7874015748031497
        },
        {
          "duration": 0.05263160000001221,
          "durationTicks": 14,
          "midi": 36,
          "name": "C2",
          "ticks": 34320,
          "time": 129.022608,
          "velocity": 0.7874015748031497
        },
        {
          "duration": 0.05263160000001221,
          "durationTicks": 14,
          "midi": 46,
          "name": "A#2",
          "ticks": 34380,
          "time": 129.24817199999998,
          "velocity": 0.6299212598425197
        },
        {
          "duration": 0.05263159999998379,
          "durationTicks": 14,
          "midi": 40,
          "name": "E2",
          "ticks": 34440,
          "time": 129.473736,
          "velocity": 0.7874015748031497
        },
        {
          "duration": 0.05263159999998379,
          "durationTicks": 14,
          "midi": 46,
          "name": "A#2",
          "ticks": 34440,
          "time": 129.473736,
          "velocity": 0.7874015748031497
        },
        {
          "duration": 0.05263160000001221,
          "durationTicks": 14,
          "midi": 46,
          "name": "A#2",
          "ticks": 34500,
          "time": 129.6993,
          "velocity": 0.6299212598425197
        },
        {
          "duration": 0.05263160000001221,
          "durationTicks": 14,
          "midi": 46,
          "name": "A#2",
          "ticks": 34560,
          "time": 129.92486399999999,
          "velocity": 0.7874015748031497
        },
        {
          "duration": 0.05263160000001221,
          "durationTicks": 14,
          "midi": 36,
          "name": "C2",
          "ticks": 34560,
          "time": 129.92486399999999,
          "velocity": 0.7874015748031497
        },
        {
          "duration": 0.05263159999998379,
          "durationTicks": 14,
          "midi": 46,
          "name": "A#2",
          "ticks": 34620,
          "time": 130.150428,
          "velocity": 0.6299212598425197
        },
        {
          "duration": 0.05263160000001221,
          "durationTicks": 14,
          "midi": 46,
          "name": "A#2",
          "ticks": 34680,
          "time": 130.375992,
          "velocity": 0.7874015748031497
        },
        {
          "duration": 0.05263160000001221,
          "durationTicks": 14,
          "midi": 40,
          "name": "E2",
          "ticks": 34680,
          "time": 130.375992,
          "velocity": 0.7874015748031497
        },
        {
          "duration": 0.05263160000001221,
          "durationTicks": 14,
          "midi": 46,
          "name": "A#2",
          "ticks": 34740,
          "time": 130.601556,
          "velocity": 0.6299212598425197
        },
        {
          "duration": 0.05263160000001221,
          "durationTicks": 14,
          "midi": 46,
          "name": "A#2",
          "ticks": 34800,
          "time": 130.82711999999998,
          "velocity": 0.7874015748031497
        },
        {
          "duration": 0.05263160000001221,
          "durationTicks": 14,
          "midi": 36,
          "name": "C2",
          "ticks": 34800,
          "time": 130.82711999999998,
          "velocity": 0.7874015748031497
        },
        {
          "duration": 0.05263159999998379,
          "durationTicks": 14,
          "midi": 46,
          "name": "A#2",
          "ticks": 34860,
          "time": 131.052684,
          "velocity": 0.6299212598425197
        },
        {
          "duration": 0.05263160000001221,
          "durationTicks": 14,
          "midi": 40,
          "name": "E2",
          "ticks": 34920,
          "time": 131.278248,
          "velocity": 0.7874015748031497
        },
        {
          "duration": 0.05263160000001221,
          "durationTicks": 14,
          "midi": 46,
          "name": "A#2",
          "ticks": 34920,
          "time": 131.278248,
          "velocity": 0.7874015748031497
        },
        {
          "duration": 0.05263160000001221,
          "durationTicks": 14,
          "midi": 46,
          "name": "A#2",
          "ticks": 34980,
          "time": 131.50381199999998,
          "velocity": 0.6299212598425197
        },
        {
          "duration": 0.05263159999998379,
          "durationTicks": 14,
          "midi": 46,
          "name": "A#2",
          "ticks": 35040,
          "time": 131.729376,
          "velocity": 0.7874015748031497
        },
        {
          "duration": 0.05263159999998379,
          "durationTicks": 14,
          "midi": 36,
          "name": "C2",
          "ticks": 35040,
          "time": 131.729376,
          "velocity": 0.7874015748031497
        },
        {
          "duration": 0.05263160000001221,
          "durationTicks": 14,
          "midi": 46,
          "name": "A#2",
          "ticks": 35100,
          "time": 131.95494,
          "velocity": 0.6299212598425197
        },
        {
          "duration": 0.05263160000001221,
          "durationTicks": 14,
          "midi": 46,
          "name": "A#2",
          "ticks": 35160,
          "time": 132.18050399999998,
          "velocity": 0.7874015748031497
        },
        {
          "duration": 0.05263160000001221,
          "durationTicks": 14,
          "midi": 40,
          "name": "E2",
          "ticks": 35160,
          "time": 132.18050399999998,
          "velocity": 0.7874015748031497
        },
        {
          "duration": 0.05263159999998379,
          "durationTicks": 14,
          "midi": 46,
          "name": "A#2",
          "ticks": 35220,
          "time": 132.406068,
          "velocity": 0.6299212598425197
        },
        {
          "duration": 0.05263160000001221,
          "durationTicks": 14,
          "midi": 46,
          "name": "A#2",
          "ticks": 35280,
          "time": 132.631632,
          "velocity": 0.7874015748031497
        },
        {
          "duration": 0.05263160000001221,
          "durationTicks": 14,
          "midi": 36,
          "name": "C2",
          "ticks": 35280,
          "time": 132.631632,
          "velocity": 0.7874015748031497
        },
        {
          "duration": 0.05263160000001221,
          "durationTicks": 14,
          "midi": 46,
          "name": "A#2",
          "ticks": 35340,
          "time": 132.857196,
          "velocity": 0.6299212598425197
        },
        {
          "duration": 0.05263160000001221,
          "durationTicks": 14,
          "midi": 40,
          "name": "E2",
          "ticks": 35400,
          "time": 133.08275999999998,
          "velocity": 0.7874015748031497
        },
        {
          "duration": 0.05263160000001221,
          "durationTicks": 14,
          "midi": 46,
          "name": "A#2",
          "ticks": 35400,
          "time": 133.08275999999998,
          "velocity": 0.7874015748031497
        },
        {
          "duration": 0.05263159999998379,
          "durationTicks": 14,
          "midi": 46,
          "name": "A#2",
          "ticks": 35460,
          "time": 133.308324,
          "velocity": 0.6299212598425197
        },
        {
          "duration": 0.05263160000001221,
          "durationTicks": 14,
          "midi": 46,
          "name": "A#2",
          "ticks": 35520,
          "time": 133.533888,
          "velocity": 0.7874015748031497
        },
        {
          "duration": 0.05263160000001221,
          "durationTicks": 14,
          "midi": 36,
          "name": "C2",
          "ticks": 35520,
          "time": 133.533888,
          "velocity": 0.7874015748031497
        },
        {
          "duration": 0.05263160000001221,
          "durationTicks": 14,
          "midi": 46,
          "name": "A#2",
          "ticks": 35580,
          "time": 133.75945199999998,
          "velocity": 0.6299212598425197
        },
        {
          "duration": 0.05263159999998379,
          "durationTicks": 14,
          "midi": 46,
          "name": "A#2",
          "ticks": 35640,
          "time": 133.985016,
          "velocity": 0.7874015748031497
        },
        {
          "duration": 0.05263159999998379,
          "durationTicks": 14,
          "midi": 40,
          "name": "E2",
          "ticks": 35640,
          "time": 133.985016,
          "velocity": 0.7874015748031497
        },
        {
          "duration": 0.05263160000001221,
          "durationTicks": 14,
          "midi": 46,
          "name": "A#2",
          "ticks": 35700,
          "time": 134.21058,
          "velocity": 0.6299212598425197
        },
        {
          "duration": 0.05263160000001221,
          "durationTicks": 14,
          "midi": 46,
          "name": "A#2",
          "ticks": 35760,
          "time": 134.43614399999998,
          "velocity": 0.7874015748031497
        },
        {
          "duration": 0.05263160000001221,
          "durationTicks": 14,
          "midi": 36,
          "name": "C2",
          "ticks": 35760,
          "time": 134.43614399999998,
          "velocity": 0.7874015748031497
        },
        {
          "duration": 0.05263159999998379,
          "durationTicks": 14,
          "midi": 46,
          "name": "A#2",
          "ticks": 35820,
          "time": 134.661708,
          "velocity": 0.6299212598425197
        },
        {
          "duration": 0.05263160000001221,
          "durationTicks": 14,
          "midi": 40,
          "name": "E2",
          "ticks": 35880,
          "time": 134.887272,
          "velocity": 0.7874015748031497
        },
        {
          "duration": 0.05263160000001221,
          "durationTicks": 14,
          "midi": 46,
          "name": "A#2",
          "ticks": 35880,
          "time": 134.887272,
          "velocity": 0.7874015748031497
        },
        {
          "duration": 0.05263160000001221,
          "durationTicks": 14,
          "midi": 46,
          "name": "A#2",
          "ticks": 35940,
          "time": 135.112836,
          "velocity": 0.6299212598425197
        },
        {
          "duration": 0.05263160000001221,
          "durationTicks": 14,
          "midi": 46,
          "name": "A#2",
          "ticks": 36000,
          "time": 135.33839999999998,
          "velocity": 0.7874015748031497
        },
        {
          "duration": 0.05263160000001221,
          "durationTicks": 14,
          "midi": 36,
          "name": "C2",
          "ticks": 36000,
          "time": 135.33839999999998,
          "velocity": 0.7874015748031497
        },
        {
          "duration": 0.05263159999998379,
          "durationTicks": 14,
          "midi": 46,
          "name": "A#2",
          "ticks": 36060,
          "time": 135.563964,
          "velocity": 0.6299212598425197
        },
        {
          "duration": 0.05263160000001221,
          "durationTicks": 14,
          "midi": 46,
          "name": "A#2",
          "ticks": 36120,
          "time": 135.789528,
          "velocity": 0.7874015748031497
        },
        {
          "duration": 0.05263160000001221,
          "durationTicks": 14,
          "midi": 40,
          "name": "E2",
          "ticks": 36120,
          "time": 135.789528,
          "velocity": 0.7874015748031497
        },
        {
          "duration": 0.05263160000001221,
          "durationTicks": 14,
          "midi": 46,
          "name": "A#2",
          "ticks": 36180,
          "time": 136.01509199999998,
          "velocity": 0.6299212598425197
        },
        {
          "duration": 0.05263159999998379,
          "durationTicks": 14,
          "midi": 46,
          "name": "A#2",
          "ticks": 36240,
          "time": 136.240656,
          "velocity": 0.7874015748031497
        },
        {
          "duration": 0.05263159999998379,
          "durationTicks": 14,
          "midi": 36,
          "name": "C2",
          "ticks": 36240,
          "time": 136.240656,
          "velocity": 0.7874015748031497
        },
        {
          "duration": 0.05263160000001221,
          "durationTicks": 14,
          "midi": 46,
          "name": "A#2",
          "ticks": 36300,
          "time": 136.46622,
          "velocity": 0.6299212598425197
        },
        {
          "duration": 0.05263160000001221,
          "durationTicks": 14,
          "midi": 40,
          "name": "E2",
          "ticks": 36360,
          "time": 136.69178399999998,
          "velocity": 0.7874015748031497
        },
        {
          "duration": 0.05263160000001221,
          "durationTicks": 14,
          "midi": 46,
          "name": "A#2",
          "ticks": 36360,
          "time": 136.69178399999998,
          "velocity": 0.7874015748031497
        },
        {
          "duration": 0.05263159999998379,
          "durationTicks": 14,
          "midi": 46,
          "name": "A#2",
          "ticks": 36420,
          "time": 136.917348,
          "velocity": 0.6299212598425197
        },
        {
          "duration": 0.05263160000001221,
          "durationTicks": 14,
          "midi": 46,
          "name": "A#2",
          "ticks": 36480,
          "time": 137.142912,
          "velocity": 0.7874015748031497
        },
        {
          "duration": 0.05263160000001221,
          "durationTicks": 14,
          "midi": 36,
          "name": "C2",
          "ticks": 36480,
          "time": 137.142912,
          "velocity": 0.7874015748031497
        },
        {
          "duration": 0.05263160000001221,
          "durationTicks": 14,
          "midi": 46,
          "name": "A#2",
          "ticks": 36540,
          "time": 137.368476,
          "velocity": 0.6299212598425197
        },
        {
          "duration": 0.05263160000001221,
          "durationTicks": 14,
          "midi": 46,
          "name": "A#2",
          "ticks": 36600,
          "time": 137.59403999999998,
          "velocity": 0.7874015748031497
        },
        {
          "duration": 0.05263160000001221,
          "durationTicks": 14,
          "midi": 40,
          "name": "E2",
          "ticks": 36600,
          "time": 137.59403999999998,
          "velocity": 0.7874015748031497
        },
        {
          "duration": 0.05263159999998379,
          "durationTicks": 14,
          "midi": 46,
          "name": "A#2",
          "ticks": 36660,
          "time": 137.819604,
          "velocity": 0.6299212598425197
        },
        {
          "duration": 0.05263160000001221,
          "durationTicks": 14,
          "midi": 46,
          "name": "A#2",
          "ticks": 36720,
          "time": 138.045168,
          "velocity": 0.7874015748031497
        },
        {
          "duration": 0.05263160000001221,
          "durationTicks": 14,
          "midi": 36,
          "name": "C2",
          "ticks": 36720,
          "time": 138.045168,
          "velocity": 0.7874015748031497
        },
        {
          "duration": 0.05263160000001221,
          "durationTicks": 14,
          "midi": 46,
          "name": "A#2",
          "ticks": 36780,
          "time": 138.27073199999998,
          "velocity": 0.6299212598425197
        },
        {
          "duration": 0.05263159999998379,
          "durationTicks": 14,
          "midi": 40,
          "name": "E2",
          "ticks": 36840,
          "time": 138.496296,
          "velocity": 0.7874015748031497
        },
        {
          "duration": 0.05263159999998379,
          "durationTicks": 14,
          "midi": 46,
          "name": "A#2",
          "ticks": 36840,
          "time": 138.496296,
          "velocity": 0.7874015748031497
        },
        {
          "duration": 0.05263160000001221,
          "durationTicks": 14,
          "midi": 46,
          "name": "A#2",
          "ticks": 36900,
          "time": 138.72186,
          "velocity": 0.6299212598425197
        },
        {
          "duration": 0.05263160000001221,
          "durationTicks": 14,
          "midi": 46,
          "name": "A#2",
          "ticks": 36960,
          "time": 138.94742399999998,
          "velocity": 0.7874015748031497
        },
        {
          "duration": 0.05263160000001221,
          "durationTicks": 14,
          "midi": 36,
          "name": "C2",
          "ticks": 36960,
          "time": 138.94742399999998,
          "velocity": 0.7874015748031497
        },
        {
          "duration": 0.05263159999998379,
          "durationTicks": 14,
          "midi": 46,
          "name": "A#2",
          "ticks": 37020,
          "time": 139.172988,
          "velocity": 0.6299212598425197
        },
        {
          "duration": 0.05263160000001221,
          "durationTicks": 14,
          "midi": 46,
          "name": "A#2",
          "ticks": 37080,
          "time": 139.398552,
          "velocity": 0.7874015748031497
        },
        {
          "duration": 0.05263160000001221,
          "durationTicks": 14,
          "midi": 40,
          "name": "E2",
          "ticks": 37080,
          "time": 139.398552,
          "velocity": 0.7874015748031497
        },
        {
          "duration": 0.05263160000001221,
          "durationTicks": 14,
          "midi": 46,
          "name": "A#2",
          "ticks": 37140,
          "time": 139.624116,
          "velocity": 0.6299212598425197
        },
        {
          "duration": 0.05263160000001221,
          "durationTicks": 14,
          "midi": 46,
          "name": "A#2",
          "ticks": 37200,
          "time": 139.84967999999998,
          "velocity": 0.7874015748031497
        },
        {
          "duration": 0.05263160000001221,
          "durationTicks": 14,
          "midi": 36,
          "name": "C2",
          "ticks": 37200,
          "time": 139.84967999999998,
          "velocity": 0.7874015748031497
        },
        {
          "duration": 0.05263159999998379,
          "durationTicks": 14,
          "midi": 46,
          "name": "A#2",
          "ticks": 37260,
          "time": 140.075244,
          "velocity": 0.6299212598425197
        },
        {
          "duration": 0.05263160000001221,
          "durationTicks": 14,
          "midi": 40,
          "name": "E2",
          "ticks": 37320,
          "time": 140.300808,
          "velocity": 0.7874015748031497
        },
        {
          "duration": 0.05263160000001221,
          "durationTicks": 14,
          "midi": 46,
          "name": "A#2",
          "ticks": 37320,
          "time": 140.300808,
          "velocity": 0.7874015748031497
        },
        {
          "duration": 0.05263160000001221,
          "durationTicks": 14,
          "midi": 46,
          "name": "A#2",
          "ticks": 37380,
          "time": 140.52637199999998,
          "velocity": 0.6299212598425197
        },
        {
          "duration": 0.05263159999998379,
          "durationTicks": 14,
          "midi": 46,
          "name": "A#2",
          "ticks": 37440,
          "time": 140.751936,
          "velocity": 0.7874015748031497
        },
        {
          "duration": 0.05263159999998379,
          "durationTicks": 14,
          "midi": 36,
          "name": "C2",
          "ticks": 37440,
          "time": 140.751936,
          "velocity": 0.7874015748031497
        },
        {
          "duration": 0.05263160000001221,
          "durationTicks": 14,
          "midi": 46,
          "name": "A#2",
          "ticks": 37500,
          "time": 140.9775,
          "velocity": 0.6299212598425197
        },
        {
          "duration": 0.05263160000001221,
          "durationTicks": 14,
          "midi": 46,
          "name": "A#2",
          "ticks": 37560,
          "time": 141.20306399999998,
          "velocity": 0.7874015748031497
        },
        {
          "duration": 0.05263160000001221,
          "durationTicks": 14,
          "midi": 40,
          "name": "E2",
          "ticks": 37560,
          "time": 141.20306399999998,
          "velocity": 0.7874015748031497
        },
        {
          "duration": 0.05263159999998379,
          "durationTicks": 14,
          "midi": 46,
          "name": "A#2",
          "ticks": 37620,
          "time": 141.428628,
          "velocity": 0.6299212598425197
        },
        {
          "duration": 0.05263160000001221,
          "durationTicks": 14,
          "midi": 46,
          "name": "A#2",
          "ticks": 37680,
          "time": 141.654192,
          "velocity": 0.7874015748031497
        },
        {
          "duration": 0.05263160000001221,
          "durationTicks": 14,
          "midi": 36,
          "name": "C2",
          "ticks": 37680,
          "time": 141.654192,
          "velocity": 0.7874015748031497
        },
        {
          "duration": 0.05263160000001221,
          "durationTicks": 14,
          "midi": 46,
          "name": "A#2",
          "ticks": 37740,
          "time": 141.879756,
          "velocity": 0.6299212598425197
        },
        {
          "duration": 0.05263160000001221,
          "durationTicks": 14,
          "midi": 40,
          "name": "E2",
          "ticks": 37800,
          "time": 142.10531999999998,
          "velocity": 0.7874015748031497
        },
        {
          "duration": 0.05263160000001221,
          "durationTicks": 14,
          "midi": 46,
          "name": "A#2",
          "ticks": 37800,
          "time": 142.10531999999998,
          "velocity": 0.7874015748031497
        },
        {
          "duration": 0.05263159999998379,
          "durationTicks": 14,
          "midi": 46,
          "name": "A#2",
          "ticks": 37860,
          "time": 142.330884,
          "velocity": 0.6299212598425197
        },
        {
          "duration": 0.05263160000001221,
          "durationTicks": 14,
          "midi": 46,
          "name": "A#2",
          "ticks": 37920,
          "time": 142.556448,
          "velocity": 0.7874015748031497
        },
        {
          "duration": 0.05263160000001221,
          "durationTicks": 14,
          "midi": 36,
          "name": "C2",
          "ticks": 37920,
          "time": 142.556448,
          "velocity": 0.7874015748031497
        },
        {
          "duration": 0.05263160000001221,
          "durationTicks": 14,
          "midi": 46,
          "name": "A#2",
          "ticks": 37980,
          "time": 142.78201199999998,
          "velocity": 0.6299212598425197
        },
        {
          "duration": 0.05263159999998379,
          "durationTicks": 14,
          "midi": 46,
          "name": "A#2",
          "ticks": 38040,
          "time": 143.007576,
          "velocity": 0.7874015748031497
        },
        {
          "duration": 0.05263159999998379,
          "durationTicks": 14,
          "midi": 40,
          "name": "E2",
          "ticks": 38040,
          "time": 143.007576,
          "velocity": 0.7874015748031497
        },
        {
          "duration": 0.05263160000001221,
          "durationTicks": 14,
          "midi": 46,
          "name": "A#2",
          "ticks": 38100,
          "time": 143.23314,
          "velocity": 0.6299212598425197
        },
        {
          "duration": 0.05263160000001221,
          "durationTicks": 14,
          "midi": 46,
          "name": "A#2",
          "ticks": 38160,
          "time": 143.45870399999998,
          "velocity": 0.7874015748031497
        },
        {
          "duration": 0.05263160000001221,
          "durationTicks": 14,
          "midi": 36,
          "name": "C2",
          "ticks": 38160,
          "time": 143.45870399999998,
          "velocity": 0.7874015748031497
        },
        {
          "duration": 0.05263159999998379,
          "durationTicks": 14,
          "midi": 46,
          "name": "A#2",
          "ticks": 38220,
          "time": 143.684268,
          "velocity": 0.6299212598425197
        },
        {
          "duration": 0.05263160000001221,
          "durationTicks": 14,
          "midi": 40,
          "name": "E2",
          "ticks": 38280,
          "time": 143.909832,
          "velocity": 0.7874015748031497
        },
        {
          "duration": 0.05263160000001221,
          "durationTicks": 14,
          "midi": 46,
          "name": "A#2",
          "ticks": 38280,
          "time": 143.909832,
          "velocity": 0.7874015748031497
        },
        {
          "duration": 0.05263160000001221,
          "durationTicks": 14,
          "midi": 46,
          "name": "A#2",
          "ticks": 38340,
          "time": 144.135396,
          "velocity": 0.6299212598425197
        },
        {
          "duration": 0.05263160000001221,
          "durationTicks": 14,
          "midi": 46,
          "name": "A#2",
          "ticks": 38400,
          "time": 144.36095999999998,
          "velocity": 0.7874015748031497
        },
        {
          "duration": 0.05263160000001221,
          "durationTicks": 14,
          "midi": 36,
          "name": "C2",
          "ticks": 38400,
          "time": 144.36095999999998,
          "velocity": 0.7874015748031497
        },
        {
          "duration": 0.05263159999998379,
          "durationTicks": 14,
          "midi": 46,
          "name": "A#2",
          "ticks": 38460,
          "time": 144.586524,
          "velocity": 0.6299212598425197
        },
        {
          "duration": 0.05263160000001221,
          "durationTicks": 14,
          "midi": 46,
          "name": "A#2",
          "ticks": 38520,
          "time": 144.812088,
          "velocity": 0.7874015748031497
        },
        {
          "duration": 0.05263160000001221,
          "durationTicks": 14,
          "midi": 40,
          "name": "E2",
          "ticks": 38520,
          "time": 144.812088,
          "velocity": 0.7874015748031497
        },
        {
          "duration": 0.05263160000001221,
          "durationTicks": 14,
          "midi": 46,
          "name": "A#2",
          "ticks": 38580,
          "time": 145.03765199999998,
          "velocity": 0.6299212598425197
        },
        {
          "duration": 0.05263159999998379,
          "durationTicks": 14,
          "midi": 46,
          "name": "A#2",
          "ticks": 38640,
          "time": 145.263216,
          "velocity": 0.7874015748031497
        },
        {
          "duration": 0.05263159999998379,
          "durationTicks": 14,
          "midi": 36,
          "name": "C2",
          "ticks": 38640,
          "time": 145.263216,
          "velocity": 0.7874015748031497
        },
        {
          "duration": 0.05263160000001221,
          "durationTicks": 14,
          "midi": 46,
          "name": "A#2",
          "ticks": 38700,
          "time": 145.48878,
          "velocity": 0.6299212598425197
        },
        {
          "duration": 0.05263160000001221,
          "durationTicks": 14,
          "midi": 40,
          "name": "E2",
          "ticks": 38760,
          "time": 145.71434399999998,
          "velocity": 0.7874015748031497
        },
        {
          "duration": 0.05263160000001221,
          "durationTicks": 14,
          "midi": 46,
          "name": "A#2",
          "ticks": 38760,
          "time": 145.71434399999998,
          "velocity": 0.7874015748031497
        },
        {
          "duration": 0.05263159999998379,
          "durationTicks": 14,
          "midi": 46,
          "name": "A#2",
          "ticks": 38820,
          "time": 145.939908,
          "velocity": 0.6299212598425197
        },
        {
          "duration": 0.05263160000001221,
          "durationTicks": 14,
          "midi": 46,
          "name": "A#2",
          "ticks": 38880,
          "time": 146.165472,
          "velocity": 0.7874015748031497
        },
        {
          "duration": 0.05263160000001221,
          "durationTicks": 14,
          "midi": 36,
          "name": "C2",
          "ticks": 38880,
          "time": 146.165472,
          "velocity": 0.7874015748031497
        },
        {
          "duration": 0.05263160000001221,
          "durationTicks": 14,
          "midi": 46,
          "name": "A#2",
          "ticks": 38940,
          "time": 146.39103599999999,
          "velocity": 0.6299212598425197
        },
        {
          "duration": 0.05263159999998379,
          "durationTicks": 14,
          "midi": 46,
          "name": "A#2",
          "ticks": 39000,
          "time": 146.6166,
          "velocity": 0.7874015748031497
        },
        {
          "duration": 0.05263159999998379,
          "durationTicks": 14,
          "midi": 40,
          "name": "E2",
          "ticks": 39000,
          "time": 146.6166,
          "velocity": 0.7874015748031497
        },
        {
          "duration": 0.05263159999998379,
          "durationTicks": 14,
          "midi": 46,
          "name": "A#2",
          "ticks": 39060,
          "time": 146.842164,
          "velocity": 0.6299212598425197
        },
        {
          "duration": 0.05263160000001221,
          "durationTicks": 14,
          "midi": 46,
          "name": "A#2",
          "ticks": 39120,
          "time": 147.067728,
          "velocity": 0.7874015748031497
        },
        {
          "duration": 0.05263160000001221,
          "durationTicks": 14,
          "midi": 36,
          "name": "C2",
          "ticks": 39120,
          "time": 147.067728,
          "velocity": 0.7874015748031497
        },
        {
          "duration": 0.05263160000001221,
          "durationTicks": 14,
          "midi": 46,
          "name": "A#2",
          "ticks": 39180,
          "time": 147.29329199999998,
          "velocity": 0.6299212598425197
        },
        {
          "duration": 0.05263159999998379,
          "durationTicks": 14,
          "midi": 40,
          "name": "E2",
          "ticks": 39240,
          "time": 147.518856,
          "velocity": 0.7874015748031497
        },
        {
          "duration": 0.05263159999998379,
          "durationTicks": 14,
          "midi": 46,
          "name": "A#2",
          "ticks": 39240,
          "time": 147.518856,
          "velocity": 0.7874015748031497
        },
        {
          "duration": 0.05263160000001221,
          "durationTicks": 14,
          "midi": 46,
          "name": "A#2",
          "ticks": 39300,
          "time": 147.74442,
          "velocity": 0.6299212598425197
        },
        {
          "duration": 0.05263160000001221,
          "durationTicks": 14,
          "midi": 46,
          "name": "A#2",
          "ticks": 39360,
          "time": 147.96998399999998,
          "velocity": 0.7874015748031497
        },
        {
          "duration": 0.05263160000001221,
          "durationTicks": 14,
          "midi": 36,
          "name": "C2",
          "ticks": 39360,
          "time": 147.96998399999998,
          "velocity": 0.7874015748031497
        },
        {
          "duration": 0.05263159999998379,
          "durationTicks": 14,
          "midi": 46,
          "name": "A#2",
          "ticks": 39420,
          "time": 148.195548,
          "velocity": 0.6299212598425197
        },
        {
          "duration": 0.05263160000001221,
          "durationTicks": 14,
          "midi": 46,
          "name": "A#2",
          "ticks": 39480,
          "time": 148.421112,
          "velocity": 0.7874015748031497
        },
        {
          "duration": 0.05263160000001221,
          "durationTicks": 14,
          "midi": 40,
          "name": "E2",
          "ticks": 39480,
          "time": 148.421112,
          "velocity": 0.7874015748031497
        },
        {
          "duration": 0.05263160000001221,
          "durationTicks": 14,
          "midi": 46,
          "name": "A#2",
          "ticks": 39540,
          "time": 148.64667599999999,
          "velocity": 0.6299212598425197
        },
        {
          "duration": 0.05263159999998379,
          "durationTicks": 14,
          "midi": 46,
          "name": "A#2",
          "ticks": 39600,
          "time": 148.87224,
          "velocity": 0.7874015748031497
        },
        {
          "duration": 0.05263159999998379,
          "durationTicks": 14,
          "midi": 36,
          "name": "C2",
          "ticks": 39600,
          "time": 148.87224,
          "velocity": 0.7874015748031497
        },
        {
          "duration": 0.05263160000001221,
          "durationTicks": 14,
          "midi": 46,
          "name": "A#2",
          "ticks": 39660,
          "time": 149.097804,
          "velocity": 0.6299212598425197
        },
        {
          "duration": 0.05263160000001221,
          "durationTicks": 14,
          "midi": 40,
          "name": "E2",
          "ticks": 39720,
          "time": 149.323368,
          "velocity": 0.7874015748031497
        },
        {
          "duration": 0.05263160000001221,
          "durationTicks": 14,
          "midi": 46,
          "name": "A#2",
          "ticks": 39720,
          "time": 149.323368,
          "velocity": 0.7874015748031497
        },
        {
          "duration": 0.05263160000001221,
          "durationTicks": 14,
          "midi": 46,
          "name": "A#2",
          "ticks": 39780,
          "time": 149.54893199999998,
          "velocity": 0.6299212598425197
        },
        {
          "duration": 0.05263159999998379,
          "durationTicks": 14,
          "midi": 46,
          "name": "A#2",
          "ticks": 39840,
          "time": 149.774496,
          "velocity": 0.7874015748031497
        },
        {
          "duration": 0.05263159999998379,
          "durationTicks": 14,
          "midi": 36,
          "name": "C2",
          "ticks": 39840,
          "time": 149.774496,
          "velocity": 0.7874015748031497
        },
        {
          "duration": 0.05263160000001221,
          "durationTicks": 14,
          "midi": 46,
          "name": "A#2",
          "ticks": 39900,
          "time": 150.00006,
          "velocity": 0.6299212598425197
        },
        {
          "duration": 0.05263160000001221,
          "durationTicks": 14,
          "midi": 46,
          "name": "A#2",
          "ticks": 39960,
          "time": 150.22562399999998,
          "velocity": 0.7874015748031497
        },
        {
          "duration": 0.05263160000001221,
          "durationTicks": 14,
          "midi": 40,
          "name": "E2",
          "ticks": 39960,
          "time": 150.22562399999998,
          "velocity": 0.7874015748031497
        },
        {
          "duration": 0.05263159999998379,
          "durationTicks": 14,
          "midi": 46,
          "name": "A#2",
          "ticks": 40020,
          "time": 150.451188,
          "velocity": 0.6299212598425197
        },
        {
          "duration": 0.05263160000001221,
          "durationTicks": 14,
          "midi": 46,
          "name": "A#2",
          "ticks": 40080,
          "time": 150.676752,
          "velocity": 0.7874015748031497
        },
        {
          "duration": 0.05263160000001221,
          "durationTicks": 14,
          "midi": 36,
          "name": "C2",
          "ticks": 40080,
          "time": 150.676752,
          "velocity": 0.7874015748031497
        },
        {
          "duration": 0.05263160000001221,
          "durationTicks": 14,
          "midi": 46,
          "name": "A#2",
          "ticks": 40140,
          "time": 150.90231599999998,
          "velocity": 0.6299212598425197
        },
        {
          "duration": 0.05263159999998379,
          "durationTicks": 14,
          "midi": 40,
          "name": "E2",
          "ticks": 40200,
          "time": 151.12788,
          "velocity": 0.7874015748031497
        },
        {
          "duration": 0.05263159999998379,
          "durationTicks": 14,
          "midi": 46,
          "name": "A#2",
          "ticks": 40200,
          "time": 151.12788,
          "velocity": 0.7874015748031497
        },
        {
          "duration": 0.05263160000001221,
          "durationTicks": 14,
          "midi": 46,
          "name": "A#2",
          "ticks": 40260,
          "time": 151.353444,
          "velocity": 0.6299212598425197
        },
        {
          "duration": 0.05263160000001221,
          "durationTicks": 14,
          "midi": 46,
          "name": "A#2",
          "ticks": 40320,
          "time": 151.579008,
          "velocity": 0.7874015748031497
        },
        {
          "duration": 0.05263160000001221,
          "durationTicks": 14,
          "midi": 36,
          "name": "C2",
          "ticks": 40320,
          "time": 151.579008,
          "velocity": 0.7874015748031497
        },
        {
          "duration": 0.05263160000001221,
          "durationTicks": 14,
          "midi": 46,
          "name": "A#2",
          "ticks": 40380,
          "time": 151.80457199999998,
          "velocity": 0.6299212598425197
        },
        {
          "duration": 0.05263159999998379,
          "durationTicks": 14,
          "midi": 46,
          "name": "A#2",
          "ticks": 40440,
          "time": 152.030136,
          "velocity": 0.7874015748031497
        },
        {
          "duration": 0.05263159999998379,
          "durationTicks": 14,
          "midi": 40,
          "name": "E2",
          "ticks": 40440,
          "time": 152.030136,
          "velocity": 0.7874015748031497
        },
        {
          "duration": 0.05263160000001221,
          "durationTicks": 14,
          "midi": 46,
          "name": "A#2",
          "ticks": 40500,
          "time": 152.2557,
          "velocity": 0.6299212598425197
        },
        {
          "duration": 0.05263160000001221,
          "durationTicks": 14,
          "midi": 46,
          "name": "A#2",
          "ticks": 40560,
          "time": 152.48126399999998,
          "velocity": 0.7874015748031497
        },
        {
          "duration": 0.05263160000001221,
          "durationTicks": 14,
          "midi": 36,
          "name": "C2",
          "ticks": 40560,
          "time": 152.48126399999998,
          "velocity": 0.7874015748031497
        },
        {
          "duration": 0.05263159999998379,
          "durationTicks": 14,
          "midi": 46,
          "name": "A#2",
          "ticks": 40620,
          "time": 152.706828,
          "velocity": 0.6299212598425197
        },
        {
          "duration": 0.05263160000001221,
          "durationTicks": 14,
          "midi": 40,
          "name": "E2",
          "ticks": 40680,
          "time": 152.932392,
          "velocity": 0.7874015748031497
        },
        {
          "duration": 0.05263160000001221,
          "durationTicks": 14,
          "midi": 46,
          "name": "A#2",
          "ticks": 40680,
          "time": 152.932392,
          "velocity": 0.7874015748031497
        },
        {
          "duration": 0.05263160000001221,
          "durationTicks": 14,
          "midi": 46,
          "name": "A#2",
          "ticks": 40740,
          "time": 153.15795599999998,
          "velocity": 0.6299212598425197
        },
        {
          "duration": 0.05263159999998379,
          "durationTicks": 14,
          "midi": 46,
          "name": "A#2",
          "ticks": 40800,
          "time": 153.38352,
          "velocity": 0.7874015748031497
        },
        {
          "duration": 0.05263159999998379,
          "durationTicks": 14,
          "midi": 36,
          "name": "C2",
          "ticks": 40800,
          "time": 153.38352,
          "velocity": 0.7874015748031497
        },
        {
          "duration": 0.05263160000001221,
          "durationTicks": 14,
          "midi": 46,
          "name": "A#2",
          "ticks": 40860,
          "time": 153.609084,
          "velocity": 0.6299212598425197
        },
        {
          "duration": 0.05263160000001221,
          "durationTicks": 14,
          "midi": 46,
          "name": "A#2",
          "ticks": 40920,
          "time": 153.834648,
          "velocity": 0.7874015748031497
        },
        {
          "duration": 0.05263160000001221,
          "durationTicks": 14,
          "midi": 40,
          "name": "E2",
          "ticks": 40920,
          "time": 153.834648,
          "velocity": 0.7874015748031497
        },
        {
          "duration": 0.05263160000001221,
          "durationTicks": 14,
          "midi": 46,
          "name": "A#2",
          "ticks": 40980,
          "time": 154.06021199999998,
          "velocity": 0.6299212598425197
        },
        {
          "duration": 0.05263159999998379,
          "durationTicks": 14,
          "midi": 46,
          "name": "A#2",
          "ticks": 41040,
          "time": 154.285776,
          "velocity": 0.7874015748031497
        },
        {
          "duration": 0.05263159999998379,
          "durationTicks": 14,
          "midi": 36,
          "name": "C2",
          "ticks": 41040,
          "time": 154.285776,
          "velocity": 0.7874015748031497
        },
        {
          "duration": 0.05263160000001221,
          "durationTicks": 14,
          "midi": 46,
          "name": "A#2",
          "ticks": 41100,
          "time": 154.51134,
          "velocity": 0.6299212598425197
        },
        {
          "duration": 0.05263160000001221,
          "durationTicks": 14,
          "midi": 40,
          "name": "E2",
          "ticks": 41160,
          "time": 154.73690399999998,
          "velocity": 0.7874015748031497
        },
        {
          "duration": 0.05263160000001221,
          "durationTicks": 14,
          "midi": 46,
          "name": "A#2",
          "ticks": 41160,
          "time": 154.73690399999998,
          "velocity": 0.7874015748031497
        },
        {
          "duration": 0.05263159999998379,
          "durationTicks": 14,
          "midi": 46,
          "name": "A#2",
          "ticks": 41220,
          "time": 154.962468,
          "velocity": 0.6299212598425197
        },
        {
          "duration": 0.05263160000001221,
          "durationTicks": 14,
          "midi": 46,
          "name": "A#2",
          "ticks": 41280,
          "time": 155.188032,
          "velocity": 0.7874015748031497
        },
        {
          "duration": 0.05263160000001221,
          "durationTicks": 14,
          "midi": 36,
          "name": "C2",
          "ticks": 41280,
          "time": 155.188032,
          "velocity": 0.7874015748031497
        },
        {
          "duration": 0.05263160000001221,
          "durationTicks": 14,
          "midi": 46,
          "name": "A#2",
          "ticks": 41340,
          "time": 155.41359599999998,
          "velocity": 0.6299212598425197
        },
        {
          "duration": 0.05263159999998379,
          "durationTicks": 14,
          "midi": 46,
          "name": "A#2",
          "ticks": 41400,
          "time": 155.63916,
          "velocity": 0.7874015748031497
        },
        {
          "duration": 0.05263159999998379,
          "durationTicks": 14,
          "midi": 40,
          "name": "E2",
          "ticks": 41400,
          "time": 155.63916,
          "velocity": 0.7874015748031497
        },
        {
          "duration": 0.05263160000001221,
          "durationTicks": 14,
          "midi": 46,
          "name": "A#2",
          "ticks": 41460,
          "time": 155.864724,
          "velocity": 0.6299212598425197
        },
        {
          "duration": 0.05263160000001221,
          "durationTicks": 14,
          "midi": 46,
          "name": "A#2",
          "ticks": 41520,
          "time": 156.090288,
          "velocity": 0.7874015748031497
        },
        {
          "duration": 0.05263160000001221,
          "durationTicks": 14,
          "midi": 36,
          "name": "C2",
          "ticks": 41520,
          "time": 156.090288,
          "velocity": 0.7874015748031497
        },
        {
          "duration": 0.05263160000001221,
          "durationTicks": 14,
          "midi": 46,
          "name": "A#2",
          "ticks": 41580,
          "time": 156.31585199999998,
          "velocity": 0.6299212598425197
        },
        {
          "duration": 0.05263159999998379,
          "durationTicks": 14,
          "midi": 40,
          "name": "E2",
          "ticks": 41640,
          "time": 156.541416,
          "velocity": 0.7874015748031497
        },
        {
          "duration": 0.05263159999998379,
          "durationTicks": 14,
          "midi": 46,
          "name": "A#2",
          "ticks": 41640,
          "time": 156.541416,
          "velocity": 0.7874015748031497
        },
        {
          "duration": 0.05263160000001221,
          "durationTicks": 14,
          "midi": 46,
          "name": "A#2",
          "ticks": 41700,
          "time": 156.76698,
          "velocity": 0.6299212598425197
        },
        {
          "duration": 0.05263160000001221,
          "durationTicks": 14,
          "midi": 36,
          "name": "C2",
          "ticks": 41760,
          "time": 156.99254399999998,
          "velocity": 0.7874015748031497
        },
        {
          "duration": 0.05263160000001221,
          "durationTicks": 14,
          "midi": 42,
          "name": "F#2",
          "ticks": 41760,
          "time": 156.99254399999998,
          "velocity": 0.7874015748031497
        },
        {
          "duration": 0.05263160000001221,
          "durationTicks": 14,
          "midi": 36,
          "name": "C2",
          "ticks": 41880,
          "time": 157.443672,
          "velocity": 0.7874015748031497
        },
        {
          "duration": 0.05263160000001221,
          "durationTicks": 14,
          "midi": 42,
          "name": "F#2",
          "ticks": 41880,
          "time": 157.443672,
          "velocity": 0.7874015748031497
        },
        {
          "duration": 0.05263159999998379,
          "durationTicks": 14,
          "midi": 36,
          "name": "C2",
          "ticks": 42000,
          "time": 157.8948,
          "velocity": 0.7874015748031497
        },
        {
          "duration": 0.05263159999998379,
          "durationTicks": 14,
          "midi": 42,
          "name": "F#2",
          "ticks": 42000,
          "time": 157.8948,
          "velocity": 0.7874015748031497
        },
        {
          "duration": 0.05263160000001221,
          "durationTicks": 14,
          "midi": 42,
          "name": "F#2",
          "ticks": 42120,
          "time": 158.345928,
          "velocity": 0.7874015748031497
        },
        {
          "duration": 0.05263159999998379,
          "durationTicks": 14,
          "midi": 42,
          "name": "F#2",
          "ticks": 42240,
          "time": 158.797056,
          "velocity": 0.7874015748031497
        },
        {
          "duration": 0.05263160000001221,
          "durationTicks": 14,
          "midi": 42,
          "name": "F#2",
          "ticks": 42360,
          "time": 159.24818399999998,
          "velocity": 0.7874015748031497
        },
        {
          "duration": 0.05263160000001221,
          "durationTicks": 14,
          "midi": 42,
          "name": "F#2",
          "ticks": 42480,
          "time": 159.699312,
          "velocity": 0.7874015748031497
        },
        {
          "duration": 0.05263159999998379,
          "durationTicks": 14,
          "midi": 36,
          "name": "C2",
          "ticks": 42600,
          "time": 160.15044,
          "velocity": 0.7874015748031497
        },
        {
          "duration": 0.05263159999998379,
          "durationTicks": 14,
          "midi": 42,
          "name": "F#2",
          "ticks": 42600,
          "time": 160.15044,
          "velocity": 0.7874015748031497
        },
        {
          "duration": 0.05263160000001221,
          "durationTicks": 14,
          "midi": 36,
          "name": "C2",
          "ticks": 42720,
          "time": 160.601568,
          "velocity": 0.7874015748031497
        },
        {
          "duration": 0.05263160000001221,
          "durationTicks": 14,
          "midi": 42,
          "name": "F#2",
          "ticks": 42720,
          "time": 160.601568,
          "velocity": 0.7874015748031497
        },
        {
          "duration": 0.05263159999998379,
          "durationTicks": 14,
          "midi": 36,
          "name": "C2",
          "ticks": 42840,
          "time": 161.052696,
          "velocity": 0.7874015748031497
        },
        {
          "duration": 0.05263159999998379,
          "durationTicks": 14,
          "midi": 42,
          "name": "F#2",
          "ticks": 42840,
          "time": 161.052696,
          "velocity": 0.7874015748031497
        },
        {
          "duration": 0.05263160000001221,
          "durationTicks": 14,
          "midi": 36,
          "name": "C2",
          "ticks": 42960,
          "time": 161.50382399999998,
          "velocity": 0.7874015748031497
        },
        {
          "duration": 0.05263160000001221,
          "durationTicks": 14,
          "midi": 42,
          "name": "F#2",
          "ticks": 42960,
          "time": 161.50382399999998,
          "velocity": 0.7874015748031497
        },
        {
          "duration": 0.05263160000001221,
          "durationTicks": 14,
          "midi": 42,
          "name": "F#2",
          "ticks": 43080,
          "time": 161.954952,
          "velocity": 0.7874015748031497
        },
        {
          "duration": 0.05263159999998379,
          "durationTicks": 14,
          "midi": 42,
          "name": "F#2",
          "ticks": 43200,
          "time": 162.40608,
          "velocity": 0.7874015748031497
        },
        {
          "duration": 0.05263160000001221,
          "durationTicks": 14,
          "midi": 42,
          "name": "F#2",
          "ticks": 43320,
          "time": 162.85720799999999,
          "velocity": 0.7874015748031497
        },
        {
          "duration": 0.05263159999998379,
          "durationTicks": 14,
          "midi": 42,
          "name": "F#2",
          "ticks": 43440,
          "time": 163.308336,
          "velocity": 0.7874015748031497
        },
        {
          "duration": 0.05263160000001221,
          "durationTicks": 14,
          "midi": 36,
          "name": "C2",
          "ticks": 43560,
          "time": 163.75946399999998,
          "velocity": 0.7874015748031497
        },
        {
          "duration": 0.05263160000001221,
          "durationTicks": 14,
          "midi": 42,
          "name": "F#2",
          "ticks": 43560,
          "time": 163.75946399999998,
          "velocity": 0.7874015748031497
        },
        {
          "duration": 0.05263160000001221,
          "durationTicks": 14,
          "midi": 36,
          "name": "C2",
          "ticks": 43680,
          "time": 164.210592,
          "velocity": 0.7874015748031497
        },
        {
          "duration": 0.05263160000001221,
          "durationTicks": 14,
          "midi": 42,
          "name": "F#2",
          "ticks": 43680,
          "time": 164.210592,
          "velocity": 0.7874015748031497
        },
        {
          "duration": 0.05263159999998379,
          "durationTicks": 14,
          "midi": 36,
          "name": "C2",
          "ticks": 43800,
          "time": 164.66172,
          "velocity": 0.7874015748031497
        },
        {
          "duration": 0.05263159999998379,
          "durationTicks": 14,
          "midi": 42,
          "name": "F#2",
          "ticks": 43800,
          "time": 164.66172,
          "velocity": 0.7874015748031497
        },
        {
          "duration": 0.05263160000001221,
          "durationTicks": 14,
          "midi": 36,
          "name": "C2",
          "ticks": 43920,
          "time": 165.11284799999999,
          "velocity": 0.7874015748031497
        },
        {
          "duration": 0.05263160000001221,
          "durationTicks": 14,
          "midi": 42,
          "name": "F#2",
          "ticks": 43920,
          "time": 165.11284799999999,
          "velocity": 0.7874015748031497
        },
        {
          "duration": 0.05263159999998379,
          "durationTicks": 14,
          "midi": 42,
          "name": "F#2",
          "ticks": 44040,
          "time": 165.563976,
          "velocity": 0.7874015748031497
        },
        {
          "duration": 0.05263160000001221,
          "durationTicks": 14,
          "midi": 42,
          "name": "F#2",
          "ticks": 44160,
          "time": 166.01510399999998,
          "velocity": 0.7874015748031497
        },
        {
          "duration": 0.05263160000001221,
          "durationTicks": 14,
          "midi": 42,
          "name": "F#2",
          "ticks": 44280,
          "time": 166.466232,
          "velocity": 0.7874015748031497
        },
        {
          "duration": 0.05263159999998379,
          "durationTicks": 14,
          "midi": 42,
          "name": "F#2",
          "ticks": 44400,
          "time": 166.91736,
          "velocity": 0.7874015748031497
        },
        {
          "duration": 0.05263160000001221,
          "durationTicks": 14,
          "midi": 36,
          "name": "C2",
          "ticks": 44520,
          "time": 167.36848799999999,
          "velocity": 0.7874015748031497
        },
        {
          "duration": 0.05263160000001221,
          "durationTicks": 14,
          "midi": 42,
          "name": "F#2",
          "ticks": 44520,
          "time": 167.36848799999999,
          "velocity": 0.7874015748031497
        },
        {
          "duration": 0.05263159999998379,
          "durationTicks": 14,
          "midi": 36,
          "name": "C2",
          "ticks": 44640,
          "time": 167.819616,
          "velocity": 0.7874015748031497
        },
        {
          "duration": 0.05263159999998379,
          "durationTicks": 14,
          "midi": 42,
          "name": "F#2",
          "ticks": 44640,
          "time": 167.819616,
          "velocity": 0.7874015748031497
        },
        {
          "duration": 0.05263160000001221,
          "durationTicks": 14,
          "midi": 42,
          "name": "F#2",
          "ticks": 44760,
          "time": 168.27074399999998,
          "velocity": 0.7874015748031497
        },
        {
          "duration": 0.05263160000001221,
          "durationTicks": 14,
          "midi": 36,
          "name": "C2",
          "ticks": 44760,
          "time": 168.27074399999998,
          "velocity": 0.7874015748031497
        },
        {
          "duration": 0.05263160000001221,
          "durationTicks": 14,
          "midi": 42,
          "name": "F#2",
          "ticks": 44880,
          "time": 168.721872,
          "velocity": 0.7874015748031497
        },
        {
          "duration": 0.05263160000001221,
          "durationTicks": 14,
          "midi": 36,
          "name": "C2",
          "ticks": 44880,
          "time": 168.721872,
          "velocity": 0.7874015748031497
        },
        {
          "duration": 0.05263160000001221,
          "durationTicks": 14,
          "midi": 44,
          "name": "G#2",
          "ticks": 45120,
          "time": 169.62412799999998,
          "velocity": 0.47244094488188976
        },
        {
          "duration": 0.05263159999998379,
          "durationTicks": 14,
          "midi": 44,
          "name": "G#2",
          "ticks": 45240,
          "time": 170.075256,
          "velocity": 0.47244094488188976
        },
        {
          "duration": 0.05263160000001221,
          "durationTicks": 14,
          "midi": 44,
          "name": "G#2",
          "ticks": 45360,
          "time": 170.52638399999998,
          "velocity": 0.47244094488188976
        },
        {
          "duration": 0.05263160000001221,
          "durationTicks": 14,
          "midi": 44,
          "name": "G#2",
          "ticks": 45480,
          "time": 170.977512,
          "velocity": 0.47244094488188976
        },
        {
          "duration": 0.05263160000001221,
          "durationTicks": 14,
          "midi": 40,
          "name": "E2",
          "ticks": 45540,
          "time": 171.20307599999998,
          "velocity": 0.7874015748031497
        },
        {
          "duration": 0.05263160000001221,
          "durationTicks": 14,
          "midi": 40,
          "name": "E2",
          "ticks": 45570,
          "time": 171.315858,
          "velocity": 0.7874015748031497
        },
        {
          "duration": 0.05263159999998379,
          "durationTicks": 14,
          "midi": 49,
          "name": "C#3",
          "ticks": 45600,
          "time": 171.42864,
          "velocity": 0.7874015748031497
        },
        {
          "duration": 0.05263159999998379,
          "durationTicks": 14,
          "midi": 36,
          "name": "C2",
          "ticks": 45600,
          "time": 171.42864,
          "velocity": 0.7874015748031497
        },
        {
          "duration": 0.05263160000001221,
          "durationTicks": 14,
          "midi": 46,
          "name": "A#2",
          "ticks": 45720,
          "time": 171.87976799999998,
          "velocity": 0.7874015748031497
        },
        {
          "duration": 0.05263160000001221,
          "durationTicks": 14,
          "midi": 40,
          "name": "E2",
          "ticks": 45720,
          "time": 171.87976799999998,
          "velocity": 0.7874015748031497
        },
        {
          "duration": 0.05263160000001221,
          "durationTicks": 14,
          "midi": 46,
          "name": "A#2",
          "ticks": 45780,
          "time": 172.10533199999998,
          "velocity": 0.6299212598425197
        },
        {
          "duration": 0.05263159999998379,
          "durationTicks": 14,
          "midi": 36,
          "name": "C2",
          "ticks": 45840,
          "time": 172.330896,
          "velocity": 0.7874015748031497
        },
        {
          "duration": 0.05263159999998379,
          "durationTicks": 14,
          "midi": 46,
          "name": "A#2",
          "ticks": 45840,
          "time": 172.330896,
          "velocity": 0.7874015748031497
        },
        {
          "duration": 0.05263160000001221,
          "durationTicks": 14,
          "midi": 46,
          "name": "A#2",
          "ticks": 45900,
          "time": 172.55646,
          "velocity": 0.6299212598425197
        },
        {
          "duration": 0.05263160000001221,
          "durationTicks": 14,
          "midi": 40,
          "name": "E2",
          "ticks": 45960,
          "time": 172.78202399999998,
          "velocity": 0.7874015748031497
        },
        {
          "duration": 0.05263160000001221,
          "durationTicks": 14,
          "midi": 46,
          "name": "A#2",
          "ticks": 45960,
          "time": 172.78202399999998,
          "velocity": 0.7874015748031497
        },
        {
          "duration": 0.05263159999998379,
          "durationTicks": 14,
          "midi": 46,
          "name": "A#2",
          "ticks": 46020,
          "time": 173.007588,
          "velocity": 0.6299212598425197
        },
        {
          "duration": 0.05263160000001221,
          "durationTicks": 14,
          "midi": 49,
          "name": "C#3",
          "ticks": 46080,
          "time": 173.233152,
          "velocity": 0.7874015748031497
        },
        {
          "duration": 0.05263160000001221,
          "durationTicks": 14,
          "midi": 36,
          "name": "C2",
          "ticks": 46080,
          "time": 173.233152,
          "velocity": 0.7874015748031497
        },
        {
          "duration": 0.05263160000001221,
          "durationTicks": 14,
          "midi": 46,
          "name": "A#2",
          "ticks": 46080,
          "time": 173.233152,
          "velocity": 0.7874015748031497
        },
        {
          "duration": 0.05263160000001221,
          "durationTicks": 14,
          "midi": 46,
          "name": "A#2",
          "ticks": 46140,
          "time": 173.45871599999998,
          "velocity": 0.6299212598425197
        },
        {
          "duration": 0.05263159999998379,
          "durationTicks": 14,
          "midi": 40,
          "name": "E2",
          "ticks": 46200,
          "time": 173.68428,
          "velocity": 0.7874015748031497
        },
        {
          "duration": 0.05263159999998379,
          "durationTicks": 14,
          "midi": 46,
          "name": "A#2",
          "ticks": 46200,
          "time": 173.68428,
          "velocity": 0.7874015748031497
        },
        {
          "duration": 0.05263160000001221,
          "durationTicks": 14,
          "midi": 46,
          "name": "A#2",
          "ticks": 46260,
          "time": 173.909844,
          "velocity": 0.6299212598425197
        },
        {
          "duration": 0.05263160000001221,
          "durationTicks": 14,
          "midi": 36,
          "name": "C2",
          "ticks": 46320,
          "time": 174.13540799999998,
          "velocity": 0.7874015748031497
        },
        {
          "duration": 0.05263160000001221,
          "durationTicks": 14,
          "midi": 46,
          "name": "A#2",
          "ticks": 46320,
          "time": 174.13540799999998,
          "velocity": 0.7874015748031497
        },
        {
          "duration": 0.05263159999998379,
          "durationTicks": 14,
          "midi": 46,
          "name": "A#2",
          "ticks": 46380,
          "time": 174.360972,
          "velocity": 0.6299212598425197
        },
        {
          "duration": 0.05263159999998379,
          "durationTicks": 14,
          "midi": 40,
          "name": "E2",
          "ticks": 46440,
          "time": 174.586536,
          "velocity": 0.7874015748031497
        },
        {
          "duration": 0.05263159999998379,
          "durationTicks": 14,
          "midi": 46,
          "name": "A#2",
          "ticks": 46440,
          "time": 174.586536,
          "velocity": 0.7874015748031497
        },
        {
          "duration": 0.05263160000001221,
          "durationTicks": 14,
          "midi": 46,
          "name": "A#2",
          "ticks": 46500,
          "time": 174.8121,
          "velocity": 0.6299212598425197
        },
        {
          "duration": 0.05263160000001221,
          "durationTicks": 14,
          "midi": 49,
          "name": "C#3",
          "ticks": 46560,
          "time": 175.03766399999998,
          "velocity": 0.7874015748031497
        },
        {
          "duration": 0.05263160000001221,
          "durationTicks": 14,
          "midi": 36,
          "name": "C2",
          "ticks": 46560,
          "time": 175.03766399999998,
          "velocity": 0.7874015748031497
        },
        {
          "duration": 0.05263160000001221,
          "durationTicks": 14,
          "midi": 46,
          "name": "A#2",
          "ticks": 46560,
          "time": 175.03766399999998,
          "velocity": 0.7874015748031497
        },
        {
          "duration": 0.05263159999998379,
          "durationTicks": 14,
          "midi": 46,
          "name": "A#2",
          "ticks": 46620,
          "time": 175.263228,
          "velocity": 0.6299212598425197
        },
        {
          "duration": 0.05263160000001221,
          "durationTicks": 14,
          "midi": 40,
          "name": "E2",
          "ticks": 46680,
          "time": 175.488792,
          "velocity": 0.7874015748031497
        },
        {
          "duration": 0.05263160000001221,
          "durationTicks": 14,
          "midi": 46,
          "name": "A#2",
          "ticks": 46680,
          "time": 175.488792,
          "velocity": 0.7874015748031497
        },
        {
          "duration": 0.05263160000001221,
          "durationTicks": 14,
          "midi": 46,
          "name": "A#2",
          "ticks": 46740,
          "time": 175.71435599999998,
          "velocity": 0.6299212598425197
        },
        {
          "duration": 0.05263159999998379,
          "durationTicks": 14,
          "midi": 36,
          "name": "C2",
          "ticks": 46800,
          "time": 175.93992,
          "velocity": 0.7874015748031497
        },
        {
          "duration": 0.05263159999998379,
          "durationTicks": 14,
          "midi": 46,
          "name": "A#2",
          "ticks": 46800,
          "time": 175.93992,
          "velocity": 0.7874015748031497
        },
        {
          "duration": 0.05263160000001221,
          "durationTicks": 14,
          "midi": 46,
          "name": "A#2",
          "ticks": 46860,
          "time": 176.165484,
          "velocity": 0.6299212598425197
        },
        {
          "duration": 0.05263160000001221,
          "durationTicks": 14,
          "midi": 40,
          "name": "E2",
          "ticks": 46920,
          "time": 176.39104799999998,
          "velocity": 0.7874015748031497
        },
        {
          "duration": 0.05263160000001221,
          "durationTicks": 14,
          "midi": 46,
          "name": "A#2",
          "ticks": 46920,
          "time": 176.39104799999998,
          "velocity": 0.7874015748031497
        },
        {
          "duration": 0.05263159999998379,
          "durationTicks": 14,
          "midi": 46,
          "name": "A#2",
          "ticks": 46980,
          "time": 176.616612,
          "velocity": 0.6299212598425197
        },
        {
          "duration": 0.05263160000001221,
          "durationTicks": 14,
          "midi": 49,
          "name": "C#3",
          "ticks": 47040,
          "time": 176.842176,
          "velocity": 0.7874015748031497
        },
        {
          "duration": 0.05263160000001221,
          "durationTicks": 14,
          "midi": 36,
          "name": "C2",
          "ticks": 47040,
          "time": 176.842176,
          "velocity": 0.7874015748031497
        },
        {
          "duration": 0.05263160000001221,
          "durationTicks": 14,
          "midi": 46,
          "name": "A#2",
          "ticks": 47040,
          "time": 176.842176,
          "velocity": 0.7874015748031497
        },
        {
          "duration": 0.05263160000001221,
          "durationTicks": 14,
          "midi": 46,
          "name": "A#2",
          "ticks": 47100,
          "time": 177.06774,
          "velocity": 0.6299212598425197
        },
        {
          "duration": 0.05263160000001221,
          "durationTicks": 14,
          "midi": 40,
          "name": "E2",
          "ticks": 47160,
          "time": 177.29330399999998,
          "velocity": 0.7874015748031497
        },
        {
          "duration": 0.05263160000001221,
          "durationTicks": 14,
          "midi": 46,
          "name": "A#2",
          "ticks": 47160,
          "time": 177.29330399999998,
          "velocity": 0.7874015748031497
        },
        {
          "duration": 0.05263159999998379,
          "durationTicks": 14,
          "midi": 46,
          "name": "A#2",
          "ticks": 47220,
          "time": 177.518868,
          "velocity": 0.6299212598425197
        },
        {
          "duration": 0.05263160000001221,
          "durationTicks": 14,
          "midi": 36,
          "name": "C2",
          "ticks": 47280,
          "time": 177.744432,
          "velocity": 0.7874015748031497
        },
        {
          "duration": 0.05263160000001221,
          "durationTicks": 14,
          "midi": 46,
          "name": "A#2",
          "ticks": 47280,
          "time": 177.744432,
          "velocity": 0.7874015748031497
        },
        {
          "duration": 0.05263160000001221,
          "durationTicks": 14,
          "midi": 46,
          "name": "A#2",
          "ticks": 47340,
          "time": 177.96999599999998,
          "velocity": 0.6299212598425197
        },
        {
          "duration": 0.05263159999998379,
          "durationTicks": 14,
          "midi": 40,
          "name": "E2",
          "ticks": 47400,
          "time": 178.19556,
          "velocity": 0.7874015748031497
        },
        {
          "duration": 0.05263159999998379,
          "durationTicks": 14,
          "midi": 46,
          "name": "A#2",
          "ticks": 47400,
          "time": 178.19556,
          "velocity": 0.7874015748031497
        },
        {
          "duration": 0.05263160000001221,
          "durationTicks": 14,
          "midi": 46,
          "name": "A#2",
          "ticks": 47460,
          "time": 178.421124,
          "velocity": 0.6299212598425197
        },
        {
          "duration": 0.05263160000001221,
          "durationTicks": 14,
          "midi": 49,
          "name": "C#3",
          "ticks": 47520,
          "time": 178.64668799999998,
          "velocity": 0.7874015748031497
        },
        {
          "duration": 0.05263160000001221,
          "durationTicks": 14,
          "midi": 36,
          "name": "C2",
          "ticks": 47520,
          "time": 178.64668799999998,
          "velocity": 0.7874015748031497
        },
        {
          "duration": 0.05263160000001221,
          "durationTicks": 14,
          "midi": 46,
          "name": "A#2",
          "ticks": 47520,
          "time": 178.64668799999998,
          "velocity": 0.7874015748031497
        },
        {
          "duration": 0.05263159999998379,
          "durationTicks": 14,
          "midi": 46,
          "name": "A#2",
          "ticks": 47580,
          "time": 178.872252,
          "velocity": 0.6299212598425197
        },
        {
          "duration": 0.05263160000001221,
          "durationTicks": 14,
          "midi": 40,
          "name": "E2",
          "ticks": 47640,
          "time": 179.097816,
          "velocity": 0.7874015748031497
        },
        {
          "duration": 0.05263160000001221,
          "durationTicks": 14,
          "midi": 46,
          "name": "A#2",
          "ticks": 47640,
          "time": 179.097816,
          "velocity": 0.7874015748031497
        },
        {
          "duration": 0.05263160000001221,
          "durationTicks": 14,
          "midi": 46,
          "name": "A#2",
          "ticks": 47700,
          "time": 179.32338,
          "velocity": 0.6299212598425197
        },
        {
          "duration": 0.05263160000001221,
          "durationTicks": 14,
          "midi": 36,
          "name": "C2",
          "ticks": 47760,
          "time": 179.54894399999998,
          "velocity": 0.7874015748031497
        },
        {
          "duration": 0.05263160000001221,
          "durationTicks": 14,
          "midi": 46,
          "name": "A#2",
          "ticks": 47760,
          "time": 179.54894399999998,
          "velocity": 0.7874015748031497
        },
        {
          "duration": 0.05263159999998379,
          "durationTicks": 14,
          "midi": 46,
          "name": "A#2",
          "ticks": 47820,
          "time": 179.774508,
          "velocity": 0.6299212598425197
        },
        {
          "duration": 0.05263160000001221,
          "durationTicks": 14,
          "midi": 40,
          "name": "E2",
          "ticks": 47880,
          "time": 180.000072,
          "velocity": 0.7874015748031497
        },
        {
          "duration": 0.05263160000001221,
          "durationTicks": 14,
          "midi": 46,
          "name": "A#2",
          "ticks": 47880,
          "time": 180.000072,
          "velocity": 0.7874015748031497
        },
        {
          "duration": 0.05263160000001221,
          "durationTicks": 14,
          "midi": 46,
          "name": "A#2",
          "ticks": 47940,
          "time": 180.22563599999998,
          "velocity": 0.6299212598425197
        },
        {
          "duration": 0.05263159999998379,
          "durationTicks": 14,
          "midi": 49,
          "name": "C#3",
          "ticks": 48000,
          "time": 180.4512,
          "velocity": 0.7874015748031497
        },
        {
          "duration": 0.05263159999998379,
          "durationTicks": 14,
          "midi": 36,
          "name": "C2",
          "ticks": 48000,
          "time": 180.4512,
          "velocity": 0.7874015748031497
        },
        {
          "duration": 0.05263159999998379,
          "durationTicks": 14,
          "midi": 46,
          "name": "A#2",
          "ticks": 48000,
          "time": 180.4512,
          "velocity": 0.7874015748031497
        },
        {
          "duration": 0.05263160000001221,
          "durationTicks": 14,
          "midi": 46,
          "name": "A#2",
          "ticks": 48060,
          "time": 180.676764,
          "velocity": 0.6299212598425197
        },
        {
          "duration": 0.05263160000001221,
          "durationTicks": 14,
          "midi": 40,
          "name": "E2",
          "ticks": 48120,
          "time": 180.90232799999998,
          "velocity": 0.7874015748031497
        },
        {
          "duration": 0.05263160000001221,
          "durationTicks": 14,
          "midi": 46,
          "name": "A#2",
          "ticks": 48120,
          "time": 180.90232799999998,
          "velocity": 0.7874015748031497
        },
        {
          "duration": 0.05263159999998379,
          "durationTicks": 14,
          "midi": 46,
          "name": "A#2",
          "ticks": 48180,
          "time": 181.127892,
          "velocity": 0.6299212598425197
        },
        {
          "duration": 0.05263160000001221,
          "durationTicks": 14,
          "midi": 36,
          "name": "C2",
          "ticks": 48240,
          "time": 181.353456,
          "velocity": 0.7874015748031497
        },
        {
          "duration": 0.05263160000001221,
          "durationTicks": 14,
          "midi": 46,
          "name": "A#2",
          "ticks": 48240,
          "time": 181.353456,
          "velocity": 0.7874015748031497
        },
        {
          "duration": 0.05263160000001221,
          "durationTicks": 14,
          "midi": 46,
          "name": "A#2",
          "ticks": 48300,
          "time": 181.57901999999999,
          "velocity": 0.6299212598425197
        },
        {
          "duration": 0.05263160000001221,
          "durationTicks": 14,
          "midi": 40,
          "name": "E2",
          "ticks": 48360,
          "time": 181.80458399999998,
          "velocity": 0.7874015748031497
        },
        {
          "duration": 0.05263160000001221,
          "durationTicks": 14,
          "midi": 46,
          "name": "A#2",
          "ticks": 48360,
          "time": 181.80458399999998,
          "velocity": 0.7874015748031497
        },
        {
          "duration": 0.05263159999998379,
          "durationTicks": 14,
          "midi": 46,
          "name": "A#2",
          "ticks": 48420,
          "time": 182.030148,
          "velocity": 0.6299212598425197
        },
        {
          "duration": 0.05263160000001221,
          "durationTicks": 14,
          "midi": 49,
          "name": "C#3",
          "ticks": 48480,
          "time": 182.255712,
          "velocity": 0.7874015748031497
        },
        {
          "duration": 0.05263160000001221,
          "durationTicks": 14,
          "midi": 36,
          "name": "C2",
          "ticks": 48480,
          "time": 182.255712,
          "velocity": 0.7874015748031497
        },
        {
          "duration": 0.05263160000001221,
          "durationTicks": 14,
          "midi": 46,
          "name": "A#2",
          "ticks": 48480,
          "time": 182.255712,
          "velocity": 0.7874015748031497
        },
        {
          "duration": 0.05263160000001221,
          "durationTicks": 14,
          "midi": 46,
          "name": "A#2",
          "ticks": 48540,
          "time": 182.48127599999998,
          "velocity": 0.6299212598425197
        },
        {
          "duration": 0.05263159999998379,
          "durationTicks": 14,
          "midi": 40,
          "name": "E2",
          "ticks": 48600,
          "time": 182.70684,
          "velocity": 0.7874015748031497
        },
        {
          "duration": 0.05263159999998379,
          "durationTicks": 14,
          "midi": 46,
          "name": "A#2",
          "ticks": 48600,
          "time": 182.70684,
          "velocity": 0.7874015748031497
        },
        {
          "duration": 0.05263160000001221,
          "durationTicks": 14,
          "midi": 46,
          "name": "A#2",
          "ticks": 48660,
          "time": 182.932404,
          "velocity": 0.6299212598425197
        },
        {
          "duration": 0.05263160000001221,
          "durationTicks": 14,
          "midi": 36,
          "name": "C2",
          "ticks": 48720,
          "time": 183.15796799999998,
          "velocity": 0.7874015748031497
        },
        {
          "duration": 0.05263160000001221,
          "durationTicks": 14,
          "midi": 46,
          "name": "A#2",
          "ticks": 48720,
          "time": 183.15796799999998,
          "velocity": 0.7874015748031497
        },
        {
          "duration": 0.05263159999998379,
          "durationTicks": 14,
          "midi": 46,
          "name": "A#2",
          "ticks": 48780,
          "time": 183.383532,
          "velocity": 0.6299212598425197
        },
        {
          "duration": 0.05263160000001221,
          "durationTicks": 14,
          "midi": 40,
          "name": "E2",
          "ticks": 48840,
          "time": 183.609096,
          "velocity": 0.7874015748031497
        },
        {
          "duration": 0.05263160000001221,
          "durationTicks": 14,
          "midi": 46,
          "name": "A#2",
          "ticks": 48840,
          "time": 183.609096,
          "velocity": 0.7874015748031497
        },
        {
          "duration": 0.05263160000001221,
          "durationTicks": 14,
          "midi": 46,
          "name": "A#2",
          "ticks": 48900,
          "time": 183.83465999999999,
          "velocity": 0.6299212598425197
        },
        {
          "duration": 0.05263160000001221,
          "durationTicks": 14,
          "midi": 49,
          "name": "C#3",
          "ticks": 48960,
          "time": 184.06022399999998,
          "velocity": 0.7874015748031497
        },
        {
          "duration": 0.05263160000001221,
          "durationTicks": 14,
          "midi": 36,
          "name": "C2",
          "ticks": 48960,
          "time": 184.06022399999998,
          "velocity": 0.7874015748031497
        },
        {
          "duration": 0.05263160000001221,
          "durationTicks": 14,
          "midi": 46,
          "name": "A#2",
          "ticks": 48960,
          "time": 184.06022399999998,
          "velocity": 0.7874015748031497
        },
        {
          "duration": 0.05263159999998379,
          "durationTicks": 14,
          "midi": 46,
          "name": "A#2",
          "ticks": 49020,
          "time": 184.285788,
          "velocity": 0.6299212598425197
        },
        {
          "duration": 0.05263160000001221,
          "durationTicks": 14,
          "midi": 40,
          "name": "E2",
          "ticks": 49080,
          "time": 184.511352,
          "velocity": 0.7874015748031497
        },
        {
          "duration": 0.05263160000001221,
          "durationTicks": 14,
          "midi": 46,
          "name": "A#2",
          "ticks": 49080,
          "time": 184.511352,
          "velocity": 0.7874015748031497
        },
        {
          "duration": 0.05263160000001221,
          "durationTicks": 14,
          "midi": 46,
          "name": "A#2",
          "ticks": 49140,
          "time": 184.73691599999998,
          "velocity": 0.6299212598425197
        },
        {
          "duration": 0.05263159999998379,
          "durationTicks": 14,
          "midi": 36,
          "name": "C2",
          "ticks": 49200,
          "time": 184.96248,
          "velocity": 0.7874015748031497
        },
        {
          "duration": 0.05263159999998379,
          "durationTicks": 14,
          "midi": 46,
          "name": "A#2",
          "ticks": 49200,
          "time": 184.96248,
          "velocity": 0.7874015748031497
        },
        {
          "duration": 0.05263160000001221,
          "durationTicks": 14,
          "midi": 46,
          "name": "A#2",
          "ticks": 49260,
          "time": 185.188044,
          "velocity": 0.6299212598425197
        },
        {
          "duration": 0.05263160000001221,
          "durationTicks": 14,
          "midi": 40,
          "name": "E2",
          "ticks": 49320,
          "time": 185.41360799999998,
          "velocity": 0.7874015748031497
        },
        {
          "duration": 0.05263160000001221,
          "durationTicks": 14,
          "midi": 46,
          "name": "A#2",
          "ticks": 49320,
          "time": 185.41360799999998,
          "velocity": 0.7874015748031497
        },
        {
          "duration": 0.05263159999998379,
          "durationTicks": 14,
          "midi": 46,
          "name": "A#2",
          "ticks": 49380,
          "time": 185.639172,
          "velocity": 0.6299212598425197
        },
        {
          "duration": 0.05263160000001221,
          "durationTicks": 14,
          "midi": 49,
          "name": "C#3",
          "ticks": 49440,
          "time": 185.864736,
          "velocity": 0.7874015748031497
        },
        {
          "duration": 0.05263160000001221,
          "durationTicks": 14,
          "midi": 36,
          "name": "C2",
          "ticks": 49440,
          "time": 185.864736,
          "velocity": 0.7874015748031497
        },
        {
          "duration": 0.05263160000001221,
          "durationTicks": 14,
          "midi": 46,
          "name": "A#2",
          "ticks": 49440,
          "time": 185.864736,
          "velocity": 0.7874015748031497
        },
        {
          "duration": 0.05263160000001221,
          "durationTicks": 14,
          "midi": 46,
          "name": "A#2",
          "ticks": 49500,
          "time": 186.09029999999998,
          "velocity": 0.6299212598425197
        },
        {
          "duration": 0.05263160000001221,
          "durationTicks": 14,
          "midi": 40,
          "name": "E2",
          "ticks": 49560,
          "time": 186.31586399999998,
          "velocity": 0.7874015748031497
        },
        {
          "duration": 0.05263160000001221,
          "durationTicks": 14,
          "midi": 46,
          "name": "A#2",
          "ticks": 49560,
          "time": 186.31586399999998,
          "velocity": 0.7874015748031497
        },
        {
          "duration": 0.05263159999998379,
          "durationTicks": 14,
          "midi": 46,
          "name": "A#2",
          "ticks": 49620,
          "time": 186.541428,
          "velocity": 0.6299212598425197
        },
        {
          "duration": 0.05263160000001221,
          "durationTicks": 14,
          "midi": 36,
          "name": "C2",
          "ticks": 49680,
          "time": 186.766992,
          "velocity": 0.7874015748031497
        },
        {
          "duration": 0.05263160000001221,
          "durationTicks": 14,
          "midi": 46,
          "name": "A#2",
          "ticks": 49680,
          "time": 186.766992,
          "velocity": 0.7874015748031497
        },
        {
          "duration": 0.05263160000001221,
          "durationTicks": 14,
          "midi": 46,
          "name": "A#2",
          "ticks": 49740,
          "time": 186.99255599999998,
          "velocity": 0.6299212598425197
        },
        {
          "duration": 0.05263159999998379,
          "durationTicks": 14,
          "midi": 40,
          "name": "E2",
          "ticks": 49800,
          "time": 187.21812,
          "velocity": 0.7874015748031497
        },
        {
          "duration": 0.05263159999998379,
          "durationTicks": 14,
          "midi": 46,
          "name": "A#2",
          "ticks": 49800,
          "time": 187.21812,
          "velocity": 0.7874015748031497
        },
        {
          "duration": 0.05263160000001221,
          "durationTicks": 14,
          "midi": 46,
          "name": "A#2",
          "ticks": 49860,
          "time": 187.443684,
          "velocity": 0.6299212598425197
        },
        {
          "duration": 0.05263160000001221,
          "durationTicks": 14,
          "midi": 36,
          "name": "C2",
          "ticks": 49920,
          "time": 187.66924799999998,
          "velocity": 0.7874015748031497
        },
        {
          "duration": 0.05263160000001221,
          "durationTicks": 14,
          "midi": 46,
          "name": "A#2",
          "ticks": 49920,
          "time": 187.66924799999998,
          "velocity": 0.7874015748031497
        },
        {
          "duration": 0.05263159999998379,
          "durationTicks": 14,
          "midi": 46,
          "name": "A#2",
          "ticks": 49980,
          "time": 187.894812,
          "velocity": 0.6299212598425197
        },
        {
          "duration": 0.05263160000001221,
          "durationTicks": 14,
          "midi": 40,
          "name": "E2",
          "ticks": 50040,
          "time": 188.120376,
          "velocity": 0.7874015748031497
        },
        {
          "duration": 0.05263160000001221,
          "durationTicks": 14,
          "midi": 46,
          "name": "A#2",
          "ticks": 50040,
          "time": 188.120376,
          "velocity": 0.7874015748031497
        },
        {
          "duration": 0.05263160000001221,
          "durationTicks": 14,
          "midi": 46,
          "name": "A#2",
          "ticks": 50100,
          "time": 188.34593999999998,
          "velocity": 0.6299212598425197
        },
        {
          "duration": 0.05263160000001221,
          "durationTicks": 14,
          "midi": 36,
          "name": "C2",
          "ticks": 50160,
          "time": 188.57150399999998,
          "velocity": 0.7874015748031497
        },
        {
          "duration": 0.05263160000001221,
          "durationTicks": 14,
          "midi": 46,
          "name": "A#2",
          "ticks": 50160,
          "time": 188.57150399999998,
          "velocity": 0.7874015748031497
        },
        {
          "duration": 0.05263159999998379,
          "durationTicks": 14,
          "midi": 46,
          "name": "A#2",
          "ticks": 50220,
          "time": 188.797068,
          "velocity": 0.6299212598425197
        },
        {
          "duration": 0.05263160000001221,
          "durationTicks": 14,
          "midi": 40,
          "name": "E2",
          "ticks": 50280,
          "time": 189.022632,
          "velocity": 0.7874015748031497
        },
        {
          "duration": 0.05263160000001221,
          "durationTicks": 14,
          "midi": 46,
          "name": "A#2",
          "ticks": 50280,
          "time": 189.022632,
          "velocity": 0.7874015748031497
        },
        {
          "duration": 0.05263160000001221,
          "durationTicks": 14,
          "midi": 46,
          "name": "A#2",
          "ticks": 50340,
          "time": 189.24819599999998,
          "velocity": 0.6299212598425197
        },
        {
          "duration": 0.05263159999998379,
          "durationTicks": 14,
          "midi": 49,
          "name": "C#3",
          "ticks": 50400,
          "time": 189.47376,
          "velocity": 0.7874015748031497
        },
        {
          "duration": 0.05263159999998379,
          "durationTicks": 14,
          "midi": 36,
          "name": "C2",
          "ticks": 50400,
          "time": 189.47376,
          "velocity": 0.7874015748031497
        },
        {
          "duration": 0.05263159999998379,
          "durationTicks": 14,
          "midi": 46,
          "name": "A#2",
          "ticks": 50400,
          "time": 189.47376,
          "velocity": 0.7874015748031497
        },
        {
          "duration": 0.05263160000001221,
          "durationTicks": 14,
          "midi": 46,
          "name": "A#2",
          "ticks": 50460,
          "time": 189.699324,
          "velocity": 0.6299212598425197
        },
        {
          "duration": 0.05263160000001221,
          "durationTicks": 14,
          "midi": 40,
          "name": "E2",
          "ticks": 50520,
          "time": 189.92488799999998,
          "velocity": 0.7874015748031497
        },
        {
          "duration": 0.05263160000001221,
          "durationTicks": 14,
          "midi": 46,
          "name": "A#2",
          "ticks": 50520,
          "time": 189.92488799999998,
          "velocity": 0.7874015748031497
        },
        {
          "duration": 0.05263159999998379,
          "durationTicks": 14,
          "midi": 46,
          "name": "A#2",
          "ticks": 50580,
          "time": 190.150452,
          "velocity": 0.6299212598425197
        },
        {
          "duration": 0.05263160000001221,
          "durationTicks": 14,
          "midi": 36,
          "name": "C2",
          "ticks": 50640,
          "time": 190.376016,
          "velocity": 0.7874015748031497
        },
        {
          "duration": 0.05263160000001221,
          "durationTicks": 14,
          "midi": 46,
          "name": "A#2",
          "ticks": 50640,
          "time": 190.376016,
          "velocity": 0.7874015748031497
        },
        {
          "duration": 0.05263160000001221,
          "durationTicks": 14,
          "midi": 46,
          "name": "A#2",
          "ticks": 50700,
          "time": 190.60157999999998,
          "velocity": 0.6299212598425197
        },
        {
          "duration": 0.05263160000001221,
          "durationTicks": 14,
          "midi": 40,
          "name": "E2",
          "ticks": 50760,
          "time": 190.82714399999998,
          "velocity": 0.7874015748031497
        },
        {
          "duration": 0.05263160000001221,
          "durationTicks": 14,
          "midi": 46,
          "name": "A#2",
          "ticks": 50760,
          "time": 190.82714399999998,
          "velocity": 0.7874015748031497
        },
        {
          "duration": 0.05263159999998379,
          "durationTicks": 14,
          "midi": 46,
          "name": "A#2",
          "ticks": 50820,
          "time": 191.052708,
          "velocity": 0.6299212598425197
        },
        {
          "duration": 0.05263160000001221,
          "durationTicks": 14,
          "midi": 36,
          "name": "C2",
          "ticks": 50880,
          "time": 191.278272,
          "velocity": 0.7874015748031497
        },
        {
          "duration": 0.05263160000001221,
          "durationTicks": 14,
          "midi": 46,
          "name": "A#2",
          "ticks": 50880,
          "time": 191.278272,
          "velocity": 0.7874015748031497
        },
        {
          "duration": 0.05263160000001221,
          "durationTicks": 14,
          "midi": 46,
          "name": "A#2",
          "ticks": 50940,
          "time": 191.50383599999998,
          "velocity": 0.6299212598425197
        },
        {
          "duration": 0.05263159999998379,
          "durationTicks": 14,
          "midi": 40,
          "name": "E2",
          "ticks": 51000,
          "time": 191.7294,
          "velocity": 0.7874015748031497
        },
        {
          "duration": 0.05263159999998379,
          "durationTicks": 14,
          "midi": 46,
          "name": "A#2",
          "ticks": 51000,
          "time": 191.7294,
          "velocity": 0.7874015748031497
        },
        {
          "duration": 0.05263160000001221,
          "durationTicks": 14,
          "midi": 46,
          "name": "A#2",
          "ticks": 51060,
          "time": 191.954964,
          "velocity": 0.6299212598425197
        },
        {
          "duration": 0.05263160000001221,
          "durationTicks": 14,
          "midi": 36,
          "name": "C2",
          "ticks": 51120,
          "time": 192.18052799999998,
          "velocity": 0.7874015748031497
        },
        {
          "duration": 0.05263160000001221,
          "durationTicks": 14,
          "midi": 46,
          "name": "A#2",
          "ticks": 51120,
          "time": 192.18052799999998,
          "velocity": 0.7874015748031497
        },
        {
          "duration": 0.05263159999998379,
          "durationTicks": 14,
          "midi": 46,
          "name": "A#2",
          "ticks": 51180,
          "time": 192.406092,
          "velocity": 0.6299212598425197
        },
        {
          "duration": 0.05263160000001221,
          "durationTicks": 14,
          "midi": 40,
          "name": "E2",
          "ticks": 51240,
          "time": 192.631656,
          "velocity": 0.7874015748031497
        },
        {
          "duration": 0.05263160000001221,
          "durationTicks": 14,
          "midi": 46,
          "name": "A#2",
          "ticks": 51240,
          "time": 192.631656,
          "velocity": 0.7874015748031497
        },
        {
          "duration": 0.05263160000001221,
          "durationTicks": 14,
          "midi": 46,
          "name": "A#2",
          "ticks": 51300,
          "time": 192.85721999999998,
          "velocity": 0.6299212598425197
        },
        {
          "duration": 0.05263160000001221,
          "durationTicks": 14,
          "midi": 49,
          "name": "C#3",
          "ticks": 51360,
          "time": 193.08278399999998,
          "velocity": 0.7874015748031497
        },
        {
          "duration": 0.05263160000001221,
          "durationTicks": 14,
          "midi": 36,
          "name": "C2",
          "ticks": 51360,
          "time": 193.08278399999998,
          "velocity": 0.7874015748031497
        },
        {
          "duration": 0.05263160000001221,
          "durationTicks": 14,
          "midi": 46,
          "name": "A#2",
          "ticks": 51360,
          "time": 193.08278399999998,
          "velocity": 0.7874015748031497
        },
        {
          "duration": 0.05263159999998379,
          "durationTicks": 14,
          "midi": 46,
          "name": "A#2",
          "ticks": 51420,
          "time": 193.308348,
          "velocity": 0.6299212598425197
        },
        {
          "duration": 0.05263160000001221,
          "durationTicks": 14,
          "midi": 40,
          "name": "E2",
          "ticks": 51480,
          "time": 193.533912,
          "velocity": 0.7874015748031497
        },
        {
          "duration": 0.05263160000001221,
          "durationTicks": 14,
          "midi": 46,
          "name": "A#2",
          "ticks": 51480,
          "time": 193.533912,
          "velocity": 0.7874015748031497
        },
        {
          "duration": 0.05263160000001221,
          "durationTicks": 14,
          "midi": 46,
          "name": "A#2",
          "ticks": 51540,
          "time": 193.75947599999998,
          "velocity": 0.6299212598425197
        },
        {
          "duration": 0.05263159999998379,
          "durationTicks": 14,
          "midi": 36,
          "name": "C2",
          "ticks": 51600,
          "time": 193.98504,
          "velocity": 0.7874015748031497
        },
        {
          "duration": 0.05263159999998379,
          "durationTicks": 14,
          "midi": 46,
          "name": "A#2",
          "ticks": 51600,
          "time": 193.98504,
          "velocity": 0.7874015748031497
        },
        {
          "duration": 0.05263160000001221,
          "durationTicks": 14,
          "midi": 46,
          "name": "A#2",
          "ticks": 51660,
          "time": 194.210604,
          "velocity": 0.6299212598425197
        },
        {
          "duration": 0.05263160000001221,
          "durationTicks": 14,
          "midi": 40,
          "name": "E2",
          "ticks": 51720,
          "time": 194.43616799999998,
          "velocity": 0.7874015748031497
        },
        {
          "duration": 0.05263160000001221,
          "durationTicks": 14,
          "midi": 46,
          "name": "A#2",
          "ticks": 51720,
          "time": 194.43616799999998,
          "velocity": 0.7874015748031497
        },
        {
          "duration": 0.05263159999998379,
          "durationTicks": 14,
          "midi": 46,
          "name": "A#2",
          "ticks": 51780,
          "time": 194.661732,
          "velocity": 0.6299212598425197
        },
        {
          "duration": 0.05263160000001221,
          "durationTicks": 14,
          "midi": 36,
          "name": "C2",
          "ticks": 51840,
          "time": 194.887296,
          "velocity": 0.7874015748031497
        },
        {
          "duration": 0.05263160000001221,
          "durationTicks": 14,
          "midi": 46,
          "name": "A#2",
          "ticks": 51840,
          "time": 194.887296,
          "velocity": 0.7874015748031497
        },
        {
          "duration": 0.05263160000001221,
          "durationTicks": 14,
          "midi": 46,
          "name": "A#2",
          "ticks": 51900,
          "time": 195.11285999999998,
          "velocity": 0.6299212598425197
        },
        {
          "duration": 0.05263160000001221,
          "durationTicks": 14,
          "midi": 40,
          "name": "E2",
          "ticks": 51960,
          "time": 195.33842399999997,
          "velocity": 0.7874015748031497
        },
        {
          "duration": 0.05263160000001221,
          "durationTicks": 14,
          "midi": 46,
          "name": "A#2",
          "ticks": 51960,
          "time": 195.33842399999997,
          "velocity": 0.7874015748031497
        },
        {
          "duration": 0.05263159999998379,
          "durationTicks": 14,
          "midi": 46,
          "name": "A#2",
          "ticks": 52020,
          "time": 195.563988,
          "velocity": 0.6299212598425197
        },
        {
          "duration": 0.05263160000001221,
          "durationTicks": 14,
          "midi": 36,
          "name": "C2",
          "ticks": 52080,
          "time": 195.789552,
          "velocity": 0.7874015748031497
        },
        {
          "duration": 0.05263160000001221,
          "durationTicks": 14,
          "midi": 46,
          "name": "A#2",
          "ticks": 52080,
          "time": 195.789552,
          "velocity": 0.7874015748031497
        },
        {
          "duration": 0.05263160000001221,
          "durationTicks": 14,
          "midi": 46,
          "name": "A#2",
          "ticks": 52140,
          "time": 196.01511599999998,
          "velocity": 0.6299212598425197
        },
        {
          "duration": 0.05263159999998379,
          "durationTicks": 14,
          "midi": 40,
          "name": "E2",
          "ticks": 52200,
          "time": 196.24068,
          "velocity": 0.7874015748031497
        },
        {
          "duration": 0.05263159999998379,
          "durationTicks": 14,
          "midi": 46,
          "name": "A#2",
          "ticks": 52200,
          "time": 196.24068,
          "velocity": 0.7874015748031497
        },
        {
          "duration": 0.05263160000001221,
          "durationTicks": 14,
          "midi": 46,
          "name": "A#2",
          "ticks": 52260,
          "time": 196.466244,
          "velocity": 0.6299212598425197
        },
        {
          "duration": 0.05263160000001221,
          "durationTicks": 14,
          "midi": 49,
          "name": "C#3",
          "ticks": 52320,
          "time": 196.69180799999998,
          "velocity": 0.7874015748031497
        },
        {
          "duration": 0.05263160000001221,
          "durationTicks": 14,
          "midi": 36,
          "name": "C2",
          "ticks": 52320,
          "time": 196.69180799999998,
          "velocity": 0.7874015748031497
        },
        {
          "duration": 0.05263160000001221,
          "durationTicks": 14,
          "midi": 46,
          "name": "A#2",
          "ticks": 52320,
          "time": 196.69180799999998,
          "velocity": 0.7874015748031497
        },
        {
          "duration": 0.05263159999998379,
          "durationTicks": 14,
          "midi": 46,
          "name": "A#2",
          "ticks": 52380,
          "time": 196.917372,
          "velocity": 0.6299212598425197
        },
        {
          "duration": 0.05263160000001221,
          "durationTicks": 14,
          "midi": 40,
          "name": "E2",
          "ticks": 52440,
          "time": 197.142936,
          "velocity": 0.7874015748031497
        },
        {
          "duration": 0.05263160000001221,
          "durationTicks": 14,
          "midi": 46,
          "name": "A#2",
          "ticks": 52440,
          "time": 197.142936,
          "velocity": 0.7874015748031497
        },
        {
          "duration": 0.05263160000001221,
          "durationTicks": 14,
          "midi": 46,
          "name": "A#2",
          "ticks": 52500,
          "time": 197.36849999999998,
          "velocity": 0.6299212598425197
        },
        {
          "duration": 0.05263160000001221,
          "durationTicks": 14,
          "midi": 36,
          "name": "C2",
          "ticks": 52560,
          "time": 197.59406399999997,
          "velocity": 0.7874015748031497
        },
        {
          "duration": 0.05263160000001221,
          "durationTicks": 14,
          "midi": 46,
          "name": "A#2",
          "ticks": 52560,
          "time": 197.59406399999997,
          "velocity": 0.7874015748031497
        },
        {
          "duration": 0.05263159999998379,
          "durationTicks": 14,
          "midi": 46,
          "name": "A#2",
          "ticks": 52620,
          "time": 197.819628,
          "velocity": 0.6299212598425197
        },
        {
          "duration": 0.05263160000001221,
          "durationTicks": 14,
          "midi": 40,
          "name": "E2",
          "ticks": 52680,
          "time": 198.045192,
          "velocity": 0.7874015748031497
        },
        {
          "duration": 0.05263160000001221,
          "durationTicks": 14,
          "midi": 46,
          "name": "A#2",
          "ticks": 52680,
          "time": 198.045192,
          "velocity": 0.7874015748031497
        },
        {
          "duration": 0.05263160000001221,
          "durationTicks": 14,
          "midi": 46,
          "name": "A#2",
          "ticks": 52740,
          "time": 198.27075599999998,
          "velocity": 0.6299212598425197
        },
        {
          "duration": 0.05263159999998379,
          "durationTicks": 14,
          "midi": 36,
          "name": "C2",
          "ticks": 52800,
          "time": 198.49632,
          "velocity": 0.7874015748031497
        },
        {
          "duration": 0.05263159999998379,
          "durationTicks": 14,
          "midi": 46,
          "name": "A#2",
          "ticks": 52800,
          "time": 198.49632,
          "velocity": 0.7874015748031497
        },
        {
          "duration": 0.05263160000001221,
          "durationTicks": 14,
          "midi": 46,
          "name": "A#2",
          "ticks": 52860,
          "time": 198.721884,
          "velocity": 0.6299212598425197
        },
        {
          "duration": 0.05263160000001221,
          "durationTicks": 14,
          "midi": 40,
          "name": "E2",
          "ticks": 52920,
          "time": 198.94744799999998,
          "velocity": 0.7874015748031497
        },
        {
          "duration": 0.05263160000001221,
          "durationTicks": 14,
          "midi": 46,
          "name": "A#2",
          "ticks": 52920,
          "time": 198.94744799999998,
          "velocity": 0.7874015748031497
        },
        {
          "duration": 0.05263159999998379,
          "durationTicks": 14,
          "midi": 46,
          "name": "A#2",
          "ticks": 52980,
          "time": 199.173012,
          "velocity": 0.6299212598425197
        },
        {
          "duration": 0.05263160000001221,
          "durationTicks": 14,
          "midi": 36,
          "name": "C2",
          "ticks": 53040,
          "time": 199.398576,
          "velocity": 0.7874015748031497
        },
        {
          "duration": 0.05263160000001221,
          "durationTicks": 14,
          "midi": 46,
          "name": "A#2",
          "ticks": 53040,
          "time": 199.398576,
          "velocity": 0.7874015748031497
        },
        {
          "duration": 0.05263160000001221,
          "durationTicks": 14,
          "midi": 46,
          "name": "A#2",
          "ticks": 53100,
          "time": 199.62413999999998,
          "velocity": 0.6299212598425197
        },
        {
          "duration": 0.05263160000001221,
          "durationTicks": 14,
          "midi": 40,
          "name": "E2",
          "ticks": 53160,
          "time": 199.84970399999997,
          "velocity": 0.7874015748031497
        },
        {
          "duration": 0.05263160000001221,
          "durationTicks": 14,
          "midi": 46,
          "name": "A#2",
          "ticks": 53160,
          "time": 199.84970399999997,
          "velocity": 0.7874015748031497
        },
        {
          "duration": 0.05263159999998379,
          "durationTicks": 14,
          "midi": 40,
          "name": "E2",
          "ticks": 53220,
          "time": 200.075268,
          "velocity": 0.7874015748031497
        },
        {
          "duration": 0.05263159999998379,
          "durationTicks": 14,
          "midi": 46,
          "name": "A#2",
          "ticks": 53220,
          "time": 200.075268,
          "velocity": 0.6299212598425197
        },
        {
          "duration": 0.05263160000001221,
          "durationTicks": 14,
          "midi": 40,
          "name": "E2",
          "ticks": 53250,
          "time": 200.18804999999998,
          "velocity": 0.7874015748031497
        },
        {
          "duration": 0.05263160000001221,
          "durationTicks": 14,
          "midi": 49,
          "name": "C#3",
          "ticks": 53280,
          "time": 200.30083199999999,
          "velocity": 0.7874015748031497
        },
        {
          "duration": 0.05263160000001221,
          "durationTicks": 14,
          "midi": 36,
          "name": "C2",
          "ticks": 53280,
          "time": 200.30083199999999,
          "velocity": 0.7874015748031497
        },
        {
          "duration": 0.05263160000001221,
          "durationTicks": 14,
          "midi": 46,
          "name": "A#2",
          "ticks": 53280,
          "time": 200.30083199999999,
          "velocity": 0.7874015748031497
        },
        {
          "duration": 0.05263160000001221,
          "durationTicks": 14,
          "midi": 46,
          "name": "A#2",
          "ticks": 53340,
          "time": 200.52639599999998,
          "velocity": 0.6299212598425197
        },
        {
          "duration": 0.05263159999998379,
          "durationTicks": 14,
          "midi": 40,
          "name": "E2",
          "ticks": 53400,
          "time": 200.75196,
          "velocity": 0.7874015748031497
        },
        {
          "duration": 0.05263159999998379,
          "durationTicks": 14,
          "midi": 46,
          "name": "A#2",
          "ticks": 53400,
          "time": 200.75196,
          "velocity": 0.7874015748031497
        },
        {
          "duration": 0.05263160000001221,
          "durationTicks": 14,
          "midi": 46,
          "name": "A#2",
          "ticks": 53460,
          "time": 200.977524,
          "velocity": 0.6299212598425197
        },
        {
          "duration": 0.05263160000001221,
          "durationTicks": 14,
          "midi": 36,
          "name": "C2",
          "ticks": 53520,
          "time": 201.20308799999998,
          "velocity": 0.7874015748031497
        },
        {
          "duration": 0.05263160000001221,
          "durationTicks": 14,
          "midi": 46,
          "name": "A#2",
          "ticks": 53520,
          "time": 201.20308799999998,
          "velocity": 0.7874015748031497
        },
        {
          "duration": 0.05263159999998379,
          "durationTicks": 14,
          "midi": 46,
          "name": "A#2",
          "ticks": 53580,
          "time": 201.428652,
          "velocity": 0.6299212598425197
        },
        {
          "duration": 0.05263160000001221,
          "durationTicks": 14,
          "midi": 40,
          "name": "E2",
          "ticks": 53640,
          "time": 201.654216,
          "velocity": 0.7874015748031497
        },
        {
          "duration": 0.05263160000001221,
          "durationTicks": 14,
          "midi": 46,
          "name": "A#2",
          "ticks": 53640,
          "time": 201.654216,
          "velocity": 0.7874015748031497
        },
        {
          "duration": 0.05263160000001221,
          "durationTicks": 14,
          "midi": 46,
          "name": "A#2",
          "ticks": 53700,
          "time": 201.87977999999998,
          "velocity": 0.6299212598425197
        },
        {
          "duration": 0.05263159999998379,
          "durationTicks": 14,
          "midi": 57,
          "name": "A3",
          "ticks": 53760,
          "time": 202.105344,
          "velocity": 0.7874015748031497
        },
        {
          "duration": 0.05263159999998379,
          "durationTicks": 14,
          "midi": 36,
          "name": "C2",
          "ticks": 53760,
          "time": 202.105344,
          "velocity": 0.7874015748031497
        },
        {
          "duration": 0.05263159999998379,
          "durationTicks": 14,
          "midi": 46,
          "name": "A#2",
          "ticks": 53760,
          "time": 202.105344,
          "velocity": 0.7874015748031497
        },
        {
          "duration": 0.05263159999998379,
          "durationTicks": 14,
          "midi": 46,
          "name": "A#2",
          "ticks": 53820,
          "time": 202.330908,
          "velocity": 0.6299212598425197
        },
        {
          "duration": 0.05263160000001221,
          "durationTicks": 14,
          "midi": 40,
          "name": "E2",
          "ticks": 53880,
          "time": 202.55647199999999,
          "velocity": 0.7874015748031497
        },
        {
          "duration": 0.05263160000001221,
          "durationTicks": 14,
          "midi": 46,
          "name": "A#2",
          "ticks": 53880,
          "time": 202.55647199999999,
          "velocity": 0.7874015748031497
        },
        {
          "duration": 0.05263160000001221,
          "durationTicks": 14,
          "midi": 46,
          "name": "A#2",
          "ticks": 53940,
          "time": 202.78203599999998,
          "velocity": 0.6299212598425197
        },
        {
          "duration": 0.05263159999998379,
          "durationTicks": 14,
          "midi": 36,
          "name": "C2",
          "ticks": 54000,
          "time": 203.0076,
          "velocity": 0.7874015748031497
        },
        {
          "duration": 0.05263159999998379,
          "durationTicks": 14,
          "midi": 46,
          "name": "A#2",
          "ticks": 54000,
          "time": 203.0076,
          "velocity": 0.7874015748031497
        },
        {
          "duration": 0.05263160000001221,
          "durationTicks": 14,
          "midi": 46,
          "name": "A#2",
          "ticks": 54060,
          "time": 203.233164,
          "velocity": 0.6299212598425197
        },
        {
          "duration": 0.05263160000001221,
          "durationTicks": 14,
          "midi": 40,
          "name": "E2",
          "ticks": 54120,
          "time": 203.45872799999998,
          "velocity": 0.7874015748031497
        },
        {
          "duration": 0.05263160000001221,
          "durationTicks": 14,
          "midi": 46,
          "name": "A#2",
          "ticks": 54120,
          "time": 203.45872799999998,
          "velocity": 0.7874015748031497
        },
        {
          "duration": 0.05263159999998379,
          "durationTicks": 14,
          "midi": 46,
          "name": "A#2",
          "ticks": 54180,
          "time": 203.684292,
          "velocity": 0.6299212598425197
        },
        {
          "duration": 0.05263160000001221,
          "durationTicks": 14,
          "midi": 49,
          "name": "C#3",
          "ticks": 54240,
          "time": 203.909856,
          "velocity": 0.7874015748031497
        },
        {
          "duration": 0.05263160000001221,
          "durationTicks": 14,
          "midi": 36,
          "name": "C2",
          "ticks": 54240,
          "time": 203.909856,
          "velocity": 0.7874015748031497
        },
        {
          "duration": 0.05263160000001221,
          "durationTicks": 14,
          "midi": 46,
          "name": "A#2",
          "ticks": 54240,
          "time": 203.909856,
          "velocity": 0.7874015748031497
        },
        {
          "duration": 0.05263160000001221,
          "durationTicks": 14,
          "midi": 46,
          "name": "A#2",
          "ticks": 54300,
          "time": 204.13541999999998,
          "velocity": 0.6299212598425197
        },
        {
          "duration": 0.05263159999998379,
          "durationTicks": 14,
          "midi": 40,
          "name": "E2",
          "ticks": 54360,
          "time": 204.360984,
          "velocity": 0.7874015748031497
        },
        {
          "duration": 0.05263159999998379,
          "durationTicks": 14,
          "midi": 46,
          "name": "A#2",
          "ticks": 54360,
          "time": 204.360984,
          "velocity": 0.7874015748031497
        },
        {
          "duration": 0.05263159999998379,
          "durationTicks": 14,
          "midi": 46,
          "name": "A#2",
          "ticks": 54420,
          "time": 204.586548,
          "velocity": 0.6299212598425197
        },
        {
          "duration": 0.05263160000001221,
          "durationTicks": 14,
          "midi": 36,
          "name": "C2",
          "ticks": 54480,
          "time": 204.81211199999998,
          "velocity": 0.7874015748031497
        },
        {
          "duration": 0.05263160000001221,
          "durationTicks": 14,
          "midi": 46,
          "name": "A#2",
          "ticks": 54480,
          "time": 204.81211199999998,
          "velocity": 0.7874015748031497
        },
        {
          "duration": 0.05263160000001221,
          "durationTicks": 14,
          "midi": 46,
          "name": "A#2",
          "ticks": 54540,
          "time": 205.03767599999998,
          "velocity": 0.6299212598425197
        },
        {
          "duration": 0.05263159999998379,
          "durationTicks": 14,
          "midi": 40,
          "name": "E2",
          "ticks": 54600,
          "time": 205.26324,
          "velocity": 0.7874015748031497
        },
        {
          "duration": 0.05263159999998379,
          "durationTicks": 14,
          "midi": 46,
          "name": "A#2",
          "ticks": 54600,
          "time": 205.26324,
          "velocity": 0.7874015748031497
        },
        {
          "duration": 0.05263160000001221,
          "durationTicks": 14,
          "midi": 46,
          "name": "A#2",
          "ticks": 54660,
          "time": 205.488804,
          "velocity": 0.6299212598425197
        },
        {
          "duration": 0.05263160000001221,
          "durationTicks": 14,
          "midi": 57,
          "name": "A3",
          "ticks": 54720,
          "time": 205.71436799999998,
          "velocity": 0.7874015748031497
        },
        {
          "duration": 0.05263160000001221,
          "durationTicks": 14,
          "midi": 36,
          "name": "C2",
          "ticks": 54720,
          "time": 205.71436799999998,
          "velocity": 0.7874015748031497
        },
        {
          "duration": 0.05263160000001221,
          "durationTicks": 14,
          "midi": 46,
          "name": "A#2",
          "ticks": 54720,
          "time": 205.71436799999998,
          "velocity": 0.7874015748031497
        },
        {
          "duration": 0.05263159999998379,
          "durationTicks": 14,
          "midi": 46,
          "name": "A#2",
          "ticks": 54780,
          "time": 205.939932,
          "velocity": 0.6299212598425197
        },
        {
          "duration": 0.05263160000001221,
          "durationTicks": 14,
          "midi": 40,
          "name": "E2",
          "ticks": 54840,
          "time": 206.165496,
          "velocity": 0.7874015748031497
        },
        {
          "duration": 0.05263160000001221,
          "durationTicks": 14,
          "midi": 46,
          "name": "A#2",
          "ticks": 54840,
          "time": 206.165496,
          "velocity": 0.7874015748031497
        },
        {
          "duration": 0.05263160000001221,
          "durationTicks": 14,
          "midi": 46,
          "name": "A#2",
          "ticks": 54900,
          "time": 206.39105999999998,
          "velocity": 0.6299212598425197
        },
        {
          "duration": 0.05263159999998379,
          "durationTicks": 14,
          "midi": 36,
          "name": "C2",
          "ticks": 54960,
          "time": 206.616624,
          "velocity": 0.7874015748031497
        },
        {
          "duration": 0.05263159999998379,
          "durationTicks": 14,
          "midi": 46,
          "name": "A#2",
          "ticks": 54960,
          "time": 206.616624,
          "velocity": 0.7874015748031497
        },
        {
          "duration": 0.05263160000001221,
          "durationTicks": 14,
          "midi": 46,
          "name": "A#2",
          "ticks": 55020,
          "time": 206.842188,
          "velocity": 0.6299212598425197
        },
        {
          "duration": 0.05263160000001221,
          "durationTicks": 14,
          "midi": 40,
          "name": "E2",
          "ticks": 55080,
          "time": 207.06775199999998,
          "velocity": 0.7874015748031497
        },
        {
          "duration": 0.05263160000001221,
          "durationTicks": 14,
          "midi": 46,
          "name": "A#2",
          "ticks": 55080,
          "time": 207.06775199999998,
          "velocity": 0.7874015748031497
        },
        {
          "duration": 0.05263160000001221,
          "durationTicks": 14,
          "midi": 46,
          "name": "A#2",
          "ticks": 55140,
          "time": 207.29331599999998,
          "velocity": 0.6299212598425197
        },
        {
          "duration": 0.05263159999998379,
          "durationTicks": 14,
          "midi": 49,
          "name": "C#3",
          "ticks": 55200,
          "time": 207.51888,
          "velocity": 0.7874015748031497
        },
        {
          "duration": 0.05263159999998379,
          "durationTicks": 14,
          "midi": 36,
          "name": "C2",
          "ticks": 55200,
          "time": 207.51888,
          "velocity": 0.7874015748031497
        },
        {
          "duration": 0.05263159999998379,
          "durationTicks": 14,
          "midi": 46,
          "name": "A#2",
          "ticks": 55200,
          "time": 207.51888,
          "velocity": 0.7874015748031497
        },
        {
          "duration": 0.05263160000001221,
          "durationTicks": 14,
          "midi": 46,
          "name": "A#2",
          "ticks": 55260,
          "time": 207.744444,
          "velocity": 0.6299212598425197
        },
        {
          "duration": 0.05263160000001221,
          "durationTicks": 14,
          "midi": 40,
          "name": "E2",
          "ticks": 55320,
          "time": 207.97000799999998,
          "velocity": 0.7874015748031497
        },
        {
          "duration": 0.05263160000001221,
          "durationTicks": 14,
          "midi": 46,
          "name": "A#2",
          "ticks": 55320,
          "time": 207.97000799999998,
          "velocity": 0.7874015748031497
        },
        {
          "duration": 0.05263159999998379,
          "durationTicks": 14,
          "midi": 46,
          "name": "A#2",
          "ticks": 55380,
          "time": 208.195572,
          "velocity": 0.6299212598425197
        },
        {
          "duration": 0.05263160000001221,
          "durationTicks": 14,
          "midi": 36,
          "name": "C2",
          "ticks": 55440,
          "time": 208.421136,
          "velocity": 0.7874015748031497
        },
        {
          "duration": 0.05263160000001221,
          "durationTicks": 14,
          "midi": 46,
          "name": "A#2",
          "ticks": 55440,
          "time": 208.421136,
          "velocity": 0.7874015748031497
        },
        {
          "duration": 0.05263160000001221,
          "durationTicks": 14,
          "midi": 46,
          "name": "A#2",
          "ticks": 55500,
          "time": 208.64669999999998,
          "velocity": 0.6299212598425197
        },
        {
          "duration": 0.05263159999998379,
          "durationTicks": 14,
          "midi": 40,
          "name": "E2",
          "ticks": 55560,
          "time": 208.872264,
          "velocity": 0.7874015748031497
        },
        {
          "duration": 0.05263159999998379,
          "durationTicks": 14,
          "midi": 46,
          "name": "A#2",
          "ticks": 55560,
          "time": 208.872264,
          "velocity": 0.7874015748031497
        },
        {
          "duration": 0.05263160000001221,
          "durationTicks": 14,
          "midi": 46,
          "name": "A#2",
          "ticks": 55620,
          "time": 209.097828,
          "velocity": 0.6299212598425197
        },
        {
          "duration": 0.05263160000001221,
          "durationTicks": 14,
          "midi": 57,
          "name": "A3",
          "ticks": 55680,
          "time": 209.32339199999998,
          "velocity": 0.7874015748031497
        },
        {
          "duration": 0.05263160000001221,
          "durationTicks": 14,
          "midi": 36,
          "name": "C2",
          "ticks": 55680,
          "time": 209.32339199999998,
          "velocity": 0.7874015748031497
        },
        {
          "duration": 0.05263160000001221,
          "durationTicks": 14,
          "midi": 46,
          "name": "A#2",
          "ticks": 55680,
          "time": 209.32339199999998,
          "velocity": 0.7874015748031497
        },
        {
          "duration": 0.05263160000001221,
          "durationTicks": 14,
          "midi": 46,
          "name": "A#2",
          "ticks": 55740,
          "time": 209.54895599999998,
          "velocity": 0.6299212598425197
        },
        {
          "duration": 0.05263159999998379,
          "durationTicks": 14,
          "midi": 40,
          "name": "E2",
          "ticks": 55800,
          "time": 209.77452,
          "velocity": 0.7874015748031497
        },
        {
          "duration": 0.05263159999998379,
          "durationTicks": 14,
          "midi": 46,
          "name": "A#2",
          "ticks": 55800,
          "time": 209.77452,
          "velocity": 0.7874015748031497
        },
        {
          "duration": 0.05263160000001221,
          "durationTicks": 14,
          "midi": 46,
          "name": "A#2",
          "ticks": 55860,
          "time": 210.000084,
          "velocity": 0.6299212598425197
        },
        {
          "duration": 0.05263160000001221,
          "durationTicks": 14,
          "midi": 36,
          "name": "C2",
          "ticks": 55920,
          "time": 210.22564799999998,
          "velocity": 0.7874015748031497
        },
        {
          "duration": 0.05263160000001221,
          "durationTicks": 14,
          "midi": 46,
          "name": "A#2",
          "ticks": 55920,
          "time": 210.22564799999998,
          "velocity": 0.7874015748031497
        },
        {
          "duration": 0.05263159999998379,
          "durationTicks": 14,
          "midi": 46,
          "name": "A#2",
          "ticks": 55980,
          "time": 210.451212,
          "velocity": 0.6299212598425197
        },
        {
          "duration": 0.05263160000001221,
          "durationTicks": 14,
          "midi": 40,
          "name": "E2",
          "ticks": 56040,
          "time": 210.676776,
          "velocity": 0.7874015748031497
        },
        {
          "duration": 0.05263160000001221,
          "durationTicks": 14,
          "midi": 46,
          "name": "A#2",
          "ticks": 56040,
          "time": 210.676776,
          "velocity": 0.7874015748031497
        },
        {
          "duration": 0.05263160000001221,
          "durationTicks": 14,
          "midi": 46,
          "name": "A#2",
          "ticks": 56100,
          "time": 210.90233999999998,
          "velocity": 0.6299212598425197
        },
        {
          "duration": 0.05263159999998379,
          "durationTicks": 14,
          "midi": 49,
          "name": "C#3",
          "ticks": 56160,
          "time": 211.127904,
          "velocity": 0.7874015748031497
        },
        {
          "duration": 0.05263159999998379,
          "durationTicks": 14,
          "midi": 36,
          "name": "C2",
          "ticks": 56160,
          "time": 211.127904,
          "velocity": 0.7874015748031497
        },
        {
          "duration": 0.05263159999998379,
          "durationTicks": 14,
          "midi": 46,
          "name": "A#2",
          "ticks": 56160,
          "time": 211.127904,
          "velocity": 0.7874015748031497
        },
        {
          "duration": 0.05263160000001221,
          "durationTicks": 14,
          "midi": 46,
          "name": "A#2",
          "ticks": 56220,
          "time": 211.353468,
          "velocity": 0.6299212598425197
        },
        {
          "duration": 0.05263160000001221,
          "durationTicks": 14,
          "midi": 40,
          "name": "E2",
          "ticks": 56280,
          "time": 211.57903199999998,
          "velocity": 0.7874015748031497
        },
        {
          "duration": 0.05263160000001221,
          "durationTicks": 14,
          "midi": 46,
          "name": "A#2",
          "ticks": 56280,
          "time": 211.57903199999998,
          "velocity": 0.7874015748031497
        },
        {
          "duration": 0.05263160000001221,
          "durationTicks": 14,
          "midi": 46,
          "name": "A#2",
          "ticks": 56340,
          "time": 211.80459599999998,
          "velocity": 0.6299212598425197
        },
        {
          "duration": 0.05263159999998379,
          "durationTicks": 14,
          "midi": 36,
          "name": "C2",
          "ticks": 56400,
          "time": 212.03016,
          "velocity": 0.7874015748031497
        },
        {
          "duration": 0.05263159999998379,
          "durationTicks": 14,
          "midi": 46,
          "name": "A#2",
          "ticks": 56400,
          "time": 212.03016,
          "velocity": 0.7874015748031497
        },
        {
          "duration": 0.05263160000001221,
          "durationTicks": 14,
          "midi": 46,
          "name": "A#2",
          "ticks": 56460,
          "time": 212.255724,
          "velocity": 0.6299212598425197
        },
        {
          "duration": 0.05263160000001221,
          "durationTicks": 14,
          "midi": 40,
          "name": "E2",
          "ticks": 56520,
          "time": 212.48128799999998,
          "velocity": 0.7874015748031497
        },
        {
          "duration": 0.05263160000001221,
          "durationTicks": 14,
          "midi": 46,
          "name": "A#2",
          "ticks": 56520,
          "time": 212.48128799999998,
          "velocity": 0.7874015748031497
        },
        {
          "duration": 0.05263159999998379,
          "durationTicks": 14,
          "midi": 46,
          "name": "A#2",
          "ticks": 56580,
          "time": 212.706852,
          "velocity": 0.6299212598425197
        },
        {
          "duration": 0.05263160000001221,
          "durationTicks": 14,
          "midi": 57,
          "name": "A3",
          "ticks": 56640,
          "time": 212.932416,
          "velocity": 0.7874015748031497
        },
        {
          "duration": 0.05263160000001221,
          "durationTicks": 14,
          "midi": 36,
          "name": "C2",
          "ticks": 56640,
          "time": 212.932416,
          "velocity": 0.7874015748031497
        },
        {
          "duration": 0.05263160000001221,
          "durationTicks": 14,
          "midi": 46,
          "name": "A#2",
          "ticks": 56640,
          "time": 212.932416,
          "velocity": 0.7874015748031497
        },
        {
          "duration": 0.05263160000001221,
          "durationTicks": 14,
          "midi": 46,
          "name": "A#2",
          "ticks": 56700,
          "time": 213.15797999999998,
          "velocity": 0.6299212598425197
        },
        {
          "duration": 0.05263159999998379,
          "durationTicks": 14,
          "midi": 40,
          "name": "E2",
          "ticks": 56760,
          "time": 213.383544,
          "velocity": 0.7874015748031497
        },
        {
          "duration": 0.05263159999998379,
          "durationTicks": 14,
          "midi": 46,
          "name": "A#2",
          "ticks": 56760,
          "time": 213.383544,
          "velocity": 0.7874015748031497
        },
        {
          "duration": 0.05263160000001221,
          "durationTicks": 14,
          "midi": 46,
          "name": "A#2",
          "ticks": 56820,
          "time": 213.609108,
          "velocity": 0.6299212598425197
        },
        {
          "duration": 0.05263160000001221,
          "durationTicks": 14,
          "midi": 36,
          "name": "C2",
          "ticks": 56880,
          "time": 213.83467199999998,
          "velocity": 0.7874015748031497
        },
        {
          "duration": 0.05263160000001221,
          "durationTicks": 14,
          "midi": 46,
          "name": "A#2",
          "ticks": 56880,
          "time": 213.83467199999998,
          "velocity": 0.7874015748031497
        },
        {
          "duration": 0.05263160000001221,
          "durationTicks": 14,
          "midi": 46,
          "name": "A#2",
          "ticks": 56940,
          "time": 214.06023599999997,
          "velocity": 0.6299212598425197
        },
        {
          "duration": 0.05263159999998379,
          "durationTicks": 14,
          "midi": 40,
          "name": "E2",
          "ticks": 57000,
          "time": 214.2858,
          "velocity": 0.7874015748031497
        },
        {
          "duration": 0.05263159999998379,
          "durationTicks": 14,
          "midi": 46,
          "name": "A#2",
          "ticks": 57000,
          "time": 214.2858,
          "velocity": 0.7874015748031497
        },
        {
          "duration": 0.05263160000001221,
          "durationTicks": 14,
          "midi": 46,
          "name": "A#2",
          "ticks": 57060,
          "time": 214.511364,
          "velocity": 0.6299212598425197
        },
        {
          "duration": 0.05263160000001221,
          "durationTicks": 14,
          "midi": 49,
          "name": "C#3",
          "ticks": 57120,
          "time": 214.73692799999998,
          "velocity": 0.7874015748031497
        },
        {
          "duration": 0.05263160000001221,
          "durationTicks": 14,
          "midi": 46,
          "name": "A#2",
          "ticks": 57120,
          "time": 214.73692799999998,
          "velocity": 0.47244094488188976
        },
        {
          "duration": 0.05263159999998379,
          "durationTicks": 14,
          "midi": 46,
          "name": "A#2",
          "ticks": 57180,
          "time": 214.962492,
          "velocity": 0.47244094488188976
        },
        {
          "duration": 0.05263160000001221,
          "durationTicks": 14,
          "midi": 46,
          "name": "A#2",
          "ticks": 57240,
          "time": 215.188056,
          "velocity": 0.7874015748031497
        },
        {
          "duration": 0.05263160000001221,
          "durationTicks": 14,
          "midi": 36,
          "name": "C2",
          "ticks": 57240,
          "time": 215.188056,
          "velocity": 0.7874015748031497
        },
        {
          "duration": 0.05263160000001221,
          "durationTicks": 14,
          "midi": 46,
          "name": "A#2",
          "ticks": 57300,
          "time": 215.41361999999998,
          "velocity": 0.47244094488188976
        },
        {
          "duration": 0.05263159999998379,
          "durationTicks": 14,
          "midi": 46,
          "name": "A#2",
          "ticks": 57360,
          "time": 215.639184,
          "velocity": 0.47244094488188976
        },
        {
          "duration": 0.05263160000001221,
          "durationTicks": 14,
          "midi": 46,
          "name": "A#2",
          "ticks": 57420,
          "time": 215.864748,
          "velocity": 0.47244094488188976
        },
        {
          "duration": 0.05263160000001221,
          "durationTicks": 14,
          "midi": 46,
          "name": "A#2",
          "ticks": 57480,
          "time": 216.09031199999998,
          "velocity": 0.7874015748031497
        },
        {
          "duration": 0.05263160000001221,
          "durationTicks": 14,
          "midi": 36,
          "name": "C2",
          "ticks": 57480,
          "time": 216.09031199999998,
          "velocity": 0.7874015748031497
        },
        {
          "duration": 0.05263160000001221,
          "durationTicks": 14,
          "midi": 46,
          "name": "A#2",
          "ticks": 57540,
          "time": 216.31587599999997,
          "velocity": 0.47244094488188976
        },
        {
          "duration": 0.05263159999998379,
          "durationTicks": 14,
          "midi": 46,
          "name": "A#2",
          "ticks": 57600,
          "time": 216.54144,
          "velocity": 0.47244094488188976
        },
        {
          "duration": 0.05263160000001221,
          "durationTicks": 14,
          "midi": 46,
          "name": "A#2",
          "ticks": 57660,
          "time": 216.767004,
          "velocity": 0.47244094488188976
        },
        {
          "duration": 0.05263160000001221,
          "durationTicks": 14,
          "midi": 46,
          "name": "A#2",
          "ticks": 57720,
          "time": 216.99256799999998,
          "velocity": 0.7874015748031497
        },
        {
          "duration": 0.05263160000001221,
          "durationTicks": 14,
          "midi": 36,
          "name": "C2",
          "ticks": 57720,
          "time": 216.99256799999998,
          "velocity": 0.7874015748031497
        },
        {
          "duration": 0.05263159999998379,
          "durationTicks": 14,
          "midi": 46,
          "name": "A#2",
          "ticks": 57780,
          "time": 217.218132,
          "velocity": 0.47244094488188976
        },
        {
          "duration": 0.05263160000001221,
          "durationTicks": 14,
          "midi": 46,
          "name": "A#2",
          "ticks": 57840,
          "time": 217.443696,
          "velocity": 0.47244094488188976
        },
        {
          "duration": 0.05263160000001221,
          "durationTicks": 14,
          "midi": 46,
          "name": "A#2",
          "ticks": 57900,
          "time": 217.66925999999998,
          "velocity": 0.47244094488188976
        },
        {
          "duration": 0.05263159999998379,
          "durationTicks": 14,
          "midi": 46,
          "name": "A#2",
          "ticks": 57960,
          "time": 217.894824,
          "velocity": 0.7874015748031497
        },
        {
          "duration": 0.05263159999998379,
          "durationTicks": 14,
          "midi": 36,
          "name": "C2",
          "ticks": 57960,
          "time": 217.894824,
          "velocity": 0.7874015748031497
        },
        {
          "duration": 0.05263160000001221,
          "durationTicks": 14,
          "midi": 46,
          "name": "A#2",
          "ticks": 58020,
          "time": 218.120388,
          "velocity": 0.47244094488188976
        },
        {
          "duration": 0.05263160000001221,
          "durationTicks": 14,
          "midi": 46,
          "name": "A#2",
          "ticks": 58080,
          "time": 218.34595199999998,
          "velocity": 0.47244094488188976
        },
        {
          "duration": 0.05263160000001221,
          "durationTicks": 14,
          "midi": 46,
          "name": "A#2",
          "ticks": 58140,
          "time": 218.57151599999997,
          "velocity": 0.47244094488188976
        },
        {
          "duration": 0.05263159999998379,
          "durationTicks": 14,
          "midi": 46,
          "name": "A#2",
          "ticks": 58200,
          "time": 218.79708,
          "velocity": 0.7874015748031497
        },
        {
          "duration": 0.05263159999998379,
          "durationTicks": 14,
          "midi": 36,
          "name": "C2",
          "ticks": 58200,
          "time": 218.79708,
          "velocity": 0.7874015748031497
        },
        {
          "duration": 0.05263160000001221,
          "durationTicks": 14,
          "midi": 46,
          "name": "A#2",
          "ticks": 58260,
          "time": 219.02264399999999,
          "velocity": 0.47244094488188976
        },
        {
          "duration": 0.05263160000001221,
          "durationTicks": 14,
          "midi": 46,
          "name": "A#2",
          "ticks": 58320,
          "time": 219.24820799999998,
          "velocity": 0.47244094488188976
        },
        {
          "duration": 0.05263159999998379,
          "durationTicks": 14,
          "midi": 46,
          "name": "A#2",
          "ticks": 58380,
          "time": 219.473772,
          "velocity": 0.47244094488188976
        },
        {
          "duration": 0.05263160000001221,
          "durationTicks": 14,
          "midi": 46,
          "name": "A#2",
          "ticks": 58440,
          "time": 219.699336,
          "velocity": 0.7874015748031497
        },
        {
          "duration": 0.05263160000001221,
          "durationTicks": 14,
          "midi": 36,
          "name": "C2",
          "ticks": 58440,
          "time": 219.699336,
          "velocity": 0.7874015748031497
        },
        {
          "duration": 0.05263160000001221,
          "durationTicks": 14,
          "midi": 46,
          "name": "A#2",
          "ticks": 58500,
          "time": 219.92489999999998,
          "velocity": 0.47244094488188976
        },
        {
          "duration": 0.05263160000001221,
          "durationTicks": 14,
          "midi": 46,
          "name": "A#2",
          "ticks": 58560,
          "time": 220.150464,
          "velocity": 0.47244094488188976
        },
        {
          "duration": 0.05263160000001221,
          "durationTicks": 14,
          "midi": 46,
          "name": "A#2",
          "ticks": 58620,
          "time": 220.376028,
          "velocity": 0.47244094488188976
        },
        {
          "duration": 0.05263159999998379,
          "durationTicks": 14,
          "midi": 46,
          "name": "A#2",
          "ticks": 58680,
          "time": 220.601592,
          "velocity": 0.7874015748031497
        },
        {
          "duration": 0.05263159999998379,
          "durationTicks": 14,
          "midi": 36,
          "name": "C2",
          "ticks": 58680,
          "time": 220.601592,
          "velocity": 0.7874015748031497
        },
        {
          "duration": 0.05263159999998379,
          "durationTicks": 14,
          "midi": 46,
          "name": "A#2",
          "ticks": 58740,
          "time": 220.827156,
          "velocity": 0.47244094488188976
        },
        {
          "duration": 0.05263160000001221,
          "durationTicks": 14,
          "midi": 46,
          "name": "A#2",
          "ticks": 58800,
          "time": 221.05272,
          "velocity": 0.47244094488188976
        },
        {
          "duration": 0.05263160000001221,
          "durationTicks": 14,
          "midi": 46,
          "name": "A#2",
          "ticks": 58860,
          "time": 221.27828399999999,
          "velocity": 0.47244094488188976
        },
        {
          "duration": 0.05263159999998379,
          "durationTicks": 14,
          "midi": 46,
          "name": "A#2",
          "ticks": 58920,
          "time": 221.503848,
          "velocity": 0.7874015748031497
        },
        {
          "duration": 0.05263159999998379,
          "durationTicks": 14,
          "midi": 36,
          "name": "C2",
          "ticks": 58920,
          "time": 221.503848,
          "velocity": 0.7874015748031497
        },
        {
          "duration": 0.05263160000001221,
          "durationTicks": 14,
          "midi": 46,
          "name": "A#2",
          "ticks": 58980,
          "time": 221.729412,
          "velocity": 0.47244094488188976
        },
        {
          "duration": 0.05263160000001221,
          "durationTicks": 14,
          "midi": 46,
          "name": "A#2",
          "ticks": 59040,
          "time": 221.954976,
          "velocity": 0.47244094488188976
        },
        {
          "duration": 0.05263159999998379,
          "durationTicks": 14,
          "midi": 46,
          "name": "A#2",
          "ticks": 59100,
          "time": 222.18054,
          "velocity": 0.47244094488188976
        },
        {
          "duration": 0.05263160000001221,
          "durationTicks": 14,
          "midi": 46,
          "name": "A#2",
          "ticks": 59160,
          "time": 222.406104,
          "velocity": 0.7874015748031497
        },
        {
          "duration": 0.05263160000001221,
          "durationTicks": 14,
          "midi": 36,
          "name": "C2",
          "ticks": 59160,
          "time": 222.406104,
          "velocity": 0.7874015748031497
        },
        {
          "duration": 0.05263160000001221,
          "durationTicks": 14,
          "midi": 46,
          "name": "A#2",
          "ticks": 59220,
          "time": 222.631668,
          "velocity": 0.47244094488188976
        },
        {
          "duration": 0.05263159999998379,
          "durationTicks": 14,
          "midi": 46,
          "name": "A#2",
          "ticks": 59280,
          "time": 222.857232,
          "velocity": 0.47244094488188976
        },
        {
          "duration": 0.05263159999998379,
          "durationTicks": 14,
          "midi": 46,
          "name": "A#2",
          "ticks": 59340,
          "time": 223.082796,
          "velocity": 0.47244094488188976
        },
        {
          "duration": 0.05263160000001221,
          "durationTicks": 14,
          "midi": 46,
          "name": "A#2",
          "ticks": 59400,
          "time": 223.30836,
          "velocity": 0.7874015748031497
        },
        {
          "duration": 0.05263160000001221,
          "durationTicks": 14,
          "midi": 36,
          "name": "C2",
          "ticks": 59400,
          "time": 223.30836,
          "velocity": 0.7874015748031497
        },
        {
          "duration": 0.05263159999998379,
          "durationTicks": 14,
          "midi": 46,
          "name": "A#2",
          "ticks": 59460,
          "time": 223.533924,
          "velocity": 0.47244094488188976
        },
        {
          "duration": 0.05263159999998379,
          "durationTicks": 14,
          "midi": 46,
          "name": "A#2",
          "ticks": 59520,
          "time": 223.759488,
          "velocity": 0.47244094488188976
        },
        {
          "duration": 0.05263160000001221,
          "durationTicks": 14,
          "midi": 46,
          "name": "A#2",
          "ticks": 59580,
          "time": 223.985052,
          "velocity": 0.47244094488188976
        },
        {
          "duration": 0.05263160000001221,
          "durationTicks": 14,
          "midi": 46,
          "name": "A#2",
          "ticks": 59640,
          "time": 224.210616,
          "velocity": 0.7874015748031497
        },
        {
          "duration": 0.05263160000001221,
          "durationTicks": 14,
          "midi": 36,
          "name": "C2",
          "ticks": 59640,
          "time": 224.210616,
          "velocity": 0.7874015748031497
        },
        {
          "duration": 0.05263159999998379,
          "durationTicks": 14,
          "midi": 46,
          "name": "A#2",
          "ticks": 59700,
          "time": 224.43618,
          "velocity": 0.47244094488188976
        },
        {
          "duration": 0.05263160000001221,
          "durationTicks": 14,
          "midi": 46,
          "name": "A#2",
          "ticks": 59760,
          "time": 224.661744,
          "velocity": 0.47244094488188976
        },
        {
          "duration": 0.05263160000001221,
          "durationTicks": 14,
          "midi": 46,
          "name": "A#2",
          "ticks": 59820,
          "time": 224.887308,
          "velocity": 0.47244094488188976
        },
        {
          "duration": 0.05263159999998379,
          "durationTicks": 14,
          "midi": 46,
          "name": "A#2",
          "ticks": 59880,
          "time": 225.112872,
          "velocity": 0.7874015748031497
        },
        {
          "duration": 0.05263159999998379,
          "durationTicks": 14,
          "midi": 36,
          "name": "C2",
          "ticks": 59880,
          "time": 225.112872,
          "velocity": 0.7874015748031497
        },
        {
          "duration": 0.05263159999998379,
          "durationTicks": 14,
          "midi": 46,
          "name": "A#2",
          "ticks": 59940,
          "time": 225.338436,
          "velocity": 0.47244094488188976
        },
        {
          "duration": 0.05263160000001221,
          "durationTicks": 14,
          "midi": 46,
          "name": "A#2",
          "ticks": 60000,
          "time": 225.564,
          "velocity": 0.47244094488188976
        },
        {
          "duration": 0.05263159999998379,
          "durationTicks": 14,
          "midi": 46,
          "name": "A#2",
          "ticks": 60060,
          "time": 225.789564,
          "velocity": 0.47244094488188976
        },
        {
          "duration": 0.05263159999998379,
          "durationTicks": 14,
          "midi": 46,
          "name": "A#2",
          "ticks": 60120,
          "time": 226.015128,
          "velocity": 0.7874015748031497
        },
        {
          "duration": 0.05263159999998379,
          "durationTicks": 14,
          "midi": 36,
          "name": "C2",
          "ticks": 60120,
          "time": 226.015128,
          "velocity": 0.7874015748031497
        },
        {
          "duration": 0.05263160000001221,
          "durationTicks": 14,
          "midi": 46,
          "name": "A#2",
          "ticks": 60180,
          "time": 226.240692,
          "velocity": 0.47244094488188976
        },
        {
          "duration": 0.05263160000001221,
          "durationTicks": 14,
          "midi": 46,
          "name": "A#2",
          "ticks": 60240,
          "time": 226.466256,
          "velocity": 0.47244094488188976
        },
        {
          "duration": 0.05263159999998379,
          "durationTicks": 14,
          "midi": 46,
          "name": "A#2",
          "ticks": 60300,
          "time": 226.69182,
          "velocity": 0.47244094488188976
        },
        {
          "duration": 0.05263160000001221,
          "durationTicks": 14,
          "midi": 46,
          "name": "A#2",
          "ticks": 60360,
          "time": 226.917384,
          "velocity": 0.7874015748031497
        },
        {
          "duration": 0.05263160000001221,
          "durationTicks": 14,
          "midi": 36,
          "name": "C2",
          "ticks": 60360,
          "time": 226.917384,
          "velocity": 0.7874015748031497
        },
        {
          "duration": 0.05263160000001221,
          "durationTicks": 14,
          "midi": 46,
          "name": "A#2",
          "ticks": 60420,
          "time": 227.142948,
          "velocity": 0.47244094488188976
        },
        {
          "duration": 0.05263159999998379,
          "durationTicks": 14,
          "midi": 46,
          "name": "A#2",
          "ticks": 60480,
          "time": 227.368512,
          "velocity": 0.47244094488188976
        },
        {
          "duration": 0.05263160000001221,
          "durationTicks": 14,
          "midi": 46,
          "name": "A#2",
          "ticks": 60540,
          "time": 227.594076,
          "velocity": 0.47244094488188976
        },
        {
          "duration": 0.05263160000001221,
          "durationTicks": 14,
          "midi": 46,
          "name": "A#2",
          "ticks": 60600,
          "time": 227.81964,
          "velocity": 0.7874015748031497
        },
        {
          "duration": 0.05263160000001221,
          "durationTicks": 14,
          "midi": 36,
          "name": "C2",
          "ticks": 60600,
          "time": 227.81964,
          "velocity": 0.7874015748031497
        },
        {
          "duration": 0.05263159999998379,
          "durationTicks": 14,
          "midi": 46,
          "name": "A#2",
          "ticks": 60660,
          "time": 228.045204,
          "velocity": 0.47244094488188976
        },
        {
          "duration": 0.05263159999998379,
          "durationTicks": 14,
          "midi": 46,
          "name": "A#2",
          "ticks": 60720,
          "time": 228.270768,
          "velocity": 0.47244094488188976
        },
        {
          "duration": 0.05263160000001221,
          "durationTicks": 14,
          "midi": 46,
          "name": "A#2",
          "ticks": 60780,
          "time": 228.496332,
          "velocity": 0.47244094488188976
        },
        {
          "duration": 0.05263160000001221,
          "durationTicks": 14,
          "midi": 46,
          "name": "A#2",
          "ticks": 60840,
          "time": 228.721896,
          "velocity": 0.7874015748031497
        },
        {
          "duration": 0.05263160000001221,
          "durationTicks": 14,
          "midi": 36,
          "name": "C2",
          "ticks": 60840,
          "time": 228.721896,
          "velocity": 0.7874015748031497
        },
        {
          "duration": 0.05263159999998379,
          "durationTicks": 14,
          "midi": 46,
          "name": "A#2",
          "ticks": 60900,
          "time": 228.94746,
          "velocity": 0.47244094488188976
        },
        {
          "duration": 0.05263160000001221,
          "durationTicks": 14,
          "midi": 46,
          "name": "A#2",
          "ticks": 60960,
          "time": 229.173024,
          "velocity": 0.7874015748031497
        },
        {
          "duration": 0.05263160000001221,
          "durationTicks": 14,
          "midi": 46,
          "name": "A#2",
          "ticks": 61020,
          "time": 229.398588,
          "velocity": 0.31496062992125984
        },
        {
          "duration": 0.05263159999998379,
          "durationTicks": 14,
          "midi": 46,
          "name": "A#2",
          "ticks": 61080,
          "time": 229.624152,
          "velocity": 0.7874015748031497
        },
        {
          "duration": 0.05263159999998379,
          "durationTicks": 14,
          "midi": 46,
          "name": "A#2",
          "ticks": 61140,
          "time": 229.849716,
          "velocity": 0.31496062992125984
        },
        {
          "duration": 0.05263160000001221,
          "durationTicks": 14,
          "midi": 46,
          "name": "A#2",
          "ticks": 61200,
          "time": 230.07528,
          "velocity": 0.7874015748031497
        },
        {
          "duration": 0.05263159999998379,
          "durationTicks": 14,
          "midi": 46,
          "name": "A#2",
          "ticks": 61260,
          "time": 230.300844,
          "velocity": 0.31496062992125984
        },
        {
          "duration": 0.05263159999998379,
          "durationTicks": 14,
          "midi": 46,
          "name": "A#2",
          "ticks": 61320,
          "time": 230.526408,
          "velocity": 0.7874015748031497
        },
        {
          "duration": 0.05263160000001221,
          "durationTicks": 14,
          "midi": 46,
          "name": "A#2",
          "ticks": 61380,
          "time": 230.751972,
          "velocity": 0.31496062992125984
        },
        {
          "duration": 0.05263159999998379,
          "durationTicks": 14,
          "midi": 40,
          "name": "E2",
          "ticks": 61410,
          "time": 230.864754,
          "velocity": 0.7874015748031497
        },
        {
          "duration": 0.05263160000001221,
          "durationTicks": 14,
          "midi": 46,
          "name": "A#2",
          "ticks": 61440,
          "time": 230.977536,
          "velocity": 0.7874015748031497
        },
        {
          "duration": 0.05263159999998379,
          "durationTicks": 14,
          "midi": 36,
          "name": "C2",
          "ticks": 61500,
          "time": 231.2031,
          "velocity": 0.7874015748031497
        },
        {
          "duration": 0.05263159999998379,
          "durationTicks": 14,
          "midi": 46,
          "name": "A#2",
          "ticks": 61500,
          "time": 231.2031,
          "velocity": 0.31496062992125984
        },
        {
          "duration": 0.05263160000001221,
          "durationTicks": 14,
          "midi": 46,
          "name": "A#2",
          "ticks": 61560,
          "time": 231.428664,
          "velocity": 0.7874015748031497
        },
        {
          "duration": 0.05263160000001221,
          "durationTicks": 14,
          "midi": 36,
          "name": "C2",
          "ticks": 61620,
          "time": 231.654228,
          "velocity": 0.7874015748031497
        },
        {
          "duration": 0.05263160000001221,
          "durationTicks": 14,
          "midi": 46,
          "name": "A#2",
          "ticks": 61620,
          "time": 231.654228,
          "velocity": 0.31496062992125984
        },
        {
          "duration": 0.05263159999998379,
          "durationTicks": 14,
          "midi": 46,
          "name": "A#2",
          "ticks": 61680,
          "time": 231.879792,
          "velocity": 0.7874015748031497
        },
        {
          "duration": 0.05263160000001221,
          "durationTicks": 14,
          "midi": 36,
          "name": "C2",
          "ticks": 61740,
          "time": 232.105356,
          "velocity": 0.7874015748031497
        },
        {
          "duration": 0.05263160000001221,
          "durationTicks": 14,
          "midi": 46,
          "name": "A#2",
          "ticks": 61740,
          "time": 232.105356,
          "velocity": 0.31496062992125984
        },
        {
          "duration": 0.05263160000001221,
          "durationTicks": 14,
          "midi": 40,
          "name": "E2",
          "ticks": 61800,
          "time": 232.33092,
          "velocity": 0.7874015748031497
        },
        {
          "duration": 0.05263160000001221,
          "durationTicks": 14,
          "midi": 46,
          "name": "A#2",
          "ticks": 61800,
          "time": 232.33092,
          "velocity": 0.7874015748031497
        },
        {
          "duration": 0.05263160000001221,
          "durationTicks": 14,
          "midi": 36,
          "name": "C2",
          "ticks": 61830,
          "time": 232.443702,
          "velocity": 0.7874015748031497
        },
        {
          "duration": 0.05263159999998379,
          "durationTicks": 14,
          "midi": 46,
          "name": "A#2",
          "ticks": 61860,
          "time": 232.556484,
          "velocity": 0.31496062992125984
        },
        {
          "duration": 0.05263159999998379,
          "durationTicks": 14,
          "midi": 49,
          "name": "C#3",
          "ticks": 61920,
          "time": 232.782048,
          "velocity": 0.7874015748031497
        },
        {
          "duration": 0.05263159999998379,
          "durationTicks": 14,
          "midi": 36,
          "name": "C2",
          "ticks": 61920,
          "time": 232.782048,
          "velocity": 0.7874015748031497
        },
        {
          "duration": 0.05263160000001221,
          "durationTicks": 14,
          "midi": 46,
          "name": "A#2",
          "ticks": 62040,
          "time": 233.233176,
          "velocity": 0.7874015748031497
        },
        {
          "duration": 0.05263160000001221,
          "durationTicks": 14,
          "midi": 40,
          "name": "E2",
          "ticks": 62040,
          "time": 233.233176,
          "velocity": 0.7874015748031497
        },
        {
          "duration": 0.05263159999998379,
          "durationTicks": 14,
          "midi": 46,
          "name": "A#2",
          "ticks": 62100,
          "time": 233.45874,
          "velocity": 0.6299212598425197
        },
        {
          "duration": 0.05263160000001221,
          "durationTicks": 14,
          "midi": 36,
          "name": "C2",
          "ticks": 62160,
          "time": 233.684304,
          "velocity": 0.7874015748031497
        },
        {
          "duration": 0.05263160000001221,
          "durationTicks": 14,
          "midi": 46,
          "name": "A#2",
          "ticks": 62160,
          "time": 233.684304,
          "velocity": 0.7874015748031497
        },
        {
          "duration": 0.05263160000001221,
          "durationTicks": 14,
          "midi": 46,
          "name": "A#2",
          "ticks": 62220,
          "time": 233.909868,
          "velocity": 0.6299212598425197
        },
        {
          "duration": 0.05263159999998379,
          "durationTicks": 14,
          "midi": 40,
          "name": "E2",
          "ticks": 62280,
          "time": 234.135432,
          "velocity": 0.7874015748031497
        },
        {
          "duration": 0.05263159999998379,
          "durationTicks": 14,
          "midi": 46,
          "name": "A#2",
          "ticks": 62280,
          "time": 234.135432,
          "velocity": 0.7874015748031497
        },
        {
          "duration": 0.05263159999998379,
          "durationTicks": 14,
          "midi": 46,
          "name": "A#2",
          "ticks": 62340,
          "time": 234.360996,
          "velocity": 0.6299212598425197
        },
        {
          "duration": 0.05263160000001221,
          "durationTicks": 14,
          "midi": 57,
          "name": "A3",
          "ticks": 62400,
          "time": 234.58656,
          "velocity": 0.7874015748031497
        },
        {
          "duration": 0.05263160000001221,
          "durationTicks": 14,
          "midi": 36,
          "name": "C2",
          "ticks": 62400,
          "time": 234.58656,
          "velocity": 0.7874015748031497
        },
        {
          "duration": 0.05263160000001221,
          "durationTicks": 14,
          "midi": 46,
          "name": "A#2",
          "ticks": 62400,
          "time": 234.58656,
          "velocity": 0.7874015748031497
        },
        {
          "duration": 0.05263159999998379,
          "durationTicks": 14,
          "midi": 46,
          "name": "A#2",
          "ticks": 62460,
          "time": 234.812124,
          "velocity": 0.6299212598425197
        },
        {
          "duration": 0.05263159999998379,
          "durationTicks": 14,
          "midi": 40,
          "name": "E2",
          "ticks": 62520,
          "time": 235.037688,
          "velocity": 0.7874015748031497
        },
        {
          "duration": 0.05263159999998379,
          "durationTicks": 14,
          "midi": 46,
          "name": "A#2",
          "ticks": 62520,
          "time": 235.037688,
          "velocity": 0.7874015748031497
        },
        {
          "duration": 0.05263160000001221,
          "durationTicks": 14,
          "midi": 46,
          "name": "A#2",
          "ticks": 62580,
          "time": 235.263252,
          "velocity": 0.6299212598425197
        },
        {
          "duration": 0.05263160000001221,
          "durationTicks": 14,
          "midi": 36,
          "name": "C2",
          "ticks": 62640,
          "time": 235.48881599999999,
          "velocity": 0.7874015748031497
        },
        {
          "duration": 0.05263160000001221,
          "durationTicks": 14,
          "midi": 46,
          "name": "A#2",
          "ticks": 62640,
          "time": 235.48881599999999,
          "velocity": 0.7874015748031497
        },
        {
          "duration": 0.05263159999998379,
          "durationTicks": 14,
          "midi": 46,
          "name": "A#2",
          "ticks": 62700,
          "time": 235.71438,
          "velocity": 0.6299212598425197
        },
        {
          "duration": 0.05263160000001221,
          "durationTicks": 14,
          "midi": 40,
          "name": "E2",
          "ticks": 62760,
          "time": 235.939944,
          "velocity": 0.7874015748031497
        },
        {
          "duration": 0.05263160000001221,
          "durationTicks": 14,
          "midi": 46,
          "name": "A#2",
          "ticks": 62760,
          "time": 235.939944,
          "velocity": 0.7874015748031497
        },
        {
          "duration": 0.05263160000001221,
          "durationTicks": 14,
          "midi": 46,
          "name": "A#2",
          "ticks": 62820,
          "time": 236.165508,
          "velocity": 0.6299212598425197
        },
        {
          "duration": 0.05263159999998379,
          "durationTicks": 14,
          "midi": 49,
          "name": "C#3",
          "ticks": 62880,
          "time": 236.391072,
          "velocity": 0.7874015748031497
        },
        {
          "duration": 0.05263159999998379,
          "durationTicks": 14,
          "midi": 36,
          "name": "C2",
          "ticks": 62880,
          "time": 236.391072,
          "velocity": 0.7874015748031497
        },
        {
          "duration": 0.05263159999998379,
          "durationTicks": 14,
          "midi": 46,
          "name": "A#2",
          "ticks": 62880,
          "time": 236.391072,
          "velocity": 0.7874015748031497
        },
        {
          "duration": 0.05263160000001221,
          "durationTicks": 14,
          "midi": 46,
          "name": "A#2",
          "ticks": 62940,
          "time": 236.616636,
          "velocity": 0.6299212598425197
        },
        {
          "duration": 0.05263160000001221,
          "durationTicks": 14,
          "midi": 40,
          "name": "E2",
          "ticks": 63000,
          "time": 236.8422,
          "velocity": 0.7874015748031497
        },
        {
          "duration": 0.05263160000001221,
          "durationTicks": 14,
          "midi": 46,
          "name": "A#2",
          "ticks": 63000,
          "time": 236.8422,
          "velocity": 0.7874015748031497
        },
        {
          "duration": 0.05263159999998379,
          "durationTicks": 14,
          "midi": 46,
          "name": "A#2",
          "ticks": 63060,
          "time": 237.067764,
          "velocity": 0.6299212598425197
        },
        {
          "duration": 0.05263159999998379,
          "durationTicks": 14,
          "midi": 36,
          "name": "C2",
          "ticks": 63120,
          "time": 237.293328,
          "velocity": 0.7874015748031497
        },
        {
          "duration": 0.05263159999998379,
          "durationTicks": 14,
          "midi": 46,
          "name": "A#2",
          "ticks": 63120,
          "time": 237.293328,
          "velocity": 0.7874015748031497
        },
        {
          "duration": 0.05263160000001221,
          "durationTicks": 14,
          "midi": 46,
          "name": "A#2",
          "ticks": 63180,
          "time": 237.518892,
          "velocity": 0.6299212598425197
        },
        {
          "duration": 0.05263159999998379,
          "durationTicks": 14,
          "midi": 40,
          "name": "E2",
          "ticks": 63240,
          "time": 237.744456,
          "velocity": 0.7874015748031497
        },
        {
          "duration": 0.05263159999998379,
          "durationTicks": 14,
          "midi": 46,
          "name": "A#2",
          "ticks": 63240,
          "time": 237.744456,
          "velocity": 0.7874015748031497
        },
        {
          "duration": 0.05263159999998379,
          "durationTicks": 14,
          "midi": 46,
          "name": "A#2",
          "ticks": 63300,
          "time": 237.97002,
          "velocity": 0.6299212598425197
        },
        {
          "duration": 0.05263160000001221,
          "durationTicks": 14,
          "midi": 57,
          "name": "A3",
          "ticks": 63360,
          "time": 238.195584,
          "velocity": 0.7874015748031497
        },
        {
          "duration": 0.05263160000001221,
          "durationTicks": 14,
          "midi": 36,
          "name": "C2",
          "ticks": 63360,
          "time": 238.195584,
          "velocity": 0.7874015748031497
        },
        {
          "duration": 0.05263160000001221,
          "durationTicks": 14,
          "midi": 46,
          "name": "A#2",
          "ticks": 63360,
          "time": 238.195584,
          "velocity": 0.7874015748031497
        },
        {
          "duration": 0.05263160000001221,
          "durationTicks": 14,
          "midi": 46,
          "name": "A#2",
          "ticks": 63420,
          "time": 238.421148,
          "velocity": 0.6299212598425197
        },
        {
          "duration": 0.05263159999998379,
          "durationTicks": 14,
          "midi": 40,
          "name": "E2",
          "ticks": 63480,
          "time": 238.646712,
          "velocity": 0.7874015748031497
        },
        {
          "duration": 0.05263159999998379,
          "durationTicks": 14,
          "midi": 46,
          "name": "A#2",
          "ticks": 63480,
          "time": 238.646712,
          "velocity": 0.7874015748031497
        },
        {
          "duration": 0.05263159999998379,
          "durationTicks": 14,
          "midi": 46,
          "name": "A#2",
          "ticks": 63540,
          "time": 238.872276,
          "velocity": 0.6299212598425197
        },
        {
          "duration": 0.05263160000001221,
          "durationTicks": 14,
          "midi": 36,
          "name": "C2",
          "ticks": 63600,
          "time": 239.09784,
          "velocity": 0.7874015748031497
        },
        {
          "duration": 0.05263160000001221,
          "durationTicks": 14,
          "midi": 46,
          "name": "A#2",
          "ticks": 63600,
          "time": 239.09784,
          "velocity": 0.7874015748031497
        },
        {
          "duration": 0.05263159999998379,
          "durationTicks": 14,
          "midi": 46,
          "name": "A#2",
          "ticks": 63660,
          "time": 239.323404,
          "velocity": 0.6299212598425197
        },
        {
          "duration": 0.05263159999998379,
          "durationTicks": 14,
          "midi": 40,
          "name": "E2",
          "ticks": 63720,
          "time": 239.548968,
          "velocity": 0.7874015748031497
        },
        {
          "duration": 0.05263159999998379,
          "durationTicks": 14,
          "midi": 46,
          "name": "A#2",
          "ticks": 63720,
          "time": 239.548968,
          "velocity": 0.7874015748031497
        },
        {
          "duration": 0.05263160000001221,
          "durationTicks": 14,
          "midi": 46,
          "name": "A#2",
          "ticks": 63780,
          "time": 239.774532,
          "velocity": 0.6299212598425197
        },
        {
          "duration": 0.05263160000001221,
          "durationTicks": 14,
          "midi": 49,
          "name": "C#3",
          "ticks": 63840,
          "time": 240.00009599999998,
          "velocity": 0.7874015748031497
        },
        {
          "duration": 0.05263160000001221,
          "durationTicks": 14,
          "midi": 36,
          "name": "C2",
          "ticks": 63840,
          "time": 240.00009599999998,
          "velocity": 0.7874015748031497
        },
        {
          "duration": 0.05263160000001221,
          "durationTicks": 14,
          "midi": 46,
          "name": "A#2",
          "ticks": 63840,
          "time": 240.00009599999998,
          "velocity": 0.7874015748031497
        },
        {
          "duration": 0.05263159999998379,
          "durationTicks": 14,
          "midi": 46,
          "name": "A#2",
          "ticks": 63900,
          "time": 240.22566,
          "velocity": 0.6299212598425197
        },
        {
          "duration": 0.05263160000001221,
          "durationTicks": 14,
          "midi": 40,
          "name": "E2",
          "ticks": 63960,
          "time": 240.451224,
          "velocity": 0.7874015748031497
        },
        {
          "duration": 0.05263160000001221,
          "durationTicks": 14,
          "midi": 46,
          "name": "A#2",
          "ticks": 63960,
          "time": 240.451224,
          "velocity": 0.7874015748031497
        },
        {
          "duration": 0.05263160000001221,
          "durationTicks": 14,
          "midi": 46,
          "name": "A#2",
          "ticks": 64020,
          "time": 240.676788,
          "velocity": 0.6299212598425197
        },
        {
          "duration": 0.05263159999998379,
          "durationTicks": 14,
          "midi": 36,
          "name": "C2",
          "ticks": 64080,
          "time": 240.902352,
          "velocity": 0.7874015748031497
        },
        {
          "duration": 0.05263159999998379,
          "durationTicks": 14,
          "midi": 46,
          "name": "A#2",
          "ticks": 64080,
          "time": 240.902352,
          "velocity": 0.7874015748031497
        },
        {
          "duration": 0.05263160000001221,
          "durationTicks": 14,
          "midi": 46,
          "name": "A#2",
          "ticks": 64140,
          "time": 241.127916,
          "velocity": 0.6299212598425197
        },
        {
          "duration": 0.05263160000001221,
          "durationTicks": 14,
          "midi": 40,
          "name": "E2",
          "ticks": 64200,
          "time": 241.35348,
          "velocity": 0.7874015748031497
        },
        {
          "duration": 0.05263160000001221,
          "durationTicks": 14,
          "midi": 46,
          "name": "A#2",
          "ticks": 64200,
          "time": 241.35348,
          "velocity": 0.7874015748031497
        },
        {
          "duration": 0.05263159999998379,
          "durationTicks": 14,
          "midi": 46,
          "name": "A#2",
          "ticks": 64260,
          "time": 241.579044,
          "velocity": 0.6299212598425197
        },
        {
          "duration": 0.05263160000001221,
          "durationTicks": 14,
          "midi": 57,
          "name": "A3",
          "ticks": 64320,
          "time": 241.804608,
          "velocity": 0.7874015748031497
        },
        {
          "duration": 0.05263160000001221,
          "durationTicks": 14,
          "midi": 36,
          "name": "C2",
          "ticks": 64320,
          "time": 241.804608,
          "velocity": 0.7874015748031497
        },
        {
          "duration": 0.05263160000001221,
          "durationTicks": 14,
          "midi": 46,
          "name": "A#2",
          "ticks": 64320,
          "time": 241.804608,
          "velocity": 0.7874015748031497
        },
        {
          "duration": 0.05263160000001221,
          "durationTicks": 14,
          "midi": 46,
          "name": "A#2",
          "ticks": 64380,
          "time": 242.030172,
          "velocity": 0.6299212598425197
        },
        {
          "duration": 0.05263159999998379,
          "durationTicks": 14,
          "midi": 40,
          "name": "E2",
          "ticks": 64440,
          "time": 242.255736,
          "velocity": 0.7874015748031497
        },
        {
          "duration": 0.05263159999998379,
          "durationTicks": 14,
          "midi": 46,
          "name": "A#2",
          "ticks": 64440,
          "time": 242.255736,
          "velocity": 0.7874015748031497
        },
        {
          "duration": 0.05263159999998379,
          "durationTicks": 14,
          "midi": 46,
          "name": "A#2",
          "ticks": 64500,
          "time": 242.4813,
          "velocity": 0.6299212598425197
        },
        {
          "duration": 0.05263160000001221,
          "durationTicks": 14,
          "midi": 36,
          "name": "C2",
          "ticks": 64560,
          "time": 242.706864,
          "velocity": 0.7874015748031497
        },
        {
          "duration": 0.05263160000001221,
          "durationTicks": 14,
          "midi": 46,
          "name": "A#2",
          "ticks": 64560,
          "time": 242.706864,
          "velocity": 0.7874015748031497
        },
        {
          "duration": 0.05263160000001221,
          "durationTicks": 14,
          "midi": 46,
          "name": "A#2",
          "ticks": 64620,
          "time": 242.932428,
          "velocity": 0.6299212598425197
        },
        {
          "duration": 0.05263159999998379,
          "durationTicks": 14,
          "midi": 40,
          "name": "E2",
          "ticks": 64680,
          "time": 243.157992,
          "velocity": 0.7874015748031497
        },
        {
          "duration": 0.05263159999998379,
          "durationTicks": 14,
          "midi": 46,
          "name": "A#2",
          "ticks": 64680,
          "time": 243.157992,
          "velocity": 0.7874015748031497
        },
        {
          "duration": 0.05263159999998379,
          "durationTicks": 14,
          "midi": 46,
          "name": "A#2",
          "ticks": 64740,
          "time": 243.383556,
          "velocity": 0.6299212598425197
        },
        {
          "duration": 0.05263160000001221,
          "durationTicks": 14,
          "midi": 49,
          "name": "C#3",
          "ticks": 64800,
          "time": 243.60912,
          "velocity": 0.7874015748031497
        },
        {
          "duration": 0.05263160000001221,
          "durationTicks": 14,
          "midi": 36,
          "name": "C2",
          "ticks": 64800,
          "time": 243.60912,
          "velocity": 0.7874015748031497
        },
        {
          "duration": 0.05263160000001221,
          "durationTicks": 14,
          "midi": 46,
          "name": "A#2",
          "ticks": 64800,
          "time": 243.60912,
          "velocity": 0.7874015748031497
        },
        {
          "duration": 0.05263159999998379,
          "durationTicks": 14,
          "midi": 46,
          "name": "A#2",
          "ticks": 64860,
          "time": 243.834684,
          "velocity": 0.6299212598425197
        },
        {
          "duration": 0.05263159999998379,
          "durationTicks": 14,
          "midi": 40,
          "name": "E2",
          "ticks": 64920,
          "time": 244.060248,
          "velocity": 0.7874015748031497
        },
        {
          "duration": 0.05263159999998379,
          "durationTicks": 14,
          "midi": 46,
          "name": "A#2",
          "ticks": 64920,
          "time": 244.060248,
          "velocity": 0.7874015748031497
        },
        {
          "duration": 0.05263160000001221,
          "durationTicks": 14,
          "midi": 46,
          "name": "A#2",
          "ticks": 64980,
          "time": 244.285812,
          "velocity": 0.6299212598425197
        },
        {
          "duration": 0.05263160000001221,
          "durationTicks": 14,
          "midi": 36,
          "name": "C2",
          "ticks": 65040,
          "time": 244.51137599999998,
          "velocity": 0.7874015748031497
        },
        {
          "duration": 0.05263160000001221,
          "durationTicks": 14,
          "midi": 46,
          "name": "A#2",
          "ticks": 65040,
          "time": 244.51137599999998,
          "velocity": 0.7874015748031497
        },
        {
          "duration": 0.05263159999998379,
          "durationTicks": 14,
          "midi": 46,
          "name": "A#2",
          "ticks": 65100,
          "time": 244.73694,
          "velocity": 0.6299212598425197
        },
        {
          "duration": 0.05263160000001221,
          "durationTicks": 14,
          "midi": 40,
          "name": "E2",
          "ticks": 65160,
          "time": 244.962504,
          "velocity": 0.7874015748031497
        },
        {
          "duration": 0.05263160000001221,
          "durationTicks": 14,
          "midi": 46,
          "name": "A#2",
          "ticks": 65160,
          "time": 244.962504,
          "velocity": 0.7874015748031497
        },
        {
          "duration": 0.05263160000001221,
          "durationTicks": 14,
          "midi": 46,
          "name": "A#2",
          "ticks": 65220,
          "time": 245.188068,
          "velocity": 0.6299212598425197
        },
        {
          "duration": 0.05263159999998379,
          "durationTicks": 14,
          "midi": 57,
          "name": "A3",
          "ticks": 65280,
          "time": 245.413632,
          "velocity": 0.7874015748031497
        },
        {
          "duration": 0.05263159999998379,
          "durationTicks": 14,
          "midi": 36,
          "name": "C2",
          "ticks": 65280,
          "time": 245.413632,
          "velocity": 0.7874015748031497
        },
        {
          "duration": 0.05263159999998379,
          "durationTicks": 14,
          "midi": 46,
          "name": "A#2",
          "ticks": 65280,
          "time": 245.413632,
          "velocity": 0.7874015748031497
        },
        {
          "duration": 0.05263160000001221,
          "durationTicks": 14,
          "midi": 46,
          "name": "A#2",
          "ticks": 65340,
          "time": 245.639196,
          "velocity": 0.6299212598425197
        },
        {
          "duration": 0.05263160000001221,
          "durationTicks": 14,
          "midi": 40,
          "name": "E2",
          "ticks": 65400,
          "time": 245.86476,
          "velocity": 0.7874015748031497
        },
        {
          "duration": 0.05263160000001221,
          "durationTicks": 14,
          "midi": 46,
          "name": "A#2",
          "ticks": 65400,
          "time": 245.86476,
          "velocity": 0.7874015748031497
        },
        {
          "duration": 0.05263159999998379,
          "durationTicks": 14,
          "midi": 46,
          "name": "A#2",
          "ticks": 65460,
          "time": 246.090324,
          "velocity": 0.6299212598425197
        },
        {
          "duration": 0.05263160000001221,
          "durationTicks": 14,
          "midi": 36,
          "name": "C2",
          "ticks": 65520,
          "time": 246.315888,
          "velocity": 0.7874015748031497
        },
        {
          "duration": 0.05263160000001221,
          "durationTicks": 14,
          "midi": 46,
          "name": "A#2",
          "ticks": 65520,
          "time": 246.315888,
          "velocity": 0.7874015748031497
        },
        {
          "duration": 0.05263160000001221,
          "durationTicks": 14,
          "midi": 46,
          "name": "A#2",
          "ticks": 65580,
          "time": 246.541452,
          "velocity": 0.6299212598425197
        },
        {
          "duration": 0.05263159999998379,
          "durationTicks": 14,
          "midi": 40,
          "name": "E2",
          "ticks": 65640,
          "time": 246.767016,
          "velocity": 0.7874015748031497
        },
        {
          "duration": 0.05263159999998379,
          "durationTicks": 14,
          "midi": 46,
          "name": "A#2",
          "ticks": 65640,
          "time": 246.767016,
          "velocity": 0.7874015748031497
        },
        {
          "duration": 0.05263159999998379,
          "durationTicks": 14,
          "midi": 46,
          "name": "A#2",
          "ticks": 65700,
          "time": 246.99258,
          "velocity": 0.6299212598425197
        },
        {
          "duration": 0.05263160000001221,
          "durationTicks": 14,
          "midi": 49,
          "name": "C#3",
          "ticks": 65760,
          "time": 247.218144,
          "velocity": 0.7874015748031497
        },
        {
          "duration": 0.05263160000001221,
          "durationTicks": 14,
          "midi": 36,
          "name": "C2",
          "ticks": 65760,
          "time": 247.218144,
          "velocity": 0.7874015748031497
        },
        {
          "duration": 0.05263159999998379,
          "durationTicks": 14,
          "midi": 46,
          "name": "A#2",
          "ticks": 65880,
          "time": 247.669272,
          "velocity": 0.7874015748031497
        },
        {
          "duration": 0.05263159999998379,
          "durationTicks": 14,
          "midi": 40,
          "name": "E2",
          "ticks": 65880,
          "time": 247.669272,
          "velocity": 0.7874015748031497
        },
        {
          "duration": 0.05263160000001221,
          "durationTicks": 14,
          "midi": 46,
          "name": "A#2",
          "ticks": 65940,
          "time": 247.894836,
          "velocity": 0.6299212598425197
        },
        {
          "duration": 0.05263160000001221,
          "durationTicks": 14,
          "midi": 36,
          "name": "C2",
          "ticks": 66000,
          "time": 248.1204,
          "velocity": 0.7874015748031497
        },
        {
          "duration": 0.05263160000001221,
          "durationTicks": 14,
          "midi": 46,
          "name": "A#2",
          "ticks": 66000,
          "time": 248.1204,
          "velocity": 0.7874015748031497
        },
        {
          "duration": 0.05263159999998379,
          "durationTicks": 14,
          "midi": 46,
          "name": "A#2",
          "ticks": 66060,
          "time": 248.345964,
          "velocity": 0.6299212598425197
        },
        {
          "duration": 0.05263159999998379,
          "durationTicks": 14,
          "midi": 40,
          "name": "E2",
          "ticks": 66120,
          "time": 248.571528,
          "velocity": 0.7874015748031497
        },
        {
          "duration": 0.05263159999998379,
          "durationTicks": 14,
          "midi": 46,
          "name": "A#2",
          "ticks": 66120,
          "time": 248.571528,
          "velocity": 0.7874015748031497
        },
        {
          "duration": 0.05263160000001221,
          "durationTicks": 14,
          "midi": 46,
          "name": "A#2",
          "ticks": 66180,
          "time": 248.797092,
          "velocity": 0.6299212598425197
        },
        {
          "duration": 0.05263160000001221,
          "durationTicks": 14,
          "midi": 57,
          "name": "A3",
          "ticks": 66240,
          "time": 249.02265599999998,
          "velocity": 0.7874015748031497
        },
        {
          "duration": 0.05263160000001221,
          "durationTicks": 14,
          "midi": 36,
          "name": "C2",
          "ticks": 66240,
          "time": 249.02265599999998,
          "velocity": 0.7874015748031497
        },
        {
          "duration": 0.05263160000001221,
          "durationTicks": 14,
          "midi": 46,
          "name": "A#2",
          "ticks": 66240,
          "time": 249.02265599999998,
          "velocity": 0.7874015748031497
        },
        {
          "duration": 0.05263159999998379,
          "durationTicks": 14,
          "midi": 46,
          "name": "A#2",
          "ticks": 66300,
          "time": 249.24822,
          "velocity": 0.6299212598425197
        },
        {
          "duration": 0.05263160000001221,
          "durationTicks": 14,
          "midi": 40,
          "name": "E2",
          "ticks": 66360,
          "time": 249.473784,
          "velocity": 0.7874015748031497
        },
        {
          "duration": 0.05263160000001221,
          "durationTicks": 14,
          "midi": 46,
          "name": "A#2",
          "ticks": 66360,
          "time": 249.473784,
          "velocity": 0.7874015748031497
        },
        {
          "duration": 0.05263160000001221,
          "durationTicks": 14,
          "midi": 46,
          "name": "A#2",
          "ticks": 66420,
          "time": 249.699348,
          "velocity": 0.6299212598425197
        },
        {
          "duration": 0.05263159999998379,
          "durationTicks": 14,
          "midi": 36,
          "name": "C2",
          "ticks": 66480,
          "time": 249.924912,
          "velocity": 0.7874015748031497
        },
        {
          "duration": 0.05263159999998379,
          "durationTicks": 14,
          "midi": 46,
          "name": "A#2",
          "ticks": 66480,
          "time": 249.924912,
          "velocity": 0.7874015748031497
        },
        {
          "duration": 0.05263160000001221,
          "durationTicks": 14,
          "midi": 46,
          "name": "A#2",
          "ticks": 66540,
          "time": 250.150476,
          "velocity": 0.6299212598425197
        },
        {
          "duration": 0.05263160000001221,
          "durationTicks": 14,
          "midi": 40,
          "name": "E2",
          "ticks": 66600,
          "time": 250.37604,
          "velocity": 0.7874015748031497
        },
        {
          "duration": 0.05263160000001221,
          "durationTicks": 14,
          "midi": 46,
          "name": "A#2",
          "ticks": 66600,
          "time": 250.37604,
          "velocity": 0.7874015748031497
        },
        {
          "duration": 0.05263159999998379,
          "durationTicks": 14,
          "midi": 46,
          "name": "A#2",
          "ticks": 66660,
          "time": 250.601604,
          "velocity": 0.6299212598425197
        },
        {
          "duration": 0.05263159999998379,
          "durationTicks": 14,
          "midi": 49,
          "name": "C#3",
          "ticks": 66720,
          "time": 250.827168,
          "velocity": 0.7874015748031497
        },
        {
          "duration": 0.05263159999998379,
          "durationTicks": 14,
          "midi": 36,
          "name": "C2",
          "ticks": 66720,
          "time": 250.827168,
          "velocity": 0.7874015748031497
        },
        {
          "duration": 0.05263159999998379,
          "durationTicks": 14,
          "midi": 46,
          "name": "A#2",
          "ticks": 66720,
          "time": 250.827168,
          "velocity": 0.7874015748031497
        },
        {
          "duration": 0.05263160000001221,
          "durationTicks": 14,
          "midi": 46,
          "name": "A#2",
          "ticks": 66780,
          "time": 251.052732,
          "velocity": 0.6299212598425197
        },
        {
          "duration": 0.05263159999998379,
          "durationTicks": 14,
          "midi": 40,
          "name": "E2",
          "ticks": 66840,
          "time": 251.278296,
          "velocity": 0.7874015748031497
        },
        {
          "duration": 0.05263159999998379,
          "durationTicks": 14,
          "midi": 46,
          "name": "A#2",
          "ticks": 66840,
          "time": 251.278296,
          "velocity": 0.7874015748031497
        },
        {
          "duration": 0.05263159999998379,
          "durationTicks": 14,
          "midi": 46,
          "name": "A#2",
          "ticks": 66900,
          "time": 251.50386,
          "velocity": 0.6299212598425197
        },
        {
          "duration": 0.05263160000001221,
          "durationTicks": 14,
          "midi": 36,
          "name": "C2",
          "ticks": 66960,
          "time": 251.729424,
          "velocity": 0.7874015748031497
        },
        {
          "duration": 0.05263160000001221,
          "durationTicks": 14,
          "midi": 46,
          "name": "A#2",
          "ticks": 66960,
          "time": 251.729424,
          "velocity": 0.7874015748031497
        },
        {
          "duration": 0.05263160000001221,
          "durationTicks": 14,
          "midi": 46,
          "name": "A#2",
          "ticks": 67020,
          "time": 251.954988,
          "velocity": 0.6299212598425197
        },
        {
          "duration": 0.05263159999998379,
          "durationTicks": 14,
          "midi": 40,
          "name": "E2",
          "ticks": 67080,
          "time": 252.180552,
          "velocity": 0.7874015748031497
        },
        {
          "duration": 0.05263159999998379,
          "durationTicks": 14,
          "midi": 46,
          "name": "A#2",
          "ticks": 67080,
          "time": 252.180552,
          "velocity": 0.7874015748031497
        },
        {
          "duration": 0.05263159999998379,
          "durationTicks": 14,
          "midi": 46,
          "name": "A#2",
          "ticks": 67140,
          "time": 252.406116,
          "velocity": 0.6299212598425197
        },
        {
          "duration": 0.05263160000001221,
          "durationTicks": 14,
          "midi": 57,
          "name": "A3",
          "ticks": 67200,
          "time": 252.63168,
          "velocity": 0.7874015748031497
        },
        {
          "duration": 0.05263160000001221,
          "durationTicks": 14,
          "midi": 36,
          "name": "C2",
          "ticks": 67200,
          "time": 252.63168,
          "velocity": 0.7874015748031497
        },
        {
          "duration": 0.05263160000001221,
          "durationTicks": 14,
          "midi": 46,
          "name": "A#2",
          "ticks": 67200,
          "time": 252.63168,
          "velocity": 0.7874015748031497
        },
        {
          "duration": 0.05263160000001221,
          "durationTicks": 14,
          "midi": 46,
          "name": "A#2",
          "ticks": 67260,
          "time": 252.85724399999998,
          "velocity": 0.6299212598425197
        },
        {
          "duration": 0.05263159999998379,
          "durationTicks": 14,
          "midi": 40,
          "name": "E2",
          "ticks": 67320,
          "time": 253.082808,
          "velocity": 0.7874015748031497
        },
        {
          "duration": 0.05263159999998379,
          "durationTicks": 14,
          "midi": 46,
          "name": "A#2",
          "ticks": 67320,
          "time": 253.082808,
          "velocity": 0.7874015748031497
        },
        {
          "duration": 0.05263160000001221,
          "durationTicks": 14,
          "midi": 46,
          "name": "A#2",
          "ticks": 67380,
          "time": 253.308372,
          "velocity": 0.6299212598425197
        },
        {
          "duration": 0.05263160000001221,
          "durationTicks": 14,
          "midi": 36,
          "name": "C2",
          "ticks": 67440,
          "time": 253.53393599999998,
          "velocity": 0.7874015748031497
        },
        {
          "duration": 0.05263160000001221,
          "durationTicks": 14,
          "midi": 46,
          "name": "A#2",
          "ticks": 67440,
          "time": 253.53393599999998,
          "velocity": 0.7874015748031497
        },
        {
          "duration": 0.05263159999998379,
          "durationTicks": 14,
          "midi": 46,
          "name": "A#2",
          "ticks": 67500,
          "time": 253.7595,
          "velocity": 0.6299212598425197
        },
        {
          "duration": 0.05263160000001221,
          "durationTicks": 14,
          "midi": 40,
          "name": "E2",
          "ticks": 67560,
          "time": 253.985064,
          "velocity": 0.7874015748031497
        },
        {
          "duration": 0.05263160000001221,
          "durationTicks": 14,
          "midi": 46,
          "name": "A#2",
          "ticks": 67560,
          "time": 253.985064,
          "velocity": 0.7874015748031497
        },
        {
          "duration": 0.05263160000001221,
          "durationTicks": 14,
          "midi": 46,
          "name": "A#2",
          "ticks": 67620,
          "time": 254.21062799999999,
          "velocity": 0.6299212598425197
        },
        {
          "duration": 0.05263159999998379,
          "durationTicks": 14,
          "midi": 49,
          "name": "C#3",
          "ticks": 67680,
          "time": 254.436192,
          "velocity": 0.7874015748031497
        },
        {
          "duration": 0.05263159999998379,
          "durationTicks": 14,
          "midi": 36,
          "name": "C2",
          "ticks": 67680,
          "time": 254.436192,
          "velocity": 0.7874015748031497
        },
        {
          "duration": 0.05263159999998379,
          "durationTicks": 14,
          "midi": 46,
          "name": "A#2",
          "ticks": 67680,
          "time": 254.436192,
          "velocity": 0.7874015748031497
        },
        {
          "duration": 0.05263160000001221,
          "durationTicks": 14,
          "midi": 46,
          "name": "A#2",
          "ticks": 67740,
          "time": 254.661756,
          "velocity": 0.6299212598425197
        },
        {
          "duration": 0.05263160000001221,
          "durationTicks": 14,
          "midi": 40,
          "name": "E2",
          "ticks": 67800,
          "time": 254.88732,
          "velocity": 0.7874015748031497
        },
        {
          "duration": 0.05263160000001221,
          "durationTicks": 14,
          "midi": 46,
          "name": "A#2",
          "ticks": 67800,
          "time": 254.88732,
          "velocity": 0.7874015748031497
        },
        {
          "duration": 0.05263159999998379,
          "durationTicks": 14,
          "midi": 46,
          "name": "A#2",
          "ticks": 67860,
          "time": 255.112884,
          "velocity": 0.6299212598425197
        },
        {
          "duration": 0.05263160000001221,
          "durationTicks": 14,
          "midi": 36,
          "name": "C2",
          "ticks": 67920,
          "time": 255.338448,
          "velocity": 0.7874015748031497
        },
        {
          "duration": 0.05263160000001221,
          "durationTicks": 14,
          "midi": 46,
          "name": "A#2",
          "ticks": 67920,
          "time": 255.338448,
          "velocity": 0.7874015748031497
        },
        {
          "duration": 0.05263160000001221,
          "durationTicks": 14,
          "midi": 46,
          "name": "A#2",
          "ticks": 67980,
          "time": 255.564012,
          "velocity": 0.6299212598425197
        },
        {
          "duration": 0.05263159999998379,
          "durationTicks": 14,
          "midi": 40,
          "name": "E2",
          "ticks": 68040,
          "time": 255.789576,
          "velocity": 0.7874015748031497
        },
        {
          "duration": 0.05263159999998379,
          "durationTicks": 14,
          "midi": 46,
          "name": "A#2",
          "ticks": 68040,
          "time": 255.789576,
          "velocity": 0.7874015748031497
        },
        {
          "duration": 0.052631600000040635,
          "durationTicks": 14,
          "midi": 46,
          "name": "A#2",
          "ticks": 68100,
          "time": 256.01514,
          "velocity": 0.6299212598425197
        },
        {
          "duration": 0.05263159999998379,
          "durationTicks": 14,
          "midi": 57,
          "name": "A3",
          "ticks": 68160,
          "time": 256.240704,
          "velocity": 0.7874015748031497
        },
        {
          "duration": 0.05263159999998379,
          "durationTicks": 14,
          "midi": 36,
          "name": "C2",
          "ticks": 68160,
          "time": 256.240704,
          "velocity": 0.7874015748031497
        },
        {
          "duration": 0.05263159999998379,
          "durationTicks": 14,
          "midi": 46,
          "name": "A#2",
          "ticks": 68160,
          "time": 256.240704,
          "velocity": 0.7874015748031497
        },
        {
          "duration": 0.05263159999998379,
          "durationTicks": 14,
          "midi": 46,
          "name": "A#2",
          "ticks": 68220,
          "time": 256.466268,
          "velocity": 0.6299212598425197
        },
        {
          "duration": 0.052631600000040635,
          "durationTicks": 14,
          "midi": 40,
          "name": "E2",
          "ticks": 68280,
          "time": 256.691832,
          "velocity": 0.7874015748031497
        },
        {
          "duration": 0.052631600000040635,
          "durationTicks": 14,
          "midi": 46,
          "name": "A#2",
          "ticks": 68280,
          "time": 256.691832,
          "velocity": 0.7874015748031497
        },
        {
          "duration": 0.05263159999998379,
          "durationTicks": 14,
          "midi": 46,
          "name": "A#2",
          "ticks": 68340,
          "time": 256.917396,
          "velocity": 0.6299212598425197
        },
        {
          "duration": 0.05263159999998379,
          "durationTicks": 14,
          "midi": 36,
          "name": "C2",
          "ticks": 68400,
          "time": 257.14296,
          "velocity": 0.7874015748031497
        },
        {
          "duration": 0.05263159999998379,
          "durationTicks": 14,
          "midi": 46,
          "name": "A#2",
          "ticks": 68400,
          "time": 257.14296,
          "velocity": 0.7874015748031497
        },
        {
          "duration": 0.052631600000040635,
          "durationTicks": 14,
          "midi": 46,
          "name": "A#2",
          "ticks": 68460,
          "time": 257.368524,
          "velocity": 0.6299212598425197
        },
        {
          "duration": 0.05263159999998379,
          "durationTicks": 14,
          "midi": 40,
          "name": "E2",
          "ticks": 68520,
          "time": 257.594088,
          "velocity": 0.7874015748031497
        },
        {
          "duration": 0.05263159999998379,
          "durationTicks": 14,
          "midi": 46,
          "name": "A#2",
          "ticks": 68520,
          "time": 257.594088,
          "velocity": 0.7874015748031497
        },
        {
          "duration": 0.05263159999998379,
          "durationTicks": 14,
          "midi": 46,
          "name": "A#2",
          "ticks": 68580,
          "time": 257.819652,
          "velocity": 0.6299212598425197
        },
        {
          "duration": 0.052631600000040635,
          "durationTicks": 14,
          "midi": 49,
          "name": "C#3",
          "ticks": 68640,
          "time": 258.045216,
          "velocity": 0.7874015748031497
        },
        {
          "duration": 0.052631600000040635,
          "durationTicks": 14,
          "midi": 36,
          "name": "C2",
          "ticks": 68640,
          "time": 258.045216,
          "velocity": 0.7874015748031497
        },
        {
          "duration": 0.052631600000040635,
          "durationTicks": 14,
          "midi": 46,
          "name": "A#2",
          "ticks": 68640,
          "time": 258.045216,
          "velocity": 0.7874015748031497
        },
        {
          "duration": 0.05263159999998379,
          "durationTicks": 14,
          "midi": 46,
          "name": "A#2",
          "ticks": 68700,
          "time": 258.27078,
          "velocity": 0.6299212598425197
        },
        {
          "duration": 0.05263159999998379,
          "durationTicks": 14,
          "midi": 40,
          "name": "E2",
          "ticks": 68760,
          "time": 258.496344,
          "velocity": 0.7874015748031497
        },
        {
          "duration": 0.05263159999998379,
          "durationTicks": 14,
          "midi": 46,
          "name": "A#2",
          "ticks": 68760,
          "time": 258.496344,
          "velocity": 0.7874015748031497
        },
        {
          "duration": 0.052631600000040635,
          "durationTicks": 14,
          "midi": 46,
          "name": "A#2",
          "ticks": 68820,
          "time": 258.721908,
          "velocity": 0.6299212598425197
        },
        {
          "duration": 0.05263159999998379,
          "durationTicks": 14,
          "midi": 36,
          "name": "C2",
          "ticks": 68880,
          "time": 258.947472,
          "velocity": 0.7874015748031497
        },
        {
          "duration": 0.05263159999998379,
          "durationTicks": 14,
          "midi": 46,
          "name": "A#2",
          "ticks": 68880,
          "time": 258.947472,
          "velocity": 0.7874015748031497
        },
        {
          "duration": 0.05263159999998379,
          "durationTicks": 14,
          "midi": 46,
          "name": "A#2",
          "ticks": 68940,
          "time": 259.173036,
          "velocity": 0.6299212598425197
        },
        {
          "duration": 0.05263159999998379,
          "durationTicks": 14,
          "midi": 40,
          "name": "E2",
          "ticks": 69000,
          "time": 259.3986,
          "velocity": 0.7874015748031497
        },
        {
          "duration": 0.05263159999998379,
          "durationTicks": 14,
          "midi": 46,
          "name": "A#2",
          "ticks": 69000,
          "time": 259.3986,
          "velocity": 0.7874015748031497
        },
        {
          "duration": 0.05263159999998379,
          "durationTicks": 14,
          "midi": 46,
          "name": "A#2",
          "ticks": 69060,
          "time": 259.624164,
          "velocity": 0.6299212598425197
        },
        {
          "duration": 0.05263159999998379,
          "durationTicks": 14,
          "midi": 57,
          "name": "A3",
          "ticks": 69120,
          "time": 259.849728,
          "velocity": 0.7874015748031497
        },
        {
          "duration": 0.05263159999998379,
          "durationTicks": 14,
          "midi": 36,
          "name": "C2",
          "ticks": 69120,
          "time": 259.849728,
          "velocity": 0.7874015748031497
        },
        {
          "duration": 0.05263159999998379,
          "durationTicks": 14,
          "midi": 46,
          "name": "A#2",
          "ticks": 69120,
          "time": 259.849728,
          "velocity": 0.7874015748031497
        },
        {
          "duration": 0.05263159999998379,
          "durationTicks": 14,
          "midi": 46,
          "name": "A#2",
          "ticks": 69180,
          "time": 260.075292,
          "velocity": 0.6299212598425197
        },
        {
          "duration": 0.05263159999998379,
          "durationTicks": 14,
          "midi": 40,
          "name": "E2",
          "ticks": 69240,
          "time": 260.300856,
          "velocity": 0.7874015748031497
        },
        {
          "duration": 0.05263159999998379,
          "durationTicks": 14,
          "midi": 46,
          "name": "A#2",
          "ticks": 69240,
          "time": 260.300856,
          "velocity": 0.7874015748031497
        },
        {
          "duration": 0.052631600000040635,
          "durationTicks": 14,
          "midi": 46,
          "name": "A#2",
          "ticks": 69300,
          "time": 260.52642,
          "velocity": 0.6299212598425197
        },
        {
          "duration": 0.05263159999998379,
          "durationTicks": 14,
          "midi": 36,
          "name": "C2",
          "ticks": 69360,
          "time": 260.751984,
          "velocity": 0.7874015748031497
        },
        {
          "duration": 0.05263159999998379,
          "durationTicks": 14,
          "midi": 46,
          "name": "A#2",
          "ticks": 69360,
          "time": 260.751984,
          "velocity": 0.7874015748031497
        },
        {
          "duration": 0.05263159999998379,
          "durationTicks": 14,
          "midi": 46,
          "name": "A#2",
          "ticks": 69420,
          "time": 260.977548,
          "velocity": 0.6299212598425197
        },
        {
          "duration": 0.052631600000040635,
          "durationTicks": 14,
          "midi": 40,
          "name": "E2",
          "ticks": 69480,
          "time": 261.203112,
          "velocity": 0.7874015748031497
        },
        {
          "duration": 0.052631600000040635,
          "durationTicks": 14,
          "midi": 46,
          "name": "A#2",
          "ticks": 69480,
          "time": 261.203112,
          "velocity": 0.7874015748031497
        },
        {
          "duration": 0.05263159999998379,
          "durationTicks": 14,
          "midi": 40,
          "name": "E2",
          "ticks": 69540,
          "time": 261.428676,
          "velocity": 0.7874015748031497
        },
        {
          "duration": 0.05263159999998379,
          "durationTicks": 14,
          "midi": 46,
          "name": "A#2",
          "ticks": 69540,
          "time": 261.428676,
          "velocity": 0.6299212598425197
        },
        {
          "duration": 0.052631600000040635,
          "durationTicks": 14,
          "midi": 40,
          "name": "E2",
          "ticks": 69570,
          "time": 261.541458,
          "velocity": 0.7874015748031497
        },
        {
          "duration": 0.05263159999998379,
          "durationTicks": 14,
          "midi": 49,
          "name": "C#3",
          "ticks": 69600,
          "time": 261.65424,
          "velocity": 0.7874015748031497
        },
        {
          "duration": 0.05263159999998379,
          "durationTicks": 14,
          "midi": 36,
          "name": "C2",
          "ticks": 69600,
          "time": 261.65424,
          "velocity": 0.7874015748031497
        },
        {
          "duration": 0.05263159999998379,
          "durationTicks": 14,
          "midi": 46,
          "name": "A#2",
          "ticks": 69720,
          "time": 262.105368,
          "velocity": 0.7874015748031497
        },
        {
          "duration": 0.05263159999998379,
          "durationTicks": 14,
          "midi": 40,
          "name": "E2",
          "ticks": 69720,
          "time": 262.105368,
          "velocity": 0.7874015748031497
        },
        {
          "duration": 0.05263159999998379,
          "durationTicks": 14,
          "midi": 46,
          "name": "A#2",
          "ticks": 69780,
          "time": 262.330932,
          "velocity": 0.6299212598425197
        },
        {
          "duration": 0.05263159999998379,
          "durationTicks": 14,
          "midi": 57,
          "name": "A3",
          "ticks": 69840,
          "time": 262.556496,
          "velocity": 0.6299212598425197
        },
        {
          "duration": 0.05263159999998379,
          "durationTicks": 14,
          "midi": 36,
          "name": "C2",
          "ticks": 69840,
          "time": 262.556496,
          "velocity": 0.7874015748031497
        },
        {
          "duration": 0.05263159999998379,
          "durationTicks": 14,
          "midi": 46,
          "name": "A#2",
          "ticks": 69840,
          "time": 262.556496,
          "velocity": 0.7874015748031497
        },
        {
          "duration": 0.05263159999998379,
          "durationTicks": 14,
          "midi": 46,
          "name": "A#2",
          "ticks": 69900,
          "time": 262.78206,
          "velocity": 0.6299212598425197
        },
        {
          "duration": 0.05263159999998379,
          "durationTicks": 14,
          "midi": 40,
          "name": "E2",
          "ticks": 69960,
          "time": 263.007624,
          "velocity": 0.7874015748031497
        },
        {
          "duration": 0.05263159999998379,
          "durationTicks": 14,
          "midi": 46,
          "name": "A#2",
          "ticks": 69960,
          "time": 263.007624,
          "velocity": 0.7874015748031497
        },
        {
          "duration": 0.05263159999998379,
          "durationTicks": 14,
          "midi": 46,
          "name": "A#2",
          "ticks": 70020,
          "time": 263.233188,
          "velocity": 0.6299212598425197
        },
        {
          "duration": 0.05263159999998379,
          "durationTicks": 14,
          "midi": 49,
          "name": "C#3",
          "ticks": 70080,
          "time": 263.458752,
          "velocity": 0.7874015748031497
        },
        {
          "duration": 0.05263159999998379,
          "durationTicks": 14,
          "midi": 36,
          "name": "C2",
          "ticks": 70080,
          "time": 263.458752,
          "velocity": 0.7874015748031497
        },
        {
          "duration": 0.05263159999998379,
          "durationTicks": 14,
          "midi": 46,
          "name": "A#2",
          "ticks": 70080,
          "time": 263.458752,
          "velocity": 0.7874015748031497
        },
        {
          "duration": 0.052631600000040635,
          "durationTicks": 14,
          "midi": 46,
          "name": "A#2",
          "ticks": 70140,
          "time": 263.68431599999997,
          "velocity": 0.6299212598425197
        },
        {
          "duration": 0.05263159999998379,
          "durationTicks": 14,
          "midi": 40,
          "name": "E2",
          "ticks": 70200,
          "time": 263.90988,
          "velocity": 0.7874015748031497
        },
        {
          "duration": 0.05263159999998379,
          "durationTicks": 14,
          "midi": 46,
          "name": "A#2",
          "ticks": 70200,
          "time": 263.90988,
          "velocity": 0.7874015748031497
        },
        {
          "duration": 0.05263159999998379,
          "durationTicks": 14,
          "midi": 46,
          "name": "A#2",
          "ticks": 70260,
          "time": 264.135444,
          "velocity": 0.6299212598425197
        },
        {
          "duration": 0.052631600000040635,
          "durationTicks": 14,
          "midi": 36,
          "name": "C2",
          "ticks": 70320,
          "time": 264.36100799999997,
          "velocity": 0.7874015748031497
        },
        {
          "duration": 0.052631600000040635,
          "durationTicks": 14,
          "midi": 46,
          "name": "A#2",
          "ticks": 70320,
          "time": 264.36100799999997,
          "velocity": 0.7874015748031497
        },
        {
          "duration": 0.05263159999998379,
          "durationTicks": 14,
          "midi": 57,
          "name": "A3",
          "ticks": 70380,
          "time": 264.586572,
          "velocity": 0.6299212598425197
        },
        {
          "duration": 0.05263159999998379,
          "durationTicks": 14,
          "midi": 46,
          "name": "A#2",
          "ticks": 70380,
          "time": 264.586572,
          "velocity": 0.6299212598425197
        },
        {
          "duration": 0.05263159999998379,
          "durationTicks": 14,
          "midi": 40,
          "name": "E2",
          "ticks": 70440,
          "time": 264.812136,
          "velocity": 0.7874015748031497
        },
        {
          "duration": 0.05263159999998379,
          "durationTicks": 14,
          "midi": 46,
          "name": "A#2",
          "ticks": 70440,
          "time": 264.812136,
          "velocity": 0.7874015748031497
        },
        {
          "duration": 0.052631600000040635,
          "durationTicks": 14,
          "midi": 46,
          "name": "A#2",
          "ticks": 70500,
          "time": 265.0377,
          "velocity": 0.6299212598425197
        },
        {
          "duration": 0.05263159999998379,
          "durationTicks": 14,
          "midi": 49,
          "name": "C#3",
          "ticks": 70560,
          "time": 265.263264,
          "velocity": 0.7874015748031497
        },
        {
          "duration": 0.05263159999998379,
          "durationTicks": 14,
          "midi": 36,
          "name": "C2",
          "ticks": 70560,
          "time": 265.263264,
          "velocity": 0.7874015748031497
        },
        {
          "duration": 0.05263159999998379,
          "durationTicks": 14,
          "midi": 46,
          "name": "A#2",
          "ticks": 70560,
          "time": 265.263264,
          "velocity": 0.7874015748031497
        },
        {
          "duration": 0.05263159999998379,
          "durationTicks": 14,
          "midi": 46,
          "name": "A#2",
          "ticks": 70620,
          "time": 265.488828,
          "velocity": 0.6299212598425197
        },
        {
          "duration": 0.052631600000040635,
          "durationTicks": 14,
          "midi": 40,
          "name": "E2",
          "ticks": 70680,
          "time": 265.714392,
          "velocity": 0.7874015748031497
        },
        {
          "duration": 0.052631600000040635,
          "durationTicks": 14,
          "midi": 46,
          "name": "A#2",
          "ticks": 70680,
          "time": 265.714392,
          "velocity": 0.7874015748031497
        },
        {
          "duration": 0.05263159999998379,
          "durationTicks": 14,
          "midi": 57,
          "name": "A3",
          "ticks": 70740,
          "time": 265.939956,
          "velocity": 0.6299212598425197
        },
        {
          "duration": 0.05263159999998379,
          "durationTicks": 14,
          "midi": 46,
          "name": "A#2",
          "ticks": 70740,
          "time": 265.939956,
          "velocity": 0.6299212598425197
        },
        {
          "duration": 0.05263159999998379,
          "durationTicks": 14,
          "midi": 36,
          "name": "C2",
          "ticks": 70800,
          "time": 266.16552,
          "velocity": 0.7874015748031497
        },
        {
          "duration": 0.05263159999998379,
          "durationTicks": 14,
          "midi": 46,
          "name": "A#2",
          "ticks": 70800,
          "time": 266.16552,
          "velocity": 0.7874015748031497
        },
        {
          "duration": 0.052631600000040635,
          "durationTicks": 14,
          "midi": 46,
          "name": "A#2",
          "ticks": 70860,
          "time": 266.391084,
          "velocity": 0.6299212598425197
        },
        {
          "duration": 0.05263159999998379,
          "durationTicks": 14,
          "midi": 40,
          "name": "E2",
          "ticks": 70920,
          "time": 266.616648,
          "velocity": 0.7874015748031497
        },
        {
          "duration": 0.05263159999998379,
          "durationTicks": 14,
          "midi": 46,
          "name": "A#2",
          "ticks": 70920,
          "time": 266.616648,
          "velocity": 0.7874015748031497
        },
        {
          "duration": 0.05263159999998379,
          "durationTicks": 14,
          "midi": 46,
          "name": "A#2",
          "ticks": 70980,
          "time": 266.842212,
          "velocity": 0.6299212598425197
        },
        {
          "duration": 0.052631600000040635,
          "durationTicks": 14,
          "midi": 49,
          "name": "C#3",
          "ticks": 71040,
          "time": 267.067776,
          "velocity": 0.7874015748031497
        },
        {
          "duration": 0.052631600000040635,
          "durationTicks": 14,
          "midi": 36,
          "name": "C2",
          "ticks": 71040,
          "time": 267.067776,
          "velocity": 0.7874015748031497
        },
        {
          "duration": 0.052631600000040635,
          "durationTicks": 14,
          "midi": 46,
          "name": "A#2",
          "ticks": 71040,
          "time": 267.067776,
          "velocity": 0.7874015748031497
        },
        {
          "duration": 0.05263159999998379,
          "durationTicks": 14,
          "midi": 46,
          "name": "A#2",
          "ticks": 71100,
          "time": 267.29334,
          "velocity": 0.6299212598425197
        },
        {
          "duration": 0.05263159999998379,
          "durationTicks": 14,
          "midi": 40,
          "name": "E2",
          "ticks": 71160,
          "time": 267.518904,
          "velocity": 0.7874015748031497
        },
        {
          "duration": 0.05263159999998379,
          "durationTicks": 14,
          "midi": 46,
          "name": "A#2",
          "ticks": 71160,
          "time": 267.518904,
          "velocity": 0.7874015748031497
        },
        {
          "duration": 0.052631600000040635,
          "durationTicks": 14,
          "midi": 46,
          "name": "A#2",
          "ticks": 71220,
          "time": 267.744468,
          "velocity": 0.6299212598425197
        },
        {
          "duration": 0.05263159999998379,
          "durationTicks": 14,
          "midi": 36,
          "name": "C2",
          "ticks": 71280,
          "time": 267.970032,
          "velocity": 0.7874015748031497
        },
        {
          "duration": 0.05263159999998379,
          "durationTicks": 14,
          "midi": 46,
          "name": "A#2",
          "ticks": 71280,
          "time": 267.970032,
          "velocity": 0.7874015748031497
        },
        {
          "duration": 0.05263159999998379,
          "durationTicks": 14,
          "midi": 46,
          "name": "A#2",
          "ticks": 71340,
          "time": 268.195596,
          "velocity": 0.6299212598425197
        },
        {
          "duration": 0.05263159999998379,
          "durationTicks": 14,
          "midi": 57,
          "name": "A3",
          "ticks": 71400,
          "time": 268.42116,
          "velocity": 0.6299212598425197
        },
        {
          "duration": 0.05263159999998379,
          "durationTicks": 14,
          "midi": 40,
          "name": "E2",
          "ticks": 71400,
          "time": 268.42116,
          "velocity": 0.7874015748031497
        },
        {
          "duration": 0.05263159999998379,
          "durationTicks": 14,
          "midi": 46,
          "name": "A#2",
          "ticks": 71400,
          "time": 268.42116,
          "velocity": 0.7874015748031497
        },
        {
          "duration": 0.05263159999998379,
          "durationTicks": 14,
          "midi": 46,
          "name": "A#2",
          "ticks": 71460,
          "time": 268.646724,
          "velocity": 0.6299212598425197
        },
        {
          "duration": 0.05263159999998379,
          "durationTicks": 14,
          "midi": 49,
          "name": "C#3",
          "ticks": 71520,
          "time": 268.872288,
          "velocity": 0.7874015748031497
        },
        {
          "duration": 0.05263159999998379,
          "durationTicks": 14,
          "midi": 36,
          "name": "C2",
          "ticks": 71520,
          "time": 268.872288,
          "velocity": 0.7874015748031497
        },
        {
          "duration": 0.05263159999998379,
          "durationTicks": 14,
          "midi": 46,
          "name": "A#2",
          "ticks": 71520,
          "time": 268.872288,
          "velocity": 0.7874015748031497
        },
        {
          "duration": 0.05263159999998379,
          "durationTicks": 14,
          "midi": 46,
          "name": "A#2",
          "ticks": 71580,
          "time": 269.097852,
          "velocity": 0.6299212598425197
        },
        {
          "duration": 0.05263159999998379,
          "durationTicks": 14,
          "midi": 40,
          "name": "E2",
          "ticks": 71640,
          "time": 269.323416,
          "velocity": 0.7874015748031497
        },
        {
          "duration": 0.05263159999998379,
          "durationTicks": 14,
          "midi": 46,
          "name": "A#2",
          "ticks": 71640,
          "time": 269.323416,
          "velocity": 0.7874015748031497
        },
        {
          "duration": 0.052631600000040635,
          "durationTicks": 14,
          "midi": 46,
          "name": "A#2",
          "ticks": 71700,
          "time": 269.54898,
          "velocity": 0.6299212598425197
        },
        {
          "duration": 0.05263159999998379,
          "durationTicks": 14,
          "midi": 36,
          "name": "C2",
          "ticks": 71760,
          "time": 269.774544,
          "velocity": 0.7874015748031497
        },
        {
          "duration": 0.05263159999998379,
          "durationTicks": 14,
          "midi": 46,
          "name": "A#2",
          "ticks": 71760,
          "time": 269.774544,
          "velocity": 0.7874015748031497
        },
        {
          "duration": 0.05263159999998379,
          "durationTicks": 14,
          "midi": 57,
          "name": "A3",
          "ticks": 71820,
          "time": 270.000108,
          "velocity": 0.6299212598425197
        },
        {
          "duration": 0.05263159999998379,
          "durationTicks": 14,
          "midi": 46,
          "name": "A#2",
          "ticks": 71820,
          "time": 270.000108,
          "velocity": 0.6299212598425197
        },
        {
          "duration": 0.052631600000040635,
          "durationTicks": 14,
          "midi": 40,
          "name": "E2",
          "ticks": 71880,
          "time": 270.225672,
          "velocity": 0.7874015748031497
        },
        {
          "duration": 0.052631600000040635,
          "durationTicks": 14,
          "midi": 46,
          "name": "A#2",
          "ticks": 71880,
          "time": 270.225672,
          "velocity": 0.7874015748031497
        },
        {
          "duration": 0.05263159999998379,
          "durationTicks": 14,
          "midi": 46,
          "name": "A#2",
          "ticks": 71940,
          "time": 270.451236,
          "velocity": 0.6299212598425197
        },
        {
          "duration": 0.05263159999998379,
          "durationTicks": 14,
          "midi": 49,
          "name": "C#3",
          "ticks": 72000,
          "time": 270.6768,
          "velocity": 0.7874015748031497
        },
        {
          "duration": 0.05263159999998379,
          "durationTicks": 14,
          "midi": 36,
          "name": "C2",
          "ticks": 72000,
          "time": 270.6768,
          "velocity": 0.7874015748031497
        },
        {
          "duration": 0.05263159999998379,
          "durationTicks": 14,
          "midi": 46,
          "name": "A#2",
          "ticks": 72000,
          "time": 270.6768,
          "velocity": 0.7874015748031497
        },
        {
          "duration": 0.052631600000040635,
          "durationTicks": 14,
          "midi": 46,
          "name": "A#2",
          "ticks": 72060,
          "time": 270.902364,
          "velocity": 0.6299212598425197
        },
        {
          "duration": 0.05263159999998379,
          "durationTicks": 14,
          "midi": 40,
          "name": "E2",
          "ticks": 72120,
          "time": 271.127928,
          "velocity": 0.7874015748031497
        },
        {
          "duration": 0.05263159999998379,
          "durationTicks": 14,
          "midi": 46,
          "name": "A#2",
          "ticks": 72120,
          "time": 271.127928,
          "velocity": 0.7874015748031497
        },
        {
          "duration": 0.05263159999998379,
          "durationTicks": 14,
          "midi": 57,
          "name": "A3",
          "ticks": 72150,
          "time": 271.24071,
          "velocity": 0.6299212598425197
        },
        {
          "duration": 0.05263159999998379,
          "durationTicks": 14,
          "midi": 46,
          "name": "A#2",
          "ticks": 72180,
          "time": 271.353492,
          "velocity": 0.6299212598425197
        },
        {
          "duration": 0.05263159999998379,
          "durationTicks": 14,
          "midi": 36,
          "name": "C2",
          "ticks": 72240,
          "time": 271.579056,
          "velocity": 0.7874015748031497
        },
        {
          "duration": 0.05263159999998379,
          "durationTicks": 14,
          "midi": 46,
          "name": "A#2",
          "ticks": 72240,
          "time": 271.579056,
          "velocity": 0.7874015748031497
        },
        {
          "duration": 0.05263159999998379,
          "durationTicks": 14,
          "midi": 46,
          "name": "A#2",
          "ticks": 72300,
          "time": 271.80462,
          "velocity": 0.6299212598425197
        },
        {
          "duration": 0.05263159999998379,
          "durationTicks": 14,
          "midi": 40,
          "name": "E2",
          "ticks": 72360,
          "time": 272.030184,
          "velocity": 0.7874015748031497
        },
        {
          "duration": 0.05263159999998379,
          "durationTicks": 14,
          "midi": 46,
          "name": "A#2",
          "ticks": 72360,
          "time": 272.030184,
          "velocity": 0.7874015748031497
        },
        {
          "duration": 0.05263159999998379,
          "durationTicks": 14,
          "midi": 46,
          "name": "A#2",
          "ticks": 72420,
          "time": 272.255748,
          "velocity": 0.6299212598425197
        },
        {
          "duration": 0.05263159999998379,
          "durationTicks": 14,
          "midi": 49,
          "name": "C#3",
          "ticks": 72480,
          "time": 272.481312,
          "velocity": 0.7874015748031497
        },
        {
          "duration": 0.05263159999998379,
          "durationTicks": 14,
          "midi": 36,
          "name": "C2",
          "ticks": 72480,
          "time": 272.481312,
          "velocity": 0.7874015748031497
        },
        {
          "duration": 0.05263159999998379,
          "durationTicks": 14,
          "midi": 46,
          "name": "A#2",
          "ticks": 72480,
          "time": 272.481312,
          "velocity": 0.7874015748031497
        },
        {
          "duration": 0.052631600000040635,
          "durationTicks": 14,
          "midi": 46,
          "name": "A#2",
          "ticks": 72540,
          "time": 272.70687599999997,
          "velocity": 0.6299212598425197
        },
        {
          "duration": 0.05263159999998379,
          "durationTicks": 14,
          "midi": 40,
          "name": "E2",
          "ticks": 72600,
          "time": 272.93244,
          "velocity": 0.7874015748031497
        },
        {
          "duration": 0.05263159999998379,
          "durationTicks": 14,
          "midi": 46,
          "name": "A#2",
          "ticks": 72600,
          "time": 272.93244,
          "velocity": 0.7874015748031497
        },
        {
          "duration": 0.05263159999998379,
          "durationTicks": 14,
          "midi": 46,
          "name": "A#2",
          "ticks": 72660,
          "time": 273.158004,
          "velocity": 0.6299212598425197
        },
        {
          "duration": 0.052631600000040635,
          "durationTicks": 14,
          "midi": 36,
          "name": "C2",
          "ticks": 72720,
          "time": 273.38356799999997,
          "velocity": 0.7874015748031497
        },
        {
          "duration": 0.052631600000040635,
          "durationTicks": 14,
          "midi": 46,
          "name": "A#2",
          "ticks": 72720,
          "time": 273.38356799999997,
          "velocity": 0.7874015748031497
        },
        {
          "duration": 0.05263159999998379,
          "durationTicks": 14,
          "midi": 57,
          "name": "A3",
          "ticks": 72780,
          "time": 273.609132,
          "velocity": 0.6299212598425197
        },
        {
          "duration": 0.05263159999998379,
          "durationTicks": 14,
          "midi": 46,
          "name": "A#2",
          "ticks": 72780,
          "time": 273.609132,
          "velocity": 0.6299212598425197
        },
        {
          "duration": 0.05263159999998379,
          "durationTicks": 14,
          "midi": 40,
          "name": "E2",
          "ticks": 72840,
          "time": 273.834696,
          "velocity": 0.7874015748031497
        },
        {
          "duration": 0.05263159999998379,
          "durationTicks": 14,
          "midi": 46,
          "name": "A#2",
          "ticks": 72840,
          "time": 273.834696,
          "velocity": 0.7874015748031497
        },
        {
          "duration": 0.052631600000040635,
          "durationTicks": 14,
          "midi": 46,
          "name": "A#2",
          "ticks": 72900,
          "time": 274.06025999999997,
          "velocity": 0.6299212598425197
        },
        {
          "duration": 0.05263159999998379,
          "durationTicks": 14,
          "midi": 49,
          "name": "C#3",
          "ticks": 72960,
          "time": 274.285824,
          "velocity": 0.7874015748031497
        },
        {
          "duration": 0.05263159999998379,
          "durationTicks": 14,
          "midi": 36,
          "name": "C2",
          "ticks": 72960,
          "time": 274.285824,
          "velocity": 0.7874015748031497
        },
        {
          "duration": 0.05263159999998379,
          "durationTicks": 14,
          "midi": 46,
          "name": "A#2",
          "ticks": 72960,
          "time": 274.285824,
          "velocity": 0.7874015748031497
        },
        {
          "duration": 0.05263159999998379,
          "durationTicks": 14,
          "midi": 46,
          "name": "A#2",
          "ticks": 73020,
          "time": 274.511388,
          "velocity": 0.6299212598425197
        },
        {
          "duration": 0.052631600000040635,
          "durationTicks": 14,
          "midi": 40,
          "name": "E2",
          "ticks": 73080,
          "time": 274.736952,
          "velocity": 0.7874015748031497
        },
        {
          "duration": 0.052631600000040635,
          "durationTicks": 14,
          "midi": 46,
          "name": "A#2",
          "ticks": 73080,
          "time": 274.736952,
          "velocity": 0.7874015748031497
        },
        {
          "duration": 0.05263159999998379,
          "durationTicks": 14,
          "midi": 46,
          "name": "A#2",
          "ticks": 73140,
          "time": 274.962516,
          "velocity": 0.6299212598425197
        },
        {
          "duration": 0.05263159999998379,
          "durationTicks": 14,
          "midi": 57,
          "name": "A3",
          "ticks": 73200,
          "time": 275.18808,
          "velocity": 0.6299212598425197
        },
        {
          "duration": 0.05263159999998379,
          "durationTicks": 14,
          "midi": 36,
          "name": "C2",
          "ticks": 73200,
          "time": 275.18808,
          "velocity": 0.7874015748031497
        },
        {
          "duration": 0.05263159999998379,
          "durationTicks": 14,
          "midi": 46,
          "name": "A#2",
          "ticks": 73200,
          "time": 275.18808,
          "velocity": 0.7874015748031497
        },
        {
          "duration": 0.052631600000040635,
          "durationTicks": 14,
          "midi": 46,
          "name": "A#2",
          "ticks": 73260,
          "time": 275.413644,
          "velocity": 0.6299212598425197
        },
        {
          "duration": 0.05263159999998379,
          "durationTicks": 14,
          "midi": 40,
          "name": "E2",
          "ticks": 73320,
          "time": 275.639208,
          "velocity": 0.7874015748031497
        },
        {
          "duration": 0.05263159999998379,
          "durationTicks": 14,
          "midi": 46,
          "name": "A#2",
          "ticks": 73320,
          "time": 275.639208,
          "velocity": 0.7874015748031497
        },
        {
          "duration": 0.05263159999998379,
          "durationTicks": 14,
          "midi": 46,
          "name": "A#2",
          "ticks": 73380,
          "time": 275.864772,
          "velocity": 0.6299212598425197
        },
        {
          "duration": 0.052631600000040635,
          "durationTicks": 14,
          "midi": 49,
          "name": "C#3",
          "ticks": 73440,
          "time": 276.090336,
          "velocity": 0.7874015748031497
        },
        {
          "duration": 0.052631600000040635,
          "durationTicks": 14,
          "midi": 36,
          "name": "C2",
          "ticks": 73440,
          "time": 276.090336,
          "velocity": 0.7874015748031497
        },
        {
          "duration": 0.05263159999998379,
          "durationTicks": 14,
          "midi": 57,
          "name": "A3",
          "ticks": 73560,
          "time": 276.541464,
          "velocity": 0.6299212598425197
        },
        {
          "duration": 0.05263159999998379,
          "durationTicks": 14,
          "midi": 46,
          "name": "A#2",
          "ticks": 73560,
          "time": 276.541464,
          "velocity": 0.7874015748031497
        },
        {
          "duration": 0.05263159999998379,
          "durationTicks": 14,
          "midi": 40,
          "name": "E2",
          "ticks": 73560,
          "time": 276.541464,
          "velocity": 0.7874015748031497
        },
        {
          "duration": 0.052631600000040635,
          "durationTicks": 14,
          "midi": 46,
          "name": "A#2",
          "ticks": 73620,
          "time": 276.767028,
          "velocity": 0.6299212598425197
        },
        {
          "duration": 0.05263159999998379,
          "durationTicks": 14,
          "midi": 36,
          "name": "C2",
          "ticks": 73680,
          "time": 276.992592,
          "velocity": 0.7874015748031497
        },
        {
          "duration": 0.05263159999998379,
          "durationTicks": 14,
          "midi": 46,
          "name": "A#2",
          "ticks": 73680,
          "time": 276.992592,
          "velocity": 0.7874015748031497
        },
        {
          "duration": 0.05263159999998379,
          "durationTicks": 14,
          "midi": 46,
          "name": "A#2",
          "ticks": 73740,
          "time": 277.218156,
          "velocity": 0.6299212598425197
        },
        {
          "duration": 0.05263159999998379,
          "durationTicks": 14,
          "midi": 49,
          "name": "C#3",
          "ticks": 73800,
          "time": 277.44372,
          "velocity": 0.7874015748031497
        },
        {
          "duration": 0.05263159999998379,
          "durationTicks": 14,
          "midi": 40,
          "name": "E2",
          "ticks": 73800,
          "time": 277.44372,
          "velocity": 0.7874015748031497
        },
        {
          "duration": 0.05263159999998379,
          "durationTicks": 14,
          "midi": 46,
          "name": "A#2",
          "ticks": 73800,
          "time": 277.44372,
          "velocity": 0.7874015748031497
        },
        {
          "duration": 0.05263159999998379,
          "durationTicks": 14,
          "midi": 46,
          "name": "A#2",
          "ticks": 73860,
          "time": 277.669284,
          "velocity": 0.6299212598425197
        },
        {
          "duration": 0.05263159999998379,
          "durationTicks": 14,
          "midi": 36,
          "name": "C2",
          "ticks": 73920,
          "time": 277.894848,
          "velocity": 0.7874015748031497
        },
        {
          "duration": 0.05263159999998379,
          "durationTicks": 14,
          "midi": 46,
          "name": "A#2",
          "ticks": 73920,
          "time": 277.894848,
          "velocity": 0.7874015748031497
        },
        {
          "duration": 0.052631600000040635,
          "durationTicks": 14,
          "midi": 46,
          "name": "A#2",
          "ticks": 73980,
          "time": 278.120412,
          "velocity": 0.6299212598425197
        },
        {
          "duration": 0.05263159999998379,
          "durationTicks": 14,
          "midi": 57,
          "name": "A3",
          "ticks": 74040,
          "time": 278.345976,
          "velocity": 0.6299212598425197
        },
        {
          "duration": 0.05263159999998379,
          "durationTicks": 14,
          "midi": 40,
          "name": "E2",
          "ticks": 74040,
          "time": 278.345976,
          "velocity": 0.7874015748031497
        },
        {
          "duration": 0.05263159999998379,
          "durationTicks": 14,
          "midi": 46,
          "name": "A#2",
          "ticks": 74040,
          "time": 278.345976,
          "velocity": 0.7874015748031497
        },
        {
          "duration": 0.05263159999998379,
          "durationTicks": 14,
          "midi": 46,
          "name": "A#2",
          "ticks": 74100,
          "time": 278.57154,
          "velocity": 0.6299212598425197
        },
        {
          "duration": 0.052631600000040635,
          "durationTicks": 14,
          "midi": 36,
          "name": "C2",
          "ticks": 74160,
          "time": 278.797104,
          "velocity": 0.7874015748031497
        },
        {
          "duration": 0.052631600000040635,
          "durationTicks": 14,
          "midi": 46,
          "name": "A#2",
          "ticks": 74160,
          "time": 278.797104,
          "velocity": 0.7874015748031497
        },
        {
          "duration": 0.05263159999998379,
          "durationTicks": 14,
          "midi": 46,
          "name": "A#2",
          "ticks": 74220,
          "time": 279.022668,
          "velocity": 0.6299212598425197
        },
        {
          "duration": 0.052631600000040635,
          "durationTicks": 14,
          "midi": 49,
          "name": "C#3",
          "ticks": 74280,
          "time": 279.248232,
          "velocity": 0.7874015748031497
        },
        {
          "duration": 0.052631600000040635,
          "durationTicks": 14,
          "midi": 40,
          "name": "E2",
          "ticks": 74280,
          "time": 279.248232,
          "velocity": 0.7874015748031497
        },
        {
          "duration": 0.052631600000040635,
          "durationTicks": 14,
          "midi": 46,
          "name": "A#2",
          "ticks": 74280,
          "time": 279.248232,
          "velocity": 0.7874015748031497
        },
        {
          "duration": 0.05263159999998379,
          "durationTicks": 14,
          "midi": 46,
          "name": "A#2",
          "ticks": 74340,
          "time": 279.473796,
          "velocity": 0.6299212598425197
        },
        {
          "duration": 0.05263159999998379,
          "durationTicks": 14,
          "midi": 36,
          "name": "C2",
          "ticks": 74400,
          "time": 279.69936,
          "velocity": 0.7874015748031497
        },
        {
          "duration": 0.05263159999998379,
          "durationTicks": 14,
          "midi": 46,
          "name": "A#2",
          "ticks": 74400,
          "time": 279.69936,
          "velocity": 0.7874015748031497
        },
        {
          "duration": 0.052631600000040635,
          "durationTicks": 14,
          "midi": 46,
          "name": "A#2",
          "ticks": 74460,
          "time": 279.924924,
          "velocity": 0.6299212598425197
        },
        {
          "duration": 0.05263159999998379,
          "durationTicks": 14,
          "midi": 57,
          "name": "A3",
          "ticks": 74520,
          "time": 280.150488,
          "velocity": 0.6299212598425197
        },
        {
          "duration": 0.05263159999998379,
          "durationTicks": 14,
          "midi": 40,
          "name": "E2",
          "ticks": 74520,
          "time": 280.150488,
          "velocity": 0.7874015748031497
        },
        {
          "duration": 0.05263159999998379,
          "durationTicks": 14,
          "midi": 46,
          "name": "A#2",
          "ticks": 74520,
          "time": 280.150488,
          "velocity": 0.7874015748031497
        },
        {
          "duration": 0.05263159999998379,
          "durationTicks": 14,
          "midi": 46,
          "name": "A#2",
          "ticks": 74580,
          "time": 280.376052,
          "velocity": 0.6299212598425197
        },
        {
          "duration": 0.052631600000040635,
          "durationTicks": 14,
          "midi": 36,
          "name": "C2",
          "ticks": 74640,
          "time": 280.601616,
          "velocity": 0.7874015748031497
        },
        {
          "duration": 0.052631600000040635,
          "durationTicks": 14,
          "midi": 46,
          "name": "A#2",
          "ticks": 74640,
          "time": 280.601616,
          "velocity": 0.7874015748031497
        },
        {
          "duration": 0.05263159999998379,
          "durationTicks": 14,
          "midi": 46,
          "name": "A#2",
          "ticks": 74700,
          "time": 280.82718,
          "velocity": 0.6299212598425197
        },
        {
          "duration": 0.05263159999998379,
          "durationTicks": 14,
          "midi": 49,
          "name": "C#3",
          "ticks": 74760,
          "time": 281.052744,
          "velocity": 0.7874015748031497
        },
        {
          "duration": 0.05263159999998379,
          "durationTicks": 14,
          "midi": 40,
          "name": "E2",
          "ticks": 74760,
          "time": 281.052744,
          "velocity": 0.7874015748031497
        },
        {
          "duration": 0.05263159999998379,
          "durationTicks": 14,
          "midi": 46,
          "name": "A#2",
          "ticks": 74760,
          "time": 281.052744,
          "velocity": 0.7874015748031497
        },
        {
          "duration": 0.052631600000040635,
          "durationTicks": 14,
          "midi": 46,
          "name": "A#2",
          "ticks": 74820,
          "time": 281.278308,
          "velocity": 0.6299212598425197
        },
        {
          "duration": 0.05263159999998379,
          "durationTicks": 14,
          "midi": 36,
          "name": "C2",
          "ticks": 74880,
          "time": 281.503872,
          "velocity": 0.7874015748031497
        },
        {
          "duration": 0.05263159999998379,
          "durationTicks": 14,
          "midi": 46,
          "name": "A#2",
          "ticks": 74880,
          "time": 281.503872,
          "velocity": 0.7874015748031497
        },
        {
          "duration": 0.052631600000040635,
          "durationTicks": 14,
          "midi": 46,
          "name": "A#2",
          "ticks": 74940,
          "time": 281.72943599999996,
          "velocity": 0.6299212598425197
        },
        {
          "duration": 0.05263159999998379,
          "durationTicks": 14,
          "midi": 57,
          "name": "A3",
          "ticks": 75000,
          "time": 281.955,
          "velocity": 0.7874015748031497
        },
        {
          "duration": 0.05263159999998379,
          "durationTicks": 14,
          "midi": 40,
          "name": "E2",
          "ticks": 75000,
          "time": 281.955,
          "velocity": 0.7874015748031497
        },
        {
          "duration": 0.05263159999998379,
          "durationTicks": 14,
          "midi": 46,
          "name": "A#2",
          "ticks": 75000,
          "time": 281.955,
          "velocity": 0.7874015748031497
        },
        {
          "duration": 0.05263159999998379,
          "durationTicks": 14,
          "midi": 46,
          "name": "A#2",
          "ticks": 75060,
          "time": 282.180564,
          "velocity": 0.6299212598425197
        },
        {
          "duration": 0.052631600000040635,
          "durationTicks": 14,
          "midi": 36,
          "name": "C2",
          "ticks": 75120,
          "time": 282.40612799999997,
          "velocity": 0.7874015748031497
        },
        {
          "duration": 0.052631600000040635,
          "durationTicks": 14,
          "midi": 46,
          "name": "A#2",
          "ticks": 75120,
          "time": 282.40612799999997,
          "velocity": 0.7874015748031497
        },
        {
          "duration": 0.05263159999998379,
          "durationTicks": 14,
          "midi": 46,
          "name": "A#2",
          "ticks": 75180,
          "time": 282.631692,
          "velocity": 0.6299212598425197
        },
        {
          "duration": 0.05263159999998379,
          "durationTicks": 14,
          "midi": 49,
          "name": "C#3",
          "ticks": 75240,
          "time": 282.857256,
          "velocity": 0.7874015748031497
        },
        {
          "duration": 0.05263159999998379,
          "durationTicks": 14,
          "midi": 40,
          "name": "E2",
          "ticks": 75240,
          "time": 282.857256,
          "velocity": 0.7874015748031497
        },
        {
          "duration": 0.05263159999998379,
          "durationTicks": 14,
          "midi": 46,
          "name": "A#2",
          "ticks": 75240,
          "time": 282.857256,
          "velocity": 0.7874015748031497
        },
        {
          "duration": 0.052631600000040635,
          "durationTicks": 14,
          "midi": 46,
          "name": "A#2",
          "ticks": 75300,
          "time": 283.08281999999997,
          "velocity": 0.6299212598425197
        },
        {
          "duration": 0.052631600000040635,
          "durationTicks": 14,
          "midi": 36,
          "name": "C2",
          "ticks": 75360,
          "time": 283.308384,
          "velocity": 0.7874015748031497
        },
        {
          "duration": 0.052631600000040635,
          "durationTicks": 14,
          "midi": 46,
          "name": "A#2",
          "ticks": 75360,
          "time": 283.308384,
          "velocity": 0.7874015748031497
        },
        {
          "duration": 0.05263159999998379,
          "durationTicks": 14,
          "midi": 46,
          "name": "A#2",
          "ticks": 75420,
          "time": 283.533948,
          "velocity": 0.6299212598425197
        },
        {
          "duration": 0.05263159999998379,
          "durationTicks": 14,
          "midi": 57,
          "name": "A3",
          "ticks": 75480,
          "time": 283.75951200000003,
          "velocity": 0.7874015748031497
        },
        {
          "duration": 0.05263159999998379,
          "durationTicks": 14,
          "midi": 40,
          "name": "E2",
          "ticks": 75480,
          "time": 283.75951200000003,
          "velocity": 0.7874015748031497
        },
        {
          "duration": 0.05263159999998379,
          "durationTicks": 14,
          "midi": 46,
          "name": "A#2",
          "ticks": 75480,
          "time": 283.75951200000003,
          "velocity": 0.7874015748031497
        },
        {
          "duration": 0.052631600000040635,
          "durationTicks": 14,
          "midi": 46,
          "name": "A#2",
          "ticks": 75540,
          "time": 283.985076,
          "velocity": 0.6299212598425197
        },
        {
          "duration": 0.05263159999998379,
          "durationTicks": 14,
          "midi": 36,
          "name": "C2",
          "ticks": 75600,
          "time": 284.21064,
          "velocity": 0.7874015748031497
        },
        {
          "duration": 0.05263159999998379,
          "durationTicks": 14,
          "midi": 46,
          "name": "A#2",
          "ticks": 75600,
          "time": 284.21064,
          "velocity": 0.7874015748031497
        },
        {
          "duration": 0.05263159999998379,
          "durationTicks": 14,
          "midi": 46,
          "name": "A#2",
          "ticks": 75660,
          "time": 284.43620400000003,
          "velocity": 0.6299212598425197
        },
        {
          "duration": 0.052631600000040635,
          "durationTicks": 14,
          "midi": 49,
          "name": "C#3",
          "ticks": 75720,
          "time": 284.661768,
          "velocity": 0.7874015748031497
        },
        {
          "duration": 0.052631600000040635,
          "durationTicks": 14,
          "midi": 40,
          "name": "E2",
          "ticks": 75720,
          "time": 284.661768,
          "velocity": 0.7874015748031497
        },
        {
          "duration": 0.052631600000040635,
          "durationTicks": 14,
          "midi": 46,
          "name": "A#2",
          "ticks": 75720,
          "time": 284.661768,
          "velocity": 0.7874015748031497
        },
        {
          "duration": 0.05263159999998379,
          "durationTicks": 14,
          "midi": 46,
          "name": "A#2",
          "ticks": 75780,
          "time": 284.887332,
          "velocity": 0.6299212598425197
        },
        {
          "duration": 0.05263159999998379,
          "durationTicks": 14,
          "midi": 36,
          "name": "C2",
          "ticks": 75840,
          "time": 285.11289600000003,
          "velocity": 0.7874015748031497
        },
        {
          "duration": 0.05263159999998379,
          "durationTicks": 14,
          "midi": 46,
          "name": "A#2",
          "ticks": 75840,
          "time": 285.11289600000003,
          "velocity": 0.7874015748031497
        },
        {
          "duration": 0.05263159999998379,
          "durationTicks": 14,
          "midi": 46,
          "name": "A#2",
          "ticks": 75900,
          "time": 285.33846,
          "velocity": 0.6299212598425197
        },
        {
          "duration": 0.05263159999998379,
          "durationTicks": 14,
          "midi": 57,
          "name": "A3",
          "ticks": 75960,
          "time": 285.564024,
          "velocity": 0.7874015748031497
        },
        {
          "duration": 0.05263159999998379,
          "durationTicks": 14,
          "midi": 40,
          "name": "E2",
          "ticks": 75960,
          "time": 285.564024,
          "velocity": 0.7874015748031497
        },
        {
          "duration": 0.05263159999998379,
          "durationTicks": 14,
          "midi": 46,
          "name": "A#2",
          "ticks": 75960,
          "time": 285.564024,
          "velocity": 0.7874015748031497
        },
        {
          "duration": 0.052631600000040635,
          "durationTicks": 14,
          "midi": 46,
          "name": "A#2",
          "ticks": 76020,
          "time": 285.789588,
          "velocity": 0.6299212598425197
        },
        {
          "duration": 0.05263159999998379,
          "durationTicks": 14,
          "midi": 36,
          "name": "C2",
          "ticks": 76080,
          "time": 286.015152,
          "velocity": 0.7874015748031497
        },
        {
          "duration": 0.05263159999998379,
          "durationTicks": 14,
          "midi": 46,
          "name": "A#2",
          "ticks": 76080,
          "time": 286.015152,
          "velocity": 0.7874015748031497
        },
        {
          "duration": 0.05263159999998379,
          "durationTicks": 14,
          "midi": 46,
          "name": "A#2",
          "ticks": 76140,
          "time": 286.240716,
          "velocity": 0.6299212598425197
        },
        {
          "duration": 0.052631600000040635,
          "durationTicks": 14,
          "midi": 49,
          "name": "C#3",
          "ticks": 76200,
          "time": 286.46628,
          "velocity": 0.7874015748031497
        },
        {
          "duration": 0.052631600000040635,
          "durationTicks": 14,
          "midi": 40,
          "name": "E2",
          "ticks": 76200,
          "time": 286.46628,
          "velocity": 0.7874015748031497
        },
        {
          "duration": 0.052631600000040635,
          "durationTicks": 14,
          "midi": 46,
          "name": "A#2",
          "ticks": 76200,
          "time": 286.46628,
          "velocity": 0.7874015748031497
        },
        {
          "duration": 0.05263159999998379,
          "durationTicks": 14,
          "midi": 46,
          "name": "A#2",
          "ticks": 76260,
          "time": 286.691844,
          "velocity": 0.6299212598425197
        },
        {
          "duration": 0.05263159999998379,
          "durationTicks": 14,
          "midi": 36,
          "name": "C2",
          "ticks": 76320,
          "time": 286.917408,
          "velocity": 0.7874015748031497
        },
        {
          "duration": 0.05263159999998379,
          "durationTicks": 14,
          "midi": 46,
          "name": "A#2",
          "ticks": 76320,
          "time": 286.917408,
          "velocity": 0.7874015748031497
        },
        {
          "duration": 0.052631600000040635,
          "durationTicks": 14,
          "midi": 46,
          "name": "A#2",
          "ticks": 76380,
          "time": 287.142972,
          "velocity": 0.6299212598425197
        },
        {
          "duration": 0.05263159999998379,
          "durationTicks": 14,
          "midi": 57,
          "name": "A3",
          "ticks": 76440,
          "time": 287.368536,
          "velocity": 0.7874015748031497
        },
        {
          "duration": 0.05263159999998379,
          "durationTicks": 14,
          "midi": 40,
          "name": "E2",
          "ticks": 76440,
          "time": 287.368536,
          "velocity": 0.7874015748031497
        },
        {
          "duration": 0.05263159999998379,
          "durationTicks": 14,
          "midi": 46,
          "name": "A#2",
          "ticks": 76440,
          "time": 287.368536,
          "velocity": 0.7874015748031497
        },
        {
          "duration": 0.05263159999998379,
          "durationTicks": 14,
          "midi": 46,
          "name": "A#2",
          "ticks": 76500,
          "time": 287.5941,
          "velocity": 0.6299212598425197
        },
        {
          "duration": 0.052631600000040635,
          "durationTicks": 14,
          "midi": 36,
          "name": "C2",
          "ticks": 76560,
          "time": 287.819664,
          "velocity": 0.7874015748031497
        },
        {
          "duration": 0.052631600000040635,
          "durationTicks": 14,
          "midi": 46,
          "name": "A#2",
          "ticks": 76560,
          "time": 287.819664,
          "velocity": 0.7874015748031497
        },
        {
          "duration": 0.05263159999998379,
          "durationTicks": 14,
          "midi": 46,
          "name": "A#2",
          "ticks": 76620,
          "time": 288.045228,
          "velocity": 0.6299212598425197
        },
        {
          "duration": 0.05263159999998379,
          "durationTicks": 14,
          "midi": 49,
          "name": "C#3",
          "ticks": 76680,
          "time": 288.27079200000003,
          "velocity": 0.7874015748031497
        },
        {
          "duration": 0.05263159999998379,
          "durationTicks": 14,
          "midi": 40,
          "name": "E2",
          "ticks": 76680,
          "time": 288.27079200000003,
          "velocity": 0.7874015748031497
        },
        {
          "duration": 0.05263159999998379,
          "durationTicks": 14,
          "midi": 46,
          "name": "A#2",
          "ticks": 76680,
          "time": 288.27079200000003,
          "velocity": 0.7874015748031497
        },
        {
          "duration": 0.052631600000040635,
          "durationTicks": 14,
          "midi": 46,
          "name": "A#2",
          "ticks": 76740,
          "time": 288.496356,
          "velocity": 0.6299212598425197
        },
        {
          "duration": 0.05263159999998379,
          "durationTicks": 14,
          "midi": 36,
          "name": "C2",
          "ticks": 76800,
          "time": 288.72192,
          "velocity": 0.7874015748031497
        },
        {
          "duration": 0.05263159999998379,
          "durationTicks": 14,
          "midi": 46,
          "name": "A#2",
          "ticks": 76800,
          "time": 288.72192,
          "velocity": 0.7874015748031497
        },
        {
          "duration": 0.05263159999998379,
          "durationTicks": 14,
          "midi": 46,
          "name": "A#2",
          "ticks": 76860,
          "time": 288.94748400000003,
          "velocity": 0.6299212598425197
        },
        {
          "duration": 0.052631600000040635,
          "durationTicks": 14,
          "midi": 57,
          "name": "A3",
          "ticks": 76920,
          "time": 289.173048,
          "velocity": 0.7874015748031497
        },
        {
          "duration": 0.052631600000040635,
          "durationTicks": 14,
          "midi": 40,
          "name": "E2",
          "ticks": 76920,
          "time": 289.173048,
          "velocity": 0.7874015748031497
        },
        {
          "duration": 0.052631600000040635,
          "durationTicks": 14,
          "midi": 46,
          "name": "A#2",
          "ticks": 76920,
          "time": 289.173048,
          "velocity": 0.7874015748031497
        },
        {
          "duration": 0.05263159999998379,
          "durationTicks": 14,
          "midi": 46,
          "name": "A#2",
          "ticks": 76980,
          "time": 289.398612,
          "velocity": 0.6299212598425197
        },
        {
          "duration": 0.05263159999998379,
          "durationTicks": 14,
          "midi": 36,
          "name": "C2",
          "ticks": 77040,
          "time": 289.62417600000003,
          "velocity": 0.7874015748031497
        },
        {
          "duration": 0.05263159999998379,
          "durationTicks": 14,
          "midi": 46,
          "name": "A#2",
          "ticks": 77040,
          "time": 289.62417600000003,
          "velocity": 0.7874015748031497
        },
        {
          "duration": 0.05263159999998379,
          "durationTicks": 14,
          "midi": 46,
          "name": "A#2",
          "ticks": 77100,
          "time": 289.84974,
          "velocity": 0.6299212598425197
        },
        {
          "duration": 0.05263159999998379,
          "durationTicks": 14,
          "midi": 49,
          "name": "C#3",
          "ticks": 77160,
          "time": 290.075304,
          "velocity": 0.7874015748031497
        },
        {
          "duration": 0.05263159999998379,
          "durationTicks": 14,
          "midi": 40,
          "name": "E2",
          "ticks": 77160,
          "time": 290.075304,
          "velocity": 0.7874015748031497
        },
        {
          "duration": 0.05263159999998379,
          "durationTicks": 14,
          "midi": 46,
          "name": "A#2",
          "ticks": 77160,
          "time": 290.075304,
          "velocity": 0.7874015748031497
        },
        {
          "duration": 0.052631600000040635,
          "durationTicks": 14,
          "midi": 46,
          "name": "A#2",
          "ticks": 77220,
          "time": 290.300868,
          "velocity": 0.6299212598425197
        },
        {
          "duration": 0.056910583333319664,
          "durationTicks": 14,
          "midi": 36,
          "name": "C2",
          "ticks": 77280,
          "time": 290.526432,
          "velocity": 0.7874015748031497
        },
        {
          "duration": 0.056910583333319664,
          "durationTicks": 14,
          "midi": 57,
          "name": "A3",
          "ticks": 77280,
          "time": 290.526432,
          "velocity": 0.7874015748031497
        },
        {
          "duration": 0.056910583333319664,
          "durationTicks": 14,
          "midi": 46,
          "name": "A#2",
          "ticks": 77280,
          "time": 290.526432,
          "velocity": 0.7874015748031497
        },
        {
          "duration": 0.056910583333319664,
          "durationTicks": 14,
          "midi": 40,
          "name": "E2",
          "ticks": 77280,
          "time": 290.526432,
          "velocity": 0.7874015748031497
        },
        {
          "duration": 0.05691058333337651,
          "durationTicks": 14,
          "midi": 44,
          "name": "G#2",
          "ticks": 77400,
          "time": 291.014237,
          "velocity": 0.7874015748031497
        },
        {
          "duration": 0.056910583333319664,
          "durationTicks": 14,
          "midi": 44,
          "name": "G#2",
          "ticks": 77640,
          "time": 291.989847,
          "velocity": 0.7874015748031497
        },
        {
          "duration": 0.056910583333319664,
          "durationTicks": 14,
          "midi": 44,
          "name": "G#2",
          "ticks": 77880,
          "time": 292.965457,
          "velocity": 0.7874015748031497
        },
        {
          "duration": 0.05691058333337651,
          "durationTicks": 14,
          "midi": 44,
          "name": "G#2",
          "ticks": 78120,
          "time": 293.941067,
          "velocity": 0.7874015748031497
        },
        {
          "duration": 0.056910583333319664,
          "durationTicks": 14,
          "midi": 57,
          "name": "A3",
          "ticks": 78240,
          "time": 294.428872,
          "velocity": 0.7874015748031497
        },
        {
          "duration": 0.056910583333319664,
          "durationTicks": 14,
          "midi": 46,
          "name": "A#2",
          "ticks": 78240,
          "time": 294.428872,
          "velocity": 0.7874015748031497
        },
        {
          "duration": 0.056910583333319664,
          "durationTicks": 14,
          "midi": 40,
          "name": "E2",
          "ticks": 78240,
          "time": 294.428872,
          "velocity": 0.7874015748031497
        },
        {
          "duration": 0.05687926666672638,
          "durationTicks": 14,
          "midi": 46,
          "name": "A#2",
          "ticks": 78720,
          "time": 296.380092,
          "velocity": 0.7874015748031497
        },
        {
          "duration": 0.06694275000000971,
          "durationTicks": 14,
          "midi": 46,
          "name": "A#2",
          "ticks": 78840,
          "time": 296.9027929166667,
          "velocity": 0.7874015748031497
        },
        {
          "duration": 0.081808133333368,
          "durationTicks": 14,
          "midi": 46,
          "name": "A#2",
          "ticks": 78960,
          "time": 297.52846283333344,
          "velocity": 0.7874015748031497
        },
        {
          "duration": 0.10516119999999773,
          "durationTicks": 14,
          "midi": 46,
          "name": "A#2",
          "ticks": 79080,
          "time": 298.30777275000014,
          "velocity": 0.7874015748031497
        },
        {
          "duration": 0.1203610000000026,
          "durationTicks": 14,
          "midi": 49,
          "name": "C#3",
          "ticks": 79200,
          "time": 299.3422736666668,
          "velocity": 0.7874015748031497
        },
        {
          "duration": 0.1203610000000026,
          "durationTicks": 14,
          "midi": 36,
          "name": "C2",
          "ticks": 79200,
          "time": 299.3422736666668,
          "velocity": 0.7874015748031497
        }
      ],
      "endOfTrackTicks": 79214
    },
    {
      "channel": 0,
      "controlChanges": {
        "7": [
          {
            "number": 7,
            "ticks": 0,
            "time": 0,
            "value": 0.6299212598425197
          }
        ],
        "10": [
          {
            "number": 10,
            "ticks": 0,
            "time": 0,
            "value": 0.5039370078740157
          }
        ]
      },
      "pitchBends": [],
      "instrument": {
        "family": "guitar",
        "number": 29,
        "name": "overdriven guitar"
      },
      "name": "Gt 1 - Main Riff",
      "notes": [
        {
          "duration": 0.10902260000000119,
          "durationTicks": 29,
          "midi": 59,
          "name": "B3",
          "ticks": 2370,
          "time": 8.909778,
          "velocity": 0.7874015748031497
        },
        {
          "duration": 0.10902260000000119,
          "durationTicks": 29,
          "midi": 63,
          "name": "D#4",
          "ticks": 2400,
          "time": 9.022559999999999,
          "velocity": 0.7874015748031497
        },
        {
          "duration": 0.10902259999999941,
          "durationTicks": 29,
          "midi": 59,
          "name": "B3",
          "ticks": 2430,
          "time": 9.135342,
          "velocity": 0.7874015748031497
        },
        {
          "duration": 0.10902260000000119,
          "durationTicks": 29,
          "midi": 66,
          "name": "F#4",
          "ticks": 2460,
          "time": 9.248123999999999,
          "velocity": 0.7874015748031497
        },
        {
          "duration": 0.10902259999999941,
          "durationTicks": 29,
          "midi": 59,
          "name": "B3",
          "ticks": 2490,
          "time": 9.360906,
          "velocity": 0.7874015748031497
        },
        {
          "duration": 0.10902260000000119,
          "durationTicks": 29,
          "midi": 63,
          "name": "D#4",
          "ticks": 2520,
          "time": 9.473688,
          "velocity": 0.7874015748031497
        },
        {
          "duration": 0.10902259999999941,
          "durationTicks": 29,
          "midi": 59,
          "name": "B3",
          "ticks": 2550,
          "time": 9.58647,
          "velocity": 0.7874015748031497
        },
        {
          "duration": 0.10902259999999941,
          "durationTicks": 29,
          "midi": 66,
          "name": "F#4",
          "ticks": 2580,
          "time": 9.699252,
          "velocity": 0.7874015748031497
        },
        {
          "duration": 0.10902260000000119,
          "durationTicks": 29,
          "midi": 59,
          "name": "B3",
          "ticks": 2610,
          "time": 9.812033999999999,
          "velocity": 0.7874015748031497
        },
        {
          "duration": 0.10902259999999941,
          "durationTicks": 29,
          "midi": 63,
          "name": "D#4",
          "ticks": 2640,
          "time": 9.924816,
          "velocity": 0.7874015748031497
        },
        {
          "duration": 0.10902260000000119,
          "durationTicks": 29,
          "midi": 59,
          "name": "B3",
          "ticks": 2670,
          "time": 10.037598,
          "velocity": 0.7874015748031497
        },
        {
          "duration": 0.10902259999999941,
          "durationTicks": 29,
          "midi": 66,
          "name": "F#4",
          "ticks": 2700,
          "time": 10.15038,
          "velocity": 0.7874015748031497
        },
        {
          "duration": 0.10902259999999941,
          "durationTicks": 29,
          "midi": 59,
          "name": "B3",
          "ticks": 2730,
          "time": 10.263162,
          "velocity": 0.7874015748031497
        },
        {
          "duration": 0.10902260000000119,
          "durationTicks": 29,
          "midi": 63,
          "name": "D#4",
          "ticks": 2760,
          "time": 10.375943999999999,
          "velocity": 0.7874015748031497
        },
        {
          "duration": 0.10902259999999941,
          "durationTicks": 29,
          "midi": 59,
          "name": "B3",
          "ticks": 2790,
          "time": 10.488726,
          "velocity": 0.7874015748031497
        },
        {
          "duration": 0.10902260000000119,
          "durationTicks": 29,
          "midi": 66,
          "name": "F#4",
          "ticks": 2820,
          "time": 10.601507999999999,
          "velocity": 0.7874015748031497
        },
        {
          "duration": 0.10902259999999941,
          "durationTicks": 29,
          "midi": 59,
          "name": "B3",
          "ticks": 2850,
          "time": 10.71429,
          "velocity": 0.7874015748031497
        },
        {
          "duration": 0.10902259999999941,
          "durationTicks": 29,
          "midi": 63,
          "name": "D#4",
          "ticks": 2880,
          "time": 10.827072,
          "velocity": 0.7874015748031497
        },
        {
          "duration": 0.10902260000000119,
          "durationTicks": 29,
          "midi": 59,
          "name": "B3",
          "ticks": 2910,
          "time": 10.939853999999999,
          "velocity": 0.7874015748031497
        },
        {
          "duration": 0.10902259999999941,
          "durationTicks": 29,
          "midi": 66,
          "name": "F#4",
          "ticks": 2940,
          "time": 11.052636,
          "velocity": 0.7874015748031497
        },
        {
          "duration": 0.10902260000000119,
          "durationTicks": 29,
          "midi": 59,
          "name": "B3",
          "ticks": 2970,
          "time": 11.165417999999999,
          "velocity": 0.7874015748031497
        },
        {
          "duration": 0.10902259999999941,
          "durationTicks": 29,
          "midi": 63,
          "name": "D#4",
          "ticks": 3000,
          "time": 11.2782,
          "velocity": 0.7874015748031497
        },
        {
          "duration": 0.10902259999999941,
          "durationTicks": 29,
          "midi": 59,
          "name": "B3",
          "ticks": 3030,
          "time": 11.390982,
          "velocity": 0.7874015748031497
        },
        {
          "duration": 0.10902260000000119,
          "durationTicks": 29,
          "midi": 66,
          "name": "F#4",
          "ticks": 3060,
          "time": 11.503763999999999,
          "velocity": 0.7874015748031497
        },
        {
          "duration": 0.10902259999999941,
          "durationTicks": 29,
          "midi": 59,
          "name": "B3",
          "ticks": 3090,
          "time": 11.616546,
          "velocity": 0.7874015748031497
        },
        {
          "duration": 0.10902260000000119,
          "durationTicks": 29,
          "midi": 63,
          "name": "D#4",
          "ticks": 3120,
          "time": 11.729327999999999,
          "velocity": 0.7874015748031497
        },
        {
          "duration": 0.10902259999999941,
          "durationTicks": 29,
          "midi": 59,
          "name": "B3",
          "ticks": 3150,
          "time": 11.84211,
          "velocity": 0.7874015748031497
        },
        {
          "duration": 0.10902260000000119,
          "durationTicks": 29,
          "midi": 66,
          "name": "F#4",
          "ticks": 3180,
          "time": 11.954892,
          "velocity": 0.7874015748031497
        },
        {
          "duration": 0.10902260000000119,
          "durationTicks": 29,
          "midi": 59,
          "name": "B3",
          "ticks": 3210,
          "time": 12.067673999999998,
          "velocity": 0.7874015748031497
        },
        {
          "duration": 0.10902259999999941,
          "durationTicks": 29,
          "midi": 63,
          "name": "D#4",
          "ticks": 3240,
          "time": 12.180456,
          "velocity": 0.7874015748031497
        },
        {
          "duration": 0.10902260000000119,
          "durationTicks": 29,
          "midi": 59,
          "name": "B3",
          "ticks": 3270,
          "time": 12.293237999999999,
          "velocity": 0.7874015748031497
        },
        {
          "duration": 0.10902259999999941,
          "durationTicks": 29,
          "midi": 66,
          "name": "F#4",
          "ticks": 3300,
          "time": 12.40602,
          "velocity": 0.7874015748031497
        },
        {
          "duration": 0.10902260000000119,
          "durationTicks": 29,
          "midi": 59,
          "name": "B3",
          "ticks": 3330,
          "time": 12.518801999999999,
          "velocity": 0.7874015748031497
        },
        {
          "duration": 0.10902259999999941,
          "durationTicks": 29,
          "midi": 64,
          "name": "E4",
          "ticks": 3360,
          "time": 12.631584,
          "velocity": 0.7874015748031497
        },
        {
          "duration": 0.10902259999999941,
          "durationTicks": 29,
          "midi": 59,
          "name": "B3",
          "ticks": 3390,
          "time": 12.744366,
          "velocity": 0.7874015748031497
        },
        {
          "duration": 0.10902260000000119,
          "durationTicks": 29,
          "midi": 67,
          "name": "G4",
          "ticks": 3420,
          "time": 12.857147999999999,
          "velocity": 0.7874015748031497
        },
        {
          "duration": 0.10902259999999941,
          "durationTicks": 29,
          "midi": 59,
          "name": "B3",
          "ticks": 3450,
          "time": 12.96993,
          "velocity": 0.7874015748031497
        },
        {
          "duration": 0.10902260000000119,
          "durationTicks": 29,
          "midi": 64,
          "name": "E4",
          "ticks": 3480,
          "time": 13.082711999999999,
          "velocity": 0.7874015748031497
        },
        {
          "duration": 0.10902259999999941,
          "durationTicks": 29,
          "midi": 59,
          "name": "B3",
          "ticks": 3510,
          "time": 13.195494,
          "velocity": 0.7874015748031497
        },
        {
          "duration": 0.10902259999999941,
          "durationTicks": 29,
          "midi": 67,
          "name": "G4",
          "ticks": 3540,
          "time": 13.308276,
          "velocity": 0.7874015748031497
        },
        {
          "duration": 0.10902260000000119,
          "durationTicks": 29,
          "midi": 59,
          "name": "B3",
          "ticks": 3570,
          "time": 13.421057999999999,
          "velocity": 0.7874015748031497
        },
        {
          "duration": 0.10902259999999941,
          "durationTicks": 29,
          "midi": 64,
          "name": "E4",
          "ticks": 3600,
          "time": 13.53384,
          "velocity": 0.7874015748031497
        },
        {
          "duration": 0.10902260000000119,
          "durationTicks": 29,
          "midi": 59,
          "name": "B3",
          "ticks": 3630,
          "time": 13.646621999999999,
          "velocity": 0.7874015748031497
        },
        {
          "duration": 0.10902259999999941,
          "durationTicks": 29,
          "midi": 67,
          "name": "G4",
          "ticks": 3660,
          "time": 13.759404,
          "velocity": 0.7874015748031497
        },
        {
          "duration": 0.10902259999999941,
          "durationTicks": 29,
          "midi": 59,
          "name": "B3",
          "ticks": 3690,
          "time": 13.872186,
          "velocity": 0.7874015748031497
        },
        {
          "duration": 0.10902260000000119,
          "durationTicks": 29,
          "midi": 64,
          "name": "E4",
          "ticks": 3720,
          "time": 13.984967999999999,
          "velocity": 0.7874015748031497
        },
        {
          "duration": 0.10902259999999941,
          "durationTicks": 29,
          "midi": 59,
          "name": "B3",
          "ticks": 3750,
          "time": 14.09775,
          "velocity": 0.7874015748031497
        },
        {
          "duration": 0.10902260000000119,
          "durationTicks": 29,
          "midi": 67,
          "name": "G4",
          "ticks": 3780,
          "time": 14.210531999999999,
          "velocity": 0.7874015748031497
        },
        {
          "duration": 0.10902259999999941,
          "durationTicks": 29,
          "midi": 59,
          "name": "B3",
          "ticks": 3810,
          "time": 14.323314,
          "velocity": 0.7874015748031497
        },
        {
          "duration": 0.10902259999999941,
          "durationTicks": 29,
          "midi": 64,
          "name": "E4",
          "ticks": 3840,
          "time": 14.436096,
          "velocity": 0.7874015748031497
        },
        {
          "duration": 0.10902260000000119,
          "durationTicks": 29,
          "midi": 59,
          "name": "B3",
          "ticks": 3870,
          "time": 14.548877999999998,
          "velocity": 0.7874015748031497
        },
        {
          "duration": 0.10902259999999941,
          "durationTicks": 29,
          "midi": 67,
          "name": "G4",
          "ticks": 3900,
          "time": 14.66166,
          "velocity": 0.7874015748031497
        },
        {
          "duration": 0.10902260000000119,
          "durationTicks": 29,
          "midi": 59,
          "name": "B3",
          "ticks": 3930,
          "time": 14.774441999999999,
          "velocity": 0.7874015748031497
        },
        {
          "duration": 0.10902259999999941,
          "durationTicks": 29,
          "midi": 64,
          "name": "E4",
          "ticks": 3960,
          "time": 14.887224,
          "velocity": 0.7874015748031497
        },
        {
          "duration": 0.10902259999999941,
          "durationTicks": 29,
          "midi": 59,
          "name": "B3",
          "ticks": 3990,
          "time": 15.000005999999999,
          "velocity": 0.7874015748031497
        },
        {
          "duration": 0.10902260000000119,
          "durationTicks": 29,
          "midi": 67,
          "name": "G4",
          "ticks": 4020,
          "time": 15.112787999999998,
          "velocity": 0.7874015748031497
        },
        {
          "duration": 0.10902259999999941,
          "durationTicks": 29,
          "midi": 59,
          "name": "B3",
          "ticks": 4050,
          "time": 15.22557,
          "velocity": 0.7874015748031497
        },
        {
          "duration": 0.10902260000000119,
          "durationTicks": 29,
          "midi": 64,
          "name": "E4",
          "ticks": 4080,
          "time": 15.338351999999999,
          "velocity": 0.7874015748031497
        },
        {
          "duration": 0.10902259999999941,
          "durationTicks": 29,
          "midi": 59,
          "name": "B3",
          "ticks": 4110,
          "time": 15.451134,
          "velocity": 0.7874015748031497
        },
        {
          "duration": 0.10902260000000119,
          "durationTicks": 29,
          "midi": 67,
          "name": "G4",
          "ticks": 4140,
          "time": 15.563915999999999,
          "velocity": 0.7874015748031497
        },
        {
          "duration": 0.10902260000000119,
          "durationTicks": 29,
          "midi": 59,
          "name": "B3",
          "ticks": 4170,
          "time": 15.676697999999998,
          "velocity": 0.7874015748031497
        },
        {
          "duration": 0.10902259999999941,
          "durationTicks": 29,
          "midi": 64,
          "name": "E4",
          "ticks": 4200,
          "time": 15.78948,
          "velocity": 0.7874015748031497
        },
        {
          "duration": 0.10902260000000119,
          "durationTicks": 29,
          "midi": 59,
          "name": "B3",
          "ticks": 4230,
          "time": 15.902261999999999,
          "velocity": 0.7874015748031497
        },
        {
          "duration": 0.10902259999999941,
          "durationTicks": 29,
          "midi": 67,
          "name": "G4",
          "ticks": 4260,
          "time": 16.015044,
          "velocity": 0.7874015748031497
        },
        {
          "duration": 0.10902259999999941,
          "durationTicks": 29,
          "midi": 59,
          "name": "B3",
          "ticks": 4290,
          "time": 16.127826,
          "velocity": 0.7874015748031497
        },
        {
          "duration": 0.10902259999999941,
          "durationTicks": 29,
          "midi": 63,
          "name": "D#4",
          "ticks": 4320,
          "time": 16.240607999999998,
          "velocity": 0.7874015748031497
        },
        {
          "duration": 0.10902260000000297,
          "durationTicks": 29,
          "midi": 59,
          "name": "B3",
          "ticks": 4350,
          "time": 16.353389999999997,
          "velocity": 0.7874015748031497
        },
        {
          "duration": 0.10902259999999941,
          "durationTicks": 29,
          "midi": 66,
          "name": "F#4",
          "ticks": 4380,
          "time": 16.466172,
          "velocity": 0.7874015748031497
        },
        {
          "duration": 0.10902259999999941,
          "durationTicks": 29,
          "midi": 59,
          "name": "B3",
          "ticks": 4410,
          "time": 16.578954,
          "velocity": 0.7874015748031497
        },
        {
          "duration": 0.10902259999999941,
          "durationTicks": 29,
          "midi": 63,
          "name": "D#4",
          "ticks": 4440,
          "time": 16.691736,
          "velocity": 0.7874015748031497
        },
        {
          "duration": 0.10902259999999941,
          "durationTicks": 29,
          "midi": 59,
          "name": "B3",
          "ticks": 4470,
          "time": 16.804517999999998,
          "velocity": 0.7874015748031497
        },
        {
          "duration": 0.10902260000000297,
          "durationTicks": 29,
          "midi": 66,
          "name": "F#4",
          "ticks": 4500,
          "time": 16.917299999999997,
          "velocity": 0.7874015748031497
        },
        {
          "duration": 0.10902259999999941,
          "durationTicks": 29,
          "midi": 59,
          "name": "B3",
          "ticks": 4530,
          "time": 17.030082,
          "velocity": 0.7874015748031497
        },
        {
          "duration": 0.10902259999999941,
          "durationTicks": 29,
          "midi": 63,
          "name": "D#4",
          "ticks": 4560,
          "time": 17.142864,
          "velocity": 0.7874015748031497
        },
        {
          "duration": 0.10902259999999941,
          "durationTicks": 29,
          "midi": 59,
          "name": "B3",
          "ticks": 4590,
          "time": 17.255646,
          "velocity": 0.7874015748031497
        },
        {
          "duration": 0.10902260000000297,
          "durationTicks": 29,
          "midi": 66,
          "name": "F#4",
          "ticks": 4620,
          "time": 17.368427999999998,
          "velocity": 0.7874015748031497
        },
        {
          "duration": 0.10902260000000297,
          "durationTicks": 29,
          "midi": 59,
          "name": "B3",
          "ticks": 4650,
          "time": 17.481209999999997,
          "velocity": 0.7874015748031497
        },
        {
          "duration": 0.10902259999999941,
          "durationTicks": 29,
          "midi": 63,
          "name": "D#4",
          "ticks": 4680,
          "time": 17.593992,
          "velocity": 0.7874015748031497
        },
        {
          "duration": 0.10902259999999941,
          "durationTicks": 29,
          "midi": 59,
          "name": "B3",
          "ticks": 4710,
          "time": 17.706774,
          "velocity": 0.7874015748031497
        },
        {
          "duration": 0.10902259999999941,
          "durationTicks": 29,
          "midi": 66,
          "name": "F#4",
          "ticks": 4740,
          "time": 17.819556,
          "velocity": 0.7874015748031497
        },
        {
          "duration": 0.10902260000000297,
          "durationTicks": 29,
          "midi": 59,
          "name": "B3",
          "ticks": 4770,
          "time": 17.932337999999998,
          "velocity": 0.7874015748031497
        },
        {
          "duration": 0.10902260000000297,
          "durationTicks": 29,
          "midi": 63,
          "name": "D#4",
          "ticks": 4800,
          "time": 18.045119999999997,
          "velocity": 0.7874015748031497
        },
        {
          "duration": 0.10902259999999941,
          "durationTicks": 29,
          "midi": 59,
          "name": "B3",
          "ticks": 4830,
          "time": 18.157902,
          "velocity": 0.7874015748031497
        },
        {
          "duration": 0.10902259999999941,
          "durationTicks": 29,
          "midi": 66,
          "name": "F#4",
          "ticks": 4860,
          "time": 18.270684,
          "velocity": 0.7874015748031497
        },
        {
          "duration": 0.10902259999999941,
          "durationTicks": 29,
          "midi": 59,
          "name": "B3",
          "ticks": 4890,
          "time": 18.383466,
          "velocity": 0.7874015748031497
        },
        {
          "duration": 0.10902260000000297,
          "durationTicks": 29,
          "midi": 63,
          "name": "D#4",
          "ticks": 4920,
          "time": 18.496247999999998,
          "velocity": 0.7874015748031497
        },
        {
          "duration": 0.10902259999999941,
          "durationTicks": 29,
          "midi": 59,
          "name": "B3",
          "ticks": 4950,
          "time": 18.60903,
          "velocity": 0.7874015748031497
        },
        {
          "duration": 0.10902259999999941,
          "durationTicks": 29,
          "midi": 66,
          "name": "F#4",
          "ticks": 4980,
          "time": 18.721812,
          "velocity": 0.7874015748031497
        },
        {
          "duration": 0.10902259999999941,
          "durationTicks": 29,
          "midi": 59,
          "name": "B3",
          "ticks": 5010,
          "time": 18.834594,
          "velocity": 0.7874015748031497
        },
        {
          "duration": 0.10902259999999941,
          "durationTicks": 29,
          "midi": 63,
          "name": "D#4",
          "ticks": 5040,
          "time": 18.947376,
          "velocity": 0.7874015748031497
        },
        {
          "duration": 0.10902260000000297,
          "durationTicks": 29,
          "midi": 59,
          "name": "B3",
          "ticks": 5070,
          "time": 19.060157999999998,
          "velocity": 0.7874015748031497
        },
        {
          "duration": 0.10902259999999941,
          "durationTicks": 29,
          "midi": 66,
          "name": "F#4",
          "ticks": 5100,
          "time": 19.17294,
          "velocity": 0.7874015748031497
        },
        {
          "duration": 0.10902259999999941,
          "durationTicks": 29,
          "midi": 59,
          "name": "B3",
          "ticks": 5130,
          "time": 19.285722,
          "velocity": 0.7874015748031497
        },
        {
          "duration": 0.10902259999999941,
          "durationTicks": 29,
          "midi": 63,
          "name": "D#4",
          "ticks": 5160,
          "time": 19.398504,
          "velocity": 0.7874015748031497
        },
        {
          "duration": 0.10902259999999941,
          "durationTicks": 29,
          "midi": 59,
          "name": "B3",
          "ticks": 5190,
          "time": 19.511286,
          "velocity": 0.7874015748031497
        },
        {
          "duration": 0.10902260000000297,
          "durationTicks": 29,
          "midi": 66,
          "name": "F#4",
          "ticks": 5220,
          "time": 19.624067999999998,
          "velocity": 0.7874015748031497
        },
        {
          "duration": 0.10902259999999941,
          "durationTicks": 29,
          "midi": 59,
          "name": "B3",
          "ticks": 5250,
          "time": 19.73685,
          "velocity": 0.7874015748031497
        },
        {
          "duration": 0.10902259999999941,
          "durationTicks": 29,
          "midi": 64,
          "name": "E4",
          "ticks": 5280,
          "time": 19.849632,
          "velocity": 0.7874015748031497
        },
        {
          "duration": 0.10902259999999941,
          "durationTicks": 29,
          "midi": 59,
          "name": "B3",
          "ticks": 5310,
          "time": 19.962414,
          "velocity": 0.7874015748031497
        },
        {
          "duration": 0.10902259999999941,
          "durationTicks": 29,
          "midi": 67,
          "name": "G4",
          "ticks": 5340,
          "time": 20.075196,
          "velocity": 0.7874015748031497
        },
        {
          "duration": 0.10902260000000297,
          "durationTicks": 29,
          "midi": 59,
          "name": "B3",
          "ticks": 5370,
          "time": 20.187977999999998,
          "velocity": 0.7874015748031497
        },
        {
          "duration": 0.10902259999999941,
          "durationTicks": 29,
          "midi": 64,
          "name": "E4",
          "ticks": 5400,
          "time": 20.30076,
          "velocity": 0.7874015748031497
        },
        {
          "duration": 0.10902259999999941,
          "durationTicks": 29,
          "midi": 59,
          "name": "B3",
          "ticks": 5430,
          "time": 20.413542,
          "velocity": 0.7874015748031497
        },
        {
          "duration": 0.10902259999999941,
          "durationTicks": 29,
          "midi": 67,
          "name": "G4",
          "ticks": 5460,
          "time": 20.526324,
          "velocity": 0.7874015748031497
        },
        {
          "duration": 0.10902259999999941,
          "durationTicks": 29,
          "midi": 59,
          "name": "B3",
          "ticks": 5490,
          "time": 20.639105999999998,
          "velocity": 0.7874015748031497
        },
        {
          "duration": 0.10902260000000297,
          "durationTicks": 29,
          "midi": 64,
          "name": "E4",
          "ticks": 5520,
          "time": 20.751887999999997,
          "velocity": 0.7874015748031497
        },
        {
          "duration": 0.10902259999999941,
          "durationTicks": 29,
          "midi": 59,
          "name": "B3",
          "ticks": 5550,
          "time": 20.86467,
          "velocity": 0.7874015748031497
        },
        {
          "duration": 0.10902259999999941,
          "durationTicks": 29,
          "midi": 67,
          "name": "G4",
          "ticks": 5580,
          "time": 20.977452,
          "velocity": 0.7874015748031497
        },
        {
          "duration": 0.10902259999999941,
          "durationTicks": 29,
          "midi": 59,
          "name": "B3",
          "ticks": 5610,
          "time": 21.090234,
          "velocity": 0.7874015748031497
        },
        {
          "duration": 0.10902259999999941,
          "durationTicks": 29,
          "midi": 64,
          "name": "E4",
          "ticks": 5640,
          "time": 21.203015999999998,
          "velocity": 0.7874015748031497
        },
        {
          "duration": 0.10902260000000297,
          "durationTicks": 29,
          "midi": 59,
          "name": "B3",
          "ticks": 5670,
          "time": 21.315797999999997,
          "velocity": 0.7874015748031497
        },
        {
          "duration": 0.10902259999999941,
          "durationTicks": 29,
          "midi": 67,
          "name": "G4",
          "ticks": 5700,
          "time": 21.42858,
          "velocity": 0.7874015748031497
        },
        {
          "duration": 0.10902259999999941,
          "durationTicks": 29,
          "midi": 59,
          "name": "B3",
          "ticks": 5730,
          "time": 21.541362,
          "velocity": 0.7874015748031497
        },
        {
          "duration": 0.10902259999999941,
          "durationTicks": 29,
          "midi": 64,
          "name": "E4",
          "ticks": 5760,
          "time": 21.654144,
          "velocity": 0.7874015748031497
        },
        {
          "duration": 0.10902259999999941,
          "durationTicks": 29,
          "midi": 59,
          "name": "B3",
          "ticks": 5790,
          "time": 21.766925999999998,
          "velocity": 0.7874015748031497
        },
        {
          "duration": 0.10902260000000297,
          "durationTicks": 29,
          "midi": 67,
          "name": "G4",
          "ticks": 5820,
          "time": 21.879707999999997,
          "velocity": 0.7874015748031497
        },
        {
          "duration": 0.10902259999999941,
          "durationTicks": 29,
          "midi": 59,
          "name": "B3",
          "ticks": 5850,
          "time": 21.99249,
          "velocity": 0.7874015748031497
        },
        {
          "duration": 0.10902259999999941,
          "durationTicks": 29,
          "midi": 64,
          "name": "E4",
          "ticks": 5880,
          "time": 22.105272,
          "velocity": 0.7874015748031497
        },
        {
          "duration": 0.10902259999999941,
          "durationTicks": 29,
          "midi": 59,
          "name": "B3",
          "ticks": 5910,
          "time": 22.218054,
          "velocity": 0.7874015748031497
        },
        {
          "duration": 0.10902259999999941,
          "durationTicks": 29,
          "midi": 67,
          "name": "G4",
          "ticks": 5940,
          "time": 22.330835999999998,
          "velocity": 0.7874015748031497
        },
        {
          "duration": 0.10902260000000297,
          "durationTicks": 29,
          "midi": 59,
          "name": "B3",
          "ticks": 5970,
          "time": 22.443617999999997,
          "velocity": 0.7874015748031497
        },
        {
          "duration": 0.10902259999999941,
          "durationTicks": 29,
          "midi": 64,
          "name": "E4",
          "ticks": 6000,
          "time": 22.5564,
          "velocity": 0.7874015748031497
        },
        {
          "duration": 0.10902259999999941,
          "durationTicks": 29,
          "midi": 59,
          "name": "B3",
          "ticks": 6030,
          "time": 22.669182,
          "velocity": 0.7874015748031497
        },
        {
          "duration": 0.10902259999999941,
          "durationTicks": 29,
          "midi": 67,
          "name": "G4",
          "ticks": 6060,
          "time": 22.781964,
          "velocity": 0.7874015748031497
        },
        {
          "duration": 0.10902259999999941,
          "durationTicks": 29,
          "midi": 59,
          "name": "B3",
          "ticks": 6090,
          "time": 22.894745999999998,
          "velocity": 0.7874015748031497
        },
        {
          "duration": 0.10902260000000297,
          "durationTicks": 29,
          "midi": 64,
          "name": "E4",
          "ticks": 6120,
          "time": 23.007527999999997,
          "velocity": 0.7874015748031497
        },
        {
          "duration": 0.10902259999999941,
          "durationTicks": 29,
          "midi": 59,
          "name": "B3",
          "ticks": 6150,
          "time": 23.12031,
          "velocity": 0.7874015748031497
        },
        {
          "duration": 0.10902259999999941,
          "durationTicks": 29,
          "midi": 67,
          "name": "G4",
          "ticks": 6180,
          "time": 23.233092,
          "velocity": 0.7874015748031497
        },
        {
          "duration": 0.10902259999999941,
          "durationTicks": 29,
          "midi": 59,
          "name": "B3",
          "ticks": 6210,
          "time": 23.345874,
          "velocity": 0.7874015748031497
        },
        {
          "duration": 0.10902259999999941,
          "durationTicks": 29,
          "midi": 71,
          "name": "B4",
          "ticks": 6240,
          "time": 23.458655999999998,
          "velocity": 0.7874015748031497
        },
        {
          "duration": 0.10902260000000297,
          "durationTicks": 29,
          "midi": 59,
          "name": "B3",
          "ticks": 6270,
          "time": 23.571437999999997,
          "velocity": 0.7874015748031497
        },
        {
          "duration": 0.10902259999999941,
          "durationTicks": 29,
          "midi": 69,
          "name": "A4",
          "ticks": 6300,
          "time": 23.68422,
          "velocity": 0.7874015748031497
        },
        {
          "duration": 0.10902259999999941,
          "durationTicks": 29,
          "midi": 59,
          "name": "B3",
          "ticks": 6330,
          "time": 23.797002,
          "velocity": 0.7874015748031497
        },
        {
          "duration": 0.10902259999999941,
          "durationTicks": 29,
          "midi": 68,
          "name": "G#4",
          "ticks": 6360,
          "time": 23.909784,
          "velocity": 0.7874015748031497
        },
        {
          "duration": 0.10902259999999941,
          "durationTicks": 29,
          "midi": 59,
          "name": "B3",
          "ticks": 6390,
          "time": 24.022565999999998,
          "velocity": 0.7874015748031497
        },
        {
          "duration": 0.10902260000000297,
          "durationTicks": 29,
          "midi": 69,
          "name": "A4",
          "ticks": 6420,
          "time": 24.135347999999997,
          "velocity": 0.7874015748031497
        },
        {
          "duration": 0.10902259999999941,
          "durationTicks": 29,
          "midi": 59,
          "name": "B3",
          "ticks": 6450,
          "time": 24.24813,
          "velocity": 0.7874015748031497
        },
        {
          "duration": 0.10902259999999941,
          "durationTicks": 29,
          "midi": 68,
          "name": "G#4",
          "ticks": 6480,
          "time": 24.360912,
          "velocity": 0.7874015748031497
        },
        {
          "duration": 0.10902259999999941,
          "durationTicks": 29,
          "midi": 59,
          "name": "B3",
          "ticks": 6510,
          "time": 24.473694,
          "velocity": 0.7874015748031497
        },
        {
          "duration": 0.10902260000000297,
          "durationTicks": 29,
          "midi": 66,
          "name": "F#4",
          "ticks": 6540,
          "time": 24.586475999999998,
          "velocity": 0.7874015748031497
        },
        {
          "duration": 0.10902260000000297,
          "durationTicks": 29,
          "midi": 59,
          "name": "B3",
          "ticks": 6570,
          "time": 24.699257999999997,
          "velocity": 0.7874015748031497
        },
        {
          "duration": 0.10902259999999941,
          "durationTicks": 29,
          "midi": 68,
          "name": "G#4",
          "ticks": 6600,
          "time": 24.81204,
          "velocity": 0.7874015748031497
        },
        {
          "duration": 0.10902259999999941,
          "durationTicks": 29,
          "midi": 59,
          "name": "B3",
          "ticks": 6630,
          "time": 24.924822,
          "velocity": 0.7874015748031497
        },
        {
          "duration": 0.10902259999999941,
          "durationTicks": 29,
          "midi": 64,
          "name": "E4",
          "ticks": 6660,
          "time": 25.037603999999998,
          "velocity": 0.7874015748031497
        },
        {
          "duration": 0.10902260000000297,
          "durationTicks": 29,
          "midi": 59,
          "name": "B3",
          "ticks": 6690,
          "time": 25.150385999999997,
          "velocity": 0.7874015748031497
        },
        {
          "duration": 0.10902259999999941,
          "durationTicks": 29,
          "midi": 66,
          "name": "F#4",
          "ticks": 6720,
          "time": 25.263168,
          "velocity": 0.7874015748031497
        },
        {
          "duration": 0.10902259999999941,
          "durationTicks": 29,
          "midi": 59,
          "name": "B3",
          "ticks": 6750,
          "time": 25.37595,
          "velocity": 0.7874015748031497
        },
        {
          "duration": 0.10902259999999941,
          "durationTicks": 29,
          "midi": 63,
          "name": "D#4",
          "ticks": 6780,
          "time": 25.488732,
          "velocity": 0.7874015748031497
        },
        {
          "duration": 0.10902259999999941,
          "durationTicks": 29,
          "midi": 59,
          "name": "B3",
          "ticks": 6810,
          "time": 25.601513999999998,
          "velocity": 0.7874015748031497
        },
        {
          "duration": 0.10902260000000297,
          "durationTicks": 29,
          "midi": 64,
          "name": "E4",
          "ticks": 6840,
          "time": 25.714295999999997,
          "velocity": 0.7874015748031497
        },
        {
          "duration": 0.10902259999999941,
          "durationTicks": 29,
          "midi": 59,
          "name": "B3",
          "ticks": 6870,
          "time": 25.827078,
          "velocity": 0.7874015748031497
        },
        {
          "duration": 0.10902259999999941,
          "durationTicks": 29,
          "midi": 63,
          "name": "D#4",
          "ticks": 6900,
          "time": 25.93986,
          "velocity": 0.7874015748031497
        },
        {
          "duration": 0.10902259999999941,
          "durationTicks": 29,
          "midi": 59,
          "name": "B3",
          "ticks": 6930,
          "time": 26.052642,
          "velocity": 0.7874015748031497
        },
        {
          "duration": 0.10902259999999941,
          "durationTicks": 29,
          "midi": 64,
          "name": "E4",
          "ticks": 6960,
          "time": 26.165423999999998,
          "velocity": 0.7874015748031497
        },
        {
          "duration": 0.10902260000000297,
          "durationTicks": 29,
          "midi": 59,
          "name": "B3",
          "ticks": 6990,
          "time": 26.278205999999997,
          "velocity": 0.7874015748031497
        },
        {
          "duration": 0.10902259999999941,
          "durationTicks": 29,
          "midi": 63,
          "name": "D#4",
          "ticks": 7020,
          "time": 26.390988,
          "velocity": 0.7874015748031497
        },
        {
          "duration": 0.10902259999999941,
          "durationTicks": 29,
          "midi": 59,
          "name": "B3",
          "ticks": 7050,
          "time": 26.50377,
          "velocity": 0.7874015748031497
        },
        {
          "duration": 0.10902259999999941,
          "durationTicks": 29,
          "midi": 64,
          "name": "E4",
          "ticks": 7080,
          "time": 26.616552,
          "velocity": 0.7874015748031497
        },
        {
          "duration": 0.10902259999999941,
          "durationTicks": 29,
          "midi": 59,
          "name": "B3",
          "ticks": 7110,
          "time": 26.729333999999998,
          "velocity": 0.7874015748031497
        },
        {
          "duration": 0.10902260000000297,
          "durationTicks": 29,
          "midi": 63,
          "name": "D#4",
          "ticks": 7140,
          "time": 26.842115999999997,
          "velocity": 0.7874015748031497
        },
        {
          "duration": 0.10902259999999941,
          "durationTicks": 29,
          "midi": 59,
          "name": "B3",
          "ticks": 7170,
          "time": 26.954898,
          "velocity": 0.7874015748031497
        },
        {
          "duration": 0.10902259999999941,
          "durationTicks": 29,
          "midi": 71,
          "name": "B4",
          "ticks": 7200,
          "time": 27.06768,
          "velocity": 0.7874015748031497
        },
        {
          "duration": 0.10902259999999941,
          "durationTicks": 29,
          "midi": 59,
          "name": "B3",
          "ticks": 7230,
          "time": 27.180462,
          "velocity": 0.7874015748031497
        },
        {
          "duration": 0.10902259999999941,
          "durationTicks": 29,
          "midi": 69,
          "name": "A4",
          "ticks": 7260,
          "time": 27.293243999999998,
          "velocity": 0.7874015748031497
        },
        {
          "duration": 0.10902260000000297,
          "durationTicks": 29,
          "midi": 59,
          "name": "B3",
          "ticks": 7290,
          "time": 27.406025999999997,
          "velocity": 0.7874015748031497
        },
        {
          "duration": 0.10902259999999941,
          "durationTicks": 29,
          "midi": 68,
          "name": "G#4",
          "ticks": 7320,
          "time": 27.518808,
          "velocity": 0.7874015748031497
        },
        {
          "duration": 0.10902259999999941,
          "durationTicks": 29,
          "midi": 59,
          "name": "B3",
          "ticks": 7350,
          "time": 27.63159,
          "velocity": 0.7874015748031497
        },
        {
          "duration": 0.10902259999999941,
          "durationTicks": 29,
          "midi": 69,
          "name": "A4",
          "ticks": 7380,
          "time": 27.744372,
          "velocity": 0.7874015748031497
        },
        {
          "duration": 0.10902259999999941,
          "durationTicks": 29,
          "midi": 59,
          "name": "B3",
          "ticks": 7410,
          "time": 27.857153999999998,
          "velocity": 0.7874015748031497
        },
        {
          "duration": 0.10902260000000297,
          "durationTicks": 29,
          "midi": 68,
          "name": "G#4",
          "ticks": 7440,
          "time": 27.969935999999997,
          "velocity": 0.7874015748031497
        },
        {
          "duration": 0.10902259999999941,
          "durationTicks": 29,
          "midi": 59,
          "name": "B3",
          "ticks": 7470,
          "time": 28.082718,
          "velocity": 0.7874015748031497
        },
        {
          "duration": 0.10902259999999941,
          "durationTicks": 29,
          "midi": 66,
          "name": "F#4",
          "ticks": 7500,
          "time": 28.1955,
          "velocity": 0.7874015748031497
        },
        {
          "duration": 0.10902259999999941,
          "durationTicks": 29,
          "midi": 59,
          "name": "B3",
          "ticks": 7530,
          "time": 28.308282,
          "velocity": 0.7874015748031497
        },
        {
          "duration": 0.10902259999999941,
          "durationTicks": 29,
          "midi": 68,
          "name": "G#4",
          "ticks": 7560,
          "time": 28.421063999999998,
          "velocity": 0.7874015748031497
        },
        {
          "duration": 0.10902260000000297,
          "durationTicks": 29,
          "midi": 59,
          "name": "B3",
          "ticks": 7590,
          "time": 28.533845999999997,
          "velocity": 0.7874015748031497
        },
        {
          "duration": 0.10902259999999941,
          "durationTicks": 29,
          "midi": 64,
          "name": "E4",
          "ticks": 7620,
          "time": 28.646628,
          "velocity": 0.7874015748031497
        },
        {
          "duration": 0.10902259999999941,
          "durationTicks": 29,
          "midi": 59,
          "name": "B3",
          "ticks": 7650,
          "time": 28.75941,
          "velocity": 0.7874015748031497
        },
        {
          "duration": 0.10902259999999586,
          "durationTicks": 29,
          "midi": 66,
          "name": "F#4",
          "ticks": 7680,
          "time": 28.872192,
          "velocity": 0.7874015748031497
        },
        {
          "duration": 0.10902259999999941,
          "durationTicks": 29,
          "midi": 59,
          "name": "B3",
          "ticks": 7710,
          "time": 28.984973999999998,
          "velocity": 0.7874015748031497
        },
        {
          "duration": 0.10902259999999941,
          "durationTicks": 29,
          "midi": 63,
          "name": "D#4",
          "ticks": 7740,
          "time": 29.097755999999997,
          "velocity": 0.7874015748031497
        },
        {
          "duration": 0.10902259999999586,
          "durationTicks": 29,
          "midi": 59,
          "name": "B3",
          "ticks": 7770,
          "time": 29.210538,
          "velocity": 0.7874015748031497
        },
        {
          "duration": 0.10902259999999586,
          "durationTicks": 29,
          "midi": 64,
          "name": "E4",
          "ticks": 7800,
          "time": 29.32332,
          "velocity": 0.7874015748031497
        },
        {
          "duration": 0.10902259999999586,
          "durationTicks": 29,
          "midi": 59,
          "name": "B3",
          "ticks": 7830,
          "time": 29.436101999999998,
          "velocity": 0.7874015748031497
        },
        {
          "duration": 0.10902259999999941,
          "durationTicks": 29,
          "midi": 63,
          "name": "D#4",
          "ticks": 7860,
          "time": 29.548883999999997,
          "velocity": 0.7874015748031497
        },
        {
          "duration": 0.10902259999999941,
          "durationTicks": 29,
          "midi": 59,
          "name": "B3",
          "ticks": 7890,
          "time": 29.661665999999997,
          "velocity": 0.7874015748031497
        },
        {
          "duration": 0.10902259999999586,
          "durationTicks": 29,
          "midi": 64,
          "name": "E4",
          "ticks": 7920,
          "time": 29.774448,
          "velocity": 0.7874015748031497
        },
        {
          "duration": 0.10902259999999586,
          "durationTicks": 29,
          "midi": 59,
          "name": "B3",
          "ticks": 7950,
          "time": 29.88723,
          "velocity": 0.7874015748031497
        },
        {
          "duration": 0.10902259999999586,
          "durationTicks": 29,
          "midi": 63,
          "name": "D#4",
          "ticks": 7980,
          "time": 30.000011999999998,
          "velocity": 0.7874015748031497
        },
        {
          "duration": 0.10902259999999941,
          "durationTicks": 29,
          "midi": 59,
          "name": "B3",
          "ticks": 8010,
          "time": 30.112793999999997,
          "velocity": 0.7874015748031497
        },
        {
          "duration": 0.10902259999999941,
          "durationTicks": 29,
          "midi": 64,
          "name": "E4",
          "ticks": 8040,
          "time": 30.225575999999997,
          "velocity": 0.7874015748031497
        },
        {
          "duration": 0.10902259999999586,
          "durationTicks": 29,
          "midi": 59,
          "name": "B3",
          "ticks": 8070,
          "time": 30.338358,
          "velocity": 0.7874015748031497
        },
        {
          "duration": 0.10902259999999586,
          "durationTicks": 29,
          "midi": 63,
          "name": "D#4",
          "ticks": 8100,
          "time": 30.45114,
          "velocity": 0.7874015748031497
        },
        {
          "duration": 0.10902259999999586,
          "durationTicks": 29,
          "midi": 59,
          "name": "B3",
          "ticks": 8130,
          "time": 30.563921999999998,
          "velocity": 0.7874015748031497
        },
        {
          "duration": 0.10902259999999941,
          "durationTicks": 29,
          "midi": 71,
          "name": "B4",
          "ticks": 8160,
          "time": 30.676703999999997,
          "velocity": 0.7874015748031497
        },
        {
          "duration": 0.10902259999999941,
          "durationTicks": 29,
          "midi": 59,
          "name": "B3",
          "ticks": 8190,
          "time": 30.789485999999997,
          "velocity": 0.7874015748031497
        },
        {
          "duration": 0.10902259999999586,
          "durationTicks": 29,
          "midi": 69,
          "name": "A4",
          "ticks": 8220,
          "time": 30.902268,
          "velocity": 0.7874015748031497
        },
        {
          "duration": 0.10902259999999586,
          "durationTicks": 29,
          "midi": 59,
          "name": "B3",
          "ticks": 8250,
          "time": 31.01505,
          "velocity": 0.7874015748031497
        },
        {
          "duration": 0.10902259999999586,
          "durationTicks": 29,
          "midi": 68,
          "name": "G#4",
          "ticks": 8280,
          "time": 31.127831999999998,
          "velocity": 0.7874015748031497
        },
        {
          "duration": 0.10902259999999941,
          "durationTicks": 29,
          "midi": 59,
          "name": "B3",
          "ticks": 8310,
          "time": 31.240613999999997,
          "velocity": 0.7874015748031497
        },
        {
          "duration": 0.10902259999999941,
          "durationTicks": 29,
          "midi": 69,
          "name": "A4",
          "ticks": 8340,
          "time": 31.353395999999996,
          "velocity": 0.7874015748031497
        },
        {
          "duration": 0.10902259999999586,
          "durationTicks": 29,
          "midi": 59,
          "name": "B3",
          "ticks": 8370,
          "time": 31.466178,
          "velocity": 0.7874015748031497
        },
        {
          "duration": 0.10902259999999586,
          "durationTicks": 29,
          "midi": 68,
          "name": "G#4",
          "ticks": 8400,
          "time": 31.57896,
          "velocity": 0.7874015748031497
        },
        {
          "duration": 0.10902259999999586,
          "durationTicks": 29,
          "midi": 59,
          "name": "B3",
          "ticks": 8430,
          "time": 31.691741999999998,
          "velocity": 0.7874015748031497
        },
        {
          "duration": 0.10902259999999941,
          "durationTicks": 29,
          "midi": 66,
          "name": "F#4",
          "ticks": 8460,
          "time": 31.804523999999997,
          "velocity": 0.7874015748031497
        },
        {
          "duration": 0.10902259999999586,
          "durationTicks": 29,
          "midi": 59,
          "name": "B3",
          "ticks": 8490,
          "time": 31.917305999999996,
          "velocity": 0.7874015748031497
        },
        {
          "duration": 0.10902259999999586,
          "durationTicks": 29,
          "midi": 68,
          "name": "G#4",
          "ticks": 8520,
          "time": 32.030088,
          "velocity": 0.7874015748031497
        },
        {
          "duration": 0.10902260000000297,
          "durationTicks": 29,
          "midi": 59,
          "name": "B3",
          "ticks": 8550,
          "time": 32.142869999999995,
          "velocity": 0.7874015748031497
        },
        {
          "duration": 0.10902259999999586,
          "durationTicks": 29,
          "midi": 64,
          "name": "E4",
          "ticks": 8580,
          "time": 32.255652,
          "velocity": 0.7874015748031497
        },
        {
          "duration": 0.10902259999999586,
          "durationTicks": 29,
          "midi": 59,
          "name": "B3",
          "ticks": 8610,
          "time": 32.368434,
          "velocity": 0.7874015748031497
        },
        {
          "duration": 0.10902259999999586,
          "durationTicks": 29,
          "midi": 66,
          "name": "F#4",
          "ticks": 8640,
          "time": 32.481215999999996,
          "velocity": 0.7874015748031497
        },
        {
          "duration": 0.10902259999999586,
          "durationTicks": 29,
          "midi": 59,
          "name": "B3",
          "ticks": 8670,
          "time": 32.593998,
          "velocity": 0.7874015748031497
        },
        {
          "duration": 0.10902260000000297,
          "durationTicks": 29,
          "midi": 63,
          "name": "D#4",
          "ticks": 8700,
          "time": 32.706779999999995,
          "velocity": 0.7874015748031497
        },
        {
          "duration": 0.10902259999999586,
          "durationTicks": 29,
          "midi": 59,
          "name": "B3",
          "ticks": 8730,
          "time": 32.819562,
          "velocity": 0.7874015748031497
        },
        {
          "duration": 0.10902259999999586,
          "durationTicks": 29,
          "midi": 64,
          "name": "E4",
          "ticks": 8760,
          "time": 32.932344,
          "velocity": 0.7874015748031497
        },
        {
          "duration": 0.10902259999999586,
          "durationTicks": 29,
          "midi": 59,
          "name": "B3",
          "ticks": 8790,
          "time": 33.045125999999996,
          "velocity": 0.7874015748031497
        },
        {
          "duration": 0.10902259999999586,
          "durationTicks": 29,
          "midi": 63,
          "name": "D#4",
          "ticks": 8820,
          "time": 33.157908,
          "velocity": 0.7874015748031497
        },
        {
          "duration": 0.10902260000000297,
          "durationTicks": 29,
          "midi": 59,
          "name": "B3",
          "ticks": 8850,
          "time": 33.270689999999995,
          "velocity": 0.7874015748031497
        },
        {
          "duration": 0.10902259999999586,
          "durationTicks": 29,
          "midi": 64,
          "name": "E4",
          "ticks": 8880,
          "time": 33.383472,
          "velocity": 0.7874015748031497
        },
        {
          "duration": 0.10902259999999586,
          "durationTicks": 29,
          "midi": 59,
          "name": "B3",
          "ticks": 8910,
          "time": 33.496254,
          "velocity": 0.7874015748031497
        },
        {
          "duration": 0.10902259999999586,
          "durationTicks": 29,
          "midi": 63,
          "name": "D#4",
          "ticks": 8940,
          "time": 33.609035999999996,
          "velocity": 0.7874015748031497
        },
        {
          "duration": 0.10902259999999586,
          "durationTicks": 29,
          "midi": 59,
          "name": "B3",
          "ticks": 8970,
          "time": 33.721818,
          "velocity": 0.7874015748031497
        },
        {
          "duration": 0.10902260000000297,
          "durationTicks": 29,
          "midi": 64,
          "name": "E4",
          "ticks": 9000,
          "time": 33.834599999999995,
          "velocity": 0.7874015748031497
        },
        {
          "duration": 0.10902259999999586,
          "durationTicks": 29,
          "midi": 59,
          "name": "B3",
          "ticks": 9030,
          "time": 33.947382,
          "velocity": 0.7874015748031497
        },
        {
          "duration": 0.10902259999999586,
          "durationTicks": 29,
          "midi": 63,
          "name": "D#4",
          "ticks": 9060,
          "time": 34.060164,
          "velocity": 0.7874015748031497
        },
        {
          "duration": 0.10902259999999586,
          "durationTicks": 29,
          "midi": 59,
          "name": "B3",
          "ticks": 9090,
          "time": 34.172945999999996,
          "velocity": 0.7874015748031497
        },
        {
          "duration": 0.10902259999999586,
          "durationTicks": 29,
          "midi": 71,
          "name": "B4",
          "ticks": 9120,
          "time": 34.285728,
          "velocity": 0.7874015748031497
        },
        {
          "duration": 0.10902260000000297,
          "durationTicks": 29,
          "midi": 59,
          "name": "B3",
          "ticks": 9150,
          "time": 34.398509999999995,
          "velocity": 0.7874015748031497
        },
        {
          "duration": 0.10902259999999586,
          "durationTicks": 29,
          "midi": 69,
          "name": "A4",
          "ticks": 9180,
          "time": 34.511292,
          "velocity": 0.7874015748031497
        },
        {
          "duration": 0.10902259999999586,
          "durationTicks": 29,
          "midi": 59,
          "name": "B3",
          "ticks": 9210,
          "time": 34.624074,
          "velocity": 0.7874015748031497
        },
        {
          "duration": 0.10902259999999586,
          "durationTicks": 29,
          "midi": 68,
          "name": "G#4",
          "ticks": 9240,
          "time": 34.736855999999996,
          "velocity": 0.7874015748031497
        },
        {
          "duration": 0.10902259999999586,
          "durationTicks": 29,
          "midi": 59,
          "name": "B3",
          "ticks": 9270,
          "time": 34.849638,
          "velocity": 0.7874015748031497
        },
        {
          "duration": 0.10902260000000297,
          "durationTicks": 29,
          "midi": 69,
          "name": "A4",
          "ticks": 9300,
          "time": 34.962419999999995,
          "velocity": 0.7874015748031497
        },
        {
          "duration": 0.10902259999999586,
          "durationTicks": 29,
          "midi": 59,
          "name": "B3",
          "ticks": 9330,
          "time": 35.075202,
          "velocity": 0.7874015748031497
        },
        {
          "duration": 0.10902259999999586,
          "durationTicks": 29,
          "midi": 68,
          "name": "G#4",
          "ticks": 9360,
          "time": 35.187984,
          "velocity": 0.7874015748031497
        },
        {
          "duration": 0.10902259999999586,
          "durationTicks": 29,
          "midi": 59,
          "name": "B3",
          "ticks": 9390,
          "time": 35.300765999999996,
          "velocity": 0.7874015748031497
        },
        {
          "duration": 0.10902259999999586,
          "durationTicks": 29,
          "midi": 66,
          "name": "F#4",
          "ticks": 9420,
          "time": 35.413548,
          "velocity": 0.7874015748031497
        },
        {
          "duration": 0.10902260000000297,
          "durationTicks": 29,
          "midi": 59,
          "name": "B3",
          "ticks": 9450,
          "time": 35.526329999999994,
          "velocity": 0.7874015748031497
        },
        {
          "duration": 0.10902259999999586,
          "durationTicks": 29,
          "midi": 68,
          "name": "G#4",
          "ticks": 9480,
          "time": 35.639112,
          "velocity": 0.7874015748031497
        },
        {
          "duration": 0.10902259999999586,
          "durationTicks": 29,
          "midi": 59,
          "name": "B3",
          "ticks": 9510,
          "time": 35.751894,
          "velocity": 0.7874015748031497
        },
        {
          "duration": 0.10902259999999586,
          "durationTicks": 29,
          "midi": 64,
          "name": "E4",
          "ticks": 9540,
          "time": 35.864675999999996,
          "velocity": 0.7874015748031497
        },
        {
          "duration": 0.10902259999999586,
          "durationTicks": 29,
          "midi": 59,
          "name": "B3",
          "ticks": 9570,
          "time": 35.977458,
          "velocity": 0.7874015748031497
        },
        {
          "duration": 0.10902260000000297,
          "durationTicks": 29,
          "midi": 66,
          "name": "F#4",
          "ticks": 9600,
          "time": 36.090239999999994,
          "velocity": 0.7874015748031497
        },
        {
          "duration": 0.10902259999999586,
          "durationTicks": 29,
          "midi": 59,
          "name": "B3",
          "ticks": 9630,
          "time": 36.203022,
          "velocity": 0.7874015748031497
        },
        {
          "duration": 0.10902259999999586,
          "durationTicks": 29,
          "midi": 63,
          "name": "D#4",
          "ticks": 9660,
          "time": 36.315804,
          "velocity": 0.7874015748031497
        },
        {
          "duration": 0.10902259999999586,
          "durationTicks": 29,
          "midi": 59,
          "name": "B3",
          "ticks": 9690,
          "time": 36.428585999999996,
          "velocity": 0.7874015748031497
        },
        {
          "duration": 0.10902259999999586,
          "durationTicks": 29,
          "midi": 64,
          "name": "E4",
          "ticks": 9720,
          "time": 36.541368,
          "velocity": 0.7874015748031497
        },
        {
          "duration": 0.10902259999999586,
          "durationTicks": 29,
          "midi": 59,
          "name": "B3",
          "ticks": 9750,
          "time": 36.65415,
          "velocity": 0.7874015748031497
        },
        {
          "duration": 0.10902259999999586,
          "durationTicks": 29,
          "midi": 63,
          "name": "D#4",
          "ticks": 9780,
          "time": 36.766932,
          "velocity": 0.7874015748031497
        },
        {
          "duration": 0.10902259999999586,
          "durationTicks": 29,
          "midi": 59,
          "name": "B3",
          "ticks": 9810,
          "time": 36.879714,
          "velocity": 0.7874015748031497
        },
        {
          "duration": 0.10902259999999586,
          "durationTicks": 29,
          "midi": 64,
          "name": "E4",
          "ticks": 9840,
          "time": 36.992495999999996,
          "velocity": 0.7874015748031497
        },
        {
          "duration": 0.10902259999999586,
          "durationTicks": 29,
          "midi": 59,
          "name": "B3",
          "ticks": 9870,
          "time": 37.105278,
          "velocity": 0.7874015748031497
        },
        {
          "duration": 0.10902259999999586,
          "durationTicks": 29,
          "midi": 63,
          "name": "D#4",
          "ticks": 9900,
          "time": 37.21806,
          "velocity": 0.7874015748031497
        },
        {
          "duration": 0.10902259999999586,
          "durationTicks": 29,
          "midi": 59,
          "name": "B3",
          "ticks": 9930,
          "time": 37.330842,
          "velocity": 0.7874015748031497
        },
        {
          "duration": 0.10902259999999586,
          "durationTicks": 29,
          "midi": 64,
          "name": "E4",
          "ticks": 9960,
          "time": 37.443624,
          "velocity": 0.7874015748031497
        },
        {
          "duration": 0.10902259999999586,
          "durationTicks": 29,
          "midi": 59,
          "name": "B3",
          "ticks": 9990,
          "time": 37.556405999999996,
          "velocity": 0.7874015748031497
        },
        {
          "duration": 0.10902259999999586,
          "durationTicks": 29,
          "midi": 63,
          "name": "D#4",
          "ticks": 10020,
          "time": 37.669188,
          "velocity": 0.7874015748031497
        },
        {
          "duration": 0.10902259999999586,
          "durationTicks": 29,
          "midi": 59,
          "name": "B3",
          "ticks": 10050,
          "time": 37.78197,
          "velocity": 0.7874015748031497
        },
        {
          "duration": 0.10902259999999586,
          "durationTicks": 29,
          "midi": 71,
          "name": "B4",
          "ticks": 10080,
          "time": 37.894752,
          "velocity": 0.7874015748031497
        },
        {
          "duration": 0.10902259999999586,
          "durationTicks": 29,
          "midi": 59,
          "name": "B3",
          "ticks": 10110,
          "time": 38.007534,
          "velocity": 0.7874015748031497
        },
        {
          "duration": 0.10902259999999586,
          "durationTicks": 29,
          "midi": 69,
          "name": "A4",
          "ticks": 10140,
          "time": 38.120315999999995,
          "velocity": 0.7874015748031497
        },
        {
          "duration": 0.10902259999999586,
          "durationTicks": 29,
          "midi": 59,
          "name": "B3",
          "ticks": 10170,
          "time": 38.233098,
          "velocity": 0.7874015748031497
        },
        {
          "duration": 0.10902259999999586,
          "durationTicks": 29,
          "midi": 68,
          "name": "G#4",
          "ticks": 10200,
          "time": 38.34588,
          "velocity": 0.7874015748031497
        },
        {
          "duration": 0.10902259999999586,
          "durationTicks": 29,
          "midi": 59,
          "name": "B3",
          "ticks": 10230,
          "time": 38.458662,
          "velocity": 0.7874015748031497
        },
        {
          "duration": 0.10902259999999586,
          "durationTicks": 29,
          "midi": 69,
          "name": "A4",
          "ticks": 10260,
          "time": 38.571444,
          "velocity": 0.7874015748031497
        },
        {
          "duration": 0.10902259999999586,
          "durationTicks": 29,
          "midi": 59,
          "name": "B3",
          "ticks": 10290,
          "time": 38.684225999999995,
          "velocity": 0.7874015748031497
        },
        {
          "duration": 0.10902259999999586,
          "durationTicks": 29,
          "midi": 68,
          "name": "G#4",
          "ticks": 10320,
          "time": 38.797008,
          "velocity": 0.7874015748031497
        },
        {
          "duration": 0.10902259999999586,
          "durationTicks": 29,
          "midi": 59,
          "name": "B3",
          "ticks": 10350,
          "time": 38.90979,
          "velocity": 0.7874015748031497
        },
        {
          "duration": 0.10902259999999586,
          "durationTicks": 29,
          "midi": 66,
          "name": "F#4",
          "ticks": 10380,
          "time": 39.022572,
          "velocity": 0.7874015748031497
        },
        {
          "duration": 0.10902259999999586,
          "durationTicks": 29,
          "midi": 59,
          "name": "B3",
          "ticks": 10410,
          "time": 39.135354,
          "velocity": 0.7874015748031497
        },
        {
          "duration": 0.10902260000000297,
          "durationTicks": 29,
          "midi": 68,
          "name": "G#4",
          "ticks": 10440,
          "time": 39.248135999999995,
          "velocity": 0.7874015748031497
        },
        {
          "duration": 0.10902259999999586,
          "durationTicks": 29,
          "midi": 59,
          "name": "B3",
          "ticks": 10470,
          "time": 39.360918,
          "velocity": 0.7874015748031497
        },
        {
          "duration": 0.10902259999999586,
          "durationTicks": 29,
          "midi": 64,
          "name": "E4",
          "ticks": 10500,
          "time": 39.4737,
          "velocity": 0.7874015748031497
        },
        {
          "duration": 0.10902259999999586,
          "durationTicks": 29,
          "midi": 59,
          "name": "B3",
          "ticks": 10530,
          "time": 39.586482,
          "velocity": 0.7874015748031497
        },
        {
          "duration": 0.10902259999999586,
          "durationTicks": 29,
          "midi": 66,
          "name": "F#4",
          "ticks": 10560,
          "time": 39.699264,
          "velocity": 0.7874015748031497
        },
        {
          "duration": 0.10902260000000297,
          "durationTicks": 29,
          "midi": 59,
          "name": "B3",
          "ticks": 10590,
          "time": 39.812045999999995,
          "velocity": 0.7874015748031497
        },
        {
          "duration": 0.10902259999999586,
          "durationTicks": 29,
          "midi": 63,
          "name": "D#4",
          "ticks": 10620,
          "time": 39.924828,
          "velocity": 0.7874015748031497
        },
        {
          "duration": 0.10902259999999586,
          "durationTicks": 29,
          "midi": 59,
          "name": "B3",
          "ticks": 10650,
          "time": 40.03761,
          "velocity": 0.7874015748031497
        },
        {
          "duration": 0.10902259999999586,
          "durationTicks": 29,
          "midi": 64,
          "name": "E4",
          "ticks": 10680,
          "time": 40.150392,
          "velocity": 0.7874015748031497
        },
        {
          "duration": 0.10902259999999586,
          "durationTicks": 29,
          "midi": 59,
          "name": "B3",
          "ticks": 10710,
          "time": 40.263174,
          "velocity": 0.7874015748031497
        },
        {
          "duration": 0.10902260000000297,
          "durationTicks": 29,
          "midi": 63,
          "name": "D#4",
          "ticks": 10740,
          "time": 40.375955999999995,
          "velocity": 0.7874015748031497
        },
        {
          "duration": 0.10902259999999586,
          "durationTicks": 29,
          "midi": 59,
          "name": "B3",
          "ticks": 10770,
          "time": 40.488738,
          "velocity": 0.7874015748031497
        },
        {
          "duration": 0.10902259999999586,
          "durationTicks": 29,
          "midi": 64,
          "name": "E4",
          "ticks": 10800,
          "time": 40.60152,
          "velocity": 0.7874015748031497
        },
        {
          "duration": 0.10902259999999586,
          "durationTicks": 29,
          "midi": 59,
          "name": "B3",
          "ticks": 10830,
          "time": 40.714301999999996,
          "velocity": 0.7874015748031497
        },
        {
          "duration": 0.10902259999999586,
          "durationTicks": 29,
          "midi": 63,
          "name": "D#4",
          "ticks": 10860,
          "time": 40.827084,
          "velocity": 0.7874015748031497
        },
        {
          "duration": 0.10902260000000297,
          "durationTicks": 29,
          "midi": 59,
          "name": "B3",
          "ticks": 10890,
          "time": 40.939865999999995,
          "velocity": 0.7874015748031497
        },
        {
          "duration": 0.10902259999999586,
          "durationTicks": 29,
          "midi": 64,
          "name": "E4",
          "ticks": 10920,
          "time": 41.052648,
          "velocity": 0.7874015748031497
        },
        {
          "duration": 0.10902259999999586,
          "durationTicks": 29,
          "midi": 59,
          "name": "B3",
          "ticks": 10950,
          "time": 41.16543,
          "velocity": 0.7874015748031497
        },
        {
          "duration": 0.10902259999999586,
          "durationTicks": 29,
          "midi": 63,
          "name": "D#4",
          "ticks": 10980,
          "time": 41.278211999999996,
          "velocity": 0.7874015748031497
        },
        {
          "duration": 0.10902259999999586,
          "durationTicks": 29,
          "midi": 59,
          "name": "B3",
          "ticks": 11010,
          "time": 41.390994,
          "velocity": 0.7874015748031497
        },
        {
          "duration": 0.10902260000000297,
          "durationTicks": 29,
          "midi": 71,
          "name": "B4",
          "ticks": 11040,
          "time": 41.503775999999995,
          "velocity": 0.7874015748031497
        },
        {
          "duration": 0.10902259999999586,
          "durationTicks": 29,
          "midi": 59,
          "name": "B3",
          "ticks": 11070,
          "time": 41.616558,
          "velocity": 0.7874015748031497
        },
        {
          "duration": 0.10902259999999586,
          "durationTicks": 29,
          "midi": 69,
          "name": "A4",
          "ticks": 11100,
          "time": 41.72934,
          "velocity": 0.7874015748031497
        },
        {
          "duration": 0.10902259999999586,
          "durationTicks": 29,
          "midi": 59,
          "name": "B3",
          "ticks": 11130,
          "time": 41.842121999999996,
          "velocity": 0.7874015748031497
        },
        {
          "duration": 0.10902259999999586,
          "durationTicks": 29,
          "midi": 68,
          "name": "G#4",
          "ticks": 11160,
          "time": 41.954904,
          "velocity": 0.7874015748031497
        },
        {
          "duration": 0.10902260000000297,
          "durationTicks": 29,
          "midi": 59,
          "name": "B3",
          "ticks": 11190,
          "time": 42.067685999999995,
          "velocity": 0.7874015748031497
        },
        {
          "duration": 0.10902259999999586,
          "durationTicks": 29,
          "midi": 69,
          "name": "A4",
          "ticks": 11220,
          "time": 42.180468,
          "velocity": 0.7874015748031497
        },
        {
          "duration": 0.10902259999999586,
          "durationTicks": 29,
          "midi": 59,
          "name": "B3",
          "ticks": 11250,
          "time": 42.29325,
          "velocity": 0.7874015748031497
        },
        {
          "duration": 0.10902259999999586,
          "durationTicks": 29,
          "midi": 68,
          "name": "G#4",
          "ticks": 11280,
          "time": 42.406031999999996,
          "velocity": 0.7874015748031497
        },
        {
          "duration": 0.10902259999999586,
          "durationTicks": 29,
          "midi": 59,
          "name": "B3",
          "ticks": 11310,
          "time": 42.518814,
          "velocity": 0.7874015748031497
        },
        {
          "duration": 0.10902260000000297,
          "durationTicks": 29,
          "midi": 66,
          "name": "F#4",
          "ticks": 11340,
          "time": 42.631595999999995,
          "velocity": 0.7874015748031497
        },
        {
          "duration": 0.10902259999999586,
          "durationTicks": 29,
          "midi": 59,
          "name": "B3",
          "ticks": 11370,
          "time": 42.744378,
          "velocity": 0.7874015748031497
        },
        {
          "duration": 0.10902259999999586,
          "durationTicks": 29,
          "midi": 68,
          "name": "G#4",
          "ticks": 11400,
          "time": 42.85716,
          "velocity": 0.7874015748031497
        },
        {
          "duration": 0.10902259999999586,
          "durationTicks": 29,
          "midi": 59,
          "name": "B3",
          "ticks": 11430,
          "time": 42.969941999999996,
          "velocity": 0.7874015748031497
        },
        {
          "duration": 0.10902259999999586,
          "durationTicks": 29,
          "midi": 64,
          "name": "E4",
          "ticks": 11460,
          "time": 43.082724,
          "velocity": 0.7874015748031497
        },
        {
          "duration": 0.10902260000000297,
          "durationTicks": 29,
          "midi": 59,
          "name": "B3",
          "ticks": 11490,
          "time": 43.195505999999995,
          "velocity": 0.7874015748031497
        },
        {
          "duration": 0.10902259999999586,
          "durationTicks": 29,
          "midi": 66,
          "name": "F#4",
          "ticks": 11520,
          "time": 43.308288,
          "velocity": 0.7874015748031497
        },
        {
          "duration": 0.10902259999999586,
          "durationTicks": 29,
          "midi": 59,
          "name": "B3",
          "ticks": 11550,
          "time": 43.42107,
          "velocity": 0.7874015748031497
        },
        {
          "duration": 0.10902259999999586,
          "durationTicks": 29,
          "midi": 63,
          "name": "D#4",
          "ticks": 11580,
          "time": 43.533851999999996,
          "velocity": 0.7874015748031497
        },
        {
          "duration": 0.10902259999999586,
          "durationTicks": 29,
          "midi": 59,
          "name": "B3",
          "ticks": 11610,
          "time": 43.646634,
          "velocity": 0.7874015748031497
        },
        {
          "duration": 0.10902260000000297,
          "durationTicks": 29,
          "midi": 64,
          "name": "E4",
          "ticks": 11640,
          "time": 43.759415999999995,
          "velocity": 0.7874015748031497
        },
        {
          "duration": 0.10902259999999586,
          "durationTicks": 29,
          "midi": 59,
          "name": "B3",
          "ticks": 11670,
          "time": 43.872198,
          "velocity": 0.7874015748031497
        },
        {
          "duration": 0.10902259999999586,
          "durationTicks": 29,
          "midi": 63,
          "name": "D#4",
          "ticks": 11700,
          "time": 43.98498,
          "velocity": 0.7874015748031497
        },
        {
          "duration": 0.10902259999999586,
          "durationTicks": 29,
          "midi": 59,
          "name": "B3",
          "ticks": 11730,
          "time": 44.097761999999996,
          "velocity": 0.7874015748031497
        },
        {
          "duration": 0.10902259999999586,
          "durationTicks": 29,
          "midi": 64,
          "name": "E4",
          "ticks": 11760,
          "time": 44.210544,
          "velocity": 0.7874015748031497
        },
        {
          "duration": 0.10902260000000297,
          "durationTicks": 29,
          "midi": 59,
          "name": "B3",
          "ticks": 11790,
          "time": 44.323325999999994,
          "velocity": 0.7874015748031497
        },
        {
          "duration": 0.10902259999999586,
          "durationTicks": 29,
          "midi": 63,
          "name": "D#4",
          "ticks": 11820,
          "time": 44.436108,
          "velocity": 0.7874015748031497
        },
        {
          "duration": 0.10902259999999586,
          "durationTicks": 29,
          "midi": 59,
          "name": "B3",
          "ticks": 11850,
          "time": 44.54889,
          "velocity": 0.7874015748031497
        },
        {
          "duration": 0.10902259999999586,
          "durationTicks": 29,
          "midi": 64,
          "name": "E4",
          "ticks": 11880,
          "time": 44.661671999999996,
          "velocity": 0.7874015748031497
        },
        {
          "duration": 0.10902259999999586,
          "durationTicks": 29,
          "midi": 59,
          "name": "B3",
          "ticks": 11910,
          "time": 44.774454,
          "velocity": 0.7874015748031497
        },
        {
          "duration": 0.10902260000000297,
          "durationTicks": 29,
          "midi": 63,
          "name": "D#4",
          "ticks": 11940,
          "time": 44.887235999999994,
          "velocity": 0.7874015748031497
        },
        {
          "duration": 0.10902259999999586,
          "durationTicks": 29,
          "midi": 59,
          "name": "B3",
          "ticks": 11970,
          "time": 45.000018,
          "velocity": 0.7874015748031497
        },
        {
          "duration": 0.10902259999999586,
          "durationTicks": 29,
          "midi": 71,
          "name": "B4",
          "ticks": 12000,
          "time": 45.1128,
          "velocity": 0.7874015748031497
        },
        {
          "duration": 0.10902259999999586,
          "durationTicks": 29,
          "midi": 59,
          "name": "B3",
          "ticks": 12030,
          "time": 45.225581999999996,
          "velocity": 0.7874015748031497
        },
        {
          "duration": 0.10902259999999586,
          "durationTicks": 29,
          "midi": 69,
          "name": "A4",
          "ticks": 12060,
          "time": 45.338364,
          "velocity": 0.7874015748031497
        },
        {
          "duration": 0.10902260000000297,
          "durationTicks": 29,
          "midi": 59,
          "name": "B3",
          "ticks": 12090,
          "time": 45.451145999999994,
          "velocity": 0.7874015748031497
        },
        {
          "duration": 0.10902259999999586,
          "durationTicks": 29,
          "midi": 68,
          "name": "G#4",
          "ticks": 12120,
          "time": 45.563928,
          "velocity": 0.7874015748031497
        },
        {
          "duration": 0.10902259999999586,
          "durationTicks": 29,
          "midi": 59,
          "name": "B3",
          "ticks": 12150,
          "time": 45.67671,
          "velocity": 0.7874015748031497
        },
        {
          "duration": 0.10902259999999586,
          "durationTicks": 29,
          "midi": 69,
          "name": "A4",
          "ticks": 12180,
          "time": 45.789491999999996,
          "velocity": 0.7874015748031497
        },
        {
          "duration": 0.10902259999999586,
          "durationTicks": 29,
          "midi": 59,
          "name": "B3",
          "ticks": 12210,
          "time": 45.902274,
          "velocity": 0.7874015748031497
        },
        {
          "duration": 0.10902260000000297,
          "durationTicks": 29,
          "midi": 68,
          "name": "G#4",
          "ticks": 12240,
          "time": 46.015055999999994,
          "velocity": 0.7874015748031497
        },
        {
          "duration": 0.10902259999999586,
          "durationTicks": 29,
          "midi": 59,
          "name": "B3",
          "ticks": 12270,
          "time": 46.127838,
          "velocity": 0.7874015748031497
        },
        {
          "duration": 0.10902259999999586,
          "durationTicks": 29,
          "midi": 66,
          "name": "F#4",
          "ticks": 12300,
          "time": 46.24062,
          "velocity": 0.7874015748031497
        },
        {
          "duration": 0.10902259999999586,
          "durationTicks": 29,
          "midi": 59,
          "name": "B3",
          "ticks": 12330,
          "time": 46.353401999999996,
          "velocity": 0.7874015748031497
        },
        {
          "duration": 0.10902259999999586,
          "durationTicks": 29,
          "midi": 68,
          "name": "G#4",
          "ticks": 12360,
          "time": 46.466184,
          "velocity": 0.7874015748031497
        },
        {
          "duration": 0.10902260000000297,
          "durationTicks": 29,
          "midi": 59,
          "name": "B3",
          "ticks": 12390,
          "time": 46.578965999999994,
          "velocity": 0.7874015748031497
        },
        {
          "duration": 0.10902259999999586,
          "durationTicks": 29,
          "midi": 64,
          "name": "E4",
          "ticks": 12420,
          "time": 46.691748,
          "velocity": 0.7874015748031497
        },
        {
          "duration": 0.10902259999999586,
          "durationTicks": 29,
          "midi": 59,
          "name": "B3",
          "ticks": 12450,
          "time": 46.80453,
          "velocity": 0.7874015748031497
        },
        {
          "duration": 0.10902259999999586,
          "durationTicks": 29,
          "midi": 66,
          "name": "F#4",
          "ticks": 12480,
          "time": 46.917311999999995,
          "velocity": 0.7874015748031497
        },
        {
          "duration": 0.10902259999999586,
          "durationTicks": 29,
          "midi": 59,
          "name": "B3",
          "ticks": 12510,
          "time": 47.030094,
          "velocity": 0.7874015748031497
        },
        {
          "duration": 0.10902260000000297,
          "durationTicks": 29,
          "midi": 63,
          "name": "D#4",
          "ticks": 12540,
          "time": 47.142875999999994,
          "velocity": 0.7874015748031497
        },
        {
          "duration": 0.10902259999999586,
          "durationTicks": 29,
          "midi": 59,
          "name": "B3",
          "ticks": 12570,
          "time": 47.255658,
          "velocity": 0.7874015748031497
        },
        {
          "duration": 0.10902259999999586,
          "durationTicks": 29,
          "midi": 64,
          "name": "E4",
          "ticks": 12600,
          "time": 47.36844,
          "velocity": 0.7874015748031497
        },
        {
          "duration": 0.10902259999999586,
          "durationTicks": 29,
          "midi": 59,
          "name": "B3",
          "ticks": 12630,
          "time": 47.481221999999995,
          "velocity": 0.7874015748031497
        },
        {
          "duration": 0.10902259999999586,
          "durationTicks": 29,
          "midi": 63,
          "name": "D#4",
          "ticks": 12660,
          "time": 47.594004,
          "velocity": 0.7874015748031497
        },
        {
          "duration": 0.10902260000000297,
          "durationTicks": 29,
          "midi": 59,
          "name": "B3",
          "ticks": 12690,
          "time": 47.706785999999994,
          "velocity": 0.7874015748031497
        },
        {
          "duration": 0.10902259999999586,
          "durationTicks": 29,
          "midi": 64,
          "name": "E4",
          "ticks": 12720,
          "time": 47.819568,
          "velocity": 0.7874015748031497
        },
        {
          "duration": 0.10902259999999586,
          "durationTicks": 29,
          "midi": 59,
          "name": "B3",
          "ticks": 12750,
          "time": 47.93235,
          "velocity": 0.7874015748031497
        },
        {
          "duration": 0.10902259999999586,
          "durationTicks": 29,
          "midi": 63,
          "name": "D#4",
          "ticks": 12780,
          "time": 48.045131999999995,
          "velocity": 0.7874015748031497
        },
        {
          "duration": 0.10902259999999586,
          "durationTicks": 29,
          "midi": 59,
          "name": "B3",
          "ticks": 12810,
          "time": 48.157914,
          "velocity": 0.7874015748031497
        },
        {
          "duration": 0.10902260000000297,
          "durationTicks": 29,
          "midi": 64,
          "name": "E4",
          "ticks": 12840,
          "time": 48.270695999999994,
          "velocity": 0.7874015748031497
        },
        {
          "duration": 0.10902259999999586,
          "durationTicks": 29,
          "midi": 59,
          "name": "B3",
          "ticks": 12870,
          "time": 48.383478,
          "velocity": 0.7874015748031497
        },
        {
          "duration": 0.10902259999999586,
          "durationTicks": 29,
          "midi": 63,
          "name": "D#4",
          "ticks": 12900,
          "time": 48.49626,
          "velocity": 0.7874015748031497
        },
        {
          "duration": 0.10902259999999586,
          "durationTicks": 29,
          "midi": 59,
          "name": "B3",
          "ticks": 12930,
          "time": 48.609041999999995,
          "velocity": 0.7874015748031497
        },
        {
          "duration": 0.10902259999999586,
          "durationTicks": 29,
          "midi": 71,
          "name": "B4",
          "ticks": 12960,
          "time": 48.721824,
          "velocity": 0.7874015748031497
        },
        {
          "duration": 0.10902260000000297,
          "durationTicks": 29,
          "midi": 59,
          "name": "B3",
          "ticks": 12990,
          "time": 48.834605999999994,
          "velocity": 0.7874015748031497
        },
        {
          "duration": 0.10902259999999586,
          "durationTicks": 29,
          "midi": 69,
          "name": "A4",
          "ticks": 13020,
          "time": 48.947388,
          "velocity": 0.7874015748031497
        },
        {
          "duration": 0.10902259999999586,
          "durationTicks": 29,
          "midi": 59,
          "name": "B3",
          "ticks": 13050,
          "time": 49.06017,
          "velocity": 0.7874015748031497
        },
        {
          "duration": 0.10902259999999586,
          "durationTicks": 29,
          "midi": 68,
          "name": "G#4",
          "ticks": 13080,
          "time": 49.172951999999995,
          "velocity": 0.7874015748031497
        },
        {
          "duration": 0.10902259999999586,
          "durationTicks": 29,
          "midi": 59,
          "name": "B3",
          "ticks": 13110,
          "time": 49.285734,
          "velocity": 0.7874015748031497
        },
        {
          "duration": 0.10902260000000297,
          "durationTicks": 29,
          "midi": 69,
          "name": "A4",
          "ticks": 13140,
          "time": 49.398515999999994,
          "velocity": 0.7874015748031497
        },
        {
          "duration": 0.10902259999999586,
          "durationTicks": 29,
          "midi": 59,
          "name": "B3",
          "ticks": 13170,
          "time": 49.511298,
          "velocity": 0.7874015748031497
        },
        {
          "duration": 0.10902259999999586,
          "durationTicks": 29,
          "midi": 68,
          "name": "G#4",
          "ticks": 13200,
          "time": 49.62408,
          "velocity": 0.7874015748031497
        },
        {
          "duration": 0.10902259999999586,
          "durationTicks": 29,
          "midi": 59,
          "name": "B3",
          "ticks": 13230,
          "time": 49.736861999999995,
          "velocity": 0.7874015748031497
        },
        {
          "duration": 0.10902259999999586,
          "durationTicks": 29,
          "midi": 66,
          "name": "F#4",
          "ticks": 13260,
          "time": 49.849644,
          "velocity": 0.7874015748031497
        },
        {
          "duration": 0.10902260000000297,
          "durationTicks": 29,
          "midi": 59,
          "name": "B3",
          "ticks": 13290,
          "time": 49.962425999999994,
          "velocity": 0.7874015748031497
        },
        {
          "duration": 0.10902259999999586,
          "durationTicks": 29,
          "midi": 68,
          "name": "G#4",
          "ticks": 13320,
          "time": 50.075207999999996,
          "velocity": 0.7874015748031497
        },
        {
          "duration": 0.10902259999999586,
          "durationTicks": 29,
          "midi": 59,
          "name": "B3",
          "ticks": 13350,
          "time": 50.18799,
          "velocity": 0.7874015748031497
        },
        {
          "duration": 0.10902259999999586,
          "durationTicks": 29,
          "midi": 64,
          "name": "E4",
          "ticks": 13380,
          "time": 50.300771999999995,
          "velocity": 0.7874015748031497
        },
        {
          "duration": 0.10902259999999586,
          "durationTicks": 29,
          "midi": 59,
          "name": "B3",
          "ticks": 13410,
          "time": 50.413554,
          "velocity": 0.7874015748031497
        },
        {
          "duration": 0.10902259999999586,
          "durationTicks": 29,
          "midi": 66,
          "name": "F#4",
          "ticks": 13440,
          "time": 50.526336,
          "velocity": 0.7874015748031497
        },
        {
          "duration": 0.10902259999999586,
          "durationTicks": 29,
          "midi": 59,
          "name": "B3",
          "ticks": 13470,
          "time": 50.639117999999996,
          "velocity": 0.7874015748031497
        },
        {
          "duration": 0.10902259999999586,
          "durationTicks": 29,
          "midi": 63,
          "name": "D#4",
          "ticks": 13500,
          "time": 50.7519,
          "velocity": 0.7874015748031497
        },
        {
          "duration": 0.10902259999999586,
          "durationTicks": 29,
          "midi": 59,
          "name": "B3",
          "ticks": 13530,
          "time": 50.864681999999995,
          "velocity": 0.7874015748031497
        },
        {
          "duration": 0.10902259999999586,
          "durationTicks": 29,
          "midi": 64,
          "name": "E4",
          "ticks": 13560,
          "time": 50.977464,
          "velocity": 0.7874015748031497
        },
        {
          "duration": 0.10902259999999586,
          "durationTicks": 29,
          "midi": 59,
          "name": "B3",
          "ticks": 13590,
          "time": 51.090246,
          "velocity": 0.7874015748031497
        },
        {
          "duration": 0.10902259999999586,
          "durationTicks": 29,
          "midi": 63,
          "name": "D#4",
          "ticks": 13620,
          "time": 51.203027999999996,
          "velocity": 0.7874015748031497
        },
        {
          "duration": 0.10902259999999586,
          "durationTicks": 29,
          "midi": 59,
          "name": "B3",
          "ticks": 13650,
          "time": 51.31581,
          "velocity": 0.7874015748031497
        },
        {
          "duration": 0.10902259999999586,
          "durationTicks": 29,
          "midi": 64,
          "name": "E4",
          "ticks": 13680,
          "time": 51.428591999999995,
          "velocity": 0.7874015748031497
        },
        {
          "duration": 0.10902259999999586,
          "durationTicks": 29,
          "midi": 59,
          "name": "B3",
          "ticks": 13710,
          "time": 51.541374,
          "velocity": 0.7874015748031497
        },
        {
          "duration": 0.10902259999999586,
          "durationTicks": 29,
          "midi": 63,
          "name": "D#4",
          "ticks": 13740,
          "time": 51.654156,
          "velocity": 0.7874015748031497
        },
        {
          "duration": 0.10902259999999586,
          "durationTicks": 29,
          "midi": 59,
          "name": "B3",
          "ticks": 13770,
          "time": 51.766937999999996,
          "velocity": 0.7874015748031497
        },
        {
          "duration": 0.10902259999999586,
          "durationTicks": 29,
          "midi": 64,
          "name": "E4",
          "ticks": 13800,
          "time": 51.87972,
          "velocity": 0.7874015748031497
        },
        {
          "duration": 0.10902259999999586,
          "durationTicks": 29,
          "midi": 59,
          "name": "B3",
          "ticks": 13830,
          "time": 51.992501999999995,
          "velocity": 0.7874015748031497
        },
        {
          "duration": 0.10902259999999586,
          "durationTicks": 29,
          "midi": 63,
          "name": "D#4",
          "ticks": 13860,
          "time": 52.105284,
          "velocity": 0.7874015748031497
        },
        {
          "duration": 0.10902259999999586,
          "durationTicks": 29,
          "midi": 59,
          "name": "B3",
          "ticks": 13890,
          "time": 52.218066,
          "velocity": 0.7874015748031497
        },
        {
          "duration": 0.10902259999999586,
          "durationTicks": 29,
          "midi": 71,
          "name": "B4",
          "ticks": 13920,
          "time": 52.330847999999996,
          "velocity": 0.7874015748031497
        },
        {
          "duration": 0.10902259999999586,
          "durationTicks": 29,
          "midi": 59,
          "name": "B3",
          "ticks": 13950,
          "time": 52.44363,
          "velocity": 0.7874015748031497
        },
        {
          "duration": 0.10902259999999586,
          "durationTicks": 29,
          "midi": 69,
          "name": "A4",
          "ticks": 13980,
          "time": 52.556411999999995,
          "velocity": 0.7874015748031497
        },
        {
          "duration": 0.10902259999999586,
          "durationTicks": 29,
          "midi": 59,
          "name": "B3",
          "ticks": 14010,
          "time": 52.669194,
          "velocity": 0.7874015748031497
        },
        {
          "duration": 0.10902259999999586,
          "durationTicks": 29,
          "midi": 68,
          "name": "G#4",
          "ticks": 14040,
          "time": 52.781976,
          "velocity": 0.7874015748031497
        },
        {
          "duration": 0.10902259999999586,
          "durationTicks": 29,
          "midi": 59,
          "name": "B3",
          "ticks": 14070,
          "time": 52.894757999999996,
          "velocity": 0.7874015748031497
        },
        {
          "duration": 0.10902259999999586,
          "durationTicks": 29,
          "midi": 69,
          "name": "A4",
          "ticks": 14100,
          "time": 53.00754,
          "velocity": 0.7874015748031497
        },
        {
          "duration": 0.10902259999999586,
          "durationTicks": 29,
          "midi": 59,
          "name": "B3",
          "ticks": 14130,
          "time": 53.120321999999994,
          "velocity": 0.7874015748031497
        },
        {
          "duration": 0.10902259999999586,
          "durationTicks": 29,
          "midi": 68,
          "name": "G#4",
          "ticks": 14160,
          "time": 53.233104,
          "velocity": 0.7874015748031497
        },
        {
          "duration": 0.10902259999999586,
          "durationTicks": 29,
          "midi": 59,
          "name": "B3",
          "ticks": 14190,
          "time": 53.345886,
          "velocity": 0.7874015748031497
        },
        {
          "duration": 0.10902259999999586,
          "durationTicks": 29,
          "midi": 66,
          "name": "F#4",
          "ticks": 14220,
          "time": 53.458667999999996,
          "velocity": 0.7874015748031497
        },
        {
          "duration": 0.10902259999999586,
          "durationTicks": 29,
          "midi": 59,
          "name": "B3",
          "ticks": 14250,
          "time": 53.57145,
          "velocity": 0.7874015748031497
        },
        {
          "duration": 0.10902260000000297,
          "durationTicks": 29,
          "midi": 68,
          "name": "G#4",
          "ticks": 14280,
          "time": 53.684231999999994,
          "velocity": 0.7874015748031497
        },
        {
          "duration": 0.10902259999999586,
          "durationTicks": 29,
          "midi": 59,
          "name": "B3",
          "ticks": 14310,
          "time": 53.797014,
          "velocity": 0.7874015748031497
        },
        {
          "duration": 0.10902259999999586,
          "durationTicks": 29,
          "midi": 64,
          "name": "E4",
          "ticks": 14340,
          "time": 53.909796,
          "velocity": 0.7874015748031497
        },
        {
          "duration": 0.10902259999999586,
          "durationTicks": 29,
          "midi": 59,
          "name": "B3",
          "ticks": 14370,
          "time": 54.022577999999996,
          "velocity": 0.7874015748031497
        },
        {
          "duration": 0.10902259999999586,
          "durationTicks": 29,
          "midi": 66,
          "name": "F#4",
          "ticks": 14400,
          "time": 54.13536,
          "velocity": 0.7874015748031497
        },
        {
          "duration": 0.10902260000000297,
          "durationTicks": 29,
          "midi": 59,
          "name": "B3",
          "ticks": 14430,
          "time": 54.248141999999994,
          "velocity": 0.7874015748031497
        },
        {
          "duration": 0.10902259999999586,
          "durationTicks": 29,
          "midi": 63,
          "name": "D#4",
          "ticks": 14460,
          "time": 54.360924,
          "velocity": 0.7874015748031497
        },
        {
          "duration": 0.10902259999999586,
          "durationTicks": 29,
          "midi": 59,
          "name": "B3",
          "ticks": 14490,
          "time": 54.473706,
          "velocity": 0.7874015748031497
        },
        {
          "duration": 0.10902259999999586,
          "durationTicks": 29,
          "midi": 64,
          "name": "E4",
          "ticks": 14520,
          "time": 54.586487999999996,
          "velocity": 0.7874015748031497
        },
        {
          "duration": 0.10902259999999586,
          "durationTicks": 29,
          "midi": 59,
          "name": "B3",
          "ticks": 14550,
          "time": 54.69927,
          "velocity": 0.7874015748031497
        },
        {
          "duration": 0.10902260000000297,
          "durationTicks": 29,
          "midi": 63,
          "name": "D#4",
          "ticks": 14580,
          "time": 54.812051999999994,
          "velocity": 0.7874015748031497
        },
        {
          "duration": 0.10902259999999586,
          "durationTicks": 29,
          "midi": 59,
          "name": "B3",
          "ticks": 14610,
          "time": 54.924834,
          "velocity": 0.7874015748031497
        },
        {
          "duration": 0.10902259999999586,
          "durationTicks": 29,
          "midi": 64,
          "name": "E4",
          "ticks": 14640,
          "time": 55.037616,
          "velocity": 0.7874015748031497
        },
        {
          "duration": 0.10902259999999586,
          "durationTicks": 29,
          "midi": 59,
          "name": "B3",
          "ticks": 14670,
          "time": 55.150397999999996,
          "velocity": 0.7874015748031497
        },
        {
          "duration": 0.10902259999999586,
          "durationTicks": 29,
          "midi": 63,
          "name": "D#4",
          "ticks": 14700,
          "time": 55.26318,
          "velocity": 0.7874015748031497
        },
        {
          "duration": 0.10902260000000297,
          "durationTicks": 29,
          "midi": 59,
          "name": "B3",
          "ticks": 14730,
          "time": 55.375961999999994,
          "velocity": 0.7874015748031497
        },
        {
          "duration": 0.10902259999999586,
          "durationTicks": 29,
          "midi": 64,
          "name": "E4",
          "ticks": 14760,
          "time": 55.488744,
          "velocity": 0.7874015748031497
        },
        {
          "duration": 0.10902259999999586,
          "durationTicks": 29,
          "midi": 59,
          "name": "B3",
          "ticks": 14790,
          "time": 55.601526,
          "velocity": 0.7874015748031497
        },
        {
          "duration": 0.10902259999999586,
          "durationTicks": 29,
          "midi": 63,
          "name": "D#4",
          "ticks": 14820,
          "time": 55.714307999999996,
          "velocity": 0.7874015748031497
        },
        {
          "duration": 0.10902259999999586,
          "durationTicks": 29,
          "midi": 59,
          "name": "B3",
          "ticks": 14850,
          "time": 55.82709,
          "velocity": 0.7874015748031497
        },
        {
          "duration": 0.10902260000000297,
          "durationTicks": 29,
          "midi": 71,
          "name": "B4",
          "ticks": 14880,
          "time": 55.939871999999994,
          "velocity": 0.7874015748031497
        },
        {
          "duration": 0.10902259999999586,
          "durationTicks": 29,
          "midi": 59,
          "name": "B3",
          "ticks": 14910,
          "time": 56.052654,
          "velocity": 0.7874015748031497
        },
        {
          "duration": 0.10902259999999586,
          "durationTicks": 29,
          "midi": 69,
          "name": "A4",
          "ticks": 14940,
          "time": 56.165436,
          "velocity": 0.7874015748031497
        },
        {
          "duration": 0.10902259999999586,
          "durationTicks": 29,
          "midi": 59,
          "name": "B3",
          "ticks": 14970,
          "time": 56.278217999999995,
          "velocity": 0.7874015748031497
        },
        {
          "duration": 0.10902259999999586,
          "durationTicks": 29,
          "midi": 68,
          "name": "G#4",
          "ticks": 15000,
          "time": 56.391,
          "velocity": 0.7874015748031497
        },
        {
          "duration": 0.10902260000000297,
          "durationTicks": 29,
          "midi": 59,
          "name": "B3",
          "ticks": 15030,
          "time": 56.503781999999994,
          "velocity": 0.7874015748031497
        },
        {
          "duration": 0.10902259999999586,
          "durationTicks": 29,
          "midi": 69,
          "name": "A4",
          "ticks": 15060,
          "time": 56.616564,
          "velocity": 0.7874015748031497
        },
        {
          "duration": 0.10902259999999586,
          "durationTicks": 29,
          "midi": 59,
          "name": "B3",
          "ticks": 15090,
          "time": 56.729346,
          "velocity": 0.7874015748031497
        },
        {
          "duration": 0.10902259999999586,
          "durationTicks": 29,
          "midi": 68,
          "name": "G#4",
          "ticks": 15120,
          "time": 56.842127999999995,
          "velocity": 0.7874015748031497
        },
        {
          "duration": 0.10902259999999586,
          "durationTicks": 29,
          "midi": 59,
          "name": "B3",
          "ticks": 15150,
          "time": 56.95491,
          "velocity": 0.7874015748031497
        },
        {
          "duration": 0.10902260000000297,
          "durationTicks": 29,
          "midi": 66,
          "name": "F#4",
          "ticks": 15180,
          "time": 57.067691999999994,
          "velocity": 0.7874015748031497
        },
        {
          "duration": 0.10902259999999586,
          "durationTicks": 29,
          "midi": 59,
          "name": "B3",
          "ticks": 15210,
          "time": 57.180474,
          "velocity": 0.7874015748031497
        },
        {
          "duration": 0.10902259999999586,
          "durationTicks": 29,
          "midi": 68,
          "name": "G#4",
          "ticks": 15240,
          "time": 57.293256,
          "velocity": 0.7874015748031497
        },
        {
          "duration": 0.10902259999999586,
          "durationTicks": 29,
          "midi": 59,
          "name": "B3",
          "ticks": 15270,
          "time": 57.406037999999995,
          "velocity": 0.7874015748031497
        },
        {
          "duration": 0.10902259999999586,
          "durationTicks": 29,
          "midi": 64,
          "name": "E4",
          "ticks": 15300,
          "time": 57.51882,
          "velocity": 0.7874015748031497
        },
        {
          "duration": 0.10902260000000297,
          "durationTicks": 29,
          "midi": 59,
          "name": "B3",
          "ticks": 15330,
          "time": 57.631601999999994,
          "velocity": 0.7874015748031497
        },
        {
          "duration": 0.10902260000000297,
          "durationTicks": 29,
          "midi": 66,
          "name": "F#4",
          "ticks": 15360,
          "time": 57.744384,
          "velocity": 0.7874015748031497
        },
        {
          "duration": 0.10902260000000297,
          "durationTicks": 29,
          "midi": 59,
          "name": "B3",
          "ticks": 15390,
          "time": 57.857166,
          "velocity": 0.7874015748031497
        },
        {
          "duration": 0.10902260000000297,
          "durationTicks": 29,
          "midi": 63,
          "name": "D#4",
          "ticks": 15420,
          "time": 57.969947999999995,
          "velocity": 0.7874015748031497
        },
        {
          "duration": 0.10902260000000297,
          "durationTicks": 29,
          "midi": 59,
          "name": "B3",
          "ticks": 15450,
          "time": 58.08273,
          "velocity": 0.7874015748031497
        },
        {
          "duration": 0.10902260000000297,
          "durationTicks": 29,
          "midi": 64,
          "name": "E4",
          "ticks": 15480,
          "time": 58.195511999999994,
          "velocity": 0.7874015748031497
        },
        {
          "duration": 0.10902260000000297,
          "durationTicks": 29,
          "midi": 59,
          "name": "B3",
          "ticks": 15510,
          "time": 58.308294,
          "velocity": 0.7874015748031497
        },
        {
          "duration": 0.10902260000000297,
          "durationTicks": 29,
          "midi": 63,
          "name": "D#4",
          "ticks": 15540,
          "time": 58.421076,
          "velocity": 0.7874015748031497
        },
        {
          "duration": 0.10902260000000297,
          "durationTicks": 29,
          "midi": 59,
          "name": "B3",
          "ticks": 15570,
          "time": 58.533857999999995,
          "velocity": 0.7874015748031497
        },
        {
          "duration": 0.10902260000000297,
          "durationTicks": 29,
          "midi": 64,
          "name": "E4",
          "ticks": 15600,
          "time": 58.64664,
          "velocity": 0.7874015748031497
        },
        {
          "duration": 0.10902260000000297,
          "durationTicks": 29,
          "midi": 59,
          "name": "B3",
          "ticks": 15630,
          "time": 58.759421999999994,
          "velocity": 0.7874015748031497
        },
        {
          "duration": 0.10902260000000297,
          "durationTicks": 29,
          "midi": 63,
          "name": "D#4",
          "ticks": 15660,
          "time": 58.872203999999996,
          "velocity": 0.7874015748031497
        },
        {
          "duration": 0.10902260000000297,
          "durationTicks": 29,
          "midi": 59,
          "name": "B3",
          "ticks": 15690,
          "time": 58.984986,
          "velocity": 0.7874015748031497
        },
        {
          "duration": 0.10902260000000297,
          "durationTicks": 29,
          "midi": 64,
          "name": "E4",
          "ticks": 15720,
          "time": 59.097767999999995,
          "velocity": 0.7874015748031497
        },
        {
          "duration": 0.10902260000000297,
          "durationTicks": 29,
          "midi": 59,
          "name": "B3",
          "ticks": 15750,
          "time": 59.21055,
          "velocity": 0.7874015748031497
        },
        {
          "duration": 0.10902260000000297,
          "durationTicks": 29,
          "midi": 63,
          "name": "D#4",
          "ticks": 15780,
          "time": 59.32333199999999,
          "velocity": 0.7874015748031497
        },
        {
          "duration": 0.10902260000000297,
          "durationTicks": 29,
          "midi": 59,
          "name": "B3",
          "ticks": 15810,
          "time": 59.436113999999996,
          "velocity": 0.7874015748031497
        },
        {
          "duration": 0.10902260000000297,
          "durationTicks": 29,
          "midi": 71,
          "name": "B4",
          "ticks": 15840,
          "time": 59.548896,
          "velocity": 0.7874015748031497
        },
        {
          "duration": 0.10902260000000297,
          "durationTicks": 29,
          "midi": 59,
          "name": "B3",
          "ticks": 15870,
          "time": 59.661677999999995,
          "velocity": 0.7874015748031497
        },
        {
          "duration": 0.10902260000000297,
          "durationTicks": 29,
          "midi": 69,
          "name": "A4",
          "ticks": 15900,
          "time": 59.77446,
          "velocity": 0.7874015748031497
        },
        {
          "duration": 0.10902260000000297,
          "durationTicks": 29,
          "midi": 59,
          "name": "B3",
          "ticks": 15930,
          "time": 59.88724199999999,
          "velocity": 0.7874015748031497
        },
        {
          "duration": 0.10902260000000297,
          "durationTicks": 29,
          "midi": 68,
          "name": "G#4",
          "ticks": 15960,
          "time": 60.000023999999996,
          "velocity": 0.7874015748031497
        },
        {
          "duration": 0.10902260000000297,
          "durationTicks": 29,
          "midi": 59,
          "name": "B3",
          "ticks": 15990,
          "time": 60.112806,
          "velocity": 0.7874015748031497
        },
        {
          "duration": 0.10902260000000297,
          "durationTicks": 29,
          "midi": 69,
          "name": "A4",
          "ticks": 16020,
          "time": 60.225587999999995,
          "velocity": 0.7874015748031497
        },
        {
          "duration": 0.10902260000000297,
          "durationTicks": 29,
          "midi": 59,
          "name": "B3",
          "ticks": 16050,
          "time": 60.33837,
          "velocity": 0.7874015748031497
        },
        {
          "duration": 0.10902260000001007,
          "durationTicks": 29,
          "midi": 68,
          "name": "G#4",
          "ticks": 16080,
          "time": 60.45115199999999,
          "velocity": 0.7874015748031497
        },
        {
          "duration": 0.10902260000000297,
          "durationTicks": 29,
          "midi": 59,
          "name": "B3",
          "ticks": 16110,
          "time": 60.563933999999996,
          "velocity": 0.7874015748031497
        },
        {
          "duration": 0.10902260000000297,
          "durationTicks": 29,
          "midi": 66,
          "name": "F#4",
          "ticks": 16140,
          "time": 60.676716,
          "velocity": 0.7874015748031497
        },
        {
          "duration": 0.10902260000000297,
          "durationTicks": 29,
          "midi": 59,
          "name": "B3",
          "ticks": 16170,
          "time": 60.789497999999995,
          "velocity": 0.7874015748031497
        },
        {
          "duration": 0.10902260000000297,
          "durationTicks": 29,
          "midi": 68,
          "name": "G#4",
          "ticks": 16200,
          "time": 60.90228,
          "velocity": 0.7874015748031497
        },
        {
          "duration": 0.10902260000001007,
          "durationTicks": 29,
          "midi": 59,
          "name": "B3",
          "ticks": 16230,
          "time": 61.01506199999999,
          "velocity": 0.7874015748031497
        },
        {
          "duration": 0.10902260000000297,
          "durationTicks": 29,
          "midi": 64,
          "name": "E4",
          "ticks": 16260,
          "time": 61.127843999999996,
          "velocity": 0.7874015748031497
        },
        {
          "duration": 0.10902260000000297,
          "durationTicks": 29,
          "midi": 59,
          "name": "B3",
          "ticks": 16290,
          "time": 61.240626,
          "velocity": 0.7874015748031497
        },
        {
          "duration": 0.10902260000000297,
          "durationTicks": 29,
          "midi": 66,
          "name": "F#4",
          "ticks": 16320,
          "time": 61.353407999999995,
          "velocity": 0.7874015748031497
        },
        {
          "duration": 0.10902260000000297,
          "durationTicks": 29,
          "midi": 59,
          "name": "B3",
          "ticks": 16350,
          "time": 61.46619,
          "velocity": 0.7874015748031497
        },
        {
          "duration": 0.10902260000001007,
          "durationTicks": 29,
          "midi": 63,
          "name": "D#4",
          "ticks": 16380,
          "time": 61.57897199999999,
          "velocity": 0.7874015748031497
        },
        {
          "duration": 0.10902260000000297,
          "durationTicks": 29,
          "midi": 59,
          "name": "B3",
          "ticks": 16410,
          "time": 61.691753999999996,
          "velocity": 0.7874015748031497
        },
        {
          "duration": 0.10902260000000297,
          "durationTicks": 29,
          "midi": 64,
          "name": "E4",
          "ticks": 16440,
          "time": 61.804536,
          "velocity": 0.7874015748031497
        },
        {
          "duration": 0.10902260000000297,
          "durationTicks": 29,
          "midi": 59,
          "name": "B3",
          "ticks": 16470,
          "time": 61.917317999999995,
          "velocity": 0.7874015748031497
        },
        {
          "duration": 0.10902260000000297,
          "durationTicks": 29,
          "midi": 63,
          "name": "D#4",
          "ticks": 16500,
          "time": 62.0301,
          "velocity": 0.7874015748031497
        },
        {
          "duration": 0.10902260000001007,
          "durationTicks": 29,
          "midi": 59,
          "name": "B3",
          "ticks": 16530,
          "time": 62.14288199999999,
          "velocity": 0.7874015748031497
        },
        {
          "duration": 0.10902260000000297,
          "durationTicks": 29,
          "midi": 64,
          "name": "E4",
          "ticks": 16560,
          "time": 62.255663999999996,
          "velocity": 0.7874015748031497
        },
        {
          "duration": 0.10902260000000297,
          "durationTicks": 29,
          "midi": 59,
          "name": "B3",
          "ticks": 16590,
          "time": 62.368446,
          "velocity": 0.7874015748031497
        },
        {
          "duration": 0.10902260000000297,
          "durationTicks": 29,
          "midi": 63,
          "name": "D#4",
          "ticks": 16620,
          "time": 62.481227999999994,
          "velocity": 0.7874015748031497
        },
        {
          "duration": 0.10902260000000297,
          "durationTicks": 29,
          "midi": 59,
          "name": "B3",
          "ticks": 16650,
          "time": 62.59401,
          "velocity": 0.7874015748031497
        },
        {
          "duration": 0.10902260000001007,
          "durationTicks": 29,
          "midi": 64,
          "name": "E4",
          "ticks": 16680,
          "time": 62.70679199999999,
          "velocity": 0.7874015748031497
        },
        {
          "duration": 0.10902260000000297,
          "durationTicks": 29,
          "midi": 59,
          "name": "B3",
          "ticks": 16710,
          "time": 62.819573999999996,
          "velocity": 0.7874015748031497
        },
        {
          "duration": 0.10902260000000297,
          "durationTicks": 29,
          "midi": 63,
          "name": "D#4",
          "ticks": 16740,
          "time": 62.932356,
          "velocity": 0.7874015748031497
        },
        {
          "duration": 0.10902260000000297,
          "durationTicks": 29,
          "midi": 59,
          "name": "B3",
          "ticks": 16770,
          "time": 63.045137999999994,
          "velocity": 0.7874015748031497
        },
        {
          "duration": 0.10902260000000297,
          "durationTicks": 29,
          "midi": 71,
          "name": "B4",
          "ticks": 16800,
          "time": 63.15792,
          "velocity": 0.7874015748031497
        },
        {
          "duration": 0.10902260000001007,
          "durationTicks": 29,
          "midi": 59,
          "name": "B3",
          "ticks": 16830,
          "time": 63.27070199999999,
          "velocity": 0.7874015748031497
        },
        {
          "duration": 0.10902260000000297,
          "durationTicks": 29,
          "midi": 69,
          "name": "A4",
          "ticks": 16860,
          "time": 63.383483999999996,
          "velocity": 0.7874015748031497
        },
        {
          "duration": 0.10902260000000297,
          "durationTicks": 29,
          "midi": 59,
          "name": "B3",
          "ticks": 16890,
          "time": 63.496266,
          "velocity": 0.7874015748031497
        },
        {
          "duration": 0.10902260000000297,
          "durationTicks": 29,
          "midi": 68,
          "name": "G#4",
          "ticks": 16920,
          "time": 63.609047999999994,
          "velocity": 0.7874015748031497
        },
        {
          "duration": 0.10902260000000297,
          "durationTicks": 29,
          "midi": 59,
          "name": "B3",
          "ticks": 16950,
          "time": 63.72183,
          "velocity": 0.7874015748031497
        },
        {
          "duration": 0.10902260000001007,
          "durationTicks": 29,
          "midi": 69,
          "name": "A4",
          "ticks": 16980,
          "time": 63.83461199999999,
          "velocity": 0.7874015748031497
        },
        {
          "duration": 0.10902260000001007,
          "durationTicks": 29,
          "midi": 59,
          "name": "B3",
          "ticks": 17010,
          "time": 63.947393999999996,
          "velocity": 0.7874015748031497
        },
        {
          "duration": 0.10902260000000297,
          "durationTicks": 29,
          "midi": 68,
          "name": "G#4",
          "ticks": 17040,
          "time": 64.060176,
          "velocity": 0.7874015748031497
        },
        {
          "duration": 0.10902260000000297,
          "durationTicks": 29,
          "midi": 59,
          "name": "B3",
          "ticks": 17070,
          "time": 64.172958,
          "velocity": 0.7874015748031497
        },
        {
          "duration": 0.10902260000000297,
          "durationTicks": 29,
          "midi": 66,
          "name": "F#4",
          "ticks": 17100,
          "time": 64.28573999999999,
          "velocity": 0.7874015748031497
        },
        {
          "duration": 0.10902260000000297,
          "durationTicks": 29,
          "midi": 59,
          "name": "B3",
          "ticks": 17130,
          "time": 64.398522,
          "velocity": 0.7874015748031497
        },
        {
          "duration": 0.10902260000000297,
          "durationTicks": 29,
          "midi": 68,
          "name": "G#4",
          "ticks": 17160,
          "time": 64.511304,
          "velocity": 0.7874015748031497
        },
        {
          "duration": 0.10902260000000297,
          "durationTicks": 29,
          "midi": 59,
          "name": "B3",
          "ticks": 17190,
          "time": 64.62408599999999,
          "velocity": 0.7874015748031497
        },
        {
          "duration": 0.10902260000000297,
          "durationTicks": 29,
          "midi": 64,
          "name": "E4",
          "ticks": 17220,
          "time": 64.736868,
          "velocity": 0.7874015748031497
        },
        {
          "duration": 0.10902260000000297,
          "durationTicks": 29,
          "midi": 59,
          "name": "B3",
          "ticks": 17250,
          "time": 64.84965,
          "velocity": 0.7874015748031497
        },
        {
          "duration": 0.10902260000000297,
          "durationTicks": 29,
          "midi": 66,
          "name": "F#4",
          "ticks": 17280,
          "time": 64.96243199999999,
          "velocity": 0.7874015748031497
        },
        {
          "duration": 0.10902260000000297,
          "durationTicks": 29,
          "midi": 59,
          "name": "B3",
          "ticks": 17310,
          "time": 65.075214,
          "velocity": 0.7874015748031497
        },
        {
          "duration": 0.10902260000000297,
          "durationTicks": 29,
          "midi": 63,
          "name": "D#4",
          "ticks": 17340,
          "time": 65.187996,
          "velocity": 0.7874015748031497
        },
        {
          "duration": 0.10902260000000297,
          "durationTicks": 29,
          "midi": 59,
          "name": "B3",
          "ticks": 17370,
          "time": 65.300778,
          "velocity": 0.7874015748031497
        },
        {
          "duration": 0.10902260000000297,
          "durationTicks": 29,
          "midi": 64,
          "name": "E4",
          "ticks": 17400,
          "time": 65.41355999999999,
          "velocity": 0.7874015748031497
        },
        {
          "duration": 0.10902260000000297,
          "durationTicks": 29,
          "midi": 59,
          "name": "B3",
          "ticks": 17430,
          "time": 65.526342,
          "velocity": 0.7874015748031497
        },
        {
          "duration": 0.10902260000000297,
          "durationTicks": 29,
          "midi": 63,
          "name": "D#4",
          "ticks": 17460,
          "time": 65.639124,
          "velocity": 0.7874015748031497
        },
        {
          "duration": 0.10902260000000297,
          "durationTicks": 29,
          "midi": 59,
          "name": "B3",
          "ticks": 17490,
          "time": 65.75190599999999,
          "velocity": 0.7874015748031497
        },
        {
          "duration": 0.10902260000000297,
          "durationTicks": 29,
          "midi": 64,
          "name": "E4",
          "ticks": 17520,
          "time": 65.864688,
          "velocity": 0.7874015748031497
        },
        {
          "duration": 0.10902260000000297,
          "durationTicks": 29,
          "midi": 59,
          "name": "B3",
          "ticks": 17550,
          "time": 65.97747,
          "velocity": 0.7874015748031497
        },
        {
          "duration": 0.10902260000000297,
          "durationTicks": 29,
          "midi": 63,
          "name": "D#4",
          "ticks": 17580,
          "time": 66.09025199999999,
          "velocity": 0.7874015748031497
        },
        {
          "duration": 0.10902260000000297,
          "durationTicks": 29,
          "midi": 59,
          "name": "B3",
          "ticks": 17610,
          "time": 66.203034,
          "velocity": 0.7874015748031497
        },
        {
          "duration": 0.10902260000000297,
          "durationTicks": 29,
          "midi": 64,
          "name": "E4",
          "ticks": 17640,
          "time": 66.315816,
          "velocity": 0.7874015748031497
        },
        {
          "duration": 0.10902260000000297,
          "durationTicks": 29,
          "midi": 59,
          "name": "B3",
          "ticks": 17670,
          "time": 66.428598,
          "velocity": 0.7874015748031497
        },
        {
          "duration": 0.10902260000000297,
          "durationTicks": 29,
          "midi": 63,
          "name": "D#4",
          "ticks": 17700,
          "time": 66.54137999999999,
          "velocity": 0.7874015748031497
        },
        {
          "duration": 0.10902260000000297,
          "durationTicks": 29,
          "midi": 59,
          "name": "B3",
          "ticks": 17730,
          "time": 66.654162,
          "velocity": 0.7874015748031497
        },
        {
          "duration": 0.10902260000000297,
          "durationTicks": 29,
          "midi": 71,
          "name": "B4",
          "ticks": 17760,
          "time": 66.766944,
          "velocity": 0.7874015748031497
        },
        {
          "duration": 0.10902260000000297,
          "durationTicks": 29,
          "midi": 59,
          "name": "B3",
          "ticks": 17790,
          "time": 66.87972599999999,
          "velocity": 0.7874015748031497
        },
        {
          "duration": 0.10902260000000297,
          "durationTicks": 29,
          "midi": 69,
          "name": "A4",
          "ticks": 17820,
          "time": 66.992508,
          "velocity": 0.7874015748031497
        },
        {
          "duration": 0.10902260000000297,
          "durationTicks": 29,
          "midi": 59,
          "name": "B3",
          "ticks": 17850,
          "time": 67.10529,
          "velocity": 0.7874015748031497
        },
        {
          "duration": 0.10902260000000297,
          "durationTicks": 29,
          "midi": 68,
          "name": "G#4",
          "ticks": 17880,
          "time": 67.21807199999999,
          "velocity": 0.7874015748031497
        },
        {
          "duration": 0.10902260000000297,
          "durationTicks": 29,
          "midi": 59,
          "name": "B3",
          "ticks": 17910,
          "time": 67.330854,
          "velocity": 0.7874015748031497
        },
        {
          "duration": 0.10902260000000297,
          "durationTicks": 29,
          "midi": 69,
          "name": "A4",
          "ticks": 17940,
          "time": 67.443636,
          "velocity": 0.7874015748031497
        },
        {
          "duration": 0.10902260000000297,
          "durationTicks": 29,
          "midi": 59,
          "name": "B3",
          "ticks": 17970,
          "time": 67.556418,
          "velocity": 0.7874015748031497
        },
        {
          "duration": 0.10902260000001718,
          "durationTicks": 29,
          "midi": 68,
          "name": "G#4",
          "ticks": 18000,
          "time": 67.66919999999999,
          "velocity": 0.7874015748031497
        },
        {
          "duration": 0.10902260000000297,
          "durationTicks": 29,
          "midi": 59,
          "name": "B3",
          "ticks": 18030,
          "time": 67.781982,
          "velocity": 0.7874015748031497
        },
        {
          "duration": 0.10902260000000297,
          "durationTicks": 29,
          "midi": 66,
          "name": "F#4",
          "ticks": 18060,
          "time": 67.894764,
          "velocity": 0.7874015748031497
        },
        {
          "duration": 0.10902260000000297,
          "durationTicks": 29,
          "midi": 59,
          "name": "B3",
          "ticks": 18090,
          "time": 68.00754599999999,
          "velocity": 0.7874015748031497
        },
        {
          "duration": 0.10902260000000297,
          "durationTicks": 29,
          "midi": 68,
          "name": "G#4",
          "ticks": 18120,
          "time": 68.120328,
          "velocity": 0.7874015748031497
        },
        {
          "duration": 0.10902260000000297,
          "durationTicks": 29,
          "midi": 59,
          "name": "B3",
          "ticks": 18150,
          "time": 68.23311,
          "velocity": 0.7874015748031497
        },
        {
          "duration": 0.10902260000000297,
          "durationTicks": 29,
          "midi": 64,
          "name": "E4",
          "ticks": 18180,
          "time": 68.34589199999999,
          "velocity": 0.7874015748031497
        },
        {
          "duration": 0.10902260000000297,
          "durationTicks": 29,
          "midi": 59,
          "name": "B3",
          "ticks": 18210,
          "time": 68.458674,
          "velocity": 0.7874015748031497
        },
        {
          "duration": 0.10902260000000297,
          "durationTicks": 29,
          "midi": 66,
          "name": "F#4",
          "ticks": 18240,
          "time": 68.571456,
          "velocity": 0.7874015748031497
        },
        {
          "duration": 0.10902260000000297,
          "durationTicks": 29,
          "midi": 59,
          "name": "B3",
          "ticks": 18270,
          "time": 68.684238,
          "velocity": 0.7874015748031497
        },
        {
          "duration": 0.10902260000001718,
          "durationTicks": 29,
          "midi": 63,
          "name": "D#4",
          "ticks": 18300,
          "time": 68.79701999999999,
          "velocity": 0.7874015748031497
        },
        {
          "duration": 0.10902260000000297,
          "durationTicks": 29,
          "midi": 59,
          "name": "B3",
          "ticks": 18330,
          "time": 68.909802,
          "velocity": 0.7874015748031497
        },
        {
          "duration": 0.10902260000000297,
          "durationTicks": 29,
          "midi": 64,
          "name": "E4",
          "ticks": 18360,
          "time": 69.022584,
          "velocity": 0.7874015748031497
        },
        {
          "duration": 0.10902260000000297,
          "durationTicks": 29,
          "midi": 59,
          "name": "B3",
          "ticks": 18390,
          "time": 69.13536599999999,
          "velocity": 0.7874015748031497
        },
        {
          "duration": 0.10902260000000297,
          "durationTicks": 29,
          "midi": 63,
          "name": "D#4",
          "ticks": 18420,
          "time": 69.248148,
          "velocity": 0.7874015748031497
        },
        {
          "duration": 0.10902260000000297,
          "durationTicks": 29,
          "midi": 59,
          "name": "B3",
          "ticks": 18450,
          "time": 69.36093,
          "velocity": 0.7874015748031497
        },
        {
          "duration": 0.10902260000000297,
          "durationTicks": 29,
          "midi": 64,
          "name": "E4",
          "ticks": 18480,
          "time": 69.47371199999999,
          "velocity": 0.7874015748031497
        },
        {
          "duration": 0.10902260000000297,
          "durationTicks": 29,
          "midi": 59,
          "name": "B3",
          "ticks": 18510,
          "time": 69.586494,
          "velocity": 0.7874015748031497
        },
        {
          "duration": 0.10902260000000297,
          "durationTicks": 29,
          "midi": 63,
          "name": "D#4",
          "ticks": 18540,
          "time": 69.699276,
          "velocity": 0.7874015748031497
        },
        {
          "duration": 0.10902260000000297,
          "durationTicks": 29,
          "midi": 59,
          "name": "B3",
          "ticks": 18570,
          "time": 69.812058,
          "velocity": 0.7874015748031497
        },
        {
          "duration": 0.10902260000001718,
          "durationTicks": 29,
          "midi": 64,
          "name": "E4",
          "ticks": 18600,
          "time": 69.92483999999999,
          "velocity": 0.7874015748031497
        },
        {
          "duration": 0.10902260000000297,
          "durationTicks": 29,
          "midi": 59,
          "name": "B3",
          "ticks": 18630,
          "time": 70.037622,
          "velocity": 0.7874015748031497
        },
        {
          "duration": 0.10902260000000297,
          "durationTicks": 29,
          "midi": 63,
          "name": "D#4",
          "ticks": 18660,
          "time": 70.150404,
          "velocity": 0.7874015748031497
        },
        {
          "duration": 0.10902260000000297,
          "durationTicks": 29,
          "midi": 59,
          "name": "B3",
          "ticks": 18690,
          "time": 70.26318599999999,
          "velocity": 0.7874015748031497
        },
        {
          "duration": 0.10902260000000297,
          "durationTicks": 29,
          "midi": 71,
          "name": "B4",
          "ticks": 18720,
          "time": 70.375968,
          "velocity": 0.7874015748031497
        },
        {
          "duration": 0.10902260000000297,
          "durationTicks": 29,
          "midi": 59,
          "name": "B3",
          "ticks": 18750,
          "time": 70.48875,
          "velocity": 0.7874015748031497
        },
        {
          "duration": 0.10902260000000297,
          "durationTicks": 29,
          "midi": 69,
          "name": "A4",
          "ticks": 18780,
          "time": 70.60153199999999,
          "velocity": 0.7874015748031497
        },
        {
          "duration": 0.10902260000000297,
          "durationTicks": 29,
          "midi": 59,
          "name": "B3",
          "ticks": 18810,
          "time": 70.714314,
          "velocity": 0.7874015748031497
        },
        {
          "duration": 0.10902260000000297,
          "durationTicks": 29,
          "midi": 68,
          "name": "G#4",
          "ticks": 18840,
          "time": 70.827096,
          "velocity": 0.7874015748031497
        },
        {
          "duration": 0.10902260000000297,
          "durationTicks": 29,
          "midi": 59,
          "name": "B3",
          "ticks": 18870,
          "time": 70.939878,
          "velocity": 0.7874015748031497
        },
        {
          "duration": 0.10902260000001718,
          "durationTicks": 29,
          "midi": 69,
          "name": "A4",
          "ticks": 18900,
          "time": 71.05265999999999,
          "velocity": 0.7874015748031497
        },
        {
          "duration": 0.10902260000000297,
          "durationTicks": 29,
          "midi": 59,
          "name": "B3",
          "ticks": 18930,
          "time": 71.165442,
          "velocity": 0.7874015748031497
        },
        {
          "duration": 0.10902260000000297,
          "durationTicks": 29,
          "midi": 68,
          "name": "G#4",
          "ticks": 18960,
          "time": 71.278224,
          "velocity": 0.7874015748031497
        },
        {
          "duration": 0.10902260000000297,
          "durationTicks": 29,
          "midi": 59,
          "name": "B3",
          "ticks": 18990,
          "time": 71.39100599999999,
          "velocity": 0.7874015748031497
        },
        {
          "duration": 0.10902260000000297,
          "durationTicks": 29,
          "midi": 66,
          "name": "F#4",
          "ticks": 19020,
          "time": 71.503788,
          "velocity": 0.7874015748031497
        },
        {
          "duration": 0.10902260000000297,
          "durationTicks": 29,
          "midi": 59,
          "name": "B3",
          "ticks": 19050,
          "time": 71.61657,
          "velocity": 0.7874015748031497
        },
        {
          "duration": 0.10902260000000297,
          "durationTicks": 29,
          "midi": 68,
          "name": "G#4",
          "ticks": 19080,
          "time": 71.72935199999999,
          "velocity": 0.7874015748031497
        },
        {
          "duration": 0.10902260000000297,
          "durationTicks": 29,
          "midi": 59,
          "name": "B3",
          "ticks": 19110,
          "time": 71.842134,
          "velocity": 0.7874015748031497
        },
        {
          "duration": 0.10902260000000297,
          "durationTicks": 29,
          "midi": 64,
          "name": "E4",
          "ticks": 19140,
          "time": 71.954916,
          "velocity": 0.7874015748031497
        },
        {
          "duration": 0.10902260000000297,
          "durationTicks": 29,
          "midi": 59,
          "name": "B3",
          "ticks": 19170,
          "time": 72.067698,
          "velocity": 0.7874015748031497
        },
        {
          "duration": 0.10902260000001718,
          "durationTicks": 29,
          "midi": 66,
          "name": "F#4",
          "ticks": 19200,
          "time": 72.18047999999999,
          "velocity": 0.7874015748031497
        },
        {
          "duration": 0.10902260000000297,
          "durationTicks": 29,
          "midi": 59,
          "name": "B3",
          "ticks": 19230,
          "time": 72.293262,
          "velocity": 0.7874015748031497
        },
        {
          "duration": 0.10902260000000297,
          "durationTicks": 29,
          "midi": 63,
          "name": "D#4",
          "ticks": 19260,
          "time": 72.406044,
          "velocity": 0.7874015748031497
        },
        {
          "duration": 0.10902260000000297,
          "durationTicks": 29,
          "midi": 59,
          "name": "B3",
          "ticks": 19290,
          "time": 72.51882599999999,
          "velocity": 0.7874015748031497
        },
        {
          "duration": 0.10902260000000297,
          "durationTicks": 29,
          "midi": 64,
          "name": "E4",
          "ticks": 19320,
          "time": 72.631608,
          "velocity": 0.7874015748031497
        },
        {
          "duration": 0.10902260000000297,
          "durationTicks": 29,
          "midi": 59,
          "name": "B3",
          "ticks": 19350,
          "time": 72.74439,
          "velocity": 0.7874015748031497
        },
        {
          "duration": 0.10902260000000297,
          "durationTicks": 29,
          "midi": 63,
          "name": "D#4",
          "ticks": 19380,
          "time": 72.85717199999999,
          "velocity": 0.7874015748031497
        },
        {
          "duration": 0.10902260000000297,
          "durationTicks": 29,
          "midi": 59,
          "name": "B3",
          "ticks": 19410,
          "time": 72.969954,
          "velocity": 0.7874015748031497
        },
        {
          "duration": 0.10902260000000297,
          "durationTicks": 29,
          "midi": 64,
          "name": "E4",
          "ticks": 19440,
          "time": 73.082736,
          "velocity": 0.7874015748031497
        },
        {
          "duration": 0.10902260000000297,
          "durationTicks": 29,
          "midi": 59,
          "name": "B3",
          "ticks": 19470,
          "time": 73.19551799999999,
          "velocity": 0.7874015748031497
        },
        {
          "duration": 0.10902260000000297,
          "durationTicks": 29,
          "midi": 63,
          "name": "D#4",
          "ticks": 19500,
          "time": 73.3083,
          "velocity": 0.7874015748031497
        },
        {
          "duration": 0.10902260000000297,
          "durationTicks": 29,
          "midi": 59,
          "name": "B3",
          "ticks": 19530,
          "time": 73.421082,
          "velocity": 0.7874015748031497
        },
        {
          "duration": 0.10902260000000297,
          "durationTicks": 29,
          "midi": 64,
          "name": "E4",
          "ticks": 19560,
          "time": 73.533864,
          "velocity": 0.7874015748031497
        },
        {
          "duration": 0.10902260000000297,
          "durationTicks": 29,
          "midi": 59,
          "name": "B3",
          "ticks": 19590,
          "time": 73.64664599999999,
          "velocity": 0.7874015748031497
        },
        {
          "duration": 0.10902260000000297,
          "durationTicks": 29,
          "midi": 63,
          "name": "D#4",
          "ticks": 19620,
          "time": 73.759428,
          "velocity": 0.7874015748031497
        },
        {
          "duration": 0.10902260000000297,
          "durationTicks": 29,
          "midi": 59,
          "name": "B3",
          "ticks": 19650,
          "time": 73.87221,
          "velocity": 0.7874015748031497
        },
        {
          "duration": 0.10902260000000297,
          "durationTicks": 29,
          "midi": 71,
          "name": "B4",
          "ticks": 19680,
          "time": 73.98499199999999,
          "velocity": 0.7874015748031497
        },
        {
          "duration": 0.10902260000000297,
          "durationTicks": 29,
          "midi": 59,
          "name": "B3",
          "ticks": 19710,
          "time": 74.097774,
          "velocity": 0.7874015748031497
        },
        {
          "duration": 0.10902260000000297,
          "durationTicks": 29,
          "midi": 69,
          "name": "A4",
          "ticks": 19740,
          "time": 74.210556,
          "velocity": 0.7874015748031497
        },
        {
          "duration": 0.10902260000000297,
          "durationTicks": 29,
          "midi": 59,
          "name": "B3",
          "ticks": 19770,
          "time": 74.32333799999999,
          "velocity": 0.7874015748031497
        },
        {
          "duration": 0.10902260000000297,
          "durationTicks": 29,
          "midi": 68,
          "name": "G#4",
          "ticks": 19800,
          "time": 74.43612,
          "velocity": 0.7874015748031497
        },
        {
          "duration": 0.10902260000000297,
          "durationTicks": 29,
          "midi": 59,
          "name": "B3",
          "ticks": 19830,
          "time": 74.548902,
          "velocity": 0.7874015748031497
        },
        {
          "duration": 0.10902260000000297,
          "durationTicks": 29,
          "midi": 69,
          "name": "A4",
          "ticks": 19860,
          "time": 74.661684,
          "velocity": 0.7874015748031497
        },
        {
          "duration": 0.10902260000000297,
          "durationTicks": 29,
          "midi": 59,
          "name": "B3",
          "ticks": 19890,
          "time": 74.77446599999999,
          "velocity": 0.7874015748031497
        },
        {
          "duration": 0.10902260000000297,
          "durationTicks": 29,
          "midi": 68,
          "name": "G#4",
          "ticks": 19920,
          "time": 74.887248,
          "velocity": 0.7874015748031497
        },
        {
          "duration": 0.10902260000000297,
          "durationTicks": 29,
          "midi": 59,
          "name": "B3",
          "ticks": 19950,
          "time": 75.00003,
          "velocity": 0.7874015748031497
        },
        {
          "duration": 0.10902260000000297,
          "durationTicks": 29,
          "midi": 66,
          "name": "F#4",
          "ticks": 19980,
          "time": 75.11281199999999,
          "velocity": 0.7874015748031497
        },
        {
          "duration": 0.10902260000000297,
          "durationTicks": 29,
          "midi": 59,
          "name": "B3",
          "ticks": 20010,
          "time": 75.225594,
          "velocity": 0.7874015748031497
        },
        {
          "duration": 0.10902260000000297,
          "durationTicks": 29,
          "midi": 68,
          "name": "G#4",
          "ticks": 20040,
          "time": 75.338376,
          "velocity": 0.7874015748031497
        },
        {
          "duration": 0.10902260000000297,
          "durationTicks": 29,
          "midi": 59,
          "name": "B3",
          "ticks": 20070,
          "time": 75.45115799999999,
          "velocity": 0.7874015748031497
        },
        {
          "duration": 0.10902260000000297,
          "durationTicks": 29,
          "midi": 64,
          "name": "E4",
          "ticks": 20100,
          "time": 75.56394,
          "velocity": 0.7874015748031497
        },
        {
          "duration": 0.10902260000000297,
          "durationTicks": 29,
          "midi": 59,
          "name": "B3",
          "ticks": 20130,
          "time": 75.676722,
          "velocity": 0.7874015748031497
        },
        {
          "duration": 0.10902260000000297,
          "durationTicks": 29,
          "midi": 66,
          "name": "F#4",
          "ticks": 20160,
          "time": 75.789504,
          "velocity": 0.7874015748031497
        },
        {
          "duration": 0.10902260000000297,
          "durationTicks": 29,
          "midi": 59,
          "name": "B3",
          "ticks": 20190,
          "time": 75.90228599999999,
          "velocity": 0.7874015748031497
        },
        {
          "duration": 0.10902260000000297,
          "durationTicks": 29,
          "midi": 63,
          "name": "D#4",
          "ticks": 20220,
          "time": 76.015068,
          "velocity": 0.7874015748031497
        },
        {
          "duration": 0.10902260000000297,
          "durationTicks": 29,
          "midi": 59,
          "name": "B3",
          "ticks": 20250,
          "time": 76.12785,
          "velocity": 0.7874015748031497
        },
        {
          "duration": 0.10902260000000297,
          "durationTicks": 29,
          "midi": 64,
          "name": "E4",
          "ticks": 20280,
          "time": 76.24063199999999,
          "velocity": 0.7874015748031497
        },
        {
          "duration": 0.10902260000000297,
          "durationTicks": 29,
          "midi": 59,
          "name": "B3",
          "ticks": 20310,
          "time": 76.353414,
          "velocity": 0.7874015748031497
        },
        {
          "duration": 0.10902260000000297,
          "durationTicks": 29,
          "midi": 63,
          "name": "D#4",
          "ticks": 20340,
          "time": 76.466196,
          "velocity": 0.7874015748031497
        },
        {
          "duration": 0.10902260000000297,
          "durationTicks": 29,
          "midi": 59,
          "name": "B3",
          "ticks": 20370,
          "time": 76.57897799999999,
          "velocity": 0.7874015748031497
        },
        {
          "duration": 0.10902260000000297,
          "durationTicks": 29,
          "midi": 64,
          "name": "E4",
          "ticks": 20400,
          "time": 76.69176,
          "velocity": 0.7874015748031497
        },
        {
          "duration": 0.10902260000000297,
          "durationTicks": 29,
          "midi": 59,
          "name": "B3",
          "ticks": 20430,
          "time": 76.804542,
          "velocity": 0.7874015748031497
        },
        {
          "duration": 0.10902260000000297,
          "durationTicks": 29,
          "midi": 63,
          "name": "D#4",
          "ticks": 20460,
          "time": 76.917324,
          "velocity": 0.7874015748031497
        },
        {
          "duration": 0.10902260000000297,
          "durationTicks": 29,
          "midi": 59,
          "name": "B3",
          "ticks": 20490,
          "time": 77.03010599999999,
          "velocity": 0.7874015748031497
        },
        {
          "duration": 0.10902260000000297,
          "durationTicks": 29,
          "midi": 64,
          "name": "E4",
          "ticks": 20520,
          "time": 77.142888,
          "velocity": 0.7874015748031497
        },
        {
          "duration": 0.10902260000000297,
          "durationTicks": 29,
          "midi": 59,
          "name": "B3",
          "ticks": 20550,
          "time": 77.25567,
          "velocity": 0.7874015748031497
        },
        {
          "duration": 0.10902260000000297,
          "durationTicks": 29,
          "midi": 63,
          "name": "D#4",
          "ticks": 20580,
          "time": 77.36845199999999,
          "velocity": 0.7874015748031497
        },
        {
          "duration": 0.10902260000000297,
          "durationTicks": 29,
          "midi": 59,
          "name": "B3",
          "ticks": 20610,
          "time": 77.481234,
          "velocity": 0.7874015748031497
        },
        {
          "duration": 0.10902260000000297,
          "durationTicks": 29,
          "midi": 71,
          "name": "B4",
          "ticks": 20640,
          "time": 77.594016,
          "velocity": 0.7874015748031497
        },
        {
          "duration": 0.10902260000000297,
          "durationTicks": 29,
          "midi": 59,
          "name": "B3",
          "ticks": 20670,
          "time": 77.70679799999999,
          "velocity": 0.7874015748031497
        },
        {
          "duration": 0.10902260000000297,
          "durationTicks": 29,
          "midi": 69,
          "name": "A4",
          "ticks": 20700,
          "time": 77.81958,
          "velocity": 0.7874015748031497
        },
        {
          "duration": 0.10902260000000297,
          "durationTicks": 29,
          "midi": 59,
          "name": "B3",
          "ticks": 20730,
          "time": 77.932362,
          "velocity": 0.7874015748031497
        },
        {
          "duration": 0.10902260000000297,
          "durationTicks": 29,
          "midi": 68,
          "name": "G#4",
          "ticks": 20760,
          "time": 78.045144,
          "velocity": 0.7874015748031497
        },
        {
          "duration": 0.10902260000000297,
          "durationTicks": 29,
          "midi": 59,
          "name": "B3",
          "ticks": 20790,
          "time": 78.15792599999999,
          "velocity": 0.7874015748031497
        },
        {
          "duration": 0.10902260000000297,
          "durationTicks": 29,
          "midi": 69,
          "name": "A4",
          "ticks": 20820,
          "time": 78.270708,
          "velocity": 0.7874015748031497
        },
        {
          "duration": 0.10902260000000297,
          "durationTicks": 29,
          "midi": 59,
          "name": "B3",
          "ticks": 20850,
          "time": 78.38349,
          "velocity": 0.7874015748031497
        },
        {
          "duration": 0.10902260000000297,
          "durationTicks": 29,
          "midi": 68,
          "name": "G#4",
          "ticks": 20880,
          "time": 78.49627199999999,
          "velocity": 0.7874015748031497
        },
        {
          "duration": 0.10902260000000297,
          "durationTicks": 29,
          "midi": 59,
          "name": "B3",
          "ticks": 20910,
          "time": 78.609054,
          "velocity": 0.7874015748031497
        },
        {
          "duration": 0.10902260000000297,
          "durationTicks": 29,
          "midi": 66,
          "name": "F#4",
          "ticks": 20940,
          "time": 78.721836,
          "velocity": 0.7874015748031497
        },
        {
          "duration": 0.10902260000000297,
          "durationTicks": 29,
          "midi": 59,
          "name": "B3",
          "ticks": 20970,
          "time": 78.83461799999999,
          "velocity": 0.7874015748031497
        },
        {
          "duration": 0.10902260000000297,
          "durationTicks": 29,
          "midi": 68,
          "name": "G#4",
          "ticks": 21000,
          "time": 78.9474,
          "velocity": 0.7874015748031497
        },
        {
          "duration": 0.10902260000000297,
          "durationTicks": 29,
          "midi": 59,
          "name": "B3",
          "ticks": 21030,
          "time": 79.060182,
          "velocity": 0.7874015748031497
        },
        {
          "duration": 0.10902260000000297,
          "durationTicks": 29,
          "midi": 64,
          "name": "E4",
          "ticks": 21060,
          "time": 79.172964,
          "velocity": 0.7874015748031497
        },
        {
          "duration": 0.10902260000000297,
          "durationTicks": 29,
          "midi": 59,
          "name": "B3",
          "ticks": 21090,
          "time": 79.28574599999999,
          "velocity": 0.7874015748031497
        },
        {
          "duration": 0.10902260000000297,
          "durationTicks": 29,
          "midi": 66,
          "name": "F#4",
          "ticks": 21120,
          "time": 79.398528,
          "velocity": 0.7874015748031497
        },
        {
          "duration": 0.10902260000000297,
          "durationTicks": 29,
          "midi": 59,
          "name": "B3",
          "ticks": 21150,
          "time": 79.51131,
          "velocity": 0.7874015748031497
        },
        {
          "duration": 0.10902260000000297,
          "durationTicks": 29,
          "midi": 63,
          "name": "D#4",
          "ticks": 21180,
          "time": 79.62409199999999,
          "velocity": 0.7874015748031497
        },
        {
          "duration": 0.10902260000000297,
          "durationTicks": 29,
          "midi": 59,
          "name": "B3",
          "ticks": 21210,
          "time": 79.736874,
          "velocity": 0.7874015748031497
        },
        {
          "duration": 0.10902260000000297,
          "durationTicks": 29,
          "midi": 64,
          "name": "E4",
          "ticks": 21240,
          "time": 79.849656,
          "velocity": 0.7874015748031497
        },
        {
          "duration": 0.10902260000000297,
          "durationTicks": 29,
          "midi": 59,
          "name": "B3",
          "ticks": 21270,
          "time": 79.96243799999999,
          "velocity": 0.7874015748031497
        },
        {
          "duration": 0.10902260000000297,
          "durationTicks": 29,
          "midi": 63,
          "name": "D#4",
          "ticks": 21300,
          "time": 80.07522,
          "velocity": 0.7874015748031497
        },
        {
          "duration": 0.10902260000000297,
          "durationTicks": 29,
          "midi": 59,
          "name": "B3",
          "ticks": 21330,
          "time": 80.188002,
          "velocity": 0.7874015748031497
        },
        {
          "duration": 0.10902260000000297,
          "durationTicks": 29,
          "midi": 64,
          "name": "E4",
          "ticks": 21360,
          "time": 80.300784,
          "velocity": 0.7874015748031497
        },
        {
          "duration": 0.10902260000000297,
          "durationTicks": 29,
          "midi": 59,
          "name": "B3",
          "ticks": 21390,
          "time": 80.41356599999999,
          "velocity": 0.7874015748031497
        },
        {
          "duration": 0.10902260000000297,
          "durationTicks": 29,
          "midi": 63,
          "name": "D#4",
          "ticks": 21420,
          "time": 80.526348,
          "velocity": 0.7874015748031497
        },
        {
          "duration": 0.10902260000000297,
          "durationTicks": 29,
          "midi": 59,
          "name": "B3",
          "ticks": 21450,
          "time": 80.63913,
          "velocity": 0.7874015748031497
        },
        {
          "duration": 0.10902260000000297,
          "durationTicks": 29,
          "midi": 64,
          "name": "E4",
          "ticks": 21480,
          "time": 80.75191199999999,
          "velocity": 0.7874015748031497
        },
        {
          "duration": 0.10902260000000297,
          "durationTicks": 29,
          "midi": 59,
          "name": "B3",
          "ticks": 21510,
          "time": 80.864694,
          "velocity": 0.7874015748031497
        },
        {
          "duration": 0.10902260000000297,
          "durationTicks": 29,
          "midi": 63,
          "name": "D#4",
          "ticks": 21540,
          "time": 80.977476,
          "velocity": 0.7874015748031497
        },
        {
          "duration": 0.10902260000000297,
          "durationTicks": 29,
          "midi": 59,
          "name": "B3",
          "ticks": 21570,
          "time": 81.09025799999999,
          "velocity": 0.7874015748031497
        },
        {
          "duration": 0.10902260000000297,
          "durationTicks": 29,
          "midi": 71,
          "name": "B4",
          "ticks": 21600,
          "time": 81.20304,
          "velocity": 0.7874015748031497
        },
        {
          "duration": 0.10902260000000297,
          "durationTicks": 29,
          "midi": 59,
          "name": "B3",
          "ticks": 21630,
          "time": 81.315822,
          "velocity": 0.7874015748031497
        },
        {
          "duration": 0.10902260000000297,
          "durationTicks": 29,
          "midi": 69,
          "name": "A4",
          "ticks": 21660,
          "time": 81.42860399999999,
          "velocity": 0.7874015748031497
        },
        {
          "duration": 0.10902260000000297,
          "durationTicks": 29,
          "midi": 59,
          "name": "B3",
          "ticks": 21690,
          "time": 81.54138599999999,
          "velocity": 0.7874015748031497
        },
        {
          "duration": 0.10902260000000297,
          "durationTicks": 29,
          "midi": 68,
          "name": "G#4",
          "ticks": 21720,
          "time": 81.654168,
          "velocity": 0.7874015748031497
        },
        {
          "duration": 0.10902260000000297,
          "durationTicks": 29,
          "midi": 59,
          "name": "B3",
          "ticks": 21750,
          "time": 81.76695,
          "velocity": 0.7874015748031497
        },
        {
          "duration": 0.10902260000000297,
          "durationTicks": 29,
          "midi": 69,
          "name": "A4",
          "ticks": 21780,
          "time": 81.87973199999999,
          "velocity": 0.7874015748031497
        },
        {
          "duration": 0.10902260000000297,
          "durationTicks": 29,
          "midi": 59,
          "name": "B3",
          "ticks": 21810,
          "time": 81.992514,
          "velocity": 0.7874015748031497
        },
        {
          "duration": 0.10902260000000297,
          "durationTicks": 29,
          "midi": 68,
          "name": "G#4",
          "ticks": 21840,
          "time": 82.105296,
          "velocity": 0.7874015748031497
        },
        {
          "duration": 0.10902260000000297,
          "durationTicks": 29,
          "midi": 59,
          "name": "B3",
          "ticks": 21870,
          "time": 82.21807799999999,
          "velocity": 0.7874015748031497
        },
        {
          "duration": 0.10902260000000297,
          "durationTicks": 29,
          "midi": 66,
          "name": "F#4",
          "ticks": 21900,
          "time": 82.33086,
          "velocity": 0.7874015748031497
        },
        {
          "duration": 0.10902260000000297,
          "durationTicks": 29,
          "midi": 59,
          "name": "B3",
          "ticks": 21930,
          "time": 82.443642,
          "velocity": 0.7874015748031497
        },
        {
          "duration": 0.10902260000000297,
          "durationTicks": 29,
          "midi": 68,
          "name": "G#4",
          "ticks": 21960,
          "time": 82.55642399999999,
          "velocity": 0.7874015748031497
        },
        {
          "duration": 0.10902260000001718,
          "durationTicks": 29,
          "midi": 59,
          "name": "B3",
          "ticks": 21990,
          "time": 82.66920599999999,
          "velocity": 0.7874015748031497
        },
        {
          "duration": 0.10902260000000297,
          "durationTicks": 29,
          "midi": 64,
          "name": "E4",
          "ticks": 22020,
          "time": 82.781988,
          "velocity": 0.7874015748031497
        },
        {
          "duration": 0.10902260000000297,
          "durationTicks": 29,
          "midi": 59,
          "name": "B3",
          "ticks": 22050,
          "time": 82.89477,
          "velocity": 0.7874015748031497
        },
        {
          "duration": 0.10902260000000297,
          "durationTicks": 29,
          "midi": 66,
          "name": "F#4",
          "ticks": 22080,
          "time": 83.00755199999999,
          "velocity": 0.7874015748031497
        },
        {
          "duration": 0.10902260000000297,
          "durationTicks": 29,
          "midi": 59,
          "name": "B3",
          "ticks": 22110,
          "time": 83.120334,
          "velocity": 0.7874015748031497
        },
        {
          "duration": 0.10902260000000297,
          "durationTicks": 29,
          "midi": 63,
          "name": "D#4",
          "ticks": 22140,
          "time": 83.233116,
          "velocity": 0.7874015748031497
        },
        {
          "duration": 0.10902260000000297,
          "durationTicks": 29,
          "midi": 59,
          "name": "B3",
          "ticks": 22170,
          "time": 83.34589799999999,
          "velocity": 0.7874015748031497
        },
        {
          "duration": 0.10902260000000297,
          "durationTicks": 29,
          "midi": 64,
          "name": "E4",
          "ticks": 22200,
          "time": 83.45868,
          "velocity": 0.7874015748031497
        },
        {
          "duration": 0.10902260000000297,
          "durationTicks": 29,
          "midi": 59,
          "name": "B3",
          "ticks": 22230,
          "time": 83.571462,
          "velocity": 0.7874015748031497
        },
        {
          "duration": 0.10902260000000297,
          "durationTicks": 29,
          "midi": 63,
          "name": "D#4",
          "ticks": 22260,
          "time": 83.68424399999999,
          "velocity": 0.7874015748031497
        },
        {
          "duration": 0.10902260000001718,
          "durationTicks": 29,
          "midi": 59,
          "name": "B3",
          "ticks": 22290,
          "time": 83.79702599999999,
          "velocity": 0.7874015748031497
        },
        {
          "duration": 0.10902260000000297,
          "durationTicks": 29,
          "midi": 64,
          "name": "E4",
          "ticks": 22320,
          "time": 83.909808,
          "velocity": 0.7874015748031497
        },
        {
          "duration": 0.10902260000000297,
          "durationTicks": 29,
          "midi": 59,
          "name": "B3",
          "ticks": 22350,
          "time": 84.02259,
          "velocity": 0.7874015748031497
        },
        {
          "duration": 0.10902260000000297,
          "durationTicks": 29,
          "midi": 63,
          "name": "D#4",
          "ticks": 22380,
          "time": 84.13537199999999,
          "velocity": 0.7874015748031497
        },
        {
          "duration": 0.10902260000000297,
          "durationTicks": 29,
          "midi": 59,
          "name": "B3",
          "ticks": 22410,
          "time": 84.248154,
          "velocity": 0.7874015748031497
        },
        {
          "duration": 0.10902260000000297,
          "durationTicks": 29,
          "midi": 64,
          "name": "E4",
          "ticks": 22440,
          "time": 84.360936,
          "velocity": 0.7874015748031497
        },
        {
          "duration": 0.10902260000000297,
          "durationTicks": 29,
          "midi": 59,
          "name": "B3",
          "ticks": 22470,
          "time": 84.47371799999999,
          "velocity": 0.7874015748031497
        },
        {
          "duration": 0.10902260000000297,
          "durationTicks": 29,
          "midi": 63,
          "name": "D#4",
          "ticks": 22500,
          "time": 84.5865,
          "velocity": 0.7874015748031497
        },
        {
          "duration": 0.10902260000000297,
          "durationTicks": 29,
          "midi": 59,
          "name": "B3",
          "ticks": 22530,
          "time": 84.699282,
          "velocity": 0.7874015748031497
        },
        {
          "duration": 0.10902260000000297,
          "durationTicks": 29,
          "midi": 71,
          "name": "B4",
          "ticks": 22560,
          "time": 84.81206399999999,
          "velocity": 0.7874015748031497
        },
        {
          "duration": 0.10902260000001718,
          "durationTicks": 29,
          "midi": 59,
          "name": "B3",
          "ticks": 22590,
          "time": 84.92484599999999,
          "velocity": 0.7874015748031497
        },
        {
          "duration": 0.10902260000000297,
          "durationTicks": 29,
          "midi": 69,
          "name": "A4",
          "ticks": 22620,
          "time": 85.037628,
          "velocity": 0.7874015748031497
        },
        {
          "duration": 0.10902260000000297,
          "durationTicks": 29,
          "midi": 59,
          "name": "B3",
          "ticks": 22650,
          "time": 85.15041,
          "velocity": 0.7874015748031497
        },
        {
          "duration": 0.10902260000000297,
          "durationTicks": 29,
          "midi": 68,
          "name": "G#4",
          "ticks": 22680,
          "time": 85.26319199999999,
          "velocity": 0.7874015748031497
        },
        {
          "duration": 0.10902260000000297,
          "durationTicks": 29,
          "midi": 59,
          "name": "B3",
          "ticks": 22710,
          "time": 85.375974,
          "velocity": 0.7874015748031497
        },
        {
          "duration": 0.10902260000000297,
          "durationTicks": 29,
          "midi": 69,
          "name": "A4",
          "ticks": 22740,
          "time": 85.488756,
          "velocity": 0.7874015748031497
        },
        {
          "duration": 0.10902260000000297,
          "durationTicks": 29,
          "midi": 59,
          "name": "B3",
          "ticks": 22770,
          "time": 85.60153799999999,
          "velocity": 0.7874015748031497
        },
        {
          "duration": 0.10902260000000297,
          "durationTicks": 29,
          "midi": 68,
          "name": "G#4",
          "ticks": 22800,
          "time": 85.71432,
          "velocity": 0.7874015748031497
        },
        {
          "duration": 0.10902260000000297,
          "durationTicks": 29,
          "midi": 59,
          "name": "B3",
          "ticks": 22830,
          "time": 85.827102,
          "velocity": 0.7874015748031497
        },
        {
          "duration": 0.10902260000000297,
          "durationTicks": 29,
          "midi": 66,
          "name": "F#4",
          "ticks": 22860,
          "time": 85.93988399999999,
          "velocity": 0.7874015748031497
        },
        {
          "duration": 0.10902260000001718,
          "durationTicks": 29,
          "midi": 59,
          "name": "B3",
          "ticks": 22890,
          "time": 86.05266599999999,
          "velocity": 0.7874015748031497
        },
        {
          "duration": 0.10902260000000297,
          "durationTicks": 29,
          "midi": 68,
          "name": "G#4",
          "ticks": 22920,
          "time": 86.165448,
          "velocity": 0.7874015748031497
        },
        {
          "duration": 0.10902260000000297,
          "durationTicks": 29,
          "midi": 59,
          "name": "B3",
          "ticks": 22950,
          "time": 86.27823,
          "velocity": 0.7874015748031497
        },
        {
          "duration": 0.10902260000000297,
          "durationTicks": 29,
          "midi": 64,
          "name": "E4",
          "ticks": 22980,
          "time": 86.39101199999999,
          "velocity": 0.7874015748031497
        },
        {
          "duration": 0.10902260000000297,
          "durationTicks": 29,
          "midi": 59,
          "name": "B3",
          "ticks": 23010,
          "time": 86.503794,
          "velocity": 0.7874015748031497
        },
        {
          "duration": 0.10902260000000297,
          "durationTicks": 29,
          "midi": 66,
          "name": "F#4",
          "ticks": 23040,
          "time": 86.616576,
          "velocity": 0.7874015748031497
        },
        {
          "duration": 0.10902260000000297,
          "durationTicks": 29,
          "midi": 59,
          "name": "B3",
          "ticks": 23070,
          "time": 86.72935799999999,
          "velocity": 0.7874015748031497
        },
        {
          "duration": 0.10902260000000297,
          "durationTicks": 29,
          "midi": 63,
          "name": "D#4",
          "ticks": 23100,
          "time": 86.84214,
          "velocity": 0.7874015748031497
        },
        {
          "duration": 0.10902260000000297,
          "durationTicks": 29,
          "midi": 59,
          "name": "B3",
          "ticks": 23130,
          "time": 86.954922,
          "velocity": 0.7874015748031497
        },
        {
          "duration": 0.10902260000000297,
          "durationTicks": 29,
          "midi": 64,
          "name": "E4",
          "ticks": 23160,
          "time": 87.06770399999999,
          "velocity": 0.7874015748031497
        },
        {
          "duration": 0.10902260000000297,
          "durationTicks": 29,
          "midi": 59,
          "name": "B3",
          "ticks": 23190,
          "time": 87.180486,
          "velocity": 0.7874015748031497
        },
        {
          "duration": 0.10902260000000297,
          "durationTicks": 29,
          "midi": 63,
          "name": "D#4",
          "ticks": 23220,
          "time": 87.293268,
          "velocity": 0.7874015748031497
        },
        {
          "duration": 0.10902260000000297,
          "durationTicks": 29,
          "midi": 59,
          "name": "B3",
          "ticks": 23250,
          "time": 87.40605,
          "velocity": 0.7874015748031497
        },
        {
          "duration": 0.10902260000000297,
          "durationTicks": 29,
          "midi": 64,
          "name": "E4",
          "ticks": 23280,
          "time": 87.51883199999999,
          "velocity": 0.7874015748031497
        },
        {
          "duration": 0.10902260000000297,
          "durationTicks": 29,
          "midi": 59,
          "name": "B3",
          "ticks": 23310,
          "time": 87.631614,
          "velocity": 0.7874015748031497
        },
        {
          "duration": 0.10902260000000297,
          "durationTicks": 29,
          "midi": 63,
          "name": "D#4",
          "ticks": 23340,
          "time": 87.744396,
          "velocity": 0.7874015748031497
        },
        {
          "duration": 0.10902260000000297,
          "durationTicks": 29,
          "midi": 59,
          "name": "B3",
          "ticks": 23370,
          "time": 87.85717799999999,
          "velocity": 0.7874015748031497
        },
        {
          "duration": 0.10902260000000297,
          "durationTicks": 29,
          "midi": 64,
          "name": "E4",
          "ticks": 23400,
          "time": 87.96996,
          "velocity": 0.7874015748031497
        },
        {
          "duration": 0.10902260000000297,
          "durationTicks": 29,
          "midi": 59,
          "name": "B3",
          "ticks": 23430,
          "time": 88.082742,
          "velocity": 0.7874015748031497
        },
        {
          "duration": 0.10902260000000297,
          "durationTicks": 29,
          "midi": 63,
          "name": "D#4",
          "ticks": 23460,
          "time": 88.19552399999999,
          "velocity": 0.7874015748031497
        },
        {
          "duration": 0.10902260000000297,
          "durationTicks": 29,
          "midi": 59,
          "name": "B3",
          "ticks": 23490,
          "time": 88.308306,
          "velocity": 0.7874015748031497
        },
        {
          "duration": 0.10902260000000297,
          "durationTicks": 29,
          "midi": 71,
          "name": "B4",
          "ticks": 23520,
          "time": 88.421088,
          "velocity": 0.7874015748031497
        },
        {
          "duration": 0.10902260000000297,
          "durationTicks": 29,
          "midi": 59,
          "name": "B3",
          "ticks": 23550,
          "time": 88.53387,
          "velocity": 0.7874015748031497
        },
        {
          "duration": 0.10902260000000297,
          "durationTicks": 29,
          "midi": 69,
          "name": "A4",
          "ticks": 23580,
          "time": 88.64665199999999,
          "velocity": 0.7874015748031497
        },
        {
          "duration": 0.10902260000000297,
          "durationTicks": 29,
          "midi": 59,
          "name": "B3",
          "ticks": 23610,
          "time": 88.759434,
          "velocity": 0.7874015748031497
        },
        {
          "duration": 0.10902260000000297,
          "durationTicks": 29,
          "midi": 68,
          "name": "G#4",
          "ticks": 23640,
          "time": 88.872216,
          "velocity": 0.7874015748031497
        },
        {
          "duration": 0.10902260000000297,
          "durationTicks": 29,
          "midi": 59,
          "name": "B3",
          "ticks": 23670,
          "time": 88.98499799999999,
          "velocity": 0.7874015748031497
        },
        {
          "duration": 0.10902260000000297,
          "durationTicks": 29,
          "midi": 69,
          "name": "A4",
          "ticks": 23700,
          "time": 89.09778,
          "velocity": 0.7874015748031497
        },
        {
          "duration": 0.10902260000000297,
          "durationTicks": 29,
          "midi": 59,
          "name": "B3",
          "ticks": 23730,
          "time": 89.210562,
          "velocity": 0.7874015748031497
        },
        {
          "duration": 0.10902260000000297,
          "durationTicks": 29,
          "midi": 68,
          "name": "G#4",
          "ticks": 23760,
          "time": 89.32334399999999,
          "velocity": 0.7874015748031497
        },
        {
          "duration": 0.10902260000000297,
          "durationTicks": 29,
          "midi": 59,
          "name": "B3",
          "ticks": 23790,
          "time": 89.436126,
          "velocity": 0.7874015748031497
        },
        {
          "duration": 0.10902260000000297,
          "durationTicks": 29,
          "midi": 66,
          "name": "F#4",
          "ticks": 23820,
          "time": 89.548908,
          "velocity": 0.7874015748031497
        },
        {
          "duration": 0.10902260000000297,
          "durationTicks": 29,
          "midi": 59,
          "name": "B3",
          "ticks": 23850,
          "time": 89.66169,
          "velocity": 0.7874015748031497
        },
        {
          "duration": 0.10902260000000297,
          "durationTicks": 29,
          "midi": 68,
          "name": "G#4",
          "ticks": 23880,
          "time": 89.77447199999999,
          "velocity": 0.7874015748031497
        },
        {
          "duration": 0.10902260000000297,
          "durationTicks": 29,
          "midi": 59,
          "name": "B3",
          "ticks": 23910,
          "time": 89.887254,
          "velocity": 0.7874015748031497
        },
        {
          "duration": 0.10902260000000297,
          "durationTicks": 29,
          "midi": 64,
          "name": "E4",
          "ticks": 23940,
          "time": 90.000036,
          "velocity": 0.7874015748031497
        },
        {
          "duration": 0.10902260000000297,
          "durationTicks": 29,
          "midi": 59,
          "name": "B3",
          "ticks": 23970,
          "time": 90.11281799999999,
          "velocity": 0.7874015748031497
        },
        {
          "duration": 0.10902260000000297,
          "durationTicks": 29,
          "midi": 66,
          "name": "F#4",
          "ticks": 24000,
          "time": 90.2256,
          "velocity": 0.7874015748031497
        },
        {
          "duration": 0.10902260000000297,
          "durationTicks": 29,
          "midi": 59,
          "name": "B3",
          "ticks": 24030,
          "time": 90.338382,
          "velocity": 0.7874015748031497
        },
        {
          "duration": 0.10902260000000297,
          "durationTicks": 29,
          "midi": 63,
          "name": "D#4",
          "ticks": 24060,
          "time": 90.45116399999999,
          "velocity": 0.7874015748031497
        },
        {
          "duration": 0.10902260000000297,
          "durationTicks": 29,
          "midi": 59,
          "name": "B3",
          "ticks": 24090,
          "time": 90.563946,
          "velocity": 0.7874015748031497
        },
        {
          "duration": 0.10902260000000297,
          "durationTicks": 29,
          "midi": 64,
          "name": "E4",
          "ticks": 24120,
          "time": 90.676728,
          "velocity": 0.7874015748031497
        },
        {
          "duration": 0.10902260000000297,
          "durationTicks": 29,
          "midi": 59,
          "name": "B3",
          "ticks": 24150,
          "time": 90.78950999999999,
          "velocity": 0.7874015748031497
        },
        {
          "duration": 0.10902260000000297,
          "durationTicks": 29,
          "midi": 63,
          "name": "D#4",
          "ticks": 24180,
          "time": 90.90229199999999,
          "velocity": 0.7874015748031497
        },
        {
          "duration": 0.10902260000000297,
          "durationTicks": 29,
          "midi": 59,
          "name": "B3",
          "ticks": 24210,
          "time": 91.015074,
          "velocity": 0.7874015748031497
        },
        {
          "duration": 0.10902260000000297,
          "durationTicks": 29,
          "midi": 64,
          "name": "E4",
          "ticks": 24240,
          "time": 91.127856,
          "velocity": 0.7874015748031497
        },
        {
          "duration": 0.10902260000000297,
          "durationTicks": 29,
          "midi": 59,
          "name": "B3",
          "ticks": 24270,
          "time": 91.24063799999999,
          "velocity": 0.7874015748031497
        },
        {
          "duration": 0.10902260000000297,
          "durationTicks": 29,
          "midi": 63,
          "name": "D#4",
          "ticks": 24300,
          "time": 91.35342,
          "velocity": 0.7874015748031497
        },
        {
          "duration": 0.10902260000000297,
          "durationTicks": 29,
          "midi": 59,
          "name": "B3",
          "ticks": 24330,
          "time": 91.466202,
          "velocity": 0.7874015748031497
        },
        {
          "duration": 0.10902260000000297,
          "durationTicks": 29,
          "midi": 64,
          "name": "E4",
          "ticks": 24360,
          "time": 91.57898399999999,
          "velocity": 0.7874015748031497
        },
        {
          "duration": 0.10902260000000297,
          "durationTicks": 29,
          "midi": 59,
          "name": "B3",
          "ticks": 24390,
          "time": 91.691766,
          "velocity": 0.7874015748031497
        },
        {
          "duration": 0.10902260000000297,
          "durationTicks": 29,
          "midi": 63,
          "name": "D#4",
          "ticks": 24420,
          "time": 91.804548,
          "velocity": 0.7874015748031497
        },
        {
          "duration": 0.10902260000000297,
          "durationTicks": 29,
          "midi": 59,
          "name": "B3",
          "ticks": 24450,
          "time": 91.91732999999999,
          "velocity": 0.7874015748031497
        },
        {
          "duration": 0.10902260000000297,
          "durationTicks": 29,
          "midi": 71,
          "name": "B4",
          "ticks": 24480,
          "time": 92.03011199999999,
          "velocity": 0.7874015748031497
        },
        {
          "duration": 0.10902260000000297,
          "durationTicks": 29,
          "midi": 59,
          "name": "B3",
          "ticks": 24510,
          "time": 92.142894,
          "velocity": 0.7874015748031497
        },
        {
          "duration": 0.10902260000000297,
          "durationTicks": 29,
          "midi": 69,
          "name": "A4",
          "ticks": 24540,
          "time": 92.255676,
          "velocity": 0.7874015748031497
        },
        {
          "duration": 0.10902260000000297,
          "durationTicks": 29,
          "midi": 59,
          "name": "B3",
          "ticks": 24570,
          "time": 92.36845799999999,
          "velocity": 0.7874015748031497
        },
        {
          "duration": 0.10902260000000297,
          "durationTicks": 29,
          "midi": 68,
          "name": "G#4",
          "ticks": 24600,
          "time": 92.48124,
          "velocity": 0.7874015748031497
        },
        {
          "duration": 0.10902260000000297,
          "durationTicks": 29,
          "midi": 59,
          "name": "B3",
          "ticks": 24630,
          "time": 92.594022,
          "velocity": 0.7874015748031497
        },
        {
          "duration": 0.10902260000000297,
          "durationTicks": 29,
          "midi": 69,
          "name": "A4",
          "ticks": 24660,
          "time": 92.70680399999999,
          "velocity": 0.7874015748031497
        },
        {
          "duration": 0.10902260000000297,
          "durationTicks": 29,
          "midi": 59,
          "name": "B3",
          "ticks": 24690,
          "time": 92.819586,
          "velocity": 0.7874015748031497
        },
        {
          "duration": 0.10902260000000297,
          "durationTicks": 29,
          "midi": 68,
          "name": "G#4",
          "ticks": 24720,
          "time": 92.932368,
          "velocity": 0.7874015748031497
        },
        {
          "duration": 0.10902260000000297,
          "durationTicks": 29,
          "midi": 59,
          "name": "B3",
          "ticks": 24750,
          "time": 93.04514999999999,
          "velocity": 0.7874015748031497
        },
        {
          "duration": 0.10902260000000297,
          "durationTicks": 29,
          "midi": 66,
          "name": "F#4",
          "ticks": 24780,
          "time": 93.15793199999999,
          "velocity": 0.7874015748031497
        },
        {
          "duration": 0.10902260000000297,
          "durationTicks": 29,
          "midi": 59,
          "name": "B3",
          "ticks": 24810,
          "time": 93.270714,
          "velocity": 0.7874015748031497
        },
        {
          "duration": 0.10902260000000297,
          "durationTicks": 29,
          "midi": 68,
          "name": "G#4",
          "ticks": 24840,
          "time": 93.383496,
          "velocity": 0.7874015748031497
        },
        {
          "duration": 0.10902260000000297,
          "durationTicks": 29,
          "midi": 59,
          "name": "B3",
          "ticks": 24870,
          "time": 93.49627799999999,
          "velocity": 0.7874015748031497
        },
        {
          "duration": 0.10902260000000297,
          "durationTicks": 29,
          "midi": 64,
          "name": "E4",
          "ticks": 24900,
          "time": 93.60906,
          "velocity": 0.7874015748031497
        },
        {
          "duration": 0.10902260000000297,
          "durationTicks": 29,
          "midi": 59,
          "name": "B3",
          "ticks": 24930,
          "time": 93.721842,
          "velocity": 0.7874015748031497
        },
        {
          "duration": 0.10902260000000297,
          "durationTicks": 29,
          "midi": 66,
          "name": "F#4",
          "ticks": 24960,
          "time": 93.83462399999999,
          "velocity": 0.7874015748031497
        },
        {
          "duration": 0.10902260000000297,
          "durationTicks": 29,
          "midi": 59,
          "name": "B3",
          "ticks": 24990,
          "time": 93.947406,
          "velocity": 0.7874015748031497
        },
        {
          "duration": 0.10902260000000297,
          "durationTicks": 29,
          "midi": 63,
          "name": "D#4",
          "ticks": 25020,
          "time": 94.060188,
          "velocity": 0.7874015748031497
        },
        {
          "duration": 0.10902260000000297,
          "durationTicks": 29,
          "midi": 59,
          "name": "B3",
          "ticks": 25050,
          "time": 94.17296999999999,
          "velocity": 0.7874015748031497
        },
        {
          "duration": 0.10902260000000297,
          "durationTicks": 29,
          "midi": 64,
          "name": "E4",
          "ticks": 25080,
          "time": 94.28575199999999,
          "velocity": 0.7874015748031497
        },
        {
          "duration": 0.10902260000000297,
          "durationTicks": 29,
          "midi": 59,
          "name": "B3",
          "ticks": 25110,
          "time": 94.398534,
          "velocity": 0.7874015748031497
        },
        {
          "duration": 0.10902260000000297,
          "durationTicks": 29,
          "midi": 63,
          "name": "D#4",
          "ticks": 25140,
          "time": 94.511316,
          "velocity": 0.7874015748031497
        },
        {
          "duration": 0.10902260000000297,
          "durationTicks": 29,
          "midi": 59,
          "name": "B3",
          "ticks": 25170,
          "time": 94.62409799999999,
          "velocity": 0.7874015748031497
        },
        {
          "duration": 0.10902260000000297,
          "durationTicks": 29,
          "midi": 64,
          "name": "E4",
          "ticks": 25200,
          "time": 94.73688,
          "velocity": 0.7874015748031497
        },
        {
          "duration": 0.10902260000000297,
          "durationTicks": 29,
          "midi": 59,
          "name": "B3",
          "ticks": 25230,
          "time": 94.849662,
          "velocity": 0.7874015748031497
        },
        {
          "duration": 0.10902260000000297,
          "durationTicks": 29,
          "midi": 63,
          "name": "D#4",
          "ticks": 25260,
          "time": 94.96244399999999,
          "velocity": 0.7874015748031497
        },
        {
          "duration": 0.10902260000000297,
          "durationTicks": 29,
          "midi": 59,
          "name": "B3",
          "ticks": 25290,
          "time": 95.075226,
          "velocity": 0.7874015748031497
        },
        {
          "duration": 0.10902260000000297,
          "durationTicks": 29,
          "midi": 64,
          "name": "E4",
          "ticks": 25320,
          "time": 95.188008,
          "velocity": 0.7874015748031497
        },
        {
          "duration": 0.10902260000000297,
          "durationTicks": 29,
          "midi": 59,
          "name": "B3",
          "ticks": 25350,
          "time": 95.30078999999999,
          "velocity": 0.7874015748031497
        },
        {
          "duration": 0.10902260000000297,
          "durationTicks": 29,
          "midi": 63,
          "name": "D#4",
          "ticks": 25380,
          "time": 95.41357199999999,
          "velocity": 0.7874015748031497
        },
        {
          "duration": 0.10902260000000297,
          "durationTicks": 29,
          "midi": 59,
          "name": "B3",
          "ticks": 25410,
          "time": 95.526354,
          "velocity": 0.7874015748031497
        },
        {
          "duration": 0.10902260000000297,
          "durationTicks": 29,
          "midi": 71,
          "name": "B4",
          "ticks": 25440,
          "time": 95.639136,
          "velocity": 0.7874015748031497
        },
        {
          "duration": 0.10902260000000297,
          "durationTicks": 29,
          "midi": 59,
          "name": "B3",
          "ticks": 25470,
          "time": 95.75191799999999,
          "velocity": 0.7874015748031497
        },
        {
          "duration": 0.10902260000000297,
          "durationTicks": 29,
          "midi": 69,
          "name": "A4",
          "ticks": 25500,
          "time": 95.8647,
          "velocity": 0.7874015748031497
        },
        {
          "duration": 0.10902260000000297,
          "durationTicks": 29,
          "midi": 59,
          "name": "B3",
          "ticks": 25530,
          "time": 95.977482,
          "velocity": 0.7874015748031497
        },
        {
          "duration": 0.10902260000000297,
          "durationTicks": 29,
          "midi": 68,
          "name": "G#4",
          "ticks": 25560,
          "time": 96.09026399999999,
          "velocity": 0.7874015748031497
        },
        {
          "duration": 0.10902260000000297,
          "durationTicks": 29,
          "midi": 59,
          "name": "B3",
          "ticks": 25590,
          "time": 96.203046,
          "velocity": 0.7874015748031497
        },
        {
          "duration": 0.10902260000000297,
          "durationTicks": 29,
          "midi": 69,
          "name": "A4",
          "ticks": 25620,
          "time": 96.315828,
          "velocity": 0.7874015748031497
        },
        {
          "duration": 0.10902260000000297,
          "durationTicks": 29,
          "midi": 59,
          "name": "B3",
          "ticks": 25650,
          "time": 96.42860999999999,
          "velocity": 0.7874015748031497
        },
        {
          "duration": 0.10902260000001718,
          "durationTicks": 29,
          "midi": 68,
          "name": "G#4",
          "ticks": 25680,
          "time": 96.54139199999999,
          "velocity": 0.7874015748031497
        },
        {
          "duration": 0.10902260000000297,
          "durationTicks": 29,
          "midi": 59,
          "name": "B3",
          "ticks": 25710,
          "time": 96.654174,
          "velocity": 0.7874015748031497
        },
        {
          "duration": 0.10902260000000297,
          "durationTicks": 29,
          "midi": 66,
          "name": "F#4",
          "ticks": 25740,
          "time": 96.766956,
          "velocity": 0.7874015748031497
        },
        {
          "duration": 0.10902260000000297,
          "durationTicks": 29,
          "midi": 59,
          "name": "B3",
          "ticks": 25770,
          "time": 96.87973799999999,
          "velocity": 0.7874015748031497
        },
        {
          "duration": 0.10902260000000297,
          "durationTicks": 29,
          "midi": 68,
          "name": "G#4",
          "ticks": 25800,
          "time": 96.99252,
          "velocity": 0.7874015748031497
        },
        {
          "duration": 0.10902260000000297,
          "durationTicks": 29,
          "midi": 59,
          "name": "B3",
          "ticks": 25830,
          "time": 97.105302,
          "velocity": 0.7874015748031497
        },
        {
          "duration": 0.10902260000000297,
          "durationTicks": 29,
          "midi": 64,
          "name": "E4",
          "ticks": 25860,
          "time": 97.21808399999999,
          "velocity": 0.7874015748031497
        },
        {
          "duration": 0.10902260000000297,
          "durationTicks": 29,
          "midi": 59,
          "name": "B3",
          "ticks": 25890,
          "time": 97.330866,
          "velocity": 0.7874015748031497
        },
        {
          "duration": 0.10902260000000297,
          "durationTicks": 29,
          "midi": 66,
          "name": "F#4",
          "ticks": 25920,
          "time": 97.443648,
          "velocity": 0.7874015748031497
        },
        {
          "duration": 0.10902260000000297,
          "durationTicks": 29,
          "midi": 59,
          "name": "B3",
          "ticks": 25950,
          "time": 97.55642999999999,
          "velocity": 0.7874015748031497
        },
        {
          "duration": 0.10902260000001718,
          "durationTicks": 29,
          "midi": 63,
          "name": "D#4",
          "ticks": 25980,
          "time": 97.66921199999999,
          "velocity": 0.7874015748031497
        },
        {
          "duration": 0.10902260000000297,
          "durationTicks": 29,
          "midi": 59,
          "name": "B3",
          "ticks": 26010,
          "time": 97.781994,
          "velocity": 0.7874015748031497
        },
        {
          "duration": 0.10902260000000297,
          "durationTicks": 29,
          "midi": 64,
          "name": "E4",
          "ticks": 26040,
          "time": 97.894776,
          "velocity": 0.7874015748031497
        },
        {
          "duration": 0.10902260000000297,
          "durationTicks": 29,
          "midi": 59,
          "name": "B3",
          "ticks": 26070,
          "time": 98.00755799999999,
          "velocity": 0.7874015748031497
        },
        {
          "duration": 0.10902260000000297,
          "durationTicks": 29,
          "midi": 63,
          "name": "D#4",
          "ticks": 26100,
          "time": 98.12034,
          "velocity": 0.7874015748031497
        },
        {
          "duration": 0.10902260000000297,
          "durationTicks": 29,
          "midi": 59,
          "name": "B3",
          "ticks": 26130,
          "time": 98.233122,
          "velocity": 0.7874015748031497
        },
        {
          "duration": 0.10902260000000297,
          "durationTicks": 29,
          "midi": 64,
          "name": "E4",
          "ticks": 26160,
          "time": 98.34590399999999,
          "velocity": 0.7874015748031497
        },
        {
          "duration": 0.10902260000000297,
          "durationTicks": 29,
          "midi": 59,
          "name": "B3",
          "ticks": 26190,
          "time": 98.458686,
          "velocity": 0.7874015748031497
        },
        {
          "duration": 0.10902260000000297,
          "durationTicks": 29,
          "midi": 63,
          "name": "D#4",
          "ticks": 26220,
          "time": 98.571468,
          "velocity": 0.7874015748031497
        },
        {
          "duration": 0.10902260000000297,
          "durationTicks": 29,
          "midi": 59,
          "name": "B3",
          "ticks": 26250,
          "time": 98.68424999999999,
          "velocity": 0.7874015748031497
        },
        {
          "duration": 0.10902260000001718,
          "durationTicks": 29,
          "midi": 64,
          "name": "E4",
          "ticks": 26280,
          "time": 98.79703199999999,
          "velocity": 0.7874015748031497
        },
        {
          "duration": 0.10902260000000297,
          "durationTicks": 29,
          "midi": 59,
          "name": "B3",
          "ticks": 26310,
          "time": 98.909814,
          "velocity": 0.7874015748031497
        },
        {
          "duration": 0.10902260000000297,
          "durationTicks": 29,
          "midi": 63,
          "name": "D#4",
          "ticks": 26340,
          "time": 99.022596,
          "velocity": 0.7874015748031497
        },
        {
          "duration": 0.10902260000000297,
          "durationTicks": 29,
          "midi": 59,
          "name": "B3",
          "ticks": 26370,
          "time": 99.13537799999999,
          "velocity": 0.7874015748031497
        },
        {
          "duration": 0.10902260000000297,
          "durationTicks": 29,
          "midi": 71,
          "name": "B4",
          "ticks": 26400,
          "time": 99.24816,
          "velocity": 0.7874015748031497
        },
        {
          "duration": 0.10902260000000297,
          "durationTicks": 29,
          "midi": 59,
          "name": "B3",
          "ticks": 26430,
          "time": 99.360942,
          "velocity": 0.7874015748031497
        },
        {
          "duration": 0.10902260000000297,
          "durationTicks": 29,
          "midi": 69,
          "name": "A4",
          "ticks": 26460,
          "time": 99.47372399999999,
          "velocity": 0.7874015748031497
        },
        {
          "duration": 0.10902260000000297,
          "durationTicks": 29,
          "midi": 59,
          "name": "B3",
          "ticks": 26490,
          "time": 99.586506,
          "velocity": 0.7874015748031497
        },
        {
          "duration": 0.10902260000000297,
          "durationTicks": 29,
          "midi": 68,
          "name": "G#4",
          "ticks": 26520,
          "time": 99.699288,
          "velocity": 0.7874015748031497
        },
        {
          "duration": 0.10902260000000297,
          "durationTicks": 29,
          "midi": 59,
          "name": "B3",
          "ticks": 26550,
          "time": 99.81206999999999,
          "velocity": 0.7874015748031497
        },
        {
          "duration": 0.10902260000001718,
          "durationTicks": 29,
          "midi": 69,
          "name": "A4",
          "ticks": 26580,
          "time": 99.92485199999999,
          "velocity": 0.7874015748031497
        },
        {
          "duration": 0.10902260000000297,
          "durationTicks": 29,
          "midi": 59,
          "name": "B3",
          "ticks": 26610,
          "time": 100.037634,
          "velocity": 0.7874015748031497
        },
        {
          "duration": 0.10902260000000297,
          "durationTicks": 29,
          "midi": 68,
          "name": "G#4",
          "ticks": 26640,
          "time": 100.15041599999999,
          "velocity": 0.7874015748031497
        },
        {
          "duration": 0.10902260000000297,
          "durationTicks": 29,
          "midi": 59,
          "name": "B3",
          "ticks": 26670,
          "time": 100.26319799999999,
          "velocity": 0.7874015748031497
        },
        {
          "duration": 0.10902260000000297,
          "durationTicks": 29,
          "midi": 66,
          "name": "F#4",
          "ticks": 26700,
          "time": 100.37598,
          "velocity": 0.7874015748031497
        },
        {
          "duration": 0.10902260000000297,
          "durationTicks": 29,
          "midi": 59,
          "name": "B3",
          "ticks": 26730,
          "time": 100.488762,
          "velocity": 0.7874015748031497
        },
        {
          "duration": 0.10902260000000297,
          "durationTicks": 29,
          "midi": 68,
          "name": "G#4",
          "ticks": 26760,
          "time": 100.60154399999999,
          "velocity": 0.7874015748031497
        },
        {
          "duration": 0.10902260000000297,
          "durationTicks": 29,
          "midi": 59,
          "name": "B3",
          "ticks": 26790,
          "time": 100.714326,
          "velocity": 0.7874015748031497
        },
        {
          "duration": 0.10902260000000297,
          "durationTicks": 29,
          "midi": 64,
          "name": "E4",
          "ticks": 26820,
          "time": 100.827108,
          "velocity": 0.7874015748031497
        },
        {
          "duration": 0.10902260000000297,
          "durationTicks": 29,
          "midi": 59,
          "name": "B3",
          "ticks": 26850,
          "time": 100.93988999999999,
          "velocity": 0.7874015748031497
        },
        {
          "duration": 0.10902260000000297,
          "durationTicks": 29,
          "midi": 66,
          "name": "F#4",
          "ticks": 26880,
          "time": 101.052672,
          "velocity": 0.7874015748031497
        },
        {
          "duration": 0.10902260000000297,
          "durationTicks": 29,
          "midi": 59,
          "name": "B3",
          "ticks": 26910,
          "time": 101.165454,
          "velocity": 0.7874015748031497
        },
        {
          "duration": 0.10902260000000297,
          "durationTicks": 29,
          "midi": 63,
          "name": "D#4",
          "ticks": 26940,
          "time": 101.27823599999999,
          "velocity": 0.7874015748031497
        },
        {
          "duration": 0.10902260000000297,
          "durationTicks": 29,
          "midi": 59,
          "name": "B3",
          "ticks": 26970,
          "time": 101.39101799999999,
          "velocity": 0.7874015748031497
        },
        {
          "duration": 0.10902260000000297,
          "durationTicks": 29,
          "midi": 64,
          "name": "E4",
          "ticks": 27000,
          "time": 101.5038,
          "velocity": 0.7874015748031497
        },
        {
          "duration": 0.10902260000000297,
          "durationTicks": 29,
          "midi": 59,
          "name": "B3",
          "ticks": 27030,
          "time": 101.616582,
          "velocity": 0.7874015748031497
        },
        {
          "duration": 0.10902260000000297,
          "durationTicks": 29,
          "midi": 63,
          "name": "D#4",
          "ticks": 27060,
          "time": 101.72936399999999,
          "velocity": 0.7874015748031497
        },
        {
          "duration": 0.10902260000000297,
          "durationTicks": 29,
          "midi": 59,
          "name": "B3",
          "ticks": 27090,
          "time": 101.842146,
          "velocity": 0.7874015748031497
        },
        {
          "duration": 0.10902260000000297,
          "durationTicks": 29,
          "midi": 64,
          "name": "E4",
          "ticks": 27120,
          "time": 101.954928,
          "velocity": 0.7874015748031497
        },
        {
          "duration": 0.10902260000000297,
          "durationTicks": 29,
          "midi": 59,
          "name": "B3",
          "ticks": 27150,
          "time": 102.06770999999999,
          "velocity": 0.7874015748031497
        },
        {
          "duration": 0.10902260000000297,
          "durationTicks": 29,
          "midi": 63,
          "name": "D#4",
          "ticks": 27180,
          "time": 102.180492,
          "velocity": 0.7874015748031497
        },
        {
          "duration": 0.10902260000000297,
          "durationTicks": 29,
          "midi": 59,
          "name": "B3",
          "ticks": 27210,
          "time": 102.293274,
          "velocity": 0.7874015748031497
        },
        {
          "duration": 0.10902260000000297,
          "durationTicks": 29,
          "midi": 64,
          "name": "E4",
          "ticks": 27240,
          "time": 102.40605599999999,
          "velocity": 0.7874015748031497
        },
        {
          "duration": 0.10902260000000297,
          "durationTicks": 29,
          "midi": 59,
          "name": "B3",
          "ticks": 27270,
          "time": 102.51883799999999,
          "velocity": 0.7874015748031497
        },
        {
          "duration": 0.10902260000000297,
          "durationTicks": 29,
          "midi": 63,
          "name": "D#4",
          "ticks": 27300,
          "time": 102.63162,
          "velocity": 0.7874015748031497
        },
        {
          "duration": 0.10902260000000297,
          "durationTicks": 29,
          "midi": 59,
          "name": "B3",
          "ticks": 27330,
          "time": 102.744402,
          "velocity": 0.7874015748031497
        },
        {
          "duration": 0.10902260000000297,
          "durationTicks": 29,
          "midi": 71,
          "name": "B4",
          "ticks": 27360,
          "time": 102.85718399999999,
          "velocity": 0.7874015748031497
        },
        {
          "duration": 0.10902260000000297,
          "durationTicks": 29,
          "midi": 59,
          "name": "B3",
          "ticks": 27390,
          "time": 102.969966,
          "velocity": 0.7874015748031497
        },
        {
          "duration": 0.10902260000000297,
          "durationTicks": 29,
          "midi": 69,
          "name": "A4",
          "ticks": 27420,
          "time": 103.082748,
          "velocity": 0.7874015748031497
        },
        {
          "duration": 0.10902260000000297,
          "durationTicks": 29,
          "midi": 59,
          "name": "B3",
          "ticks": 27450,
          "time": 103.19552999999999,
          "velocity": 0.7874015748031497
        },
        {
          "duration": 0.10902260000000297,
          "durationTicks": 29,
          "midi": 68,
          "name": "G#4",
          "ticks": 27480,
          "time": 103.308312,
          "velocity": 0.7874015748031497
        },
        {
          "duration": 0.10902260000000297,
          "durationTicks": 29,
          "midi": 59,
          "name": "B3",
          "ticks": 27510,
          "time": 103.421094,
          "velocity": 0.7874015748031497
        },
        {
          "duration": 0.10902260000000297,
          "durationTicks": 29,
          "midi": 69,
          "name": "A4",
          "ticks": 27540,
          "time": 103.53387599999999,
          "velocity": 0.7874015748031497
        },
        {
          "duration": 0.10902260000000297,
          "durationTicks": 29,
          "midi": 59,
          "name": "B3",
          "ticks": 27570,
          "time": 103.64665799999999,
          "velocity": 0.7874015748031497
        },
        {
          "duration": 0.10902260000000297,
          "durationTicks": 29,
          "midi": 68,
          "name": "G#4",
          "ticks": 27600,
          "time": 103.75944,
          "velocity": 0.7874015748031497
        },
        {
          "duration": 0.10902260000000297,
          "durationTicks": 29,
          "midi": 59,
          "name": "B3",
          "ticks": 27630,
          "time": 103.872222,
          "velocity": 0.7874015748031497
        },
        {
          "duration": 0.10902260000000297,
          "durationTicks": 29,
          "midi": 66,
          "name": "F#4",
          "ticks": 27660,
          "time": 103.98500399999999,
          "velocity": 0.7874015748031497
        },
        {
          "duration": 0.10902260000000297,
          "durationTicks": 29,
          "midi": 59,
          "name": "B3",
          "ticks": 27690,
          "time": 104.097786,
          "velocity": 0.7874015748031497
        },
        {
          "duration": 0.10902260000000297,
          "durationTicks": 29,
          "midi": 68,
          "name": "G#4",
          "ticks": 27720,
          "time": 104.210568,
          "velocity": 0.7874015748031497
        },
        {
          "duration": 0.10902260000000297,
          "durationTicks": 29,
          "midi": 59,
          "name": "B3",
          "ticks": 27750,
          "time": 104.32334999999999,
          "velocity": 0.7874015748031497
        },
        {
          "duration": 0.10902260000000297,
          "durationTicks": 29,
          "midi": 64,
          "name": "E4",
          "ticks": 27780,
          "time": 104.436132,
          "velocity": 0.7874015748031497
        },
        {
          "duration": 0.10902260000000297,
          "durationTicks": 29,
          "midi": 59,
          "name": "B3",
          "ticks": 27810,
          "time": 104.548914,
          "velocity": 0.7874015748031497
        },
        {
          "duration": 0.10902260000000297,
          "durationTicks": 29,
          "midi": 66,
          "name": "F#4",
          "ticks": 27840,
          "time": 104.66169599999999,
          "velocity": 0.7874015748031497
        },
        {
          "duration": 0.10902260000000297,
          "durationTicks": 29,
          "midi": 59,
          "name": "B3",
          "ticks": 27870,
          "time": 104.77447799999999,
          "velocity": 0.7874015748031497
        },
        {
          "duration": 0.10902260000000297,
          "durationTicks": 29,
          "midi": 63,
          "name": "D#4",
          "ticks": 27900,
          "time": 104.88726,
          "velocity": 0.7874015748031497
        },
        {
          "duration": 0.10902260000000297,
          "durationTicks": 29,
          "midi": 59,
          "name": "B3",
          "ticks": 27930,
          "time": 105.000042,
          "velocity": 0.7874015748031497
        },
        {
          "duration": 0.10902260000000297,
          "durationTicks": 29,
          "midi": 64,
          "name": "E4",
          "ticks": 27960,
          "time": 105.11282399999999,
          "velocity": 0.7874015748031497
        },
        {
          "duration": 0.10902260000000297,
          "durationTicks": 29,
          "midi": 59,
          "name": "B3",
          "ticks": 27990,
          "time": 105.225606,
          "velocity": 0.7874015748031497
        },
        {
          "duration": 0.10902260000000297,
          "durationTicks": 29,
          "midi": 63,
          "name": "D#4",
          "ticks": 28020,
          "time": 105.338388,
          "velocity": 0.7874015748031497
        },
        {
          "duration": 0.10902260000000297,
          "durationTicks": 29,
          "midi": 59,
          "name": "B3",
          "ticks": 28050,
          "time": 105.45116999999999,
          "velocity": 0.7874015748031497
        },
        {
          "duration": 0.10902260000000297,
          "durationTicks": 29,
          "midi": 64,
          "name": "E4",
          "ticks": 28080,
          "time": 105.563952,
          "velocity": 0.7874015748031497
        },
        {
          "duration": 0.10902260000000297,
          "durationTicks": 29,
          "midi": 59,
          "name": "B3",
          "ticks": 28110,
          "time": 105.676734,
          "velocity": 0.7874015748031497
        },
        {
          "duration": 0.10902260000000297,
          "durationTicks": 29,
          "midi": 63,
          "name": "D#4",
          "ticks": 28140,
          "time": 105.78951599999999,
          "velocity": 0.7874015748031497
        },
        {
          "duration": 0.10902260000000297,
          "durationTicks": 29,
          "midi": 59,
          "name": "B3",
          "ticks": 28170,
          "time": 105.90229799999999,
          "velocity": 0.7874015748031497
        },
        {
          "duration": 0.10902260000000297,
          "durationTicks": 29,
          "midi": 64,
          "name": "E4",
          "ticks": 28200,
          "time": 106.01508,
          "velocity": 0.7874015748031497
        },
        {
          "duration": 0.10902260000000297,
          "durationTicks": 29,
          "midi": 59,
          "name": "B3",
          "ticks": 28230,
          "time": 106.127862,
          "velocity": 0.7874015748031497
        },
        {
          "duration": 0.10902260000000297,
          "durationTicks": 29,
          "midi": 63,
          "name": "D#4",
          "ticks": 28260,
          "time": 106.24064399999999,
          "velocity": 0.7874015748031497
        },
        {
          "duration": 0.10902260000000297,
          "durationTicks": 29,
          "midi": 59,
          "name": "B3",
          "ticks": 28290,
          "time": 106.353426,
          "velocity": 0.7874015748031497
        },
        {
          "duration": 0.10902260000000297,
          "durationTicks": 29,
          "midi": 71,
          "name": "B4",
          "ticks": 28320,
          "time": 106.466208,
          "velocity": 0.7874015748031497
        },
        {
          "duration": 0.10902260000000297,
          "durationTicks": 29,
          "midi": 59,
          "name": "B3",
          "ticks": 28350,
          "time": 106.57898999999999,
          "velocity": 0.7874015748031497
        },
        {
          "duration": 0.10902260000000297,
          "durationTicks": 29,
          "midi": 69,
          "name": "A4",
          "ticks": 28380,
          "time": 106.691772,
          "velocity": 0.7874015748031497
        },
        {
          "duration": 0.10902260000000297,
          "durationTicks": 29,
          "midi": 59,
          "name": "B3",
          "ticks": 28410,
          "time": 106.804554,
          "velocity": 0.7874015748031497
        },
        {
          "duration": 0.10902260000000297,
          "durationTicks": 29,
          "midi": 68,
          "name": "G#4",
          "ticks": 28440,
          "time": 106.91733599999999,
          "velocity": 0.7874015748031497
        },
        {
          "duration": 0.10902260000000297,
          "durationTicks": 29,
          "midi": 59,
          "name": "B3",
          "ticks": 28470,
          "time": 107.03011799999999,
          "velocity": 0.7874015748031497
        },
        {
          "duration": 0.10902260000000297,
          "durationTicks": 29,
          "midi": 69,
          "name": "A4",
          "ticks": 28500,
          "time": 107.1429,
          "velocity": 0.7874015748031497
        },
        {
          "duration": 0.10902260000000297,
          "durationTicks": 29,
          "midi": 59,
          "name": "B3",
          "ticks": 28530,
          "time": 107.255682,
          "velocity": 0.7874015748031497
        },
        {
          "duration": 0.10902260000000297,
          "durationTicks": 29,
          "midi": 68,
          "name": "G#4",
          "ticks": 28560,
          "time": 107.36846399999999,
          "velocity": 0.7874015748031497
        },
        {
          "duration": 0.10902260000000297,
          "durationTicks": 29,
          "midi": 59,
          "name": "B3",
          "ticks": 28590,
          "time": 107.481246,
          "velocity": 0.7874015748031497
        },
        {
          "duration": 0.10902260000000297,
          "durationTicks": 29,
          "midi": 66,
          "name": "F#4",
          "ticks": 28620,
          "time": 107.594028,
          "velocity": 0.7874015748031497
        },
        {
          "duration": 0.10902260000000297,
          "durationTicks": 29,
          "midi": 59,
          "name": "B3",
          "ticks": 28650,
          "time": 107.70680999999999,
          "velocity": 0.7874015748031497
        },
        {
          "duration": 0.10902260000000297,
          "durationTicks": 29,
          "midi": 68,
          "name": "G#4",
          "ticks": 28680,
          "time": 107.819592,
          "velocity": 0.7874015748031497
        },
        {
          "duration": 0.10902260000000297,
          "durationTicks": 29,
          "midi": 59,
          "name": "B3",
          "ticks": 28710,
          "time": 107.932374,
          "velocity": 0.7874015748031497
        },
        {
          "duration": 0.10902260000000297,
          "durationTicks": 29,
          "midi": 64,
          "name": "E4",
          "ticks": 28740,
          "time": 108.04515599999999,
          "velocity": 0.7874015748031497
        },
        {
          "duration": 0.10902260000000297,
          "durationTicks": 29,
          "midi": 59,
          "name": "B3",
          "ticks": 28770,
          "time": 108.15793799999999,
          "velocity": 0.7874015748031497
        },
        {
          "duration": 0.10902260000000297,
          "durationTicks": 29,
          "midi": 66,
          "name": "F#4",
          "ticks": 28800,
          "time": 108.27072,
          "velocity": 0.7874015748031497
        },
        {
          "duration": 0.10902260000000297,
          "durationTicks": 29,
          "midi": 59,
          "name": "B3",
          "ticks": 28830,
          "time": 108.383502,
          "velocity": 0.7874015748031497
        },
        {
          "duration": 0.10902260000000297,
          "durationTicks": 29,
          "midi": 63,
          "name": "D#4",
          "ticks": 28860,
          "time": 108.49628399999999,
          "velocity": 0.7874015748031497
        },
        {
          "duration": 0.10902260000000297,
          "durationTicks": 29,
          "midi": 59,
          "name": "B3",
          "ticks": 28890,
          "time": 108.609066,
          "velocity": 0.7874015748031497
        },
        {
          "duration": 0.10902260000000297,
          "durationTicks": 29,
          "midi": 64,
          "name": "E4",
          "ticks": 28920,
          "time": 108.721848,
          "velocity": 0.7874015748031497
        },
        {
          "duration": 0.10902260000000297,
          "durationTicks": 29,
          "midi": 59,
          "name": "B3",
          "ticks": 28950,
          "time": 108.83462999999999,
          "velocity": 0.7874015748031497
        },
        {
          "duration": 0.10902260000000297,
          "durationTicks": 29,
          "midi": 63,
          "name": "D#4",
          "ticks": 28980,
          "time": 108.947412,
          "velocity": 0.7874015748031497
        },
        {
          "duration": 0.10902260000000297,
          "durationTicks": 29,
          "midi": 59,
          "name": "B3",
          "ticks": 29010,
          "time": 109.060194,
          "velocity": 0.7874015748031497
        },
        {
          "duration": 0.10902260000000297,
          "durationTicks": 29,
          "midi": 64,
          "name": "E4",
          "ticks": 29040,
          "time": 109.17297599999999,
          "velocity": 0.7874015748031497
        },
        {
          "duration": 0.10902260000000297,
          "durationTicks": 29,
          "midi": 59,
          "name": "B3",
          "ticks": 29070,
          "time": 109.28575799999999,
          "velocity": 0.7874015748031497
        },
        {
          "duration": 0.10902260000000297,
          "durationTicks": 29,
          "midi": 63,
          "name": "D#4",
          "ticks": 29100,
          "time": 109.39854,
          "velocity": 0.7874015748031497
        },
        {
          "duration": 0.10902260000000297,
          "durationTicks": 29,
          "midi": 59,
          "name": "B3",
          "ticks": 29130,
          "time": 109.51132199999999,
          "velocity": 0.7874015748031497
        },
        {
          "duration": 0.10902260000000297,
          "durationTicks": 29,
          "midi": 64,
          "name": "E4",
          "ticks": 29160,
          "time": 109.62410399999999,
          "velocity": 0.7874015748031497
        },
        {
          "duration": 0.10902260000000297,
          "durationTicks": 29,
          "midi": 59,
          "name": "B3",
          "ticks": 29190,
          "time": 109.736886,
          "velocity": 0.7874015748031497
        },
        {
          "duration": 0.10902260000000297,
          "durationTicks": 29,
          "midi": 63,
          "name": "D#4",
          "ticks": 29220,
          "time": 109.849668,
          "velocity": 0.7874015748031497
        },
        {
          "duration": 0.10902260000000297,
          "durationTicks": 29,
          "midi": 59,
          "name": "B3",
          "ticks": 29250,
          "time": 109.96244999999999,
          "velocity": 0.7874015748031497
        },
        {
          "duration": 0.10902260000000297,
          "durationTicks": 29,
          "midi": 71,
          "name": "B4",
          "ticks": 29280,
          "time": 110.075232,
          "velocity": 0.7874015748031497
        },
        {
          "duration": 0.10902260000000297,
          "durationTicks": 29,
          "midi": 59,
          "name": "B3",
          "ticks": 29310,
          "time": 110.188014,
          "velocity": 0.7874015748031497
        },
        {
          "duration": 0.10902260000000297,
          "durationTicks": 29,
          "midi": 69,
          "name": "A4",
          "ticks": 29340,
          "time": 110.30079599999999,
          "velocity": 0.7874015748031497
        },
        {
          "duration": 0.10902260000000297,
          "durationTicks": 29,
          "midi": 59,
          "name": "B3",
          "ticks": 29370,
          "time": 110.41357799999999,
          "velocity": 0.7874015748031497
        },
        {
          "duration": 0.10902260000000297,
          "durationTicks": 29,
          "midi": 68,
          "name": "G#4",
          "ticks": 29400,
          "time": 110.52636,
          "velocity": 0.7874015748031497
        },
        {
          "duration": 0.10902260000000297,
          "durationTicks": 29,
          "midi": 59,
          "name": "B3",
          "ticks": 29430,
          "time": 110.63914199999999,
          "velocity": 0.7874015748031497
        },
        {
          "duration": 0.10902260000000297,
          "durationTicks": 29,
          "midi": 69,
          "name": "A4",
          "ticks": 29460,
          "time": 110.75192399999999,
          "velocity": 0.7874015748031497
        },
        {
          "duration": 0.10902260000000297,
          "durationTicks": 29,
          "midi": 59,
          "name": "B3",
          "ticks": 29490,
          "time": 110.864706,
          "velocity": 0.7874015748031497
        },
        {
          "duration": 0.10902260000000297,
          "durationTicks": 29,
          "midi": 68,
          "name": "G#4",
          "ticks": 29520,
          "time": 110.977488,
          "velocity": 0.7874015748031497
        },
        {
          "duration": 0.10902260000000297,
          "durationTicks": 29,
          "midi": 59,
          "name": "B3",
          "ticks": 29550,
          "time": 111.09026999999999,
          "velocity": 0.7874015748031497
        },
        {
          "duration": 0.10902260000000297,
          "durationTicks": 29,
          "midi": 66,
          "name": "F#4",
          "ticks": 29580,
          "time": 111.203052,
          "velocity": 0.7874015748031497
        },
        {
          "duration": 0.10902260000000297,
          "durationTicks": 29,
          "midi": 59,
          "name": "B3",
          "ticks": 29610,
          "time": 111.315834,
          "velocity": 0.7874015748031497
        },
        {
          "duration": 0.10902260000000297,
          "durationTicks": 29,
          "midi": 68,
          "name": "G#4",
          "ticks": 29640,
          "time": 111.42861599999999,
          "velocity": 0.7874015748031497
        },
        {
          "duration": 0.10902260000001718,
          "durationTicks": 29,
          "midi": 59,
          "name": "B3",
          "ticks": 29670,
          "time": 111.54139799999999,
          "velocity": 0.7874015748031497
        },
        {
          "duration": 0.10902260000000297,
          "durationTicks": 29,
          "midi": 64,
          "name": "E4",
          "ticks": 29700,
          "time": 111.65418,
          "velocity": 0.7874015748031497
        },
        {
          "duration": 0.10902260000000297,
          "durationTicks": 29,
          "midi": 59,
          "name": "B3",
          "ticks": 29730,
          "time": 111.76696199999999,
          "velocity": 0.7874015748031497
        },
        {
          "duration": 0.10902260000000297,
          "durationTicks": 29,
          "midi": 66,
          "name": "F#4",
          "ticks": 29760,
          "time": 111.87974399999999,
          "velocity": 0.7874015748031497
        },
        {
          "duration": 0.10902260000000297,
          "durationTicks": 29,
          "midi": 59,
          "name": "B3",
          "ticks": 29790,
          "time": 111.992526,
          "velocity": 0.7874015748031497
        },
        {
          "duration": 0.10902260000000297,
          "durationTicks": 29,
          "midi": 63,
          "name": "D#4",
          "ticks": 29820,
          "time": 112.105308,
          "velocity": 0.7874015748031497
        },
        {
          "duration": 0.10902260000000297,
          "durationTicks": 29,
          "midi": 59,
          "name": "B3",
          "ticks": 29850,
          "time": 112.21808999999999,
          "velocity": 0.7874015748031497
        },
        {
          "duration": 0.10902260000000297,
          "durationTicks": 29,
          "midi": 64,
          "name": "E4",
          "ticks": 29880,
          "time": 112.330872,
          "velocity": 0.7874015748031497
        },
        {
          "duration": 0.10902260000000297,
          "durationTicks": 29,
          "midi": 59,
          "name": "B3",
          "ticks": 29910,
          "time": 112.443654,
          "velocity": 0.7874015748031497
        },
        {
          "duration": 0.10902260000000297,
          "durationTicks": 29,
          "midi": 63,
          "name": "D#4",
          "ticks": 29940,
          "time": 112.55643599999999,
          "velocity": 0.7874015748031497
        },
        {
          "duration": 0.10902260000001718,
          "durationTicks": 29,
          "midi": 59,
          "name": "B3",
          "ticks": 29970,
          "time": 112.66921799999999,
          "velocity": 0.7874015748031497
        },
        {
          "duration": 0.10902260000000297,
          "durationTicks": 29,
          "midi": 64,
          "name": "E4",
          "ticks": 30000,
          "time": 112.782,
          "velocity": 0.7874015748031497
        },
        {
          "duration": 0.10902260000000297,
          "durationTicks": 29,
          "midi": 59,
          "name": "B3",
          "ticks": 30030,
          "time": 112.89478199999999,
          "velocity": 0.7874015748031497
        },
        {
          "duration": 0.10902260000000297,
          "durationTicks": 29,
          "midi": 63,
          "name": "D#4",
          "ticks": 30060,
          "time": 113.00756399999999,
          "velocity": 0.7874015748031497
        },
        {
          "duration": 0.10902260000000297,
          "durationTicks": 29,
          "midi": 59,
          "name": "B3",
          "ticks": 30090,
          "time": 113.120346,
          "velocity": 0.7874015748031497
        },
        {
          "duration": 0.10902260000000297,
          "durationTicks": 29,
          "midi": 64,
          "name": "E4",
          "ticks": 30120,
          "time": 113.233128,
          "velocity": 0.7874015748031497
        },
        {
          "duration": 0.10902260000000297,
          "durationTicks": 29,
          "midi": 59,
          "name": "B3",
          "ticks": 30150,
          "time": 113.34590999999999,
          "velocity": 0.7874015748031497
        },
        {
          "duration": 0.10902260000000297,
          "durationTicks": 29,
          "midi": 63,
          "name": "D#4",
          "ticks": 30180,
          "time": 113.458692,
          "velocity": 0.7874015748031497
        },
        {
          "duration": 0.10902260000000297,
          "durationTicks": 29,
          "midi": 59,
          "name": "B3",
          "ticks": 30210,
          "time": 113.571474,
          "velocity": 0.7874015748031497
        },
        {
          "duration": 0.10902260000000297,
          "durationTicks": 29,
          "midi": 71,
          "name": "B4",
          "ticks": 30240,
          "time": 113.68425599999999,
          "velocity": 0.7874015748031497
        },
        {
          "duration": 0.10902260000001718,
          "durationTicks": 29,
          "midi": 59,
          "name": "B3",
          "ticks": 30270,
          "time": 113.79703799999999,
          "velocity": 0.7874015748031497
        },
        {
          "duration": 0.10902260000000297,
          "durationTicks": 29,
          "midi": 69,
          "name": "A4",
          "ticks": 30300,
          "time": 113.90982,
          "velocity": 0.7874015748031497
        },
        {
          "duration": 0.10902260000000297,
          "durationTicks": 29,
          "midi": 59,
          "name": "B3",
          "ticks": 30330,
          "time": 114.02260199999999,
          "velocity": 0.7874015748031497
        },
        {
          "duration": 0.10902260000000297,
          "durationTicks": 29,
          "midi": 68,
          "name": "G#4",
          "ticks": 30360,
          "time": 114.13538399999999,
          "velocity": 0.7874015748031497
        },
        {
          "duration": 0.10902260000000297,
          "durationTicks": 29,
          "midi": 59,
          "name": "B3",
          "ticks": 30390,
          "time": 114.248166,
          "velocity": 0.7874015748031497
        },
        {
          "duration": 0.10902260000000297,
          "durationTicks": 29,
          "midi": 69,
          "name": "A4",
          "ticks": 30420,
          "time": 114.360948,
          "velocity": 0.7874015748031497
        },
        {
          "duration": 0.10902260000000297,
          "durationTicks": 29,
          "midi": 59,
          "name": "B3",
          "ticks": 30450,
          "time": 114.47372999999999,
          "velocity": 0.7874015748031497
        },
        {
          "duration": 0.10902260000000297,
          "durationTicks": 29,
          "midi": 68,
          "name": "G#4",
          "ticks": 30480,
          "time": 114.586512,
          "velocity": 0.7874015748031497
        },
        {
          "duration": 0.10902260000000297,
          "durationTicks": 29,
          "midi": 59,
          "name": "B3",
          "ticks": 30510,
          "time": 114.699294,
          "velocity": 0.7874015748031497
        },
        {
          "duration": 0.10902260000000297,
          "durationTicks": 29,
          "midi": 66,
          "name": "F#4",
          "ticks": 30540,
          "time": 114.81207599999999,
          "velocity": 0.7874015748031497
        },
        {
          "duration": 0.10902260000001718,
          "durationTicks": 29,
          "midi": 59,
          "name": "B3",
          "ticks": 30570,
          "time": 114.92485799999999,
          "velocity": 0.7874015748031497
        },
        {
          "duration": 0.10902260000000297,
          "durationTicks": 29,
          "midi": 68,
          "name": "G#4",
          "ticks": 30600,
          "time": 115.03764,
          "velocity": 0.7874015748031497
        },
        {
          "duration": 0.10902260000000297,
          "durationTicks": 29,
          "midi": 59,
          "name": "B3",
          "ticks": 30630,
          "time": 115.15042199999999,
          "velocity": 0.7874015748031497
        },
        {
          "duration": 0.10902260000000297,
          "durationTicks": 29,
          "midi": 64,
          "name": "E4",
          "ticks": 30660,
          "time": 115.26320399999999,
          "velocity": 0.7874015748031497
        },
        {
          "duration": 0.10902260000000297,
          "durationTicks": 29,
          "midi": 59,
          "name": "B3",
          "ticks": 30690,
          "time": 115.375986,
          "velocity": 0.7874015748031497
        },
        {
          "duration": 0.10902260000000297,
          "durationTicks": 29,
          "midi": 66,
          "name": "F#4",
          "ticks": 30720,
          "time": 115.488768,
          "velocity": 0.7874015748031497
        },
        {
          "duration": 0.10902260000000297,
          "durationTicks": 29,
          "midi": 59,
          "name": "B3",
          "ticks": 30750,
          "time": 115.60154999999999,
          "velocity": 0.7874015748031497
        },
        {
          "duration": 0.10902260000000297,
          "durationTicks": 29,
          "midi": 63,
          "name": "D#4",
          "ticks": 30780,
          "time": 115.714332,
          "velocity": 0.7874015748031497
        },
        {
          "duration": 0.10902260000000297,
          "durationTicks": 29,
          "midi": 59,
          "name": "B3",
          "ticks": 30810,
          "time": 115.827114,
          "velocity": 0.7874015748031497
        },
        {
          "duration": 0.10902260000000297,
          "durationTicks": 29,
          "midi": 64,
          "name": "E4",
          "ticks": 30840,
          "time": 115.93989599999999,
          "velocity": 0.7874015748031497
        },
        {
          "duration": 0.10902260000000297,
          "durationTicks": 29,
          "midi": 59,
          "name": "B3",
          "ticks": 30870,
          "time": 116.052678,
          "velocity": 0.7874015748031497
        },
        {
          "duration": 0.10902260000000297,
          "durationTicks": 29,
          "midi": 63,
          "name": "D#4",
          "ticks": 30900,
          "time": 116.16546,
          "velocity": 0.7874015748031497
        },
        {
          "duration": 0.10902260000000297,
          "durationTicks": 29,
          "midi": 59,
          "name": "B3",
          "ticks": 30930,
          "time": 116.27824199999999,
          "velocity": 0.7874015748031497
        },
        {
          "duration": 0.10902260000000297,
          "durationTicks": 29,
          "midi": 64,
          "name": "E4",
          "ticks": 30960,
          "time": 116.39102399999999,
          "velocity": 0.7874015748031497
        },
        {
          "duration": 0.10902260000000297,
          "durationTicks": 29,
          "midi": 59,
          "name": "B3",
          "ticks": 30990,
          "time": 116.503806,
          "velocity": 0.7874015748031497
        },
        {
          "duration": 0.10902260000000297,
          "durationTicks": 29,
          "midi": 63,
          "name": "D#4",
          "ticks": 31020,
          "time": 116.616588,
          "velocity": 0.7874015748031497
        },
        {
          "duration": 0.10902260000000297,
          "durationTicks": 29,
          "midi": 59,
          "name": "B3",
          "ticks": 31050,
          "time": 116.72936999999999,
          "velocity": 0.7874015748031497
        },
        {
          "duration": 0.10902260000000297,
          "durationTicks": 29,
          "midi": 64,
          "name": "E4",
          "ticks": 31080,
          "time": 116.842152,
          "velocity": 0.7874015748031497
        },
        {
          "duration": 0.10902260000000297,
          "durationTicks": 29,
          "midi": 59,
          "name": "B3",
          "ticks": 31110,
          "time": 116.954934,
          "velocity": 0.7874015748031497
        },
        {
          "duration": 0.10902260000000297,
          "durationTicks": 29,
          "midi": 63,
          "name": "D#4",
          "ticks": 31140,
          "time": 117.06771599999999,
          "velocity": 0.7874015748031497
        },
        {
          "duration": 0.10902260000000297,
          "durationTicks": 29,
          "midi": 59,
          "name": "B3",
          "ticks": 31170,
          "time": 117.180498,
          "velocity": 0.7874015748031497
        },
        {
          "duration": 0.10902260000000297,
          "durationTicks": 29,
          "midi": 71,
          "name": "B4",
          "ticks": 31200,
          "time": 117.29328,
          "velocity": 0.7874015748031497
        },
        {
          "duration": 0.10902260000000297,
          "durationTicks": 29,
          "midi": 59,
          "name": "B3",
          "ticks": 31230,
          "time": 117.40606199999999,
          "velocity": 0.7874015748031497
        },
        {
          "duration": 0.10902260000000297,
          "durationTicks": 29,
          "midi": 69,
          "name": "A4",
          "ticks": 31260,
          "time": 117.51884399999999,
          "velocity": 0.7874015748031497
        },
        {
          "duration": 0.10902260000000297,
          "durationTicks": 29,
          "midi": 59,
          "name": "B3",
          "ticks": 31290,
          "time": 117.631626,
          "velocity": 0.7874015748031497
        },
        {
          "duration": 0.10902260000000297,
          "durationTicks": 29,
          "midi": 68,
          "name": "G#4",
          "ticks": 31320,
          "time": 117.74440799999999,
          "velocity": 0.7874015748031497
        },
        {
          "duration": 0.10902260000000297,
          "durationTicks": 29,
          "midi": 59,
          "name": "B3",
          "ticks": 31350,
          "time": 117.85718999999999,
          "velocity": 0.7874015748031497
        },
        {
          "duration": 0.10902260000000297,
          "durationTicks": 29,
          "midi": 69,
          "name": "A4",
          "ticks": 31380,
          "time": 117.969972,
          "velocity": 0.7874015748031497
        },
        {
          "duration": 0.10902260000000297,
          "durationTicks": 29,
          "midi": 59,
          "name": "B3",
          "ticks": 31410,
          "time": 118.082754,
          "velocity": 0.7874015748031497
        },
        {
          "duration": 0.10902260000000297,
          "durationTicks": 29,
          "midi": 68,
          "name": "G#4",
          "ticks": 31440,
          "time": 118.19553599999999,
          "velocity": 0.7874015748031497
        },
        {
          "duration": 0.10902260000000297,
          "durationTicks": 29,
          "midi": 59,
          "name": "B3",
          "ticks": 31470,
          "time": 118.308318,
          "velocity": 0.7874015748031497
        },
        {
          "duration": 0.10902260000000297,
          "durationTicks": 29,
          "midi": 66,
          "name": "F#4",
          "ticks": 31500,
          "time": 118.4211,
          "velocity": 0.7874015748031497
        },
        {
          "duration": 0.10902260000000297,
          "durationTicks": 29,
          "midi": 59,
          "name": "B3",
          "ticks": 31530,
          "time": 118.53388199999999,
          "velocity": 0.7874015748031497
        },
        {
          "duration": 0.10902260000000297,
          "durationTicks": 29,
          "midi": 68,
          "name": "G#4",
          "ticks": 31560,
          "time": 118.64666399999999,
          "velocity": 0.7874015748031497
        },
        {
          "duration": 0.10902260000000297,
          "durationTicks": 29,
          "midi": 59,
          "name": "B3",
          "ticks": 31590,
          "time": 118.759446,
          "velocity": 0.7874015748031497
        },
        {
          "duration": 0.10902260000000297,
          "durationTicks": 29,
          "midi": 64,
          "name": "E4",
          "ticks": 31620,
          "time": 118.87222799999999,
          "velocity": 0.7874015748031497
        },
        {
          "duration": 0.10902260000000297,
          "durationTicks": 29,
          "midi": 59,
          "name": "B3",
          "ticks": 31650,
          "time": 118.98500999999999,
          "velocity": 0.7874015748031497
        },
        {
          "duration": 0.10902260000000297,
          "durationTicks": 29,
          "midi": 66,
          "name": "F#4",
          "ticks": 31680,
          "time": 119.097792,
          "velocity": 0.7874015748031497
        },
        {
          "duration": 0.10902260000000297,
          "durationTicks": 29,
          "midi": 59,
          "name": "B3",
          "ticks": 31710,
          "time": 119.210574,
          "velocity": 0.7874015748031497
        },
        {
          "duration": 0.10902260000000297,
          "durationTicks": 29,
          "midi": 63,
          "name": "D#4",
          "ticks": 31740,
          "time": 119.32335599999999,
          "velocity": 0.7874015748031497
        },
        {
          "duration": 0.10902260000000297,
          "durationTicks": 29,
          "midi": 59,
          "name": "B3",
          "ticks": 31770,
          "time": 119.436138,
          "velocity": 0.7874015748031497
        },
        {
          "duration": 0.10902260000000297,
          "durationTicks": 29,
          "midi": 64,
          "name": "E4",
          "ticks": 31800,
          "time": 119.54892,
          "velocity": 0.7874015748031497
        },
        {
          "duration": 0.10902260000000297,
          "durationTicks": 29,
          "midi": 59,
          "name": "B3",
          "ticks": 31830,
          "time": 119.66170199999999,
          "velocity": 0.7874015748031497
        },
        {
          "duration": 0.10902260000000297,
          "durationTicks": 29,
          "midi": 63,
          "name": "D#4",
          "ticks": 31860,
          "time": 119.77448399999999,
          "velocity": 0.7874015748031497
        },
        {
          "duration": 0.10902260000000297,
          "durationTicks": 29,
          "midi": 59,
          "name": "B3",
          "ticks": 31890,
          "time": 119.887266,
          "velocity": 0.7874015748031497
        },
        {
          "duration": 0.10902260000000297,
          "durationTicks": 29,
          "midi": 64,
          "name": "E4",
          "ticks": 31920,
          "time": 120.00004799999999,
          "velocity": 0.7874015748031497
        },
        {
          "duration": 0.10902260000000297,
          "durationTicks": 29,
          "midi": 59,
          "name": "B3",
          "ticks": 31950,
          "time": 120.11282999999999,
          "velocity": 0.7874015748031497
        },
        {
          "duration": 0.10902260000000297,
          "durationTicks": 29,
          "midi": 63,
          "name": "D#4",
          "ticks": 31980,
          "time": 120.225612,
          "velocity": 0.7874015748031497
        },
        {
          "duration": 0.10902260000000297,
          "durationTicks": 29,
          "midi": 59,
          "name": "B3",
          "ticks": 32010,
          "time": 120.338394,
          "velocity": 0.7874015748031497
        },
        {
          "duration": 0.10902260000000297,
          "durationTicks": 29,
          "midi": 64,
          "name": "E4",
          "ticks": 32040,
          "time": 120.45117599999999,
          "velocity": 0.7874015748031497
        },
        {
          "duration": 0.10902260000000297,
          "durationTicks": 29,
          "midi": 59,
          "name": "B3",
          "ticks": 32070,
          "time": 120.563958,
          "velocity": 0.7874015748031497
        },
        {
          "duration": 0.10902260000000297,
          "durationTicks": 29,
          "midi": 63,
          "name": "D#4",
          "ticks": 32100,
          "time": 120.67674,
          "velocity": 0.7874015748031497
        },
        {
          "duration": 0.10902260000000297,
          "durationTicks": 29,
          "midi": 59,
          "name": "B3",
          "ticks": 32130,
          "time": 120.78952199999999,
          "velocity": 0.7874015748031497
        },
        {
          "duration": 0.10902260000000297,
          "durationTicks": 29,
          "midi": 71,
          "name": "B4",
          "ticks": 32160,
          "time": 120.90230399999999,
          "velocity": 0.7874015748031497
        },
        {
          "duration": 0.10902260000000297,
          "durationTicks": 29,
          "midi": 59,
          "name": "B3",
          "ticks": 32190,
          "time": 121.015086,
          "velocity": 0.7874015748031497
        },
        {
          "duration": 0.10902260000000297,
          "durationTicks": 29,
          "midi": 69,
          "name": "A4",
          "ticks": 32220,
          "time": 121.12786799999999,
          "velocity": 0.7874015748031497
        },
        {
          "duration": 0.10902260000000297,
          "durationTicks": 29,
          "midi": 59,
          "name": "B3",
          "ticks": 32250,
          "time": 121.24064999999999,
          "velocity": 0.7874015748031497
        },
        {
          "duration": 0.10902260000000297,
          "durationTicks": 29,
          "midi": 68,
          "name": "G#4",
          "ticks": 32280,
          "time": 121.353432,
          "velocity": 0.7874015748031497
        },
        {
          "duration": 0.10902260000000297,
          "durationTicks": 29,
          "midi": 59,
          "name": "B3",
          "ticks": 32310,
          "time": 121.466214,
          "velocity": 0.7874015748031497
        },
        {
          "duration": 0.10902260000000297,
          "durationTicks": 29,
          "midi": 69,
          "name": "A4",
          "ticks": 32340,
          "time": 121.57899599999999,
          "velocity": 0.7874015748031497
        },
        {
          "duration": 0.10902260000000297,
          "durationTicks": 29,
          "midi": 59,
          "name": "B3",
          "ticks": 32370,
          "time": 121.691778,
          "velocity": 0.7874015748031497
        },
        {
          "duration": 0.10902260000000297,
          "durationTicks": 29,
          "midi": 68,
          "name": "G#4",
          "ticks": 32400,
          "time": 121.80456,
          "velocity": 0.7874015748031497
        },
        {
          "duration": 0.10902260000000297,
          "durationTicks": 29,
          "midi": 59,
          "name": "B3",
          "ticks": 32430,
          "time": 121.91734199999999,
          "velocity": 0.7874015748031497
        },
        {
          "duration": 0.10902260000000297,
          "durationTicks": 29,
          "midi": 66,
          "name": "F#4",
          "ticks": 32460,
          "time": 122.03012399999999,
          "velocity": 0.7874015748031497
        },
        {
          "duration": 0.10902260000000297,
          "durationTicks": 29,
          "midi": 59,
          "name": "B3",
          "ticks": 32490,
          "time": 122.142906,
          "velocity": 0.7874015748031497
        },
        {
          "duration": 0.10902260000000297,
          "durationTicks": 29,
          "midi": 68,
          "name": "G#4",
          "ticks": 32520,
          "time": 122.25568799999999,
          "velocity": 0.7874015748031497
        },
        {
          "duration": 0.10902260000000297,
          "durationTicks": 29,
          "midi": 59,
          "name": "B3",
          "ticks": 32550,
          "time": 122.36846999999999,
          "velocity": 0.7874015748031497
        },
        {
          "duration": 0.10902260000000297,
          "durationTicks": 29,
          "midi": 64,
          "name": "E4",
          "ticks": 32580,
          "time": 122.481252,
          "velocity": 0.7874015748031497
        },
        {
          "duration": 0.10902260000000297,
          "durationTicks": 29,
          "midi": 59,
          "name": "B3",
          "ticks": 32610,
          "time": 122.594034,
          "velocity": 0.7874015748031497
        },
        {
          "duration": 0.10902260000000297,
          "durationTicks": 29,
          "midi": 66,
          "name": "F#4",
          "ticks": 32640,
          "time": 122.70681599999999,
          "velocity": 0.7874015748031497
        },
        {
          "duration": 0.10902260000000297,
          "durationTicks": 29,
          "midi": 59,
          "name": "B3",
          "ticks": 32670,
          "time": 122.819598,
          "velocity": 0.7874015748031497
        },
        {
          "duration": 0.10902260000000297,
          "durationTicks": 29,
          "midi": 63,
          "name": "D#4",
          "ticks": 32700,
          "time": 122.93238,
          "velocity": 0.7874015748031497
        },
        {
          "duration": 0.10902260000000297,
          "durationTicks": 29,
          "midi": 59,
          "name": "B3",
          "ticks": 32730,
          "time": 123.04516199999999,
          "velocity": 0.7874015748031497
        },
        {
          "duration": 0.10902260000000297,
          "durationTicks": 29,
          "midi": 64,
          "name": "E4",
          "ticks": 32760,
          "time": 123.15794399999999,
          "velocity": 0.7874015748031497
        },
        {
          "duration": 0.10902260000000297,
          "durationTicks": 29,
          "midi": 59,
          "name": "B3",
          "ticks": 32790,
          "time": 123.270726,
          "velocity": 0.7874015748031497
        },
        {
          "duration": 0.10902260000000297,
          "durationTicks": 29,
          "midi": 63,
          "name": "D#4",
          "ticks": 32820,
          "time": 123.38350799999999,
          "velocity": 0.7874015748031497
        },
        {
          "duration": 0.10902260000000297,
          "durationTicks": 29,
          "midi": 59,
          "name": "B3",
          "ticks": 32850,
          "time": 123.49628999999999,
          "velocity": 0.7874015748031497
        },
        {
          "duration": 0.10902260000000297,
          "durationTicks": 29,
          "midi": 64,
          "name": "E4",
          "ticks": 32880,
          "time": 123.609072,
          "velocity": 0.7874015748031497
        },
        {
          "duration": 0.10902260000000297,
          "durationTicks": 29,
          "midi": 59,
          "name": "B3",
          "ticks": 32910,
          "time": 123.721854,
          "velocity": 0.7874015748031497
        },
        {
          "duration": 0.10902260000000297,
          "durationTicks": 29,
          "midi": 63,
          "name": "D#4",
          "ticks": 32940,
          "time": 123.83463599999999,
          "velocity": 0.7874015748031497
        },
        {
          "duration": 0.10902260000000297,
          "durationTicks": 29,
          "midi": 59,
          "name": "B3",
          "ticks": 32970,
          "time": 123.947418,
          "velocity": 0.7874015748031497
        },
        {
          "duration": 0.10902260000000297,
          "durationTicks": 29,
          "midi": 64,
          "name": "E4",
          "ticks": 33000,
          "time": 124.0602,
          "velocity": 0.7874015748031497
        },
        {
          "duration": 0.10902260000000297,
          "durationTicks": 29,
          "midi": 59,
          "name": "B3",
          "ticks": 33030,
          "time": 124.17298199999999,
          "velocity": 0.7874015748031497
        },
        {
          "duration": 0.10902260000000297,
          "durationTicks": 29,
          "midi": 63,
          "name": "D#4",
          "ticks": 33060,
          "time": 124.28576399999999,
          "velocity": 0.7874015748031497
        },
        {
          "duration": 0.10902260000000297,
          "durationTicks": 29,
          "midi": 59,
          "name": "B3",
          "ticks": 33090,
          "time": 124.398546,
          "velocity": 0.7874015748031497
        },
        {
          "duration": 0.10902260000000297,
          "durationTicks": 29,
          "midi": 71,
          "name": "B4",
          "ticks": 33120,
          "time": 124.51132799999999,
          "velocity": 0.7874015748031497
        },
        {
          "duration": 0.10902260000000297,
          "durationTicks": 29,
          "midi": 59,
          "name": "B3",
          "ticks": 33150,
          "time": 124.62410999999999,
          "velocity": 0.7874015748031497
        },
        {
          "duration": 0.10902260000000297,
          "durationTicks": 29,
          "midi": 69,
          "name": "A4",
          "ticks": 33180,
          "time": 124.736892,
          "velocity": 0.7874015748031497
        },
        {
          "duration": 0.10902260000000297,
          "durationTicks": 29,
          "midi": 59,
          "name": "B3",
          "ticks": 33210,
          "time": 124.849674,
          "velocity": 0.7874015748031497
        },
        {
          "duration": 0.10902260000000297,
          "durationTicks": 29,
          "midi": 68,
          "name": "G#4",
          "ticks": 33240,
          "time": 124.96245599999999,
          "velocity": 0.7874015748031497
        },
        {
          "duration": 0.10902260000000297,
          "durationTicks": 29,
          "midi": 59,
          "name": "B3",
          "ticks": 33270,
          "time": 125.075238,
          "velocity": 0.7874015748031497
        },
        {
          "duration": 0.10902260000000297,
          "durationTicks": 29,
          "midi": 69,
          "name": "A4",
          "ticks": 33300,
          "time": 125.18802,
          "velocity": 0.7874015748031497
        },
        {
          "duration": 0.10902260000000297,
          "durationTicks": 29,
          "midi": 59,
          "name": "B3",
          "ticks": 33330,
          "time": 125.30080199999999,
          "velocity": 0.7874015748031497
        },
        {
          "duration": 0.10902260000001718,
          "durationTicks": 29,
          "midi": 68,
          "name": "G#4",
          "ticks": 33360,
          "time": 125.41358399999999,
          "velocity": 0.7874015748031497
        },
        {
          "duration": 0.10902260000000297,
          "durationTicks": 29,
          "midi": 59,
          "name": "B3",
          "ticks": 33390,
          "time": 125.526366,
          "velocity": 0.7874015748031497
        },
        {
          "duration": 0.10902260000000297,
          "durationTicks": 29,
          "midi": 66,
          "name": "F#4",
          "ticks": 33420,
          "time": 125.63914799999999,
          "velocity": 0.7874015748031497
        },
        {
          "duration": 0.10902260000000297,
          "durationTicks": 29,
          "midi": 59,
          "name": "B3",
          "ticks": 33450,
          "time": 125.75192999999999,
          "velocity": 0.7874015748031497
        },
        {
          "duration": 0.10902260000000297,
          "durationTicks": 29,
          "midi": 68,
          "name": "G#4",
          "ticks": 33480,
          "time": 125.864712,
          "velocity": 0.7874015748031497
        },
        {
          "duration": 0.10902260000000297,
          "durationTicks": 29,
          "midi": 59,
          "name": "B3",
          "ticks": 33510,
          "time": 125.977494,
          "velocity": 0.7874015748031497
        },
        {
          "duration": 0.10902260000000297,
          "durationTicks": 29,
          "midi": 64,
          "name": "E4",
          "ticks": 33540,
          "time": 126.09027599999999,
          "velocity": 0.7874015748031497
        },
        {
          "duration": 0.10902260000000297,
          "durationTicks": 29,
          "midi": 59,
          "name": "B3",
          "ticks": 33570,
          "time": 126.203058,
          "velocity": 0.7874015748031497
        },
        {
          "duration": 0.10902260000000297,
          "durationTicks": 29,
          "midi": 66,
          "name": "F#4",
          "ticks": 33600,
          "time": 126.31584,
          "velocity": 0.7874015748031497
        },
        {
          "duration": 0.10902260000000297,
          "durationTicks": 29,
          "midi": 59,
          "name": "B3",
          "ticks": 33630,
          "time": 126.42862199999999,
          "velocity": 0.7874015748031497
        },
        {
          "duration": 0.10902260000001718,
          "durationTicks": 29,
          "midi": 63,
          "name": "D#4",
          "ticks": 33660,
          "time": 126.54140399999999,
          "velocity": 0.7874015748031497
        },
        {
          "duration": 0.10902260000000297,
          "durationTicks": 29,
          "midi": 59,
          "name": "B3",
          "ticks": 33690,
          "time": 126.654186,
          "velocity": 0.7874015748031497
        },
        {
          "duration": 0.10902260000000297,
          "durationTicks": 29,
          "midi": 64,
          "name": "E4",
          "ticks": 33720,
          "time": 126.76696799999999,
          "velocity": 0.7874015748031497
        },
        {
          "duration": 0.10902260000000297,
          "durationTicks": 29,
          "midi": 59,
          "name": "B3",
          "ticks": 33750,
          "time": 126.87974999999999,
          "velocity": 0.7874015748031497
        },
        {
          "duration": 0.10902260000000297,
          "durationTicks": 29,
          "midi": 63,
          "name": "D#4",
          "ticks": 33780,
          "time": 126.992532,
          "velocity": 0.7874015748031497
        },
        {
          "duration": 0.10902260000000297,
          "durationTicks": 29,
          "midi": 59,
          "name": "B3",
          "ticks": 33810,
          "time": 127.10531399999999,
          "velocity": 0.7874015748031497
        },
        {
          "duration": 0.10902260000000297,
          "durationTicks": 29,
          "midi": 64,
          "name": "E4",
          "ticks": 33840,
          "time": 127.21809599999999,
          "velocity": 0.7874015748031497
        },
        {
          "duration": 0.10902260000000297,
          "durationTicks": 29,
          "midi": 59,
          "name": "B3",
          "ticks": 33870,
          "time": 127.330878,
          "velocity": 0.7874015748031497
        },
        {
          "duration": 0.10902260000000297,
          "durationTicks": 29,
          "midi": 63,
          "name": "D#4",
          "ticks": 33900,
          "time": 127.44366,
          "velocity": 0.7874015748031497
        },
        {
          "duration": 0.10902260000000297,
          "durationTicks": 29,
          "midi": 59,
          "name": "B3",
          "ticks": 33930,
          "time": 127.55644199999999,
          "velocity": 0.7874015748031497
        },
        {
          "duration": 0.10902260000001718,
          "durationTicks": 29,
          "midi": 64,
          "name": "E4",
          "ticks": 33960,
          "time": 127.66922399999999,
          "velocity": 0.7874015748031497
        },
        {
          "duration": 0.10902260000000297,
          "durationTicks": 29,
          "midi": 59,
          "name": "B3",
          "ticks": 33990,
          "time": 127.782006,
          "velocity": 0.7874015748031497
        },
        {
          "duration": 0.10902260000001718,
          "durationTicks": 29,
          "midi": 63,
          "name": "D#4",
          "ticks": 34020,
          "time": 127.89478799999999,
          "velocity": 0.7874015748031497
        },
        {
          "duration": 0.10902260000000297,
          "durationTicks": 29,
          "midi": 59,
          "name": "B3",
          "ticks": 34050,
          "time": 128.00757,
          "velocity": 0.7874015748031497
        },
        {
          "duration": 0.10902260000000297,
          "durationTicks": 29,
          "midi": 71,
          "name": "B4",
          "ticks": 34080,
          "time": 128.120352,
          "velocity": 0.7874015748031497
        },
        {
          "duration": 0.10902260000003139,
          "durationTicks": 29,
          "midi": 59,
          "name": "B3",
          "ticks": 34110,
          "time": 128.23313399999998,
          "velocity": 0.7874015748031497
        },
        {
          "duration": 0.10902260000000297,
          "durationTicks": 29,
          "midi": 69,
          "name": "A4",
          "ticks": 34140,
          "time": 128.345916,
          "velocity": 0.7874015748031497
        },
        {
          "duration": 0.10902260000000297,
          "durationTicks": 29,
          "midi": 59,
          "name": "B3",
          "ticks": 34170,
          "time": 128.458698,
          "velocity": 0.7874015748031497
        },
        {
          "duration": 0.10902260000000297,
          "durationTicks": 29,
          "midi": 68,
          "name": "G#4",
          "ticks": 34200,
          "time": 128.57147999999998,
          "velocity": 0.7874015748031497
        },
        {
          "duration": 0.10902260000000297,
          "durationTicks": 29,
          "midi": 59,
          "name": "B3",
          "ticks": 34230,
          "time": 128.684262,
          "velocity": 0.7874015748031497
        },
        {
          "duration": 0.10902260000000297,
          "durationTicks": 29,
          "midi": 69,
          "name": "A4",
          "ticks": 34260,
          "time": 128.797044,
          "velocity": 0.7874015748031497
        },
        {
          "duration": 0.10902260000000297,
          "durationTicks": 29,
          "midi": 59,
          "name": "B3",
          "ticks": 34290,
          "time": 128.90982599999998,
          "velocity": 0.7874015748031497
        },
        {
          "duration": 0.10902260000000297,
          "durationTicks": 29,
          "midi": 68,
          "name": "G#4",
          "ticks": 34320,
          "time": 129.022608,
          "velocity": 0.7874015748031497
        },
        {
          "duration": 0.10902260000000297,
          "durationTicks": 29,
          "midi": 59,
          "name": "B3",
          "ticks": 34350,
          "time": 129.13539,
          "velocity": 0.7874015748031497
        },
        {
          "duration": 0.10902260000000297,
          "durationTicks": 29,
          "midi": 66,
          "name": "F#4",
          "ticks": 34380,
          "time": 129.24817199999998,
          "velocity": 0.7874015748031497
        },
        {
          "duration": 0.10902260000000297,
          "durationTicks": 29,
          "midi": 59,
          "name": "B3",
          "ticks": 34410,
          "time": 129.360954,
          "velocity": 0.7874015748031497
        },
        {
          "duration": 0.10902260000000297,
          "durationTicks": 29,
          "midi": 68,
          "name": "G#4",
          "ticks": 34440,
          "time": 129.473736,
          "velocity": 0.7874015748031497
        },
        {
          "duration": 0.10902260000000297,
          "durationTicks": 29,
          "midi": 59,
          "name": "B3",
          "ticks": 34470,
          "time": 129.58651799999998,
          "velocity": 0.7874015748031497
        },
        {
          "duration": 0.10902260000000297,
          "durationTicks": 29,
          "midi": 64,
          "name": "E4",
          "ticks": 34500,
          "time": 129.6993,
          "velocity": 0.7874015748031497
        },
        {
          "duration": 0.10902260000000297,
          "durationTicks": 29,
          "midi": 59,
          "name": "B3",
          "ticks": 34530,
          "time": 129.812082,
          "velocity": 0.7874015748031497
        },
        {
          "duration": 0.10902260000000297,
          "durationTicks": 29,
          "midi": 66,
          "name": "F#4",
          "ticks": 34560,
          "time": 129.92486399999999,
          "velocity": 0.7874015748031497
        },
        {
          "duration": 0.10902260000000297,
          "durationTicks": 29,
          "midi": 59,
          "name": "B3",
          "ticks": 34590,
          "time": 130.037646,
          "velocity": 0.7874015748031497
        },
        {
          "duration": 0.10902260000000297,
          "durationTicks": 29,
          "midi": 63,
          "name": "D#4",
          "ticks": 34620,
          "time": 130.150428,
          "velocity": 0.7874015748031497
        },
        {
          "duration": 0.10902260000000297,
          "durationTicks": 29,
          "midi": 59,
          "name": "B3",
          "ticks": 34650,
          "time": 130.26321,
          "velocity": 0.7874015748031497
        },
        {
          "duration": 0.10902260000000297,
          "durationTicks": 29,
          "midi": 64,
          "name": "E4",
          "ticks": 34680,
          "time": 130.375992,
          "velocity": 0.7874015748031497
        },
        {
          "duration": 0.10902260000000297,
          "durationTicks": 29,
          "midi": 59,
          "name": "B3",
          "ticks": 34710,
          "time": 130.488774,
          "velocity": 0.7874015748031497
        },
        {
          "duration": 0.10902260000000297,
          "durationTicks": 29,
          "midi": 63,
          "name": "D#4",
          "ticks": 34740,
          "time": 130.601556,
          "velocity": 0.7874015748031497
        },
        {
          "duration": 0.10902260000000297,
          "durationTicks": 29,
          "midi": 59,
          "name": "B3",
          "ticks": 34770,
          "time": 130.714338,
          "velocity": 0.7874015748031497
        },
        {
          "duration": 0.10902260000000297,
          "durationTicks": 29,
          "midi": 64,
          "name": "E4",
          "ticks": 34800,
          "time": 130.82711999999998,
          "velocity": 0.7874015748031497
        },
        {
          "duration": 0.10902260000000297,
          "durationTicks": 29,
          "midi": 59,
          "name": "B3",
          "ticks": 34830,
          "time": 130.939902,
          "velocity": 0.7874015748031497
        },
        {
          "duration": 0.10902260000000297,
          "durationTicks": 29,
          "midi": 63,
          "name": "D#4",
          "ticks": 34860,
          "time": 131.052684,
          "velocity": 0.7874015748031497
        },
        {
          "duration": 0.10902260000000297,
          "durationTicks": 29,
          "midi": 59,
          "name": "B3",
          "ticks": 34890,
          "time": 131.16546599999998,
          "velocity": 0.7874015748031497
        },
        {
          "duration": 0.10902260000000297,
          "durationTicks": 29,
          "midi": 64,
          "name": "E4",
          "ticks": 34920,
          "time": 131.278248,
          "velocity": 0.7874015748031497
        },
        {
          "duration": 0.10902260000000297,
          "durationTicks": 29,
          "midi": 59,
          "name": "B3",
          "ticks": 34950,
          "time": 131.39103,
          "velocity": 0.7874015748031497
        },
        {
          "duration": 0.10902260000000297,
          "durationTicks": 29,
          "midi": 63,
          "name": "D#4",
          "ticks": 34980,
          "time": 131.50381199999998,
          "velocity": 0.7874015748031497
        },
        {
          "duration": 0.10902260000000297,
          "durationTicks": 29,
          "midi": 59,
          "name": "B3",
          "ticks": 35010,
          "time": 131.616594,
          "velocity": 0.7874015748031497
        },
        {
          "duration": 0.10902260000000297,
          "durationTicks": 29,
          "midi": 71,
          "name": "B4",
          "ticks": 35040,
          "time": 131.729376,
          "velocity": 0.7874015748031497
        },
        {
          "duration": 0.10902260000000297,
          "durationTicks": 29,
          "midi": 59,
          "name": "B3",
          "ticks": 35070,
          "time": 131.84215799999998,
          "velocity": 0.7874015748031497
        },
        {
          "duration": 0.10902260000000297,
          "durationTicks": 29,
          "midi": 69,
          "name": "A4",
          "ticks": 35100,
          "time": 131.95494,
          "velocity": 0.7874015748031497
        },
        {
          "duration": 0.10902260000000297,
          "durationTicks": 29,
          "midi": 59,
          "name": "B3",
          "ticks": 35130,
          "time": 132.067722,
          "velocity": 0.7874015748031497
        },
        {
          "duration": 0.10902260000000297,
          "durationTicks": 29,
          "midi": 68,
          "name": "G#4",
          "ticks": 35160,
          "time": 132.18050399999998,
          "velocity": 0.7874015748031497
        },
        {
          "duration": 0.10902260000000297,
          "durationTicks": 29,
          "midi": 59,
          "name": "B3",
          "ticks": 35190,
          "time": 132.293286,
          "velocity": 0.7874015748031497
        },
        {
          "duration": 0.10902260000000297,
          "durationTicks": 29,
          "midi": 69,
          "name": "A4",
          "ticks": 35220,
          "time": 132.406068,
          "velocity": 0.7874015748031497
        },
        {
          "duration": 0.10902260000000297,
          "durationTicks": 29,
          "midi": 59,
          "name": "B3",
          "ticks": 35250,
          "time": 132.51885,
          "velocity": 0.7874015748031497
        },
        {
          "duration": 0.10902260000000297,
          "durationTicks": 29,
          "midi": 68,
          "name": "G#4",
          "ticks": 35280,
          "time": 132.631632,
          "velocity": 0.7874015748031497
        },
        {
          "duration": 0.10902260000000297,
          "durationTicks": 29,
          "midi": 59,
          "name": "B3",
          "ticks": 35310,
          "time": 132.744414,
          "velocity": 0.7874015748031497
        },
        {
          "duration": 0.10902260000000297,
          "durationTicks": 29,
          "midi": 66,
          "name": "F#4",
          "ticks": 35340,
          "time": 132.857196,
          "velocity": 0.7874015748031497
        },
        {
          "duration": 0.10902260000000297,
          "durationTicks": 29,
          "midi": 59,
          "name": "B3",
          "ticks": 35370,
          "time": 132.969978,
          "velocity": 0.7874015748031497
        },
        {
          "duration": 0.10902260000000297,
          "durationTicks": 29,
          "midi": 68,
          "name": "G#4",
          "ticks": 35400,
          "time": 133.08275999999998,
          "velocity": 0.7874015748031497
        },
        {
          "duration": 0.10902260000000297,
          "durationTicks": 29,
          "midi": 59,
          "name": "B3",
          "ticks": 35430,
          "time": 133.195542,
          "velocity": 0.7874015748031497
        },
        {
          "duration": 0.10902260000000297,
          "durationTicks": 29,
          "midi": 64,
          "name": "E4",
          "ticks": 35460,
          "time": 133.308324,
          "velocity": 0.7874015748031497
        },
        {
          "duration": 0.10902260000000297,
          "durationTicks": 29,
          "midi": 59,
          "name": "B3",
          "ticks": 35490,
          "time": 133.42110599999998,
          "velocity": 0.7874015748031497
        },
        {
          "duration": 0.10902260000000297,
          "durationTicks": 29,
          "midi": 66,
          "name": "F#4",
          "ticks": 35520,
          "time": 133.533888,
          "velocity": 0.7874015748031497
        },
        {
          "duration": 0.10902260000000297,
          "durationTicks": 29,
          "midi": 59,
          "name": "B3",
          "ticks": 35550,
          "time": 133.64667,
          "velocity": 0.7874015748031497
        },
        {
          "duration": 0.10902260000000297,
          "durationTicks": 29,
          "midi": 63,
          "name": "D#4",
          "ticks": 35580,
          "time": 133.75945199999998,
          "velocity": 0.7874015748031497
        },
        {
          "duration": 0.10902260000000297,
          "durationTicks": 29,
          "midi": 59,
          "name": "B3",
          "ticks": 35610,
          "time": 133.872234,
          "velocity": 0.7874015748031497
        },
        {
          "duration": 0.10902260000000297,
          "durationTicks": 29,
          "midi": 64,
          "name": "E4",
          "ticks": 35640,
          "time": 133.985016,
          "velocity": 0.7874015748031497
        },
        {
          "duration": 0.10902260000000297,
          "durationTicks": 29,
          "midi": 59,
          "name": "B3",
          "ticks": 35670,
          "time": 134.09779799999998,
          "velocity": 0.7874015748031497
        },
        {
          "duration": 0.10902260000000297,
          "durationTicks": 29,
          "midi": 63,
          "name": "D#4",
          "ticks": 35700,
          "time": 134.21058,
          "velocity": 0.7874015748031497
        },
        {
          "duration": 0.10902260000000297,
          "durationTicks": 29,
          "midi": 59,
          "name": "B3",
          "ticks": 35730,
          "time": 134.323362,
          "velocity": 0.7874015748031497
        },
        {
          "duration": 0.10902260000000297,
          "durationTicks": 29,
          "midi": 64,
          "name": "E4",
          "ticks": 35760,
          "time": 134.43614399999998,
          "velocity": 0.7874015748031497
        },
        {
          "duration": 0.10902260000000297,
          "durationTicks": 29,
          "midi": 59,
          "name": "B3",
          "ticks": 35790,
          "time": 134.548926,
          "velocity": 0.7874015748031497
        },
        {
          "duration": 0.10902260000000297,
          "durationTicks": 29,
          "midi": 63,
          "name": "D#4",
          "ticks": 35820,
          "time": 134.661708,
          "velocity": 0.7874015748031497
        },
        {
          "duration": 0.10902260000000297,
          "durationTicks": 29,
          "midi": 59,
          "name": "B3",
          "ticks": 35850,
          "time": 134.77449,
          "velocity": 0.7874015748031497
        },
        {
          "duration": 0.10902260000000297,
          "durationTicks": 29,
          "midi": 64,
          "name": "E4",
          "ticks": 35880,
          "time": 134.887272,
          "velocity": 0.7874015748031497
        },
        {
          "duration": 0.10902260000000297,
          "durationTicks": 29,
          "midi": 59,
          "name": "B3",
          "ticks": 35910,
          "time": 135.000054,
          "velocity": 0.7874015748031497
        },
        {
          "duration": 0.10902260000000297,
          "durationTicks": 29,
          "midi": 63,
          "name": "D#4",
          "ticks": 35940,
          "time": 135.112836,
          "velocity": 0.7874015748031497
        },
        {
          "duration": 0.10902260000000297,
          "durationTicks": 29,
          "midi": 59,
          "name": "B3",
          "ticks": 35970,
          "time": 135.225618,
          "velocity": 0.7874015748031497
        },
        {
          "duration": 0.10902260000000297,
          "durationTicks": 29,
          "midi": 71,
          "name": "B4",
          "ticks": 36000,
          "time": 135.33839999999998,
          "velocity": 0.7874015748031497
        },
        {
          "duration": 0.10902260000000297,
          "durationTicks": 29,
          "midi": 59,
          "name": "B3",
          "ticks": 36030,
          "time": 135.451182,
          "velocity": 0.7874015748031497
        },
        {
          "duration": 0.10902260000000297,
          "durationTicks": 29,
          "midi": 69,
          "name": "A4",
          "ticks": 36060,
          "time": 135.563964,
          "velocity": 0.7874015748031497
        },
        {
          "duration": 0.10902260000000297,
          "durationTicks": 29,
          "midi": 59,
          "name": "B3",
          "ticks": 36090,
          "time": 135.67674599999998,
          "velocity": 0.7874015748031497
        },
        {
          "duration": 0.10902260000000297,
          "durationTicks": 29,
          "midi": 68,
          "name": "G#4",
          "ticks": 36120,
          "time": 135.789528,
          "velocity": 0.7874015748031497
        },
        {
          "duration": 0.10902260000000297,
          "durationTicks": 29,
          "midi": 59,
          "name": "B3",
          "ticks": 36150,
          "time": 135.90231,
          "velocity": 0.7874015748031497
        },
        {
          "duration": 0.10902260000000297,
          "durationTicks": 29,
          "midi": 69,
          "name": "A4",
          "ticks": 36180,
          "time": 136.01509199999998,
          "velocity": 0.7874015748031497
        },
        {
          "duration": 0.10902260000000297,
          "durationTicks": 29,
          "midi": 59,
          "name": "B3",
          "ticks": 36210,
          "time": 136.127874,
          "velocity": 0.7874015748031497
        },
        {
          "duration": 0.10902260000000297,
          "durationTicks": 29,
          "midi": 68,
          "name": "G#4",
          "ticks": 36240,
          "time": 136.240656,
          "velocity": 0.7874015748031497
        },
        {
          "duration": 0.10902260000000297,
          "durationTicks": 29,
          "midi": 59,
          "name": "B3",
          "ticks": 36270,
          "time": 136.35343799999998,
          "velocity": 0.7874015748031497
        },
        {
          "duration": 0.10902260000000297,
          "durationTicks": 29,
          "midi": 66,
          "name": "F#4",
          "ticks": 36300,
          "time": 136.46622,
          "velocity": 0.7874015748031497
        },
        {
          "duration": 0.10902260000000297,
          "durationTicks": 29,
          "midi": 59,
          "name": "B3",
          "ticks": 36330,
          "time": 136.579002,
          "velocity": 0.7874015748031497
        },
        {
          "duration": 0.10902260000000297,
          "durationTicks": 29,
          "midi": 68,
          "name": "G#4",
          "ticks": 36360,
          "time": 136.69178399999998,
          "velocity": 0.7874015748031497
        },
        {
          "duration": 0.10902260000000297,
          "durationTicks": 29,
          "midi": 59,
          "name": "B3",
          "ticks": 36390,
          "time": 136.804566,
          "velocity": 0.7874015748031497
        },
        {
          "duration": 0.10902260000000297,
          "durationTicks": 29,
          "midi": 64,
          "name": "E4",
          "ticks": 36420,
          "time": 136.917348,
          "velocity": 0.7874015748031497
        },
        {
          "duration": 0.10902260000000297,
          "durationTicks": 29,
          "midi": 59,
          "name": "B3",
          "ticks": 36450,
          "time": 137.03012999999999,
          "velocity": 0.7874015748031497
        },
        {
          "duration": 0.10902260000000297,
          "durationTicks": 29,
          "midi": 66,
          "name": "F#4",
          "ticks": 36480,
          "time": 137.142912,
          "velocity": 0.7874015748031497
        },
        {
          "duration": 0.10902260000000297,
          "durationTicks": 29,
          "midi": 59,
          "name": "B3",
          "ticks": 36510,
          "time": 137.255694,
          "velocity": 0.7874015748031497
        },
        {
          "duration": 0.10902260000000297,
          "durationTicks": 29,
          "midi": 63,
          "name": "D#4",
          "ticks": 36540,
          "time": 137.368476,
          "velocity": 0.7874015748031497
        },
        {
          "duration": 0.10902260000000297,
          "durationTicks": 29,
          "midi": 59,
          "name": "B3",
          "ticks": 36570,
          "time": 137.481258,
          "velocity": 0.7874015748031497
        },
        {
          "duration": 0.10902260000000297,
          "durationTicks": 29,
          "midi": 64,
          "name": "E4",
          "ticks": 36600,
          "time": 137.59403999999998,
          "velocity": 0.7874015748031497
        },
        {
          "duration": 0.10902260000000297,
          "durationTicks": 29,
          "midi": 59,
          "name": "B3",
          "ticks": 36630,
          "time": 137.706822,
          "velocity": 0.7874015748031497
        },
        {
          "duration": 0.10902260000000297,
          "durationTicks": 29,
          "midi": 63,
          "name": "D#4",
          "ticks": 36660,
          "time": 137.819604,
          "velocity": 0.7874015748031497
        },
        {
          "duration": 0.10902260000000297,
          "durationTicks": 29,
          "midi": 59,
          "name": "B3",
          "ticks": 36690,
          "time": 137.93238599999998,
          "velocity": 0.7874015748031497
        },
        {
          "duration": 0.10902260000000297,
          "durationTicks": 29,
          "midi": 64,
          "name": "E4",
          "ticks": 36720,
          "time": 138.045168,
          "velocity": 0.7874015748031497
        },
        {
          "duration": 0.10902260000000297,
          "durationTicks": 29,
          "midi": 59,
          "name": "B3",
          "ticks": 36750,
          "time": 138.15795,
          "velocity": 0.7874015748031497
        },
        {
          "duration": 0.10902260000000297,
          "durationTicks": 29,
          "midi": 63,
          "name": "D#4",
          "ticks": 36780,
          "time": 138.27073199999998,
          "velocity": 0.7874015748031497
        },
        {
          "duration": 0.10902260000000297,
          "durationTicks": 29,
          "midi": 59,
          "name": "B3",
          "ticks": 36810,
          "time": 138.383514,
          "velocity": 0.7874015748031497
        },
        {
          "duration": 0.10902260000000297,
          "durationTicks": 29,
          "midi": 64,
          "name": "E4",
          "ticks": 36840,
          "time": 138.496296,
          "velocity": 0.7874015748031497
        },
        {
          "duration": 0.10902260000000297,
          "durationTicks": 29,
          "midi": 59,
          "name": "B3",
          "ticks": 36870,
          "time": 138.60907799999998,
          "velocity": 0.7874015748031497
        },
        {
          "duration": 0.10902260000000297,
          "durationTicks": 29,
          "midi": 63,
          "name": "D#4",
          "ticks": 36900,
          "time": 138.72186,
          "velocity": 0.7874015748031497
        },
        {
          "duration": 0.10902260000000297,
          "durationTicks": 29,
          "midi": 59,
          "name": "B3",
          "ticks": 36930,
          "time": 138.834642,
          "velocity": 0.7874015748031497
        },
        {
          "duration": 0.10902260000000297,
          "durationTicks": 29,
          "midi": 71,
          "name": "B4",
          "ticks": 36960,
          "time": 138.94742399999998,
          "velocity": 0.7874015748031497
        },
        {
          "duration": 0.10902260000000297,
          "durationTicks": 29,
          "midi": 59,
          "name": "B3",
          "ticks": 36990,
          "time": 139.060206,
          "velocity": 0.7874015748031497
        },
        {
          "duration": 0.10902260000000297,
          "durationTicks": 29,
          "midi": 69,
          "name": "A4",
          "ticks": 37020,
          "time": 139.172988,
          "velocity": 0.7874015748031497
        },
        {
          "duration": 0.10902260000000297,
          "durationTicks": 29,
          "midi": 59,
          "name": "B3",
          "ticks": 37050,
          "time": 139.28576999999999,
          "velocity": 0.7874015748031497
        },
        {
          "duration": 0.10902260000000297,
          "durationTicks": 29,
          "midi": 68,
          "name": "G#4",
          "ticks": 37080,
          "time": 139.398552,
          "velocity": 0.7874015748031497
        },
        {
          "duration": 0.10902260000000297,
          "durationTicks": 29,
          "midi": 59,
          "name": "B3",
          "ticks": 37110,
          "time": 139.511334,
          "velocity": 0.7874015748031497
        },
        {
          "duration": 0.10902260000000297,
          "durationTicks": 29,
          "midi": 69,
          "name": "A4",
          "ticks": 37140,
          "time": 139.624116,
          "velocity": 0.7874015748031497
        },
        {
          "duration": 0.10902260000000297,
          "durationTicks": 29,
          "midi": 59,
          "name": "B3",
          "ticks": 37170,
          "time": 139.736898,
          "velocity": 0.7874015748031497
        },
        {
          "duration": 0.10902260000003139,
          "durationTicks": 29,
          "midi": 68,
          "name": "G#4",
          "ticks": 37200,
          "time": 139.84967999999998,
          "velocity": 0.7874015748031497
        },
        {
          "duration": 0.10902260000000297,
          "durationTicks": 29,
          "midi": 59,
          "name": "B3",
          "ticks": 37230,
          "time": 139.962462,
          "velocity": 0.7874015748031497
        },
        {
          "duration": 0.10902260000000297,
          "durationTicks": 29,
          "midi": 66,
          "name": "F#4",
          "ticks": 37260,
          "time": 140.075244,
          "velocity": 0.7874015748031497
        },
        {
          "duration": 0.10902260000000297,
          "durationTicks": 29,
          "midi": 59,
          "name": "B3",
          "ticks": 37290,
          "time": 140.18802599999998,
          "velocity": 0.7874015748031497
        },
        {
          "duration": 0.10902260000000297,
          "durationTicks": 29,
          "midi": 68,
          "name": "G#4",
          "ticks": 37320,
          "time": 140.300808,
          "velocity": 0.7874015748031497
        },
        {
          "duration": 0.10902260000000297,
          "durationTicks": 29,
          "midi": 59,
          "name": "B3",
          "ticks": 37350,
          "time": 140.41359,
          "velocity": 0.7874015748031497
        },
        {
          "duration": 0.10902260000000297,
          "durationTicks": 29,
          "midi": 64,
          "name": "E4",
          "ticks": 37380,
          "time": 140.52637199999998,
          "velocity": 0.7874015748031497
        },
        {
          "duration": 0.10902260000000297,
          "durationTicks": 29,
          "midi": 59,
          "name": "B3",
          "ticks": 37410,
          "time": 140.639154,
          "velocity": 0.7874015748031497
        },
        {
          "duration": 0.10902260000000297,
          "durationTicks": 29,
          "midi": 66,
          "name": "F#4",
          "ticks": 37440,
          "time": 140.751936,
          "velocity": 0.7874015748031497
        },
        {
          "duration": 0.10902260000000297,
          "durationTicks": 29,
          "midi": 59,
          "name": "B3",
          "ticks": 37470,
          "time": 140.86471799999998,
          "velocity": 0.7874015748031497
        },
        {
          "duration": 0.10902260000000297,
          "durationTicks": 29,
          "midi": 63,
          "name": "D#4",
          "ticks": 37500,
          "time": 140.9775,
          "velocity": 0.7874015748031497
        },
        {
          "duration": 0.10902260000000297,
          "durationTicks": 29,
          "midi": 59,
          "name": "B3",
          "ticks": 37530,
          "time": 141.090282,
          "velocity": 0.7874015748031497
        },
        {
          "duration": 0.10902260000000297,
          "durationTicks": 29,
          "midi": 64,
          "name": "E4",
          "ticks": 37560,
          "time": 141.20306399999998,
          "velocity": 0.7874015748031497
        },
        {
          "duration": 0.10902260000000297,
          "durationTicks": 29,
          "midi": 59,
          "name": "B3",
          "ticks": 37590,
          "time": 141.315846,
          "velocity": 0.7874015748031497
        },
        {
          "duration": 0.10902260000000297,
          "durationTicks": 29,
          "midi": 63,
          "name": "D#4",
          "ticks": 37620,
          "time": 141.428628,
          "velocity": 0.7874015748031497
        },
        {
          "duration": 0.10902260000000297,
          "durationTicks": 29,
          "midi": 59,
          "name": "B3",
          "ticks": 37650,
          "time": 141.54140999999998,
          "velocity": 0.7874015748031497
        },
        {
          "duration": 0.10902260000000297,
          "durationTicks": 29,
          "midi": 64,
          "name": "E4",
          "ticks": 37680,
          "time": 141.654192,
          "velocity": 0.7874015748031497
        },
        {
          "duration": 0.10902260000000297,
          "durationTicks": 29,
          "midi": 59,
          "name": "B3",
          "ticks": 37710,
          "time": 141.766974,
          "velocity": 0.7874015748031497
        },
        {
          "duration": 0.10902260000000297,
          "durationTicks": 29,
          "midi": 63,
          "name": "D#4",
          "ticks": 37740,
          "time": 141.879756,
          "velocity": 0.7874015748031497
        },
        {
          "duration": 0.10902260000000297,
          "durationTicks": 29,
          "midi": 59,
          "name": "B3",
          "ticks": 37770,
          "time": 141.992538,
          "velocity": 0.7874015748031497
        },
        {
          "duration": 0.10902260000003139,
          "durationTicks": 29,
          "midi": 64,
          "name": "E4",
          "ticks": 37800,
          "time": 142.10531999999998,
          "velocity": 0.7874015748031497
        },
        {
          "duration": 0.10902260000000297,
          "durationTicks": 29,
          "midi": 59,
          "name": "B3",
          "ticks": 37830,
          "time": 142.218102,
          "velocity": 0.7874015748031497
        },
        {
          "duration": 0.10902260000000297,
          "durationTicks": 29,
          "midi": 63,
          "name": "D#4",
          "ticks": 37860,
          "time": 142.330884,
          "velocity": 0.7874015748031497
        },
        {
          "duration": 0.10902260000000297,
          "durationTicks": 29,
          "midi": 59,
          "name": "B3",
          "ticks": 37890,
          "time": 142.44366599999998,
          "velocity": 0.7874015748031497
        },
        {
          "duration": 0.10902260000000297,
          "durationTicks": 29,
          "midi": 71,
          "name": "B4",
          "ticks": 37920,
          "time": 142.556448,
          "velocity": 0.7874015748031497
        },
        {
          "duration": 0.10902260000000297,
          "durationTicks": 29,
          "midi": 59,
          "name": "B3",
          "ticks": 37950,
          "time": 142.66923,
          "velocity": 0.7874015748031497
        },
        {
          "duration": 0.10902260000000297,
          "durationTicks": 29,
          "midi": 69,
          "name": "A4",
          "ticks": 37980,
          "time": 142.78201199999998,
          "velocity": 0.7874015748031497
        },
        {
          "duration": 0.10902260000000297,
          "durationTicks": 29,
          "midi": 59,
          "name": "B3",
          "ticks": 38010,
          "time": 142.894794,
          "velocity": 0.7874015748031497
        },
        {
          "duration": 0.10902260000000297,
          "durationTicks": 29,
          "midi": 68,
          "name": "G#4",
          "ticks": 38040,
          "time": 143.007576,
          "velocity": 0.7874015748031497
        },
        {
          "duration": 0.10902260000000297,
          "durationTicks": 29,
          "midi": 59,
          "name": "B3",
          "ticks": 38070,
          "time": 143.12035799999998,
          "velocity": 0.7874015748031497
        },
        {
          "duration": 0.10902260000000297,
          "durationTicks": 29,
          "midi": 69,
          "name": "A4",
          "ticks": 38100,
          "time": 143.23314,
          "velocity": 0.7874015748031497
        },
        {
          "duration": 0.10902260000000297,
          "durationTicks": 29,
          "midi": 59,
          "name": "B3",
          "ticks": 38130,
          "time": 143.345922,
          "velocity": 0.7874015748031497
        },
        {
          "duration": 0.10902260000000297,
          "durationTicks": 29,
          "midi": 68,
          "name": "G#4",
          "ticks": 38160,
          "time": 143.45870399999998,
          "velocity": 0.7874015748031497
        },
        {
          "duration": 0.10902260000000297,
          "durationTicks": 29,
          "midi": 59,
          "name": "B3",
          "ticks": 38190,
          "time": 143.571486,
          "velocity": 0.7874015748031497
        },
        {
          "duration": 0.10902260000000297,
          "durationTicks": 29,
          "midi": 66,
          "name": "F#4",
          "ticks": 38220,
          "time": 143.684268,
          "velocity": 0.7874015748031497
        },
        {
          "duration": 0.10902260000000297,
          "durationTicks": 29,
          "midi": 59,
          "name": "B3",
          "ticks": 38250,
          "time": 143.79704999999998,
          "velocity": 0.7874015748031497
        },
        {
          "duration": 0.10902260000000297,
          "durationTicks": 29,
          "midi": 68,
          "name": "G#4",
          "ticks": 38280,
          "time": 143.909832,
          "velocity": 0.7874015748031497
        },
        {
          "duration": 0.10902260000000297,
          "durationTicks": 29,
          "midi": 59,
          "name": "B3",
          "ticks": 38310,
          "time": 144.022614,
          "velocity": 0.7874015748031497
        },
        {
          "duration": 0.10902260000000297,
          "durationTicks": 29,
          "midi": 64,
          "name": "E4",
          "ticks": 38340,
          "time": 144.135396,
          "velocity": 0.7874015748031497
        },
        {
          "duration": 0.10902260000000297,
          "durationTicks": 29,
          "midi": 59,
          "name": "B3",
          "ticks": 38370,
          "time": 144.248178,
          "velocity": 0.7874015748031497
        },
        {
          "duration": 0.10902260000003139,
          "durationTicks": 29,
          "midi": 66,
          "name": "F#4",
          "ticks": 38400,
          "time": 144.36095999999998,
          "velocity": 0.7874015748031497
        },
        {
          "duration": 0.10902260000000297,
          "durationTicks": 29,
          "midi": 59,
          "name": "B3",
          "ticks": 38430,
          "time": 144.473742,
          "velocity": 0.7874015748031497
        },
        {
          "duration": 0.10902260000000297,
          "durationTicks": 29,
          "midi": 63,
          "name": "D#4",
          "ticks": 38460,
          "time": 144.586524,
          "velocity": 0.7874015748031497
        },
        {
          "duration": 0.10902260000000297,
          "durationTicks": 29,
          "midi": 59,
          "name": "B3",
          "ticks": 38490,
          "time": 144.69930599999998,
          "velocity": 0.7874015748031497
        },
        {
          "duration": 0.10902260000000297,
          "durationTicks": 29,
          "midi": 64,
          "name": "E4",
          "ticks": 38520,
          "time": 144.812088,
          "velocity": 0.7874015748031497
        },
        {
          "duration": 0.10902260000000297,
          "durationTicks": 29,
          "midi": 59,
          "name": "B3",
          "ticks": 38550,
          "time": 144.92487,
          "velocity": 0.7874015748031497
        },
        {
          "duration": 0.10902260000000297,
          "durationTicks": 29,
          "midi": 63,
          "name": "D#4",
          "ticks": 38580,
          "time": 145.03765199999998,
          "velocity": 0.7874015748031497
        },
        {
          "duration": 0.10902260000000297,
          "durationTicks": 29,
          "midi": 59,
          "name": "B3",
          "ticks": 38610,
          "time": 145.150434,
          "velocity": 0.7874015748031497
        },
        {
          "duration": 0.10902260000000297,
          "durationTicks": 29,
          "midi": 64,
          "name": "E4",
          "ticks": 38640,
          "time": 145.263216,
          "velocity": 0.7874015748031497
        },
        {
          "duration": 0.10902260000000297,
          "durationTicks": 29,
          "midi": 59,
          "name": "B3",
          "ticks": 38670,
          "time": 145.37599799999998,
          "velocity": 0.7874015748031497
        },
        {
          "duration": 0.10902260000000297,
          "durationTicks": 29,
          "midi": 63,
          "name": "D#4",
          "ticks": 38700,
          "time": 145.48878,
          "velocity": 0.7874015748031497
        },
        {
          "duration": 0.10902260000000297,
          "durationTicks": 29,
          "midi": 59,
          "name": "B3",
          "ticks": 38730,
          "time": 145.601562,
          "velocity": 0.7874015748031497
        },
        {
          "duration": 0.10902260000000297,
          "durationTicks": 29,
          "midi": 64,
          "name": "E4",
          "ticks": 38760,
          "time": 145.71434399999998,
          "velocity": 0.7874015748031497
        },
        {
          "duration": 0.10902260000000297,
          "durationTicks": 29,
          "midi": 59,
          "name": "B3",
          "ticks": 38790,
          "time": 145.827126,
          "velocity": 0.7874015748031497
        },
        {
          "duration": 0.10902260000000297,
          "durationTicks": 29,
          "midi": 63,
          "name": "D#4",
          "ticks": 38820,
          "time": 145.939908,
          "velocity": 0.7874015748031497
        },
        {
          "duration": 0.10902260000000297,
          "durationTicks": 29,
          "midi": 59,
          "name": "B3",
          "ticks": 38850,
          "time": 146.05268999999998,
          "velocity": 0.7874015748031497
        },
        {
          "duration": 0.10902260000000297,
          "durationTicks": 29,
          "midi": 71,
          "name": "B4",
          "ticks": 38880,
          "time": 146.165472,
          "velocity": 0.7874015748031497
        },
        {
          "duration": 0.10902260000000297,
          "durationTicks": 29,
          "midi": 59,
          "name": "B3",
          "ticks": 38910,
          "time": 146.278254,
          "velocity": 0.7874015748031497
        },
        {
          "duration": 0.10902260000000297,
          "durationTicks": 29,
          "midi": 69,
          "name": "A4",
          "ticks": 38940,
          "time": 146.39103599999999,
          "velocity": 0.7874015748031497
        },
        {
          "duration": 0.10902260000000297,
          "durationTicks": 29,
          "midi": 59,
          "name": "B3",
          "ticks": 38970,
          "time": 146.503818,
          "velocity": 0.7874015748031497
        },
        {
          "duration": 0.10902260000000297,
          "durationTicks": 29,
          "midi": 68,
          "name": "G#4",
          "ticks": 39000,
          "time": 146.6166,
          "velocity": 0.7874015748031497
        },
        {
          "duration": 0.10902260000000297,
          "durationTicks": 29,
          "midi": 59,
          "name": "B3",
          "ticks": 39030,
          "time": 146.729382,
          "velocity": 0.7874015748031497
        },
        {
          "duration": 0.10902260000000297,
          "durationTicks": 29,
          "midi": 69,
          "name": "A4",
          "ticks": 39060,
          "time": 146.842164,
          "velocity": 0.7874015748031497
        },
        {
          "duration": 0.10902260000000297,
          "durationTicks": 29,
          "midi": 59,
          "name": "B3",
          "ticks": 39090,
          "time": 146.95494599999998,
          "velocity": 0.7874015748031497
        },
        {
          "duration": 0.10902260000000297,
          "durationTicks": 29,
          "midi": 68,
          "name": "G#4",
          "ticks": 39120,
          "time": 147.067728,
          "velocity": 0.7874015748031497
        },
        {
          "duration": 0.10902260000000297,
          "durationTicks": 29,
          "midi": 59,
          "name": "B3",
          "ticks": 39150,
          "time": 147.18051,
          "velocity": 0.7874015748031497
        },
        {
          "duration": 0.10902260000000297,
          "durationTicks": 29,
          "midi": 66,
          "name": "F#4",
          "ticks": 39180,
          "time": 147.29329199999998,
          "velocity": 0.7874015748031497
        },
        {
          "duration": 0.10902260000000297,
          "durationTicks": 29,
          "midi": 59,
          "name": "B3",
          "ticks": 39210,
          "time": 147.406074,
          "velocity": 0.7874015748031497
        },
        {
          "duration": 0.10902260000000297,
          "durationTicks": 29,
          "midi": 68,
          "name": "G#4",
          "ticks": 39240,
          "time": 147.518856,
          "velocity": 0.7874015748031497
        },
        {
          "duration": 0.10902260000000297,
          "durationTicks": 29,
          "midi": 59,
          "name": "B3",
          "ticks": 39270,
          "time": 147.63163799999998,
          "velocity": 0.7874015748031497
        },
        {
          "duration": 0.10902260000000297,
          "durationTicks": 29,
          "midi": 64,
          "name": "E4",
          "ticks": 39300,
          "time": 147.74442,
          "velocity": 0.7874015748031497
        },
        {
          "duration": 0.10902260000000297,
          "durationTicks": 29,
          "midi": 59,
          "name": "B3",
          "ticks": 39330,
          "time": 147.857202,
          "velocity": 0.7874015748031497
        },
        {
          "duration": 0.10902260000000297,
          "durationTicks": 29,
          "midi": 66,
          "name": "F#4",
          "ticks": 39360,
          "time": 147.96998399999998,
          "velocity": 0.7874015748031497
        },
        {
          "duration": 0.10902260000000297,
          "durationTicks": 29,
          "midi": 59,
          "name": "B3",
          "ticks": 39390,
          "time": 148.082766,
          "velocity": 0.7874015748031497
        },
        {
          "duration": 0.10902260000000297,
          "durationTicks": 29,
          "midi": 63,
          "name": "D#4",
          "ticks": 39420,
          "time": 148.195548,
          "velocity": 0.7874015748031497
        },
        {
          "duration": 0.10902260000000297,
          "durationTicks": 29,
          "midi": 59,
          "name": "B3",
          "ticks": 39450,
          "time": 148.30832999999998,
          "velocity": 0.7874015748031497
        },
        {
          "duration": 0.10902260000000297,
          "durationTicks": 29,
          "midi": 64,
          "name": "E4",
          "ticks": 39480,
          "time": 148.421112,
          "velocity": 0.7874015748031497
        },
        {
          "duration": 0.10902260000000297,
          "durationTicks": 29,
          "midi": 59,
          "name": "B3",
          "ticks": 39510,
          "time": 148.533894,
          "velocity": 0.7874015748031497
        },
        {
          "duration": 0.10902260000000297,
          "durationTicks": 29,
          "midi": 63,
          "name": "D#4",
          "ticks": 39540,
          "time": 148.64667599999999,
          "velocity": 0.7874015748031497
        },
        {
          "duration": 0.10902260000000297,
          "durationTicks": 29,
          "midi": 59,
          "name": "B3",
          "ticks": 39570,
          "time": 148.759458,
          "velocity": 0.7874015748031497
        },
        {
          "duration": 0.10902260000000297,
          "durationTicks": 29,
          "midi": 64,
          "name": "E4",
          "ticks": 39600,
          "time": 148.87224,
          "velocity": 0.7874015748031497
        },
        {
          "duration": 0.10902260000000297,
          "durationTicks": 29,
          "midi": 59,
          "name": "B3",
          "ticks": 39630,
          "time": 148.985022,
          "velocity": 0.7874015748031497
        },
        {
          "duration": 0.10902260000000297,
          "durationTicks": 29,
          "midi": 63,
          "name": "D#4",
          "ticks": 39660,
          "time": 149.097804,
          "velocity": 0.7874015748031497
        },
        {
          "duration": 0.10902260000000297,
          "durationTicks": 29,
          "midi": 59,
          "name": "B3",
          "ticks": 39690,
          "time": 149.21058599999998,
          "velocity": 0.7874015748031497
        },
        {
          "duration": 0.10902260000000297,
          "durationTicks": 29,
          "midi": 64,
          "name": "E4",
          "ticks": 39720,
          "time": 149.323368,
          "velocity": 0.7874015748031497
        },
        {
          "duration": 0.10902260000000297,
          "durationTicks": 29,
          "midi": 59,
          "name": "B3",
          "ticks": 39750,
          "time": 149.43615,
          "velocity": 0.7874015748031497
        },
        {
          "duration": 0.10902260000000297,
          "durationTicks": 29,
          "midi": 63,
          "name": "D#4",
          "ticks": 39780,
          "time": 149.54893199999998,
          "velocity": 0.7874015748031497
        },
        {
          "duration": 0.10902260000000297,
          "durationTicks": 29,
          "midi": 59,
          "name": "B3",
          "ticks": 39810,
          "time": 149.661714,
          "velocity": 0.7874015748031497
        },
        {
          "duration": 0.10902260000000297,
          "durationTicks": 29,
          "midi": 71,
          "name": "B4",
          "ticks": 39840,
          "time": 149.774496,
          "velocity": 0.7874015748031497
        },
        {
          "duration": 0.10902260000000297,
          "durationTicks": 29,
          "midi": 59,
          "name": "B3",
          "ticks": 39870,
          "time": 149.88727799999998,
          "velocity": 0.7874015748031497
        },
        {
          "duration": 0.10902260000000297,
          "durationTicks": 29,
          "midi": 69,
          "name": "A4",
          "ticks": 39900,
          "time": 150.00006,
          "velocity": 0.7874015748031497
        },
        {
          "duration": 0.10902260000000297,
          "durationTicks": 29,
          "midi": 59,
          "name": "B3",
          "ticks": 39930,
          "time": 150.112842,
          "velocity": 0.7874015748031497
        },
        {
          "duration": 0.10902260000000297,
          "durationTicks": 29,
          "midi": 68,
          "name": "G#4",
          "ticks": 39960,
          "time": 150.22562399999998,
          "velocity": 0.7874015748031497
        },
        {
          "duration": 0.10902260000000297,
          "durationTicks": 29,
          "midi": 59,
          "name": "B3",
          "ticks": 39990,
          "time": 150.338406,
          "velocity": 0.7874015748031497
        },
        {
          "duration": 0.10902260000000297,
          "durationTicks": 29,
          "midi": 69,
          "name": "A4",
          "ticks": 40020,
          "time": 150.451188,
          "velocity": 0.7874015748031497
        },
        {
          "duration": 0.10902260000000297,
          "durationTicks": 29,
          "midi": 59,
          "name": "B3",
          "ticks": 40050,
          "time": 150.56396999999998,
          "velocity": 0.7874015748031497
        },
        {
          "duration": 0.10902260000000297,
          "durationTicks": 29,
          "midi": 68,
          "name": "G#4",
          "ticks": 40080,
          "time": 150.676752,
          "velocity": 0.7874015748031497
        },
        {
          "duration": 0.10902260000000297,
          "durationTicks": 29,
          "midi": 59,
          "name": "B3",
          "ticks": 40110,
          "time": 150.789534,
          "velocity": 0.7874015748031497
        },
        {
          "duration": 0.10902260000000297,
          "durationTicks": 29,
          "midi": 66,
          "name": "F#4",
          "ticks": 40140,
          "time": 150.90231599999998,
          "velocity": 0.7874015748031497
        },
        {
          "duration": 0.10902260000000297,
          "durationTicks": 29,
          "midi": 59,
          "name": "B3",
          "ticks": 40170,
          "time": 151.015098,
          "velocity": 0.7874015748031497
        },
        {
          "duration": 0.10902260000000297,
          "durationTicks": 29,
          "midi": 68,
          "name": "G#4",
          "ticks": 40200,
          "time": 151.12788,
          "velocity": 0.7874015748031497
        },
        {
          "duration": 0.10902260000000297,
          "durationTicks": 29,
          "midi": 59,
          "name": "B3",
          "ticks": 40230,
          "time": 151.240662,
          "velocity": 0.7874015748031497
        },
        {
          "duration": 0.10902260000000297,
          "durationTicks": 29,
          "midi": 64,
          "name": "E4",
          "ticks": 40260,
          "time": 151.353444,
          "velocity": 0.7874015748031497
        },
        {
          "duration": 0.10902260000000297,
          "durationTicks": 29,
          "midi": 59,
          "name": "B3",
          "ticks": 40290,
          "time": 151.46622599999998,
          "velocity": 0.7874015748031497
        },
        {
          "duration": 0.10902260000000297,
          "durationTicks": 29,
          "midi": 66,
          "name": "F#4",
          "ticks": 40320,
          "time": 151.579008,
          "velocity": 0.7874015748031497
        },
        {
          "duration": 0.10902260000000297,
          "durationTicks": 29,
          "midi": 59,
          "name": "B3",
          "ticks": 40350,
          "time": 151.69179,
          "velocity": 0.7874015748031497
        },
        {
          "duration": 0.10902260000000297,
          "durationTicks": 29,
          "midi": 63,
          "name": "D#4",
          "ticks": 40380,
          "time": 151.80457199999998,
          "velocity": 0.7874015748031497
        },
        {
          "duration": 0.10902260000000297,
          "durationTicks": 29,
          "midi": 59,
          "name": "B3",
          "ticks": 40410,
          "time": 151.917354,
          "velocity": 0.7874015748031497
        },
        {
          "duration": 0.10902260000000297,
          "durationTicks": 29,
          "midi": 64,
          "name": "E4",
          "ticks": 40440,
          "time": 152.030136,
          "velocity": 0.7874015748031497
        },
        {
          "duration": 0.10902260000000297,
          "durationTicks": 29,
          "midi": 59,
          "name": "B3",
          "ticks": 40470,
          "time": 152.14291799999998,
          "velocity": 0.7874015748031497
        },
        {
          "duration": 0.10902260000000297,
          "durationTicks": 29,
          "midi": 63,
          "name": "D#4",
          "ticks": 40500,
          "time": 152.2557,
          "velocity": 0.7874015748031497
        },
        {
          "duration": 0.10902260000000297,
          "durationTicks": 29,
          "midi": 59,
          "name": "B3",
          "ticks": 40530,
          "time": 152.368482,
          "velocity": 0.7874015748031497
        },
        {
          "duration": 0.10902260000000297,
          "durationTicks": 29,
          "midi": 64,
          "name": "E4",
          "ticks": 40560,
          "time": 152.48126399999998,
          "velocity": 0.7874015748031497
        },
        {
          "duration": 0.10902260000000297,
          "durationTicks": 29,
          "midi": 59,
          "name": "B3",
          "ticks": 40590,
          "time": 152.594046,
          "velocity": 0.7874015748031497
        },
        {
          "duration": 0.10902260000000297,
          "durationTicks": 29,
          "midi": 63,
          "name": "D#4",
          "ticks": 40620,
          "time": 152.706828,
          "velocity": 0.7874015748031497
        },
        {
          "duration": 0.10902260000000297,
          "durationTicks": 29,
          "midi": 59,
          "name": "B3",
          "ticks": 40650,
          "time": 152.81960999999998,
          "velocity": 0.7874015748031497
        },
        {
          "duration": 0.10902260000000297,
          "durationTicks": 29,
          "midi": 64,
          "name": "E4",
          "ticks": 40680,
          "time": 152.932392,
          "velocity": 0.7874015748031497
        },
        {
          "duration": 0.10902260000000297,
          "durationTicks": 29,
          "midi": 59,
          "name": "B3",
          "ticks": 40710,
          "time": 153.045174,
          "velocity": 0.7874015748031497
        },
        {
          "duration": 0.10902260000000297,
          "durationTicks": 29,
          "midi": 63,
          "name": "D#4",
          "ticks": 40740,
          "time": 153.15795599999998,
          "velocity": 0.7874015748031497
        },
        {
          "duration": 0.10902260000000297,
          "durationTicks": 29,
          "midi": 59,
          "name": "B3",
          "ticks": 40770,
          "time": 153.270738,
          "velocity": 0.7874015748031497
        },
        {
          "duration": 0.10902260000000297,
          "durationTicks": 29,
          "midi": 71,
          "name": "B4",
          "ticks": 40800,
          "time": 153.38352,
          "velocity": 0.7874015748031497
        },
        {
          "duration": 0.10902260000000297,
          "durationTicks": 29,
          "midi": 59,
          "name": "B3",
          "ticks": 40830,
          "time": 153.496302,
          "velocity": 0.7874015748031497
        },
        {
          "duration": 0.10902260000000297,
          "durationTicks": 29,
          "midi": 69,
          "name": "A4",
          "ticks": 40860,
          "time": 153.609084,
          "velocity": 0.7874015748031497
        },
        {
          "duration": 0.10902260000000297,
          "durationTicks": 29,
          "midi": 59,
          "name": "B3",
          "ticks": 40890,
          "time": 153.72186599999998,
          "velocity": 0.7874015748031497
        },
        {
          "duration": 0.10902260000000297,
          "durationTicks": 29,
          "midi": 68,
          "name": "G#4",
          "ticks": 40920,
          "time": 153.834648,
          "velocity": 0.7874015748031497
        },
        {
          "duration": 0.10902260000000297,
          "durationTicks": 29,
          "midi": 59,
          "name": "B3",
          "ticks": 40950,
          "time": 153.94743,
          "velocity": 0.7874015748031497
        },
        {
          "duration": 0.10902260000000297,
          "durationTicks": 29,
          "midi": 69,
          "name": "A4",
          "ticks": 40980,
          "time": 154.06021199999998,
          "velocity": 0.7874015748031497
        },
        {
          "duration": 0.10902260000000297,
          "durationTicks": 29,
          "midi": 59,
          "name": "B3",
          "ticks": 41010,
          "time": 154.172994,
          "velocity": 0.7874015748031497
        },
        {
          "duration": 0.10902260000000297,
          "durationTicks": 29,
          "midi": 68,
          "name": "G#4",
          "ticks": 41040,
          "time": 154.285776,
          "velocity": 0.7874015748031497
        },
        {
          "duration": 0.10902260000000297,
          "durationTicks": 29,
          "midi": 59,
          "name": "B3",
          "ticks": 41070,
          "time": 154.39855799999998,
          "velocity": 0.7874015748031497
        },
        {
          "duration": 0.10902260000000297,
          "durationTicks": 29,
          "midi": 66,
          "name": "F#4",
          "ticks": 41100,
          "time": 154.51134,
          "velocity": 0.7874015748031497
        },
        {
          "duration": 0.10902260000000297,
          "durationTicks": 29,
          "midi": 59,
          "name": "B3",
          "ticks": 41130,
          "time": 154.624122,
          "velocity": 0.7874015748031497
        },
        {
          "duration": 0.10902260000000297,
          "durationTicks": 29,
          "midi": 68,
          "name": "G#4",
          "ticks": 41160,
          "time": 154.73690399999998,
          "velocity": 0.7874015748031497
        },
        {
          "duration": 0.10902260000000297,
          "durationTicks": 29,
          "midi": 59,
          "name": "B3",
          "ticks": 41190,
          "time": 154.849686,
          "velocity": 0.7874015748031497
        },
        {
          "duration": 0.10902260000000297,
          "durationTicks": 29,
          "midi": 64,
          "name": "E4",
          "ticks": 41220,
          "time": 154.962468,
          "velocity": 0.7874015748031497
        },
        {
          "duration": 0.10902260000000297,
          "durationTicks": 29,
          "midi": 59,
          "name": "B3",
          "ticks": 41250,
          "time": 155.07524999999998,
          "velocity": 0.7874015748031497
        },
        {
          "duration": 0.10902260000000297,
          "durationTicks": 29,
          "midi": 66,
          "name": "F#4",
          "ticks": 41280,
          "time": 155.188032,
          "velocity": 0.7874015748031497
        },
        {
          "duration": 0.10902260000000297,
          "durationTicks": 29,
          "midi": 59,
          "name": "B3",
          "ticks": 41310,
          "time": 155.300814,
          "velocity": 0.7874015748031497
        },
        {
          "duration": 0.10902260000000297,
          "durationTicks": 29,
          "midi": 63,
          "name": "D#4",
          "ticks": 41340,
          "time": 155.41359599999998,
          "velocity": 0.7874015748031497
        },
        {
          "duration": 0.10902260000000297,
          "durationTicks": 29,
          "midi": 59,
          "name": "B3",
          "ticks": 41370,
          "time": 155.526378,
          "velocity": 0.7874015748031497
        },
        {
          "duration": 0.10902260000000297,
          "durationTicks": 29,
          "midi": 64,
          "name": "E4",
          "ticks": 41400,
          "time": 155.63916,
          "velocity": 0.7874015748031497
        },
        {
          "duration": 0.10902260000000297,
          "durationTicks": 29,
          "midi": 59,
          "name": "B3",
          "ticks": 41430,
          "time": 155.75194199999999,
          "velocity": 0.7874015748031497
        },
        {
          "duration": 0.10902260000000297,
          "durationTicks": 29,
          "midi": 63,
          "name": "D#4",
          "ticks": 41460,
          "time": 155.864724,
          "velocity": 0.7874015748031497
        },
        {
          "duration": 0.10902260000003139,
          "durationTicks": 29,
          "midi": 59,
          "name": "B3",
          "ticks": 41490,
          "time": 155.97750599999998,
          "velocity": 0.7874015748031497
        },
        {
          "duration": 0.10902260000000297,
          "durationTicks": 29,
          "midi": 64,
          "name": "E4",
          "ticks": 41520,
          "time": 156.090288,
          "velocity": 0.7874015748031497
        },
        {
          "duration": 0.10902260000000297,
          "durationTicks": 29,
          "midi": 59,
          "name": "B3",
          "ticks": 41550,
          "time": 156.20307,
          "velocity": 0.7874015748031497
        },
        {
          "duration": 0.10902260000000297,
          "durationTicks": 29,
          "midi": 63,
          "name": "D#4",
          "ticks": 41580,
          "time": 156.31585199999998,
          "velocity": 0.7874015748031497
        },
        {
          "duration": 0.10902260000000297,
          "durationTicks": 29,
          "midi": 59,
          "name": "B3",
          "ticks": 41610,
          "time": 156.428634,
          "velocity": 0.7874015748031497
        },
        {
          "duration": 0.10902260000000297,
          "durationTicks": 29,
          "midi": 64,
          "name": "E4",
          "ticks": 41640,
          "time": 156.541416,
          "velocity": 0.7874015748031497
        },
        {
          "duration": 0.10902260000000297,
          "durationTicks": 29,
          "midi": 59,
          "name": "B3",
          "ticks": 41670,
          "time": 156.65419799999998,
          "velocity": 0.7874015748031497
        },
        {
          "duration": 0.10902260000000297,
          "durationTicks": 29,
          "midi": 63,
          "name": "D#4",
          "ticks": 41700,
          "time": 156.76698,
          "velocity": 0.7874015748031497
        },
        {
          "duration": 0.10902260000000297,
          "durationTicks": 29,
          "midi": 59,
          "name": "B3",
          "ticks": 41730,
          "time": 156.879762,
          "velocity": 0.7874015748031497
        },
        {
          "duration": 0.10902260000000297,
          "durationTicks": 29,
          "midi": 71,
          "name": "B4",
          "ticks": 41760,
          "time": 156.99254399999998,
          "velocity": 0.7874015748031497
        },
        {
          "duration": 0.10902260000000297,
          "durationTicks": 29,
          "midi": 59,
          "name": "B3",
          "ticks": 41790,
          "time": 157.105326,
          "velocity": 0.7874015748031497
        },
        {
          "duration": 0.10902260000000297,
          "durationTicks": 29,
          "midi": 69,
          "name": "A4",
          "ticks": 41820,
          "time": 157.218108,
          "velocity": 0.7874015748031497
        },
        {
          "duration": 0.10902260000000297,
          "durationTicks": 29,
          "midi": 59,
          "name": "B3",
          "ticks": 41850,
          "time": 157.33088999999998,
          "velocity": 0.7874015748031497
        },
        {
          "duration": 0.10902260000000297,
          "durationTicks": 29,
          "midi": 68,
          "name": "G#4",
          "ticks": 41880,
          "time": 157.443672,
          "velocity": 0.7874015748031497
        },
        {
          "duration": 0.10902260000000297,
          "durationTicks": 29,
          "midi": 59,
          "name": "B3",
          "ticks": 41910,
          "time": 157.556454,
          "velocity": 0.7874015748031497
        },
        {
          "duration": 0.10902260000000297,
          "durationTicks": 29,
          "midi": 69,
          "name": "A4",
          "ticks": 41940,
          "time": 157.66923599999998,
          "velocity": 0.7874015748031497
        },
        {
          "duration": 0.10902260000000297,
          "durationTicks": 29,
          "midi": 59,
          "name": "B3",
          "ticks": 41970,
          "time": 157.782018,
          "velocity": 0.7874015748031497
        },
        {
          "duration": 0.10902260000000297,
          "durationTicks": 29,
          "midi": 68,
          "name": "G#4",
          "ticks": 42000,
          "time": 157.8948,
          "velocity": 0.7874015748031497
        },
        {
          "duration": 0.10902260000000297,
          "durationTicks": 29,
          "midi": 59,
          "name": "B3",
          "ticks": 42030,
          "time": 158.00758199999999,
          "velocity": 0.7874015748031497
        },
        {
          "duration": 0.10902260000000297,
          "durationTicks": 29,
          "midi": 66,
          "name": "F#4",
          "ticks": 42060,
          "time": 158.120364,
          "velocity": 0.7874015748031497
        },
        {
          "duration": 0.10902260000003139,
          "durationTicks": 29,
          "midi": 59,
          "name": "B3",
          "ticks": 42090,
          "time": 158.23314599999998,
          "velocity": 0.7874015748031497
        },
        {
          "duration": 0.10902260000000297,
          "durationTicks": 29,
          "midi": 68,
          "name": "G#4",
          "ticks": 42120,
          "time": 158.345928,
          "velocity": 0.7874015748031497
        },
        {
          "duration": 0.10902260000000297,
          "durationTicks": 29,
          "midi": 59,
          "name": "B3",
          "ticks": 42150,
          "time": 158.45871,
          "velocity": 0.7874015748031497
        },
        {
          "duration": 0.10902260000000297,
          "durationTicks": 29,
          "midi": 64,
          "name": "E4",
          "ticks": 42180,
          "time": 158.57149199999998,
          "velocity": 0.7874015748031497
        },
        {
          "duration": 0.10902260000000297,
          "durationTicks": 29,
          "midi": 59,
          "name": "B3",
          "ticks": 42210,
          "time": 158.684274,
          "velocity": 0.7874015748031497
        },
        {
          "duration": 0.10902260000000297,
          "durationTicks": 29,
          "midi": 66,
          "name": "F#4",
          "ticks": 42240,
          "time": 158.797056,
          "velocity": 0.7874015748031497
        },
        {
          "duration": 0.10902260000000297,
          "durationTicks": 29,
          "midi": 59,
          "name": "B3",
          "ticks": 42270,
          "time": 158.90983799999998,
          "velocity": 0.7874015748031497
        },
        {
          "duration": 0.10902260000000297,
          "durationTicks": 29,
          "midi": 63,
          "name": "D#4",
          "ticks": 42300,
          "time": 159.02262,
          "velocity": 0.7874015748031497
        },
        {
          "duration": 0.10902260000000297,
          "durationTicks": 29,
          "midi": 59,
          "name": "B3",
          "ticks": 42330,
          "time": 159.135402,
          "velocity": 0.7874015748031497
        },
        {
          "duration": 0.10902260000000297,
          "durationTicks": 29,
          "midi": 64,
          "name": "E4",
          "ticks": 42360,
          "time": 159.24818399999998,
          "velocity": 0.7874015748031497
        },
        {
          "duration": 0.10902260000000297,
          "durationTicks": 29,
          "midi": 59,
          "name": "B3",
          "ticks": 42390,
          "time": 159.360966,
          "velocity": 0.7874015748031497
        },
        {
          "duration": 0.10902260000000297,
          "durationTicks": 29,
          "midi": 63,
          "name": "D#4",
          "ticks": 42420,
          "time": 159.473748,
          "velocity": 0.7874015748031497
        },
        {
          "duration": 0.10902260000000297,
          "durationTicks": 29,
          "midi": 59,
          "name": "B3",
          "ticks": 42450,
          "time": 159.58652999999998,
          "velocity": 0.7874015748031497
        },
        {
          "duration": 0.10902260000000297,
          "durationTicks": 29,
          "midi": 64,
          "name": "E4",
          "ticks": 42480,
          "time": 159.699312,
          "velocity": 0.7874015748031497
        },
        {
          "duration": 0.10902260000000297,
          "durationTicks": 29,
          "midi": 59,
          "name": "B3",
          "ticks": 42510,
          "time": 159.812094,
          "velocity": 0.7874015748031497
        },
        {
          "duration": 0.10902260000000297,
          "durationTicks": 29,
          "midi": 63,
          "name": "D#4",
          "ticks": 42540,
          "time": 159.92487599999998,
          "velocity": 0.7874015748031497
        },
        {
          "duration": 0.10902260000000297,
          "durationTicks": 29,
          "midi": 59,
          "name": "B3",
          "ticks": 42570,
          "time": 160.037658,
          "velocity": 0.7874015748031497
        },
        {
          "duration": 0.10902260000000297,
          "durationTicks": 29,
          "midi": 64,
          "name": "E4",
          "ticks": 42600,
          "time": 160.15044,
          "velocity": 0.7874015748031497
        },
        {
          "duration": 0.10902260000000297,
          "durationTicks": 29,
          "midi": 59,
          "name": "B3",
          "ticks": 42630,
          "time": 160.26322199999998,
          "velocity": 0.7874015748031497
        },
        {
          "duration": 0.10902260000000297,
          "durationTicks": 29,
          "midi": 63,
          "name": "D#4",
          "ticks": 42660,
          "time": 160.376004,
          "velocity": 0.7874015748031497
        },
        {
          "duration": 0.10902260000000297,
          "durationTicks": 29,
          "midi": 59,
          "name": "B3",
          "ticks": 42690,
          "time": 160.488786,
          "velocity": 0.7874015748031497
        },
        {
          "duration": 0.10902260000000297,
          "durationTicks": 29,
          "midi": 71,
          "name": "B4",
          "ticks": 42720,
          "time": 160.601568,
          "velocity": 0.7874015748031497
        },
        {
          "duration": 0.10902260000000297,
          "durationTicks": 29,
          "midi": 59,
          "name": "B3",
          "ticks": 42750,
          "time": 160.71435,
          "velocity": 0.7874015748031497
        },
        {
          "duration": 0.10902260000000297,
          "durationTicks": 29,
          "midi": 69,
          "name": "A4",
          "ticks": 42780,
          "time": 160.82713199999998,
          "velocity": 0.7874015748031497
        },
        {
          "duration": 0.10902260000000297,
          "durationTicks": 29,
          "midi": 59,
          "name": "B3",
          "ticks": 42810,
          "time": 160.939914,
          "velocity": 0.7874015748031497
        },
        {
          "duration": 0.10902260000000297,
          "durationTicks": 29,
          "midi": 68,
          "name": "G#4",
          "ticks": 42840,
          "time": 161.052696,
          "velocity": 0.7874015748031497
        },
        {
          "duration": 0.10902260000000297,
          "durationTicks": 29,
          "midi": 59,
          "name": "B3",
          "ticks": 42870,
          "time": 161.16547799999998,
          "velocity": 0.7874015748031497
        },
        {
          "duration": 0.10902260000000297,
          "durationTicks": 29,
          "midi": 69,
          "name": "A4",
          "ticks": 42900,
          "time": 161.27826,
          "velocity": 0.7874015748031497
        },
        {
          "duration": 0.10902260000000297,
          "durationTicks": 29,
          "midi": 59,
          "name": "B3",
          "ticks": 42930,
          "time": 161.391042,
          "velocity": 0.7874015748031497
        },
        {
          "duration": 0.10902260000000297,
          "durationTicks": 29,
          "midi": 68,
          "name": "G#4",
          "ticks": 42960,
          "time": 161.50382399999998,
          "velocity": 0.7874015748031497
        },
        {
          "duration": 0.10902260000000297,
          "durationTicks": 29,
          "midi": 59,
          "name": "B3",
          "ticks": 42990,
          "time": 161.616606,
          "velocity": 0.7874015748031497
        },
        {
          "duration": 0.10902260000000297,
          "durationTicks": 29,
          "midi": 66,
          "name": "F#4",
          "ticks": 43020,
          "time": 161.729388,
          "velocity": 0.7874015748031497
        },
        {
          "duration": 0.10902260000000297,
          "durationTicks": 29,
          "midi": 59,
          "name": "B3",
          "ticks": 43050,
          "time": 161.84216999999998,
          "velocity": 0.7874015748031497
        },
        {
          "duration": 0.10902260000000297,
          "durationTicks": 29,
          "midi": 68,
          "name": "G#4",
          "ticks": 43080,
          "time": 161.954952,
          "velocity": 0.7874015748031497
        },
        {
          "duration": 0.10902260000000297,
          "durationTicks": 29,
          "midi": 59,
          "name": "B3",
          "ticks": 43110,
          "time": 162.067734,
          "velocity": 0.7874015748031497
        },
        {
          "duration": 0.10902260000000297,
          "durationTicks": 29,
          "midi": 64,
          "name": "E4",
          "ticks": 43140,
          "time": 162.18051599999998,
          "velocity": 0.7874015748031497
        },
        {
          "duration": 0.10902260000000297,
          "durationTicks": 29,
          "midi": 59,
          "name": "B3",
          "ticks": 43170,
          "time": 162.293298,
          "velocity": 0.7874015748031497
        },
        {
          "duration": 0.10902260000000297,
          "durationTicks": 29,
          "midi": 66,
          "name": "F#4",
          "ticks": 43200,
          "time": 162.40608,
          "velocity": 0.7874015748031497
        },
        {
          "duration": 0.10902260000000297,
          "durationTicks": 29,
          "midi": 59,
          "name": "B3",
          "ticks": 43230,
          "time": 162.51886199999998,
          "velocity": 0.7874015748031497
        },
        {
          "duration": 0.10902260000000297,
          "durationTicks": 29,
          "midi": 63,
          "name": "D#4",
          "ticks": 43260,
          "time": 162.631644,
          "velocity": 0.7874015748031497
        },
        {
          "duration": 0.10902260000000297,
          "durationTicks": 29,
          "midi": 59,
          "name": "B3",
          "ticks": 43290,
          "time": 162.744426,
          "velocity": 0.7874015748031497
        },
        {
          "duration": 0.10902260000000297,
          "durationTicks": 29,
          "midi": 64,
          "name": "E4",
          "ticks": 43320,
          "time": 162.85720799999999,
          "velocity": 0.7874015748031497
        },
        {
          "duration": 0.10902260000000297,
          "durationTicks": 29,
          "midi": 59,
          "name": "B3",
          "ticks": 43350,
          "time": 162.96999,
          "velocity": 0.7874015748031497
        },
        {
          "duration": 0.10902260000000297,
          "durationTicks": 29,
          "midi": 63,
          "name": "D#4",
          "ticks": 43380,
          "time": 163.08277199999998,
          "velocity": 0.7874015748031497
        },
        {
          "duration": 0.10902260000000297,
          "durationTicks": 29,
          "midi": 59,
          "name": "B3",
          "ticks": 43410,
          "time": 163.195554,
          "velocity": 0.7874015748031497
        },
        {
          "duration": 0.10902260000000297,
          "durationTicks": 29,
          "midi": 64,
          "name": "E4",
          "ticks": 43440,
          "time": 163.308336,
          "velocity": 0.7874015748031497
        },
        {
          "duration": 0.10902260000000297,
          "durationTicks": 29,
          "midi": 59,
          "name": "B3",
          "ticks": 43470,
          "time": 163.42111799999998,
          "velocity": 0.7874015748031497
        },
        {
          "duration": 0.10902260000000297,
          "durationTicks": 29,
          "midi": 63,
          "name": "D#4",
          "ticks": 43500,
          "time": 163.5339,
          "velocity": 0.7874015748031497
        },
        {
          "duration": 0.10902260000000297,
          "durationTicks": 29,
          "midi": 59,
          "name": "B3",
          "ticks": 43530,
          "time": 163.646682,
          "velocity": 0.7874015748031497
        },
        {
          "duration": 0.10902260000000297,
          "durationTicks": 29,
          "midi": 64,
          "name": "E4",
          "ticks": 43560,
          "time": 163.75946399999998,
          "velocity": 0.7874015748031497
        },
        {
          "duration": 0.10902260000000297,
          "durationTicks": 29,
          "midi": 59,
          "name": "B3",
          "ticks": 43590,
          "time": 163.872246,
          "velocity": 0.7874015748031497
        },
        {
          "duration": 0.10902260000000297,
          "durationTicks": 29,
          "midi": 63,
          "name": "D#4",
          "ticks": 43620,
          "time": 163.985028,
          "velocity": 0.7874015748031497
        },
        {
          "duration": 0.10902260000000297,
          "durationTicks": 29,
          "midi": 59,
          "name": "B3",
          "ticks": 43650,
          "time": 164.09780999999998,
          "velocity": 0.7874015748031497
        },
        {
          "duration": 0.10902260000000297,
          "durationTicks": 29,
          "midi": 71,
          "name": "B4",
          "ticks": 43680,
          "time": 164.210592,
          "velocity": 0.7874015748031497
        },
        {
          "duration": 0.10902260000000297,
          "durationTicks": 29,
          "midi": 59,
          "name": "B3",
          "ticks": 43710,
          "time": 164.323374,
          "velocity": 0.7874015748031497
        },
        {
          "duration": 0.10902260000000297,
          "durationTicks": 29,
          "midi": 69,
          "name": "A4",
          "ticks": 43740,
          "time": 164.43615599999998,
          "velocity": 0.7874015748031497
        },
        {
          "duration": 0.10902260000000297,
          "durationTicks": 29,
          "midi": 59,
          "name": "B3",
          "ticks": 43770,
          "time": 164.548938,
          "velocity": 0.7874015748031497
        },
        {
          "duration": 0.10902260000000297,
          "durationTicks": 29,
          "midi": 68,
          "name": "G#4",
          "ticks": 43800,
          "time": 164.66172,
          "velocity": 0.7874015748031497
        },
        {
          "duration": 0.10902260000000297,
          "durationTicks": 29,
          "midi": 59,
          "name": "B3",
          "ticks": 43830,
          "time": 164.77450199999998,
          "velocity": 0.7874015748031497
        },
        {
          "duration": 0.10902260000000297,
          "durationTicks": 29,
          "midi": 69,
          "name": "A4",
          "ticks": 43860,
          "time": 164.887284,
          "velocity": 0.7874015748031497
        },
        {
          "duration": 0.10902260000000297,
          "durationTicks": 29,
          "midi": 59,
          "name": "B3",
          "ticks": 43890,
          "time": 165.000066,
          "velocity": 0.7874015748031497
        },
        {
          "duration": 0.10902260000000297,
          "durationTicks": 29,
          "midi": 68,
          "name": "G#4",
          "ticks": 43920,
          "time": 165.11284799999999,
          "velocity": 0.7874015748031497
        },
        {
          "duration": 0.10902260000000297,
          "durationTicks": 29,
          "midi": 59,
          "name": "B3",
          "ticks": 43950,
          "time": 165.22563,
          "velocity": 0.7874015748031497
        },
        {
          "duration": 0.10902260000000297,
          "durationTicks": 29,
          "midi": 66,
          "name": "F#4",
          "ticks": 43980,
          "time": 165.33841199999998,
          "velocity": 0.7874015748031497
        },
        {
          "duration": 0.10902260000000297,
          "durationTicks": 29,
          "midi": 59,
          "name": "B3",
          "ticks": 44010,
          "time": 165.451194,
          "velocity": 0.7874015748031497
        },
        {
          "duration": 0.10902260000000297,
          "durationTicks": 29,
          "midi": 68,
          "name": "G#4",
          "ticks": 44040,
          "time": 165.563976,
          "velocity": 0.7874015748031497
        },
        {
          "duration": 0.10902260000000297,
          "durationTicks": 29,
          "midi": 59,
          "name": "B3",
          "ticks": 44070,
          "time": 165.67675799999998,
          "velocity": 0.7874015748031497
        },
        {
          "duration": 0.10902260000000297,
          "durationTicks": 29,
          "midi": 64,
          "name": "E4",
          "ticks": 44100,
          "time": 165.78954,
          "velocity": 0.7874015748031497
        },
        {
          "duration": 0.10902260000000297,
          "durationTicks": 29,
          "midi": 59,
          "name": "B3",
          "ticks": 44130,
          "time": 165.902322,
          "velocity": 0.7874015748031497
        },
        {
          "duration": 0.10902260000000297,
          "durationTicks": 29,
          "midi": 66,
          "name": "F#4",
          "ticks": 44160,
          "time": 166.01510399999998,
          "velocity": 0.7874015748031497
        },
        {
          "duration": 0.10902260000000297,
          "durationTicks": 29,
          "midi": 59,
          "name": "B3",
          "ticks": 44190,
          "time": 166.127886,
          "velocity": 0.7874015748031497
        },
        {
          "duration": 0.10902260000000297,
          "durationTicks": 29,
          "midi": 63,
          "name": "D#4",
          "ticks": 44220,
          "time": 166.240668,
          "velocity": 0.7874015748031497
        },
        {
          "duration": 0.10902260000000297,
          "durationTicks": 29,
          "midi": 59,
          "name": "B3",
          "ticks": 44250,
          "time": 166.35344999999998,
          "velocity": 0.7874015748031497
        },
        {
          "duration": 0.10902260000000297,
          "durationTicks": 29,
          "midi": 64,
          "name": "E4",
          "ticks": 44280,
          "time": 166.466232,
          "velocity": 0.7874015748031497
        },
        {
          "duration": 0.10902260000000297,
          "durationTicks": 29,
          "midi": 59,
          "name": "B3",
          "ticks": 44310,
          "time": 166.579014,
          "velocity": 0.7874015748031497
        },
        {
          "duration": 0.10902260000000297,
          "durationTicks": 29,
          "midi": 63,
          "name": "D#4",
          "ticks": 44340,
          "time": 166.69179599999998,
          "velocity": 0.7874015748031497
        },
        {
          "duration": 0.10902260000000297,
          "durationTicks": 29,
          "midi": 59,
          "name": "B3",
          "ticks": 44370,
          "time": 166.804578,
          "velocity": 0.7874015748031497
        },
        {
          "duration": 0.10902260000000297,
          "durationTicks": 29,
          "midi": 64,
          "name": "E4",
          "ticks": 44400,
          "time": 166.91736,
          "velocity": 0.7874015748031497
        },
        {
          "duration": 0.10902260000000297,
          "durationTicks": 29,
          "midi": 59,
          "name": "B3",
          "ticks": 44430,
          "time": 167.03014199999998,
          "velocity": 0.7874015748031497
        },
        {
          "duration": 0.10902260000000297,
          "durationTicks": 29,
          "midi": 63,
          "name": "D#4",
          "ticks": 44460,
          "time": 167.142924,
          "velocity": 0.7874015748031497
        },
        {
          "duration": 0.10902260000000297,
          "durationTicks": 29,
          "midi": 59,
          "name": "B3",
          "ticks": 44490,
          "time": 167.255706,
          "velocity": 0.7874015748031497
        },
        {
          "duration": 0.10902260000000297,
          "durationTicks": 29,
          "midi": 64,
          "name": "E4",
          "ticks": 44520,
          "time": 167.36848799999999,
          "velocity": 0.7874015748031497
        },
        {
          "duration": 0.10902260000000297,
          "durationTicks": 29,
          "midi": 59,
          "name": "B3",
          "ticks": 44550,
          "time": 167.48127,
          "velocity": 0.7874015748031497
        },
        {
          "duration": 0.10902260000000297,
          "durationTicks": 29,
          "midi": 63,
          "name": "D#4",
          "ticks": 44580,
          "time": 167.59405199999998,
          "velocity": 0.7874015748031497
        },
        {
          "duration": 0.10902260000000297,
          "durationTicks": 29,
          "midi": 59,
          "name": "B3",
          "ticks": 44610,
          "time": 167.706834,
          "velocity": 0.7874015748031497
        },
        {
          "duration": 0.10902260000000297,
          "durationTicks": 29,
          "midi": 71,
          "name": "B4",
          "ticks": 44640,
          "time": 167.819616,
          "velocity": 0.7874015748031497
        },
        {
          "duration": 0.10902260000000297,
          "durationTicks": 29,
          "midi": 59,
          "name": "B3",
          "ticks": 44670,
          "time": 167.93239799999998,
          "velocity": 0.7874015748031497
        },
        {
          "duration": 0.10902260000000297,
          "durationTicks": 29,
          "midi": 69,
          "name": "A4",
          "ticks": 44700,
          "time": 168.04518,
          "velocity": 0.7874015748031497
        },
        {
          "duration": 0.10902260000000297,
          "durationTicks": 29,
          "midi": 59,
          "name": "B3",
          "ticks": 44730,
          "time": 168.157962,
          "velocity": 0.7874015748031497
        },
        {
          "duration": 0.10902260000000297,
          "durationTicks": 29,
          "midi": 68,
          "name": "G#4",
          "ticks": 44760,
          "time": 168.27074399999998,
          "velocity": 0.7874015748031497
        },
        {
          "duration": 0.10902260000000297,
          "durationTicks": 29,
          "midi": 59,
          "name": "B3",
          "ticks": 44790,
          "time": 168.383526,
          "velocity": 0.7874015748031497
        },
        {
          "duration": 0.10902260000000297,
          "durationTicks": 29,
          "midi": 69,
          "name": "A4",
          "ticks": 44820,
          "time": 168.496308,
          "velocity": 0.7874015748031497
        },
        {
          "duration": 0.10902260000000297,
          "durationTicks": 29,
          "midi": 59,
          "name": "B3",
          "ticks": 44850,
          "time": 168.60908999999998,
          "velocity": 0.7874015748031497
        },
        {
          "duration": 0.10902260000000297,
          "durationTicks": 29,
          "midi": 68,
          "name": "G#4",
          "ticks": 44880,
          "time": 168.721872,
          "velocity": 0.7874015748031497
        },
        {
          "duration": 0.10902260000000297,
          "durationTicks": 29,
          "midi": 59,
          "name": "B3",
          "ticks": 44910,
          "time": 168.834654,
          "velocity": 0.7874015748031497
        },
        {
          "duration": 0.10902260000000297,
          "durationTicks": 29,
          "midi": 66,
          "name": "F#4",
          "ticks": 44940,
          "time": 168.94743599999998,
          "velocity": 0.7874015748031497
        },
        {
          "duration": 0.10902260000000297,
          "durationTicks": 29,
          "midi": 59,
          "name": "B3",
          "ticks": 44970,
          "time": 169.060218,
          "velocity": 0.7874015748031497
        },
        {
          "duration": 0.10902260000000297,
          "durationTicks": 29,
          "midi": 68,
          "name": "G#4",
          "ticks": 45000,
          "time": 169.173,
          "velocity": 0.7874015748031497
        },
        {
          "duration": 0.10902260000000297,
          "durationTicks": 29,
          "midi": 59,
          "name": "B3",
          "ticks": 45030,
          "time": 169.28578199999998,
          "velocity": 0.7874015748031497
        },
        {
          "duration": 0.10902260000000297,
          "durationTicks": 29,
          "midi": 64,
          "name": "E4",
          "ticks": 45060,
          "time": 169.398564,
          "velocity": 0.7874015748031497
        },
        {
          "duration": 0.10902260000000297,
          "durationTicks": 29,
          "midi": 59,
          "name": "B3",
          "ticks": 45090,
          "time": 169.511346,
          "velocity": 0.7874015748031497
        },
        {
          "duration": 0.10902260000000297,
          "durationTicks": 29,
          "midi": 66,
          "name": "F#4",
          "ticks": 45120,
          "time": 169.62412799999998,
          "velocity": 0.7874015748031497
        },
        {
          "duration": 0.10902260000000297,
          "durationTicks": 29,
          "midi": 59,
          "name": "B3",
          "ticks": 45150,
          "time": 169.73691,
          "velocity": 0.7874015748031497
        },
        {
          "duration": 0.10902260000003139,
          "durationTicks": 29,
          "midi": 63,
          "name": "D#4",
          "ticks": 45180,
          "time": 169.84969199999998,
          "velocity": 0.7874015748031497
        },
        {
          "duration": 0.10902260000000297,
          "durationTicks": 29,
          "midi": 59,
          "name": "B3",
          "ticks": 45210,
          "time": 169.962474,
          "velocity": 0.7874015748031497
        },
        {
          "duration": 0.10902260000000297,
          "durationTicks": 29,
          "midi": 64,
          "name": "E4",
          "ticks": 45240,
          "time": 170.075256,
          "velocity": 0.7874015748031497
        },
        {
          "duration": 0.10902260000000297,
          "durationTicks": 29,
          "midi": 59,
          "name": "B3",
          "ticks": 45270,
          "time": 170.18803799999998,
          "velocity": 0.7874015748031497
        },
        {
          "duration": 0.10902260000000297,
          "durationTicks": 29,
          "midi": 63,
          "name": "D#4",
          "ticks": 45300,
          "time": 170.30082,
          "velocity": 0.7874015748031497
        },
        {
          "duration": 0.10902260000000297,
          "durationTicks": 29,
          "midi": 59,
          "name": "B3",
          "ticks": 45330,
          "time": 170.413602,
          "velocity": 0.7874015748031497
        },
        {
          "duration": 0.10902260000000297,
          "durationTicks": 29,
          "midi": 64,
          "name": "E4",
          "ticks": 45360,
          "time": 170.52638399999998,
          "velocity": 0.7874015748031497
        },
        {
          "duration": 0.10902260000000297,
          "durationTicks": 29,
          "midi": 59,
          "name": "B3",
          "ticks": 45390,
          "time": 170.639166,
          "velocity": 0.7874015748031497
        },
        {
          "duration": 0.10902260000000297,
          "durationTicks": 29,
          "midi": 63,
          "name": "D#4",
          "ticks": 45420,
          "time": 170.751948,
          "velocity": 0.7874015748031497
        },
        {
          "duration": 0.10902260000000297,
          "durationTicks": 29,
          "midi": 59,
          "name": "B3",
          "ticks": 45450,
          "time": 170.86472999999998,
          "velocity": 0.7874015748031497
        },
        {
          "duration": 0.10902260000000297,
          "durationTicks": 29,
          "midi": 64,
          "name": "E4",
          "ticks": 45480,
          "time": 170.977512,
          "velocity": 0.7874015748031497
        },
        {
          "duration": 0.10902260000000297,
          "durationTicks": 29,
          "midi": 59,
          "name": "B3",
          "ticks": 45510,
          "time": 171.090294,
          "velocity": 0.7874015748031497
        },
        {
          "duration": 0.10902260000000297,
          "durationTicks": 29,
          "midi": 63,
          "name": "D#4",
          "ticks": 45540,
          "time": 171.20307599999998,
          "velocity": 0.7874015748031497
        },
        {
          "duration": 0.10902260000000297,
          "durationTicks": 29,
          "midi": 59,
          "name": "B3",
          "ticks": 45570,
          "time": 171.315858,
          "velocity": 0.7874015748031497
        },
        {
          "duration": 0.10902260000000297,
          "durationTicks": 29,
          "midi": 71,
          "name": "B4",
          "ticks": 45600,
          "time": 171.42864,
          "velocity": 0.7874015748031497
        },
        {
          "duration": 0.10902260000000297,
          "durationTicks": 29,
          "midi": 59,
          "name": "B3",
          "ticks": 45630,
          "time": 171.54142199999998,
          "velocity": 0.7874015748031497
        },
        {
          "duration": 0.10902260000000297,
          "durationTicks": 29,
          "midi": 69,
          "name": "A4",
          "ticks": 45660,
          "time": 171.654204,
          "velocity": 0.7874015748031497
        },
        {
          "duration": 0.10902260000000297,
          "durationTicks": 29,
          "midi": 59,
          "name": "B3",
          "ticks": 45690,
          "time": 171.766986,
          "velocity": 0.7874015748031497
        },
        {
          "duration": 0.10902260000000297,
          "durationTicks": 29,
          "midi": 68,
          "name": "G#4",
          "ticks": 45720,
          "time": 171.87976799999998,
          "velocity": 0.7874015748031497
        },
        {
          "duration": 0.10902260000000297,
          "durationTicks": 29,
          "midi": 59,
          "name": "B3",
          "ticks": 45750,
          "time": 171.99255,
          "velocity": 0.7874015748031497
        },
        {
          "duration": 0.10902260000003139,
          "durationTicks": 29,
          "midi": 69,
          "name": "A4",
          "ticks": 45780,
          "time": 172.10533199999998,
          "velocity": 0.7874015748031497
        },
        {
          "duration": 0.10902260000000297,
          "durationTicks": 29,
          "midi": 59,
          "name": "B3",
          "ticks": 45810,
          "time": 172.21811399999999,
          "velocity": 0.7874015748031497
        },
        {
          "duration": 0.10902260000000297,
          "durationTicks": 29,
          "midi": 68,
          "name": "G#4",
          "ticks": 45840,
          "time": 172.330896,
          "velocity": 0.7874015748031497
        },
        {
          "duration": 0.10902260000000297,
          "durationTicks": 29,
          "midi": 59,
          "name": "B3",
          "ticks": 45870,
          "time": 172.44367799999998,
          "velocity": 0.7874015748031497
        },
        {
          "duration": 0.10902260000000297,
          "durationTicks": 29,
          "midi": 66,
          "name": "F#4",
          "ticks": 45900,
          "time": 172.55646,
          "velocity": 0.7874015748031497
        },
        {
          "duration": 0.10902260000000297,
          "durationTicks": 29,
          "midi": 59,
          "name": "B3",
          "ticks": 45930,
          "time": 172.669242,
          "velocity": 0.7874015748031497
        },
        {
          "duration": 0.10902260000000297,
          "durationTicks": 29,
          "midi": 68,
          "name": "G#4",
          "ticks": 45960,
          "time": 172.78202399999998,
          "velocity": 0.7874015748031497
        },
        {
          "duration": 0.10902260000000297,
          "durationTicks": 29,
          "midi": 59,
          "name": "B3",
          "ticks": 45990,
          "time": 172.894806,
          "velocity": 0.7874015748031497
        },
        {
          "duration": 0.10902260000000297,
          "durationTicks": 29,
          "midi": 64,
          "name": "E4",
          "ticks": 46020,
          "time": 173.007588,
          "velocity": 0.7874015748031497
        },
        {
          "duration": 0.10902260000000297,
          "durationTicks": 29,
          "midi": 59,
          "name": "B3",
          "ticks": 46050,
          "time": 173.12036999999998,
          "velocity": 0.7874015748031497
        },
        {
          "duration": 0.10902260000000297,
          "durationTicks": 29,
          "midi": 66,
          "name": "F#4",
          "ticks": 46080,
          "time": 173.233152,
          "velocity": 0.7874015748031497
        },
        {
          "duration": 0.10902260000000297,
          "durationTicks": 29,
          "midi": 59,
          "name": "B3",
          "ticks": 46110,
          "time": 173.345934,
          "velocity": 0.7874015748031497
        },
        {
          "duration": 0.10902260000000297,
          "durationTicks": 29,
          "midi": 63,
          "name": "D#4",
          "ticks": 46140,
          "time": 173.45871599999998,
          "velocity": 0.7874015748031497
        },
        {
          "duration": 0.10902260000000297,
          "durationTicks": 29,
          "midi": 59,
          "name": "B3",
          "ticks": 46170,
          "time": 173.571498,
          "velocity": 0.7874015748031497
        },
        {
          "duration": 0.10902260000000297,
          "durationTicks": 29,
          "midi": 64,
          "name": "E4",
          "ticks": 46200,
          "time": 173.68428,
          "velocity": 0.7874015748031497
        },
        {
          "duration": 0.10902260000000297,
          "durationTicks": 29,
          "midi": 59,
          "name": "B3",
          "ticks": 46230,
          "time": 173.79706199999998,
          "velocity": 0.7874015748031497
        },
        {
          "duration": 0.10902260000000297,
          "durationTicks": 29,
          "midi": 63,
          "name": "D#4",
          "ticks": 46260,
          "time": 173.909844,
          "velocity": 0.7874015748031497
        },
        {
          "duration": 0.10902260000000297,
          "durationTicks": 29,
          "midi": 59,
          "name": "B3",
          "ticks": 46290,
          "time": 174.022626,
          "velocity": 0.7874015748031497
        },
        {
          "duration": 0.10902260000000297,
          "durationTicks": 29,
          "midi": 64,
          "name": "E4",
          "ticks": 46320,
          "time": 174.13540799999998,
          "velocity": 0.7874015748031497
        },
        {
          "duration": 0.10902260000000297,
          "durationTicks": 29,
          "midi": 59,
          "name": "B3",
          "ticks": 46350,
          "time": 174.24819,
          "velocity": 0.7874015748031497
        },
        {
          "duration": 0.10902260000000297,
          "durationTicks": 29,
          "midi": 63,
          "name": "D#4",
          "ticks": 46380,
          "time": 174.360972,
          "velocity": 0.7874015748031497
        },
        {
          "duration": 0.10902260000000297,
          "durationTicks": 29,
          "midi": 59,
          "name": "B3",
          "ticks": 46410,
          "time": 174.47375399999999,
          "velocity": 0.7874015748031497
        },
        {
          "duration": 0.10902260000000297,
          "durationTicks": 29,
          "midi": 64,
          "name": "E4",
          "ticks": 46440,
          "time": 174.586536,
          "velocity": 0.7874015748031497
        },
        {
          "duration": 0.10902260000000297,
          "durationTicks": 29,
          "midi": 59,
          "name": "B3",
          "ticks": 46470,
          "time": 174.69931799999998,
          "velocity": 0.7874015748031497
        },
        {
          "duration": 0.10902260000000297,
          "durationTicks": 29,
          "midi": 63,
          "name": "D#4",
          "ticks": 46500,
          "time": 174.8121,
          "velocity": 0.7874015748031497
        },
        {
          "duration": 0.10902260000000297,
          "durationTicks": 29,
          "midi": 59,
          "name": "B3",
          "ticks": 46530,
          "time": 174.924882,
          "velocity": 0.7874015748031497
        },
        {
          "duration": 0.10902260000000297,
          "durationTicks": 29,
          "midi": 71,
          "name": "B4",
          "ticks": 46560,
          "time": 175.03766399999998,
          "velocity": 0.7874015748031497
        },
        {
          "duration": 0.10902260000000297,
          "durationTicks": 29,
          "midi": 59,
          "name": "B3",
          "ticks": 46590,
          "time": 175.150446,
          "velocity": 0.7874015748031497
        },
        {
          "duration": 0.10902260000000297,
          "durationTicks": 29,
          "midi": 69,
          "name": "A4",
          "ticks": 46620,
          "time": 175.263228,
          "velocity": 0.7874015748031497
        },
        {
          "duration": 0.10902260000000297,
          "durationTicks": 29,
          "midi": 59,
          "name": "B3",
          "ticks": 46650,
          "time": 175.37600999999998,
          "velocity": 0.7874015748031497
        },
        {
          "duration": 0.10902260000000297,
          "durationTicks": 29,
          "midi": 68,
          "name": "G#4",
          "ticks": 46680,
          "time": 175.488792,
          "velocity": 0.7874015748031497
        },
        {
          "duration": 0.10902260000000297,
          "durationTicks": 29,
          "midi": 59,
          "name": "B3",
          "ticks": 46710,
          "time": 175.601574,
          "velocity": 0.7874015748031497
        },
        {
          "duration": 0.10902260000000297,
          "durationTicks": 29,
          "midi": 69,
          "name": "A4",
          "ticks": 46740,
          "time": 175.71435599999998,
          "velocity": 0.7874015748031497
        },
        {
          "duration": 0.10902260000000297,
          "durationTicks": 29,
          "midi": 59,
          "name": "B3",
          "ticks": 46770,
          "time": 175.827138,
          "velocity": 0.7874015748031497
        },
        {
          "duration": 0.10902260000000297,
          "durationTicks": 29,
          "midi": 68,
          "name": "G#4",
          "ticks": 46800,
          "time": 175.93992,
          "velocity": 0.7874015748031497
        },
        {
          "duration": 0.10902260000000297,
          "durationTicks": 29,
          "midi": 59,
          "name": "B3",
          "ticks": 46830,
          "time": 176.05270199999998,
          "velocity": 0.7874015748031497
        },
        {
          "duration": 0.10902260000000297,
          "durationTicks": 29,
          "midi": 66,
          "name": "F#4",
          "ticks": 46860,
          "time": 176.165484,
          "velocity": 0.7874015748031497
        },
        {
          "duration": 0.10902260000000297,
          "durationTicks": 29,
          "midi": 59,
          "name": "B3",
          "ticks": 46890,
          "time": 176.278266,
          "velocity": 0.7874015748031497
        },
        {
          "duration": 0.10902260000000297,
          "durationTicks": 29,
          "midi": 68,
          "name": "G#4",
          "ticks": 46920,
          "time": 176.39104799999998,
          "velocity": 0.7874015748031497
        },
        {
          "duration": 0.10902260000000297,
          "durationTicks": 29,
          "midi": 59,
          "name": "B3",
          "ticks": 46950,
          "time": 176.50383,
          "velocity": 0.7874015748031497
        },
        {
          "duration": 0.10902260000000297,
          "durationTicks": 29,
          "midi": 64,
          "name": "E4",
          "ticks": 46980,
          "time": 176.616612,
          "velocity": 0.7874015748031497
        },
        {
          "duration": 0.10902260000000297,
          "durationTicks": 29,
          "midi": 59,
          "name": "B3",
          "ticks": 47010,
          "time": 176.72939399999998,
          "velocity": 0.7874015748031497
        },
        {
          "duration": 0.10902260000000297,
          "durationTicks": 29,
          "midi": 66,
          "name": "F#4",
          "ticks": 47040,
          "time": 176.842176,
          "velocity": 0.7874015748031497
        },
        {
          "duration": 0.10902260000000297,
          "durationTicks": 29,
          "midi": 59,
          "name": "B3",
          "ticks": 47070,
          "time": 176.95495799999998,
          "velocity": 0.7874015748031497
        },
        {
          "duration": 0.10902260000000297,
          "durationTicks": 29,
          "midi": 63,
          "name": "D#4",
          "ticks": 47100,
          "time": 177.06774,
          "velocity": 0.7874015748031497
        },
        {
          "duration": 0.10902260000000297,
          "durationTicks": 29,
          "midi": 59,
          "name": "B3",
          "ticks": 47130,
          "time": 177.180522,
          "velocity": 0.7874015748031497
        },
        {
          "duration": 0.10902260000000297,
          "durationTicks": 29,
          "midi": 64,
          "name": "E4",
          "ticks": 47160,
          "time": 177.29330399999998,
          "velocity": 0.7874015748031497
        },
        {
          "duration": 0.10902260000000297,
          "durationTicks": 29,
          "midi": 59,
          "name": "B3",
          "ticks": 47190,
          "time": 177.406086,
          "velocity": 0.7874015748031497
        },
        {
          "duration": 0.10902260000000297,
          "durationTicks": 29,
          "midi": 63,
          "name": "D#4",
          "ticks": 47220,
          "time": 177.518868,
          "velocity": 0.7874015748031497
        },
        {
          "duration": 0.10902260000000297,
          "durationTicks": 29,
          "midi": 59,
          "name": "B3",
          "ticks": 47250,
          "time": 177.63164999999998,
          "velocity": 0.7874015748031497
        },
        {
          "duration": 0.10902260000000297,
          "durationTicks": 29,
          "midi": 64,
          "name": "E4",
          "ticks": 47280,
          "time": 177.744432,
          "velocity": 0.7874015748031497
        },
        {
          "duration": 0.10902260000000297,
          "durationTicks": 29,
          "midi": 59,
          "name": "B3",
          "ticks": 47310,
          "time": 177.857214,
          "velocity": 0.7874015748031497
        },
        {
          "duration": 0.10902260000000297,
          "durationTicks": 29,
          "midi": 63,
          "name": "D#4",
          "ticks": 47340,
          "time": 177.96999599999998,
          "velocity": 0.7874015748031497
        },
        {
          "duration": 0.10902260000000297,
          "durationTicks": 29,
          "midi": 59,
          "name": "B3",
          "ticks": 47370,
          "time": 178.082778,
          "velocity": 0.7874015748031497
        },
        {
          "duration": 0.10902260000000297,
          "durationTicks": 29,
          "midi": 64,
          "name": "E4",
          "ticks": 47400,
          "time": 178.19556,
          "velocity": 0.7874015748031497
        },
        {
          "duration": 0.10902260000000297,
          "durationTicks": 29,
          "midi": 59,
          "name": "B3",
          "ticks": 47430,
          "time": 178.30834199999998,
          "velocity": 0.7874015748031497
        },
        {
          "duration": 0.10902260000000297,
          "durationTicks": 29,
          "midi": 63,
          "name": "D#4",
          "ticks": 47460,
          "time": 178.421124,
          "velocity": 0.7874015748031497
        },
        {
          "duration": 0.10902260000000297,
          "durationTicks": 29,
          "midi": 59,
          "name": "B3",
          "ticks": 47490,
          "time": 178.533906,
          "velocity": 0.7874015748031497
        },
        {
          "duration": 0.10902260000000297,
          "durationTicks": 29,
          "midi": 71,
          "name": "B4",
          "ticks": 47520,
          "time": 178.64668799999998,
          "velocity": 0.7874015748031497
        },
        {
          "duration": 0.10902260000000297,
          "durationTicks": 29,
          "midi": 59,
          "name": "B3",
          "ticks": 47550,
          "time": 178.75947,
          "velocity": 0.7874015748031497
        },
        {
          "duration": 0.10902260000000297,
          "durationTicks": 29,
          "midi": 69,
          "name": "A4",
          "ticks": 47580,
          "time": 178.872252,
          "velocity": 0.7874015748031497
        },
        {
          "duration": 0.10902260000000297,
          "durationTicks": 29,
          "midi": 59,
          "name": "B3",
          "ticks": 47610,
          "time": 178.98503399999998,
          "velocity": 0.7874015748031497
        },
        {
          "duration": 0.10902260000000297,
          "durationTicks": 29,
          "midi": 68,
          "name": "G#4",
          "ticks": 47640,
          "time": 179.097816,
          "velocity": 0.7874015748031497
        },
        {
          "duration": 0.10902260000000297,
          "durationTicks": 29,
          "midi": 59,
          "name": "B3",
          "ticks": 47670,
          "time": 179.21059799999998,
          "velocity": 0.7874015748031497
        },
        {
          "duration": 0.10902260000000297,
          "durationTicks": 29,
          "midi": 69,
          "name": "A4",
          "ticks": 47700,
          "time": 179.32338,
          "velocity": 0.7874015748031497
        },
        {
          "duration": 0.10902260000000297,
          "durationTicks": 29,
          "midi": 59,
          "name": "B3",
          "ticks": 47730,
          "time": 179.436162,
          "velocity": 0.7874015748031497
        },
        {
          "duration": 0.10902260000000297,
          "durationTicks": 29,
          "midi": 68,
          "name": "G#4",
          "ticks": 47760,
          "time": 179.54894399999998,
          "velocity": 0.7874015748031497
        },
        {
          "duration": 0.10902260000000297,
          "durationTicks": 29,
          "midi": 59,
          "name": "B3",
          "ticks": 47790,
          "time": 179.661726,
          "velocity": 0.7874015748031497
        },
        {
          "duration": 0.10902260000000297,
          "durationTicks": 29,
          "midi": 66,
          "name": "F#4",
          "ticks": 47820,
          "time": 179.774508,
          "velocity": 0.7874015748031497
        },
        {
          "duration": 0.10902260000000297,
          "durationTicks": 29,
          "midi": 59,
          "name": "B3",
          "ticks": 47850,
          "time": 179.88728999999998,
          "velocity": 0.7874015748031497
        },
        {
          "duration": 0.10902260000000297,
          "durationTicks": 29,
          "midi": 68,
          "name": "G#4",
          "ticks": 47880,
          "time": 180.000072,
          "velocity": 0.7874015748031497
        },
        {
          "duration": 0.10902260000000297,
          "durationTicks": 29,
          "midi": 59,
          "name": "B3",
          "ticks": 47910,
          "time": 180.112854,
          "velocity": 0.7874015748031497
        },
        {
          "duration": 0.10902260000000297,
          "durationTicks": 29,
          "midi": 64,
          "name": "E4",
          "ticks": 47940,
          "time": 180.22563599999998,
          "velocity": 0.7874015748031497
        },
        {
          "duration": 0.10902260000000297,
          "durationTicks": 29,
          "midi": 59,
          "name": "B3",
          "ticks": 47970,
          "time": 180.338418,
          "velocity": 0.7874015748031497
        },
        {
          "duration": 0.10902260000000297,
          "durationTicks": 29,
          "midi": 66,
          "name": "F#4",
          "ticks": 48000,
          "time": 180.4512,
          "velocity": 0.7874015748031497
        },
        {
          "duration": 0.10902260000000297,
          "durationTicks": 29,
          "midi": 59,
          "name": "B3",
          "ticks": 48030,
          "time": 180.56398199999998,
          "velocity": 0.7874015748031497
        },
        {
          "duration": 0.10902260000000297,
          "durationTicks": 29,
          "midi": 63,
          "name": "D#4",
          "ticks": 48060,
          "time": 180.676764,
          "velocity": 0.7874015748031497
        },
        {
          "duration": 0.10902260000000297,
          "durationTicks": 29,
          "midi": 59,
          "name": "B3",
          "ticks": 48090,
          "time": 180.789546,
          "velocity": 0.7874015748031497
        },
        {
          "duration": 0.10902260000000297,
          "durationTicks": 29,
          "midi": 64,
          "name": "E4",
          "ticks": 48120,
          "time": 180.90232799999998,
          "velocity": 0.7874015748031497
        },
        {
          "duration": 0.10902260000000297,
          "durationTicks": 29,
          "midi": 59,
          "name": "B3",
          "ticks": 48150,
          "time": 181.01511,
          "velocity": 0.7874015748031497
        },
        {
          "duration": 0.10902260000000297,
          "durationTicks": 29,
          "midi": 63,
          "name": "D#4",
          "ticks": 48180,
          "time": 181.127892,
          "velocity": 0.7874015748031497
        },
        {
          "duration": 0.10902260000000297,
          "durationTicks": 29,
          "midi": 59,
          "name": "B3",
          "ticks": 48210,
          "time": 181.24067399999998,
          "velocity": 0.7874015748031497
        },
        {
          "duration": 0.10902260000000297,
          "durationTicks": 29,
          "midi": 64,
          "name": "E4",
          "ticks": 48240,
          "time": 181.353456,
          "velocity": 0.7874015748031497
        },
        {
          "duration": 0.10902260000000297,
          "durationTicks": 29,
          "midi": 59,
          "name": "B3",
          "ticks": 48270,
          "time": 181.46623799999998,
          "velocity": 0.7874015748031497
        },
        {
          "duration": 0.10902260000000297,
          "durationTicks": 29,
          "midi": 63,
          "name": "D#4",
          "ticks": 48300,
          "time": 181.57901999999999,
          "velocity": 0.7874015748031497
        },
        {
          "duration": 0.10902260000000297,
          "durationTicks": 29,
          "midi": 59,
          "name": "B3",
          "ticks": 48330,
          "time": 181.691802,
          "velocity": 0.7874015748031497
        },
        {
          "duration": 0.10902260000000297,
          "durationTicks": 29,
          "midi": 64,
          "name": "E4",
          "ticks": 48360,
          "time": 181.80458399999998,
          "velocity": 0.7874015748031497
        },
        {
          "duration": 0.10902260000000297,
          "durationTicks": 29,
          "midi": 59,
          "name": "B3",
          "ticks": 48390,
          "time": 181.917366,
          "velocity": 0.7874015748031497
        },
        {
          "duration": 0.10902260000000297,
          "durationTicks": 29,
          "midi": 63,
          "name": "D#4",
          "ticks": 48420,
          "time": 182.030148,
          "velocity": 0.7874015748031497
        },
        {
          "duration": 0.10902260000000297,
          "durationTicks": 29,
          "midi": 59,
          "name": "B3",
          "ticks": 48450,
          "time": 182.14292999999998,
          "velocity": 0.7874015748031497
        },
        {
          "duration": 0.10902260000000297,
          "durationTicks": 29,
          "midi": 71,
          "name": "B4",
          "ticks": 48480,
          "time": 182.255712,
          "velocity": 0.7874015748031497
        },
        {
          "duration": 0.10902260000000297,
          "durationTicks": 29,
          "midi": 59,
          "name": "B3",
          "ticks": 48510,
          "time": 182.368494,
          "velocity": 0.7874015748031497
        },
        {
          "duration": 0.10902260000000297,
          "durationTicks": 29,
          "midi": 69,
          "name": "A4",
          "ticks": 48540,
          "time": 182.48127599999998,
          "velocity": 0.7874015748031497
        },
        {
          "duration": 0.10902260000000297,
          "durationTicks": 29,
          "midi": 59,
          "name": "B3",
          "ticks": 48570,
          "time": 182.594058,
          "velocity": 0.7874015748031497
        },
        {
          "duration": 0.10902260000000297,
          "durationTicks": 29,
          "midi": 68,
          "name": "G#4",
          "ticks": 48600,
          "time": 182.70684,
          "velocity": 0.7874015748031497
        },
        {
          "duration": 0.10902260000000297,
          "durationTicks": 29,
          "midi": 59,
          "name": "B3",
          "ticks": 48630,
          "time": 182.81962199999998,
          "velocity": 0.7874015748031497
        },
        {
          "duration": 0.10902260000000297,
          "durationTicks": 29,
          "midi": 69,
          "name": "A4",
          "ticks": 48660,
          "time": 182.932404,
          "velocity": 0.7874015748031497
        },
        {
          "duration": 0.10902260000000297,
          "durationTicks": 29,
          "midi": 59,
          "name": "B3",
          "ticks": 48690,
          "time": 183.045186,
          "velocity": 0.7874015748031497
        },
        {
          "duration": 0.10902260000000297,
          "durationTicks": 29,
          "midi": 68,
          "name": "G#4",
          "ticks": 48720,
          "time": 183.15796799999998,
          "velocity": 0.7874015748031497
        },
        {
          "duration": 0.10902260000000297,
          "durationTicks": 29,
          "midi": 59,
          "name": "B3",
          "ticks": 48750,
          "time": 183.27075,
          "velocity": 0.7874015748031497
        },
        {
          "duration": 0.10902260000000297,
          "durationTicks": 29,
          "midi": 66,
          "name": "F#4",
          "ticks": 48780,
          "time": 183.383532,
          "velocity": 0.7874015748031497
        },
        {
          "duration": 0.10902260000000297,
          "durationTicks": 29,
          "midi": 59,
          "name": "B3",
          "ticks": 48810,
          "time": 183.49631399999998,
          "velocity": 0.7874015748031497
        },
        {
          "duration": 0.10902260000000297,
          "durationTicks": 29,
          "midi": 68,
          "name": "G#4",
          "ticks": 48840,
          "time": 183.609096,
          "velocity": 0.7874015748031497
        },
        {
          "duration": 0.10902260000003139,
          "durationTicks": 29,
          "midi": 59,
          "name": "B3",
          "ticks": 48870,
          "time": 183.72187799999998,
          "velocity": 0.7874015748031497
        },
        {
          "duration": 0.10902260000000297,
          "durationTicks": 29,
          "midi": 64,
          "name": "E4",
          "ticks": 48900,
          "time": 183.83465999999999,
          "velocity": 0.7874015748031497
        },
        {
          "duration": 0.10902260000000297,
          "durationTicks": 29,
          "midi": 59,
          "name": "B3",
          "ticks": 48930,
          "time": 183.947442,
          "velocity": 0.7874015748031497
        },
        {
          "duration": 0.10902260000000297,
          "durationTicks": 29,
          "midi": 66,
          "name": "F#4",
          "ticks": 48960,
          "time": 184.06022399999998,
          "velocity": 0.7874015748031497
        },
        {
          "duration": 0.10902260000000297,
          "durationTicks": 29,
          "midi": 59,
          "name": "B3",
          "ticks": 48990,
          "time": 184.173006,
          "velocity": 0.7874015748031497
        },
        {
          "duration": 0.10902260000000297,
          "durationTicks": 29,
          "midi": 63,
          "name": "D#4",
          "ticks": 49020,
          "time": 184.285788,
          "velocity": 0.7874015748031497
        },
        {
          "duration": 0.10902260000000297,
          "durationTicks": 29,
          "midi": 59,
          "name": "B3",
          "ticks": 49050,
          "time": 184.39856999999998,
          "velocity": 0.7874015748031497
        },
        {
          "duration": 0.10902260000000297,
          "durationTicks": 29,
          "midi": 64,
          "name": "E4",
          "ticks": 49080,
          "time": 184.511352,
          "velocity": 0.7874015748031497
        },
        {
          "duration": 0.10902260000000297,
          "durationTicks": 29,
          "midi": 59,
          "name": "B3",
          "ticks": 49110,
          "time": 184.624134,
          "velocity": 0.7874015748031497
        },
        {
          "duration": 0.10902260000000297,
          "durationTicks": 29,
          "midi": 63,
          "name": "D#4",
          "ticks": 49140,
          "time": 184.73691599999998,
          "velocity": 0.7874015748031497
        },
        {
          "duration": 0.10902260000000297,
          "durationTicks": 29,
          "midi": 59,
          "name": "B3",
          "ticks": 49170,
          "time": 184.849698,
          "velocity": 0.7874015748031497
        },
        {
          "duration": 0.10902260000000297,
          "durationTicks": 29,
          "midi": 64,
          "name": "E4",
          "ticks": 49200,
          "time": 184.96248,
          "velocity": 0.7874015748031497
        },
        {
          "duration": 0.10902260000000297,
          "durationTicks": 29,
          "midi": 59,
          "name": "B3",
          "ticks": 49230,
          "time": 185.07526199999998,
          "velocity": 0.7874015748031497
        },
        {
          "duration": 0.10902260000000297,
          "durationTicks": 29,
          "midi": 63,
          "name": "D#4",
          "ticks": 49260,
          "time": 185.188044,
          "velocity": 0.7874015748031497
        },
        {
          "duration": 0.10902260000000297,
          "durationTicks": 29,
          "midi": 59,
          "name": "B3",
          "ticks": 49290,
          "time": 185.300826,
          "velocity": 0.7874015748031497
        },
        {
          "duration": 0.10902260000000297,
          "durationTicks": 29,
          "midi": 64,
          "name": "E4",
          "ticks": 49320,
          "time": 185.41360799999998,
          "velocity": 0.7874015748031497
        },
        {
          "duration": 0.10902260000000297,
          "durationTicks": 29,
          "midi": 59,
          "name": "B3",
          "ticks": 49350,
          "time": 185.52639,
          "velocity": 0.7874015748031497
        },
        {
          "duration": 0.10902260000000297,
          "durationTicks": 29,
          "midi": 63,
          "name": "D#4",
          "ticks": 49380,
          "time": 185.639172,
          "velocity": 0.7874015748031497
        },
        {
          "duration": 0.10902260000000297,
          "durationTicks": 29,
          "midi": 59,
          "name": "B3",
          "ticks": 49410,
          "time": 185.75195399999998,
          "velocity": 0.7874015748031497
        },
        {
          "duration": 0.10902260000000297,
          "durationTicks": 29,
          "midi": 71,
          "name": "B4",
          "ticks": 49440,
          "time": 185.864736,
          "velocity": 0.7874015748031497
        },
        {
          "duration": 0.10902260000003139,
          "durationTicks": 29,
          "midi": 59,
          "name": "B3",
          "ticks": 49470,
          "time": 185.97751799999998,
          "velocity": 0.7874015748031497
        },
        {
          "duration": 0.10902260000000297,
          "durationTicks": 29,
          "midi": 69,
          "name": "A4",
          "ticks": 49500,
          "time": 186.09029999999998,
          "velocity": 0.7874015748031497
        },
        {
          "duration": 0.10902260000000297,
          "durationTicks": 29,
          "midi": 59,
          "name": "B3",
          "ticks": 49530,
          "time": 186.203082,
          "velocity": 0.7874015748031497
        },
        {
          "duration": 0.10902260000000297,
          "durationTicks": 29,
          "midi": 68,
          "name": "G#4",
          "ticks": 49560,
          "time": 186.31586399999998,
          "velocity": 0.7874015748031497
        },
        {
          "duration": 0.10902260000000297,
          "durationTicks": 29,
          "midi": 59,
          "name": "B3",
          "ticks": 49590,
          "time": 186.428646,
          "velocity": 0.7874015748031497
        },
        {
          "duration": 0.10902260000000297,
          "durationTicks": 29,
          "midi": 69,
          "name": "A4",
          "ticks": 49620,
          "time": 186.541428,
          "velocity": 0.7874015748031497
        },
        {
          "duration": 0.10902260000000297,
          "durationTicks": 29,
          "midi": 59,
          "name": "B3",
          "ticks": 49650,
          "time": 186.65420999999998,
          "velocity": 0.7874015748031497
        },
        {
          "duration": 0.10902260000000297,
          "durationTicks": 29,
          "midi": 68,
          "name": "G#4",
          "ticks": 49680,
          "time": 186.766992,
          "velocity": 0.7874015748031497
        },
        {
          "duration": 0.10902260000000297,
          "durationTicks": 29,
          "midi": 59,
          "name": "B3",
          "ticks": 49710,
          "time": 186.879774,
          "velocity": 0.7874015748031497
        },
        {
          "duration": 0.10902260000000297,
          "durationTicks": 29,
          "midi": 66,
          "name": "F#4",
          "ticks": 49740,
          "time": 186.99255599999998,
          "velocity": 0.7874015748031497
        },
        {
          "duration": 0.10902260000000297,
          "durationTicks": 29,
          "midi": 59,
          "name": "B3",
          "ticks": 49770,
          "time": 187.105338,
          "velocity": 0.7874015748031497
        },
        {
          "duration": 0.10902260000000297,
          "durationTicks": 29,
          "midi": 68,
          "name": "G#4",
          "ticks": 49800,
          "time": 187.21812,
          "velocity": 0.7874015748031497
        },
        {
          "duration": 0.10902260000000297,
          "durationTicks": 29,
          "midi": 59,
          "name": "B3",
          "ticks": 49830,
          "time": 187.33090199999998,
          "velocity": 0.7874015748031497
        },
        {
          "duration": 0.10902260000000297,
          "durationTicks": 29,
          "midi": 64,
          "name": "E4",
          "ticks": 49860,
          "time": 187.443684,
          "velocity": 0.7874015748031497
        },
        {
          "duration": 0.10902260000000297,
          "durationTicks": 29,
          "midi": 59,
          "name": "B3",
          "ticks": 49890,
          "time": 187.556466,
          "velocity": 0.7874015748031497
        },
        {
          "duration": 0.10902260000000297,
          "durationTicks": 29,
          "midi": 66,
          "name": "F#4",
          "ticks": 49920,
          "time": 187.66924799999998,
          "velocity": 0.7874015748031497
        },
        {
          "duration": 0.10902260000000297,
          "durationTicks": 29,
          "midi": 59,
          "name": "B3",
          "ticks": 49950,
          "time": 187.78203,
          "velocity": 0.7874015748031497
        },
        {
          "duration": 0.10902260000000297,
          "durationTicks": 29,
          "midi": 63,
          "name": "D#4",
          "ticks": 49980,
          "time": 187.894812,
          "velocity": 0.7874015748031497
        },
        {
          "duration": 0.10902260000000297,
          "durationTicks": 29,
          "midi": 59,
          "name": "B3",
          "ticks": 50010,
          "time": 188.00759399999998,
          "velocity": 0.7874015748031497
        },
        {
          "duration": 0.10902260000000297,
          "durationTicks": 29,
          "midi": 64,
          "name": "E4",
          "ticks": 50040,
          "time": 188.120376,
          "velocity": 0.7874015748031497
        },
        {
          "duration": 0.10902260000000297,
          "durationTicks": 29,
          "midi": 59,
          "name": "B3",
          "ticks": 50070,
          "time": 188.233158,
          "velocity": 0.7874015748031497
        },
        {
          "duration": 0.10902260000000297,
          "durationTicks": 29,
          "midi": 63,
          "name": "D#4",
          "ticks": 50100,
          "time": 188.34593999999998,
          "velocity": 0.7874015748031497
        },
        {
          "duration": 0.10902260000000297,
          "durationTicks": 29,
          "midi": 59,
          "name": "B3",
          "ticks": 50130,
          "time": 188.458722,
          "velocity": 0.7874015748031497
        },
        {
          "duration": 0.10902260000000297,
          "durationTicks": 29,
          "midi": 64,
          "name": "E4",
          "ticks": 50160,
          "time": 188.57150399999998,
          "velocity": 0.7874015748031497
        },
        {
          "duration": 0.10902260000000297,
          "durationTicks": 29,
          "midi": 59,
          "name": "B3",
          "ticks": 50190,
          "time": 188.684286,
          "velocity": 0.7874015748031497
        },
        {
          "duration": 0.10902260000000297,
          "durationTicks": 29,
          "midi": 63,
          "name": "D#4",
          "ticks": 50220,
          "time": 188.797068,
          "velocity": 0.7874015748031497
        },
        {
          "duration": 0.10902260000000297,
          "durationTicks": 29,
          "midi": 59,
          "name": "B3",
          "ticks": 50250,
          "time": 188.90984999999998,
          "velocity": 0.7874015748031497
        },
        {
          "duration": 0.10902260000000297,
          "durationTicks": 29,
          "midi": 64,
          "name": "E4",
          "ticks": 50280,
          "time": 189.022632,
          "velocity": 0.7874015748031497
        },
        {
          "duration": 0.10902260000000297,
          "durationTicks": 29,
          "midi": 59,
          "name": "B3",
          "ticks": 50310,
          "time": 189.135414,
          "velocity": 0.7874015748031497
        },
        {
          "duration": 0.10902260000000297,
          "durationTicks": 29,
          "midi": 63,
          "name": "D#4",
          "ticks": 50340,
          "time": 189.24819599999998,
          "velocity": 0.7874015748031497
        },
        {
          "duration": 0.10902260000000297,
          "durationTicks": 29,
          "midi": 59,
          "name": "B3",
          "ticks": 50370,
          "time": 189.360978,
          "velocity": 0.7874015748031497
        },
        {
          "duration": 0.10902260000000297,
          "durationTicks": 29,
          "midi": 71,
          "name": "B4",
          "ticks": 50400,
          "time": 189.47376,
          "velocity": 0.7874015748031497
        },
        {
          "duration": 0.10902260000000297,
          "durationTicks": 29,
          "midi": 59,
          "name": "B3",
          "ticks": 50430,
          "time": 189.58654199999998,
          "velocity": 0.7874015748031497
        },
        {
          "duration": 0.10902260000000297,
          "durationTicks": 29,
          "midi": 69,
          "name": "A4",
          "ticks": 50460,
          "time": 189.699324,
          "velocity": 0.7874015748031497
        },
        {
          "duration": 0.10902260000000297,
          "durationTicks": 29,
          "midi": 59,
          "name": "B3",
          "ticks": 50490,
          "time": 189.812106,
          "velocity": 0.7874015748031497
        },
        {
          "duration": 0.10902260000000297,
          "durationTicks": 29,
          "midi": 68,
          "name": "G#4",
          "ticks": 50520,
          "time": 189.92488799999998,
          "velocity": 0.7874015748031497
        },
        {
          "duration": 0.10902260000000297,
          "durationTicks": 29,
          "midi": 59,
          "name": "B3",
          "ticks": 50550,
          "time": 190.03767,
          "velocity": 0.7874015748031497
        },
        {
          "duration": 0.10902260000000297,
          "durationTicks": 29,
          "midi": 69,
          "name": "A4",
          "ticks": 50580,
          "time": 190.150452,
          "velocity": 0.7874015748031497
        },
        {
          "duration": 0.10902260000000297,
          "durationTicks": 29,
          "midi": 59,
          "name": "B3",
          "ticks": 50610,
          "time": 190.26323399999998,
          "velocity": 0.7874015748031497
        },
        {
          "duration": 0.10902260000000297,
          "durationTicks": 29,
          "midi": 68,
          "name": "G#4",
          "ticks": 50640,
          "time": 190.376016,
          "velocity": 0.7874015748031497
        },
        {
          "duration": 0.10902260000000297,
          "durationTicks": 29,
          "midi": 59,
          "name": "B3",
          "ticks": 50670,
          "time": 190.488798,
          "velocity": 0.7874015748031497
        },
        {
          "duration": 0.10902260000000297,
          "durationTicks": 29,
          "midi": 66,
          "name": "F#4",
          "ticks": 50700,
          "time": 190.60157999999998,
          "velocity": 0.7874015748031497
        },
        {
          "duration": 0.10902260000000297,
          "durationTicks": 29,
          "midi": 59,
          "name": "B3",
          "ticks": 50730,
          "time": 190.714362,
          "velocity": 0.7874015748031497
        },
        {
          "duration": 0.10902260000000297,
          "durationTicks": 29,
          "midi": 68,
          "name": "G#4",
          "ticks": 50760,
          "time": 190.82714399999998,
          "velocity": 0.7874015748031497
        },
        {
          "duration": 0.10902260000000297,
          "durationTicks": 29,
          "midi": 59,
          "name": "B3",
          "ticks": 50790,
          "time": 190.93992599999999,
          "velocity": 0.7874015748031497
        },
        {
          "duration": 0.10902260000000297,
          "durationTicks": 29,
          "midi": 64,
          "name": "E4",
          "ticks": 50820,
          "time": 191.052708,
          "velocity": 0.7874015748031497
        },
        {
          "duration": 0.10902260000000297,
          "durationTicks": 29,
          "midi": 59,
          "name": "B3",
          "ticks": 50850,
          "time": 191.16548999999998,
          "velocity": 0.7874015748031497
        },
        {
          "duration": 0.10902260000000297,
          "durationTicks": 29,
          "midi": 66,
          "name": "F#4",
          "ticks": 50880,
          "time": 191.278272,
          "velocity": 0.7874015748031497
        },
        {
          "duration": 0.10902260000000297,
          "durationTicks": 29,
          "midi": 59,
          "name": "B3",
          "ticks": 50910,
          "time": 191.391054,
          "velocity": 0.7874015748031497
        },
        {
          "duration": 0.10902260000000297,
          "durationTicks": 29,
          "midi": 63,
          "name": "D#4",
          "ticks": 50940,
          "time": 191.50383599999998,
          "velocity": 0.7874015748031497
        },
        {
          "duration": 0.10902260000000297,
          "durationTicks": 29,
          "midi": 59,
          "name": "B3",
          "ticks": 50970,
          "time": 191.616618,
          "velocity": 0.7874015748031497
        },
        {
          "duration": 0.10902260000000297,
          "durationTicks": 29,
          "midi": 64,
          "name": "E4",
          "ticks": 51000,
          "time": 191.7294,
          "velocity": 0.7874015748031497
        },
        {
          "duration": 0.10902260000000297,
          "durationTicks": 29,
          "midi": 59,
          "name": "B3",
          "ticks": 51030,
          "time": 191.84218199999998,
          "velocity": 0.7874015748031497
        },
        {
          "duration": 0.10902260000000297,
          "durationTicks": 29,
          "midi": 63,
          "name": "D#4",
          "ticks": 51060,
          "time": 191.954964,
          "velocity": 0.7874015748031497
        },
        {
          "duration": 0.10902260000000297,
          "durationTicks": 29,
          "midi": 59,
          "name": "B3",
          "ticks": 51090,
          "time": 192.067746,
          "velocity": 0.7874015748031497
        },
        {
          "duration": 0.10902260000000297,
          "durationTicks": 29,
          "midi": 64,
          "name": "E4",
          "ticks": 51120,
          "time": 192.18052799999998,
          "velocity": 0.7874015748031497
        },
        {
          "duration": 0.10902260000000297,
          "durationTicks": 29,
          "midi": 59,
          "name": "B3",
          "ticks": 51150,
          "time": 192.29331,
          "velocity": 0.7874015748031497
        },
        {
          "duration": 0.10902260000000297,
          "durationTicks": 29,
          "midi": 63,
          "name": "D#4",
          "ticks": 51180,
          "time": 192.406092,
          "velocity": 0.7874015748031497
        },
        {
          "duration": 0.10902260000000297,
          "durationTicks": 29,
          "midi": 59,
          "name": "B3",
          "ticks": 51210,
          "time": 192.51887399999998,
          "velocity": 0.7874015748031497
        },
        {
          "duration": 0.10902260000000297,
          "durationTicks": 29,
          "midi": 64,
          "name": "E4",
          "ticks": 51240,
          "time": 192.631656,
          "velocity": 0.7874015748031497
        },
        {
          "duration": 0.10902260000000297,
          "durationTicks": 29,
          "midi": 59,
          "name": "B3",
          "ticks": 51270,
          "time": 192.744438,
          "velocity": 0.7874015748031497
        },
        {
          "duration": 0.10902260000000297,
          "durationTicks": 29,
          "midi": 63,
          "name": "D#4",
          "ticks": 51300,
          "time": 192.85721999999998,
          "velocity": 0.7874015748031497
        },
        {
          "duration": 0.10902260000000297,
          "durationTicks": 29,
          "midi": 59,
          "name": "B3",
          "ticks": 51330,
          "time": 192.970002,
          "velocity": 0.7874015748031497
        },
        {
          "duration": 0.10902260000000297,
          "durationTicks": 29,
          "midi": 71,
          "name": "B4",
          "ticks": 51360,
          "time": 193.08278399999998,
          "velocity": 0.7874015748031497
        },
        {
          "duration": 0.10902260000000297,
          "durationTicks": 29,
          "midi": 59,
          "name": "B3",
          "ticks": 51390,
          "time": 193.19556599999999,
          "velocity": 0.7874015748031497
        },
        {
          "duration": 0.10902260000000297,
          "durationTicks": 29,
          "midi": 69,
          "name": "A4",
          "ticks": 51420,
          "time": 193.308348,
          "velocity": 0.7874015748031497
        },
        {
          "duration": 0.10902260000000297,
          "durationTicks": 29,
          "midi": 59,
          "name": "B3",
          "ticks": 51450,
          "time": 193.42112999999998,
          "velocity": 0.7874015748031497
        },
        {
          "duration": 0.10902260000000297,
          "durationTicks": 29,
          "midi": 68,
          "name": "G#4",
          "ticks": 51480,
          "time": 193.533912,
          "velocity": 0.7874015748031497
        },
        {
          "duration": 0.10902260000000297,
          "durationTicks": 29,
          "midi": 59,
          "name": "B3",
          "ticks": 51510,
          "time": 193.646694,
          "velocity": 0.7874015748031497
        },
        {
          "duration": 0.10902260000000297,
          "durationTicks": 29,
          "midi": 69,
          "name": "A4",
          "ticks": 51540,
          "time": 193.75947599999998,
          "velocity": 0.7874015748031497
        },
        {
          "duration": 0.10902260000000297,
          "durationTicks": 29,
          "midi": 59,
          "name": "B3",
          "ticks": 51570,
          "time": 193.872258,
          "velocity": 0.7874015748031497
        },
        {
          "duration": 0.10902260000000297,
          "durationTicks": 29,
          "midi": 68,
          "name": "G#4",
          "ticks": 51600,
          "time": 193.98504,
          "velocity": 0.7874015748031497
        },
        {
          "duration": 0.10902260000000297,
          "durationTicks": 29,
          "midi": 59,
          "name": "B3",
          "ticks": 51630,
          "time": 194.09782199999998,
          "velocity": 0.7874015748031497
        },
        {
          "duration": 0.10902260000000297,
          "durationTicks": 29,
          "midi": 66,
          "name": "F#4",
          "ticks": 51660,
          "time": 194.210604,
          "velocity": 0.7874015748031497
        },
        {
          "duration": 0.10902260000000297,
          "durationTicks": 29,
          "midi": 59,
          "name": "B3",
          "ticks": 51690,
          "time": 194.323386,
          "velocity": 0.7874015748031497
        },
        {
          "duration": 0.10902260000000297,
          "durationTicks": 29,
          "midi": 68,
          "name": "G#4",
          "ticks": 51720,
          "time": 194.43616799999998,
          "velocity": 0.7874015748031497
        },
        {
          "duration": 0.10902260000000297,
          "durationTicks": 29,
          "midi": 59,
          "name": "B3",
          "ticks": 51750,
          "time": 194.54895,
          "velocity": 0.7874015748031497
        },
        {
          "duration": 0.10902260000000297,
          "durationTicks": 29,
          "midi": 64,
          "name": "E4",
          "ticks": 51780,
          "time": 194.661732,
          "velocity": 0.7874015748031497
        },
        {
          "duration": 0.10902260000000297,
          "durationTicks": 29,
          "midi": 59,
          "name": "B3",
          "ticks": 51810,
          "time": 194.77451399999998,
          "velocity": 0.7874015748031497
        },
        {
          "duration": 0.10902260000000297,
          "durationTicks": 29,
          "midi": 66,
          "name": "F#4",
          "ticks": 51840,
          "time": 194.887296,
          "velocity": 0.7874015748031497
        },
        {
          "duration": 0.10902260000000297,
          "durationTicks": 29,
          "midi": 59,
          "name": "B3",
          "ticks": 51870,
          "time": 195.000078,
          "velocity": 0.7874015748031497
        },
        {
          "duration": 0.10902260000000297,
          "durationTicks": 29,
          "midi": 63,
          "name": "D#4",
          "ticks": 51900,
          "time": 195.11285999999998,
          "velocity": 0.7874015748031497
        },
        {
          "duration": 0.10902260000000297,
          "durationTicks": 29,
          "midi": 59,
          "name": "B3",
          "ticks": 51930,
          "time": 195.225642,
          "velocity": 0.7874015748031497
        },
        {
          "duration": 0.10902260000000297,
          "durationTicks": 29,
          "midi": 64,
          "name": "E4",
          "ticks": 51960,
          "time": 195.33842399999997,
          "velocity": 0.7874015748031497
        },
        {
          "duration": 0.10902260000000297,
          "durationTicks": 29,
          "midi": 59,
          "name": "B3",
          "ticks": 51990,
          "time": 195.45120599999998,
          "velocity": 0.7874015748031497
        },
        {
          "duration": 0.10902260000000297,
          "durationTicks": 29,
          "midi": 63,
          "name": "D#4",
          "ticks": 52020,
          "time": 195.563988,
          "velocity": 0.7874015748031497
        },
        {
          "duration": 0.10902260000000297,
          "durationTicks": 29,
          "midi": 59,
          "name": "B3",
          "ticks": 52050,
          "time": 195.67676999999998,
          "velocity": 0.7874015748031497
        },
        {
          "duration": 0.10902260000000297,
          "durationTicks": 29,
          "midi": 64,
          "name": "E4",
          "ticks": 52080,
          "time": 195.789552,
          "velocity": 0.7874015748031497
        },
        {
          "duration": 0.10902260000000297,
          "durationTicks": 29,
          "midi": 59,
          "name": "B3",
          "ticks": 52110,
          "time": 195.902334,
          "velocity": 0.7874015748031497
        },
        {
          "duration": 0.10902260000000297,
          "durationTicks": 29,
          "midi": 63,
          "name": "D#4",
          "ticks": 52140,
          "time": 196.01511599999998,
          "velocity": 0.7874015748031497
        },
        {
          "duration": 0.10902260000000297,
          "durationTicks": 29,
          "midi": 59,
          "name": "B3",
          "ticks": 52170,
          "time": 196.127898,
          "velocity": 0.7874015748031497
        },
        {
          "duration": 0.10902260000000297,
          "durationTicks": 29,
          "midi": 64,
          "name": "E4",
          "ticks": 52200,
          "time": 196.24068,
          "velocity": 0.7874015748031497
        },
        {
          "duration": 0.10902260000000297,
          "durationTicks": 29,
          "midi": 59,
          "name": "B3",
          "ticks": 52230,
          "time": 196.35346199999998,
          "velocity": 0.7874015748031497
        },
        {
          "duration": 0.10902260000000297,
          "durationTicks": 29,
          "midi": 63,
          "name": "D#4",
          "ticks": 52260,
          "time": 196.466244,
          "velocity": 0.7874015748031497
        },
        {
          "duration": 0.10902260000000297,
          "durationTicks": 29,
          "midi": 59,
          "name": "B3",
          "ticks": 52290,
          "time": 196.579026,
          "velocity": 0.7874015748031497
        },
        {
          "duration": 0.10902260000000297,
          "durationTicks": 29,
          "midi": 71,
          "name": "B4",
          "ticks": 52320,
          "time": 196.69180799999998,
          "velocity": 0.7874015748031497
        },
        {
          "duration": 0.10902260000000297,
          "durationTicks": 29,
          "midi": 59,
          "name": "B3",
          "ticks": 52350,
          "time": 196.80459,
          "velocity": 0.7874015748031497
        },
        {
          "duration": 0.10902260000000297,
          "durationTicks": 29,
          "midi": 69,
          "name": "A4",
          "ticks": 52380,
          "time": 196.917372,
          "velocity": 0.7874015748031497
        },
        {
          "duration": 0.10902260000000297,
          "durationTicks": 29,
          "midi": 59,
          "name": "B3",
          "ticks": 52410,
          "time": 197.03015399999998,
          "velocity": 0.7874015748031497
        },
        {
          "duration": 0.10902260000000297,
          "durationTicks": 29,
          "midi": 68,
          "name": "G#4",
          "ticks": 52440,
          "time": 197.142936,
          "velocity": 0.7874015748031497
        },
        {
          "duration": 0.10902260000000297,
          "durationTicks": 29,
          "midi": 59,
          "name": "B3",
          "ticks": 52470,
          "time": 197.255718,
          "velocity": 0.7874015748031497
        },
        {
          "duration": 0.10902260000000297,
          "durationTicks": 29,
          "midi": 69,
          "name": "A4",
          "ticks": 52500,
          "time": 197.36849999999998,
          "velocity": 0.7874015748031497
        },
        {
          "duration": 0.10902260000000297,
          "durationTicks": 29,
          "midi": 59,
          "name": "B3",
          "ticks": 52530,
          "time": 197.481282,
          "velocity": 0.7874015748031497
        },
        {
          "duration": 0.10902260000003139,
          "durationTicks": 29,
          "midi": 68,
          "name": "G#4",
          "ticks": 52560,
          "time": 197.59406399999997,
          "velocity": 0.7874015748031497
        },
        {
          "duration": 0.10902260000000297,
          "durationTicks": 29,
          "midi": 59,
          "name": "B3",
          "ticks": 52590,
          "time": 197.70684599999998,
          "velocity": 0.7874015748031497
        },
        {
          "duration": 0.10902260000000297,
          "durationTicks": 29,
          "midi": 66,
          "name": "F#4",
          "ticks": 52620,
          "time": 197.819628,
          "velocity": 0.7874015748031497
        },
        {
          "duration": 0.10902260000000297,
          "durationTicks": 29,
          "midi": 59,
          "name": "B3",
          "ticks": 52650,
          "time": 197.93240999999998,
          "velocity": 0.7874015748031497
        },
        {
          "duration": 0.10902260000000297,
          "durationTicks": 29,
          "midi": 68,
          "name": "G#4",
          "ticks": 52680,
          "time": 198.045192,
          "velocity": 0.7874015748031497
        },
        {
          "duration": 0.10902260000000297,
          "durationTicks": 29,
          "midi": 59,
          "name": "B3",
          "ticks": 52710,
          "time": 198.157974,
          "velocity": 0.7874015748031497
        },
        {
          "duration": 0.10902260000000297,
          "durationTicks": 29,
          "midi": 64,
          "name": "E4",
          "ticks": 52740,
          "time": 198.27075599999998,
          "velocity": 0.7874015748031497
        },
        {
          "duration": 0.10902260000000297,
          "durationTicks": 29,
          "midi": 59,
          "name": "B3",
          "ticks": 52770,
          "time": 198.383538,
          "velocity": 0.7874015748031497
        },
        {
          "duration": 0.10902260000000297,
          "durationTicks": 29,
          "midi": 66,
          "name": "F#4",
          "ticks": 52800,
          "time": 198.49632,
          "velocity": 0.7874015748031497
        },
        {
          "duration": 0.10902260000000297,
          "durationTicks": 29,
          "midi": 59,
          "name": "B3",
          "ticks": 52830,
          "time": 198.60910199999998,
          "velocity": 0.7874015748031497
        },
        {
          "duration": 0.10902260000000297,
          "durationTicks": 29,
          "midi": 63,
          "name": "D#4",
          "ticks": 52860,
          "time": 198.721884,
          "velocity": 0.7874015748031497
        },
        {
          "duration": 0.10902260000000297,
          "durationTicks": 29,
          "midi": 59,
          "name": "B3",
          "ticks": 52890,
          "time": 198.834666,
          "velocity": 0.7874015748031497
        },
        {
          "duration": 0.10902260000000297,
          "durationTicks": 29,
          "midi": 64,
          "name": "E4",
          "ticks": 52920,
          "time": 198.94744799999998,
          "velocity": 0.7874015748031497
        },
        {
          "duration": 0.10902260000000297,
          "durationTicks": 29,
          "midi": 59,
          "name": "B3",
          "ticks": 52950,
          "time": 199.06023,
          "velocity": 0.7874015748031497
        },
        {
          "duration": 0.10902260000000297,
          "durationTicks": 29,
          "midi": 63,
          "name": "D#4",
          "ticks": 52980,
          "time": 199.173012,
          "velocity": 0.7874015748031497
        },
        {
          "duration": 0.10902260000000297,
          "durationTicks": 29,
          "midi": 59,
          "name": "B3",
          "ticks": 53010,
          "time": 199.28579399999998,
          "velocity": 0.7874015748031497
        },
        {
          "duration": 0.10902260000000297,
          "durationTicks": 29,
          "midi": 64,
          "name": "E4",
          "ticks": 53040,
          "time": 199.398576,
          "velocity": 0.7874015748031497
        },
        {
          "duration": 0.10902260000000297,
          "durationTicks": 29,
          "midi": 59,
          "name": "B3",
          "ticks": 53070,
          "time": 199.511358,
          "velocity": 0.7874015748031497
        },
        {
          "duration": 0.10902260000000297,
          "durationTicks": 29,
          "midi": 63,
          "name": "D#4",
          "ticks": 53100,
          "time": 199.62413999999998,
          "velocity": 0.7874015748031497
        },
        {
          "duration": 0.10902260000000297,
          "durationTicks": 29,
          "midi": 59,
          "name": "B3",
          "ticks": 53130,
          "time": 199.736922,
          "velocity": 0.7874015748031497
        },
        {
          "duration": 0.10902260000003139,
          "durationTicks": 29,
          "midi": 64,
          "name": "E4",
          "ticks": 53160,
          "time": 199.84970399999997,
          "velocity": 0.7874015748031497
        },
        {
          "duration": 0.10902260000000297,
          "durationTicks": 29,
          "midi": 59,
          "name": "B3",
          "ticks": 53190,
          "time": 199.96248599999998,
          "velocity": 0.7874015748031497
        },
        {
          "duration": 0.10902260000000297,
          "durationTicks": 29,
          "midi": 63,
          "name": "D#4",
          "ticks": 53220,
          "time": 200.075268,
          "velocity": 0.7874015748031497
        },
        {
          "duration": 0.10902260000000297,
          "durationTicks": 29,
          "midi": 59,
          "name": "B3",
          "ticks": 53250,
          "time": 200.18804999999998,
          "velocity": 0.7874015748031497
        },
        {
          "duration": 0.10902260000000297,
          "durationTicks": 29,
          "midi": 71,
          "name": "B4",
          "ticks": 60960,
          "time": 229.173024,
          "velocity": 0.7874015748031497
        },
        {
          "duration": 0.10902260000000297,
          "durationTicks": 29,
          "midi": 59,
          "name": "B3",
          "ticks": 60990,
          "time": 229.285806,
          "velocity": 0.7874015748031497
        },
        {
          "duration": 0.10902260000000297,
          "durationTicks": 29,
          "midi": 69,
          "name": "A4",
          "ticks": 61020,
          "time": 229.398588,
          "velocity": 0.7874015748031497
        },
        {
          "duration": 0.10902260000000297,
          "durationTicks": 29,
          "midi": 59,
          "name": "B3",
          "ticks": 61050,
          "time": 229.51137,
          "velocity": 0.7874015748031497
        },
        {
          "duration": 0.10902260000000297,
          "durationTicks": 29,
          "midi": 68,
          "name": "G#4",
          "ticks": 61080,
          "time": 229.624152,
          "velocity": 0.7874015748031497
        },
        {
          "duration": 0.10902260000000297,
          "durationTicks": 29,
          "midi": 59,
          "name": "B3",
          "ticks": 61110,
          "time": 229.736934,
          "velocity": 0.7874015748031497
        },
        {
          "duration": 0.10902260000000297,
          "durationTicks": 29,
          "midi": 69,
          "name": "A4",
          "ticks": 61140,
          "time": 229.849716,
          "velocity": 0.7874015748031497
        },
        {
          "duration": 0.10902259999997455,
          "durationTicks": 29,
          "midi": 59,
          "name": "B3",
          "ticks": 61170,
          "time": 229.962498,
          "velocity": 0.7874015748031497
        },
        {
          "duration": 0.10902260000000297,
          "durationTicks": 29,
          "midi": 68,
          "name": "G#4",
          "ticks": 61200,
          "time": 230.07528,
          "velocity": 0.7874015748031497
        },
        {
          "duration": 0.10902260000000297,
          "durationTicks": 29,
          "midi": 59,
          "name": "B3",
          "ticks": 61230,
          "time": 230.188062,
          "velocity": 0.7874015748031497
        },
        {
          "duration": 0.10902259999997455,
          "durationTicks": 29,
          "midi": 66,
          "name": "F#4",
          "ticks": 61260,
          "time": 230.300844,
          "velocity": 0.7874015748031497
        },
        {
          "duration": 0.10902260000000297,
          "durationTicks": 29,
          "midi": 59,
          "name": "B3",
          "ticks": 61290,
          "time": 230.413626,
          "velocity": 0.7874015748031497
        },
        {
          "duration": 0.10902260000000297,
          "durationTicks": 29,
          "midi": 68,
          "name": "G#4",
          "ticks": 61320,
          "time": 230.526408,
          "velocity": 0.7874015748031497
        },
        {
          "duration": 0.10902260000000297,
          "durationTicks": 29,
          "midi": 59,
          "name": "B3",
          "ticks": 61350,
          "time": 230.63918999999999,
          "velocity": 0.7874015748031497
        },
        {
          "duration": 0.10902260000000297,
          "durationTicks": 29,
          "midi": 64,
          "name": "E4",
          "ticks": 61380,
          "time": 230.751972,
          "velocity": 0.7874015748031497
        },
        {
          "duration": 0.10902260000000297,
          "durationTicks": 29,
          "midi": 59,
          "name": "B3",
          "ticks": 61410,
          "time": 230.864754,
          "velocity": 0.7874015748031497
        },
        {
          "duration": 0.10902260000000297,
          "durationTicks": 29,
          "midi": 66,
          "name": "F#4",
          "ticks": 61440,
          "time": 230.977536,
          "velocity": 0.7874015748031497
        },
        {
          "duration": 0.10902260000000297,
          "durationTicks": 29,
          "midi": 59,
          "name": "B3",
          "ticks": 61470,
          "time": 231.090318,
          "velocity": 0.7874015748031497
        },
        {
          "duration": 0.10902260000000297,
          "durationTicks": 29,
          "midi": 63,
          "name": "D#4",
          "ticks": 61500,
          "time": 231.2031,
          "velocity": 0.7874015748031497
        },
        {
          "duration": 0.10902260000000297,
          "durationTicks": 29,
          "midi": 59,
          "name": "B3",
          "ticks": 61530,
          "time": 231.315882,
          "velocity": 0.7874015748031497
        },
        {
          "duration": 0.10902260000000297,
          "durationTicks": 29,
          "midi": 64,
          "name": "E4",
          "ticks": 61560,
          "time": 231.428664,
          "velocity": 0.7874015748031497
        },
        {
          "duration": 0.10902260000000297,
          "durationTicks": 29,
          "midi": 59,
          "name": "B3",
          "ticks": 61590,
          "time": 231.541446,
          "velocity": 0.7874015748031497
        },
        {
          "duration": 0.10902260000000297,
          "durationTicks": 29,
          "midi": 63,
          "name": "D#4",
          "ticks": 61620,
          "time": 231.654228,
          "velocity": 0.7874015748031497
        },
        {
          "duration": 0.10902260000000297,
          "durationTicks": 29,
          "midi": 59,
          "name": "B3",
          "ticks": 61650,
          "time": 231.76701,
          "velocity": 0.7874015748031497
        },
        {
          "duration": 0.10902260000000297,
          "durationTicks": 29,
          "midi": 64,
          "name": "E4",
          "ticks": 61680,
          "time": 231.879792,
          "velocity": 0.7874015748031497
        },
        {
          "duration": 0.10902260000000297,
          "durationTicks": 29,
          "midi": 59,
          "name": "B3",
          "ticks": 61710,
          "time": 231.992574,
          "velocity": 0.7874015748031497
        },
        {
          "duration": 0.10902260000000297,
          "durationTicks": 29,
          "midi": 63,
          "name": "D#4",
          "ticks": 61740,
          "time": 232.105356,
          "velocity": 0.7874015748031497
        },
        {
          "duration": 0.10902260000000297,
          "durationTicks": 29,
          "midi": 59,
          "name": "B3",
          "ticks": 61770,
          "time": 232.218138,
          "velocity": 0.7874015748031497
        },
        {
          "duration": 0.10902260000000297,
          "durationTicks": 29,
          "midi": 64,
          "name": "E4",
          "ticks": 61800,
          "time": 232.33092,
          "velocity": 0.7874015748031497
        },
        {
          "duration": 0.10902260000000297,
          "durationTicks": 29,
          "midi": 59,
          "name": "B3",
          "ticks": 61830,
          "time": 232.443702,
          "velocity": 0.7874015748031497
        },
        {
          "duration": 0.10902259999997455,
          "durationTicks": 29,
          "midi": 63,
          "name": "D#4",
          "ticks": 61860,
          "time": 232.556484,
          "velocity": 0.7874015748031497
        },
        {
          "duration": 0.10902260000000297,
          "durationTicks": 29,
          "midi": 59,
          "name": "B3",
          "ticks": 61890,
          "time": 232.669266,
          "velocity": 0.7874015748031497
        },
        {
          "duration": 0.10902260000000297,
          "durationTicks": 29,
          "midi": 71,
          "name": "B4",
          "ticks": 61920,
          "time": 232.782048,
          "velocity": 0.7874015748031497
        },
        {
          "duration": 0.10902259999997455,
          "durationTicks": 29,
          "midi": 59,
          "name": "B3",
          "ticks": 61950,
          "time": 232.89483,
          "velocity": 0.7874015748031497
        },
        {
          "duration": 0.10902260000000297,
          "durationTicks": 29,
          "midi": 69,
          "name": "A4",
          "ticks": 61980,
          "time": 233.007612,
          "velocity": 0.7874015748031497
        },
        {
          "duration": 0.10902260000000297,
          "durationTicks": 29,
          "midi": 59,
          "name": "B3",
          "ticks": 62010,
          "time": 233.120394,
          "velocity": 0.7874015748031497
        },
        {
          "duration": 0.10902260000000297,
          "durationTicks": 29,
          "midi": 68,
          "name": "G#4",
          "ticks": 62040,
          "time": 233.233176,
          "velocity": 0.7874015748031497
        },
        {
          "duration": 0.10902260000000297,
          "durationTicks": 29,
          "midi": 59,
          "name": "B3",
          "ticks": 62070,
          "time": 233.345958,
          "velocity": 0.7874015748031497
        },
        {
          "duration": 0.10902260000000297,
          "durationTicks": 29,
          "midi": 69,
          "name": "A4",
          "ticks": 62100,
          "time": 233.45874,
          "velocity": 0.7874015748031497
        },
        {
          "duration": 0.10902260000000297,
          "durationTicks": 29,
          "midi": 59,
          "name": "B3",
          "ticks": 62130,
          "time": 233.571522,
          "velocity": 0.7874015748031497
        },
        {
          "duration": 0.10902260000000297,
          "durationTicks": 29,
          "midi": 68,
          "name": "G#4",
          "ticks": 62160,
          "time": 233.684304,
          "velocity": 0.7874015748031497
        },
        {
          "duration": 0.10902260000000297,
          "durationTicks": 29,
          "midi": 59,
          "name": "B3",
          "ticks": 62190,
          "time": 233.797086,
          "velocity": 0.7874015748031497
        },
        {
          "duration": 0.10902260000000297,
          "durationTicks": 29,
          "midi": 66,
          "name": "F#4",
          "ticks": 62220,
          "time": 233.909868,
          "velocity": 0.7874015748031497
        },
        {
          "duration": 0.10902260000000297,
          "durationTicks": 29,
          "midi": 59,
          "name": "B3",
          "ticks": 62250,
          "time": 234.02265,
          "velocity": 0.7874015748031497
        },
        {
          "duration": 0.10902260000000297,
          "durationTicks": 29,
          "midi": 68,
          "name": "G#4",
          "ticks": 62280,
          "time": 234.135432,
          "velocity": 0.7874015748031497
        },
        {
          "duration": 0.10902260000000297,
          "durationTicks": 29,
          "midi": 59,
          "name": "B3",
          "ticks": 62310,
          "time": 234.248214,
          "velocity": 0.7874015748031497
        },
        {
          "duration": 0.10902260000000297,
          "durationTicks": 29,
          "midi": 64,
          "name": "E4",
          "ticks": 62340,
          "time": 234.360996,
          "velocity": 0.7874015748031497
        },
        {
          "duration": 0.10902259999997455,
          "durationTicks": 29,
          "midi": 59,
          "name": "B3",
          "ticks": 62370,
          "time": 234.473778,
          "velocity": 0.7874015748031497
        },
        {
          "duration": 0.10902260000000297,
          "durationTicks": 29,
          "midi": 66,
          "name": "F#4",
          "ticks": 62400,
          "time": 234.58656,
          "velocity": 0.7874015748031497
        },
        {
          "duration": 0.10902260000000297,
          "durationTicks": 29,
          "midi": 59,
          "name": "B3",
          "ticks": 62430,
          "time": 234.699342,
          "velocity": 0.7874015748031497
        },
        {
          "duration": 0.10902259999997455,
          "durationTicks": 29,
          "midi": 63,
          "name": "D#4",
          "ticks": 62460,
          "time": 234.812124,
          "velocity": 0.7874015748031497
        },
        {
          "duration": 0.10902260000000297,
          "durationTicks": 29,
          "midi": 59,
          "name": "B3",
          "ticks": 62490,
          "time": 234.924906,
          "velocity": 0.7874015748031497
        },
        {
          "duration": 0.10902260000000297,
          "durationTicks": 29,
          "midi": 64,
          "name": "E4",
          "ticks": 62520,
          "time": 235.037688,
          "velocity": 0.7874015748031497
        },
        {
          "duration": 0.10902260000000297,
          "durationTicks": 29,
          "midi": 59,
          "name": "B3",
          "ticks": 62550,
          "time": 235.15046999999998,
          "velocity": 0.7874015748031497
        },
        {
          "duration": 0.10902260000000297,
          "durationTicks": 29,
          "midi": 63,
          "name": "D#4",
          "ticks": 62580,
          "time": 235.263252,
          "velocity": 0.7874015748031497
        },
        {
          "duration": 0.10902260000000297,
          "durationTicks": 29,
          "midi": 59,
          "name": "B3",
          "ticks": 62610,
          "time": 235.376034,
          "velocity": 0.7874015748031497
        },
        {
          "duration": 0.10902260000000297,
          "durationTicks": 29,
          "midi": 64,
          "name": "E4",
          "ticks": 62640,
          "time": 235.48881599999999,
          "velocity": 0.7874015748031497
        },
        {
          "duration": 0.10902260000000297,
          "durationTicks": 29,
          "midi": 59,
          "name": "B3",
          "ticks": 62670,
          "time": 235.601598,
          "velocity": 0.7874015748031497
        },
        {
          "duration": 0.10902260000000297,
          "durationTicks": 29,
          "midi": 63,
          "name": "D#4",
          "ticks": 62700,
          "time": 235.71438,
          "velocity": 0.7874015748031497
        },
        {
          "duration": 0.10902260000000297,
          "durationTicks": 29,
          "midi": 59,
          "name": "B3",
          "ticks": 62730,
          "time": 235.827162,
          "velocity": 0.7874015748031497
        },
        {
          "duration": 0.10902260000000297,
          "durationTicks": 29,
          "midi": 64,
          "name": "E4",
          "ticks": 62760,
          "time": 235.939944,
          "velocity": 0.7874015748031497
        },
        {
          "duration": 0.10902260000000297,
          "durationTicks": 29,
          "midi": 59,
          "name": "B3",
          "ticks": 62790,
          "time": 236.052726,
          "velocity": 0.7874015748031497
        },
        {
          "duration": 0.10902260000000297,
          "durationTicks": 29,
          "midi": 63,
          "name": "D#4",
          "ticks": 62820,
          "time": 236.165508,
          "velocity": 0.7874015748031497
        },
        {
          "duration": 0.10902260000000297,
          "durationTicks": 29,
          "midi": 59,
          "name": "B3",
          "ticks": 62850,
          "time": 236.27829,
          "velocity": 0.7874015748031497
        },
        {
          "duration": 0.10902260000000297,
          "durationTicks": 29,
          "midi": 71,
          "name": "B4",
          "ticks": 62880,
          "time": 236.391072,
          "velocity": 0.7874015748031497
        },
        {
          "duration": 0.10902260000000297,
          "durationTicks": 29,
          "midi": 59,
          "name": "B3",
          "ticks": 62910,
          "time": 236.503854,
          "velocity": 0.7874015748031497
        },
        {
          "duration": 0.10902260000000297,
          "durationTicks": 29,
          "midi": 69,
          "name": "A4",
          "ticks": 62940,
          "time": 236.616636,
          "velocity": 0.7874015748031497
        },
        {
          "duration": 0.10902260000000297,
          "durationTicks": 29,
          "midi": 59,
          "name": "B3",
          "ticks": 62970,
          "time": 236.729418,
          "velocity": 0.7874015748031497
        },
        {
          "duration": 0.10902260000000297,
          "durationTicks": 29,
          "midi": 68,
          "name": "G#4",
          "ticks": 63000,
          "time": 236.8422,
          "velocity": 0.7874015748031497
        },
        {
          "duration": 0.10902260000000297,
          "durationTicks": 29,
          "midi": 59,
          "name": "B3",
          "ticks": 63030,
          "time": 236.954982,
          "velocity": 0.7874015748031497
        },
        {
          "duration": 0.10902260000000297,
          "durationTicks": 29,
          "midi": 69,
          "name": "A4",
          "ticks": 63060,
          "time": 237.067764,
          "velocity": 0.7874015748031497
        },
        {
          "duration": 0.10902260000000297,
          "durationTicks": 29,
          "midi": 59,
          "name": "B3",
          "ticks": 63090,
          "time": 237.180546,
          "velocity": 0.7874015748031497
        },
        {
          "duration": 0.10902260000000297,
          "durationTicks": 29,
          "midi": 68,
          "name": "G#4",
          "ticks": 63120,
          "time": 237.293328,
          "velocity": 0.7874015748031497
        },
        {
          "duration": 0.10902259999997455,
          "durationTicks": 29,
          "midi": 59,
          "name": "B3",
          "ticks": 63150,
          "time": 237.40611,
          "velocity": 0.7874015748031497
        },
        {
          "duration": 0.10902260000000297,
          "durationTicks": 29,
          "midi": 66,
          "name": "F#4",
          "ticks": 63180,
          "time": 237.518892,
          "velocity": 0.7874015748031497
        },
        {
          "duration": 0.10902260000000297,
          "durationTicks": 29,
          "midi": 59,
          "name": "B3",
          "ticks": 63210,
          "time": 237.631674,
          "velocity": 0.7874015748031497
        },
        {
          "duration": 0.10902259999997455,
          "durationTicks": 29,
          "midi": 68,
          "name": "G#4",
          "ticks": 63240,
          "time": 237.744456,
          "velocity": 0.7874015748031497
        },
        {
          "duration": 0.10902260000000297,
          "durationTicks": 29,
          "midi": 59,
          "name": "B3",
          "ticks": 63270,
          "time": 237.857238,
          "velocity": 0.7874015748031497
        },
        {
          "duration": 0.10902260000000297,
          "durationTicks": 29,
          "midi": 64,
          "name": "E4",
          "ticks": 63300,
          "time": 237.97002,
          "velocity": 0.7874015748031497
        },
        {
          "duration": 0.10902260000000297,
          "durationTicks": 29,
          "midi": 59,
          "name": "B3",
          "ticks": 63330,
          "time": 238.082802,
          "velocity": 0.7874015748031497
        },
        {
          "duration": 0.10902260000000297,
          "durationTicks": 29,
          "midi": 66,
          "name": "F#4",
          "ticks": 63360,
          "time": 238.195584,
          "velocity": 0.7874015748031497
        },
        {
          "duration": 0.10902260000000297,
          "durationTicks": 29,
          "midi": 59,
          "name": "B3",
          "ticks": 63390,
          "time": 238.308366,
          "velocity": 0.7874015748031497
        },
        {
          "duration": 0.10902260000000297,
          "durationTicks": 29,
          "midi": 63,
          "name": "D#4",
          "ticks": 63420,
          "time": 238.421148,
          "velocity": 0.7874015748031497
        },
        {
          "duration": 0.10902260000000297,
          "durationTicks": 29,
          "midi": 59,
          "name": "B3",
          "ticks": 63450,
          "time": 238.53393,
          "velocity": 0.7874015748031497
        },
        {
          "duration": 0.10902260000000297,
          "durationTicks": 29,
          "midi": 64,
          "name": "E4",
          "ticks": 63480,
          "time": 238.646712,
          "velocity": 0.7874015748031497
        },
        {
          "duration": 0.10902260000000297,
          "durationTicks": 29,
          "midi": 59,
          "name": "B3",
          "ticks": 63510,
          "time": 238.759494,
          "velocity": 0.7874015748031497
        },
        {
          "duration": 0.10902260000000297,
          "durationTicks": 29,
          "midi": 63,
          "name": "D#4",
          "ticks": 63540,
          "time": 238.872276,
          "velocity": 0.7874015748031497
        },
        {
          "duration": 0.10902259999997455,
          "durationTicks": 29,
          "midi": 59,
          "name": "B3",
          "ticks": 63570,
          "time": 238.985058,
          "velocity": 0.7874015748031497
        },
        {
          "duration": 0.10902260000000297,
          "durationTicks": 29,
          "midi": 64,
          "name": "E4",
          "ticks": 63600,
          "time": 239.09784,
          "velocity": 0.7874015748031497
        },
        {
          "duration": 0.10902260000000297,
          "durationTicks": 29,
          "midi": 59,
          "name": "B3",
          "ticks": 63630,
          "time": 239.210622,
          "velocity": 0.7874015748031497
        },
        {
          "duration": 0.10902259999997455,
          "durationTicks": 29,
          "midi": 63,
          "name": "D#4",
          "ticks": 63660,
          "time": 239.323404,
          "velocity": 0.7874015748031497
        },
        {
          "duration": 0.10902260000000297,
          "durationTicks": 29,
          "midi": 59,
          "name": "B3",
          "ticks": 63690,
          "time": 239.436186,
          "velocity": 0.7874015748031497
        },
        {
          "duration": 0.10902260000000297,
          "durationTicks": 29,
          "midi": 64,
          "name": "E4",
          "ticks": 63720,
          "time": 239.548968,
          "velocity": 0.7874015748031497
        },
        {
          "duration": 0.10902260000000297,
          "durationTicks": 29,
          "midi": 59,
          "name": "B3",
          "ticks": 63750,
          "time": 239.66174999999998,
          "velocity": 0.7874015748031497
        },
        {
          "duration": 0.10902260000000297,
          "durationTicks": 29,
          "midi": 63,
          "name": "D#4",
          "ticks": 63780,
          "time": 239.774532,
          "velocity": 0.7874015748031497
        },
        {
          "duration": 0.10902260000000297,
          "durationTicks": 29,
          "midi": 59,
          "name": "B3",
          "ticks": 63810,
          "time": 239.887314,
          "velocity": 0.7874015748031497
        },
        {
          "duration": 0.10902260000000297,
          "durationTicks": 29,
          "midi": 71,
          "name": "B4",
          "ticks": 63840,
          "time": 240.00009599999998,
          "velocity": 0.7874015748031497
        },
        {
          "duration": 0.10902260000000297,
          "durationTicks": 29,
          "midi": 59,
          "name": "B3",
          "ticks": 63870,
          "time": 240.112878,
          "velocity": 0.7874015748031497
        },
        {
          "duration": 0.10902260000000297,
          "durationTicks": 29,
          "midi": 69,
          "name": "A4",
          "ticks": 63900,
          "time": 240.22566,
          "velocity": 0.7874015748031497
        },
        {
          "duration": 0.10902260000000297,
          "durationTicks": 29,
          "midi": 59,
          "name": "B3",
          "ticks": 63930,
          "time": 240.338442,
          "velocity": 0.7874015748031497
        },
        {
          "duration": 0.10902260000000297,
          "durationTicks": 29,
          "midi": 68,
          "name": "G#4",
          "ticks": 63960,
          "time": 240.451224,
          "velocity": 0.7874015748031497
        },
        {
          "duration": 0.10902260000000297,
          "durationTicks": 29,
          "midi": 59,
          "name": "B3",
          "ticks": 63990,
          "time": 240.564006,
          "velocity": 0.7874015748031497
        },
        {
          "duration": 0.10902260000000297,
          "durationTicks": 29,
          "midi": 69,
          "name": "A4",
          "ticks": 64020,
          "time": 240.676788,
          "velocity": 0.7874015748031497
        },
        {
          "duration": 0.10902260000000297,
          "durationTicks": 29,
          "midi": 59,
          "name": "B3",
          "ticks": 64050,
          "time": 240.78957,
          "velocity": 0.7874015748031497
        },
        {
          "duration": 0.10902260000000297,
          "durationTicks": 29,
          "midi": 68,
          "name": "G#4",
          "ticks": 64080,
          "time": 240.902352,
          "velocity": 0.7874015748031497
        },
        {
          "duration": 0.10902260000000297,
          "durationTicks": 29,
          "midi": 59,
          "name": "B3",
          "ticks": 64110,
          "time": 241.015134,
          "velocity": 0.7874015748031497
        },
        {
          "duration": 0.10902260000000297,
          "durationTicks": 29,
          "midi": 66,
          "name": "F#4",
          "ticks": 64140,
          "time": 241.127916,
          "velocity": 0.7874015748031497
        },
        {
          "duration": 0.10902260000000297,
          "durationTicks": 29,
          "midi": 59,
          "name": "B3",
          "ticks": 64170,
          "time": 241.240698,
          "velocity": 0.7874015748031497
        },
        {
          "duration": 0.10902260000000297,
          "durationTicks": 29,
          "midi": 68,
          "name": "G#4",
          "ticks": 64200,
          "time": 241.35348,
          "velocity": 0.7874015748031497
        },
        {
          "duration": 0.10902260000000297,
          "durationTicks": 29,
          "midi": 59,
          "name": "B3",
          "ticks": 64230,
          "time": 241.466262,
          "velocity": 0.7874015748031497
        },
        {
          "duration": 0.10902260000000297,
          "durationTicks": 29,
          "midi": 64,
          "name": "E4",
          "ticks": 64260,
          "time": 241.579044,
          "velocity": 0.7874015748031497
        },
        {
          "duration": 0.10902260000000297,
          "durationTicks": 29,
          "midi": 59,
          "name": "B3",
          "ticks": 64290,
          "time": 241.691826,
          "velocity": 0.7874015748031497
        },
        {
          "duration": 0.10902260000000297,
          "durationTicks": 29,
          "midi": 66,
          "name": "F#4",
          "ticks": 64320,
          "time": 241.804608,
          "velocity": 0.7874015748031497
        },
        {
          "duration": 0.10902259999997455,
          "durationTicks": 29,
          "midi": 59,
          "name": "B3",
          "ticks": 64350,
          "time": 241.91739,
          "velocity": 0.7874015748031497
        },
        {
          "duration": 0.10902260000000297,
          "durationTicks": 29,
          "midi": 63,
          "name": "D#4",
          "ticks": 64380,
          "time": 242.030172,
          "velocity": 0.7874015748031497
        },
        {
          "duration": 0.10902260000000297,
          "durationTicks": 29,
          "midi": 59,
          "name": "B3",
          "ticks": 64410,
          "time": 242.142954,
          "velocity": 0.7874015748031497
        },
        {
          "duration": 0.10902259999997455,
          "durationTicks": 29,
          "midi": 64,
          "name": "E4",
          "ticks": 64440,
          "time": 242.255736,
          "velocity": 0.7874015748031497
        },
        {
          "duration": 0.10902260000000297,
          "durationTicks": 29,
          "midi": 59,
          "name": "B3",
          "ticks": 64470,
          "time": 242.368518,
          "velocity": 0.7874015748031497
        },
        {
          "duration": 0.10902260000000297,
          "durationTicks": 29,
          "midi": 63,
          "name": "D#4",
          "ticks": 64500,
          "time": 242.4813,
          "velocity": 0.7874015748031497
        },
        {
          "duration": 0.10902260000000297,
          "durationTicks": 29,
          "midi": 59,
          "name": "B3",
          "ticks": 64530,
          "time": 242.594082,
          "velocity": 0.7874015748031497
        },
        {
          "duration": 0.10902260000000297,
          "durationTicks": 29,
          "midi": 64,
          "name": "E4",
          "ticks": 64560,
          "time": 242.706864,
          "velocity": 0.7874015748031497
        },
        {
          "duration": 0.10902260000000297,
          "durationTicks": 29,
          "midi": 59,
          "name": "B3",
          "ticks": 64590,
          "time": 242.819646,
          "velocity": 0.7874015748031497
        },
        {
          "duration": 0.10902260000000297,
          "durationTicks": 29,
          "midi": 63,
          "name": "D#4",
          "ticks": 64620,
          "time": 242.932428,
          "velocity": 0.7874015748031497
        },
        {
          "duration": 0.10902260000000297,
          "durationTicks": 29,
          "midi": 59,
          "name": "B3",
          "ticks": 64650,
          "time": 243.04521,
          "velocity": 0.7874015748031497
        },
        {
          "duration": 0.10902260000000297,
          "durationTicks": 29,
          "midi": 64,
          "name": "E4",
          "ticks": 64680,
          "time": 243.157992,
          "velocity": 0.7874015748031497
        },
        {
          "duration": 0.10902260000000297,
          "durationTicks": 29,
          "midi": 59,
          "name": "B3",
          "ticks": 64710,
          "time": 243.270774,
          "velocity": 0.7874015748031497
        },
        {
          "duration": 0.10902260000000297,
          "durationTicks": 29,
          "midi": 63,
          "name": "D#4",
          "ticks": 64740,
          "time": 243.383556,
          "velocity": 0.7874015748031497
        },
        {
          "duration": 0.10902259999997455,
          "durationTicks": 29,
          "midi": 59,
          "name": "B3",
          "ticks": 64770,
          "time": 243.496338,
          "velocity": 0.7874015748031497
        },
        {
          "duration": 0.10902260000000297,
          "durationTicks": 29,
          "midi": 71,
          "name": "B4",
          "ticks": 64800,
          "time": 243.60912,
          "velocity": 0.7874015748031497
        },
        {
          "duration": 0.10902260000000297,
          "durationTicks": 29,
          "midi": 59,
          "name": "B3",
          "ticks": 64830,
          "time": 243.721902,
          "velocity": 0.7874015748031497
        },
        {
          "duration": 0.10902259999997455,
          "durationTicks": 29,
          "midi": 69,
          "name": "A4",
          "ticks": 64860,
          "time": 243.834684,
          "velocity": 0.7874015748031497
        },
        {
          "duration": 0.10902260000000297,
          "durationTicks": 29,
          "midi": 59,
          "name": "B3",
          "ticks": 64890,
          "time": 243.947466,
          "velocity": 0.7874015748031497
        },
        {
          "duration": 0.10902260000000297,
          "durationTicks": 29,
          "midi": 68,
          "name": "G#4",
          "ticks": 64920,
          "time": 244.060248,
          "velocity": 0.7874015748031497
        },
        {
          "duration": 0.10902260000000297,
          "durationTicks": 29,
          "midi": 59,
          "name": "B3",
          "ticks": 64950,
          "time": 244.17302999999998,
          "velocity": 0.7874015748031497
        },
        {
          "duration": 0.10902260000000297,
          "durationTicks": 29,
          "midi": 69,
          "name": "A4",
          "ticks": 64980,
          "time": 244.285812,
          "velocity": 0.7874015748031497
        },
        {
          "duration": 0.10902260000000297,
          "durationTicks": 29,
          "midi": 59,
          "name": "B3",
          "ticks": 65010,
          "time": 244.398594,
          "velocity": 0.7874015748031497
        },
        {
          "duration": 0.10902260000000297,
          "durationTicks": 29,
          "midi": 68,
          "name": "G#4",
          "ticks": 65040,
          "time": 244.51137599999998,
          "velocity": 0.7874015748031497
        },
        {
          "duration": 0.10902260000000297,
          "durationTicks": 29,
          "midi": 59,
          "name": "B3",
          "ticks": 65070,
          "time": 244.624158,
          "velocity": 0.7874015748031497
        },
        {
          "duration": 0.10902260000000297,
          "durationTicks": 29,
          "midi": 66,
          "name": "F#4",
          "ticks": 65100,
          "time": 244.73694,
          "velocity": 0.7874015748031497
        },
        {
          "duration": 0.10902260000000297,
          "durationTicks": 29,
          "midi": 59,
          "name": "B3",
          "ticks": 65130,
          "time": 244.84972199999999,
          "velocity": 0.7874015748031497
        },
        {
          "duration": 0.10902260000000297,
          "durationTicks": 29,
          "midi": 68,
          "name": "G#4",
          "ticks": 65160,
          "time": 244.962504,
          "velocity": 0.7874015748031497
        },
        {
          "duration": 0.10902260000000297,
          "durationTicks": 29,
          "midi": 59,
          "name": "B3",
          "ticks": 65190,
          "time": 245.075286,
          "velocity": 0.7874015748031497
        },
        {
          "duration": 0.10902260000000297,
          "durationTicks": 29,
          "midi": 64,
          "name": "E4",
          "ticks": 65220,
          "time": 245.188068,
          "velocity": 0.7874015748031497
        },
        {
          "duration": 0.10902260000000297,
          "durationTicks": 29,
          "midi": 59,
          "name": "B3",
          "ticks": 65250,
          "time": 245.30085,
          "velocity": 0.7874015748031497
        },
        {
          "duration": 0.10902260000000297,
          "durationTicks": 29,
          "midi": 66,
          "name": "F#4",
          "ticks": 65280,
          "time": 245.413632,
          "velocity": 0.7874015748031497
        },
        {
          "duration": 0.10902260000000297,
          "durationTicks": 29,
          "midi": 59,
          "name": "B3",
          "ticks": 65310,
          "time": 245.526414,
          "velocity": 0.7874015748031497
        },
        {
          "duration": 0.10902260000000297,
          "durationTicks": 29,
          "midi": 63,
          "name": "D#4",
          "ticks": 65340,
          "time": 245.639196,
          "velocity": 0.7874015748031497
        },
        {
          "duration": 0.10902260000000297,
          "durationTicks": 29,
          "midi": 59,
          "name": "B3",
          "ticks": 65370,
          "time": 245.751978,
          "velocity": 0.7874015748031497
        },
        {
          "duration": 0.10902260000000297,
          "durationTicks": 29,
          "midi": 64,
          "name": "E4",
          "ticks": 65400,
          "time": 245.86476,
          "velocity": 0.7874015748031497
        },
        {
          "duration": 0.10902260000000297,
          "durationTicks": 29,
          "midi": 59,
          "name": "B3",
          "ticks": 65430,
          "time": 245.977542,
          "velocity": 0.7874015748031497
        },
        {
          "duration": 0.10902260000000297,
          "durationTicks": 29,
          "midi": 63,
          "name": "D#4",
          "ticks": 65460,
          "time": 246.090324,
          "velocity": 0.7874015748031497
        },
        {
          "duration": 0.10902260000000297,
          "durationTicks": 29,
          "midi": 59,
          "name": "B3",
          "ticks": 65490,
          "time": 246.203106,
          "velocity": 0.7874015748031497
        },
        {
          "duration": 0.10902260000000297,
          "durationTicks": 29,
          "midi": 64,
          "name": "E4",
          "ticks": 65520,
          "time": 246.315888,
          "velocity": 0.7874015748031497
        },
        {
          "duration": 0.10902260000000297,
          "durationTicks": 29,
          "midi": 59,
          "name": "B3",
          "ticks": 65550,
          "time": 246.42867,
          "velocity": 0.7874015748031497
        },
        {
          "duration": 0.10902260000000297,
          "durationTicks": 29,
          "midi": 63,
          "name": "D#4",
          "ticks": 65580,
          "time": 246.541452,
          "velocity": 0.7874015748031497
        },
        {
          "duration": 0.10902260000000297,
          "durationTicks": 29,
          "midi": 59,
          "name": "B3",
          "ticks": 65610,
          "time": 246.654234,
          "velocity": 0.7874015748031497
        },
        {
          "duration": 0.10902259999997455,
          "durationTicks": 29,
          "midi": 64,
          "name": "E4",
          "ticks": 65640,
          "time": 246.767016,
          "velocity": 0.7874015748031497
        },
        {
          "duration": 0.10902260000000297,
          "durationTicks": 29,
          "midi": 59,
          "name": "B3",
          "ticks": 65670,
          "time": 246.879798,
          "velocity": 0.7874015748031497
        },
        {
          "duration": 0.10902260000000297,
          "durationTicks": 29,
          "midi": 63,
          "name": "D#4",
          "ticks": 65700,
          "time": 246.99258,
          "velocity": 0.7874015748031497
        },
        {
          "duration": 0.10902259999997455,
          "durationTicks": 29,
          "midi": 59,
          "name": "B3",
          "ticks": 65730,
          "time": 247.105362,
          "velocity": 0.7874015748031497
        },
        {
          "duration": 0.10902260000000297,
          "durationTicks": 29,
          "midi": 71,
          "name": "B4",
          "ticks": 65760,
          "time": 247.218144,
          "velocity": 0.7874015748031497
        },
        {
          "duration": 0.10902260000000297,
          "durationTicks": 29,
          "midi": 59,
          "name": "B3",
          "ticks": 65790,
          "time": 247.330926,
          "velocity": 0.7874015748031497
        },
        {
          "duration": 0.10902260000000297,
          "durationTicks": 29,
          "midi": 69,
          "name": "A4",
          "ticks": 65820,
          "time": 247.443708,
          "velocity": 0.7874015748031497
        },
        {
          "duration": 0.10902260000000297,
          "durationTicks": 29,
          "midi": 59,
          "name": "B3",
          "ticks": 65850,
          "time": 247.55649,
          "velocity": 0.7874015748031497
        },
        {
          "duration": 0.10902260000000297,
          "durationTicks": 29,
          "midi": 68,
          "name": "G#4",
          "ticks": 65880,
          "time": 247.669272,
          "velocity": 0.7874015748031497
        },
        {
          "duration": 0.10902260000000297,
          "durationTicks": 29,
          "midi": 59,
          "name": "B3",
          "ticks": 65910,
          "time": 247.782054,
          "velocity": 0.7874015748031497
        },
        {
          "duration": 0.10902260000000297,
          "durationTicks": 29,
          "midi": 69,
          "name": "A4",
          "ticks": 65940,
          "time": 247.894836,
          "velocity": 0.7874015748031497
        },
        {
          "duration": 0.10902259999997455,
          "durationTicks": 29,
          "midi": 59,
          "name": "B3",
          "ticks": 65970,
          "time": 248.007618,
          "velocity": 0.7874015748031497
        },
        {
          "duration": 0.10902260000000297,
          "durationTicks": 29,
          "midi": 68,
          "name": "G#4",
          "ticks": 66000,
          "time": 248.1204,
          "velocity": 0.7874015748031497
        },
        {
          "duration": 0.10902260000000297,
          "durationTicks": 29,
          "midi": 59,
          "name": "B3",
          "ticks": 66030,
          "time": 248.233182,
          "velocity": 0.7874015748031497
        },
        {
          "duration": 0.10902259999997455,
          "durationTicks": 29,
          "midi": 66,
          "name": "F#4",
          "ticks": 66060,
          "time": 248.345964,
          "velocity": 0.7874015748031497
        },
        {
          "duration": 0.10902260000000297,
          "durationTicks": 29,
          "midi": 59,
          "name": "B3",
          "ticks": 66090,
          "time": 248.458746,
          "velocity": 0.7874015748031497
        },
        {
          "duration": 0.10902260000000297,
          "durationTicks": 29,
          "midi": 68,
          "name": "G#4",
          "ticks": 66120,
          "time": 248.571528,
          "velocity": 0.7874015748031497
        },
        {
          "duration": 0.10902260000000297,
          "durationTicks": 29,
          "midi": 59,
          "name": "B3",
          "ticks": 66150,
          "time": 248.68430999999998,
          "velocity": 0.7874015748031497
        },
        {
          "duration": 0.10902260000000297,
          "durationTicks": 29,
          "midi": 64,
          "name": "E4",
          "ticks": 66180,
          "time": 248.797092,
          "velocity": 0.7874015748031497
        },
        {
          "duration": 0.10902260000000297,
          "durationTicks": 29,
          "midi": 59,
          "name": "B3",
          "ticks": 66210,
          "time": 248.909874,
          "velocity": 0.7874015748031497
        },
        {
          "duration": 0.10902260000000297,
          "durationTicks": 29,
          "midi": 66,
          "name": "F#4",
          "ticks": 66240,
          "time": 249.02265599999998,
          "velocity": 0.7874015748031497
        },
        {
          "duration": 0.10902260000000297,
          "durationTicks": 29,
          "midi": 59,
          "name": "B3",
          "ticks": 66270,
          "time": 249.135438,
          "velocity": 0.7874015748031497
        },
        {
          "duration": 0.10902260000000297,
          "durationTicks": 29,
          "midi": 63,
          "name": "D#4",
          "ticks": 66300,
          "time": 249.24822,
          "velocity": 0.7874015748031497
        },
        {
          "duration": 0.10902260000000297,
          "durationTicks": 29,
          "midi": 59,
          "name": "B3",
          "ticks": 66330,
          "time": 249.36100199999998,
          "velocity": 0.7874015748031497
        },
        {
          "duration": 0.10902260000000297,
          "durationTicks": 29,
          "midi": 64,
          "name": "E4",
          "ticks": 66360,
          "time": 249.473784,
          "velocity": 0.7874015748031497
        },
        {
          "duration": 0.10902260000000297,
          "durationTicks": 29,
          "midi": 59,
          "name": "B3",
          "ticks": 66390,
          "time": 249.586566,
          "velocity": 0.7874015748031497
        },
        {
          "duration": 0.10902260000000297,
          "durationTicks": 29,
          "midi": 63,
          "name": "D#4",
          "ticks": 66420,
          "time": 249.699348,
          "velocity": 0.7874015748031497
        },
        {
          "duration": 0.10902260000000297,
          "durationTicks": 29,
          "midi": 59,
          "name": "B3",
          "ticks": 66450,
          "time": 249.81213,
          "velocity": 0.7874015748031497
        },
        {
          "duration": 0.10902260000000297,
          "durationTicks": 29,
          "midi": 64,
          "name": "E4",
          "ticks": 66480,
          "time": 249.924912,
          "velocity": 0.7874015748031497
        },
        {
          "duration": 0.10902260000000297,
          "durationTicks": 29,
          "midi": 59,
          "name": "B3",
          "ticks": 66510,
          "time": 250.037694,
          "velocity": 0.7874015748031497
        },
        {
          "duration": 0.10902260000000297,
          "durationTicks": 29,
          "midi": 63,
          "name": "D#4",
          "ticks": 66540,
          "time": 250.150476,
          "velocity": 0.7874015748031497
        },
        {
          "duration": 0.10902260000000297,
          "durationTicks": 29,
          "midi": 59,
          "name": "B3",
          "ticks": 66570,
          "time": 250.263258,
          "velocity": 0.7874015748031497
        },
        {
          "duration": 0.10902260000000297,
          "durationTicks": 29,
          "midi": 64,
          "name": "E4",
          "ticks": 66600,
          "time": 250.37604,
          "velocity": 0.7874015748031497
        },
        {
          "duration": 0.10902260000000297,
          "durationTicks": 29,
          "midi": 59,
          "name": "B3",
          "ticks": 66630,
          "time": 250.488822,
          "velocity": 0.7874015748031497
        },
        {
          "duration": 0.10902259999997455,
          "durationTicks": 29,
          "midi": 63,
          "name": "D#4",
          "ticks": 66660,
          "time": 250.601604,
          "velocity": 0.7874015748031497
        },
        {
          "duration": 0.10902260000000297,
          "durationTicks": 29,
          "midi": 59,
          "name": "B3",
          "ticks": 66690,
          "time": 250.714386,
          "velocity": 0.7874015748031497
        },
        {
          "duration": 0.10902260000000297,
          "durationTicks": 29,
          "midi": 71,
          "name": "B4",
          "ticks": 66720,
          "time": 250.827168,
          "velocity": 0.7874015748031497
        },
        {
          "duration": 0.10902259999997455,
          "durationTicks": 29,
          "midi": 59,
          "name": "B3",
          "ticks": 66750,
          "time": 250.93995,
          "velocity": 0.7874015748031497
        },
        {
          "duration": 0.10902260000000297,
          "durationTicks": 29,
          "midi": 69,
          "name": "A4",
          "ticks": 66780,
          "time": 251.052732,
          "velocity": 0.7874015748031497
        },
        {
          "duration": 0.10902260000000297,
          "durationTicks": 29,
          "midi": 59,
          "name": "B3",
          "ticks": 66810,
          "time": 251.165514,
          "velocity": 0.7874015748031497
        },
        {
          "duration": 0.10902259999997455,
          "durationTicks": 29,
          "midi": 68,
          "name": "G#4",
          "ticks": 66840,
          "time": 251.278296,
          "velocity": 0.7874015748031497
        },
        {
          "duration": 0.10902260000000297,
          "durationTicks": 29,
          "midi": 59,
          "name": "B3",
          "ticks": 66870,
          "time": 251.391078,
          "velocity": 0.7874015748031497
        },
        {
          "duration": 0.10902260000000297,
          "durationTicks": 29,
          "midi": 69,
          "name": "A4",
          "ticks": 66900,
          "time": 251.50386,
          "velocity": 0.7874015748031497
        },
        {
          "duration": 0.10902259999997455,
          "durationTicks": 29,
          "midi": 59,
          "name": "B3",
          "ticks": 66930,
          "time": 251.616642,
          "velocity": 0.7874015748031497
        },
        {
          "duration": 0.10902260000000297,
          "durationTicks": 29,
          "midi": 68,
          "name": "G#4",
          "ticks": 66960,
          "time": 251.729424,
          "velocity": 0.7874015748031497
        },
        {
          "duration": 0.10902259999997455,
          "durationTicks": 29,
          "midi": 59,
          "name": "B3",
          "ticks": 66990,
          "time": 251.842206,
          "velocity": 0.7874015748031497
        },
        {
          "duration": 0.10902260000000297,
          "durationTicks": 29,
          "midi": 66,
          "name": "F#4",
          "ticks": 67020,
          "time": 251.954988,
          "velocity": 0.7874015748031497
        },
        {
          "duration": 0.10902260000000297,
          "durationTicks": 29,
          "midi": 59,
          "name": "B3",
          "ticks": 67050,
          "time": 252.06777,
          "velocity": 0.7874015748031497
        },
        {
          "duration": 0.10902259999997455,
          "durationTicks": 29,
          "midi": 68,
          "name": "G#4",
          "ticks": 67080,
          "time": 252.180552,
          "velocity": 0.7874015748031497
        },
        {
          "duration": 0.10902260000000297,
          "durationTicks": 29,
          "midi": 59,
          "name": "B3",
          "ticks": 67110,
          "time": 252.293334,
          "velocity": 0.7874015748031497
        },
        {
          "duration": 0.10902260000000297,
          "durationTicks": 29,
          "midi": 64,
          "name": "E4",
          "ticks": 67140,
          "time": 252.406116,
          "velocity": 0.7874015748031497
        },
        {
          "duration": 0.10902259999997455,
          "durationTicks": 29,
          "midi": 59,
          "name": "B3",
          "ticks": 67170,
          "time": 252.518898,
          "velocity": 0.7874015748031497
        },
        {
          "duration": 0.10902260000000297,
          "durationTicks": 29,
          "midi": 66,
          "name": "F#4",
          "ticks": 67200,
          "time": 252.63168,
          "velocity": 0.7874015748031497
        },
        {
          "duration": 0.10902260000000297,
          "durationTicks": 29,
          "midi": 59,
          "name": "B3",
          "ticks": 67230,
          "time": 252.744462,
          "velocity": 0.7874015748031497
        },
        {
          "duration": 0.10902260000000297,
          "durationTicks": 29,
          "midi": 63,
          "name": "D#4",
          "ticks": 67260,
          "time": 252.85724399999998,
          "velocity": 0.7874015748031497
        },
        {
          "duration": 0.10902260000000297,
          "durationTicks": 29,
          "midi": 59,
          "name": "B3",
          "ticks": 67290,
          "time": 252.970026,
          "velocity": 0.7874015748031497
        },
        {
          "duration": 0.10902260000000297,
          "durationTicks": 29,
          "midi": 64,
          "name": "E4",
          "ticks": 67320,
          "time": 253.082808,
          "velocity": 0.7874015748031497
        },
        {
          "duration": 0.10902260000000297,
          "durationTicks": 29,
          "midi": 59,
          "name": "B3",
          "ticks": 67350,
          "time": 253.19558999999998,
          "velocity": 0.7874015748031497
        },
        {
          "duration": 0.10902260000000297,
          "durationTicks": 29,
          "midi": 63,
          "name": "D#4",
          "ticks": 67380,
          "time": 253.308372,
          "velocity": 0.7874015748031497
        },
        {
          "duration": 0.10902260000000297,
          "durationTicks": 29,
          "midi": 59,
          "name": "B3",
          "ticks": 67410,
          "time": 253.421154,
          "velocity": 0.7874015748031497
        },
        {
          "duration": 0.10902260000000297,
          "durationTicks": 29,
          "midi": 64,
          "name": "E4",
          "ticks": 67440,
          "time": 253.53393599999998,
          "velocity": 0.7874015748031497
        },
        {
          "duration": 0.10902260000000297,
          "durationTicks": 29,
          "midi": 59,
          "name": "B3",
          "ticks": 67470,
          "time": 253.646718,
          "velocity": 0.7874015748031497
        },
        {
          "duration": 0.10902260000000297,
          "durationTicks": 29,
          "midi": 63,
          "name": "D#4",
          "ticks": 67500,
          "time": 253.7595,
          "velocity": 0.7874015748031497
        },
        {
          "duration": 0.10902260000000297,
          "durationTicks": 29,
          "midi": 59,
          "name": "B3",
          "ticks": 67530,
          "time": 253.87228199999998,
          "velocity": 0.7874015748031497
        },
        {
          "duration": 0.10902260000000297,
          "durationTicks": 29,
          "midi": 64,
          "name": "E4",
          "ticks": 67560,
          "time": 253.985064,
          "velocity": 0.7874015748031497
        },
        {
          "duration": 0.10902260000000297,
          "durationTicks": 29,
          "midi": 59,
          "name": "B3",
          "ticks": 67590,
          "time": 254.097846,
          "velocity": 0.7874015748031497
        },
        {
          "duration": 0.10902260000000297,
          "durationTicks": 29,
          "midi": 63,
          "name": "D#4",
          "ticks": 67620,
          "time": 254.21062799999999,
          "velocity": 0.7874015748031497
        },
        {
          "duration": 0.10902260000000297,
          "durationTicks": 29,
          "midi": 59,
          "name": "B3",
          "ticks": 67650,
          "time": 254.32341,
          "velocity": 0.7874015748031497
        },
        {
          "duration": 0.10902260000000297,
          "durationTicks": 29,
          "midi": 71,
          "name": "B4",
          "ticks": 67680,
          "time": 254.436192,
          "velocity": 0.7874015748031497
        },
        {
          "duration": 0.10902260000000297,
          "durationTicks": 29,
          "midi": 59,
          "name": "B3",
          "ticks": 67710,
          "time": 254.548974,
          "velocity": 0.7874015748031497
        },
        {
          "duration": 0.10902260000000297,
          "durationTicks": 29,
          "midi": 69,
          "name": "A4",
          "ticks": 67740,
          "time": 254.661756,
          "velocity": 0.7874015748031497
        },
        {
          "duration": 0.10902260000000297,
          "durationTicks": 29,
          "midi": 59,
          "name": "B3",
          "ticks": 67770,
          "time": 254.774538,
          "velocity": 0.7874015748031497
        },
        {
          "duration": 0.10902260000000297,
          "durationTicks": 29,
          "midi": 68,
          "name": "G#4",
          "ticks": 67800,
          "time": 254.88732,
          "velocity": 0.7874015748031497
        },
        {
          "duration": 0.10902260000000297,
          "durationTicks": 29,
          "midi": 59,
          "name": "B3",
          "ticks": 67830,
          "time": 255.000102,
          "velocity": 0.7874015748031497
        },
        {
          "duration": 0.10902260000000297,
          "durationTicks": 29,
          "midi": 69,
          "name": "A4",
          "ticks": 67860,
          "time": 255.112884,
          "velocity": 0.7874015748031497
        },
        {
          "duration": 0.10902260000000297,
          "durationTicks": 29,
          "midi": 59,
          "name": "B3",
          "ticks": 67890,
          "time": 255.225666,
          "velocity": 0.7874015748031497
        },
        {
          "duration": 0.10902260000000297,
          "durationTicks": 29,
          "midi": 68,
          "name": "G#4",
          "ticks": 67920,
          "time": 255.338448,
          "velocity": 0.7874015748031497
        },
        {
          "duration": 0.10902259999997455,
          "durationTicks": 29,
          "midi": 59,
          "name": "B3",
          "ticks": 67950,
          "time": 255.45123,
          "velocity": 0.7874015748031497
        },
        {
          "duration": 0.10902260000000297,
          "durationTicks": 29,
          "midi": 66,
          "name": "F#4",
          "ticks": 67980,
          "time": 255.564012,
          "velocity": 0.7874015748031497
        },
        {
          "duration": 0.10902260000000297,
          "durationTicks": 29,
          "midi": 59,
          "name": "B3",
          "ticks": 68010,
          "time": 255.676794,
          "velocity": 0.7874015748031497
        },
        {
          "duration": 0.10902259999997455,
          "durationTicks": 29,
          "midi": 68,
          "name": "G#4",
          "ticks": 68040,
          "time": 255.789576,
          "velocity": 0.7874015748031497
        },
        {
          "duration": 0.10902260000000297,
          "durationTicks": 29,
          "midi": 59,
          "name": "B3",
          "ticks": 68070,
          "time": 255.902358,
          "velocity": 0.7874015748031497
        },
        {
          "duration": 0.10902260000000297,
          "durationTicks": 29,
          "midi": 64,
          "name": "E4",
          "ticks": 68100,
          "time": 256.01514,
          "velocity": 0.7874015748031497
        },
        {
          "duration": 0.10902260000000297,
          "durationTicks": 29,
          "midi": 59,
          "name": "B3",
          "ticks": 68130,
          "time": 256.127922,
          "velocity": 0.7874015748031497
        },
        {
          "duration": 0.10902260000000297,
          "durationTicks": 29,
          "midi": 66,
          "name": "F#4",
          "ticks": 68160,
          "time": 256.240704,
          "velocity": 0.7874015748031497
        },
        {
          "duration": 0.10902260000000297,
          "durationTicks": 29,
          "midi": 59,
          "name": "B3",
          "ticks": 68190,
          "time": 256.353486,
          "velocity": 0.7874015748031497
        },
        {
          "duration": 0.10902260000000297,
          "durationTicks": 29,
          "midi": 63,
          "name": "D#4",
          "ticks": 68220,
          "time": 256.466268,
          "velocity": 0.7874015748031497
        },
        {
          "duration": 0.10902260000000297,
          "durationTicks": 29,
          "midi": 59,
          "name": "B3",
          "ticks": 68250,
          "time": 256.57905,
          "velocity": 0.7874015748031497
        },
        {
          "duration": 0.10902260000000297,
          "durationTicks": 29,
          "midi": 64,
          "name": "E4",
          "ticks": 68280,
          "time": 256.691832,
          "velocity": 0.7874015748031497
        },
        {
          "duration": 0.10902260000000297,
          "durationTicks": 29,
          "midi": 59,
          "name": "B3",
          "ticks": 68310,
          "time": 256.804614,
          "velocity": 0.7874015748031497
        },
        {
          "duration": 0.10902260000000297,
          "durationTicks": 29,
          "midi": 63,
          "name": "D#4",
          "ticks": 68340,
          "time": 256.917396,
          "velocity": 0.7874015748031497
        },
        {
          "duration": 0.10902260000000297,
          "durationTicks": 29,
          "midi": 59,
          "name": "B3",
          "ticks": 68370,
          "time": 257.030178,
          "velocity": 0.7874015748031497
        },
        {
          "duration": 0.10902260000000297,
          "durationTicks": 29,
          "midi": 64,
          "name": "E4",
          "ticks": 68400,
          "time": 257.14296,
          "velocity": 0.7874015748031497
        },
        {
          "duration": 0.10902260000000297,
          "durationTicks": 29,
          "midi": 59,
          "name": "B3",
          "ticks": 68430,
          "time": 257.255742,
          "velocity": 0.7874015748031497
        },
        {
          "duration": 0.10902260000000297,
          "durationTicks": 29,
          "midi": 63,
          "name": "D#4",
          "ticks": 68460,
          "time": 257.368524,
          "velocity": 0.7874015748031497
        },
        {
          "duration": 0.10902260000000297,
          "durationTicks": 29,
          "midi": 59,
          "name": "B3",
          "ticks": 68490,
          "time": 257.481306,
          "velocity": 0.7874015748031497
        },
        {
          "duration": 0.10902260000000297,
          "durationTicks": 29,
          "midi": 64,
          "name": "E4",
          "ticks": 68520,
          "time": 257.594088,
          "velocity": 0.7874015748031497
        },
        {
          "duration": 0.10902260000000297,
          "durationTicks": 29,
          "midi": 59,
          "name": "B3",
          "ticks": 68550,
          "time": 257.70687,
          "velocity": 0.7874015748031497
        },
        {
          "duration": 0.10902260000000297,
          "durationTicks": 29,
          "midi": 63,
          "name": "D#4",
          "ticks": 68580,
          "time": 257.819652,
          "velocity": 0.7874015748031497
        },
        {
          "duration": 0.10902260000000297,
          "durationTicks": 29,
          "midi": 59,
          "name": "B3",
          "ticks": 68610,
          "time": 257.932434,
          "velocity": 0.7874015748031497
        },
        {
          "duration": 0.10902260000000297,
          "durationTicks": 29,
          "midi": 71,
          "name": "B4",
          "ticks": 68640,
          "time": 258.045216,
          "velocity": 0.7874015748031497
        },
        {
          "duration": 0.10902260000000297,
          "durationTicks": 29,
          "midi": 59,
          "name": "B3",
          "ticks": 68670,
          "time": 258.157998,
          "velocity": 0.7874015748031497
        },
        {
          "duration": 0.10902260000000297,
          "durationTicks": 29,
          "midi": 69,
          "name": "A4",
          "ticks": 68700,
          "time": 258.27078,
          "velocity": 0.7874015748031497
        },
        {
          "duration": 0.10902260000000297,
          "durationTicks": 29,
          "midi": 59,
          "name": "B3",
          "ticks": 68730,
          "time": 258.383562,
          "velocity": 0.7874015748031497
        },
        {
          "duration": 0.10902260000000297,
          "durationTicks": 29,
          "midi": 68,
          "name": "G#4",
          "ticks": 68760,
          "time": 258.496344,
          "velocity": 0.7874015748031497
        },
        {
          "duration": 0.10902260000000297,
          "durationTicks": 29,
          "midi": 59,
          "name": "B3",
          "ticks": 68790,
          "time": 258.609126,
          "velocity": 0.7874015748031497
        },
        {
          "duration": 0.10902260000000297,
          "durationTicks": 29,
          "midi": 69,
          "name": "A4",
          "ticks": 68820,
          "time": 258.721908,
          "velocity": 0.7874015748031497
        },
        {
          "duration": 0.10902259999994612,
          "durationTicks": 29,
          "midi": 59,
          "name": "B3",
          "ticks": 68850,
          "time": 258.83469,
          "velocity": 0.7874015748031497
        },
        {
          "duration": 0.10902260000000297,
          "durationTicks": 29,
          "midi": 68,
          "name": "G#4",
          "ticks": 68880,
          "time": 258.947472,
          "velocity": 0.7874015748031497
        },
        {
          "duration": 0.10902260000000297,
          "durationTicks": 29,
          "midi": 59,
          "name": "B3",
          "ticks": 68910,
          "time": 259.060254,
          "velocity": 0.7874015748031497
        },
        {
          "duration": 0.10902259999994612,
          "durationTicks": 29,
          "midi": 66,
          "name": "F#4",
          "ticks": 68940,
          "time": 259.173036,
          "velocity": 0.7874015748031497
        },
        {
          "duration": 0.10902260000000297,
          "durationTicks": 29,
          "midi": 59,
          "name": "B3",
          "ticks": 68970,
          "time": 259.285818,
          "velocity": 0.7874015748031497
        },
        {
          "duration": 0.10902260000000297,
          "durationTicks": 29,
          "midi": 68,
          "name": "G#4",
          "ticks": 69000,
          "time": 259.3986,
          "velocity": 0.7874015748031497
        },
        {
          "duration": 0.10902259999994612,
          "durationTicks": 29,
          "midi": 59,
          "name": "B3",
          "ticks": 69030,
          "time": 259.511382,
          "velocity": 0.7874015748031497
        },
        {
          "duration": 0.10902260000000297,
          "durationTicks": 29,
          "midi": 64,
          "name": "E4",
          "ticks": 69060,
          "time": 259.624164,
          "velocity": 0.7874015748031497
        },
        {
          "duration": 0.10902260000000297,
          "durationTicks": 29,
          "midi": 59,
          "name": "B3",
          "ticks": 69090,
          "time": 259.736946,
          "velocity": 0.7874015748031497
        },
        {
          "duration": 0.10902259999994612,
          "durationTicks": 29,
          "midi": 66,
          "name": "F#4",
          "ticks": 69120,
          "time": 259.849728,
          "velocity": 0.7874015748031497
        },
        {
          "duration": 0.10902260000000297,
          "durationTicks": 29,
          "midi": 59,
          "name": "B3",
          "ticks": 69150,
          "time": 259.96251,
          "velocity": 0.7874015748031497
        },
        {
          "duration": 0.10902260000000297,
          "durationTicks": 29,
          "midi": 63,
          "name": "D#4",
          "ticks": 69180,
          "time": 260.075292,
          "velocity": 0.7874015748031497
        },
        {
          "duration": 0.10902259999994612,
          "durationTicks": 29,
          "midi": 59,
          "name": "B3",
          "ticks": 69210,
          "time": 260.18807400000003,
          "velocity": 0.7874015748031497
        },
        {
          "duration": 0.10902260000000297,
          "durationTicks": 29,
          "midi": 64,
          "name": "E4",
          "ticks": 69240,
          "time": 260.300856,
          "velocity": 0.7874015748031497
        },
        {
          "duration": 0.10902260000000297,
          "durationTicks": 29,
          "midi": 59,
          "name": "B3",
          "ticks": 69270,
          "time": 260.413638,
          "velocity": 0.7874015748031497
        },
        {
          "duration": 0.10902260000000297,
          "durationTicks": 29,
          "midi": 63,
          "name": "D#4",
          "ticks": 69300,
          "time": 260.52642,
          "velocity": 0.7874015748031497
        },
        {
          "duration": 0.10902260000000297,
          "durationTicks": 29,
          "midi": 59,
          "name": "B3",
          "ticks": 69330,
          "time": 260.639202,
          "velocity": 0.7874015748031497
        },
        {
          "duration": 0.10902260000000297,
          "durationTicks": 29,
          "midi": 64,
          "name": "E4",
          "ticks": 69360,
          "time": 260.751984,
          "velocity": 0.7874015748031497
        },
        {
          "duration": 0.10902260000000297,
          "durationTicks": 29,
          "midi": 59,
          "name": "B3",
          "ticks": 69390,
          "time": 260.864766,
          "velocity": 0.7874015748031497
        },
        {
          "duration": 0.10902260000000297,
          "durationTicks": 29,
          "midi": 63,
          "name": "D#4",
          "ticks": 69420,
          "time": 260.977548,
          "velocity": 0.7874015748031497
        },
        {
          "duration": 0.10902260000000297,
          "durationTicks": 29,
          "midi": 59,
          "name": "B3",
          "ticks": 69450,
          "time": 261.09033,
          "velocity": 0.7874015748031497
        },
        {
          "duration": 0.10902260000000297,
          "durationTicks": 29,
          "midi": 64,
          "name": "E4",
          "ticks": 69480,
          "time": 261.203112,
          "velocity": 0.7874015748031497
        },
        {
          "duration": 0.10902260000000297,
          "durationTicks": 29,
          "midi": 59,
          "name": "B3",
          "ticks": 69510,
          "time": 261.315894,
          "velocity": 0.7874015748031497
        },
        {
          "duration": 0.10902260000000297,
          "durationTicks": 29,
          "midi": 63,
          "name": "D#4",
          "ticks": 69540,
          "time": 261.428676,
          "velocity": 0.7874015748031497
        },
        {
          "duration": 0.10902260000000297,
          "durationTicks": 29,
          "midi": 59,
          "name": "B3",
          "ticks": 69570,
          "time": 261.541458,
          "velocity": 0.7874015748031497
        },
        {
          "duration": 0.10902260000000297,
          "durationTicks": 29,
          "midi": 71,
          "name": "B4",
          "ticks": 69600,
          "time": 261.65424,
          "velocity": 0.7874015748031497
        },
        {
          "duration": 0.10902260000000297,
          "durationTicks": 29,
          "midi": 59,
          "name": "B3",
          "ticks": 69630,
          "time": 261.767022,
          "velocity": 0.7874015748031497
        },
        {
          "duration": 0.10902260000000297,
          "durationTicks": 29,
          "midi": 69,
          "name": "A4",
          "ticks": 69660,
          "time": 261.879804,
          "velocity": 0.7874015748031497
        },
        {
          "duration": 0.10902259999994612,
          "durationTicks": 29,
          "midi": 59,
          "name": "B3",
          "ticks": 69690,
          "time": 261.992586,
          "velocity": 0.7874015748031497
        },
        {
          "duration": 0.10902260000000297,
          "durationTicks": 29,
          "midi": 68,
          "name": "G#4",
          "ticks": 69720,
          "time": 262.105368,
          "velocity": 0.7874015748031497
        },
        {
          "duration": 0.10902260000000297,
          "durationTicks": 29,
          "midi": 59,
          "name": "B3",
          "ticks": 69750,
          "time": 262.21815,
          "velocity": 0.7874015748031497
        },
        {
          "duration": 0.10902259999994612,
          "durationTicks": 29,
          "midi": 69,
          "name": "A4",
          "ticks": 69780,
          "time": 262.330932,
          "velocity": 0.7874015748031497
        },
        {
          "duration": 0.10902260000000297,
          "durationTicks": 29,
          "midi": 59,
          "name": "B3",
          "ticks": 69810,
          "time": 262.443714,
          "velocity": 0.7874015748031497
        },
        {
          "duration": 0.10902260000000297,
          "durationTicks": 29,
          "midi": 68,
          "name": "G#4",
          "ticks": 69840,
          "time": 262.556496,
          "velocity": 0.7874015748031497
        },
        {
          "duration": 0.10902259999994612,
          "durationTicks": 29,
          "midi": 59,
          "name": "B3",
          "ticks": 69870,
          "time": 262.669278,
          "velocity": 0.7874015748031497
        },
        {
          "duration": 0.10902260000000297,
          "durationTicks": 29,
          "midi": 66,
          "name": "F#4",
          "ticks": 69900,
          "time": 262.78206,
          "velocity": 0.7874015748031497
        },
        {
          "duration": 0.10902260000000297,
          "durationTicks": 29,
          "midi": 59,
          "name": "B3",
          "ticks": 69930,
          "time": 262.894842,
          "velocity": 0.7874015748031497
        },
        {
          "duration": 0.10902259999994612,
          "durationTicks": 29,
          "midi": 68,
          "name": "G#4",
          "ticks": 69960,
          "time": 263.007624,
          "velocity": 0.7874015748031497
        },
        {
          "duration": 0.10902260000000297,
          "durationTicks": 29,
          "midi": 59,
          "name": "B3",
          "ticks": 69990,
          "time": 263.120406,
          "velocity": 0.7874015748031497
        },
        {
          "duration": 0.10902260000000297,
          "durationTicks": 29,
          "midi": 64,
          "name": "E4",
          "ticks": 70020,
          "time": 263.233188,
          "velocity": 0.7874015748031497
        },
        {
          "duration": 0.10902260000000297,
          "durationTicks": 29,
          "midi": 59,
          "name": "B3",
          "ticks": 70050,
          "time": 263.34596999999997,
          "velocity": 0.7874015748031497
        },
        {
          "duration": 0.10902260000000297,
          "durationTicks": 29,
          "midi": 66,
          "name": "F#4",
          "ticks": 70080,
          "time": 263.458752,
          "velocity": 0.7874015748031497
        },
        {
          "duration": 0.10902260000000297,
          "durationTicks": 29,
          "midi": 59,
          "name": "B3",
          "ticks": 70110,
          "time": 263.571534,
          "velocity": 0.7874015748031497
        },
        {
          "duration": 0.10902260000000297,
          "durationTicks": 29,
          "midi": 63,
          "name": "D#4",
          "ticks": 70140,
          "time": 263.68431599999997,
          "velocity": 0.7874015748031497
        },
        {
          "duration": 0.10902260000000297,
          "durationTicks": 29,
          "midi": 59,
          "name": "B3",
          "ticks": 70170,
          "time": 263.797098,
          "velocity": 0.7874015748031497
        },
        {
          "duration": 0.10902260000000297,
          "durationTicks": 29,
          "midi": 64,
          "name": "E4",
          "ticks": 70200,
          "time": 263.90988,
          "velocity": 0.7874015748031497
        },
        {
          "duration": 0.10902260000000297,
          "durationTicks": 29,
          "midi": 59,
          "name": "B3",
          "ticks": 70230,
          "time": 264.02266199999997,
          "velocity": 0.7874015748031497
        },
        {
          "duration": 0.10902260000000297,
          "durationTicks": 29,
          "midi": 63,
          "name": "D#4",
          "ticks": 70260,
          "time": 264.135444,
          "velocity": 0.7874015748031497
        },
        {
          "duration": 0.10902260000000297,
          "durationTicks": 29,
          "midi": 59,
          "name": "B3",
          "ticks": 70290,
          "time": 264.248226,
          "velocity": 0.7874015748031497
        },
        {
          "duration": 0.10902260000000297,
          "durationTicks": 29,
          "midi": 64,
          "name": "E4",
          "ticks": 70320,
          "time": 264.36100799999997,
          "velocity": 0.7874015748031497
        },
        {
          "duration": 0.10902260000000297,
          "durationTicks": 29,
          "midi": 59,
          "name": "B3",
          "ticks": 70350,
          "time": 264.47379,
          "velocity": 0.7874015748031497
        },
        {
          "duration": 0.10902260000000297,
          "durationTicks": 29,
          "midi": 63,
          "name": "D#4",
          "ticks": 70380,
          "time": 264.586572,
          "velocity": 0.7874015748031497
        },
        {
          "duration": 0.10902260000000297,
          "durationTicks": 29,
          "midi": 59,
          "name": "B3",
          "ticks": 70410,
          "time": 264.69935399999997,
          "velocity": 0.7874015748031497
        },
        {
          "duration": 0.10902260000000297,
          "durationTicks": 29,
          "midi": 64,
          "name": "E4",
          "ticks": 70440,
          "time": 264.812136,
          "velocity": 0.7874015748031497
        },
        {
          "duration": 0.10902260000000297,
          "durationTicks": 29,
          "midi": 59,
          "name": "B3",
          "ticks": 70470,
          "time": 264.924918,
          "velocity": 0.7874015748031497
        },
        {
          "duration": 0.10902260000000297,
          "durationTicks": 29,
          "midi": 63,
          "name": "D#4",
          "ticks": 70500,
          "time": 265.0377,
          "velocity": 0.7874015748031497
        },
        {
          "duration": 0.10902260000000297,
          "durationTicks": 29,
          "midi": 59,
          "name": "B3",
          "ticks": 70530,
          "time": 265.150482,
          "velocity": 0.7874015748031497
        },
        {
          "duration": 0.10902260000000297,
          "durationTicks": 29,
          "midi": 71,
          "name": "B4",
          "ticks": 70560,
          "time": 265.263264,
          "velocity": 0.7874015748031497
        },
        {
          "duration": 0.10902260000000297,
          "durationTicks": 29,
          "midi": 59,
          "name": "B3",
          "ticks": 70590,
          "time": 265.376046,
          "velocity": 0.7874015748031497
        },
        {
          "duration": 0.10902260000000297,
          "durationTicks": 29,
          "midi": 69,
          "name": "A4",
          "ticks": 70620,
          "time": 265.488828,
          "velocity": 0.7874015748031497
        },
        {
          "duration": 0.10902260000000297,
          "durationTicks": 29,
          "midi": 59,
          "name": "B3",
          "ticks": 70650,
          "time": 265.60161,
          "velocity": 0.7874015748031497
        },
        {
          "duration": 0.10902260000000297,
          "durationTicks": 29,
          "midi": 68,
          "name": "G#4",
          "ticks": 70680,
          "time": 265.714392,
          "velocity": 0.7874015748031497
        },
        {
          "duration": 0.10902260000000297,
          "durationTicks": 29,
          "midi": 59,
          "name": "B3",
          "ticks": 70710,
          "time": 265.827174,
          "velocity": 0.7874015748031497
        },
        {
          "duration": 0.10902260000000297,
          "durationTicks": 29,
          "midi": 69,
          "name": "A4",
          "ticks": 70740,
          "time": 265.939956,
          "velocity": 0.7874015748031497
        },
        {
          "duration": 0.10902260000000297,
          "durationTicks": 29,
          "midi": 59,
          "name": "B3",
          "ticks": 70770,
          "time": 266.052738,
          "velocity": 0.7874015748031497
        },
        {
          "duration": 0.10902260000000297,
          "durationTicks": 29,
          "midi": 68,
          "name": "G#4",
          "ticks": 70800,
          "time": 266.16552,
          "velocity": 0.7874015748031497
        },
        {
          "duration": 0.10902260000000297,
          "durationTicks": 29,
          "midi": 59,
          "name": "B3",
          "ticks": 70830,
          "time": 266.278302,
          "velocity": 0.7874015748031497
        },
        {
          "duration": 0.10902260000000297,
          "durationTicks": 29,
          "midi": 66,
          "name": "F#4",
          "ticks": 70860,
          "time": 266.391084,
          "velocity": 0.7874015748031497
        },
        {
          "duration": 0.10902260000000297,
          "durationTicks": 29,
          "midi": 59,
          "name": "B3",
          "ticks": 70890,
          "time": 266.503866,
          "velocity": 0.7874015748031497
        },
        {
          "duration": 0.10902260000000297,
          "durationTicks": 29,
          "midi": 68,
          "name": "G#4",
          "ticks": 70920,
          "time": 266.616648,
          "velocity": 0.7874015748031497
        },
        {
          "duration": 0.10902260000000297,
          "durationTicks": 29,
          "midi": 59,
          "name": "B3",
          "ticks": 70950,
          "time": 266.72943,
          "velocity": 0.7874015748031497
        },
        {
          "duration": 0.10902260000000297,
          "durationTicks": 29,
          "midi": 64,
          "name": "E4",
          "ticks": 70980,
          "time": 266.842212,
          "velocity": 0.7874015748031497
        },
        {
          "duration": 0.10902260000000297,
          "durationTicks": 29,
          "midi": 59,
          "name": "B3",
          "ticks": 71010,
          "time": 266.954994,
          "velocity": 0.7874015748031497
        },
        {
          "duration": 0.10902260000000297,
          "durationTicks": 29,
          "midi": 66,
          "name": "F#4",
          "ticks": 71040,
          "time": 267.067776,
          "velocity": 0.7874015748031497
        },
        {
          "duration": 0.10902260000000297,
          "durationTicks": 29,
          "midi": 59,
          "name": "B3",
          "ticks": 71070,
          "time": 267.180558,
          "velocity": 0.7874015748031497
        },
        {
          "duration": 0.10902260000000297,
          "durationTicks": 29,
          "midi": 63,
          "name": "D#4",
          "ticks": 71100,
          "time": 267.29334,
          "velocity": 0.7874015748031497
        },
        {
          "duration": 0.10902260000000297,
          "durationTicks": 29,
          "midi": 59,
          "name": "B3",
          "ticks": 71130,
          "time": 267.406122,
          "velocity": 0.7874015748031497
        },
        {
          "duration": 0.10902260000000297,
          "durationTicks": 29,
          "midi": 64,
          "name": "E4",
          "ticks": 71160,
          "time": 267.518904,
          "velocity": 0.7874015748031497
        },
        {
          "duration": 0.10902260000000297,
          "durationTicks": 29,
          "midi": 59,
          "name": "B3",
          "ticks": 71190,
          "time": 267.631686,
          "velocity": 0.7874015748031497
        },
        {
          "duration": 0.10902260000000297,
          "durationTicks": 29,
          "midi": 63,
          "name": "D#4",
          "ticks": 71220,
          "time": 267.744468,
          "velocity": 0.7874015748031497
        },
        {
          "duration": 0.10902260000000297,
          "durationTicks": 29,
          "midi": 59,
          "name": "B3",
          "ticks": 71250,
          "time": 267.85725,
          "velocity": 0.7874015748031497
        },
        {
          "duration": 0.10902260000000297,
          "durationTicks": 29,
          "midi": 64,
          "name": "E4",
          "ticks": 71280,
          "time": 267.970032,
          "velocity": 0.7874015748031497
        },
        {
          "duration": 0.10902260000000297,
          "durationTicks": 29,
          "midi": 59,
          "name": "B3",
          "ticks": 71310,
          "time": 268.082814,
          "velocity": 0.7874015748031497
        },
        {
          "duration": 0.10902259999994612,
          "durationTicks": 29,
          "midi": 63,
          "name": "D#4",
          "ticks": 71340,
          "time": 268.195596,
          "velocity": 0.7874015748031497
        },
        {
          "duration": 0.10902260000000297,
          "durationTicks": 29,
          "midi": 59,
          "name": "B3",
          "ticks": 71370,
          "time": 268.308378,
          "velocity": 0.7874015748031497
        },
        {
          "duration": 0.10902260000000297,
          "durationTicks": 29,
          "midi": 64,
          "name": "E4",
          "ticks": 71400,
          "time": 268.42116,
          "velocity": 0.7874015748031497
        },
        {
          "duration": 0.10902259999994612,
          "durationTicks": 29,
          "midi": 59,
          "name": "B3",
          "ticks": 71430,
          "time": 268.533942,
          "velocity": 0.7874015748031497
        },
        {
          "duration": 0.10902260000000297,
          "durationTicks": 29,
          "midi": 63,
          "name": "D#4",
          "ticks": 71460,
          "time": 268.646724,
          "velocity": 0.7874015748031497
        },
        {
          "duration": 0.10902260000000297,
          "durationTicks": 29,
          "midi": 59,
          "name": "B3",
          "ticks": 71490,
          "time": 268.759506,
          "velocity": 0.7874015748031497
        },
        {
          "duration": 0.10902259999994612,
          "durationTicks": 29,
          "midi": 71,
          "name": "B4",
          "ticks": 71520,
          "time": 268.872288,
          "velocity": 0.7874015748031497
        },
        {
          "duration": 0.10902260000000297,
          "durationTicks": 29,
          "midi": 59,
          "name": "B3",
          "ticks": 71550,
          "time": 268.98507,
          "velocity": 0.7874015748031497
        },
        {
          "duration": 0.10902260000000297,
          "durationTicks": 29,
          "midi": 69,
          "name": "A4",
          "ticks": 71580,
          "time": 269.097852,
          "velocity": 0.7874015748031497
        },
        {
          "duration": 0.10902259999994612,
          "durationTicks": 29,
          "midi": 59,
          "name": "B3",
          "ticks": 71610,
          "time": 269.210634,
          "velocity": 0.7874015748031497
        },
        {
          "duration": 0.10902260000000297,
          "durationTicks": 29,
          "midi": 68,
          "name": "G#4",
          "ticks": 71640,
          "time": 269.323416,
          "velocity": 0.7874015748031497
        },
        {
          "duration": 0.10902260000000297,
          "durationTicks": 29,
          "midi": 59,
          "name": "B3",
          "ticks": 71670,
          "time": 269.436198,
          "velocity": 0.7874015748031497
        },
        {
          "duration": 0.10902260000000297,
          "durationTicks": 29,
          "midi": 69,
          "name": "A4",
          "ticks": 71700,
          "time": 269.54898,
          "velocity": 0.7874015748031497
        },
        {
          "duration": 0.10902260000000297,
          "durationTicks": 29,
          "midi": 59,
          "name": "B3",
          "ticks": 71730,
          "time": 269.661762,
          "velocity": 0.7874015748031497
        },
        {
          "duration": 0.10902260000000297,
          "durationTicks": 29,
          "midi": 68,
          "name": "G#4",
          "ticks": 71760,
          "time": 269.774544,
          "velocity": 0.7874015748031497
        },
        {
          "duration": 0.10902260000000297,
          "durationTicks": 29,
          "midi": 59,
          "name": "B3",
          "ticks": 71790,
          "time": 269.887326,
          "velocity": 0.7874015748031497
        },
        {
          "duration": 0.10902260000000297,
          "durationTicks": 29,
          "midi": 66,
          "name": "F#4",
          "ticks": 71820,
          "time": 270.000108,
          "velocity": 0.7874015748031497
        },
        {
          "duration": 0.10902260000000297,
          "durationTicks": 29,
          "midi": 59,
          "name": "B3",
          "ticks": 71850,
          "time": 270.11289,
          "velocity": 0.7874015748031497
        },
        {
          "duration": 0.10902260000000297,
          "durationTicks": 29,
          "midi": 68,
          "name": "G#4",
          "ticks": 71880,
          "time": 270.225672,
          "velocity": 0.7874015748031497
        },
        {
          "duration": 0.10902260000000297,
          "durationTicks": 29,
          "midi": 59,
          "name": "B3",
          "ticks": 71910,
          "time": 270.338454,
          "velocity": 0.7874015748031497
        },
        {
          "duration": 0.10902260000000297,
          "durationTicks": 29,
          "midi": 64,
          "name": "E4",
          "ticks": 71940,
          "time": 270.451236,
          "velocity": 0.7874015748031497
        },
        {
          "duration": 0.10902260000000297,
          "durationTicks": 29,
          "midi": 59,
          "name": "B3",
          "ticks": 71970,
          "time": 270.564018,
          "velocity": 0.7874015748031497
        },
        {
          "duration": 0.10902260000000297,
          "durationTicks": 29,
          "midi": 66,
          "name": "F#4",
          "ticks": 72000,
          "time": 270.6768,
          "velocity": 0.7874015748031497
        },
        {
          "duration": 0.10902260000000297,
          "durationTicks": 29,
          "midi": 59,
          "name": "B3",
          "ticks": 72030,
          "time": 270.789582,
          "velocity": 0.7874015748031497
        },
        {
          "duration": 0.10902260000000297,
          "durationTicks": 29,
          "midi": 63,
          "name": "D#4",
          "ticks": 72060,
          "time": 270.902364,
          "velocity": 0.7874015748031497
        },
        {
          "duration": 0.10902259999994612,
          "durationTicks": 29,
          "midi": 59,
          "name": "B3",
          "ticks": 72090,
          "time": 271.015146,
          "velocity": 0.7874015748031497
        },
        {
          "duration": 0.10902260000000297,
          "durationTicks": 29,
          "midi": 64,
          "name": "E4",
          "ticks": 72120,
          "time": 271.127928,
          "velocity": 0.7874015748031497
        },
        {
          "duration": 0.10902260000000297,
          "durationTicks": 29,
          "midi": 59,
          "name": "B3",
          "ticks": 72150,
          "time": 271.24071,
          "velocity": 0.7874015748031497
        },
        {
          "duration": 0.10902259999994612,
          "durationTicks": 29,
          "midi": 63,
          "name": "D#4",
          "ticks": 72180,
          "time": 271.353492,
          "velocity": 0.7874015748031497
        },
        {
          "duration": 0.10902260000000297,
          "durationTicks": 29,
          "midi": 59,
          "name": "B3",
          "ticks": 72210,
          "time": 271.466274,
          "velocity": 0.7874015748031497
        },
        {
          "duration": 0.10902260000000297,
          "durationTicks": 29,
          "midi": 64,
          "name": "E4",
          "ticks": 72240,
          "time": 271.579056,
          "velocity": 0.7874015748031497
        },
        {
          "duration": 0.10902259999994612,
          "durationTicks": 29,
          "midi": 59,
          "name": "B3",
          "ticks": 72270,
          "time": 271.691838,
          "velocity": 0.7874015748031497
        },
        {
          "duration": 0.10902260000000297,
          "durationTicks": 29,
          "midi": 63,
          "name": "D#4",
          "ticks": 72300,
          "time": 271.80462,
          "velocity": 0.7874015748031497
        },
        {
          "duration": 0.10902260000000297,
          "durationTicks": 29,
          "midi": 59,
          "name": "B3",
          "ticks": 72330,
          "time": 271.917402,
          "velocity": 0.7874015748031497
        },
        {
          "duration": 0.10902259999994612,
          "durationTicks": 29,
          "midi": 64,
          "name": "E4",
          "ticks": 72360,
          "time": 272.030184,
          "velocity": 0.7874015748031497
        },
        {
          "duration": 0.10902260000000297,
          "durationTicks": 29,
          "midi": 59,
          "name": "B3",
          "ticks": 72390,
          "time": 272.142966,
          "velocity": 0.7874015748031497
        },
        {
          "duration": 0.10902260000000297,
          "durationTicks": 29,
          "midi": 63,
          "name": "D#4",
          "ticks": 72420,
          "time": 272.255748,
          "velocity": 0.7874015748031497
        },
        {
          "duration": 0.10902259999994612,
          "durationTicks": 29,
          "midi": 59,
          "name": "B3",
          "ticks": 72450,
          "time": 272.36853,
          "velocity": 0.7874015748031497
        },
        {
          "duration": 0.10902260000000297,
          "durationTicks": 29,
          "midi": 71,
          "name": "B4",
          "ticks": 72480,
          "time": 272.481312,
          "velocity": 0.7874015748031497
        },
        {
          "duration": 0.10902260000000297,
          "durationTicks": 29,
          "midi": 59,
          "name": "B3",
          "ticks": 72510,
          "time": 272.594094,
          "velocity": 0.7874015748031497
        },
        {
          "duration": 0.10902260000000297,
          "durationTicks": 29,
          "midi": 69,
          "name": "A4",
          "ticks": 72540,
          "time": 272.70687599999997,
          "velocity": 0.7874015748031497
        },
        {
          "duration": 0.10902260000000297,
          "durationTicks": 29,
          "midi": 59,
          "name": "B3",
          "ticks": 72570,
          "time": 272.819658,
          "velocity": 0.7874015748031497
        },
        {
          "duration": 0.10902260000000297,
          "durationTicks": 29,
          "midi": 68,
          "name": "G#4",
          "ticks": 72600,
          "time": 272.93244,
          "velocity": 0.7874015748031497
        },
        {
          "duration": 0.10902260000000297,
          "durationTicks": 29,
          "midi": 59,
          "name": "B3",
          "ticks": 72630,
          "time": 273.04522199999997,
          "velocity": 0.7874015748031497
        },
        {
          "duration": 0.10902260000000297,
          "durationTicks": 29,
          "midi": 69,
          "name": "A4",
          "ticks": 72660,
          "time": 273.158004,
          "velocity": 0.7874015748031497
        },
        {
          "duration": 0.10902260000000297,
          "durationTicks": 29,
          "midi": 59,
          "name": "B3",
          "ticks": 72690,
          "time": 273.270786,
          "velocity": 0.7874015748031497
        },
        {
          "duration": 0.10902260000000297,
          "durationTicks": 29,
          "midi": 68,
          "name": "G#4",
          "ticks": 72720,
          "time": 273.38356799999997,
          "velocity": 0.7874015748031497
        },
        {
          "duration": 0.10902260000000297,
          "durationTicks": 29,
          "midi": 59,
          "name": "B3",
          "ticks": 72750,
          "time": 273.49635,
          "velocity": 0.7874015748031497
        },
        {
          "duration": 0.10902260000000297,
          "durationTicks": 29,
          "midi": 66,
          "name": "F#4",
          "ticks": 72780,
          "time": 273.609132,
          "velocity": 0.7874015748031497
        },
        {
          "duration": 0.10902260000000297,
          "durationTicks": 29,
          "midi": 59,
          "name": "B3",
          "ticks": 72810,
          "time": 273.72191399999997,
          "velocity": 0.7874015748031497
        },
        {
          "duration": 0.10902260000000297,
          "durationTicks": 29,
          "midi": 68,
          "name": "G#4",
          "ticks": 72840,
          "time": 273.834696,
          "velocity": 0.7874015748031497
        },
        {
          "duration": 0.10902260000000297,
          "durationTicks": 29,
          "midi": 59,
          "name": "B3",
          "ticks": 72870,
          "time": 273.947478,
          "velocity": 0.7874015748031497
        },
        {
          "duration": 0.10902260000000297,
          "durationTicks": 29,
          "midi": 64,
          "name": "E4",
          "ticks": 72900,
          "time": 274.06025999999997,
          "velocity": 0.7874015748031497
        },
        {
          "duration": 0.10902260000000297,
          "durationTicks": 29,
          "midi": 59,
          "name": "B3",
          "ticks": 72930,
          "time": 274.173042,
          "velocity": 0.7874015748031497
        },
        {
          "duration": 0.10902260000000297,
          "durationTicks": 29,
          "midi": 66,
          "name": "F#4",
          "ticks": 72960,
          "time": 274.285824,
          "velocity": 0.7874015748031497
        },
        {
          "duration": 0.10902260000000297,
          "durationTicks": 29,
          "midi": 59,
          "name": "B3",
          "ticks": 72990,
          "time": 274.398606,
          "velocity": 0.7874015748031497
        },
        {
          "duration": 0.10902260000000297,
          "durationTicks": 29,
          "midi": 63,
          "name": "D#4",
          "ticks": 73020,
          "time": 274.511388,
          "velocity": 0.7874015748031497
        },
        {
          "duration": 0.10902260000000297,
          "durationTicks": 29,
          "midi": 59,
          "name": "B3",
          "ticks": 73050,
          "time": 274.62417,
          "velocity": 0.7874015748031497
        },
        {
          "duration": 0.10902260000000297,
          "durationTicks": 29,
          "midi": 64,
          "name": "E4",
          "ticks": 73080,
          "time": 274.736952,
          "velocity": 0.7874015748031497
        },
        {
          "duration": 0.10902260000000297,
          "durationTicks": 29,
          "midi": 59,
          "name": "B3",
          "ticks": 73110,
          "time": 274.849734,
          "velocity": 0.7874015748031497
        },
        {
          "duration": 0.10902260000000297,
          "durationTicks": 29,
          "midi": 63,
          "name": "D#4",
          "ticks": 73140,
          "time": 274.962516,
          "velocity": 0.7874015748031497
        },
        {
          "duration": 0.10902260000000297,
          "durationTicks": 29,
          "midi": 59,
          "name": "B3",
          "ticks": 73170,
          "time": 275.075298,
          "velocity": 0.7874015748031497
        },
        {
          "duration": 0.10902260000000297,
          "durationTicks": 29,
          "midi": 64,
          "name": "E4",
          "ticks": 73200,
          "time": 275.18808,
          "velocity": 0.7874015748031497
        },
        {
          "duration": 0.10902260000000297,
          "durationTicks": 29,
          "midi": 59,
          "name": "B3",
          "ticks": 73230,
          "time": 275.300862,
          "velocity": 0.7874015748031497
        },
        {
          "duration": 0.10902260000000297,
          "durationTicks": 29,
          "midi": 63,
          "name": "D#4",
          "ticks": 73260,
          "time": 275.413644,
          "velocity": 0.7874015748031497
        },
        {
          "duration": 0.10902260000000297,
          "durationTicks": 29,
          "midi": 59,
          "name": "B3",
          "ticks": 73290,
          "time": 275.526426,
          "velocity": 0.7874015748031497
        },
        {
          "duration": 0.10902260000000297,
          "durationTicks": 29,
          "midi": 64,
          "name": "E4",
          "ticks": 73320,
          "time": 275.639208,
          "velocity": 0.7874015748031497
        },
        {
          "duration": 0.10902260000000297,
          "durationTicks": 29,
          "midi": 59,
          "name": "B3",
          "ticks": 73350,
          "time": 275.75199,
          "velocity": 0.7874015748031497
        },
        {
          "duration": 0.10902260000000297,
          "durationTicks": 29,
          "midi": 63,
          "name": "D#4",
          "ticks": 73380,
          "time": 275.864772,
          "velocity": 0.7874015748031497
        },
        {
          "duration": 0.10902260000000297,
          "durationTicks": 29,
          "midi": 59,
          "name": "B3",
          "ticks": 73410,
          "time": 275.977554,
          "velocity": 0.7874015748031497
        },
        {
          "duration": 0.10902260000000297,
          "durationTicks": 29,
          "midi": 71,
          "name": "B4",
          "ticks": 73440,
          "time": 276.090336,
          "velocity": 0.7874015748031497
        },
        {
          "duration": 0.10902260000000297,
          "durationTicks": 29,
          "midi": 59,
          "name": "B3",
          "ticks": 73470,
          "time": 276.203118,
          "velocity": 0.7874015748031497
        },
        {
          "duration": 0.10902260000000297,
          "durationTicks": 29,
          "midi": 69,
          "name": "A4",
          "ticks": 73500,
          "time": 276.3159,
          "velocity": 0.7874015748031497
        },
        {
          "duration": 0.10902260000000297,
          "durationTicks": 29,
          "midi": 59,
          "name": "B3",
          "ticks": 73530,
          "time": 276.428682,
          "velocity": 0.7874015748031497
        },
        {
          "duration": 0.10902260000000297,
          "durationTicks": 29,
          "midi": 68,
          "name": "G#4",
          "ticks": 73560,
          "time": 276.541464,
          "velocity": 0.7874015748031497
        },
        {
          "duration": 0.10902260000000297,
          "durationTicks": 29,
          "midi": 59,
          "name": "B3",
          "ticks": 73590,
          "time": 276.654246,
          "velocity": 0.7874015748031497
        },
        {
          "duration": 0.10902260000000297,
          "durationTicks": 29,
          "midi": 69,
          "name": "A4",
          "ticks": 73620,
          "time": 276.767028,
          "velocity": 0.7874015748031497
        },
        {
          "duration": 0.10902260000000297,
          "durationTicks": 29,
          "midi": 59,
          "name": "B3",
          "ticks": 73650,
          "time": 276.87981,
          "velocity": 0.7874015748031497
        },
        {
          "duration": 0.10902260000000297,
          "durationTicks": 29,
          "midi": 68,
          "name": "G#4",
          "ticks": 73680,
          "time": 276.992592,
          "velocity": 0.7874015748031497
        },
        {
          "duration": 0.10902260000000297,
          "durationTicks": 29,
          "midi": 59,
          "name": "B3",
          "ticks": 73710,
          "time": 277.105374,
          "velocity": 0.7874015748031497
        },
        {
          "duration": 0.10902260000000297,
          "durationTicks": 29,
          "midi": 66,
          "name": "F#4",
          "ticks": 73740,
          "time": 277.218156,
          "velocity": 0.7874015748031497
        },
        {
          "duration": 0.10902260000000297,
          "durationTicks": 29,
          "midi": 59,
          "name": "B3",
          "ticks": 73770,
          "time": 277.330938,
          "velocity": 0.7874015748031497
        },
        {
          "duration": 0.10902260000000297,
          "durationTicks": 29,
          "midi": 68,
          "name": "G#4",
          "ticks": 73800,
          "time": 277.44372,
          "velocity": 0.7874015748031497
        },
        {
          "duration": 0.10902259999994612,
          "durationTicks": 29,
          "midi": 59,
          "name": "B3",
          "ticks": 73830,
          "time": 277.556502,
          "velocity": 0.7874015748031497
        },
        {
          "duration": 0.10902260000000297,
          "durationTicks": 29,
          "midi": 64,
          "name": "E4",
          "ticks": 73860,
          "time": 277.669284,
          "velocity": 0.7874015748031497
        },
        {
          "duration": 0.10902260000000297,
          "durationTicks": 29,
          "midi": 59,
          "name": "B3",
          "ticks": 73890,
          "time": 277.782066,
          "velocity": 0.7874015748031497
        },
        {
          "duration": 0.10902260000000297,
          "durationTicks": 29,
          "midi": 66,
          "name": "F#4",
          "ticks": 73920,
          "time": 277.894848,
          "velocity": 0.7874015748031497
        },
        {
          "duration": 0.10902260000000297,
          "durationTicks": 29,
          "midi": 59,
          "name": "B3",
          "ticks": 73950,
          "time": 278.00763,
          "velocity": 0.7874015748031497
        },
        {
          "duration": 0.10902260000000297,
          "durationTicks": 29,
          "midi": 63,
          "name": "D#4",
          "ticks": 73980,
          "time": 278.120412,
          "velocity": 0.7874015748031497
        },
        {
          "duration": 0.10902260000000297,
          "durationTicks": 29,
          "midi": 59,
          "name": "B3",
          "ticks": 74010,
          "time": 278.233194,
          "velocity": 0.7874015748031497
        },
        {
          "duration": 0.10902260000000297,
          "durationTicks": 29,
          "midi": 64,
          "name": "E4",
          "ticks": 74040,
          "time": 278.345976,
          "velocity": 0.7874015748031497
        },
        {
          "duration": 0.10902260000000297,
          "durationTicks": 29,
          "midi": 59,
          "name": "B3",
          "ticks": 74070,
          "time": 278.458758,
          "velocity": 0.7874015748031497
        },
        {
          "duration": 0.10902260000000297,
          "durationTicks": 29,
          "midi": 63,
          "name": "D#4",
          "ticks": 74100,
          "time": 278.57154,
          "velocity": 0.7874015748031497
        },
        {
          "duration": 0.10902260000000297,
          "durationTicks": 29,
          "midi": 59,
          "name": "B3",
          "ticks": 74130,
          "time": 278.684322,
          "velocity": 0.7874015748031497
        },
        {
          "duration": 0.10902260000000297,
          "durationTicks": 29,
          "midi": 64,
          "name": "E4",
          "ticks": 74160,
          "time": 278.797104,
          "velocity": 0.7874015748031497
        },
        {
          "duration": 0.10902260000000297,
          "durationTicks": 29,
          "midi": 59,
          "name": "B3",
          "ticks": 74190,
          "time": 278.909886,
          "velocity": 0.7874015748031497
        },
        {
          "duration": 0.10902260000000297,
          "durationTicks": 29,
          "midi": 63,
          "name": "D#4",
          "ticks": 74220,
          "time": 279.022668,
          "velocity": 0.7874015748031497
        },
        {
          "duration": 0.10902260000000297,
          "durationTicks": 29,
          "midi": 59,
          "name": "B3",
          "ticks": 74250,
          "time": 279.13545,
          "velocity": 0.7874015748031497
        },
        {
          "duration": 0.10902260000000297,
          "durationTicks": 29,
          "midi": 64,
          "name": "E4",
          "ticks": 74280,
          "time": 279.248232,
          "velocity": 0.7874015748031497
        },
        {
          "duration": 0.10902260000000297,
          "durationTicks": 29,
          "midi": 59,
          "name": "B3",
          "ticks": 74310,
          "time": 279.361014,
          "velocity": 0.7874015748031497
        },
        {
          "duration": 0.10902260000000297,
          "durationTicks": 29,
          "midi": 63,
          "name": "D#4",
          "ticks": 74340,
          "time": 279.473796,
          "velocity": 0.7874015748031497
        },
        {
          "duration": 0.10902260000000297,
          "durationTicks": 29,
          "midi": 59,
          "name": "B3",
          "ticks": 74370,
          "time": 279.586578,
          "velocity": 0.7874015748031497
        },
        {
          "duration": 0.10902260000000297,
          "durationTicks": 29,
          "midi": 71,
          "name": "B4",
          "ticks": 74400,
          "time": 279.69936,
          "velocity": 0.7874015748031497
        },
        {
          "duration": 0.10902260000000297,
          "durationTicks": 29,
          "midi": 59,
          "name": "B3",
          "ticks": 74430,
          "time": 279.812142,
          "velocity": 0.7874015748031497
        },
        {
          "duration": 0.10902260000000297,
          "durationTicks": 29,
          "midi": 69,
          "name": "A4",
          "ticks": 74460,
          "time": 279.924924,
          "velocity": 0.7874015748031497
        },
        {
          "duration": 0.10902260000000297,
          "durationTicks": 29,
          "midi": 59,
          "name": "B3",
          "ticks": 74490,
          "time": 280.037706,
          "velocity": 0.7874015748031497
        },
        {
          "duration": 0.10902260000000297,
          "durationTicks": 29,
          "midi": 68,
          "name": "G#4",
          "ticks": 74520,
          "time": 280.150488,
          "velocity": 0.7874015748031497
        },
        {
          "duration": 0.10902260000000297,
          "durationTicks": 29,
          "midi": 59,
          "name": "B3",
          "ticks": 74550,
          "time": 280.26327,
          "velocity": 0.7874015748031497
        },
        {
          "duration": 0.10902260000000297,
          "durationTicks": 29,
          "midi": 69,
          "name": "A4",
          "ticks": 74580,
          "time": 280.376052,
          "velocity": 0.7874015748031497
        },
        {
          "duration": 0.10902260000000297,
          "durationTicks": 29,
          "midi": 59,
          "name": "B3",
          "ticks": 74610,
          "time": 280.488834,
          "velocity": 0.7874015748031497
        },
        {
          "duration": 0.10902260000000297,
          "durationTicks": 29,
          "midi": 68,
          "name": "G#4",
          "ticks": 74640,
          "time": 280.601616,
          "velocity": 0.7874015748031497
        },
        {
          "duration": 0.10902260000000297,
          "durationTicks": 29,
          "midi": 59,
          "name": "B3",
          "ticks": 74670,
          "time": 280.714398,
          "velocity": 0.7874015748031497
        },
        {
          "duration": 0.10902260000000297,
          "durationTicks": 29,
          "midi": 66,
          "name": "F#4",
          "ticks": 74700,
          "time": 280.82718,
          "velocity": 0.7874015748031497
        },
        {
          "duration": 0.10902260000000297,
          "durationTicks": 29,
          "midi": 59,
          "name": "B3",
          "ticks": 74730,
          "time": 280.939962,
          "velocity": 0.7874015748031497
        },
        {
          "duration": 0.10902260000000297,
          "durationTicks": 29,
          "midi": 68,
          "name": "G#4",
          "ticks": 74760,
          "time": 281.052744,
          "velocity": 0.7874015748031497
        },
        {
          "duration": 0.10902260000000297,
          "durationTicks": 29,
          "midi": 59,
          "name": "B3",
          "ticks": 74790,
          "time": 281.165526,
          "velocity": 0.7874015748031497
        },
        {
          "duration": 0.10902260000000297,
          "durationTicks": 29,
          "midi": 64,
          "name": "E4",
          "ticks": 74820,
          "time": 281.278308,
          "velocity": 0.7874015748031497
        },
        {
          "duration": 0.10902260000000297,
          "durationTicks": 29,
          "midi": 59,
          "name": "B3",
          "ticks": 74850,
          "time": 281.39109,
          "velocity": 0.7874015748031497
        },
        {
          "duration": 0.10902260000000297,
          "durationTicks": 29,
          "midi": 66,
          "name": "F#4",
          "ticks": 74880,
          "time": 281.503872,
          "velocity": 0.7874015748031497
        },
        {
          "duration": 0.10902260000000297,
          "durationTicks": 29,
          "midi": 59,
          "name": "B3",
          "ticks": 74910,
          "time": 281.616654,
          "velocity": 0.7874015748031497
        },
        {
          "duration": 0.10902260000005981,
          "durationTicks": 29,
          "midi": 63,
          "name": "D#4",
          "ticks": 74940,
          "time": 281.72943599999996,
          "velocity": 0.7874015748031497
        },
        {
          "duration": 0.10902260000000297,
          "durationTicks": 29,
          "midi": 59,
          "name": "B3",
          "ticks": 74970,
          "time": 281.842218,
          "velocity": 0.7874015748031497
        },
        {
          "duration": 0.10902260000000297,
          "durationTicks": 29,
          "midi": 64,
          "name": "E4",
          "ticks": 75000,
          "time": 281.955,
          "velocity": 0.7874015748031497
        },
        {
          "duration": 0.10902260000000297,
          "durationTicks": 29,
          "midi": 59,
          "name": "B3",
          "ticks": 75030,
          "time": 282.06778199999997,
          "velocity": 0.7874015748031497
        },
        {
          "duration": 0.10902260000000297,
          "durationTicks": 29,
          "midi": 63,
          "name": "D#4",
          "ticks": 75060,
          "time": 282.180564,
          "velocity": 0.7874015748031497
        },
        {
          "duration": 0.10902260000000297,
          "durationTicks": 29,
          "midi": 59,
          "name": "B3",
          "ticks": 75090,
          "time": 282.293346,
          "velocity": 0.7874015748031497
        },
        {
          "duration": 0.10902260000000297,
          "durationTicks": 29,
          "midi": 64,
          "name": "E4",
          "ticks": 75120,
          "time": 282.40612799999997,
          "velocity": 0.7874015748031497
        },
        {
          "duration": 0.10902260000000297,
          "durationTicks": 29,
          "midi": 59,
          "name": "B3",
          "ticks": 75150,
          "time": 282.51891,
          "velocity": 0.7874015748031497
        },
        {
          "duration": 0.10902260000000297,
          "durationTicks": 29,
          "midi": 63,
          "name": "D#4",
          "ticks": 75180,
          "time": 282.631692,
          "velocity": 0.7874015748031497
        },
        {
          "duration": 0.10902260000000297,
          "durationTicks": 29,
          "midi": 59,
          "name": "B3",
          "ticks": 75210,
          "time": 282.74447399999997,
          "velocity": 0.7874015748031497
        },
        {
          "duration": 0.10902260000000297,
          "durationTicks": 29,
          "midi": 64,
          "name": "E4",
          "ticks": 75240,
          "time": 282.857256,
          "velocity": 0.7874015748031497
        },
        {
          "duration": 0.10902260000000297,
          "durationTicks": 29,
          "midi": 59,
          "name": "B3",
          "ticks": 75270,
          "time": 282.970038,
          "velocity": 0.7874015748031497
        },
        {
          "duration": 0.10902260000000297,
          "durationTicks": 29,
          "midi": 63,
          "name": "D#4",
          "ticks": 75300,
          "time": 283.08281999999997,
          "velocity": 0.7874015748031497
        },
        {
          "duration": 0.10902260000000297,
          "durationTicks": 29,
          "midi": 59,
          "name": "B3",
          "ticks": 75330,
          "time": 283.195602,
          "velocity": 0.7874015748031497
        },
        {
          "duration": 0.10902260000000297,
          "durationTicks": 29,
          "midi": 71,
          "name": "B4",
          "ticks": 75360,
          "time": 283.308384,
          "velocity": 0.7874015748031497
        },
        {
          "duration": 0.10902260000000297,
          "durationTicks": 29,
          "midi": 59,
          "name": "B3",
          "ticks": 75390,
          "time": 283.421166,
          "velocity": 0.7874015748031497
        },
        {
          "duration": 0.10902260000000297,
          "durationTicks": 29,
          "midi": 69,
          "name": "A4",
          "ticks": 75420,
          "time": 283.533948,
          "velocity": 0.7874015748031497
        },
        {
          "duration": 0.10902260000000297,
          "durationTicks": 29,
          "midi": 59,
          "name": "B3",
          "ticks": 75450,
          "time": 283.64673,
          "velocity": 0.7874015748031497
        },
        {
          "duration": 0.10902260000000297,
          "durationTicks": 29,
          "midi": 68,
          "name": "G#4",
          "ticks": 75480,
          "time": 283.75951200000003,
          "velocity": 0.7874015748031497
        },
        {
          "duration": 0.10902260000000297,
          "durationTicks": 29,
          "midi": 59,
          "name": "B3",
          "ticks": 75510,
          "time": 283.872294,
          "velocity": 0.7874015748031497
        },
        {
          "duration": 0.10902260000000297,
          "durationTicks": 29,
          "midi": 69,
          "name": "A4",
          "ticks": 75540,
          "time": 283.985076,
          "velocity": 0.7874015748031497
        },
        {
          "duration": 0.10902260000000297,
          "durationTicks": 29,
          "midi": 59,
          "name": "B3",
          "ticks": 75570,
          "time": 284.09785800000003,
          "velocity": 0.7874015748031497
        },
        {
          "duration": 0.10902260000000297,
          "durationTicks": 29,
          "midi": 68,
          "name": "G#4",
          "ticks": 75600,
          "time": 284.21064,
          "velocity": 0.7874015748031497
        },
        {
          "duration": 0.10902260000000297,
          "durationTicks": 29,
          "midi": 59,
          "name": "B3",
          "ticks": 75630,
          "time": 284.323422,
          "velocity": 0.7874015748031497
        },
        {
          "duration": 0.10902260000000297,
          "durationTicks": 29,
          "midi": 66,
          "name": "F#4",
          "ticks": 75660,
          "time": 284.43620400000003,
          "velocity": 0.7874015748031497
        },
        {
          "duration": 0.10902260000000297,
          "durationTicks": 29,
          "midi": 59,
          "name": "B3",
          "ticks": 75690,
          "time": 284.548986,
          "velocity": 0.7874015748031497
        },
        {
          "duration": 0.10902260000000297,
          "durationTicks": 29,
          "midi": 68,
          "name": "G#4",
          "ticks": 75720,
          "time": 284.661768,
          "velocity": 0.7874015748031497
        },
        {
          "duration": 0.10902259999994612,
          "durationTicks": 29,
          "midi": 59,
          "name": "B3",
          "ticks": 75750,
          "time": 284.77455000000003,
          "velocity": 0.7874015748031497
        },
        {
          "duration": 0.10902260000000297,
          "durationTicks": 29,
          "midi": 64,
          "name": "E4",
          "ticks": 75780,
          "time": 284.887332,
          "velocity": 0.7874015748031497
        },
        {
          "duration": 0.10902260000000297,
          "durationTicks": 29,
          "midi": 59,
          "name": "B3",
          "ticks": 75810,
          "time": 285.000114,
          "velocity": 0.7874015748031497
        },
        {
          "duration": 0.10902259999994612,
          "durationTicks": 29,
          "midi": 66,
          "name": "F#4",
          "ticks": 75840,
          "time": 285.11289600000003,
          "velocity": 0.7874015748031497
        },
        {
          "duration": 0.10902260000000297,
          "durationTicks": 29,
          "midi": 59,
          "name": "B3",
          "ticks": 75870,
          "time": 285.225678,
          "velocity": 0.7874015748031497
        },
        {
          "duration": 0.10902260000000297,
          "durationTicks": 29,
          "midi": 63,
          "name": "D#4",
          "ticks": 75900,
          "time": 285.33846,
          "velocity": 0.7874015748031497
        },
        {
          "duration": 0.10902260000000297,
          "durationTicks": 29,
          "midi": 59,
          "name": "B3",
          "ticks": 75930,
          "time": 285.451242,
          "velocity": 0.7874015748031497
        },
        {
          "duration": 0.10902260000000297,
          "durationTicks": 29,
          "midi": 64,
          "name": "E4",
          "ticks": 75960,
          "time": 285.564024,
          "velocity": 0.7874015748031497
        },
        {
          "duration": 0.10902260000000297,
          "durationTicks": 29,
          "midi": 59,
          "name": "B3",
          "ticks": 75990,
          "time": 285.676806,
          "velocity": 0.7874015748031497
        },
        {
          "duration": 0.10902260000000297,
          "durationTicks": 29,
          "midi": 63,
          "name": "D#4",
          "ticks": 76020,
          "time": 285.789588,
          "velocity": 0.7874015748031497
        },
        {
          "duration": 0.10902260000000297,
          "durationTicks": 29,
          "midi": 59,
          "name": "B3",
          "ticks": 76050,
          "time": 285.90237,
          "velocity": 0.7874015748031497
        },
        {
          "duration": 0.10902260000000297,
          "durationTicks": 29,
          "midi": 64,
          "name": "E4",
          "ticks": 76080,
          "time": 286.015152,
          "velocity": 0.7874015748031497
        },
        {
          "duration": 0.10902260000000297,
          "durationTicks": 29,
          "midi": 59,
          "name": "B3",
          "ticks": 76110,
          "time": 286.127934,
          "velocity": 0.7874015748031497
        },
        {
          "duration": 0.10902260000000297,
          "durationTicks": 29,
          "midi": 63,
          "name": "D#4",
          "ticks": 76140,
          "time": 286.240716,
          "velocity": 0.7874015748031497
        },
        {
          "duration": 0.10902260000000297,
          "durationTicks": 29,
          "midi": 59,
          "name": "B3",
          "ticks": 76170,
          "time": 286.353498,
          "velocity": 0.7874015748031497
        },
        {
          "duration": 0.10902260000000297,
          "durationTicks": 29,
          "midi": 64,
          "name": "E4",
          "ticks": 76200,
          "time": 286.46628,
          "velocity": 0.7874015748031497
        },
        {
          "duration": 0.10902260000000297,
          "durationTicks": 29,
          "midi": 59,
          "name": "B3",
          "ticks": 76230,
          "time": 286.579062,
          "velocity": 0.7874015748031497
        },
        {
          "duration": 0.10902260000000297,
          "durationTicks": 29,
          "midi": 63,
          "name": "D#4",
          "ticks": 76260,
          "time": 286.691844,
          "velocity": 0.7874015748031497
        },
        {
          "duration": 0.10902260000000297,
          "durationTicks": 29,
          "midi": 59,
          "name": "B3",
          "ticks": 76290,
          "time": 286.804626,
          "velocity": 0.7874015748031497
        },
        {
          "duration": 0.10902260000000297,
          "durationTicks": 29,
          "midi": 71,
          "name": "B4",
          "ticks": 76320,
          "time": 286.917408,
          "velocity": 0.7874015748031497
        },
        {
          "duration": 0.10902260000000297,
          "durationTicks": 29,
          "midi": 59,
          "name": "B3",
          "ticks": 76350,
          "time": 287.03019,
          "velocity": 0.7874015748031497
        },
        {
          "duration": 0.10902260000000297,
          "durationTicks": 29,
          "midi": 69,
          "name": "A4",
          "ticks": 76380,
          "time": 287.142972,
          "velocity": 0.7874015748031497
        },
        {
          "duration": 0.10902260000000297,
          "durationTicks": 29,
          "midi": 59,
          "name": "B3",
          "ticks": 76410,
          "time": 287.255754,
          "velocity": 0.7874015748031497
        },
        {
          "duration": 0.10902260000000297,
          "durationTicks": 29,
          "midi": 68,
          "name": "G#4",
          "ticks": 76440,
          "time": 287.368536,
          "velocity": 0.7874015748031497
        },
        {
          "duration": 0.10902260000000297,
          "durationTicks": 29,
          "midi": 59,
          "name": "B3",
          "ticks": 76470,
          "time": 287.481318,
          "velocity": 0.7874015748031497
        },
        {
          "duration": 0.10902260000000297,
          "durationTicks": 29,
          "midi": 69,
          "name": "A4",
          "ticks": 76500,
          "time": 287.5941,
          "velocity": 0.7874015748031497
        },
        {
          "duration": 0.10902260000000297,
          "durationTicks": 29,
          "midi": 59,
          "name": "B3",
          "ticks": 76530,
          "time": 287.706882,
          "velocity": 0.7874015748031497
        },
        {
          "duration": 0.10902260000000297,
          "durationTicks": 29,
          "midi": 68,
          "name": "G#4",
          "ticks": 76560,
          "time": 287.819664,
          "velocity": 0.7874015748031497
        },
        {
          "duration": 0.10902260000000297,
          "durationTicks": 29,
          "midi": 59,
          "name": "B3",
          "ticks": 76590,
          "time": 287.932446,
          "velocity": 0.7874015748031497
        },
        {
          "duration": 0.10902260000000297,
          "durationTicks": 29,
          "midi": 66,
          "name": "F#4",
          "ticks": 76620,
          "time": 288.045228,
          "velocity": 0.7874015748031497
        },
        {
          "duration": 0.10902260000000297,
          "durationTicks": 29,
          "midi": 59,
          "name": "B3",
          "ticks": 76650,
          "time": 288.15801,
          "velocity": 0.7874015748031497
        },
        {
          "duration": 0.10902260000000297,
          "durationTicks": 29,
          "midi": 68,
          "name": "G#4",
          "ticks": 76680,
          "time": 288.27079200000003,
          "velocity": 0.7874015748031497
        },
        {
          "duration": 0.10902260000000297,
          "durationTicks": 29,
          "midi": 59,
          "name": "B3",
          "ticks": 76710,
          "time": 288.383574,
          "velocity": 0.7874015748031497
        },
        {
          "duration": 0.10902260000000297,
          "durationTicks": 29,
          "midi": 64,
          "name": "E4",
          "ticks": 76740,
          "time": 288.496356,
          "velocity": 0.7874015748031497
        },
        {
          "duration": 0.10902260000000297,
          "durationTicks": 29,
          "midi": 59,
          "name": "B3",
          "ticks": 76770,
          "time": 288.60913800000003,
          "velocity": 0.7874015748031497
        },
        {
          "duration": 0.10902260000000297,
          "durationTicks": 29,
          "midi": 66,
          "name": "F#4",
          "ticks": 76800,
          "time": 288.72192,
          "velocity": 0.7874015748031497
        },
        {
          "duration": 0.10902260000000297,
          "durationTicks": 29,
          "midi": 59,
          "name": "B3",
          "ticks": 76830,
          "time": 288.834702,
          "velocity": 0.7874015748031497
        },
        {
          "duration": 0.10902260000000297,
          "durationTicks": 29,
          "midi": 63,
          "name": "D#4",
          "ticks": 76860,
          "time": 288.94748400000003,
          "velocity": 0.7874015748031497
        },
        {
          "duration": 0.10902260000000297,
          "durationTicks": 29,
          "midi": 59,
          "name": "B3",
          "ticks": 76890,
          "time": 289.060266,
          "velocity": 0.7874015748031497
        },
        {
          "duration": 0.10902260000000297,
          "durationTicks": 29,
          "midi": 64,
          "name": "E4",
          "ticks": 76920,
          "time": 289.173048,
          "velocity": 0.7874015748031497
        },
        {
          "duration": 0.10902260000000297,
          "durationTicks": 29,
          "midi": 59,
          "name": "B3",
          "ticks": 76950,
          "time": 289.28583000000003,
          "velocity": 0.7874015748031497
        },
        {
          "duration": 0.10902260000000297,
          "durationTicks": 29,
          "midi": 63,
          "name": "D#4",
          "ticks": 76980,
          "time": 289.398612,
          "velocity": 0.7874015748031497
        },
        {
          "duration": 0.10902260000000297,
          "durationTicks": 29,
          "midi": 59,
          "name": "B3",
          "ticks": 77010,
          "time": 289.511394,
          "velocity": 0.7874015748031497
        },
        {
          "duration": 0.10902259999994612,
          "durationTicks": 29,
          "midi": 64,
          "name": "E4",
          "ticks": 77040,
          "time": 289.62417600000003,
          "velocity": 0.7874015748031497
        },
        {
          "duration": 0.10902260000000297,
          "durationTicks": 29,
          "midi": 59,
          "name": "B3",
          "ticks": 77070,
          "time": 289.736958,
          "velocity": 0.7874015748031497
        },
        {
          "duration": 0.10902260000000297,
          "durationTicks": 29,
          "midi": 63,
          "name": "D#4",
          "ticks": 77100,
          "time": 289.84974,
          "velocity": 0.7874015748031497
        },
        {
          "duration": 0.10902259999994612,
          "durationTicks": 29,
          "midi": 59,
          "name": "B3",
          "ticks": 77130,
          "time": 289.96252200000004,
          "velocity": 0.7874015748031497
        },
        {
          "duration": 0.10902260000000297,
          "durationTicks": 29,
          "midi": 64,
          "name": "E4",
          "ticks": 77160,
          "time": 290.075304,
          "velocity": 0.7874015748031497
        },
        {
          "duration": 0.10902260000000297,
          "durationTicks": 29,
          "midi": 59,
          "name": "B3",
          "ticks": 77190,
          "time": 290.188086,
          "velocity": 0.7874015748031497
        },
        {
          "duration": 0.10902260000000297,
          "durationTicks": 29,
          "midi": 63,
          "name": "D#4",
          "ticks": 77220,
          "time": 290.300868,
          "velocity": 0.7874015748031497
        },
        {
          "duration": 0.10902260000000297,
          "durationTicks": 29,
          "midi": 59,
          "name": "B3",
          "ticks": 77250,
          "time": 290.41365,
          "velocity": 0.7874015748031497
        },
        {
          "duration": 0.11788620833334562,
          "durationTicks": 29,
          "midi": 71,
          "name": "B4",
          "ticks": 77280,
          "time": 290.526432,
          "velocity": 0.7874015748031497
        },
        {
          "duration": 0.11788620833334562,
          "durationTicks": 29,
          "midi": 59,
          "name": "B3",
          "ticks": 77310,
          "time": 290.64838325,
          "velocity": 0.7874015748031497
        },
        {
          "duration": 0.11788620833334562,
          "durationTicks": 29,
          "midi": 69,
          "name": "A4",
          "ticks": 77340,
          "time": 290.7703345,
          "velocity": 0.7874015748031497
        },
        {
          "duration": 0.11788620833334562,
          "durationTicks": 29,
          "midi": 59,
          "name": "B3",
          "ticks": 77370,
          "time": 290.89228575,
          "velocity": 0.7874015748031497
        },
        {
          "duration": 0.11788620833334562,
          "durationTicks": 29,
          "midi": 68,
          "name": "G#4",
          "ticks": 77400,
          "time": 291.014237,
          "velocity": 0.7874015748031497
        },
        {
          "duration": 0.11788620833334562,
          "durationTicks": 29,
          "midi": 59,
          "name": "B3",
          "ticks": 77430,
          "time": 291.13618825,
          "velocity": 0.7874015748031497
        },
        {
          "duration": 0.11788620833328878,
          "durationTicks": 29,
          "midi": 69,
          "name": "A4",
          "ticks": 77460,
          "time": 291.2581395,
          "velocity": 0.7874015748031497
        },
        {
          "duration": 0.11788620833328878,
          "durationTicks": 29,
          "midi": 59,
          "name": "B3",
          "ticks": 77490,
          "time": 291.38009075,
          "velocity": 0.7874015748031497
        },
        {
          "duration": 0.11788620833328878,
          "durationTicks": 29,
          "midi": 68,
          "name": "G#4",
          "ticks": 77520,
          "time": 291.502042,
          "velocity": 0.7874015748031497
        },
        {
          "duration": 0.11788620833334562,
          "durationTicks": 29,
          "midi": 59,
          "name": "B3",
          "ticks": 77550,
          "time": 291.62399325,
          "velocity": 0.7874015748031497
        },
        {
          "duration": 0.11788620833334562,
          "durationTicks": 29,
          "midi": 66,
          "name": "F#4",
          "ticks": 77580,
          "time": 291.7459445,
          "velocity": 0.7874015748031497
        },
        {
          "duration": 0.11788620833334562,
          "durationTicks": 29,
          "midi": 59,
          "name": "B3",
          "ticks": 77610,
          "time": 291.86789575,
          "velocity": 0.7874015748031497
        },
        {
          "duration": 0.11788620833334562,
          "durationTicks": 29,
          "midi": 68,
          "name": "G#4",
          "ticks": 77640,
          "time": 291.989847,
          "velocity": 0.7874015748031497
        },
        {
          "duration": 0.11788620833334562,
          "durationTicks": 29,
          "midi": 59,
          "name": "B3",
          "ticks": 77670,
          "time": 292.11179825,
          "velocity": 0.7874015748031497
        },
        {
          "duration": 0.11788620833334562,
          "durationTicks": 29,
          "midi": 64,
          "name": "E4",
          "ticks": 77700,
          "time": 292.2337495,
          "velocity": 0.7874015748031497
        },
        {
          "duration": 0.11788620833334562,
          "durationTicks": 29,
          "midi": 59,
          "name": "B3",
          "ticks": 77730,
          "time": 292.35570075,
          "velocity": 0.7874015748031497
        },
        {
          "duration": 0.11788620833334562,
          "durationTicks": 29,
          "midi": 66,
          "name": "F#4",
          "ticks": 77760,
          "time": 292.477652,
          "velocity": 0.7874015748031497
        },
        {
          "duration": 0.11788620833334562,
          "durationTicks": 29,
          "midi": 59,
          "name": "B3",
          "ticks": 77790,
          "time": 292.59960325,
          "velocity": 0.7874015748031497
        },
        {
          "duration": 0.11788620833328878,
          "durationTicks": 29,
          "midi": 63,
          "name": "D#4",
          "ticks": 77820,
          "time": 292.7215545,
          "velocity": 0.7874015748031497
        },
        {
          "duration": 0.11788620833328878,
          "durationTicks": 29,
          "midi": 59,
          "name": "B3",
          "ticks": 77850,
          "time": 292.84350575,
          "velocity": 0.7874015748031497
        },
        {
          "duration": 0.11788620833334562,
          "durationTicks": 29,
          "midi": 64,
          "name": "E4",
          "ticks": 77880,
          "time": 292.965457,
          "velocity": 0.7874015748031497
        },
        {
          "duration": 0.11788620833334562,
          "durationTicks": 29,
          "midi": 59,
          "name": "B3",
          "ticks": 77910,
          "time": 293.08740825,
          "velocity": 0.7874015748031497
        },
        {
          "duration": 0.11788620833334562,
          "durationTicks": 29,
          "midi": 63,
          "name": "D#4",
          "ticks": 77940,
          "time": 293.2093595,
          "velocity": 0.7874015748031497
        },
        {
          "duration": 0.11788620833334562,
          "durationTicks": 29,
          "midi": 59,
          "name": "B3",
          "ticks": 77970,
          "time": 293.33131075,
          "velocity": 0.7874015748031497
        },
        {
          "duration": 0.11788620833334562,
          "durationTicks": 29,
          "midi": 64,
          "name": "E4",
          "ticks": 78000,
          "time": 293.453262,
          "velocity": 0.7874015748031497
        },
        {
          "duration": 0.11788620833334562,
          "durationTicks": 29,
          "midi": 59,
          "name": "B3",
          "ticks": 78030,
          "time": 293.57521325,
          "velocity": 0.7874015748031497
        },
        {
          "duration": 0.11788620833334562,
          "durationTicks": 29,
          "midi": 63,
          "name": "D#4",
          "ticks": 78060,
          "time": 293.6971645,
          "velocity": 0.7874015748031497
        },
        {
          "duration": 0.11788620833334562,
          "durationTicks": 29,
          "midi": 59,
          "name": "B3",
          "ticks": 78090,
          "time": 293.81911575,
          "velocity": 0.7874015748031497
        },
        {
          "duration": 0.11788620833334562,
          "durationTicks": 29,
          "midi": 64,
          "name": "E4",
          "ticks": 78120,
          "time": 293.941067,
          "velocity": 0.7874015748031497
        },
        {
          "duration": 0.11788620833328878,
          "durationTicks": 29,
          "midi": 59,
          "name": "B3",
          "ticks": 78150,
          "time": 294.06301825,
          "velocity": 0.7874015748031497
        },
        {
          "duration": 0.11788620833328878,
          "durationTicks": 29,
          "midi": 63,
          "name": "D#4",
          "ticks": 78180,
          "time": 294.1849695,
          "velocity": 0.7874015748031497
        },
        {
          "duration": 0.11788620833328878,
          "durationTicks": 29,
          "midi": 59,
          "name": "B3",
          "ticks": 78210,
          "time": 294.30692075,
          "velocity": 0.7874015748031497
        },
        {
          "duration": 0.11788620833334562,
          "durationTicks": 29,
          "midi": 71,
          "name": "B4",
          "ticks": 78240,
          "time": 294.428872,
          "velocity": 0.7874015748031497
        },
        {
          "duration": 0.11788620833334562,
          "durationTicks": 29,
          "midi": 59,
          "name": "B3",
          "ticks": 78270,
          "time": 294.55082325,
          "velocity": 0.7874015748031497
        },
        {
          "duration": 0.11788620833334562,
          "durationTicks": 29,
          "midi": 69,
          "name": "A4",
          "ticks": 78300,
          "time": 294.6727745,
          "velocity": 0.7874015748031497
        },
        {
          "duration": 0.11788620833334562,
          "durationTicks": 29,
          "midi": 59,
          "name": "B3",
          "ticks": 78330,
          "time": 294.79472575,
          "velocity": 0.7874015748031497
        },
        {
          "duration": 0.11788620833334562,
          "durationTicks": 29,
          "midi": 68,
          "name": "G#4",
          "ticks": 78360,
          "time": 294.916677,
          "velocity": 0.7874015748031497
        },
        {
          "duration": 0.11788620833334562,
          "durationTicks": 29,
          "midi": 59,
          "name": "B3",
          "ticks": 78390,
          "time": 295.03862825,
          "velocity": 0.7874015748031497
        },
        {
          "duration": 0.11788620833334562,
          "durationTicks": 29,
          "midi": 69,
          "name": "A4",
          "ticks": 78420,
          "time": 295.1605795,
          "velocity": 0.7874015748031497
        },
        {
          "duration": 0.11788620833334562,
          "durationTicks": 29,
          "midi": 59,
          "name": "B3",
          "ticks": 78450,
          "time": 295.28253075,
          "velocity": 0.7874015748031497
        },
        {
          "duration": 0.11788620833334562,
          "durationTicks": 29,
          "midi": 68,
          "name": "G#4",
          "ticks": 78480,
          "time": 295.404482,
          "velocity": 0.7874015748031497
        },
        {
          "duration": 0.11788620833328878,
          "durationTicks": 29,
          "midi": 59,
          "name": "B3",
          "ticks": 78510,
          "time": 295.52643325,
          "velocity": 0.7874015748031497
        },
        {
          "duration": 0.11788620833328878,
          "durationTicks": 29,
          "midi": 66,
          "name": "F#4",
          "ticks": 78540,
          "time": 295.6483845,
          "velocity": 0.7874015748031497
        },
        {
          "duration": 0.11788620833334562,
          "durationTicks": 29,
          "midi": 59,
          "name": "B3",
          "ticks": 78570,
          "time": 295.77033575,
          "velocity": 0.7874015748031497
        },
        {
          "duration": 0.11788620833334562,
          "durationTicks": 29,
          "midi": 68,
          "name": "G#4",
          "ticks": 78600,
          "time": 295.892287,
          "velocity": 0.7874015748031497
        },
        {
          "duration": 0.11788620833334562,
          "durationTicks": 29,
          "midi": 59,
          "name": "B3",
          "ticks": 78630,
          "time": 296.01423825,
          "velocity": 0.7874015748031497
        },
        {
          "duration": 0.11788620833334562,
          "durationTicks": 29,
          "midi": 64,
          "name": "E4",
          "ticks": 78660,
          "time": 296.1361895,
          "velocity": 0.7874015748031497
        },
        {
          "duration": 0.11788620833334562,
          "durationTicks": 29,
          "midi": 59,
          "name": "B3",
          "ticks": 78690,
          "time": 296.25814075,
          "velocity": 0.7874015748031497
        },
        {
          "duration": 0.11881379166663919,
          "durationTicks": 29,
          "midi": 66,
          "name": "F#4",
          "ticks": 78720,
          "time": 296.380092,
          "velocity": 0.7874015748031497
        },
        {
          "duration": 0.12336307499998611,
          "durationTicks": 29,
          "midi": 59,
          "name": "B3",
          "ticks": 78750,
          "time": 296.5030551666667,
          "velocity": 0.7874015748031497
        },
        {
          "duration": 0.12865307499998835,
          "durationTicks": 29,
          "midi": 63,
          "name": "D#4",
          "ticks": 78780,
          "time": 296.63072858333334,
          "velocity": 0.7874015748031497
        },
        {
          "duration": 0.1342119166666862,
          "durationTicks": 29,
          "midi": 59,
          "name": "B3",
          "ticks": 78810,
          "time": 296.7638861666667,
          "velocity": 0.7874015748031497
        },
        {
          "duration": 0.14026322500001243,
          "durationTicks": 29,
          "midi": 64,
          "name": "E4",
          "ticks": 78840,
          "time": 296.9027929166667,
          "velocity": 0.7874015748031497
        },
        {
          "duration": 0.1471531916666322,
          "durationTicks": 29,
          "midi": 59,
          "name": "B3",
          "ticks": 78870,
          "time": 297.0479822500001,
          "velocity": 0.7874015748031497
        },
        {
          "duration": 0.1541961749999814,
          "durationTicks": 29,
          "midi": 63,
          "name": "D#4",
          "ticks": 78900,
          "time": 297.20029008333336,
          "velocity": 0.7874015748031497
        },
        {
          "duration": 0.16285688333334747,
          "durationTicks": 29,
          "midi": 59,
          "name": "B3",
          "ticks": 78930,
          "time": 297.3598916666667,
          "velocity": 0.7874015748031497
        },
        {
          "duration": 0.17152798333330566,
          "durationTicks": 29,
          "midi": 64,
          "name": "E4",
          "ticks": 78960,
          "time": 297.52846283333344,
          "velocity": 0.7874015748031497
        },
        {
          "duration": 0.18193507499995576,
          "durationTicks": 29,
          "midi": 59,
          "name": "B3",
          "ticks": 78990,
          "time": 297.7060149166668,
          "velocity": 0.7874015748031497
        },
        {
          "duration": 0.19325069166666253,
          "durationTicks": 29,
          "midi": 63,
          "name": "D#4",
          "ticks": 79020,
          "time": 297.8943602500001,
          "velocity": 0.7874015748031497
        },
        {
          "duration": 0.20605981666659545,
          "durationTicks": 29,
          "midi": 59,
          "name": "B3",
          "ticks": 79050,
          "time": 298.0944136666668,
          "velocity": 0.7874015748031497
        },
        {
          "duration": 0.2212752499999624,
          "durationTicks": 29,
          "midi": 64,
          "name": "E4",
          "ticks": 79080,
          "time": 298.30777275000014,
          "velocity": 0.7874015748031497
        },
        {
          "duration": 0.23759747499997275,
          "durationTicks": 29,
          "midi": 59,
          "name": "B3",
          "ticks": 79110,
          "time": 298.53686050000016,
          "velocity": 0.7874015748031497
        },
        {
          "duration": 0.258811025,
          "durationTicks": 29,
          "midi": 63,
          "name": "D#4",
          "ticks": 79140,
          "time": 298.7828613333335,
          "velocity": 0.7874015748031497
        },
        {
          "duration": 0.2814269999998942,
          "durationTicks": 29,
          "midi": 59,
          "name": "B3",
          "ticks": 79170,
          "time": 299.05084666666687,
          "velocity": 0.7874015748031497
        }
      ],
      "endOfTrackTicks": 79199
    },
    {
      "channel": 1,
      "controlChanges": {
        "7": [
          {
            "number": 7,
            "ticks": 0,
            "time": 0,
            "value": 0.5511811023622047
          }
        ],
        "10": [
          {
            "number": 10,
            "ticks": 0,
            "time": 0,
            "value": 0.07874015748031496
          }
        ]
      },
      "pitchBends": [],
      "instrument": {
        "family": "guitar",
        "number": 29,
        "name": "overdriven guitar"
      },
      "name": "Gt 1 - Rythmn",
      "notes": [
        {
          "duration": 0.2218045999999987,
          "durationTicks": 59,
          "midi": 47,
          "name": "B2",
          "ticks": 15840,
          "time": 59.548896,
          "velocity": 0.7874015748031497
        },
        {
          "duration": 0.10902260000000297,
          "durationTicks": 29,
          "midi": 59,
          "name": "B3",
          "ticks": 15870,
          "time": 59.661677999999995,
          "velocity": 0.7874015748031497
        },
        {
          "duration": 0.10902260000000297,
          "durationTicks": 29,
          "midi": 54,
          "name": "F#3",
          "ticks": 15870,
          "time": 59.661677999999995,
          "velocity": 0.7874015748031497
        },
        {
          "duration": 0.44736860000000434,
          "durationTicks": 119,
          "midi": 47,
          "name": "B2",
          "ticks": 15900,
          "time": 59.77446,
          "velocity": 0.7874015748031497
        },
        {
          "duration": 0.2218046000000058,
          "durationTicks": 59,
          "midi": 59,
          "name": "B3",
          "ticks": 15960,
          "time": 60.000023999999996,
          "velocity": 0.7874015748031497
        },
        {
          "duration": 0.2218046000000058,
          "durationTicks": 59,
          "midi": 54,
          "name": "F#3",
          "ticks": 15960,
          "time": 60.000023999999996,
          "velocity": 0.7874015748031497
        },
        {
          "duration": 0.2218046000000058,
          "durationTicks": 59,
          "midi": 47,
          "name": "B2",
          "ticks": 16020,
          "time": 60.225587999999995,
          "velocity": 0.7874015748031497
        },
        {
          "duration": 0.10902260000000297,
          "durationTicks": 29,
          "midi": 54,
          "name": "F#3",
          "ticks": 16050,
          "time": 60.33837,
          "velocity": 0.7874015748031497
        },
        {
          "duration": 0.10902260000000297,
          "durationTicks": 29,
          "midi": 59,
          "name": "B3",
          "ticks": 16050,
          "time": 60.33837,
          "velocity": 0.7874015748031497
        },
        {
          "duration": 0.10902260000001007,
          "durationTicks": 29,
          "midi": 47,
          "name": "B2",
          "ticks": 16080,
          "time": 60.45115199999999,
          "velocity": 0.7874015748031497
        },
        {
          "duration": 0.10902260000000297,
          "durationTicks": 29,
          "midi": 54,
          "name": "F#3",
          "ticks": 16110,
          "time": 60.563933999999996,
          "velocity": 0.47244094488188976
        },
        {
          "duration": 0.10902260000000297,
          "durationTicks": 29,
          "midi": 59,
          "name": "B3",
          "ticks": 16110,
          "time": 60.563933999999996,
          "velocity": 0.7874015748031497
        },
        {
          "duration": 0.2218045999999987,
          "durationTicks": 59,
          "midi": 47,
          "name": "B2",
          "ticks": 16140,
          "time": 60.676716,
          "velocity": 0.7874015748031497
        },
        {
          "duration": 0.3345866000000015,
          "durationTicks": 89,
          "midi": 54,
          "name": "F#3",
          "ticks": 16200,
          "time": 60.90228,
          "velocity": 0.7874015748031497
        },
        {
          "duration": 0.3345866000000015,
          "durationTicks": 89,
          "midi": 59,
          "name": "B3",
          "ticks": 16200,
          "time": 60.90228,
          "velocity": 0.7874015748031497
        },
        {
          "duration": 0.2218046000000058,
          "durationTicks": 59,
          "midi": 47,
          "name": "B2",
          "ticks": 16260,
          "time": 61.127843999999996,
          "velocity": 0.7874015748031497
        },
        {
          "duration": 0.2218046000000058,
          "durationTicks": 59,
          "midi": 47,
          "name": "B2",
          "ticks": 16320,
          "time": 61.353407999999995,
          "velocity": 0.7874015748031497
        },
        {
          "duration": 0.10902260000000297,
          "durationTicks": 29,
          "midi": 59,
          "name": "B3",
          "ticks": 16350,
          "time": 61.46619,
          "velocity": 0.7874015748031497
        },
        {
          "duration": 0.10902260000000297,
          "durationTicks": 29,
          "midi": 54,
          "name": "F#3",
          "ticks": 16350,
          "time": 61.46619,
          "velocity": 0.7874015748031497
        },
        {
          "duration": 0.44736860000000434,
          "durationTicks": 119,
          "midi": 47,
          "name": "B2",
          "ticks": 16380,
          "time": 61.57897199999999,
          "velocity": 0.7874015748031497
        },
        {
          "duration": 0.2218045999999987,
          "durationTicks": 59,
          "midi": 59,
          "name": "B3",
          "ticks": 16440,
          "time": 61.804536,
          "velocity": 0.7874015748031497
        },
        {
          "duration": 0.2218045999999987,
          "durationTicks": 59,
          "midi": 54,
          "name": "F#3",
          "ticks": 16440,
          "time": 61.804536,
          "velocity": 0.7874015748031497
        },
        {
          "duration": 0.2218046000000058,
          "durationTicks": 59,
          "midi": 47,
          "name": "B2",
          "ticks": 16500,
          "time": 62.0301,
          "velocity": 0.7874015748031497
        },
        {
          "duration": 0.10902260000001007,
          "durationTicks": 29,
          "midi": 54,
          "name": "F#3",
          "ticks": 16530,
          "time": 62.14288199999999,
          "velocity": 0.7874015748031497
        },
        {
          "duration": 0.10902260000001007,
          "durationTicks": 29,
          "midi": 59,
          "name": "B3",
          "ticks": 16530,
          "time": 62.14288199999999,
          "velocity": 0.7874015748031497
        },
        {
          "duration": 0.10902260000000297,
          "durationTicks": 29,
          "midi": 47,
          "name": "B2",
          "ticks": 16560,
          "time": 62.255663999999996,
          "velocity": 0.7874015748031497
        },
        {
          "duration": 0.10902260000000297,
          "durationTicks": 29,
          "midi": 54,
          "name": "F#3",
          "ticks": 16590,
          "time": 62.368446,
          "velocity": 0.47244094488188976
        },
        {
          "duration": 0.10902260000000297,
          "durationTicks": 29,
          "midi": 59,
          "name": "B3",
          "ticks": 16590,
          "time": 62.368446,
          "velocity": 0.7874015748031497
        },
        {
          "duration": 0.2218046000000058,
          "durationTicks": 59,
          "midi": 47,
          "name": "B2",
          "ticks": 16620,
          "time": 62.481227999999994,
          "velocity": 0.7874015748031497
        },
        {
          "duration": 0.3345866000000086,
          "durationTicks": 89,
          "midi": 54,
          "name": "F#3",
          "ticks": 16680,
          "time": 62.70679199999999,
          "velocity": 0.7874015748031497
        },
        {
          "duration": 0.3345866000000086,
          "durationTicks": 89,
          "midi": 59,
          "name": "B3",
          "ticks": 16680,
          "time": 62.70679199999999,
          "velocity": 0.7874015748031497
        },
        {
          "duration": 0.2218045999999987,
          "durationTicks": 59,
          "midi": 47,
          "name": "B2",
          "ticks": 16740,
          "time": 62.932356,
          "velocity": 0.7874015748031497
        },
        {
          "duration": 0.2218046000000058,
          "durationTicks": 59,
          "midi": 47,
          "name": "B2",
          "ticks": 16800,
          "time": 63.15792,
          "velocity": 0.7874015748031497
        },
        {
          "duration": 0.10902260000001007,
          "durationTicks": 29,
          "midi": 59,
          "name": "B3",
          "ticks": 16830,
          "time": 63.27070199999999,
          "velocity": 0.7874015748031497
        },
        {
          "duration": 0.10902260000001007,
          "durationTicks": 29,
          "midi": 54,
          "name": "F#3",
          "ticks": 16830,
          "time": 63.27070199999999,
          "velocity": 0.7874015748031497
        },
        {
          "duration": 0.44736860000000434,
          "durationTicks": 119,
          "midi": 47,
          "name": "B2",
          "ticks": 16860,
          "time": 63.383483999999996,
          "velocity": 0.7874015748031497
        },
        {
          "duration": 0.2218046000000058,
          "durationTicks": 59,
          "midi": 59,
          "name": "B3",
          "ticks": 16920,
          "time": 63.609047999999994,
          "velocity": 0.7874015748031497
        },
        {
          "duration": 0.2218046000000058,
          "durationTicks": 59,
          "midi": 54,
          "name": "F#3",
          "ticks": 16920,
          "time": 63.609047999999994,
          "velocity": 0.7874015748031497
        },
        {
          "duration": 0.2218046000000129,
          "durationTicks": 59,
          "midi": 47,
          "name": "B2",
          "ticks": 16980,
          "time": 63.83461199999999,
          "velocity": 0.7874015748031497
        },
        {
          "duration": 0.10902260000001007,
          "durationTicks": 29,
          "midi": 54,
          "name": "F#3",
          "ticks": 17010,
          "time": 63.947393999999996,
          "velocity": 0.7874015748031497
        },
        {
          "duration": 0.10902260000001007,
          "durationTicks": 29,
          "midi": 59,
          "name": "B3",
          "ticks": 17010,
          "time": 63.947393999999996,
          "velocity": 0.7874015748031497
        },
        {
          "duration": 0.10902260000000297,
          "durationTicks": 29,
          "midi": 47,
          "name": "B2",
          "ticks": 17040,
          "time": 64.060176,
          "velocity": 0.7874015748031497
        },
        {
          "duration": 0.10902260000000297,
          "durationTicks": 29,
          "midi": 54,
          "name": "F#3",
          "ticks": 17070,
          "time": 64.172958,
          "velocity": 0.47244094488188976
        },
        {
          "duration": 0.10902260000000297,
          "durationTicks": 29,
          "midi": 59,
          "name": "B3",
          "ticks": 17070,
          "time": 64.172958,
          "velocity": 0.7874015748031497
        },
        {
          "duration": 0.2218046000000129,
          "durationTicks": 59,
          "midi": 47,
          "name": "B2",
          "ticks": 17100,
          "time": 64.28573999999999,
          "velocity": 0.7874015748031497
        },
        {
          "duration": 0.3345866000000086,
          "durationTicks": 89,
          "midi": 54,
          "name": "F#3",
          "ticks": 17160,
          "time": 64.511304,
          "velocity": 0.7874015748031497
        },
        {
          "duration": 0.3345866000000086,
          "durationTicks": 89,
          "midi": 59,
          "name": "B3",
          "ticks": 17160,
          "time": 64.511304,
          "velocity": 0.7874015748031497
        },
        {
          "duration": 0.2218045999999987,
          "durationTicks": 59,
          "midi": 47,
          "name": "B2",
          "ticks": 17220,
          "time": 64.736868,
          "velocity": 0.7874015748031497
        },
        {
          "duration": 0.2218046000000129,
          "durationTicks": 59,
          "midi": 47,
          "name": "B2",
          "ticks": 17280,
          "time": 64.96243199999999,
          "velocity": 0.7874015748031497
        },
        {
          "duration": 0.10902260000000297,
          "durationTicks": 29,
          "midi": 59,
          "name": "B3",
          "ticks": 17310,
          "time": 65.075214,
          "velocity": 0.7874015748031497
        },
        {
          "duration": 0.10902260000000297,
          "durationTicks": 29,
          "midi": 54,
          "name": "F#3",
          "ticks": 17310,
          "time": 65.075214,
          "velocity": 0.7874015748031497
        },
        {
          "duration": 0.44736860000000434,
          "durationTicks": 119,
          "midi": 47,
          "name": "B2",
          "ticks": 17340,
          "time": 65.187996,
          "velocity": 0.7874015748031497
        },
        {
          "duration": 0.2218046000000129,
          "durationTicks": 59,
          "midi": 59,
          "name": "B3",
          "ticks": 17400,
          "time": 65.41355999999999,
          "velocity": 0.7874015748031497
        },
        {
          "duration": 0.2218046000000129,
          "durationTicks": 59,
          "midi": 54,
          "name": "F#3",
          "ticks": 17400,
          "time": 65.41355999999999,
          "velocity": 0.7874015748031497
        },
        {
          "duration": 0.2218045999999987,
          "durationTicks": 59,
          "midi": 47,
          "name": "B2",
          "ticks": 17460,
          "time": 65.639124,
          "velocity": 0.7874015748031497
        },
        {
          "duration": 0.10902260000000297,
          "durationTicks": 29,
          "midi": 54,
          "name": "F#3",
          "ticks": 17490,
          "time": 65.75190599999999,
          "velocity": 0.7874015748031497
        },
        {
          "duration": 0.10902260000000297,
          "durationTicks": 29,
          "midi": 59,
          "name": "B3",
          "ticks": 17490,
          "time": 65.75190599999999,
          "velocity": 0.7874015748031497
        },
        {
          "duration": 0.10902260000000297,
          "durationTicks": 29,
          "midi": 47,
          "name": "B2",
          "ticks": 17520,
          "time": 65.864688,
          "velocity": 0.7874015748031497
        },
        {
          "duration": 0.10902260000000297,
          "durationTicks": 29,
          "midi": 54,
          "name": "F#3",
          "ticks": 17550,
          "time": 65.97747,
          "velocity": 0.47244094488188976
        },
        {
          "duration": 0.10902260000000297,
          "durationTicks": 29,
          "midi": 59,
          "name": "B3",
          "ticks": 17550,
          "time": 65.97747,
          "velocity": 0.7874015748031497
        },
        {
          "duration": 0.2218046000000129,
          "durationTicks": 59,
          "midi": 47,
          "name": "B2",
          "ticks": 17580,
          "time": 66.09025199999999,
          "velocity": 0.7874015748031497
        },
        {
          "duration": 0.3345865999999944,
          "durationTicks": 89,
          "midi": 54,
          "name": "F#3",
          "ticks": 17640,
          "time": 66.315816,
          "velocity": 0.7874015748031497
        },
        {
          "duration": 0.3345865999999944,
          "durationTicks": 89,
          "midi": 59,
          "name": "B3",
          "ticks": 17640,
          "time": 66.315816,
          "velocity": 0.7874015748031497
        },
        {
          "duration": 0.2218046000000129,
          "durationTicks": 59,
          "midi": 47,
          "name": "B2",
          "ticks": 17700,
          "time": 66.54137999999999,
          "velocity": 0.7874015748031497
        },
        {
          "duration": 0.2218045999999987,
          "durationTicks": 59,
          "midi": 47,
          "name": "B2",
          "ticks": 17760,
          "time": 66.766944,
          "velocity": 0.7874015748031497
        },
        {
          "duration": 0.10902260000000297,
          "durationTicks": 29,
          "midi": 59,
          "name": "B3",
          "ticks": 17790,
          "time": 66.87972599999999,
          "velocity": 0.7874015748031497
        },
        {
          "duration": 0.10902260000000297,
          "durationTicks": 29,
          "midi": 54,
          "name": "F#3",
          "ticks": 17790,
          "time": 66.87972599999999,
          "velocity": 0.7874015748031497
        },
        {
          "duration": 0.44736860000000434,
          "durationTicks": 119,
          "midi": 47,
          "name": "B2",
          "ticks": 17820,
          "time": 66.992508,
          "velocity": 0.7874015748031497
        },
        {
          "duration": 0.2218046000000129,
          "durationTicks": 59,
          "midi": 59,
          "name": "B3",
          "ticks": 17880,
          "time": 67.21807199999999,
          "velocity": 0.7874015748031497
        },
        {
          "duration": 0.2218046000000129,
          "durationTicks": 59,
          "midi": 54,
          "name": "F#3",
          "ticks": 17880,
          "time": 67.21807199999999,
          "velocity": 0.7874015748031497
        },
        {
          "duration": 0.2218045999999987,
          "durationTicks": 59,
          "midi": 47,
          "name": "B2",
          "ticks": 17940,
          "time": 67.443636,
          "velocity": 0.7874015748031497
        },
        {
          "duration": 0.10902260000000297,
          "durationTicks": 29,
          "midi": 54,
          "name": "F#3",
          "ticks": 17970,
          "time": 67.556418,
          "velocity": 0.7874015748031497
        },
        {
          "duration": 0.10902260000000297,
          "durationTicks": 29,
          "midi": 59,
          "name": "B3",
          "ticks": 17970,
          "time": 67.556418,
          "velocity": 0.7874015748031497
        },
        {
          "duration": 0.10902260000001718,
          "durationTicks": 29,
          "midi": 47,
          "name": "B2",
          "ticks": 18000,
          "time": 67.66919999999999,
          "velocity": 0.7874015748031497
        },
        {
          "duration": 0.10902260000000297,
          "durationTicks": 29,
          "midi": 54,
          "name": "F#3",
          "ticks": 18030,
          "time": 67.781982,
          "velocity": 0.47244094488188976
        },
        {
          "duration": 0.10902260000000297,
          "durationTicks": 29,
          "midi": 59,
          "name": "B3",
          "ticks": 18030,
          "time": 67.781982,
          "velocity": 0.7874015748031497
        },
        {
          "duration": 0.2218045999999987,
          "durationTicks": 59,
          "midi": 47,
          "name": "B2",
          "ticks": 18060,
          "time": 67.894764,
          "velocity": 0.7874015748031497
        },
        {
          "duration": 0.3345865999999944,
          "durationTicks": 89,
          "midi": 54,
          "name": "F#3",
          "ticks": 18120,
          "time": 68.120328,
          "velocity": 0.7874015748031497
        },
        {
          "duration": 0.3345865999999944,
          "durationTicks": 89,
          "midi": 59,
          "name": "B3",
          "ticks": 18120,
          "time": 68.120328,
          "velocity": 0.7874015748031497
        },
        {
          "duration": 0.2218046000000129,
          "durationTicks": 59,
          "midi": 47,
          "name": "B2",
          "ticks": 18180,
          "time": 68.34589199999999,
          "velocity": 0.7874015748031497
        },
        {
          "duration": 0.2218045999999987,
          "durationTicks": 59,
          "midi": 47,
          "name": "B2",
          "ticks": 18240,
          "time": 68.571456,
          "velocity": 0.7874015748031497
        },
        {
          "duration": 0.10902260000000297,
          "durationTicks": 29,
          "midi": 59,
          "name": "B3",
          "ticks": 18270,
          "time": 68.684238,
          "velocity": 0.7874015748031497
        },
        {
          "duration": 0.10902260000000297,
          "durationTicks": 29,
          "midi": 54,
          "name": "F#3",
          "ticks": 18270,
          "time": 68.684238,
          "velocity": 0.7874015748031497
        },
        {
          "duration": 0.44736860000000434,
          "durationTicks": 119,
          "midi": 47,
          "name": "B2",
          "ticks": 18300,
          "time": 68.79701999999999,
          "velocity": 0.7874015748031497
        },
        {
          "duration": 0.2218045999999987,
          "durationTicks": 59,
          "midi": 59,
          "name": "B3",
          "ticks": 18360,
          "time": 69.022584,
          "velocity": 0.7874015748031497
        },
        {
          "duration": 0.2218045999999987,
          "durationTicks": 59,
          "midi": 54,
          "name": "F#3",
          "ticks": 18360,
          "time": 69.022584,
          "velocity": 0.7874015748031497
        },
        {
          "duration": 0.2218045999999987,
          "durationTicks": 59,
          "midi": 47,
          "name": "B2",
          "ticks": 18420,
          "time": 69.248148,
          "velocity": 0.7874015748031497
        },
        {
          "duration": 0.10902260000000297,
          "durationTicks": 29,
          "midi": 54,
          "name": "F#3",
          "ticks": 18450,
          "time": 69.36093,
          "velocity": 0.7874015748031497
        },
        {
          "duration": 0.10902260000000297,
          "durationTicks": 29,
          "midi": 59,
          "name": "B3",
          "ticks": 18450,
          "time": 69.36093,
          "velocity": 0.7874015748031497
        },
        {
          "duration": 0.10902260000000297,
          "durationTicks": 29,
          "midi": 47,
          "name": "B2",
          "ticks": 18480,
          "time": 69.47371199999999,
          "velocity": 0.7874015748031497
        },
        {
          "duration": 0.10902260000000297,
          "durationTicks": 29,
          "midi": 54,
          "name": "F#3",
          "ticks": 18510,
          "time": 69.586494,
          "velocity": 0.47244094488188976
        },
        {
          "duration": 0.10902260000000297,
          "durationTicks": 29,
          "midi": 59,
          "name": "B3",
          "ticks": 18510,
          "time": 69.586494,
          "velocity": 0.7874015748031497
        },
        {
          "duration": 0.2218045999999987,
          "durationTicks": 59,
          "midi": 47,
          "name": "B2",
          "ticks": 18540,
          "time": 69.699276,
          "velocity": 0.7874015748031497
        },
        {
          "duration": 0.3345866000000086,
          "durationTicks": 89,
          "midi": 54,
          "name": "F#3",
          "ticks": 18600,
          "time": 69.92483999999999,
          "velocity": 0.7874015748031497
        },
        {
          "duration": 0.3345866000000086,
          "durationTicks": 89,
          "midi": 59,
          "name": "B3",
          "ticks": 18600,
          "time": 69.92483999999999,
          "velocity": 0.7874015748031497
        },
        {
          "duration": 0.2218045999999987,
          "durationTicks": 59,
          "midi": 47,
          "name": "B2",
          "ticks": 18660,
          "time": 70.150404,
          "velocity": 0.7874015748031497
        },
        {
          "duration": 0.2218045999999987,
          "durationTicks": 59,
          "midi": 47,
          "name": "B2",
          "ticks": 18720,
          "time": 70.375968,
          "velocity": 0.7874015748031497
        },
        {
          "duration": 0.10902260000000297,
          "durationTicks": 29,
          "midi": 59,
          "name": "B3",
          "ticks": 18750,
          "time": 70.48875,
          "velocity": 0.7874015748031497
        },
        {
          "duration": 0.10902260000000297,
          "durationTicks": 29,
          "midi": 54,
          "name": "F#3",
          "ticks": 18750,
          "time": 70.48875,
          "velocity": 0.7874015748031497
        },
        {
          "duration": 0.44736860000000434,
          "durationTicks": 119,
          "midi": 47,
          "name": "B2",
          "ticks": 18780,
          "time": 70.60153199999999,
          "velocity": 0.7874015748031497
        },
        {
          "duration": 0.2218045999999987,
          "durationTicks": 59,
          "midi": 59,
          "name": "B3",
          "ticks": 18840,
          "time": 70.827096,
          "velocity": 0.7874015748031497
        },
        {
          "duration": 0.2218045999999987,
          "durationTicks": 59,
          "midi": 54,
          "name": "F#3",
          "ticks": 18840,
          "time": 70.827096,
          "velocity": 0.7874015748031497
        },
        {
          "duration": 0.2218046000000129,
          "durationTicks": 59,
          "midi": 47,
          "name": "B2",
          "ticks": 18900,
          "time": 71.05265999999999,
          "velocity": 0.7874015748031497
        },
        {
          "duration": 0.10902260000000297,
          "durationTicks": 29,
          "midi": 54,
          "name": "F#3",
          "ticks": 18930,
          "time": 71.165442,
          "velocity": 0.7874015748031497
        },
        {
          "duration": 0.10902260000000297,
          "durationTicks": 29,
          "midi": 59,
          "name": "B3",
          "ticks": 18930,
          "time": 71.165442,
          "velocity": 0.7874015748031497
        },
        {
          "duration": 0.10902260000000297,
          "durationTicks": 29,
          "midi": 47,
          "name": "B2",
          "ticks": 18960,
          "time": 71.278224,
          "velocity": 0.7874015748031497
        },
        {
          "duration": 0.10902260000000297,
          "durationTicks": 29,
          "midi": 54,
          "name": "F#3",
          "ticks": 18990,
          "time": 71.39100599999999,
          "velocity": 0.47244094488188976
        },
        {
          "duration": 0.10902260000000297,
          "durationTicks": 29,
          "midi": 59,
          "name": "B3",
          "ticks": 18990,
          "time": 71.39100599999999,
          "velocity": 0.7874015748031497
        },
        {
          "duration": 0.2218045999999987,
          "durationTicks": 59,
          "midi": 47,
          "name": "B2",
          "ticks": 19020,
          "time": 71.503788,
          "velocity": 0.7874015748031497
        },
        {
          "duration": 0.3345866000000086,
          "durationTicks": 89,
          "midi": 54,
          "name": "F#3",
          "ticks": 19080,
          "time": 71.72935199999999,
          "velocity": 0.7874015748031497
        },
        {
          "duration": 0.3345866000000086,
          "durationTicks": 89,
          "midi": 59,
          "name": "B3",
          "ticks": 19080,
          "time": 71.72935199999999,
          "velocity": 0.7874015748031497
        },
        {
          "duration": 0.2218045999999987,
          "durationTicks": 59,
          "midi": 47,
          "name": "B2",
          "ticks": 19140,
          "time": 71.954916,
          "velocity": 0.7874015748031497
        },
        {
          "duration": 0.2218046000000129,
          "durationTicks": 59,
          "midi": 47,
          "name": "B2",
          "ticks": 19200,
          "time": 72.18047999999999,
          "velocity": 0.7874015748031497
        },
        {
          "duration": 0.10902260000000297,
          "durationTicks": 29,
          "midi": 59,
          "name": "B3",
          "ticks": 19230,
          "time": 72.293262,
          "velocity": 0.7874015748031497
        },
        {
          "duration": 0.10902260000000297,
          "durationTicks": 29,
          "midi": 54,
          "name": "F#3",
          "ticks": 19230,
          "time": 72.293262,
          "velocity": 0.7874015748031497
        },
        {
          "duration": 0.44736860000000434,
          "durationTicks": 119,
          "midi": 47,
          "name": "B2",
          "ticks": 19260,
          "time": 72.406044,
          "velocity": 0.7874015748031497
        },
        {
          "duration": 0.2218045999999987,
          "durationTicks": 59,
          "midi": 59,
          "name": "B3",
          "ticks": 19320,
          "time": 72.631608,
          "velocity": 0.7874015748031497
        },
        {
          "duration": 0.2218045999999987,
          "durationTicks": 59,
          "midi": 54,
          "name": "F#3",
          "ticks": 19320,
          "time": 72.631608,
          "velocity": 0.7874015748031497
        },
        {
          "duration": 0.2218046000000129,
          "durationTicks": 59,
          "midi": 47,
          "name": "B2",
          "ticks": 19380,
          "time": 72.85717199999999,
          "velocity": 0.7874015748031497
        },
        {
          "duration": 0.10902260000000297,
          "durationTicks": 29,
          "midi": 54,
          "name": "F#3",
          "ticks": 19410,
          "time": 72.969954,
          "velocity": 0.7874015748031497
        },
        {
          "duration": 0.10902260000000297,
          "durationTicks": 29,
          "midi": 59,
          "name": "B3",
          "ticks": 19410,
          "time": 72.969954,
          "velocity": 0.7874015748031497
        },
        {
          "duration": 0.10902260000000297,
          "durationTicks": 29,
          "midi": 47,
          "name": "B2",
          "ticks": 19440,
          "time": 73.082736,
          "velocity": 0.7874015748031497
        },
        {
          "duration": 0.10902260000000297,
          "durationTicks": 29,
          "midi": 54,
          "name": "F#3",
          "ticks": 19470,
          "time": 73.19551799999999,
          "velocity": 0.47244094488188976
        },
        {
          "duration": 0.10902260000000297,
          "durationTicks": 29,
          "midi": 59,
          "name": "B3",
          "ticks": 19470,
          "time": 73.19551799999999,
          "velocity": 0.7874015748031497
        },
        {
          "duration": 0.2218045999999987,
          "durationTicks": 59,
          "midi": 47,
          "name": "B2",
          "ticks": 19500,
          "time": 73.3083,
          "velocity": 0.7874015748031497
        },
        {
          "duration": 0.3345866000000086,
          "durationTicks": 89,
          "midi": 54,
          "name": "F#3",
          "ticks": 19560,
          "time": 73.533864,
          "velocity": 0.7874015748031497
        },
        {
          "duration": 0.3345866000000086,
          "durationTicks": 89,
          "midi": 59,
          "name": "B3",
          "ticks": 19560,
          "time": 73.533864,
          "velocity": 0.7874015748031497
        },
        {
          "duration": 0.2218045999999987,
          "durationTicks": 59,
          "midi": 47,
          "name": "B2",
          "ticks": 19620,
          "time": 73.759428,
          "velocity": 0.7874015748031497
        },
        {
          "duration": 0.2218046000000129,
          "durationTicks": 59,
          "midi": 47,
          "name": "B2",
          "ticks": 19680,
          "time": 73.98499199999999,
          "velocity": 0.7874015748031497
        },
        {
          "duration": 0.10902260000000297,
          "durationTicks": 29,
          "midi": 59,
          "name": "B3",
          "ticks": 19710,
          "time": 74.097774,
          "velocity": 0.7874015748031497
        },
        {
          "duration": 0.10902260000000297,
          "durationTicks": 29,
          "midi": 54,
          "name": "F#3",
          "ticks": 19710,
          "time": 74.097774,
          "velocity": 0.7874015748031497
        },
        {
          "duration": 0.44736860000000434,
          "durationTicks": 119,
          "midi": 47,
          "name": "B2",
          "ticks": 19740,
          "time": 74.210556,
          "velocity": 0.7874015748031497
        },
        {
          "duration": 0.2218045999999987,
          "durationTicks": 59,
          "midi": 59,
          "name": "B3",
          "ticks": 19800,
          "time": 74.43612,
          "velocity": 0.7874015748031497
        },
        {
          "duration": 0.2218045999999987,
          "durationTicks": 59,
          "midi": 54,
          "name": "F#3",
          "ticks": 19800,
          "time": 74.43612,
          "velocity": 0.7874015748031497
        },
        {
          "duration": 0.2218045999999987,
          "durationTicks": 59,
          "midi": 47,
          "name": "B2",
          "ticks": 19860,
          "time": 74.661684,
          "velocity": 0.7874015748031497
        },
        {
          "duration": 0.10902260000000297,
          "durationTicks": 29,
          "midi": 54,
          "name": "F#3",
          "ticks": 19890,
          "time": 74.77446599999999,
          "velocity": 0.7874015748031497
        },
        {
          "duration": 0.10902260000000297,
          "durationTicks": 29,
          "midi": 59,
          "name": "B3",
          "ticks": 19890,
          "time": 74.77446599999999,
          "velocity": 0.7874015748031497
        },
        {
          "duration": 0.10902260000000297,
          "durationTicks": 29,
          "midi": 47,
          "name": "B2",
          "ticks": 19920,
          "time": 74.887248,
          "velocity": 0.7874015748031497
        },
        {
          "duration": 0.10902260000000297,
          "durationTicks": 29,
          "midi": 54,
          "name": "F#3",
          "ticks": 19950,
          "time": 75.00003,
          "velocity": 0.47244094488188976
        },
        {
          "duration": 0.10902260000000297,
          "durationTicks": 29,
          "midi": 59,
          "name": "B3",
          "ticks": 19950,
          "time": 75.00003,
          "velocity": 0.7874015748031497
        },
        {
          "duration": 0.2218046000000129,
          "durationTicks": 59,
          "midi": 47,
          "name": "B2",
          "ticks": 19980,
          "time": 75.11281199999999,
          "velocity": 0.7874015748031497
        },
        {
          "duration": 0.3345866000000086,
          "durationTicks": 89,
          "midi": 54,
          "name": "F#3",
          "ticks": 20040,
          "time": 75.338376,
          "velocity": 0.7874015748031497
        },
        {
          "duration": 0.3345866000000086,
          "durationTicks": 89,
          "midi": 59,
          "name": "B3",
          "ticks": 20040,
          "time": 75.338376,
          "velocity": 0.7874015748031497
        },
        {
          "duration": 0.2218045999999987,
          "durationTicks": 59,
          "midi": 47,
          "name": "B2",
          "ticks": 20100,
          "time": 75.56394,
          "velocity": 0.7874015748031497
        },
        {
          "duration": 0.2218045999999987,
          "durationTicks": 59,
          "midi": 47,
          "name": "B2",
          "ticks": 20160,
          "time": 75.789504,
          "velocity": 0.7874015748031497
        },
        {
          "duration": 0.10902260000000297,
          "durationTicks": 29,
          "midi": 59,
          "name": "B3",
          "ticks": 20190,
          "time": 75.90228599999999,
          "velocity": 0.7874015748031497
        },
        {
          "duration": 0.10902260000000297,
          "durationTicks": 29,
          "midi": 54,
          "name": "F#3",
          "ticks": 20190,
          "time": 75.90228599999999,
          "velocity": 0.7874015748031497
        },
        {
          "duration": 0.44736860000000434,
          "durationTicks": 119,
          "midi": 47,
          "name": "B2",
          "ticks": 20220,
          "time": 76.015068,
          "velocity": 0.7874015748031497
        },
        {
          "duration": 0.2218046000000129,
          "durationTicks": 59,
          "midi": 59,
          "name": "B3",
          "ticks": 20280,
          "time": 76.24063199999999,
          "velocity": 0.7874015748031497
        },
        {
          "duration": 0.2218046000000129,
          "durationTicks": 59,
          "midi": 54,
          "name": "F#3",
          "ticks": 20280,
          "time": 76.24063199999999,
          "velocity": 0.7874015748031497
        },
        {
          "duration": 0.2218045999999987,
          "durationTicks": 59,
          "midi": 47,
          "name": "B2",
          "ticks": 20340,
          "time": 76.466196,
          "velocity": 0.7874015748031497
        },
        {
          "duration": 0.10902260000000297,
          "durationTicks": 29,
          "midi": 54,
          "name": "F#3",
          "ticks": 20370,
          "time": 76.57897799999999,
          "velocity": 0.7874015748031497
        },
        {
          "duration": 0.10902260000000297,
          "durationTicks": 29,
          "midi": 59,
          "name": "B3",
          "ticks": 20370,
          "time": 76.57897799999999,
          "velocity": 0.7874015748031497
        },
        {
          "duration": 0.10902260000000297,
          "durationTicks": 29,
          "midi": 47,
          "name": "B2",
          "ticks": 20400,
          "time": 76.69176,
          "velocity": 0.7874015748031497
        },
        {
          "duration": 0.10902260000000297,
          "durationTicks": 29,
          "midi": 54,
          "name": "F#3",
          "ticks": 20430,
          "time": 76.804542,
          "velocity": 0.47244094488188976
        },
        {
          "duration": 0.10902260000000297,
          "durationTicks": 29,
          "midi": 59,
          "name": "B3",
          "ticks": 20430,
          "time": 76.804542,
          "velocity": 0.7874015748031497
        },
        {
          "duration": 0.2218045999999987,
          "durationTicks": 59,
          "midi": 47,
          "name": "B2",
          "ticks": 20460,
          "time": 76.917324,
          "velocity": 0.7874015748031497
        },
        {
          "duration": 0.3345865999999944,
          "durationTicks": 89,
          "midi": 54,
          "name": "F#3",
          "ticks": 20520,
          "time": 77.142888,
          "velocity": 0.7874015748031497
        },
        {
          "duration": 0.3345865999999944,
          "durationTicks": 89,
          "midi": 59,
          "name": "B3",
          "ticks": 20520,
          "time": 77.142888,
          "velocity": 0.7874015748031497
        },
        {
          "duration": 0.2218046000000129,
          "durationTicks": 59,
          "midi": 47,
          "name": "B2",
          "ticks": 20580,
          "time": 77.36845199999999,
          "velocity": 0.7874015748031497
        },
        {
          "duration": 0.2218045999999987,
          "durationTicks": 59,
          "midi": 47,
          "name": "B2",
          "ticks": 20640,
          "time": 77.594016,
          "velocity": 0.7874015748031497
        },
        {
          "duration": 0.10902260000000297,
          "durationTicks": 29,
          "midi": 59,
          "name": "B3",
          "ticks": 20670,
          "time": 77.70679799999999,
          "velocity": 0.7874015748031497
        },
        {
          "duration": 0.10902260000000297,
          "durationTicks": 29,
          "midi": 54,
          "name": "F#3",
          "ticks": 20670,
          "time": 77.70679799999999,
          "velocity": 0.7874015748031497
        },
        {
          "duration": 0.4473685999999901,
          "durationTicks": 119,
          "midi": 47,
          "name": "B2",
          "ticks": 20700,
          "time": 77.81958,
          "velocity": 0.7874015748031497
        },
        {
          "duration": 0.2218045999999987,
          "durationTicks": 59,
          "midi": 59,
          "name": "B3",
          "ticks": 20760,
          "time": 78.045144,
          "velocity": 0.7874015748031497
        },
        {
          "duration": 0.2218045999999987,
          "durationTicks": 59,
          "midi": 54,
          "name": "F#3",
          "ticks": 20760,
          "time": 78.045144,
          "velocity": 0.7874015748031497
        },
        {
          "duration": 0.2218045999999987,
          "durationTicks": 59,
          "midi": 47,
          "name": "B2",
          "ticks": 20820,
          "time": 78.270708,
          "velocity": 0.7874015748031497
        },
        {
          "duration": 0.10902260000000297,
          "durationTicks": 29,
          "midi": 54,
          "name": "F#3",
          "ticks": 20850,
          "time": 78.38349,
          "velocity": 0.7874015748031497
        },
        {
          "duration": 0.10902260000000297,
          "durationTicks": 29,
          "midi": 59,
          "name": "B3",
          "ticks": 20850,
          "time": 78.38349,
          "velocity": 0.7874015748031497
        },
        {
          "duration": 0.10902260000000297,
          "durationTicks": 29,
          "midi": 47,
          "name": "B2",
          "ticks": 20880,
          "time": 78.49627199999999,
          "velocity": 0.7874015748031497
        },
        {
          "duration": 0.10902260000000297,
          "durationTicks": 29,
          "midi": 54,
          "name": "F#3",
          "ticks": 20910,
          "time": 78.609054,
          "velocity": 0.47244094488188976
        },
        {
          "duration": 0.10902260000000297,
          "durationTicks": 29,
          "midi": 59,
          "name": "B3",
          "ticks": 20910,
          "time": 78.609054,
          "velocity": 0.7874015748031497
        },
        {
          "duration": 0.2218045999999987,
          "durationTicks": 59,
          "midi": 47,
          "name": "B2",
          "ticks": 20940,
          "time": 78.721836,
          "velocity": 0.7874015748031497
        },
        {
          "duration": 0.3345865999999944,
          "durationTicks": 89,
          "midi": 54,
          "name": "F#3",
          "ticks": 21000,
          "time": 78.9474,
          "velocity": 0.7874015748031497
        },
        {
          "duration": 0.3345865999999944,
          "durationTicks": 89,
          "midi": 59,
          "name": "B3",
          "ticks": 21000,
          "time": 78.9474,
          "velocity": 0.7874015748031497
        },
        {
          "duration": 0.2218045999999987,
          "durationTicks": 59,
          "midi": 47,
          "name": "B2",
          "ticks": 21060,
          "time": 79.172964,
          "velocity": 0.7874015748031497
        },
        {
          "duration": 0.2218045999999987,
          "durationTicks": 59,
          "midi": 47,
          "name": "B2",
          "ticks": 21120,
          "time": 79.398528,
          "velocity": 0.7874015748031497
        },
        {
          "duration": 0.10902260000000297,
          "durationTicks": 29,
          "midi": 59,
          "name": "B3",
          "ticks": 21150,
          "time": 79.51131,
          "velocity": 0.7874015748031497
        },
        {
          "duration": 0.10902260000000297,
          "durationTicks": 29,
          "midi": 54,
          "name": "F#3",
          "ticks": 21150,
          "time": 79.51131,
          "velocity": 0.7874015748031497
        },
        {
          "duration": 0.44736860000000434,
          "durationTicks": 119,
          "midi": 47,
          "name": "B2",
          "ticks": 21180,
          "time": 79.62409199999999,
          "velocity": 0.7874015748031497
        },
        {
          "duration": 0.2218045999999987,
          "durationTicks": 59,
          "midi": 59,
          "name": "B3",
          "ticks": 21240,
          "time": 79.849656,
          "velocity": 0.7874015748031497
        },
        {
          "duration": 0.2218045999999987,
          "durationTicks": 59,
          "midi": 54,
          "name": "F#3",
          "ticks": 21240,
          "time": 79.849656,
          "velocity": 0.7874015748031497
        },
        {
          "duration": 0.2218045999999987,
          "durationTicks": 59,
          "midi": 47,
          "name": "B2",
          "ticks": 21300,
          "time": 80.07522,
          "velocity": 0.7874015748031497
        },
        {
          "duration": 0.10902260000000297,
          "durationTicks": 29,
          "midi": 54,
          "name": "F#3",
          "ticks": 21330,
          "time": 80.188002,
          "velocity": 0.7874015748031497
        },
        {
          "duration": 0.10902260000000297,
          "durationTicks": 29,
          "midi": 59,
          "name": "B3",
          "ticks": 21330,
          "time": 80.188002,
          "velocity": 0.7874015748031497
        },
        {
          "duration": 0.10902260000000297,
          "durationTicks": 29,
          "midi": 47,
          "name": "B2",
          "ticks": 21360,
          "time": 80.300784,
          "velocity": 0.7874015748031497
        },
        {
          "duration": 0.10902260000000297,
          "durationTicks": 29,
          "midi": 54,
          "name": "F#3",
          "ticks": 21390,
          "time": 80.41356599999999,
          "velocity": 0.47244094488188976
        },
        {
          "duration": 0.10902260000000297,
          "durationTicks": 29,
          "midi": 59,
          "name": "B3",
          "ticks": 21390,
          "time": 80.41356599999999,
          "velocity": 0.7874015748031497
        },
        {
          "duration": 0.2218045999999987,
          "durationTicks": 59,
          "midi": 47,
          "name": "B2",
          "ticks": 21420,
          "time": 80.526348,
          "velocity": 0.7874015748031497
        },
        {
          "duration": 0.3345866000000086,
          "durationTicks": 89,
          "midi": 54,
          "name": "F#3",
          "ticks": 21480,
          "time": 80.75191199999999,
          "velocity": 0.7874015748031497
        },
        {
          "duration": 0.3345866000000086,
          "durationTicks": 89,
          "midi": 59,
          "name": "B3",
          "ticks": 21480,
          "time": 80.75191199999999,
          "velocity": 0.7874015748031497
        },
        {
          "duration": 0.2218045999999987,
          "durationTicks": 59,
          "midi": 47,
          "name": "B2",
          "ticks": 21540,
          "time": 80.977476,
          "velocity": 0.7874015748031497
        },
        {
          "duration": 0.2218045999999987,
          "durationTicks": 59,
          "midi": 47,
          "name": "B2",
          "ticks": 21600,
          "time": 81.20304,
          "velocity": 0.7874015748031497
        },
        {
          "duration": 0.10902260000000297,
          "durationTicks": 29,
          "midi": 59,
          "name": "B3",
          "ticks": 21630,
          "time": 81.315822,
          "velocity": 0.7874015748031497
        },
        {
          "duration": 0.10902260000000297,
          "durationTicks": 29,
          "midi": 54,
          "name": "F#3",
          "ticks": 21630,
          "time": 81.315822,
          "velocity": 0.7874015748031497
        },
        {
          "duration": 0.44736860000000434,
          "durationTicks": 119,
          "midi": 47,
          "name": "B2",
          "ticks": 21660,
          "time": 81.42860399999999,
          "velocity": 0.7874015748031497
        },
        {
          "duration": 0.2218045999999987,
          "durationTicks": 59,
          "midi": 59,
          "name": "B3",
          "ticks": 21720,
          "time": 81.654168,
          "velocity": 0.7874015748031497
        },
        {
          "duration": 0.2218045999999987,
          "durationTicks": 59,
          "midi": 54,
          "name": "F#3",
          "ticks": 21720,
          "time": 81.654168,
          "velocity": 0.7874015748031497
        },
        {
          "duration": 0.2218046000000129,
          "durationTicks": 59,
          "midi": 47,
          "name": "B2",
          "ticks": 21780,
          "time": 81.87973199999999,
          "velocity": 0.7874015748031497
        },
        {
          "duration": 0.10902260000000297,
          "durationTicks": 29,
          "midi": 54,
          "name": "F#3",
          "ticks": 21810,
          "time": 81.992514,
          "velocity": 0.7874015748031497
        },
        {
          "duration": 0.10902260000000297,
          "durationTicks": 29,
          "midi": 59,
          "name": "B3",
          "ticks": 21810,
          "time": 81.992514,
          "velocity": 0.7874015748031497
        },
        {
          "duration": 0.10902260000000297,
          "durationTicks": 29,
          "midi": 47,
          "name": "B2",
          "ticks": 21840,
          "time": 82.105296,
          "velocity": 0.7874015748031497
        },
        {
          "duration": 0.10902260000000297,
          "durationTicks": 29,
          "midi": 54,
          "name": "F#3",
          "ticks": 21870,
          "time": 82.21807799999999,
          "velocity": 0.47244094488188976
        },
        {
          "duration": 0.10902260000000297,
          "durationTicks": 29,
          "midi": 59,
          "name": "B3",
          "ticks": 21870,
          "time": 82.21807799999999,
          "velocity": 0.7874015748031497
        },
        {
          "duration": 0.2218045999999987,
          "durationTicks": 59,
          "midi": 47,
          "name": "B2",
          "ticks": 21900,
          "time": 82.33086,
          "velocity": 0.7874015748031497
        },
        {
          "duration": 0.3345866000000086,
          "durationTicks": 89,
          "midi": 54,
          "name": "F#3",
          "ticks": 21960,
          "time": 82.55642399999999,
          "velocity": 0.7874015748031497
        },
        {
          "duration": 0.3345866000000086,
          "durationTicks": 89,
          "midi": 59,
          "name": "B3",
          "ticks": 21960,
          "time": 82.55642399999999,
          "velocity": 0.7874015748031497
        },
        {
          "duration": 0.2218045999999987,
          "durationTicks": 59,
          "midi": 47,
          "name": "B2",
          "ticks": 22020,
          "time": 82.781988,
          "velocity": 0.7874015748031497
        },
        {
          "duration": 0.2218046000000129,
          "durationTicks": 59,
          "midi": 47,
          "name": "B2",
          "ticks": 22080,
          "time": 83.00755199999999,
          "velocity": 0.7874015748031497
        },
        {
          "duration": 0.10902260000000297,
          "durationTicks": 29,
          "midi": 59,
          "name": "B3",
          "ticks": 22110,
          "time": 83.120334,
          "velocity": 0.7874015748031497
        },
        {
          "duration": 0.10902260000000297,
          "durationTicks": 29,
          "midi": 54,
          "name": "F#3",
          "ticks": 22110,
          "time": 83.120334,
          "velocity": 0.7874015748031497
        },
        {
          "duration": 0.44736860000000434,
          "durationTicks": 119,
          "midi": 47,
          "name": "B2",
          "ticks": 22140,
          "time": 83.233116,
          "velocity": 0.7874015748031497
        },
        {
          "duration": 0.2218045999999987,
          "durationTicks": 59,
          "midi": 59,
          "name": "B3",
          "ticks": 22200,
          "time": 83.45868,
          "velocity": 0.7874015748031497
        },
        {
          "duration": 0.2218045999999987,
          "durationTicks": 59,
          "midi": 54,
          "name": "F#3",
          "ticks": 22200,
          "time": 83.45868,
          "velocity": 0.7874015748031497
        },
        {
          "duration": 0.2218046000000129,
          "durationTicks": 59,
          "midi": 47,
          "name": "B2",
          "ticks": 22260,
          "time": 83.68424399999999,
          "velocity": 0.7874015748031497
        },
        {
          "duration": 0.10902260000001718,
          "durationTicks": 29,
          "midi": 54,
          "name": "F#3",
          "ticks": 22290,
          "time": 83.79702599999999,
          "velocity": 0.7874015748031497
        },
        {
          "duration": 0.10902260000001718,
          "durationTicks": 29,
          "midi": 59,
          "name": "B3",
          "ticks": 22290,
          "time": 83.79702599999999,
          "velocity": 0.7874015748031497
        },
        {
          "duration": 0.10902260000000297,
          "durationTicks": 29,
          "midi": 47,
          "name": "B2",
          "ticks": 22320,
          "time": 83.909808,
          "velocity": 0.7874015748031497
        },
        {
          "duration": 0.10902260000000297,
          "durationTicks": 29,
          "midi": 54,
          "name": "F#3",
          "ticks": 22350,
          "time": 84.02259,
          "velocity": 0.47244094488188976
        },
        {
          "duration": 0.10902260000000297,
          "durationTicks": 29,
          "midi": 59,
          "name": "B3",
          "ticks": 22350,
          "time": 84.02259,
          "velocity": 0.7874015748031497
        },
        {
          "duration": 0.2218046000000129,
          "durationTicks": 59,
          "midi": 47,
          "name": "B2",
          "ticks": 22380,
          "time": 84.13537199999999,
          "velocity": 0.7874015748031497
        },
        {
          "duration": 0.3345866000000086,
          "durationTicks": 89,
          "midi": 54,
          "name": "F#3",
          "ticks": 22440,
          "time": 84.360936,
          "velocity": 0.7874015748031497
        },
        {
          "duration": 0.3345866000000086,
          "durationTicks": 89,
          "midi": 59,
          "name": "B3",
          "ticks": 22440,
          "time": 84.360936,
          "velocity": 0.7874015748031497
        },
        {
          "duration": 0.2218045999999987,
          "durationTicks": 59,
          "midi": 47,
          "name": "B2",
          "ticks": 22500,
          "time": 84.5865,
          "velocity": 0.7874015748031497
        },
        {
          "duration": 0.2218046000000129,
          "durationTicks": 59,
          "midi": 47,
          "name": "B2",
          "ticks": 22560,
          "time": 84.81206399999999,
          "velocity": 0.7874015748031497
        },
        {
          "duration": 0.10902260000001718,
          "durationTicks": 29,
          "midi": 59,
          "name": "B3",
          "ticks": 22590,
          "time": 84.92484599999999,
          "velocity": 0.7874015748031497
        },
        {
          "duration": 0.10902260000001718,
          "durationTicks": 29,
          "midi": 54,
          "name": "F#3",
          "ticks": 22590,
          "time": 84.92484599999999,
          "velocity": 0.7874015748031497
        },
        {
          "duration": 0.44736860000000434,
          "durationTicks": 119,
          "midi": 47,
          "name": "B2",
          "ticks": 22620,
          "time": 85.037628,
          "velocity": 0.7874015748031497
        },
        {
          "duration": 0.2218046000000129,
          "durationTicks": 59,
          "midi": 59,
          "name": "B3",
          "ticks": 22680,
          "time": 85.26319199999999,
          "velocity": 0.7874015748031497
        },
        {
          "duration": 0.2218046000000129,
          "durationTicks": 59,
          "midi": 54,
          "name": "F#3",
          "ticks": 22680,
          "time": 85.26319199999999,
          "velocity": 0.7874015748031497
        },
        {
          "duration": 0.2218045999999987,
          "durationTicks": 59,
          "midi": 47,
          "name": "B2",
          "ticks": 22740,
          "time": 85.488756,
          "velocity": 0.7874015748031497
        },
        {
          "duration": 0.10902260000000297,
          "durationTicks": 29,
          "midi": 54,
          "name": "F#3",
          "ticks": 22770,
          "time": 85.60153799999999,
          "velocity": 0.7874015748031497
        },
        {
          "duration": 0.10902260000000297,
          "durationTicks": 29,
          "midi": 59,
          "name": "B3",
          "ticks": 22770,
          "time": 85.60153799999999,
          "velocity": 0.7874015748031497
        },
        {
          "duration": 0.10902260000000297,
          "durationTicks": 29,
          "midi": 47,
          "name": "B2",
          "ticks": 22800,
          "time": 85.71432,
          "velocity": 0.7874015748031497
        },
        {
          "duration": 0.10902260000000297,
          "durationTicks": 29,
          "midi": 54,
          "name": "F#3",
          "ticks": 22830,
          "time": 85.827102,
          "velocity": 0.47244094488188976
        },
        {
          "duration": 0.10902260000000297,
          "durationTicks": 29,
          "midi": 59,
          "name": "B3",
          "ticks": 22830,
          "time": 85.827102,
          "velocity": 0.7874015748031497
        },
        {
          "duration": 0.2218046000000129,
          "durationTicks": 59,
          "midi": 47,
          "name": "B2",
          "ticks": 22860,
          "time": 85.93988399999999,
          "velocity": 0.7874015748031497
        },
        {
          "duration": 0.3345865999999944,
          "durationTicks": 89,
          "midi": 54,
          "name": "F#3",
          "ticks": 22920,
          "time": 86.165448,
          "velocity": 0.7874015748031497
        },
        {
          "duration": 0.3345865999999944,
          "durationTicks": 89,
          "midi": 59,
          "name": "B3",
          "ticks": 22920,
          "time": 86.165448,
          "velocity": 0.7874015748031497
        },
        {
          "duration": 0.2218046000000129,
          "durationTicks": 59,
          "midi": 47,
          "name": "B2",
          "ticks": 22980,
          "time": 86.39101199999999,
          "velocity": 0.7874015748031497
        },
        {
          "duration": 0.2218045999999987,
          "durationTicks": 59,
          "midi": 47,
          "name": "B2",
          "ticks": 23040,
          "time": 86.616576,
          "velocity": 0.7874015748031497
        },
        {
          "duration": 0.10902260000000297,
          "durationTicks": 29,
          "midi": 59,
          "name": "B3",
          "ticks": 23070,
          "time": 86.72935799999999,
          "velocity": 0.7874015748031497
        },
        {
          "duration": 0.10902260000000297,
          "durationTicks": 29,
          "midi": 54,
          "name": "F#3",
          "ticks": 23070,
          "time": 86.72935799999999,
          "velocity": 0.7874015748031497
        },
        {
          "duration": 0.44736860000000434,
          "durationTicks": 119,
          "midi": 47,
          "name": "B2",
          "ticks": 23100,
          "time": 86.84214,
          "velocity": 0.7874015748031497
        },
        {
          "duration": 0.2218046000000129,
          "durationTicks": 59,
          "midi": 59,
          "name": "B3",
          "ticks": 23160,
          "time": 87.06770399999999,
          "velocity": 0.7874015748031497
        },
        {
          "duration": 0.2218046000000129,
          "durationTicks": 59,
          "midi": 54,
          "name": "F#3",
          "ticks": 23160,
          "time": 87.06770399999999,
          "velocity": 0.7874015748031497
        },
        {
          "duration": 0.2218045999999987,
          "durationTicks": 59,
          "midi": 47,
          "name": "B2",
          "ticks": 23220,
          "time": 87.293268,
          "velocity": 0.7874015748031497
        },
        {
          "duration": 0.10902260000000297,
          "durationTicks": 29,
          "midi": 54,
          "name": "F#3",
          "ticks": 23250,
          "time": 87.40605,
          "velocity": 0.7874015748031497
        },
        {
          "duration": 0.10902260000000297,
          "durationTicks": 29,
          "midi": 59,
          "name": "B3",
          "ticks": 23250,
          "time": 87.40605,
          "velocity": 0.7874015748031497
        },
        {
          "duration": 0.10902260000000297,
          "durationTicks": 29,
          "midi": 47,
          "name": "B2",
          "ticks": 23280,
          "time": 87.51883199999999,
          "velocity": 0.7874015748031497
        },
        {
          "duration": 0.10902260000000297,
          "durationTicks": 29,
          "midi": 54,
          "name": "F#3",
          "ticks": 23310,
          "time": 87.631614,
          "velocity": 0.47244094488188976
        },
        {
          "duration": 0.10902260000000297,
          "durationTicks": 29,
          "midi": 59,
          "name": "B3",
          "ticks": 23310,
          "time": 87.631614,
          "velocity": 0.7874015748031497
        },
        {
          "duration": 0.2218045999999987,
          "durationTicks": 59,
          "midi": 47,
          "name": "B2",
          "ticks": 23340,
          "time": 87.744396,
          "velocity": 0.7874015748031497
        },
        {
          "duration": 0.3345865999999944,
          "durationTicks": 89,
          "midi": 54,
          "name": "F#3",
          "ticks": 23400,
          "time": 87.96996,
          "velocity": 0.7874015748031497
        },
        {
          "duration": 0.3345865999999944,
          "durationTicks": 89,
          "midi": 59,
          "name": "B3",
          "ticks": 23400,
          "time": 87.96996,
          "velocity": 0.7874015748031497
        },
        {
          "duration": 0.2218046000000129,
          "durationTicks": 59,
          "midi": 47,
          "name": "B2",
          "ticks": 23460,
          "time": 88.19552399999999,
          "velocity": 0.7874015748031497
        },
        {
          "duration": 0.2218045999999987,
          "durationTicks": 59,
          "midi": 47,
          "name": "B2",
          "ticks": 23520,
          "time": 88.421088,
          "velocity": 0.7874015748031497
        },
        {
          "duration": 0.10902260000000297,
          "durationTicks": 29,
          "midi": 59,
          "name": "B3",
          "ticks": 23550,
          "time": 88.53387,
          "velocity": 0.7874015748031497
        },
        {
          "duration": 0.10902260000000297,
          "durationTicks": 29,
          "midi": 54,
          "name": "F#3",
          "ticks": 23550,
          "time": 88.53387,
          "velocity": 0.7874015748031497
        },
        {
          "duration": 0.44736860000000434,
          "durationTicks": 119,
          "midi": 47,
          "name": "B2",
          "ticks": 23580,
          "time": 88.64665199999999,
          "velocity": 0.7874015748031497
        },
        {
          "duration": 0.2218045999999987,
          "durationTicks": 59,
          "midi": 59,
          "name": "B3",
          "ticks": 23640,
          "time": 88.872216,
          "velocity": 0.7874015748031497
        },
        {
          "duration": 0.2218045999999987,
          "durationTicks": 59,
          "midi": 54,
          "name": "F#3",
          "ticks": 23640,
          "time": 88.872216,
          "velocity": 0.7874015748031497
        },
        {
          "duration": 0.2218045999999987,
          "durationTicks": 59,
          "midi": 47,
          "name": "B2",
          "ticks": 23700,
          "time": 89.09778,
          "velocity": 0.7874015748031497
        },
        {
          "duration": 0.10902260000000297,
          "durationTicks": 29,
          "midi": 54,
          "name": "F#3",
          "ticks": 23730,
          "time": 89.210562,
          "velocity": 0.7874015748031497
        },
        {
          "duration": 0.10902260000000297,
          "durationTicks": 29,
          "midi": 59,
          "name": "B3",
          "ticks": 23730,
          "time": 89.210562,
          "velocity": 0.7874015748031497
        },
        {
          "duration": 0.10902260000000297,
          "durationTicks": 29,
          "midi": 47,
          "name": "B2",
          "ticks": 23760,
          "time": 89.32334399999999,
          "velocity": 0.7874015748031497
        },
        {
          "duration": 0.10902260000000297,
          "durationTicks": 29,
          "midi": 54,
          "name": "F#3",
          "ticks": 23790,
          "time": 89.436126,
          "velocity": 0.47244094488188976
        },
        {
          "duration": 0.10902260000000297,
          "durationTicks": 29,
          "midi": 59,
          "name": "B3",
          "ticks": 23790,
          "time": 89.436126,
          "velocity": 0.7874015748031497
        },
        {
          "duration": 0.2218045999999987,
          "durationTicks": 59,
          "midi": 47,
          "name": "B2",
          "ticks": 23820,
          "time": 89.548908,
          "velocity": 0.7874015748031497
        },
        {
          "duration": 0.3345866000000086,
          "durationTicks": 89,
          "midi": 54,
          "name": "F#3",
          "ticks": 23880,
          "time": 89.77447199999999,
          "velocity": 0.7874015748031497
        },
        {
          "duration": 0.3345866000000086,
          "durationTicks": 89,
          "midi": 59,
          "name": "B3",
          "ticks": 23880,
          "time": 89.77447199999999,
          "velocity": 0.7874015748031497
        },
        {
          "duration": 0.2218045999999987,
          "durationTicks": 59,
          "midi": 47,
          "name": "B2",
          "ticks": 23940,
          "time": 90.000036,
          "velocity": 0.7874015748031497
        },
        {
          "duration": 0.2218045999999987,
          "durationTicks": 59,
          "midi": 47,
          "name": "B2",
          "ticks": 24000,
          "time": 90.2256,
          "velocity": 0.7874015748031497
        },
        {
          "duration": 0.10902260000000297,
          "durationTicks": 29,
          "midi": 59,
          "name": "B3",
          "ticks": 24030,
          "time": 90.338382,
          "velocity": 0.7874015748031497
        },
        {
          "duration": 0.10902260000000297,
          "durationTicks": 29,
          "midi": 54,
          "name": "F#3",
          "ticks": 24030,
          "time": 90.338382,
          "velocity": 0.7874015748031497
        },
        {
          "duration": 0.44736860000000434,
          "durationTicks": 119,
          "midi": 47,
          "name": "B2",
          "ticks": 24060,
          "time": 90.45116399999999,
          "velocity": 0.7874015748031497
        },
        {
          "duration": 0.2218045999999987,
          "durationTicks": 59,
          "midi": 59,
          "name": "B3",
          "ticks": 24120,
          "time": 90.676728,
          "velocity": 0.7874015748031497
        },
        {
          "duration": 0.2218045999999987,
          "durationTicks": 59,
          "midi": 54,
          "name": "F#3",
          "ticks": 24120,
          "time": 90.676728,
          "velocity": 0.7874015748031497
        },
        {
          "duration": 0.2218046000000129,
          "durationTicks": 59,
          "midi": 47,
          "name": "B2",
          "ticks": 24180,
          "time": 90.90229199999999,
          "velocity": 0.7874015748031497
        },
        {
          "duration": 0.10902260000000297,
          "durationTicks": 29,
          "midi": 54,
          "name": "F#3",
          "ticks": 24210,
          "time": 91.015074,
          "velocity": 0.7874015748031497
        },
        {
          "duration": 0.10902260000000297,
          "durationTicks": 29,
          "midi": 59,
          "name": "B3",
          "ticks": 24210,
          "time": 91.015074,
          "velocity": 0.7874015748031497
        },
        {
          "duration": 0.10902260000000297,
          "durationTicks": 29,
          "midi": 47,
          "name": "B2",
          "ticks": 24240,
          "time": 91.127856,
          "velocity": 0.7874015748031497
        },
        {
          "duration": 0.10902260000000297,
          "durationTicks": 29,
          "midi": 54,
          "name": "F#3",
          "ticks": 24270,
          "time": 91.24063799999999,
          "velocity": 0.47244094488188976
        },
        {
          "duration": 0.10902260000000297,
          "durationTicks": 29,
          "midi": 59,
          "name": "B3",
          "ticks": 24270,
          "time": 91.24063799999999,
          "velocity": 0.7874015748031497
        },
        {
          "duration": 0.2218045999999987,
          "durationTicks": 59,
          "midi": 47,
          "name": "B2",
          "ticks": 24300,
          "time": 91.35342,
          "velocity": 0.7874015748031497
        },
        {
          "duration": 0.3345866000000086,
          "durationTicks": 89,
          "midi": 54,
          "name": "F#3",
          "ticks": 24360,
          "time": 91.57898399999999,
          "velocity": 0.7874015748031497
        },
        {
          "duration": 0.3345866000000086,
          "durationTicks": 89,
          "midi": 59,
          "name": "B3",
          "ticks": 24360,
          "time": 91.57898399999999,
          "velocity": 0.7874015748031497
        },
        {
          "duration": 0.2218045999999987,
          "durationTicks": 59,
          "midi": 47,
          "name": "B2",
          "ticks": 24420,
          "time": 91.804548,
          "velocity": 0.7874015748031497
        },
        {
          "duration": 0.2218046000000129,
          "durationTicks": 59,
          "midi": 47,
          "name": "B2",
          "ticks": 24480,
          "time": 92.03011199999999,
          "velocity": 0.7874015748031497
        },
        {
          "duration": 0.10902260000000297,
          "durationTicks": 29,
          "midi": 59,
          "name": "B3",
          "ticks": 24510,
          "time": 92.142894,
          "velocity": 0.7874015748031497
        },
        {
          "duration": 0.10902260000000297,
          "durationTicks": 29,
          "midi": 54,
          "name": "F#3",
          "ticks": 24510,
          "time": 92.142894,
          "velocity": 0.7874015748031497
        },
        {
          "duration": 0.44736860000000434,
          "durationTicks": 119,
          "midi": 47,
          "name": "B2",
          "ticks": 24540,
          "time": 92.255676,
          "velocity": 0.7874015748031497
        },
        {
          "duration": 0.2218045999999987,
          "durationTicks": 59,
          "midi": 59,
          "name": "B3",
          "ticks": 24600,
          "time": 92.48124,
          "velocity": 0.7874015748031497
        },
        {
          "duration": 0.2218045999999987,
          "durationTicks": 59,
          "midi": 54,
          "name": "F#3",
          "ticks": 24600,
          "time": 92.48124,
          "velocity": 0.7874015748031497
        },
        {
          "duration": 0.2218046000000129,
          "durationTicks": 59,
          "midi": 47,
          "name": "B2",
          "ticks": 24660,
          "time": 92.70680399999999,
          "velocity": 0.7874015748031497
        },
        {
          "duration": 0.10902260000000297,
          "durationTicks": 29,
          "midi": 54,
          "name": "F#3",
          "ticks": 24690,
          "time": 92.819586,
          "velocity": 0.7874015748031497
        },
        {
          "duration": 0.10902260000000297,
          "durationTicks": 29,
          "midi": 59,
          "name": "B3",
          "ticks": 24690,
          "time": 92.819586,
          "velocity": 0.7874015748031497
        },
        {
          "duration": 0.10902260000000297,
          "durationTicks": 29,
          "midi": 47,
          "name": "B2",
          "ticks": 24720,
          "time": 92.932368,
          "velocity": 0.7874015748031497
        },
        {
          "duration": 0.10902260000000297,
          "durationTicks": 29,
          "midi": 54,
          "name": "F#3",
          "ticks": 24750,
          "time": 93.04514999999999,
          "velocity": 0.47244094488188976
        },
        {
          "duration": 0.10902260000000297,
          "durationTicks": 29,
          "midi": 59,
          "name": "B3",
          "ticks": 24750,
          "time": 93.04514999999999,
          "velocity": 0.7874015748031497
        },
        {
          "duration": 0.2218046000000129,
          "durationTicks": 59,
          "midi": 47,
          "name": "B2",
          "ticks": 24780,
          "time": 93.15793199999999,
          "velocity": 0.7874015748031497
        },
        {
          "duration": 0.3345866000000086,
          "durationTicks": 89,
          "midi": 54,
          "name": "F#3",
          "ticks": 24840,
          "time": 93.383496,
          "velocity": 0.7874015748031497
        },
        {
          "duration": 0.3345866000000086,
          "durationTicks": 89,
          "midi": 59,
          "name": "B3",
          "ticks": 24840,
          "time": 93.383496,
          "velocity": 0.7874015748031497
        },
        {
          "duration": 0.2218045999999987,
          "durationTicks": 59,
          "midi": 47,
          "name": "B2",
          "ticks": 24900,
          "time": 93.60906,
          "velocity": 0.7874015748031497
        },
        {
          "duration": 0.2218046000000129,
          "durationTicks": 59,
          "midi": 47,
          "name": "B2",
          "ticks": 24960,
          "time": 93.83462399999999,
          "velocity": 0.7874015748031497
        },
        {
          "duration": 0.10902260000000297,
          "durationTicks": 29,
          "midi": 59,
          "name": "B3",
          "ticks": 24990,
          "time": 93.947406,
          "velocity": 0.7874015748031497
        },
        {
          "duration": 0.10902260000000297,
          "durationTicks": 29,
          "midi": 54,
          "name": "F#3",
          "ticks": 24990,
          "time": 93.947406,
          "velocity": 0.7874015748031497
        },
        {
          "duration": 0.44736860000000434,
          "durationTicks": 119,
          "midi": 47,
          "name": "B2",
          "ticks": 25020,
          "time": 94.060188,
          "velocity": 0.7874015748031497
        },
        {
          "duration": 0.2218046000000129,
          "durationTicks": 59,
          "midi": 59,
          "name": "B3",
          "ticks": 25080,
          "time": 94.28575199999999,
          "velocity": 0.7874015748031497
        },
        {
          "duration": 0.2218046000000129,
          "durationTicks": 59,
          "midi": 54,
          "name": "F#3",
          "ticks": 25080,
          "time": 94.28575199999999,
          "velocity": 0.7874015748031497
        },
        {
          "duration": 0.2218045999999987,
          "durationTicks": 59,
          "midi": 47,
          "name": "B2",
          "ticks": 25140,
          "time": 94.511316,
          "velocity": 0.7874015748031497
        },
        {
          "duration": 0.10902260000000297,
          "durationTicks": 29,
          "midi": 54,
          "name": "F#3",
          "ticks": 25170,
          "time": 94.62409799999999,
          "velocity": 0.7874015748031497
        },
        {
          "duration": 0.10902260000000297,
          "durationTicks": 29,
          "midi": 59,
          "name": "B3",
          "ticks": 25170,
          "time": 94.62409799999999,
          "velocity": 0.7874015748031497
        },
        {
          "duration": 0.10902260000000297,
          "durationTicks": 29,
          "midi": 47,
          "name": "B2",
          "ticks": 25200,
          "time": 94.73688,
          "velocity": 0.7874015748031497
        },
        {
          "duration": 0.10902260000000297,
          "durationTicks": 29,
          "midi": 54,
          "name": "F#3",
          "ticks": 25230,
          "time": 94.849662,
          "velocity": 0.47244094488188976
        },
        {
          "duration": 0.10902260000000297,
          "durationTicks": 29,
          "midi": 59,
          "name": "B3",
          "ticks": 25230,
          "time": 94.849662,
          "velocity": 0.7874015748031497
        },
        {
          "duration": 0.2218046000000129,
          "durationTicks": 59,
          "midi": 47,
          "name": "B2",
          "ticks": 25260,
          "time": 94.96244399999999,
          "velocity": 0.7874015748031497
        },
        {
          "duration": 0.3345865999999944,
          "durationTicks": 89,
          "midi": 54,
          "name": "F#3",
          "ticks": 25320,
          "time": 95.188008,
          "velocity": 0.7874015748031497
        },
        {
          "duration": 0.3345865999999944,
          "durationTicks": 89,
          "midi": 59,
          "name": "B3",
          "ticks": 25320,
          "time": 95.188008,
          "velocity": 0.7874015748031497
        },
        {
          "duration": 0.2218046000000129,
          "durationTicks": 59,
          "midi": 47,
          "name": "B2",
          "ticks": 25380,
          "time": 95.41357199999999,
          "velocity": 0.7874015748031497
        },
        {
          "duration": 0.2218045999999987,
          "durationTicks": 59,
          "midi": 47,
          "name": "B2",
          "ticks": 25440,
          "time": 95.639136,
          "velocity": 0.7874015748031497
        },
        {
          "duration": 0.10902260000000297,
          "durationTicks": 29,
          "midi": 59,
          "name": "B3",
          "ticks": 25470,
          "time": 95.75191799999999,
          "velocity": 0.7874015748031497
        },
        {
          "duration": 0.10902260000000297,
          "durationTicks": 29,
          "midi": 54,
          "name": "F#3",
          "ticks": 25470,
          "time": 95.75191799999999,
          "velocity": 0.7874015748031497
        },
        {
          "duration": 0.44736860000000434,
          "durationTicks": 119,
          "midi": 47,
          "name": "B2",
          "ticks": 25500,
          "time": 95.8647,
          "velocity": 0.7874015748031497
        },
        {
          "duration": 0.2218046000000129,
          "durationTicks": 59,
          "midi": 59,
          "name": "B3",
          "ticks": 25560,
          "time": 96.09026399999999,
          "velocity": 0.7874015748031497
        },
        {
          "duration": 0.2218046000000129,
          "durationTicks": 59,
          "midi": 54,
          "name": "F#3",
          "ticks": 25560,
          "time": 96.09026399999999,
          "velocity": 0.7874015748031497
        },
        {
          "duration": 0.2218045999999987,
          "durationTicks": 59,
          "midi": 47,
          "name": "B2",
          "ticks": 25620,
          "time": 96.315828,
          "velocity": 0.7874015748031497
        },
        {
          "duration": 0.10902260000000297,
          "durationTicks": 29,
          "midi": 54,
          "name": "F#3",
          "ticks": 25650,
          "time": 96.42860999999999,
          "velocity": 0.7874015748031497
        },
        {
          "duration": 0.10902260000000297,
          "durationTicks": 29,
          "midi": 59,
          "name": "B3",
          "ticks": 25650,
          "time": 96.42860999999999,
          "velocity": 0.7874015748031497
        },
        {
          "duration": 0.10902260000001718,
          "durationTicks": 29,
          "midi": 47,
          "name": "B2",
          "ticks": 25680,
          "time": 96.54139199999999,
          "velocity": 0.7874015748031497
        },
        {
          "duration": 0.10902260000000297,
          "durationTicks": 29,
          "midi": 54,
          "name": "F#3",
          "ticks": 25710,
          "time": 96.654174,
          "velocity": 0.47244094488188976
        },
        {
          "duration": 0.10902260000000297,
          "durationTicks": 29,
          "midi": 59,
          "name": "B3",
          "ticks": 25710,
          "time": 96.654174,
          "velocity": 0.7874015748031497
        },
        {
          "duration": 0.2218045999999987,
          "durationTicks": 59,
          "midi": 47,
          "name": "B2",
          "ticks": 25740,
          "time": 96.766956,
          "velocity": 0.7874015748031497
        },
        {
          "duration": 0.3345865999999944,
          "durationTicks": 89,
          "midi": 54,
          "name": "F#3",
          "ticks": 25800,
          "time": 96.99252,
          "velocity": 0.7874015748031497
        },
        {
          "duration": 0.3345865999999944,
          "durationTicks": 89,
          "midi": 59,
          "name": "B3",
          "ticks": 25800,
          "time": 96.99252,
          "velocity": 0.7874015748031497
        },
        {
          "duration": 0.2218046000000129,
          "durationTicks": 59,
          "midi": 47,
          "name": "B2",
          "ticks": 25860,
          "time": 97.21808399999999,
          "velocity": 0.7874015748031497
        },
        {
          "duration": 0.2218045999999987,
          "durationTicks": 59,
          "midi": 47,
          "name": "B2",
          "ticks": 25920,
          "time": 97.443648,
          "velocity": 0.7874015748031497
        },
        {
          "duration": 0.10902260000000297,
          "durationTicks": 29,
          "midi": 59,
          "name": "B3",
          "ticks": 25950,
          "time": 97.55642999999999,
          "velocity": 0.7874015748031497
        },
        {
          "duration": 0.10902260000000297,
          "durationTicks": 29,
          "midi": 54,
          "name": "F#3",
          "ticks": 25950,
          "time": 97.55642999999999,
          "velocity": 0.7874015748031497
        },
        {
          "duration": 0.44736860000000434,
          "durationTicks": 119,
          "midi": 47,
          "name": "B2",
          "ticks": 25980,
          "time": 97.66921199999999,
          "velocity": 0.7874015748031497
        },
        {
          "duration": 0.2218045999999987,
          "durationTicks": 59,
          "midi": 59,
          "name": "B3",
          "ticks": 26040,
          "time": 97.894776,
          "velocity": 0.7874015748031497
        },
        {
          "duration": 0.2218045999999987,
          "durationTicks": 59,
          "midi": 54,
          "name": "F#3",
          "ticks": 26040,
          "time": 97.894776,
          "velocity": 0.7874015748031497
        },
        {
          "duration": 0.2218045999999987,
          "durationTicks": 59,
          "midi": 47,
          "name": "B2",
          "ticks": 26100,
          "time": 98.12034,
          "velocity": 0.7874015748031497
        },
        {
          "duration": 0.10902260000000297,
          "durationTicks": 29,
          "midi": 54,
          "name": "F#3",
          "ticks": 26130,
          "time": 98.233122,
          "velocity": 0.7874015748031497
        },
        {
          "duration": 0.10902260000000297,
          "durationTicks": 29,
          "midi": 59,
          "name": "B3",
          "ticks": 26130,
          "time": 98.233122,
          "velocity": 0.7874015748031497
        },
        {
          "duration": 0.10902260000000297,
          "durationTicks": 29,
          "midi": 47,
          "name": "B2",
          "ticks": 26160,
          "time": 98.34590399999999,
          "velocity": 0.7874015748031497
        },
        {
          "duration": 0.10902260000000297,
          "durationTicks": 29,
          "midi": 54,
          "name": "F#3",
          "ticks": 26190,
          "time": 98.458686,
          "velocity": 0.47244094488188976
        },
        {
          "duration": 0.10902260000000297,
          "durationTicks": 29,
          "midi": 59,
          "name": "B3",
          "ticks": 26190,
          "time": 98.458686,
          "velocity": 0.7874015748031497
        },
        {
          "duration": 0.2218045999999987,
          "durationTicks": 59,
          "midi": 47,
          "name": "B2",
          "ticks": 26220,
          "time": 98.571468,
          "velocity": 0.7874015748031497
        },
        {
          "duration": 0.3345866000000086,
          "durationTicks": 89,
          "midi": 54,
          "name": "F#3",
          "ticks": 26280,
          "time": 98.79703199999999,
          "velocity": 0.7874015748031497
        },
        {
          "duration": 0.3345866000000086,
          "durationTicks": 89,
          "midi": 59,
          "name": "B3",
          "ticks": 26280,
          "time": 98.79703199999999,
          "velocity": 0.7874015748031497
        },
        {
          "duration": 0.2218045999999987,
          "durationTicks": 59,
          "midi": 47,
          "name": "B2",
          "ticks": 26340,
          "time": 99.022596,
          "velocity": 0.7874015748031497
        },
        {
          "duration": 0.2218045999999987,
          "durationTicks": 59,
          "midi": 47,
          "name": "B2",
          "ticks": 26400,
          "time": 99.24816,
          "velocity": 0.7874015748031497
        },
        {
          "duration": 0.10902260000000297,
          "durationTicks": 29,
          "midi": 59,
          "name": "B3",
          "ticks": 26430,
          "time": 99.360942,
          "velocity": 0.7874015748031497
        },
        {
          "duration": 0.10902260000000297,
          "durationTicks": 29,
          "midi": 54,
          "name": "F#3",
          "ticks": 26430,
          "time": 99.360942,
          "velocity": 0.7874015748031497
        },
        {
          "duration": 0.44736860000000434,
          "durationTicks": 119,
          "midi": 47,
          "name": "B2",
          "ticks": 26460,
          "time": 99.47372399999999,
          "velocity": 0.7874015748031497
        },
        {
          "duration": 0.2218045999999987,
          "durationTicks": 59,
          "midi": 59,
          "name": "B3",
          "ticks": 26520,
          "time": 99.699288,
          "velocity": 0.7874015748031497
        },
        {
          "duration": 0.2218045999999987,
          "durationTicks": 59,
          "midi": 54,
          "name": "F#3",
          "ticks": 26520,
          "time": 99.699288,
          "velocity": 0.7874015748031497
        },
        {
          "duration": 0.2218046000000129,
          "durationTicks": 59,
          "midi": 47,
          "name": "B2",
          "ticks": 26580,
          "time": 99.92485199999999,
          "velocity": 0.7874015748031497
        },
        {
          "duration": 0.10902260000000297,
          "durationTicks": 29,
          "midi": 54,
          "name": "F#3",
          "ticks": 26610,
          "time": 100.037634,
          "velocity": 0.7874015748031497
        },
        {
          "duration": 0.10902260000000297,
          "durationTicks": 29,
          "midi": 59,
          "name": "B3",
          "ticks": 26610,
          "time": 100.037634,
          "velocity": 0.7874015748031497
        },
        {
          "duration": 0.10902260000000297,
          "durationTicks": 29,
          "midi": 47,
          "name": "B2",
          "ticks": 26640,
          "time": 100.15041599999999,
          "velocity": 0.7874015748031497
        },
        {
          "duration": 0.10902260000000297,
          "durationTicks": 29,
          "midi": 54,
          "name": "F#3",
          "ticks": 26670,
          "time": 100.26319799999999,
          "velocity": 0.47244094488188976
        },
        {
          "duration": 0.10902260000000297,
          "durationTicks": 29,
          "midi": 59,
          "name": "B3",
          "ticks": 26670,
          "time": 100.26319799999999,
          "velocity": 0.7874015748031497
        },
        {
          "duration": 0.2218045999999987,
          "durationTicks": 59,
          "midi": 47,
          "name": "B2",
          "ticks": 26700,
          "time": 100.37598,
          "velocity": 0.7874015748031497
        },
        {
          "duration": 0.3345866000000086,
          "durationTicks": 89,
          "midi": 54,
          "name": "F#3",
          "ticks": 26760,
          "time": 100.60154399999999,
          "velocity": 0.7874015748031497
        },
        {
          "duration": 0.3345866000000086,
          "durationTicks": 89,
          "midi": 59,
          "name": "B3",
          "ticks": 26760,
          "time": 100.60154399999999,
          "velocity": 0.7874015748031497
        },
        {
          "duration": 0.2218045999999987,
          "durationTicks": 59,
          "midi": 47,
          "name": "B2",
          "ticks": 26820,
          "time": 100.827108,
          "velocity": 0.7874015748031497
        },
        {
          "duration": 0.2218045999999987,
          "durationTicks": 59,
          "midi": 47,
          "name": "B2",
          "ticks": 26880,
          "time": 101.052672,
          "velocity": 0.7874015748031497
        },
        {
          "duration": 0.10902260000000297,
          "durationTicks": 29,
          "midi": 59,
          "name": "B3",
          "ticks": 26910,
          "time": 101.165454,
          "velocity": 0.7874015748031497
        },
        {
          "duration": 0.10902260000000297,
          "durationTicks": 29,
          "midi": 54,
          "name": "F#3",
          "ticks": 26910,
          "time": 101.165454,
          "velocity": 0.7874015748031497
        },
        {
          "duration": 0.44736860000000434,
          "durationTicks": 119,
          "midi": 47,
          "name": "B2",
          "ticks": 26940,
          "time": 101.27823599999999,
          "velocity": 0.7874015748031497
        },
        {
          "duration": 0.2218045999999987,
          "durationTicks": 59,
          "midi": 59,
          "name": "B3",
          "ticks": 27000,
          "time": 101.5038,
          "velocity": 0.7874015748031497
        },
        {
          "duration": 0.2218045999999987,
          "durationTicks": 59,
          "midi": 54,
          "name": "F#3",
          "ticks": 27000,
          "time": 101.5038,
          "velocity": 0.7874015748031497
        },
        {
          "duration": 0.2218046000000129,
          "durationTicks": 59,
          "midi": 47,
          "name": "B2",
          "ticks": 27060,
          "time": 101.72936399999999,
          "velocity": 0.7874015748031497
        },
        {
          "duration": 0.10902260000000297,
          "durationTicks": 29,
          "midi": 54,
          "name": "F#3",
          "ticks": 27090,
          "time": 101.842146,
          "velocity": 0.7874015748031497
        },
        {
          "duration": 0.10902260000000297,
          "durationTicks": 29,
          "midi": 59,
          "name": "B3",
          "ticks": 27090,
          "time": 101.842146,
          "velocity": 0.7874015748031497
        },
        {
          "duration": 0.10902260000000297,
          "durationTicks": 29,
          "midi": 47,
          "name": "B2",
          "ticks": 27120,
          "time": 101.954928,
          "velocity": 0.7874015748031497
        },
        {
          "duration": 0.10902260000000297,
          "durationTicks": 29,
          "midi": 54,
          "name": "F#3",
          "ticks": 27150,
          "time": 102.06770999999999,
          "velocity": 0.47244094488188976
        },
        {
          "duration": 0.10902260000000297,
          "durationTicks": 29,
          "midi": 59,
          "name": "B3",
          "ticks": 27150,
          "time": 102.06770999999999,
          "velocity": 0.7874015748031497
        },
        {
          "duration": 0.2218045999999987,
          "durationTicks": 59,
          "midi": 47,
          "name": "B2",
          "ticks": 27180,
          "time": 102.180492,
          "velocity": 0.7874015748031497
        },
        {
          "duration": 0.3345866000000086,
          "durationTicks": 89,
          "midi": 54,
          "name": "F#3",
          "ticks": 27240,
          "time": 102.40605599999999,
          "velocity": 0.7874015748031497
        },
        {
          "duration": 0.3345866000000086,
          "durationTicks": 89,
          "midi": 59,
          "name": "B3",
          "ticks": 27240,
          "time": 102.40605599999999,
          "velocity": 0.7874015748031497
        },
        {
          "duration": 0.2218045999999987,
          "durationTicks": 59,
          "midi": 47,
          "name": "B2",
          "ticks": 27300,
          "time": 102.63162,
          "velocity": 0.7874015748031497
        },
        {
          "duration": 0.2218046000000129,
          "durationTicks": 59,
          "midi": 47,
          "name": "B2",
          "ticks": 27360,
          "time": 102.85718399999999,
          "velocity": 0.7874015748031497
        },
        {
          "duration": 0.10902260000000297,
          "durationTicks": 29,
          "midi": 59,
          "name": "B3",
          "ticks": 27390,
          "time": 102.969966,
          "velocity": 0.7874015748031497
        },
        {
          "duration": 0.10902260000000297,
          "durationTicks": 29,
          "midi": 54,
          "name": "F#3",
          "ticks": 27390,
          "time": 102.969966,
          "velocity": 0.7874015748031497
        },
        {
          "duration": 0.44736860000000434,
          "durationTicks": 119,
          "midi": 47,
          "name": "B2",
          "ticks": 27420,
          "time": 103.082748,
          "velocity": 0.7874015748031497
        },
        {
          "duration": 0.2218045999999987,
          "durationTicks": 59,
          "midi": 59,
          "name": "B3",
          "ticks": 27480,
          "time": 103.308312,
          "velocity": 0.7874015748031497
        },
        {
          "duration": 0.2218045999999987,
          "durationTicks": 59,
          "midi": 54,
          "name": "F#3",
          "ticks": 27480,
          "time": 103.308312,
          "velocity": 0.7874015748031497
        },
        {
          "duration": 0.2218045999999987,
          "durationTicks": 59,
          "midi": 47,
          "name": "B2",
          "ticks": 27540,
          "time": 103.53387599999999,
          "velocity": 0.7874015748031497
        },
        {
          "duration": 0.10902260000000297,
          "durationTicks": 29,
          "midi": 54,
          "name": "F#3",
          "ticks": 27570,
          "time": 103.64665799999999,
          "velocity": 0.7874015748031497
        },
        {
          "duration": 0.10902260000000297,
          "durationTicks": 29,
          "midi": 59,
          "name": "B3",
          "ticks": 27570,
          "time": 103.64665799999999,
          "velocity": 0.7874015748031497
        },
        {
          "duration": 0.10902260000000297,
          "durationTicks": 29,
          "midi": 47,
          "name": "B2",
          "ticks": 27600,
          "time": 103.75944,
          "velocity": 0.7874015748031497
        },
        {
          "duration": 0.10902260000000297,
          "durationTicks": 29,
          "midi": 54,
          "name": "F#3",
          "ticks": 27630,
          "time": 103.872222,
          "velocity": 0.47244094488188976
        },
        {
          "duration": 0.10902260000000297,
          "durationTicks": 29,
          "midi": 59,
          "name": "B3",
          "ticks": 27630,
          "time": 103.872222,
          "velocity": 0.7874015748031497
        },
        {
          "duration": 0.2218046000000129,
          "durationTicks": 59,
          "midi": 47,
          "name": "B2",
          "ticks": 27660,
          "time": 103.98500399999999,
          "velocity": 0.7874015748031497
        },
        {
          "duration": 0.3345866000000086,
          "durationTicks": 89,
          "midi": 54,
          "name": "F#3",
          "ticks": 27720,
          "time": 104.210568,
          "velocity": 0.7874015748031497
        },
        {
          "duration": 0.3345866000000086,
          "durationTicks": 89,
          "midi": 59,
          "name": "B3",
          "ticks": 27720,
          "time": 104.210568,
          "velocity": 0.7874015748031497
        },
        {
          "duration": 0.2218045999999987,
          "durationTicks": 59,
          "midi": 47,
          "name": "B2",
          "ticks": 27780,
          "time": 104.436132,
          "velocity": 0.7874015748031497
        },
        {
          "duration": 0.2218045999999987,
          "durationTicks": 59,
          "midi": 47,
          "name": "B2",
          "ticks": 27840,
          "time": 104.66169599999999,
          "velocity": 0.7874015748031497
        },
        {
          "duration": 0.10902260000000297,
          "durationTicks": 29,
          "midi": 59,
          "name": "B3",
          "ticks": 27870,
          "time": 104.77447799999999,
          "velocity": 0.7874015748031497
        },
        {
          "duration": 0.10902260000000297,
          "durationTicks": 29,
          "midi": 54,
          "name": "F#3",
          "ticks": 27870,
          "time": 104.77447799999999,
          "velocity": 0.7874015748031497
        },
        {
          "duration": 0.44736860000000434,
          "durationTicks": 119,
          "midi": 47,
          "name": "B2",
          "ticks": 27900,
          "time": 104.88726,
          "velocity": 0.7874015748031497
        },
        {
          "duration": 0.2218046000000129,
          "durationTicks": 59,
          "midi": 59,
          "name": "B3",
          "ticks": 27960,
          "time": 105.11282399999999,
          "velocity": 0.7874015748031497
        },
        {
          "duration": 0.2218046000000129,
          "durationTicks": 59,
          "midi": 54,
          "name": "F#3",
          "ticks": 27960,
          "time": 105.11282399999999,
          "velocity": 0.7874015748031497
        },
        {
          "duration": 0.2218045999999987,
          "durationTicks": 59,
          "midi": 47,
          "name": "B2",
          "ticks": 28020,
          "time": 105.338388,
          "velocity": 0.7874015748031497
        },
        {
          "duration": 0.10902260000000297,
          "durationTicks": 29,
          "midi": 54,
          "name": "F#3",
          "ticks": 28050,
          "time": 105.45116999999999,
          "velocity": 0.7874015748031497
        },
        {
          "duration": 0.10902260000000297,
          "durationTicks": 29,
          "midi": 59,
          "name": "B3",
          "ticks": 28050,
          "time": 105.45116999999999,
          "velocity": 0.7874015748031497
        },
        {
          "duration": 0.10902260000000297,
          "durationTicks": 29,
          "midi": 47,
          "name": "B2",
          "ticks": 28080,
          "time": 105.563952,
          "velocity": 0.7874015748031497
        },
        {
          "duration": 0.10902260000000297,
          "durationTicks": 29,
          "midi": 54,
          "name": "F#3",
          "ticks": 28110,
          "time": 105.676734,
          "velocity": 0.47244094488188976
        },
        {
          "duration": 0.10902260000000297,
          "durationTicks": 29,
          "midi": 59,
          "name": "B3",
          "ticks": 28110,
          "time": 105.676734,
          "velocity": 0.7874015748031497
        },
        {
          "duration": 0.2218045999999987,
          "durationTicks": 59,
          "midi": 47,
          "name": "B2",
          "ticks": 28140,
          "time": 105.78951599999999,
          "velocity": 0.7874015748031497
        },
        {
          "duration": 0.3345865999999944,
          "durationTicks": 89,
          "midi": 54,
          "name": "F#3",
          "ticks": 28200,
          "time": 106.01508,
          "velocity": 0.7874015748031497
        },
        {
          "duration": 0.3345865999999944,
          "durationTicks": 89,
          "midi": 59,
          "name": "B3",
          "ticks": 28200,
          "time": 106.01508,
          "velocity": 0.7874015748031497
        },
        {
          "duration": 0.2218046000000129,
          "durationTicks": 59,
          "midi": 47,
          "name": "B2",
          "ticks": 28260,
          "time": 106.24064399999999,
          "velocity": 0.7874015748031497
        },
        {
          "duration": 0.2218045999999987,
          "durationTicks": 59,
          "midi": 47,
          "name": "B2",
          "ticks": 28320,
          "time": 106.466208,
          "velocity": 0.7874015748031497
        },
        {
          "duration": 0.10902260000000297,
          "durationTicks": 29,
          "midi": 59,
          "name": "B3",
          "ticks": 28350,
          "time": 106.57898999999999,
          "velocity": 0.7874015748031497
        },
        {
          "duration": 0.10902260000000297,
          "durationTicks": 29,
          "midi": 54,
          "name": "F#3",
          "ticks": 28350,
          "time": 106.57898999999999,
          "velocity": 0.7874015748031497
        },
        {
          "duration": 0.4473685999999901,
          "durationTicks": 119,
          "midi": 47,
          "name": "B2",
          "ticks": 28380,
          "time": 106.691772,
          "velocity": 0.7874015748031497
        },
        {
          "duration": 0.2218045999999987,
          "durationTicks": 59,
          "midi": 59,
          "name": "B3",
          "ticks": 28440,
          "time": 106.91733599999999,
          "velocity": 0.7874015748031497
        },
        {
          "duration": 0.2218045999999987,
          "durationTicks": 59,
          "midi": 54,
          "name": "F#3",
          "ticks": 28440,
          "time": 106.91733599999999,
          "velocity": 0.7874015748031497
        },
        {
          "duration": 0.2218045999999987,
          "durationTicks": 59,
          "midi": 47,
          "name": "B2",
          "ticks": 28500,
          "time": 107.1429,
          "velocity": 0.7874015748031497
        },
        {
          "duration": 0.10902260000000297,
          "durationTicks": 29,
          "midi": 54,
          "name": "F#3",
          "ticks": 28530,
          "time": 107.255682,
          "velocity": 0.7874015748031497
        },
        {
          "duration": 0.10902260000000297,
          "durationTicks": 29,
          "midi": 59,
          "name": "B3",
          "ticks": 28530,
          "time": 107.255682,
          "velocity": 0.7874015748031497
        },
        {
          "duration": 0.10902260000000297,
          "durationTicks": 29,
          "midi": 47,
          "name": "B2",
          "ticks": 28560,
          "time": 107.36846399999999,
          "velocity": 0.7874015748031497
        },
        {
          "duration": 0.10902260000000297,
          "durationTicks": 29,
          "midi": 54,
          "name": "F#3",
          "ticks": 28590,
          "time": 107.481246,
          "velocity": 0.47244094488188976
        },
        {
          "duration": 0.10902260000000297,
          "durationTicks": 29,
          "midi": 59,
          "name": "B3",
          "ticks": 28590,
          "time": 107.481246,
          "velocity": 0.7874015748031497
        },
        {
          "duration": 0.2218045999999987,
          "durationTicks": 59,
          "midi": 47,
          "name": "B2",
          "ticks": 28620,
          "time": 107.594028,
          "velocity": 0.7874015748031497
        },
        {
          "duration": 0.3345865999999944,
          "durationTicks": 89,
          "midi": 54,
          "name": "F#3",
          "ticks": 28680,
          "time": 107.819592,
          "velocity": 0.7874015748031497
        },
        {
          "duration": 0.3345865999999944,
          "durationTicks": 89,
          "midi": 59,
          "name": "B3",
          "ticks": 28680,
          "time": 107.819592,
          "velocity": 0.7874015748031497
        },
        {
          "duration": 0.2218045999999987,
          "durationTicks": 59,
          "midi": 47,
          "name": "B2",
          "ticks": 28740,
          "time": 108.04515599999999,
          "velocity": 0.7874015748031497
        },
        {
          "duration": 0.2218045999999987,
          "durationTicks": 59,
          "midi": 47,
          "name": "B2",
          "ticks": 28800,
          "time": 108.27072,
          "velocity": 0.7874015748031497
        },
        {
          "duration": 0.10902260000000297,
          "durationTicks": 29,
          "midi": 59,
          "name": "B3",
          "ticks": 28830,
          "time": 108.383502,
          "velocity": 0.7874015748031497
        },
        {
          "duration": 0.10902260000000297,
          "durationTicks": 29,
          "midi": 54,
          "name": "F#3",
          "ticks": 28830,
          "time": 108.383502,
          "velocity": 0.7874015748031497
        },
        {
          "duration": 0.44736860000000434,
          "durationTicks": 119,
          "midi": 47,
          "name": "B2",
          "ticks": 28860,
          "time": 108.49628399999999,
          "velocity": 0.7874015748031497
        },
        {
          "duration": 0.2218045999999987,
          "durationTicks": 59,
          "midi": 59,
          "name": "B3",
          "ticks": 28920,
          "time": 108.721848,
          "velocity": 0.7874015748031497
        },
        {
          "duration": 0.2218045999999987,
          "durationTicks": 59,
          "midi": 54,
          "name": "F#3",
          "ticks": 28920,
          "time": 108.721848,
          "velocity": 0.7874015748031497
        },
        {
          "duration": 0.2218045999999987,
          "durationTicks": 59,
          "midi": 47,
          "name": "B2",
          "ticks": 28980,
          "time": 108.947412,
          "velocity": 0.7874015748031497
        },
        {
          "duration": 0.10902260000000297,
          "durationTicks": 29,
          "midi": 54,
          "name": "F#3",
          "ticks": 29010,
          "time": 109.060194,
          "velocity": 0.7874015748031497
        },
        {
          "duration": 0.10902260000000297,
          "durationTicks": 29,
          "midi": 59,
          "name": "B3",
          "ticks": 29010,
          "time": 109.060194,
          "velocity": 0.7874015748031497
        },
        {
          "duration": 0.10902260000000297,
          "durationTicks": 29,
          "midi": 47,
          "name": "B2",
          "ticks": 29040,
          "time": 109.17297599999999,
          "velocity": 0.7874015748031497
        },
        {
          "duration": 0.10902260000000297,
          "durationTicks": 29,
          "midi": 54,
          "name": "F#3",
          "ticks": 29070,
          "time": 109.28575799999999,
          "velocity": 0.47244094488188976
        },
        {
          "duration": 0.10902260000000297,
          "durationTicks": 29,
          "midi": 59,
          "name": "B3",
          "ticks": 29070,
          "time": 109.28575799999999,
          "velocity": 0.7874015748031497
        },
        {
          "duration": 0.2218045999999987,
          "durationTicks": 59,
          "midi": 47,
          "name": "B2",
          "ticks": 29100,
          "time": 109.39854,
          "velocity": 0.7874015748031497
        },
        {
          "duration": 0.3345866000000086,
          "durationTicks": 89,
          "midi": 54,
          "name": "F#3",
          "ticks": 29160,
          "time": 109.62410399999999,
          "velocity": 0.7874015748031497
        },
        {
          "duration": 0.3345866000000086,
          "durationTicks": 89,
          "midi": 59,
          "name": "B3",
          "ticks": 29160,
          "time": 109.62410399999999,
          "velocity": 0.7874015748031497
        },
        {
          "duration": 0.2218045999999987,
          "durationTicks": 59,
          "midi": 47,
          "name": "B2",
          "ticks": 29220,
          "time": 109.849668,
          "velocity": 0.7874015748031497
        },
        {
          "duration": 0.2218045999999987,
          "durationTicks": 59,
          "midi": 47,
          "name": "B2",
          "ticks": 29280,
          "time": 110.075232,
          "velocity": 0.7874015748031497
        },
        {
          "duration": 0.10902260000000297,
          "durationTicks": 29,
          "midi": 59,
          "name": "B3",
          "ticks": 29310,
          "time": 110.188014,
          "velocity": 0.7874015748031497
        },
        {
          "duration": 0.10902260000000297,
          "durationTicks": 29,
          "midi": 54,
          "name": "F#3",
          "ticks": 29310,
          "time": 110.188014,
          "velocity": 0.7874015748031497
        },
        {
          "duration": 0.44736860000000434,
          "durationTicks": 119,
          "midi": 47,
          "name": "B2",
          "ticks": 29340,
          "time": 110.30079599999999,
          "velocity": 0.7874015748031497
        },
        {
          "duration": 0.2218045999999987,
          "durationTicks": 59,
          "midi": 59,
          "name": "B3",
          "ticks": 29400,
          "time": 110.52636,
          "velocity": 0.7874015748031497
        },
        {
          "duration": 0.2218045999999987,
          "durationTicks": 59,
          "midi": 54,
          "name": "F#3",
          "ticks": 29400,
          "time": 110.52636,
          "velocity": 0.7874015748031497
        },
        {
          "duration": 0.2218046000000129,
          "durationTicks": 59,
          "midi": 47,
          "name": "B2",
          "ticks": 29460,
          "time": 110.75192399999999,
          "velocity": 0.7874015748031497
        },
        {
          "duration": 0.10902260000000297,
          "durationTicks": 29,
          "midi": 54,
          "name": "F#3",
          "ticks": 29490,
          "time": 110.864706,
          "velocity": 0.7874015748031497
        },
        {
          "duration": 0.10902260000000297,
          "durationTicks": 29,
          "midi": 59,
          "name": "B3",
          "ticks": 29490,
          "time": 110.864706,
          "velocity": 0.7874015748031497
        },
        {
          "duration": 0.10902260000000297,
          "durationTicks": 29,
          "midi": 47,
          "name": "B2",
          "ticks": 29520,
          "time": 110.977488,
          "velocity": 0.7874015748031497
        },
        {
          "duration": 0.10902260000000297,
          "durationTicks": 29,
          "midi": 54,
          "name": "F#3",
          "ticks": 29550,
          "time": 111.09026999999999,
          "velocity": 0.47244094488188976
        },
        {
          "duration": 0.10902260000000297,
          "durationTicks": 29,
          "midi": 59,
          "name": "B3",
          "ticks": 29550,
          "time": 111.09026999999999,
          "velocity": 0.7874015748031497
        },
        {
          "duration": 0.2218045999999987,
          "durationTicks": 59,
          "midi": 47,
          "name": "B2",
          "ticks": 29580,
          "time": 111.203052,
          "velocity": 0.7874015748031497
        },
        {
          "duration": 0.3345866000000086,
          "durationTicks": 89,
          "midi": 54,
          "name": "F#3",
          "ticks": 29640,
          "time": 111.42861599999999,
          "velocity": 0.7874015748031497
        },
        {
          "duration": 0.3345866000000086,
          "durationTicks": 89,
          "midi": 59,
          "name": "B3",
          "ticks": 29640,
          "time": 111.42861599999999,
          "velocity": 0.7874015748031497
        },
        {
          "duration": 0.2218045999999987,
          "durationTicks": 59,
          "midi": 47,
          "name": "B2",
          "ticks": 29700,
          "time": 111.65418,
          "velocity": 0.7874015748031497
        },
        {
          "duration": 0.2218046000000129,
          "durationTicks": 59,
          "midi": 47,
          "name": "B2",
          "ticks": 29760,
          "time": 111.87974399999999,
          "velocity": 0.7874015748031497
        },
        {
          "duration": 0.10902260000000297,
          "durationTicks": 29,
          "midi": 59,
          "name": "B3",
          "ticks": 29790,
          "time": 111.992526,
          "velocity": 0.7874015748031497
        },
        {
          "duration": 0.10902260000000297,
          "durationTicks": 29,
          "midi": 54,
          "name": "F#3",
          "ticks": 29790,
          "time": 111.992526,
          "velocity": 0.7874015748031497
        },
        {
          "duration": 0.44736860000000434,
          "durationTicks": 119,
          "midi": 47,
          "name": "B2",
          "ticks": 29820,
          "time": 112.105308,
          "velocity": 0.7874015748031497
        },
        {
          "duration": 0.2218045999999987,
          "durationTicks": 59,
          "midi": 59,
          "name": "B3",
          "ticks": 29880,
          "time": 112.330872,
          "velocity": 0.7874015748031497
        },
        {
          "duration": 0.2218045999999987,
          "durationTicks": 59,
          "midi": 54,
          "name": "F#3",
          "ticks": 29880,
          "time": 112.330872,
          "velocity": 0.7874015748031497
        },
        {
          "duration": 0.2218046000000129,
          "durationTicks": 59,
          "midi": 47,
          "name": "B2",
          "ticks": 29940,
          "time": 112.55643599999999,
          "velocity": 0.7874015748031497
        },
        {
          "duration": 0.10902260000001718,
          "durationTicks": 29,
          "midi": 54,
          "name": "F#3",
          "ticks": 29970,
          "time": 112.66921799999999,
          "velocity": 0.7874015748031497
        },
        {
          "duration": 0.10902260000001718,
          "durationTicks": 29,
          "midi": 59,
          "name": "B3",
          "ticks": 29970,
          "time": 112.66921799999999,
          "velocity": 0.7874015748031497
        },
        {
          "duration": 0.10902260000000297,
          "durationTicks": 29,
          "midi": 47,
          "name": "B2",
          "ticks": 30000,
          "time": 112.782,
          "velocity": 0.7874015748031497
        },
        {
          "duration": 0.10902260000000297,
          "durationTicks": 29,
          "midi": 54,
          "name": "F#3",
          "ticks": 30030,
          "time": 112.89478199999999,
          "velocity": 0.47244094488188976
        },
        {
          "duration": 0.10902260000000297,
          "durationTicks": 29,
          "midi": 59,
          "name": "B3",
          "ticks": 30030,
          "time": 112.89478199999999,
          "velocity": 0.7874015748031497
        },
        {
          "duration": 0.2218046000000129,
          "durationTicks": 59,
          "midi": 47,
          "name": "B2",
          "ticks": 30060,
          "time": 113.00756399999999,
          "velocity": 0.7874015748031497
        },
        {
          "duration": 0.3345866000000086,
          "durationTicks": 89,
          "midi": 54,
          "name": "F#3",
          "ticks": 30120,
          "time": 113.233128,
          "velocity": 0.7874015748031497
        },
        {
          "duration": 0.3345866000000086,
          "durationTicks": 89,
          "midi": 59,
          "name": "B3",
          "ticks": 30120,
          "time": 113.233128,
          "velocity": 0.7874015748031497
        },
        {
          "duration": 0.2218045999999987,
          "durationTicks": 59,
          "midi": 47,
          "name": "B2",
          "ticks": 30180,
          "time": 113.458692,
          "velocity": 0.7874015748031497
        },
        {
          "duration": 0.2218046000000129,
          "durationTicks": 59,
          "midi": 47,
          "name": "B2",
          "ticks": 30240,
          "time": 113.68425599999999,
          "velocity": 0.7874015748031497
        },
        {
          "duration": 0.10902260000001718,
          "durationTicks": 29,
          "midi": 59,
          "name": "B3",
          "ticks": 30270,
          "time": 113.79703799999999,
          "velocity": 0.7874015748031497
        },
        {
          "duration": 0.10902260000001718,
          "durationTicks": 29,
          "midi": 54,
          "name": "F#3",
          "ticks": 30270,
          "time": 113.79703799999999,
          "velocity": 0.7874015748031497
        },
        {
          "duration": 0.44736860000000434,
          "durationTicks": 119,
          "midi": 47,
          "name": "B2",
          "ticks": 30300,
          "time": 113.90982,
          "velocity": 0.7874015748031497
        },
        {
          "duration": 0.2218046000000129,
          "durationTicks": 59,
          "midi": 59,
          "name": "B3",
          "ticks": 30360,
          "time": 114.13538399999999,
          "velocity": 0.7874015748031497
        },
        {
          "duration": 0.2218046000000129,
          "durationTicks": 59,
          "midi": 54,
          "name": "F#3",
          "ticks": 30360,
          "time": 114.13538399999999,
          "velocity": 0.7874015748031497
        },
        {
          "duration": 0.2218045999999987,
          "durationTicks": 59,
          "midi": 47,
          "name": "B2",
          "ticks": 30420,
          "time": 114.360948,
          "velocity": 0.7874015748031497
        },
        {
          "duration": 0.10902260000000297,
          "durationTicks": 29,
          "midi": 54,
          "name": "F#3",
          "ticks": 30450,
          "time": 114.47372999999999,
          "velocity": 0.7874015748031497
        },
        {
          "duration": 0.10902260000000297,
          "durationTicks": 29,
          "midi": 59,
          "name": "B3",
          "ticks": 30450,
          "time": 114.47372999999999,
          "velocity": 0.7874015748031497
        },
        {
          "duration": 0.10902260000000297,
          "durationTicks": 29,
          "midi": 47,
          "name": "B2",
          "ticks": 30480,
          "time": 114.586512,
          "velocity": 0.7874015748031497
        },
        {
          "duration": 0.10902260000000297,
          "durationTicks": 29,
          "midi": 54,
          "name": "F#3",
          "ticks": 30510,
          "time": 114.699294,
          "velocity": 0.47244094488188976
        },
        {
          "duration": 0.10902260000000297,
          "durationTicks": 29,
          "midi": 59,
          "name": "B3",
          "ticks": 30510,
          "time": 114.699294,
          "velocity": 0.7874015748031497
        },
        {
          "duration": 0.2218046000000129,
          "durationTicks": 59,
          "midi": 47,
          "name": "B2",
          "ticks": 30540,
          "time": 114.81207599999999,
          "velocity": 0.7874015748031497
        },
        {
          "duration": 0.3345865999999944,
          "durationTicks": 89,
          "midi": 54,
          "name": "F#3",
          "ticks": 30600,
          "time": 115.03764,
          "velocity": 0.7874015748031497
        },
        {
          "duration": 0.3345865999999944,
          "durationTicks": 89,
          "midi": 59,
          "name": "B3",
          "ticks": 30600,
          "time": 115.03764,
          "velocity": 0.7874015748031497
        },
        {
          "duration": 0.2218046000000129,
          "durationTicks": 59,
          "midi": 47,
          "name": "B2",
          "ticks": 30660,
          "time": 115.26320399999999,
          "velocity": 0.7874015748031497
        },
        {
          "duration": 0.2218045999999987,
          "durationTicks": 59,
          "midi": 47,
          "name": "B2",
          "ticks": 30720,
          "time": 115.488768,
          "velocity": 0.7874015748031497
        },
        {
          "duration": 0.10902260000000297,
          "durationTicks": 29,
          "midi": 59,
          "name": "B3",
          "ticks": 30750,
          "time": 115.60154999999999,
          "velocity": 0.7874015748031497
        },
        {
          "duration": 0.10902260000000297,
          "durationTicks": 29,
          "midi": 54,
          "name": "F#3",
          "ticks": 30750,
          "time": 115.60154999999999,
          "velocity": 0.7874015748031497
        },
        {
          "duration": 0.44736860000000434,
          "durationTicks": 119,
          "midi": 47,
          "name": "B2",
          "ticks": 30780,
          "time": 115.714332,
          "velocity": 0.7874015748031497
        },
        {
          "duration": 0.2218046000000129,
          "durationTicks": 59,
          "midi": 59,
          "name": "B3",
          "ticks": 30840,
          "time": 115.93989599999999,
          "velocity": 0.7874015748031497
        },
        {
          "duration": 0.2218046000000129,
          "durationTicks": 59,
          "midi": 54,
          "name": "F#3",
          "ticks": 30840,
          "time": 115.93989599999999,
          "velocity": 0.7874015748031497
        },
        {
          "duration": 0.2218045999999987,
          "durationTicks": 59,
          "midi": 47,
          "name": "B2",
          "ticks": 30900,
          "time": 116.16546,
          "velocity": 0.7874015748031497
        },
        {
          "duration": 0.10902260000000297,
          "durationTicks": 29,
          "midi": 54,
          "name": "F#3",
          "ticks": 30930,
          "time": 116.27824199999999,
          "velocity": 0.7874015748031497
        },
        {
          "duration": 0.10902260000000297,
          "durationTicks": 29,
          "midi": 59,
          "name": "B3",
          "ticks": 30930,
          "time": 116.27824199999999,
          "velocity": 0.7874015748031497
        },
        {
          "duration": 0.10902260000000297,
          "durationTicks": 29,
          "midi": 47,
          "name": "B2",
          "ticks": 30960,
          "time": 116.39102399999999,
          "velocity": 0.7874015748031497
        },
        {
          "duration": 0.10902260000000297,
          "durationTicks": 29,
          "midi": 54,
          "name": "F#3",
          "ticks": 30990,
          "time": 116.503806,
          "velocity": 0.47244094488188976
        },
        {
          "duration": 0.10902260000000297,
          "durationTicks": 29,
          "midi": 59,
          "name": "B3",
          "ticks": 30990,
          "time": 116.503806,
          "velocity": 0.7874015748031497
        },
        {
          "duration": 0.2218045999999987,
          "durationTicks": 59,
          "midi": 47,
          "name": "B2",
          "ticks": 31020,
          "time": 116.616588,
          "velocity": 0.7874015748031497
        },
        {
          "duration": 0.3345865999999944,
          "durationTicks": 89,
          "midi": 54,
          "name": "F#3",
          "ticks": 31080,
          "time": 116.842152,
          "velocity": 0.7874015748031497
        },
        {
          "duration": 0.3345865999999944,
          "durationTicks": 89,
          "midi": 59,
          "name": "B3",
          "ticks": 31080,
          "time": 116.842152,
          "velocity": 0.7874015748031497
        },
        {
          "duration": 0.2218046000000129,
          "durationTicks": 59,
          "midi": 47,
          "name": "B2",
          "ticks": 31140,
          "time": 117.06771599999999,
          "velocity": 0.7874015748031497
        },
        {
          "duration": 0.2218045999999987,
          "durationTicks": 59,
          "midi": 47,
          "name": "B2",
          "ticks": 31200,
          "time": 117.29328,
          "velocity": 0.7874015748031497
        },
        {
          "duration": 0.10902260000000297,
          "durationTicks": 29,
          "midi": 59,
          "name": "B3",
          "ticks": 31230,
          "time": 117.40606199999999,
          "velocity": 0.7874015748031497
        },
        {
          "duration": 0.10902260000000297,
          "durationTicks": 29,
          "midi": 54,
          "name": "F#3",
          "ticks": 31230,
          "time": 117.40606199999999,
          "velocity": 0.7874015748031497
        },
        {
          "duration": 0.44736860000000434,
          "durationTicks": 119,
          "midi": 47,
          "name": "B2",
          "ticks": 31260,
          "time": 117.51884399999999,
          "velocity": 0.7874015748031497
        },
        {
          "duration": 0.2218045999999987,
          "durationTicks": 59,
          "midi": 59,
          "name": "B3",
          "ticks": 31320,
          "time": 117.74440799999999,
          "velocity": 0.7874015748031497
        },
        {
          "duration": 0.2218045999999987,
          "durationTicks": 59,
          "midi": 54,
          "name": "F#3",
          "ticks": 31320,
          "time": 117.74440799999999,
          "velocity": 0.7874015748031497
        },
        {
          "duration": 0.2218045999999987,
          "durationTicks": 59,
          "midi": 47,
          "name": "B2",
          "ticks": 31380,
          "time": 117.969972,
          "velocity": 0.7874015748031497
        },
        {
          "duration": 0.10902260000000297,
          "durationTicks": 29,
          "midi": 54,
          "name": "F#3",
          "ticks": 31410,
          "time": 118.082754,
          "velocity": 0.7874015748031497
        },
        {
          "duration": 0.10902260000000297,
          "durationTicks": 29,
          "midi": 59,
          "name": "B3",
          "ticks": 31410,
          "time": 118.082754,
          "velocity": 0.7874015748031497
        },
        {
          "duration": 0.10902260000000297,
          "durationTicks": 29,
          "midi": 47,
          "name": "B2",
          "ticks": 31440,
          "time": 118.19553599999999,
          "velocity": 0.7874015748031497
        },
        {
          "duration": 0.10902260000000297,
          "durationTicks": 29,
          "midi": 54,
          "name": "F#3",
          "ticks": 31470,
          "time": 118.308318,
          "velocity": 0.47244094488188976
        },
        {
          "duration": 0.10902260000000297,
          "durationTicks": 29,
          "midi": 59,
          "name": "B3",
          "ticks": 31470,
          "time": 118.308318,
          "velocity": 0.7874015748031497
        },
        {
          "duration": 0.2218045999999987,
          "durationTicks": 59,
          "midi": 47,
          "name": "B2",
          "ticks": 31500,
          "time": 118.4211,
          "velocity": 0.7874015748031497
        },
        {
          "duration": 0.3345866000000086,
          "durationTicks": 89,
          "midi": 54,
          "name": "F#3",
          "ticks": 31560,
          "time": 118.64666399999999,
          "velocity": 0.7874015748031497
        },
        {
          "duration": 0.3345866000000086,
          "durationTicks": 89,
          "midi": 59,
          "name": "B3",
          "ticks": 31560,
          "time": 118.64666399999999,
          "velocity": 0.7874015748031497
        },
        {
          "duration": 0.2218045999999987,
          "durationTicks": 59,
          "midi": 47,
          "name": "B2",
          "ticks": 31620,
          "time": 118.87222799999999,
          "velocity": 0.7874015748031497
        },
        {
          "duration": 0.2218045999999987,
          "durationTicks": 59,
          "midi": 47,
          "name": "B2",
          "ticks": 31680,
          "time": 119.097792,
          "velocity": 0.7874015748031497
        },
        {
          "duration": 0.10902260000000297,
          "durationTicks": 29,
          "midi": 59,
          "name": "B3",
          "ticks": 31710,
          "time": 119.210574,
          "velocity": 0.7874015748031497
        },
        {
          "duration": 0.10902260000000297,
          "durationTicks": 29,
          "midi": 54,
          "name": "F#3",
          "ticks": 31710,
          "time": 119.210574,
          "velocity": 0.7874015748031497
        },
        {
          "duration": 0.44736860000000434,
          "durationTicks": 119,
          "midi": 47,
          "name": "B2",
          "ticks": 31740,
          "time": 119.32335599999999,
          "velocity": 0.7874015748031497
        },
        {
          "duration": 0.2218045999999987,
          "durationTicks": 59,
          "midi": 59,
          "name": "B3",
          "ticks": 31800,
          "time": 119.54892,
          "velocity": 0.7874015748031497
        },
        {
          "duration": 0.2218045999999987,
          "durationTicks": 59,
          "midi": 54,
          "name": "F#3",
          "ticks": 31800,
          "time": 119.54892,
          "velocity": 0.7874015748031497
        },
        {
          "duration": 0.2218046000000129,
          "durationTicks": 59,
          "midi": 47,
          "name": "B2",
          "ticks": 31860,
          "time": 119.77448399999999,
          "velocity": 0.7874015748031497
        },
        {
          "duration": 0.10902260000000297,
          "durationTicks": 29,
          "midi": 54,
          "name": "F#3",
          "ticks": 31890,
          "time": 119.887266,
          "velocity": 0.7874015748031497
        },
        {
          "duration": 0.10902260000000297,
          "durationTicks": 29,
          "midi": 59,
          "name": "B3",
          "ticks": 31890,
          "time": 119.887266,
          "velocity": 0.7874015748031497
        },
        {
          "duration": 0.10902260000000297,
          "durationTicks": 29,
          "midi": 47,
          "name": "B2",
          "ticks": 31920,
          "time": 120.00004799999999,
          "velocity": 0.7874015748031497
        },
        {
          "duration": 0.10902260000000297,
          "durationTicks": 29,
          "midi": 54,
          "name": "F#3",
          "ticks": 31950,
          "time": 120.11282999999999,
          "velocity": 0.47244094488188976
        },
        {
          "duration": 0.10902260000000297,
          "durationTicks": 29,
          "midi": 59,
          "name": "B3",
          "ticks": 31950,
          "time": 120.11282999999999,
          "velocity": 0.7874015748031497
        },
        {
          "duration": 0.2218045999999987,
          "durationTicks": 59,
          "midi": 47,
          "name": "B2",
          "ticks": 31980,
          "time": 120.225612,
          "velocity": 0.7874015748031497
        },
        {
          "duration": 0.3345866000000086,
          "durationTicks": 89,
          "midi": 54,
          "name": "F#3",
          "ticks": 32040,
          "time": 120.45117599999999,
          "velocity": 0.7874015748031497
        },
        {
          "duration": 0.3345866000000086,
          "durationTicks": 89,
          "midi": 59,
          "name": "B3",
          "ticks": 32040,
          "time": 120.45117599999999,
          "velocity": 0.7874015748031497
        },
        {
          "duration": 0.2218045999999987,
          "durationTicks": 59,
          "midi": 47,
          "name": "B2",
          "ticks": 32100,
          "time": 120.67674,
          "velocity": 0.7874015748031497
        },
        {
          "duration": 0.2218046000000129,
          "durationTicks": 59,
          "midi": 47,
          "name": "B2",
          "ticks": 32160,
          "time": 120.90230399999999,
          "velocity": 0.7874015748031497
        },
        {
          "duration": 0.10902260000000297,
          "durationTicks": 29,
          "midi": 59,
          "name": "B3",
          "ticks": 32190,
          "time": 121.015086,
          "velocity": 0.7874015748031497
        },
        {
          "duration": 0.10902260000000297,
          "durationTicks": 29,
          "midi": 54,
          "name": "F#3",
          "ticks": 32190,
          "time": 121.015086,
          "velocity": 0.7874015748031497
        },
        {
          "duration": 0.44736860000000434,
          "durationTicks": 119,
          "midi": 47,
          "name": "B2",
          "ticks": 32220,
          "time": 121.12786799999999,
          "velocity": 0.7874015748031497
        },
        {
          "duration": 0.2218045999999987,
          "durationTicks": 59,
          "midi": 59,
          "name": "B3",
          "ticks": 32280,
          "time": 121.353432,
          "velocity": 0.7874015748031497
        },
        {
          "duration": 0.2218045999999987,
          "durationTicks": 59,
          "midi": 54,
          "name": "F#3",
          "ticks": 32280,
          "time": 121.353432,
          "velocity": 0.7874015748031497
        },
        {
          "duration": 0.2218046000000129,
          "durationTicks": 59,
          "midi": 47,
          "name": "B2",
          "ticks": 32340,
          "time": 121.57899599999999,
          "velocity": 0.7874015748031497
        },
        {
          "duration": 0.10902260000000297,
          "durationTicks": 29,
          "midi": 54,
          "name": "F#3",
          "ticks": 32370,
          "time": 121.691778,
          "velocity": 0.7874015748031497
        },
        {
          "duration": 0.10902260000000297,
          "durationTicks": 29,
          "midi": 59,
          "name": "B3",
          "ticks": 32370,
          "time": 121.691778,
          "velocity": 0.7874015748031497
        },
        {
          "duration": 0.10902260000000297,
          "durationTicks": 29,
          "midi": 47,
          "name": "B2",
          "ticks": 32400,
          "time": 121.80456,
          "velocity": 0.7874015748031497
        },
        {
          "duration": 0.10902260000000297,
          "durationTicks": 29,
          "midi": 54,
          "name": "F#3",
          "ticks": 32430,
          "time": 121.91734199999999,
          "velocity": 0.47244094488188976
        },
        {
          "duration": 0.10902260000000297,
          "durationTicks": 29,
          "midi": 59,
          "name": "B3",
          "ticks": 32430,
          "time": 121.91734199999999,
          "velocity": 0.7874015748031497
        },
        {
          "duration": 0.2218046000000129,
          "durationTicks": 59,
          "midi": 47,
          "name": "B2",
          "ticks": 32460,
          "time": 122.03012399999999,
          "velocity": 0.7874015748031497
        },
        {
          "duration": 0.3345866000000086,
          "durationTicks": 89,
          "midi": 54,
          "name": "F#3",
          "ticks": 32520,
          "time": 122.25568799999999,
          "velocity": 0.7874015748031497
        },
        {
          "duration": 0.3345866000000086,
          "durationTicks": 89,
          "midi": 59,
          "name": "B3",
          "ticks": 32520,
          "time": 122.25568799999999,
          "velocity": 0.7874015748031497
        },
        {
          "duration": 0.2218045999999987,
          "durationTicks": 59,
          "midi": 47,
          "name": "B2",
          "ticks": 32580,
          "time": 122.481252,
          "velocity": 0.7874015748031497
        },
        {
          "duration": 0.2218046000000129,
          "durationTicks": 59,
          "midi": 47,
          "name": "B2",
          "ticks": 32640,
          "time": 122.70681599999999,
          "velocity": 0.7874015748031497
        },
        {
          "duration": 0.10902260000000297,
          "durationTicks": 29,
          "midi": 59,
          "name": "B3",
          "ticks": 32670,
          "time": 122.819598,
          "velocity": 0.7874015748031497
        },
        {
          "duration": 0.10902260000000297,
          "durationTicks": 29,
          "midi": 54,
          "name": "F#3",
          "ticks": 32670,
          "time": 122.819598,
          "velocity": 0.7874015748031497
        },
        {
          "duration": 0.44736860000000434,
          "durationTicks": 119,
          "midi": 47,
          "name": "B2",
          "ticks": 32700,
          "time": 122.93238,
          "velocity": 0.7874015748031497
        },
        {
          "duration": 0.2218046000000129,
          "durationTicks": 59,
          "midi": 59,
          "name": "B3",
          "ticks": 32760,
          "time": 123.15794399999999,
          "velocity": 0.7874015748031497
        },
        {
          "duration": 0.2218046000000129,
          "durationTicks": 59,
          "midi": 54,
          "name": "F#3",
          "ticks": 32760,
          "time": 123.15794399999999,
          "velocity": 0.7874015748031497
        },
        {
          "duration": 0.2218045999999987,
          "durationTicks": 59,
          "midi": 47,
          "name": "B2",
          "ticks": 32820,
          "time": 123.38350799999999,
          "velocity": 0.7874015748031497
        },
        {
          "duration": 0.10902260000000297,
          "durationTicks": 29,
          "midi": 54,
          "name": "F#3",
          "ticks": 32850,
          "time": 123.49628999999999,
          "velocity": 0.7874015748031497
        },
        {
          "duration": 0.10902260000000297,
          "durationTicks": 29,
          "midi": 59,
          "name": "B3",
          "ticks": 32850,
          "time": 123.49628999999999,
          "velocity": 0.7874015748031497
        },
        {
          "duration": 0.10902260000000297,
          "durationTicks": 29,
          "midi": 47,
          "name": "B2",
          "ticks": 32880,
          "time": 123.609072,
          "velocity": 0.7874015748031497
        },
        {
          "duration": 0.10902260000000297,
          "durationTicks": 29,
          "midi": 54,
          "name": "F#3",
          "ticks": 32910,
          "time": 123.721854,
          "velocity": 0.47244094488188976
        },
        {
          "duration": 0.10902260000000297,
          "durationTicks": 29,
          "midi": 59,
          "name": "B3",
          "ticks": 32910,
          "time": 123.721854,
          "velocity": 0.7874015748031497
        },
        {
          "duration": 0.2218046000000129,
          "durationTicks": 59,
          "midi": 47,
          "name": "B2",
          "ticks": 32940,
          "time": 123.83463599999999,
          "velocity": 0.7874015748031497
        },
        {
          "duration": 0.3345865999999944,
          "durationTicks": 89,
          "midi": 54,
          "name": "F#3",
          "ticks": 33000,
          "time": 124.0602,
          "velocity": 0.7874015748031497
        },
        {
          "duration": 0.3345865999999944,
          "durationTicks": 89,
          "midi": 59,
          "name": "B3",
          "ticks": 33000,
          "time": 124.0602,
          "velocity": 0.7874015748031497
        },
        {
          "duration": 0.2218046000000129,
          "durationTicks": 59,
          "midi": 47,
          "name": "B2",
          "ticks": 33060,
          "time": 124.28576399999999,
          "velocity": 0.7874015748031497
        },
        {
          "duration": 0.2218045999999987,
          "durationTicks": 59,
          "midi": 47,
          "name": "B2",
          "ticks": 33120,
          "time": 124.51132799999999,
          "velocity": 0.7874015748031497
        },
        {
          "duration": 0.10902260000000297,
          "durationTicks": 29,
          "midi": 59,
          "name": "B3",
          "ticks": 33150,
          "time": 124.62410999999999,
          "velocity": 0.7874015748031497
        },
        {
          "duration": 0.10902260000000297,
          "durationTicks": 29,
          "midi": 54,
          "name": "F#3",
          "ticks": 33150,
          "time": 124.62410999999999,
          "velocity": 0.7874015748031497
        },
        {
          "duration": 0.44736860000000434,
          "durationTicks": 119,
          "midi": 47,
          "name": "B2",
          "ticks": 33180,
          "time": 124.736892,
          "velocity": 0.7874015748031497
        },
        {
          "duration": 0.2218046000000129,
          "durationTicks": 59,
          "midi": 59,
          "name": "B3",
          "ticks": 33240,
          "time": 124.96245599999999,
          "velocity": 0.7874015748031497
        },
        {
          "duration": 0.2218046000000129,
          "durationTicks": 59,
          "midi": 54,
          "name": "F#3",
          "ticks": 33240,
          "time": 124.96245599999999,
          "velocity": 0.7874015748031497
        },
        {
          "duration": 0.2218045999999987,
          "durationTicks": 59,
          "midi": 47,
          "name": "B2",
          "ticks": 33300,
          "time": 125.18802,
          "velocity": 0.7874015748031497
        },
        {
          "duration": 0.10902260000000297,
          "durationTicks": 29,
          "midi": 54,
          "name": "F#3",
          "ticks": 33330,
          "time": 125.30080199999999,
          "velocity": 0.7874015748031497
        },
        {
          "duration": 0.10902260000000297,
          "durationTicks": 29,
          "midi": 59,
          "name": "B3",
          "ticks": 33330,
          "time": 125.30080199999999,
          "velocity": 0.7874015748031497
        },
        {
          "duration": 0.10902260000001718,
          "durationTicks": 29,
          "midi": 47,
          "name": "B2",
          "ticks": 33360,
          "time": 125.41358399999999,
          "velocity": 0.7874015748031497
        },
        {
          "duration": 0.10902260000000297,
          "durationTicks": 29,
          "midi": 54,
          "name": "F#3",
          "ticks": 33390,
          "time": 125.526366,
          "velocity": 0.47244094488188976
        },
        {
          "duration": 0.10902260000000297,
          "durationTicks": 29,
          "midi": 59,
          "name": "B3",
          "ticks": 33390,
          "time": 125.526366,
          "velocity": 0.7874015748031497
        },
        {
          "duration": 0.2218045999999987,
          "durationTicks": 59,
          "midi": 47,
          "name": "B2",
          "ticks": 33420,
          "time": 125.63914799999999,
          "velocity": 0.7874015748031497
        },
        {
          "duration": 0.3345865999999944,
          "durationTicks": 89,
          "midi": 54,
          "name": "F#3",
          "ticks": 33480,
          "time": 125.864712,
          "velocity": 0.7874015748031497
        },
        {
          "duration": 0.3345865999999944,
          "durationTicks": 89,
          "midi": 59,
          "name": "B3",
          "ticks": 33480,
          "time": 125.864712,
          "velocity": 0.7874015748031497
        },
        {
          "duration": 0.2218046000000129,
          "durationTicks": 59,
          "midi": 47,
          "name": "B2",
          "ticks": 33540,
          "time": 126.09027599999999,
          "velocity": 0.7874015748031497
        },
        {
          "duration": 0.2218045999999987,
          "durationTicks": 59,
          "midi": 47,
          "name": "B2",
          "ticks": 33600,
          "time": 126.31584,
          "velocity": 0.7874015748031497
        },
        {
          "duration": 0.10902260000000297,
          "durationTicks": 29,
          "midi": 59,
          "name": "B3",
          "ticks": 33630,
          "time": 126.42862199999999,
          "velocity": 0.7874015748031497
        },
        {
          "duration": 0.10902260000000297,
          "durationTicks": 29,
          "midi": 54,
          "name": "F#3",
          "ticks": 33630,
          "time": 126.42862199999999,
          "velocity": 0.7874015748031497
        },
        {
          "duration": 0.44736860000000434,
          "durationTicks": 119,
          "midi": 47,
          "name": "B2",
          "ticks": 33660,
          "time": 126.54140399999999,
          "velocity": 0.7874015748031497
        },
        {
          "duration": 0.2218045999999987,
          "durationTicks": 59,
          "midi": 59,
          "name": "B3",
          "ticks": 33720,
          "time": 126.76696799999999,
          "velocity": 0.7874015748031497
        },
        {
          "duration": 0.2218045999999987,
          "durationTicks": 59,
          "midi": 54,
          "name": "F#3",
          "ticks": 33720,
          "time": 126.76696799999999,
          "velocity": 0.7874015748031497
        },
        {
          "duration": 0.2218045999999987,
          "durationTicks": 59,
          "midi": 47,
          "name": "B2",
          "ticks": 33780,
          "time": 126.992532,
          "velocity": 0.7874015748031497
        },
        {
          "duration": 0.10902260000000297,
          "durationTicks": 29,
          "midi": 54,
          "name": "F#3",
          "ticks": 33810,
          "time": 127.10531399999999,
          "velocity": 0.7874015748031497
        },
        {
          "duration": 0.10902260000000297,
          "durationTicks": 29,
          "midi": 59,
          "name": "B3",
          "ticks": 33810,
          "time": 127.10531399999999,
          "velocity": 0.7874015748031497
        },
        {
          "duration": 0.10902260000000297,
          "durationTicks": 29,
          "midi": 47,
          "name": "B2",
          "ticks": 33840,
          "time": 127.21809599999999,
          "velocity": 0.7874015748031497
        },
        {
          "duration": 0.10902260000000297,
          "durationTicks": 29,
          "midi": 54,
          "name": "F#3",
          "ticks": 33870,
          "time": 127.330878,
          "velocity": 0.47244094488188976
        },
        {
          "duration": 0.10902260000000297,
          "durationTicks": 29,
          "midi": 59,
          "name": "B3",
          "ticks": 33870,
          "time": 127.330878,
          "velocity": 0.7874015748031497
        },
        {
          "duration": 0.2218045999999987,
          "durationTicks": 59,
          "midi": 47,
          "name": "B2",
          "ticks": 33900,
          "time": 127.44366,
          "velocity": 0.7874015748031497
        },
        {
          "duration": 0.3345866000000228,
          "durationTicks": 89,
          "midi": 54,
          "name": "F#3",
          "ticks": 33960,
          "time": 127.66922399999999,
          "velocity": 0.7874015748031497
        },
        {
          "duration": 0.3345866000000228,
          "durationTicks": 89,
          "midi": 59,
          "name": "B3",
          "ticks": 33960,
          "time": 127.66922399999999,
          "velocity": 0.7874015748031497
        },
        {
          "duration": 0.2218045999999987,
          "durationTicks": 59,
          "midi": 47,
          "name": "B2",
          "ticks": 34020,
          "time": 127.89478799999999,
          "velocity": 0.7874015748031497
        },
        {
          "duration": 0.2218046000000129,
          "durationTicks": 59,
          "midi": 47,
          "name": "B2",
          "ticks": 34080,
          "time": 128.120352,
          "velocity": 0.7874015748031497
        },
        {
          "duration": 0.10902260000003139,
          "durationTicks": 29,
          "midi": 59,
          "name": "B3",
          "ticks": 34110,
          "time": 128.23313399999998,
          "velocity": 0.7874015748031497
        },
        {
          "duration": 0.10902260000003139,
          "durationTicks": 29,
          "midi": 54,
          "name": "F#3",
          "ticks": 34110,
          "time": 128.23313399999998,
          "velocity": 0.7874015748031497
        },
        {
          "duration": 0.44736860000000434,
          "durationTicks": 119,
          "midi": 47,
          "name": "B2",
          "ticks": 34140,
          "time": 128.345916,
          "velocity": 0.7874015748031497
        },
        {
          "duration": 0.2218046000000129,
          "durationTicks": 59,
          "midi": 59,
          "name": "B3",
          "ticks": 34200,
          "time": 128.57147999999998,
          "velocity": 0.7874015748031497
        },
        {
          "duration": 0.2218046000000129,
          "durationTicks": 59,
          "midi": 54,
          "name": "F#3",
          "ticks": 34200,
          "time": 128.57147999999998,
          "velocity": 0.7874015748031497
        },
        {
          "duration": 0.22180459999998448,
          "durationTicks": 59,
          "midi": 47,
          "name": "B2",
          "ticks": 34260,
          "time": 128.797044,
          "velocity": 0.7874015748031497
        },
        {
          "duration": 0.10902260000000297,
          "durationTicks": 29,
          "midi": 54,
          "name": "F#3",
          "ticks": 34290,
          "time": 128.90982599999998,
          "velocity": 0.7874015748031497
        },
        {
          "duration": 0.10902260000000297,
          "durationTicks": 29,
          "midi": 59,
          "name": "B3",
          "ticks": 34290,
          "time": 128.90982599999998,
          "velocity": 0.7874015748031497
        },
        {
          "duration": 0.10902260000000297,
          "durationTicks": 29,
          "midi": 47,
          "name": "B2",
          "ticks": 34320,
          "time": 129.022608,
          "velocity": 0.7874015748031497
        },
        {
          "duration": 0.10902260000000297,
          "durationTicks": 29,
          "midi": 54,
          "name": "F#3",
          "ticks": 34350,
          "time": 129.13539,
          "velocity": 0.47244094488188976
        },
        {
          "duration": 0.10902260000000297,
          "durationTicks": 29,
          "midi": 59,
          "name": "B3",
          "ticks": 34350,
          "time": 129.13539,
          "velocity": 0.7874015748031497
        },
        {
          "duration": 0.2218046000000129,
          "durationTicks": 59,
          "midi": 47,
          "name": "B2",
          "ticks": 34380,
          "time": 129.24817199999998,
          "velocity": 0.7874015748031497
        },
        {
          "duration": 0.3345865999999944,
          "durationTicks": 89,
          "midi": 54,
          "name": "F#3",
          "ticks": 34440,
          "time": 129.473736,
          "velocity": 0.7874015748031497
        },
        {
          "duration": 0.3345865999999944,
          "durationTicks": 89,
          "midi": 59,
          "name": "B3",
          "ticks": 34440,
          "time": 129.473736,
          "velocity": 0.7874015748031497
        },
        {
          "duration": 0.2218046000000129,
          "durationTicks": 59,
          "midi": 47,
          "name": "B2",
          "ticks": 34500,
          "time": 129.6993,
          "velocity": 0.7874015748031497
        },
        {
          "duration": 0.2218046000000129,
          "durationTicks": 59,
          "midi": 47,
          "name": "B2",
          "ticks": 34560,
          "time": 129.92486399999999,
          "velocity": 0.7874015748031497
        },
        {
          "duration": 0.10902260000000297,
          "durationTicks": 29,
          "midi": 59,
          "name": "B3",
          "ticks": 34590,
          "time": 130.037646,
          "velocity": 0.7874015748031497
        },
        {
          "duration": 0.10902260000000297,
          "durationTicks": 29,
          "midi": 54,
          "name": "F#3",
          "ticks": 34590,
          "time": 130.037646,
          "velocity": 0.7874015748031497
        },
        {
          "duration": 0.44736860000000434,
          "durationTicks": 119,
          "midi": 47,
          "name": "B2",
          "ticks": 34620,
          "time": 130.150428,
          "velocity": 0.7874015748031497
        },
        {
          "duration": 0.2218046000000129,
          "durationTicks": 59,
          "midi": 59,
          "name": "B3",
          "ticks": 34680,
          "time": 130.375992,
          "velocity": 0.7874015748031497
        },
        {
          "duration": 0.2218046000000129,
          "durationTicks": 59,
          "midi": 54,
          "name": "F#3",
          "ticks": 34680,
          "time": 130.375992,
          "velocity": 0.7874015748031497
        },
        {
          "duration": 0.2218046000000129,
          "durationTicks": 59,
          "midi": 47,
          "name": "B2",
          "ticks": 34740,
          "time": 130.601556,
          "velocity": 0.7874015748031497
        },
        {
          "duration": 0.10902260000000297,
          "durationTicks": 29,
          "midi": 54,
          "name": "F#3",
          "ticks": 34770,
          "time": 130.714338,
          "velocity": 0.7874015748031497
        },
        {
          "duration": 0.10902260000000297,
          "durationTicks": 29,
          "midi": 59,
          "name": "B3",
          "ticks": 34770,
          "time": 130.714338,
          "velocity": 0.7874015748031497
        },
        {
          "duration": 0.10902260000000297,
          "durationTicks": 29,
          "midi": 47,
          "name": "B2",
          "ticks": 34800,
          "time": 130.82711999999998,
          "velocity": 0.7874015748031497
        },
        {
          "duration": 0.10902260000000297,
          "durationTicks": 29,
          "midi": 54,
          "name": "F#3",
          "ticks": 34830,
          "time": 130.939902,
          "velocity": 0.47244094488188976
        },
        {
          "duration": 0.10902260000000297,
          "durationTicks": 29,
          "midi": 59,
          "name": "B3",
          "ticks": 34830,
          "time": 130.939902,
          "velocity": 0.7874015748031497
        },
        {
          "duration": 0.22180459999998448,
          "durationTicks": 59,
          "midi": 47,
          "name": "B2",
          "ticks": 34860,
          "time": 131.052684,
          "velocity": 0.7874015748031497
        },
        {
          "duration": 0.3345865999999944,
          "durationTicks": 89,
          "midi": 54,
          "name": "F#3",
          "ticks": 34920,
          "time": 131.278248,
          "velocity": 0.7874015748031497
        },
        {
          "duration": 0.3345865999999944,
          "durationTicks": 89,
          "midi": 59,
          "name": "B3",
          "ticks": 34920,
          "time": 131.278248,
          "velocity": 0.7874015748031497
        },
        {
          "duration": 0.2218046000000129,
          "durationTicks": 59,
          "midi": 47,
          "name": "B2",
          "ticks": 34980,
          "time": 131.50381199999998,
          "velocity": 0.7874015748031497
        },
        {
          "duration": 0.22180459999998448,
          "durationTicks": 59,
          "midi": 47,
          "name": "B2",
          "ticks": 35040,
          "time": 131.729376,
          "velocity": 0.7874015748031497
        },
        {
          "duration": 0.10902260000000297,
          "durationTicks": 29,
          "midi": 59,
          "name": "B3",
          "ticks": 35070,
          "time": 131.84215799999998,
          "velocity": 0.7874015748031497
        },
        {
          "duration": 0.10902260000000297,
          "durationTicks": 29,
          "midi": 54,
          "name": "F#3",
          "ticks": 35070,
          "time": 131.84215799999998,
          "velocity": 0.7874015748031497
        },
        {
          "duration": 0.44736860000000434,
          "durationTicks": 119,
          "midi": 47,
          "name": "B2",
          "ticks": 35100,
          "time": 131.95494,
          "velocity": 0.7874015748031497
        },
        {
          "duration": 0.2218046000000129,
          "durationTicks": 59,
          "midi": 59,
          "name": "B3",
          "ticks": 35160,
          "time": 132.18050399999998,
          "velocity": 0.7874015748031497
        },
        {
          "duration": 0.2218046000000129,
          "durationTicks": 59,
          "midi": 54,
          "name": "F#3",
          "ticks": 35160,
          "time": 132.18050399999998,
          "velocity": 0.7874015748031497
        },
        {
          "duration": 0.22180459999998448,
          "durationTicks": 59,
          "midi": 47,
          "name": "B2",
          "ticks": 35220,
          "time": 132.406068,
          "velocity": 0.7874015748031497
        },
        {
          "duration": 0.10902260000000297,
          "durationTicks": 29,
          "midi": 54,
          "name": "F#3",
          "ticks": 35250,
          "time": 132.51885,
          "velocity": 0.7874015748031497
        },
        {
          "duration": 0.10902260000000297,
          "durationTicks": 29,
          "midi": 59,
          "name": "B3",
          "ticks": 35250,
          "time": 132.51885,
          "velocity": 0.7874015748031497
        },
        {
          "duration": 0.10902260000000297,
          "durationTicks": 29,
          "midi": 47,
          "name": "B2",
          "ticks": 35280,
          "time": 132.631632,
          "velocity": 0.7874015748031497
        },
        {
          "duration": 0.10902260000000297,
          "durationTicks": 29,
          "midi": 54,
          "name": "F#3",
          "ticks": 35310,
          "time": 132.744414,
          "velocity": 0.47244094488188976
        },
        {
          "duration": 0.10902260000000297,
          "durationTicks": 29,
          "midi": 59,
          "name": "B3",
          "ticks": 35310,
          "time": 132.744414,
          "velocity": 0.7874015748031497
        },
        {
          "duration": 0.2218046000000129,
          "durationTicks": 59,
          "midi": 47,
          "name": "B2",
          "ticks": 35340,
          "time": 132.857196,
          "velocity": 0.7874015748031497
        },
        {
          "duration": 0.3345866000000228,
          "durationTicks": 89,
          "midi": 54,
          "name": "F#3",
          "ticks": 35400,
          "time": 133.08275999999998,
          "velocity": 0.7874015748031497
        },
        {
          "duration": 0.3345866000000228,
          "durationTicks": 89,
          "midi": 59,
          "name": "B3",
          "ticks": 35400,
          "time": 133.08275999999998,
          "velocity": 0.7874015748031497
        },
        {
          "duration": 0.22180459999998448,
          "durationTicks": 59,
          "midi": 47,
          "name": "B2",
          "ticks": 35460,
          "time": 133.308324,
          "velocity": 0.7874015748031497
        },
        {
          "duration": 0.2218046000000129,
          "durationTicks": 59,
          "midi": 47,
          "name": "B2",
          "ticks": 35520,
          "time": 133.533888,
          "velocity": 0.7874015748031497
        },
        {
          "duration": 0.10902260000000297,
          "durationTicks": 29,
          "midi": 59,
          "name": "B3",
          "ticks": 35550,
          "time": 133.64667,
          "velocity": 0.7874015748031497
        },
        {
          "duration": 0.10902260000000297,
          "durationTicks": 29,
          "midi": 54,
          "name": "F#3",
          "ticks": 35550,
          "time": 133.64667,
          "velocity": 0.7874015748031497
        },
        {
          "duration": 0.44736860000000434,
          "durationTicks": 119,
          "midi": 47,
          "name": "B2",
          "ticks": 35580,
          "time": 133.75945199999998,
          "velocity": 0.7874015748031497
        },
        {
          "duration": 0.22180459999998448,
          "durationTicks": 59,
          "midi": 59,
          "name": "B3",
          "ticks": 35640,
          "time": 133.985016,
          "velocity": 0.7874015748031497
        },
        {
          "duration": 0.22180459999998448,
          "durationTicks": 59,
          "midi": 54,
          "name": "F#3",
          "ticks": 35640,
          "time": 133.985016,
          "velocity": 0.7874015748031497
        },
        {
          "duration": 0.2218046000000129,
          "durationTicks": 59,
          "midi": 47,
          "name": "B2",
          "ticks": 35700,
          "time": 134.21058,
          "velocity": 0.7874015748031497
        },
        {
          "duration": 0.10902260000000297,
          "durationTicks": 29,
          "midi": 54,
          "name": "F#3",
          "ticks": 35730,
          "time": 134.323362,
          "velocity": 0.7874015748031497
        },
        {
          "duration": 0.10902260000000297,
          "durationTicks": 29,
          "midi": 59,
          "name": "B3",
          "ticks": 35730,
          "time": 134.323362,
          "velocity": 0.7874015748031497
        },
        {
          "duration": 0.10902260000000297,
          "durationTicks": 29,
          "midi": 47,
          "name": "B2",
          "ticks": 35760,
          "time": 134.43614399999998,
          "velocity": 0.7874015748031497
        },
        {
          "duration": 0.10902260000000297,
          "durationTicks": 29,
          "midi": 54,
          "name": "F#3",
          "ticks": 35790,
          "time": 134.548926,
          "velocity": 0.47244094488188976
        },
        {
          "duration": 0.10902260000000297,
          "durationTicks": 29,
          "midi": 59,
          "name": "B3",
          "ticks": 35790,
          "time": 134.548926,
          "velocity": 0.7874015748031497
        },
        {
          "duration": 0.22180459999998448,
          "durationTicks": 59,
          "midi": 47,
          "name": "B2",
          "ticks": 35820,
          "time": 134.661708,
          "velocity": 0.7874015748031497
        },
        {
          "duration": 0.3345865999999944,
          "durationTicks": 89,
          "midi": 54,
          "name": "F#3",
          "ticks": 35880,
          "time": 134.887272,
          "velocity": 0.7874015748031497
        },
        {
          "duration": 0.3345865999999944,
          "durationTicks": 89,
          "midi": 59,
          "name": "B3",
          "ticks": 35880,
          "time": 134.887272,
          "velocity": 0.7874015748031497
        },
        {
          "duration": 0.2218046000000129,
          "durationTicks": 59,
          "midi": 47,
          "name": "B2",
          "ticks": 35940,
          "time": 135.112836,
          "velocity": 0.7874015748031497
        },
        {
          "duration": 0.2218046000000129,
          "durationTicks": 59,
          "midi": 47,
          "name": "B2",
          "ticks": 36000,
          "time": 135.33839999999998,
          "velocity": 0.7874015748031497
        },
        {
          "duration": 0.10902260000000297,
          "durationTicks": 29,
          "midi": 59,
          "name": "B3",
          "ticks": 36030,
          "time": 135.451182,
          "velocity": 0.7874015748031497
        },
        {
          "duration": 0.10902260000000297,
          "durationTicks": 29,
          "midi": 54,
          "name": "F#3",
          "ticks": 36030,
          "time": 135.451182,
          "velocity": 0.7874015748031497
        },
        {
          "duration": 0.44736860000000434,
          "durationTicks": 119,
          "midi": 47,
          "name": "B2",
          "ticks": 36060,
          "time": 135.563964,
          "velocity": 0.7874015748031497
        },
        {
          "duration": 0.2218046000000129,
          "durationTicks": 59,
          "midi": 59,
          "name": "B3",
          "ticks": 36120,
          "time": 135.789528,
          "velocity": 0.7874015748031497
        },
        {
          "duration": 0.2218046000000129,
          "durationTicks": 59,
          "midi": 54,
          "name": "F#3",
          "ticks": 36120,
          "time": 135.789528,
          "velocity": 0.7874015748031497
        },
        {
          "duration": 0.2218046000000129,
          "durationTicks": 59,
          "midi": 47,
          "name": "B2",
          "ticks": 36180,
          "time": 136.01509199999998,
          "velocity": 0.7874015748031497
        },
        {
          "duration": 0.10902260000000297,
          "durationTicks": 29,
          "midi": 54,
          "name": "F#3",
          "ticks": 36210,
          "time": 136.127874,
          "velocity": 0.7874015748031497
        },
        {
          "duration": 0.10902260000000297,
          "durationTicks": 29,
          "midi": 59,
          "name": "B3",
          "ticks": 36210,
          "time": 136.127874,
          "velocity": 0.7874015748031497
        },
        {
          "duration": 0.10902260000000297,
          "durationTicks": 29,
          "midi": 47,
          "name": "B2",
          "ticks": 36240,
          "time": 136.240656,
          "velocity": 0.7874015748031497
        },
        {
          "duration": 0.10902260000000297,
          "durationTicks": 29,
          "midi": 54,
          "name": "F#3",
          "ticks": 36270,
          "time": 136.35343799999998,
          "velocity": 0.47244094488188976
        },
        {
          "duration": 0.10902260000000297,
          "durationTicks": 29,
          "midi": 59,
          "name": "B3",
          "ticks": 36270,
          "time": 136.35343799999998,
          "velocity": 0.7874015748031497
        },
        {
          "duration": 0.2218046000000129,
          "durationTicks": 59,
          "midi": 47,
          "name": "B2",
          "ticks": 36300,
          "time": 136.46622,
          "velocity": 0.7874015748031497
        },
        {
          "duration": 0.3345866000000228,
          "durationTicks": 89,
          "midi": 54,
          "name": "F#3",
          "ticks": 36360,
          "time": 136.69178399999998,
          "velocity": 0.7874015748031497
        },
        {
          "duration": 0.3345866000000228,
          "durationTicks": 89,
          "midi": 59,
          "name": "B3",
          "ticks": 36360,
          "time": 136.69178399999998,
          "velocity": 0.7874015748031497
        },
        {
          "duration": 0.22180459999998448,
          "durationTicks": 59,
          "midi": 47,
          "name": "B2",
          "ticks": 36420,
          "time": 136.917348,
          "velocity": 0.7874015748031497
        },
        {
          "duration": 0.2218046000000129,
          "durationTicks": 59,
          "midi": 47,
          "name": "B2",
          "ticks": 36480,
          "time": 137.142912,
          "velocity": 0.7874015748031497
        },
        {
          "duration": 0.10902260000000297,
          "durationTicks": 29,
          "midi": 59,
          "name": "B3",
          "ticks": 36510,
          "time": 137.255694,
          "velocity": 0.7874015748031497
        },
        {
          "duration": 0.10902260000000297,
          "durationTicks": 29,
          "midi": 54,
          "name": "F#3",
          "ticks": 36510,
          "time": 137.255694,
          "velocity": 0.7874015748031497
        },
        {
          "duration": 0.44736860000000434,
          "durationTicks": 119,
          "midi": 47,
          "name": "B2",
          "ticks": 36540,
          "time": 137.368476,
          "velocity": 0.7874015748031497
        },
        {
          "duration": 0.2218046000000129,
          "durationTicks": 59,
          "midi": 59,
          "name": "B3",
          "ticks": 36600,
          "time": 137.59403999999998,
          "velocity": 0.7874015748031497
        },
        {
          "duration": 0.2218046000000129,
          "durationTicks": 59,
          "midi": 54,
          "name": "F#3",
          "ticks": 36600,
          "time": 137.59403999999998,
          "velocity": 0.7874015748031497
        },
        {
          "duration": 0.22180459999998448,
          "durationTicks": 59,
          "midi": 47,
          "name": "B2",
          "ticks": 36660,
          "time": 137.819604,
          "velocity": 0.7874015748031497
        },
        {
          "duration": 0.10902260000000297,
          "durationTicks": 29,
          "midi": 54,
          "name": "F#3",
          "ticks": 36690,
          "time": 137.93238599999998,
          "velocity": 0.7874015748031497
        },
        {
          "duration": 0.10902260000000297,
          "durationTicks": 29,
          "midi": 59,
          "name": "B3",
          "ticks": 36690,
          "time": 137.93238599999998,
          "velocity": 0.7874015748031497
        },
        {
          "duration": 0.10902260000000297,
          "durationTicks": 29,
          "midi": 47,
          "name": "B2",
          "ticks": 36720,
          "time": 138.045168,
          "velocity": 0.7874015748031497
        },
        {
          "duration": 0.10902260000000297,
          "durationTicks": 29,
          "midi": 54,
          "name": "F#3",
          "ticks": 36750,
          "time": 138.15795,
          "velocity": 0.47244094488188976
        },
        {
          "duration": 0.10902260000000297,
          "durationTicks": 29,
          "midi": 59,
          "name": "B3",
          "ticks": 36750,
          "time": 138.15795,
          "velocity": 0.7874015748031497
        },
        {
          "duration": 0.2218046000000129,
          "durationTicks": 59,
          "midi": 47,
          "name": "B2",
          "ticks": 36780,
          "time": 138.27073199999998,
          "velocity": 0.7874015748031497
        },
        {
          "duration": 0.3345865999999944,
          "durationTicks": 89,
          "midi": 54,
          "name": "F#3",
          "ticks": 36840,
          "time": 138.496296,
          "velocity": 0.7874015748031497
        },
        {
          "duration": 0.3345865999999944,
          "durationTicks": 89,
          "midi": 59,
          "name": "B3",
          "ticks": 36840,
          "time": 138.496296,
          "velocity": 0.7874015748031497
        },
        {
          "duration": 0.2218046000000129,
          "durationTicks": 59,
          "midi": 47,
          "name": "B2",
          "ticks": 36900,
          "time": 138.72186,
          "velocity": 0.7874015748031497
        },
        {
          "duration": 0.2218046000000129,
          "durationTicks": 59,
          "midi": 47,
          "name": "B2",
          "ticks": 36960,
          "time": 138.94742399999998,
          "velocity": 0.7874015748031497
        },
        {
          "duration": 0.10902260000000297,
          "durationTicks": 29,
          "midi": 59,
          "name": "B3",
          "ticks": 36990,
          "time": 139.060206,
          "velocity": 0.7874015748031497
        },
        {
          "duration": 0.10902260000000297,
          "durationTicks": 29,
          "midi": 54,
          "name": "F#3",
          "ticks": 36990,
          "time": 139.060206,
          "velocity": 0.7874015748031497
        },
        {
          "duration": 0.44736860000000434,
          "durationTicks": 119,
          "midi": 47,
          "name": "B2",
          "ticks": 37020,
          "time": 139.172988,
          "velocity": 0.7874015748031497
        },
        {
          "duration": 0.2218046000000129,
          "durationTicks": 59,
          "midi": 59,
          "name": "B3",
          "ticks": 37080,
          "time": 139.398552,
          "velocity": 0.7874015748031497
        },
        {
          "duration": 0.2218046000000129,
          "durationTicks": 59,
          "midi": 54,
          "name": "F#3",
          "ticks": 37080,
          "time": 139.398552,
          "velocity": 0.7874015748031497
        },
        {
          "duration": 0.2218046000000129,
          "durationTicks": 59,
          "midi": 47,
          "name": "B2",
          "ticks": 37140,
          "time": 139.624116,
          "velocity": 0.7874015748031497
        },
        {
          "duration": 0.10902260000000297,
          "durationTicks": 29,
          "midi": 54,
          "name": "F#3",
          "ticks": 37170,
          "time": 139.736898,
          "velocity": 0.7874015748031497
        },
        {
          "duration": 0.10902260000000297,
          "durationTicks": 29,
          "midi": 59,
          "name": "B3",
          "ticks": 37170,
          "time": 139.736898,
          "velocity": 0.7874015748031497
        },
        {
          "duration": 0.10902260000003139,
          "durationTicks": 29,
          "midi": 47,
          "name": "B2",
          "ticks": 37200,
          "time": 139.84967999999998,
          "velocity": 0.7874015748031497
        },
        {
          "duration": 0.10902260000000297,
          "durationTicks": 29,
          "midi": 54,
          "name": "F#3",
          "ticks": 37230,
          "time": 139.962462,
          "velocity": 0.47244094488188976
        },
        {
          "duration": 0.10902260000000297,
          "durationTicks": 29,
          "midi": 59,
          "name": "B3",
          "ticks": 37230,
          "time": 139.962462,
          "velocity": 0.7874015748031497
        },
        {
          "duration": 0.22180459999998448,
          "durationTicks": 59,
          "midi": 47,
          "name": "B2",
          "ticks": 37260,
          "time": 140.075244,
          "velocity": 0.7874015748031497
        },
        {
          "duration": 0.3345865999999944,
          "durationTicks": 89,
          "midi": 54,
          "name": "F#3",
          "ticks": 37320,
          "time": 140.300808,
          "velocity": 0.7874015748031497
        },
        {
          "duration": 0.3345865999999944,
          "durationTicks": 89,
          "midi": 59,
          "name": "B3",
          "ticks": 37320,
          "time": 140.300808,
          "velocity": 0.7874015748031497
        },
        {
          "duration": 0.2218046000000129,
          "durationTicks": 59,
          "midi": 47,
          "name": "B2",
          "ticks": 37380,
          "time": 140.52637199999998,
          "velocity": 0.7874015748031497
        },
        {
          "duration": 0.22180459999998448,
          "durationTicks": 59,
          "midi": 47,
          "name": "B2",
          "ticks": 37440,
          "time": 140.751936,
          "velocity": 0.7874015748031497
        },
        {
          "duration": 0.10902260000000297,
          "durationTicks": 29,
          "midi": 59,
          "name": "B3",
          "ticks": 37470,
          "time": 140.86471799999998,
          "velocity": 0.7874015748031497
        },
        {
          "duration": 0.10902260000000297,
          "durationTicks": 29,
          "midi": 54,
          "name": "F#3",
          "ticks": 37470,
          "time": 140.86471799999998,
          "velocity": 0.7874015748031497
        },
        {
          "duration": 0.44736860000000434,
          "durationTicks": 119,
          "midi": 47,
          "name": "B2",
          "ticks": 37500,
          "time": 140.9775,
          "velocity": 0.7874015748031497
        },
        {
          "duration": 0.2218046000000129,
          "durationTicks": 59,
          "midi": 59,
          "name": "B3",
          "ticks": 37560,
          "time": 141.20306399999998,
          "velocity": 0.7874015748031497
        },
        {
          "duration": 0.2218046000000129,
          "durationTicks": 59,
          "midi": 54,
          "name": "F#3",
          "ticks": 37560,
          "time": 141.20306399999998,
          "velocity": 0.7874015748031497
        },
        {
          "duration": 0.22180459999998448,
          "durationTicks": 59,
          "midi": 47,
          "name": "B2",
          "ticks": 37620,
          "time": 141.428628,
          "velocity": 0.7874015748031497
        },
        {
          "duration": 0.10902260000000297,
          "durationTicks": 29,
          "midi": 54,
          "name": "F#3",
          "ticks": 37650,
          "time": 141.54140999999998,
          "velocity": 0.7874015748031497
        },
        {
          "duration": 0.10902260000000297,
          "durationTicks": 29,
          "midi": 59,
          "name": "B3",
          "ticks": 37650,
          "time": 141.54140999999998,
          "velocity": 0.7874015748031497
        },
        {
          "duration": 0.10902260000000297,
          "durationTicks": 29,
          "midi": 47,
          "name": "B2",
          "ticks": 37680,
          "time": 141.654192,
          "velocity": 0.7874015748031497
        },
        {
          "duration": 0.10902260000000297,
          "durationTicks": 29,
          "midi": 54,
          "name": "F#3",
          "ticks": 37710,
          "time": 141.766974,
          "velocity": 0.47244094488188976
        },
        {
          "duration": 0.10902260000000297,
          "durationTicks": 29,
          "midi": 59,
          "name": "B3",
          "ticks": 37710,
          "time": 141.766974,
          "velocity": 0.7874015748031497
        },
        {
          "duration": 0.2218046000000129,
          "durationTicks": 59,
          "midi": 47,
          "name": "B2",
          "ticks": 37740,
          "time": 141.879756,
          "velocity": 0.7874015748031497
        },
        {
          "duration": 0.3345866000000228,
          "durationTicks": 89,
          "midi": 54,
          "name": "F#3",
          "ticks": 37800,
          "time": 142.10531999999998,
          "velocity": 0.7874015748031497
        },
        {
          "duration": 0.3345866000000228,
          "durationTicks": 89,
          "midi": 59,
          "name": "B3",
          "ticks": 37800,
          "time": 142.10531999999998,
          "velocity": 0.7874015748031497
        },
        {
          "duration": 0.22180459999998448,
          "durationTicks": 59,
          "midi": 47,
          "name": "B2",
          "ticks": 37860,
          "time": 142.330884,
          "velocity": 0.7874015748031497
        },
        {
          "duration": 0.2218046000000129,
          "durationTicks": 59,
          "midi": 47,
          "name": "B2",
          "ticks": 37920,
          "time": 142.556448,
          "velocity": 0.7874015748031497
        },
        {
          "duration": 0.10902260000000297,
          "durationTicks": 29,
          "midi": 59,
          "name": "B3",
          "ticks": 37950,
          "time": 142.66923,
          "velocity": 0.7874015748031497
        },
        {
          "duration": 0.10902260000000297,
          "durationTicks": 29,
          "midi": 54,
          "name": "F#3",
          "ticks": 37950,
          "time": 142.66923,
          "velocity": 0.7874015748031497
        },
        {
          "duration": 0.44736860000000434,
          "durationTicks": 119,
          "midi": 47,
          "name": "B2",
          "ticks": 37980,
          "time": 142.78201199999998,
          "velocity": 0.7874015748031497
        },
        {
          "duration": 0.22180459999998448,
          "durationTicks": 59,
          "midi": 59,
          "name": "B3",
          "ticks": 38040,
          "time": 143.007576,
          "velocity": 0.7874015748031497
        },
        {
          "duration": 0.22180459999998448,
          "durationTicks": 59,
          "midi": 54,
          "name": "F#3",
          "ticks": 38040,
          "time": 143.007576,
          "velocity": 0.7874015748031497
        },
        {
          "duration": 0.2218046000000129,
          "durationTicks": 59,
          "midi": 47,
          "name": "B2",
          "ticks": 38100,
          "time": 143.23314,
          "velocity": 0.7874015748031497
        },
        {
          "duration": 0.10902260000000297,
          "durationTicks": 29,
          "midi": 54,
          "name": "F#3",
          "ticks": 38130,
          "time": 143.345922,
          "velocity": 0.7874015748031497
        },
        {
          "duration": 0.10902260000000297,
          "durationTicks": 29,
          "midi": 59,
          "name": "B3",
          "ticks": 38130,
          "time": 143.345922,
          "velocity": 0.7874015748031497
        },
        {
          "duration": 0.10902260000000297,
          "durationTicks": 29,
          "midi": 47,
          "name": "B2",
          "ticks": 38160,
          "time": 143.45870399999998,
          "velocity": 0.7874015748031497
        },
        {
          "duration": 0.10902260000000297,
          "durationTicks": 29,
          "midi": 54,
          "name": "F#3",
          "ticks": 38190,
          "time": 143.571486,
          "velocity": 0.47244094488188976
        },
        {
          "duration": 0.10902260000000297,
          "durationTicks": 29,
          "midi": 59,
          "name": "B3",
          "ticks": 38190,
          "time": 143.571486,
          "velocity": 0.7874015748031497
        },
        {
          "duration": 0.22180459999998448,
          "durationTicks": 59,
          "midi": 47,
          "name": "B2",
          "ticks": 38220,
          "time": 143.684268,
          "velocity": 0.7874015748031497
        },
        {
          "duration": 0.3345865999999944,
          "durationTicks": 89,
          "midi": 54,
          "name": "F#3",
          "ticks": 38280,
          "time": 143.909832,
          "velocity": 0.7874015748031497
        },
        {
          "duration": 0.3345865999999944,
          "durationTicks": 89,
          "midi": 59,
          "name": "B3",
          "ticks": 38280,
          "time": 143.909832,
          "velocity": 0.7874015748031497
        },
        {
          "duration": 0.2218046000000129,
          "durationTicks": 59,
          "midi": 47,
          "name": "B2",
          "ticks": 38340,
          "time": 144.135396,
          "velocity": 0.7874015748031497
        },
        {
          "duration": 0.2218046000000129,
          "durationTicks": 59,
          "midi": 47,
          "name": "B2",
          "ticks": 38400,
          "time": 144.36095999999998,
          "velocity": 0.7874015748031497
        },
        {
          "duration": 0.10902260000000297,
          "durationTicks": 29,
          "midi": 59,
          "name": "B3",
          "ticks": 38430,
          "time": 144.473742,
          "velocity": 0.7874015748031497
        },
        {
          "duration": 0.10902260000000297,
          "durationTicks": 29,
          "midi": 54,
          "name": "F#3",
          "ticks": 38430,
          "time": 144.473742,
          "velocity": 0.7874015748031497
        },
        {
          "duration": 0.44736860000000434,
          "durationTicks": 119,
          "midi": 47,
          "name": "B2",
          "ticks": 38460,
          "time": 144.586524,
          "velocity": 0.7874015748031497
        },
        {
          "duration": 0.2218046000000129,
          "durationTicks": 59,
          "midi": 59,
          "name": "B3",
          "ticks": 38520,
          "time": 144.812088,
          "velocity": 0.7874015748031497
        },
        {
          "duration": 0.2218046000000129,
          "durationTicks": 59,
          "midi": 54,
          "name": "F#3",
          "ticks": 38520,
          "time": 144.812088,
          "velocity": 0.7874015748031497
        },
        {
          "duration": 0.2218046000000129,
          "durationTicks": 59,
          "midi": 47,
          "name": "B2",
          "ticks": 38580,
          "time": 145.03765199999998,
          "velocity": 0.7874015748031497
        },
        {
          "duration": 0.10902260000000297,
          "durationTicks": 29,
          "midi": 54,
          "name": "F#3",
          "ticks": 38610,
          "time": 145.150434,
          "velocity": 0.7874015748031497
        },
        {
          "duration": 0.10902260000000297,
          "durationTicks": 29,
          "midi": 59,
          "name": "B3",
          "ticks": 38610,
          "time": 145.150434,
          "velocity": 0.7874015748031497
        },
        {
          "duration": 0.10902260000000297,
          "durationTicks": 29,
          "midi": 47,
          "name": "B2",
          "ticks": 38640,
          "time": 145.263216,
          "velocity": 0.7874015748031497
        },
        {
          "duration": 0.10902260000000297,
          "durationTicks": 29,
          "midi": 54,
          "name": "F#3",
          "ticks": 38670,
          "time": 145.37599799999998,
          "velocity": 0.47244094488188976
        },
        {
          "duration": 0.10902260000000297,
          "durationTicks": 29,
          "midi": 59,
          "name": "B3",
          "ticks": 38670,
          "time": 145.37599799999998,
          "velocity": 0.7874015748031497
        },
        {
          "duration": 0.2218046000000129,
          "durationTicks": 59,
          "midi": 47,
          "name": "B2",
          "ticks": 38700,
          "time": 145.48878,
          "velocity": 0.7874015748031497
        },
        {
          "duration": 0.3345866000000228,
          "durationTicks": 89,
          "midi": 54,
          "name": "F#3",
          "ticks": 38760,
          "time": 145.71434399999998,
          "velocity": 0.7874015748031497
        },
        {
          "duration": 0.3345866000000228,
          "durationTicks": 89,
          "midi": 59,
          "name": "B3",
          "ticks": 38760,
          "time": 145.71434399999998,
          "velocity": 0.7874015748031497
        },
        {
          "duration": 0.22180459999998448,
          "durationTicks": 59,
          "midi": 47,
          "name": "B2",
          "ticks": 38820,
          "time": 145.939908,
          "velocity": 0.7874015748031497
        },
        {
          "duration": 0.2218046000000129,
          "durationTicks": 59,
          "midi": 47,
          "name": "B2",
          "ticks": 38880,
          "time": 146.165472,
          "velocity": 0.7874015748031497
        },
        {
          "duration": 0.10902260000000297,
          "durationTicks": 29,
          "midi": 59,
          "name": "B3",
          "ticks": 38910,
          "time": 146.278254,
          "velocity": 0.7874015748031497
        },
        {
          "duration": 0.10902260000000297,
          "durationTicks": 29,
          "midi": 54,
          "name": "F#3",
          "ticks": 38910,
          "time": 146.278254,
          "velocity": 0.7874015748031497
        },
        {
          "duration": 0.44736860000000434,
          "durationTicks": 119,
          "midi": 47,
          "name": "B2",
          "ticks": 38940,
          "time": 146.39103599999999,
          "velocity": 0.7874015748031497
        },
        {
          "duration": 0.22180459999998448,
          "durationTicks": 59,
          "midi": 59,
          "name": "B3",
          "ticks": 39000,
          "time": 146.6166,
          "velocity": 0.7874015748031497
        },
        {
          "duration": 0.22180459999998448,
          "durationTicks": 59,
          "midi": 54,
          "name": "F#3",
          "ticks": 39000,
          "time": 146.6166,
          "velocity": 0.7874015748031497
        },
        {
          "duration": 0.22180459999998448,
          "durationTicks": 59,
          "midi": 47,
          "name": "B2",
          "ticks": 39060,
          "time": 146.842164,
          "velocity": 0.7874015748031497
        },
        {
          "duration": 0.10902260000000297,
          "durationTicks": 29,
          "midi": 54,
          "name": "F#3",
          "ticks": 39090,
          "time": 146.95494599999998,
          "velocity": 0.7874015748031497
        },
        {
          "duration": 0.10902260000000297,
          "durationTicks": 29,
          "midi": 59,
          "name": "B3",
          "ticks": 39090,
          "time": 146.95494599999998,
          "velocity": 0.7874015748031497
        },
        {
          "duration": 0.10902260000000297,
          "durationTicks": 29,
          "midi": 47,
          "name": "B2",
          "ticks": 39120,
          "time": 147.067728,
          "velocity": 0.7874015748031497
        },
        {
          "duration": 0.10902260000000297,
          "durationTicks": 29,
          "midi": 54,
          "name": "F#3",
          "ticks": 39150,
          "time": 147.18051,
          "velocity": 0.47244094488188976
        },
        {
          "duration": 0.10902260000000297,
          "durationTicks": 29,
          "midi": 59,
          "name": "B3",
          "ticks": 39150,
          "time": 147.18051,
          "velocity": 0.7874015748031497
        },
        {
          "duration": 0.2218046000000129,
          "durationTicks": 59,
          "midi": 47,
          "name": "B2",
          "ticks": 39180,
          "time": 147.29329199999998,
          "velocity": 0.7874015748031497
        },
        {
          "duration": 0.3345865999999944,
          "durationTicks": 89,
          "midi": 54,
          "name": "F#3",
          "ticks": 39240,
          "time": 147.518856,
          "velocity": 0.7874015748031497
        },
        {
          "duration": 0.3345865999999944,
          "durationTicks": 89,
          "midi": 59,
          "name": "B3",
          "ticks": 39240,
          "time": 147.518856,
          "velocity": 0.7874015748031497
        },
        {
          "duration": 0.2218046000000129,
          "durationTicks": 59,
          "midi": 47,
          "name": "B2",
          "ticks": 39300,
          "time": 147.74442,
          "velocity": 0.7874015748031497
        },
        {
          "duration": 0.2218046000000129,
          "durationTicks": 59,
          "midi": 47,
          "name": "B2",
          "ticks": 39360,
          "time": 147.96998399999998,
          "velocity": 0.7874015748031497
        },
        {
          "duration": 0.10902260000000297,
          "durationTicks": 29,
          "midi": 59,
          "name": "B3",
          "ticks": 39390,
          "time": 148.082766,
          "velocity": 0.7874015748031497
        },
        {
          "duration": 0.10902260000000297,
          "durationTicks": 29,
          "midi": 54,
          "name": "F#3",
          "ticks": 39390,
          "time": 148.082766,
          "velocity": 0.7874015748031497
        },
        {
          "duration": 0.44736860000000434,
          "durationTicks": 119,
          "midi": 47,
          "name": "B2",
          "ticks": 39420,
          "time": 148.195548,
          "velocity": 0.7874015748031497
        },
        {
          "duration": 0.2218046000000129,
          "durationTicks": 59,
          "midi": 59,
          "name": "B3",
          "ticks": 39480,
          "time": 148.421112,
          "velocity": 0.7874015748031497
        },
        {
          "duration": 0.2218046000000129,
          "durationTicks": 59,
          "midi": 54,
          "name": "F#3",
          "ticks": 39480,
          "time": 148.421112,
          "velocity": 0.7874015748031497
        },
        {
          "duration": 0.2218046000000129,
          "durationTicks": 59,
          "midi": 47,
          "name": "B2",
          "ticks": 39540,
          "time": 148.64667599999999,
          "velocity": 0.7874015748031497
        },
        {
          "duration": 0.10902260000000297,
          "durationTicks": 29,
          "midi": 54,
          "name": "F#3",
          "ticks": 39570,
          "time": 148.759458,
          "velocity": 0.7874015748031497
        },
        {
          "duration": 0.10902260000000297,
          "durationTicks": 29,
          "midi": 59,
          "name": "B3",
          "ticks": 39570,
          "time": 148.759458,
          "velocity": 0.7874015748031497
        },
        {
          "duration": 0.10902260000000297,
          "durationTicks": 29,
          "midi": 47,
          "name": "B2",
          "ticks": 39600,
          "time": 148.87224,
          "velocity": 0.7874015748031497
        },
        {
          "duration": 0.10902260000000297,
          "durationTicks": 29,
          "midi": 54,
          "name": "F#3",
          "ticks": 39630,
          "time": 148.985022,
          "velocity": 0.47244094488188976
        },
        {
          "duration": 0.10902260000000297,
          "durationTicks": 29,
          "midi": 59,
          "name": "B3",
          "ticks": 39630,
          "time": 148.985022,
          "velocity": 0.7874015748031497
        },
        {
          "duration": 0.22180459999998448,
          "durationTicks": 59,
          "midi": 47,
          "name": "B2",
          "ticks": 39660,
          "time": 149.097804,
          "velocity": 0.7874015748031497
        },
        {
          "duration": 0.3345865999999944,
          "durationTicks": 89,
          "midi": 54,
          "name": "F#3",
          "ticks": 39720,
          "time": 149.323368,
          "velocity": 0.7874015748031497
        },
        {
          "duration": 0.3345865999999944,
          "durationTicks": 89,
          "midi": 59,
          "name": "B3",
          "ticks": 39720,
          "time": 149.323368,
          "velocity": 0.7874015748031497
        },
        {
          "duration": 0.2218046000000129,
          "durationTicks": 59,
          "midi": 47,
          "name": "B2",
          "ticks": 39780,
          "time": 149.54893199999998,
          "velocity": 0.7874015748031497
        },
        {
          "duration": 0.22180459999998448,
          "durationTicks": 59,
          "midi": 47,
          "name": "B2",
          "ticks": 39840,
          "time": 149.774496,
          "velocity": 0.7874015748031497
        },
        {
          "duration": 0.10902260000000297,
          "durationTicks": 29,
          "midi": 59,
          "name": "B3",
          "ticks": 39870,
          "time": 149.88727799999998,
          "velocity": 0.7874015748031497
        },
        {
          "duration": 0.10902260000000297,
          "durationTicks": 29,
          "midi": 54,
          "name": "F#3",
          "ticks": 39870,
          "time": 149.88727799999998,
          "velocity": 0.7874015748031497
        },
        {
          "duration": 0.44736860000000434,
          "durationTicks": 119,
          "midi": 47,
          "name": "B2",
          "ticks": 39900,
          "time": 150.00006,
          "velocity": 0.7874015748031497
        },
        {
          "duration": 0.2218046000000129,
          "durationTicks": 59,
          "midi": 59,
          "name": "B3",
          "ticks": 39960,
          "time": 150.22562399999998,
          "velocity": 0.7874015748031497
        },
        {
          "duration": 0.2218046000000129,
          "durationTicks": 59,
          "midi": 54,
          "name": "F#3",
          "ticks": 39960,
          "time": 150.22562399999998,
          "velocity": 0.7874015748031497
        },
        {
          "duration": 0.22180459999998448,
          "durationTicks": 59,
          "midi": 47,
          "name": "B2",
          "ticks": 40020,
          "time": 150.451188,
          "velocity": 0.7874015748031497
        },
        {
          "duration": 0.10902260000000297,
          "durationTicks": 29,
          "midi": 54,
          "name": "F#3",
          "ticks": 40050,
          "time": 150.56396999999998,
          "velocity": 0.7874015748031497
        },
        {
          "duration": 0.10902260000000297,
          "durationTicks": 29,
          "midi": 59,
          "name": "B3",
          "ticks": 40050,
          "time": 150.56396999999998,
          "velocity": 0.7874015748031497
        },
        {
          "duration": 0.10902260000000297,
          "durationTicks": 29,
          "midi": 47,
          "name": "B2",
          "ticks": 40080,
          "time": 150.676752,
          "velocity": 0.7874015748031497
        },
        {
          "duration": 0.10902260000000297,
          "durationTicks": 29,
          "midi": 54,
          "name": "F#3",
          "ticks": 40110,
          "time": 150.789534,
          "velocity": 0.47244094488188976
        },
        {
          "duration": 0.10902260000000297,
          "durationTicks": 29,
          "midi": 59,
          "name": "B3",
          "ticks": 40110,
          "time": 150.789534,
          "velocity": 0.7874015748031497
        },
        {
          "duration": 0.2218046000000129,
          "durationTicks": 59,
          "midi": 47,
          "name": "B2",
          "ticks": 40140,
          "time": 150.90231599999998,
          "velocity": 0.7874015748031497
        },
        {
          "duration": 0.3345865999999944,
          "durationTicks": 89,
          "midi": 54,
          "name": "F#3",
          "ticks": 40200,
          "time": 151.12788,
          "velocity": 0.7874015748031497
        },
        {
          "duration": 0.3345865999999944,
          "durationTicks": 89,
          "midi": 59,
          "name": "B3",
          "ticks": 40200,
          "time": 151.12788,
          "velocity": 0.7874015748031497
        },
        {
          "duration": 0.22180459999998448,
          "durationTicks": 59,
          "midi": 47,
          "name": "B2",
          "ticks": 40260,
          "time": 151.353444,
          "velocity": 0.7874015748031497
        },
        {
          "duration": 0.2218046000000129,
          "durationTicks": 59,
          "midi": 47,
          "name": "B2",
          "ticks": 40320,
          "time": 151.579008,
          "velocity": 0.7874015748031497
        },
        {
          "duration": 0.10902260000000297,
          "durationTicks": 29,
          "midi": 59,
          "name": "B3",
          "ticks": 40350,
          "time": 151.69179,
          "velocity": 0.7874015748031497
        },
        {
          "duration": 0.10902260000000297,
          "durationTicks": 29,
          "midi": 54,
          "name": "F#3",
          "ticks": 40350,
          "time": 151.69179,
          "velocity": 0.7874015748031497
        },
        {
          "duration": 0.44736860000000434,
          "durationTicks": 119,
          "midi": 47,
          "name": "B2",
          "ticks": 40380,
          "time": 151.80457199999998,
          "velocity": 0.7874015748031497
        },
        {
          "duration": 0.22180459999998448,
          "durationTicks": 59,
          "midi": 59,
          "name": "B3",
          "ticks": 40440,
          "time": 152.030136,
          "velocity": 0.7874015748031497
        },
        {
          "duration": 0.22180459999998448,
          "durationTicks": 59,
          "midi": 54,
          "name": "F#3",
          "ticks": 40440,
          "time": 152.030136,
          "velocity": 0.7874015748031497
        },
        {
          "duration": 0.2218046000000129,
          "durationTicks": 59,
          "midi": 47,
          "name": "B2",
          "ticks": 40500,
          "time": 152.2557,
          "velocity": 0.7874015748031497
        },
        {
          "duration": 0.10902260000000297,
          "durationTicks": 29,
          "midi": 54,
          "name": "F#3",
          "ticks": 40530,
          "time": 152.368482,
          "velocity": 0.7874015748031497
        },
        {
          "duration": 0.10902260000000297,
          "durationTicks": 29,
          "midi": 59,
          "name": "B3",
          "ticks": 40530,
          "time": 152.368482,
          "velocity": 0.7874015748031497
        },
        {
          "duration": 0.10902260000000297,
          "durationTicks": 29,
          "midi": 47,
          "name": "B2",
          "ticks": 40560,
          "time": 152.48126399999998,
          "velocity": 0.7874015748031497
        },
        {
          "duration": 0.10902260000000297,
          "durationTicks": 29,
          "midi": 54,
          "name": "F#3",
          "ticks": 40590,
          "time": 152.594046,
          "velocity": 0.47244094488188976
        },
        {
          "duration": 0.10902260000000297,
          "durationTicks": 29,
          "midi": 59,
          "name": "B3",
          "ticks": 40590,
          "time": 152.594046,
          "velocity": 0.7874015748031497
        },
        {
          "duration": 0.22180459999998448,
          "durationTicks": 59,
          "midi": 47,
          "name": "B2",
          "ticks": 40620,
          "time": 152.706828,
          "velocity": 0.7874015748031497
        },
        {
          "duration": 0.3345865999999944,
          "durationTicks": 89,
          "midi": 54,
          "name": "F#3",
          "ticks": 40680,
          "time": 152.932392,
          "velocity": 0.7874015748031497
        },
        {
          "duration": 0.3345865999999944,
          "durationTicks": 89,
          "midi": 59,
          "name": "B3",
          "ticks": 40680,
          "time": 152.932392,
          "velocity": 0.7874015748031497
        },
        {
          "duration": 0.2218046000000129,
          "durationTicks": 59,
          "midi": 47,
          "name": "B2",
          "ticks": 40740,
          "time": 153.15795599999998,
          "velocity": 0.7874015748031497
        },
        {
          "duration": 0.22180459999998448,
          "durationTicks": 59,
          "midi": 47,
          "name": "B2",
          "ticks": 40800,
          "time": 153.38352,
          "velocity": 0.7874015748031497
        },
        {
          "duration": 0.10902260000000297,
          "durationTicks": 29,
          "midi": 59,
          "name": "B3",
          "ticks": 40830,
          "time": 153.496302,
          "velocity": 0.7874015748031497
        },
        {
          "duration": 0.10902260000000297,
          "durationTicks": 29,
          "midi": 54,
          "name": "F#3",
          "ticks": 40830,
          "time": 153.496302,
          "velocity": 0.7874015748031497
        },
        {
          "duration": 0.44736860000000434,
          "durationTicks": 119,
          "midi": 47,
          "name": "B2",
          "ticks": 40860,
          "time": 153.609084,
          "velocity": 0.7874015748031497
        },
        {
          "duration": 0.2218046000000129,
          "durationTicks": 59,
          "midi": 59,
          "name": "B3",
          "ticks": 40920,
          "time": 153.834648,
          "velocity": 0.7874015748031497
        },
        {
          "duration": 0.2218046000000129,
          "durationTicks": 59,
          "midi": 54,
          "name": "F#3",
          "ticks": 40920,
          "time": 153.834648,
          "velocity": 0.7874015748031497
        },
        {
          "duration": 0.2218046000000129,
          "durationTicks": 59,
          "midi": 47,
          "name": "B2",
          "ticks": 40980,
          "time": 154.06021199999998,
          "velocity": 0.7874015748031497
        },
        {
          "duration": 0.10902260000000297,
          "durationTicks": 29,
          "midi": 54,
          "name": "F#3",
          "ticks": 41010,
          "time": 154.172994,
          "velocity": 0.7874015748031497
        },
        {
          "duration": 0.10902260000000297,
          "durationTicks": 29,
          "midi": 59,
          "name": "B3",
          "ticks": 41010,
          "time": 154.172994,
          "velocity": 0.7874015748031497
        },
        {
          "duration": 0.10902260000000297,
          "durationTicks": 29,
          "midi": 47,
          "name": "B2",
          "ticks": 41040,
          "time": 154.285776,
          "velocity": 0.7874015748031497
        },
        {
          "duration": 0.10902260000000297,
          "durationTicks": 29,
          "midi": 54,
          "name": "F#3",
          "ticks": 41070,
          "time": 154.39855799999998,
          "velocity": 0.47244094488188976
        },
        {
          "duration": 0.10902260000000297,
          "durationTicks": 29,
          "midi": 59,
          "name": "B3",
          "ticks": 41070,
          "time": 154.39855799999998,
          "velocity": 0.7874015748031497
        },
        {
          "duration": 0.2218046000000129,
          "durationTicks": 59,
          "midi": 47,
          "name": "B2",
          "ticks": 41100,
          "time": 154.51134,
          "velocity": 0.7874015748031497
        },
        {
          "duration": 0.3345866000000228,
          "durationTicks": 89,
          "midi": 54,
          "name": "F#3",
          "ticks": 41160,
          "time": 154.73690399999998,
          "velocity": 0.7874015748031497
        },
        {
          "duration": 0.3345866000000228,
          "durationTicks": 89,
          "midi": 59,
          "name": "B3",
          "ticks": 41160,
          "time": 154.73690399999998,
          "velocity": 0.7874015748031497
        },
        {
          "duration": 0.22180459999998448,
          "durationTicks": 59,
          "midi": 47,
          "name": "B2",
          "ticks": 41220,
          "time": 154.962468,
          "velocity": 0.7874015748031497
        },
        {
          "duration": 0.2218046000000129,
          "durationTicks": 59,
          "midi": 47,
          "name": "B2",
          "ticks": 41280,
          "time": 155.188032,
          "velocity": 0.7874015748031497
        },
        {
          "duration": 0.10902260000000297,
          "durationTicks": 29,
          "midi": 59,
          "name": "B3",
          "ticks": 41310,
          "time": 155.300814,
          "velocity": 0.7874015748031497
        },
        {
          "duration": 0.10902260000000297,
          "durationTicks": 29,
          "midi": 54,
          "name": "F#3",
          "ticks": 41310,
          "time": 155.300814,
          "velocity": 0.7874015748031497
        },
        {
          "duration": 0.44736860000000434,
          "durationTicks": 119,
          "midi": 47,
          "name": "B2",
          "ticks": 41340,
          "time": 155.41359599999998,
          "velocity": 0.7874015748031497
        },
        {
          "duration": 0.22180459999998448,
          "durationTicks": 59,
          "midi": 59,
          "name": "B3",
          "ticks": 41400,
          "time": 155.63916,
          "velocity": 0.7874015748031497
        },
        {
          "duration": 0.22180459999998448,
          "durationTicks": 59,
          "midi": 54,
          "name": "F#3",
          "ticks": 41400,
          "time": 155.63916,
          "velocity": 0.7874015748031497
        },
        {
          "duration": 0.2218046000000129,
          "durationTicks": 59,
          "midi": 47,
          "name": "B2",
          "ticks": 41460,
          "time": 155.864724,
          "velocity": 0.7874015748031497
        },
        {
          "duration": 0.10902260000003139,
          "durationTicks": 29,
          "midi": 54,
          "name": "F#3",
          "ticks": 41490,
          "time": 155.97750599999998,
          "velocity": 0.7874015748031497
        },
        {
          "duration": 0.10902260000003139,
          "durationTicks": 29,
          "midi": 59,
          "name": "B3",
          "ticks": 41490,
          "time": 155.97750599999998,
          "velocity": 0.7874015748031497
        },
        {
          "duration": 0.10902260000000297,
          "durationTicks": 29,
          "midi": 47,
          "name": "B2",
          "ticks": 41520,
          "time": 156.090288,
          "velocity": 0.7874015748031497
        },
        {
          "duration": 0.10902260000000297,
          "durationTicks": 29,
          "midi": 54,
          "name": "F#3",
          "ticks": 41550,
          "time": 156.20307,
          "velocity": 0.47244094488188976
        },
        {
          "duration": 0.10902260000000297,
          "durationTicks": 29,
          "midi": 59,
          "name": "B3",
          "ticks": 41550,
          "time": 156.20307,
          "velocity": 0.7874015748031497
        },
        {
          "duration": 0.2218046000000129,
          "durationTicks": 59,
          "midi": 47,
          "name": "B2",
          "ticks": 41580,
          "time": 156.31585199999998,
          "velocity": 0.7874015748031497
        },
        {
          "duration": 0.3345865999999944,
          "durationTicks": 89,
          "midi": 54,
          "name": "F#3",
          "ticks": 41640,
          "time": 156.541416,
          "velocity": 0.7874015748031497
        },
        {
          "duration": 0.3345865999999944,
          "durationTicks": 89,
          "midi": 59,
          "name": "B3",
          "ticks": 41640,
          "time": 156.541416,
          "velocity": 0.7874015748031497
        },
        {
          "duration": 0.2218046000000129,
          "durationTicks": 59,
          "midi": 47,
          "name": "B2",
          "ticks": 41700,
          "time": 156.76698,
          "velocity": 0.7874015748031497
        },
        {
          "duration": 0.44736860000000434,
          "durationTicks": 119,
          "midi": 47,
          "name": "B2",
          "ticks": 41760,
          "time": 156.99254399999998,
          "velocity": 0.7874015748031497
        },
        {
          "duration": 0.44736860000000434,
          "durationTicks": 119,
          "midi": 54,
          "name": "F#3",
          "ticks": 41760,
          "time": 156.99254399999998,
          "velocity": 0.7874015748031497
        },
        {
          "duration": 0.44736860000000434,
          "durationTicks": 119,
          "midi": 45,
          "name": "A2",
          "ticks": 41880,
          "time": 157.443672,
          "velocity": 0.7874015748031497
        },
        {
          "duration": 0.44736860000000434,
          "durationTicks": 119,
          "midi": 52,
          "name": "E3",
          "ticks": 41880,
          "time": 157.443672,
          "velocity": 0.7874015748031497
        },
        {
          "duration": 0.3345865999999944,
          "durationTicks": 89,
          "midi": 47,
          "name": "B2",
          "ticks": 42000,
          "time": 157.8948,
          "velocity": 0.7874015748031497
        },
        {
          "duration": 0.3345865999999944,
          "durationTicks": 89,
          "midi": 40,
          "name": "E2",
          "ticks": 42000,
          "time": 157.8948,
          "velocity": 0.7874015748031497
        },
        {
          "duration": 0.44736860000000434,
          "durationTicks": 119,
          "midi": 52,
          "name": "E3",
          "ticks": 42600,
          "time": 160.15044,
          "velocity": 0.7874015748031497
        },
        {
          "duration": 0.44736860000000434,
          "durationTicks": 119,
          "midi": 45,
          "name": "A2",
          "ticks": 42600,
          "time": 160.15044,
          "velocity": 0.7874015748031497
        },
        {
          "duration": 0.44736860000000434,
          "durationTicks": 119,
          "midi": 54,
          "name": "F#3",
          "ticks": 42720,
          "time": 160.601568,
          "velocity": 0.7874015748031497
        },
        {
          "duration": 0.44736860000000434,
          "durationTicks": 119,
          "midi": 47,
          "name": "B2",
          "ticks": 42720,
          "time": 160.601568,
          "velocity": 0.7874015748031497
        },
        {
          "duration": 0.44736860000000434,
          "durationTicks": 119,
          "midi": 52,
          "name": "E3",
          "ticks": 42840,
          "time": 161.052696,
          "velocity": 0.7874015748031497
        },
        {
          "duration": 0.44736860000000434,
          "durationTicks": 119,
          "midi": 45,
          "name": "A2",
          "ticks": 42840,
          "time": 161.052696,
          "velocity": 0.7874015748031497
        },
        {
          "duration": 0.3345866000000228,
          "durationTicks": 89,
          "midi": 47,
          "name": "B2",
          "ticks": 42960,
          "time": 161.50382399999998,
          "velocity": 0.7874015748031497
        },
        {
          "duration": 0.3345866000000228,
          "durationTicks": 89,
          "midi": 40,
          "name": "E2",
          "ticks": 42960,
          "time": 161.50382399999998,
          "velocity": 0.7874015748031497
        },
        {
          "duration": 0.44736860000000434,
          "durationTicks": 119,
          "midi": 52,
          "name": "E3",
          "ticks": 43560,
          "time": 163.75946399999998,
          "velocity": 0.7874015748031497
        },
        {
          "duration": 0.44736860000000434,
          "durationTicks": 119,
          "midi": 45,
          "name": "A2",
          "ticks": 43560,
          "time": 163.75946399999998,
          "velocity": 0.7874015748031497
        },
        {
          "duration": 0.44736860000000434,
          "durationTicks": 119,
          "midi": 54,
          "name": "F#3",
          "ticks": 43680,
          "time": 164.210592,
          "velocity": 0.7874015748031497
        },
        {
          "duration": 0.44736860000000434,
          "durationTicks": 119,
          "midi": 47,
          "name": "B2",
          "ticks": 43680,
          "time": 164.210592,
          "velocity": 0.7874015748031497
        },
        {
          "duration": 0.44736860000000434,
          "durationTicks": 119,
          "midi": 52,
          "name": "E3",
          "ticks": 43800,
          "time": 164.66172,
          "velocity": 0.7874015748031497
        },
        {
          "duration": 0.44736860000000434,
          "durationTicks": 119,
          "midi": 45,
          "name": "A2",
          "ticks": 43800,
          "time": 164.66172,
          "velocity": 0.7874015748031497
        },
        {
          "duration": 0.3345865999999944,
          "durationTicks": 89,
          "midi": 47,
          "name": "B2",
          "ticks": 43920,
          "time": 165.11284799999999,
          "velocity": 0.7874015748031497
        },
        {
          "duration": 0.3345865999999944,
          "durationTicks": 89,
          "midi": 40,
          "name": "E2",
          "ticks": 43920,
          "time": 165.11284799999999,
          "velocity": 0.7874015748031497
        },
        {
          "duration": 0.44736860000000434,
          "durationTicks": 119,
          "midi": 45,
          "name": "A2",
          "ticks": 44520,
          "time": 167.36848799999999,
          "velocity": 0.7874015748031497
        },
        {
          "duration": 0.44736860000000434,
          "durationTicks": 119,
          "midi": 52,
          "name": "E3",
          "ticks": 44520,
          "time": 167.36848799999999,
          "velocity": 0.7874015748031497
        },
        {
          "duration": 0.44736860000000434,
          "durationTicks": 119,
          "midi": 47,
          "name": "B2",
          "ticks": 44640,
          "time": 167.819616,
          "velocity": 0.7874015748031497
        },
        {
          "duration": 0.44736860000000434,
          "durationTicks": 119,
          "midi": 54,
          "name": "F#3",
          "ticks": 44640,
          "time": 167.819616,
          "velocity": 0.7874015748031497
        },
        {
          "duration": 0.44736860000000434,
          "durationTicks": 119,
          "midi": 45,
          "name": "A2",
          "ticks": 44760,
          "time": 168.27074399999998,
          "velocity": 0.7874015748031497
        },
        {
          "duration": 0.44736860000000434,
          "durationTicks": 119,
          "midi": 52,
          "name": "E3",
          "ticks": 44760,
          "time": 168.27074399999998,
          "velocity": 0.7874015748031497
        },
        {
          "duration": 0.3345865999999944,
          "durationTicks": 89,
          "midi": 47,
          "name": "B2",
          "ticks": 44880,
          "time": 168.721872,
          "velocity": 0.7874015748031497
        },
        {
          "duration": 0.3345865999999944,
          "durationTicks": 89,
          "midi": 40,
          "name": "E2",
          "ticks": 44880,
          "time": 168.721872,
          "velocity": 0.7874015748031497
        },
        {
          "duration": 0.6729325999999958,
          "durationTicks": 179,
          "midi": 59,
          "name": "B3",
          "ticks": 45600,
          "time": 171.42864,
          "velocity": 0.7874015748031497
        },
        {
          "duration": 0.6729325999999958,
          "durationTicks": 179,
          "midi": 54,
          "name": "F#3",
          "ticks": 45600,
          "time": 171.42864,
          "velocity": 0.7874015748031497
        },
        {
          "duration": 0.6729325999999958,
          "durationTicks": 179,
          "midi": 47,
          "name": "B2",
          "ticks": 45600,
          "time": 171.42864,
          "velocity": 0.7874015748031497
        },
        {
          "duration": 0.6729326000000242,
          "durationTicks": 179,
          "midi": 57,
          "name": "A3",
          "ticks": 45780,
          "time": 172.10533199999998,
          "velocity": 0.7874015748031497
        },
        {
          "duration": 0.6729326000000242,
          "durationTicks": 179,
          "midi": 52,
          "name": "E3",
          "ticks": 45780,
          "time": 172.10533199999998,
          "velocity": 0.7874015748031497
        },
        {
          "duration": 0.6729326000000242,
          "durationTicks": 179,
          "midi": 45,
          "name": "A2",
          "ticks": 45780,
          "time": 172.10533199999998,
          "velocity": 0.7874015748031497
        },
        {
          "duration": 0.44736860000000434,
          "durationTicks": 119,
          "midi": 62,
          "name": "D4",
          "ticks": 45960,
          "time": 172.78202399999998,
          "velocity": 0.7874015748031497
        },
        {
          "duration": 0.44736860000000434,
          "durationTicks": 119,
          "midi": 57,
          "name": "A3",
          "ticks": 45960,
          "time": 172.78202399999998,
          "velocity": 0.7874015748031497
        },
        {
          "duration": 0.44736860000000434,
          "durationTicks": 119,
          "midi": 50,
          "name": "D3",
          "ticks": 45960,
          "time": 172.78202399999998,
          "velocity": 0.7874015748031497
        },
        {
          "duration": 0.22180459999998448,
          "durationTicks": 59,
          "midi": 45,
          "name": "A2",
          "ticks": 46020,
          "time": 173.007588,
          "velocity": 0.7874015748031497
        },
        {
          "duration": 0.6729325999999958,
          "durationTicks": 179,
          "midi": 57,
          "name": "A3",
          "ticks": 46080,
          "time": 173.233152,
          "velocity": 0.7874015748031497
        },
        {
          "duration": 0.6729325999999958,
          "durationTicks": 179,
          "midi": 45,
          "name": "A2",
          "ticks": 46080,
          "time": 173.233152,
          "velocity": 0.7874015748031497
        },
        {
          "duration": 0.6729325999999958,
          "durationTicks": 179,
          "midi": 52,
          "name": "E3",
          "ticks": 46080,
          "time": 173.233152,
          "velocity": 0.7874015748031497
        },
        {
          "duration": 1.124060600000007,
          "durationTicks": 299,
          "midi": 52,
          "name": "E3",
          "ticks": 46260,
          "time": 173.909844,
          "velocity": 0.7874015748031497
        },
        {
          "duration": 1.124060600000007,
          "durationTicks": 299,
          "midi": 47,
          "name": "B2",
          "ticks": 46260,
          "time": 173.909844,
          "velocity": 0.7874015748031497
        },
        {
          "duration": 1.124060600000007,
          "durationTicks": 299,
          "midi": 40,
          "name": "E2",
          "ticks": 46260,
          "time": 173.909844,
          "velocity": 0.7874015748031497
        },
        {
          "duration": 0.6729326000000242,
          "durationTicks": 179,
          "midi": 59,
          "name": "B3",
          "ticks": 46560,
          "time": 175.03766399999998,
          "velocity": 0.7874015748031497
        },
        {
          "duration": 0.6729326000000242,
          "durationTicks": 179,
          "midi": 54,
          "name": "F#3",
          "ticks": 46560,
          "time": 175.03766399999998,
          "velocity": 0.7874015748031497
        },
        {
          "duration": 0.6729326000000242,
          "durationTicks": 179,
          "midi": 47,
          "name": "B2",
          "ticks": 46560,
          "time": 175.03766399999998,
          "velocity": 0.7874015748031497
        },
        {
          "duration": 0.6729326000000242,
          "durationTicks": 179,
          "midi": 57,
          "name": "A3",
          "ticks": 46740,
          "time": 175.71435599999998,
          "velocity": 0.7874015748031497
        },
        {
          "duration": 0.6729326000000242,
          "durationTicks": 179,
          "midi": 52,
          "name": "E3",
          "ticks": 46740,
          "time": 175.71435599999998,
          "velocity": 0.7874015748031497
        },
        {
          "duration": 0.6729326000000242,
          "durationTicks": 179,
          "midi": 45,
          "name": "A2",
          "ticks": 46740,
          "time": 175.71435599999998,
          "velocity": 0.7874015748031497
        },
        {
          "duration": 0.44736860000000434,
          "durationTicks": 119,
          "midi": 62,
          "name": "D4",
          "ticks": 46920,
          "time": 176.39104799999998,
          "velocity": 0.7874015748031497
        },
        {
          "duration": 0.44736860000000434,
          "durationTicks": 119,
          "midi": 57,
          "name": "A3",
          "ticks": 46920,
          "time": 176.39104799999998,
          "velocity": 0.7874015748031497
        },
        {
          "duration": 0.44736860000000434,
          "durationTicks": 119,
          "midi": 50,
          "name": "D3",
          "ticks": 46920,
          "time": 176.39104799999998,
          "velocity": 0.7874015748031497
        },
        {
          "duration": 0.22180459999998448,
          "durationTicks": 59,
          "midi": 45,
          "name": "A2",
          "ticks": 46980,
          "time": 176.616612,
          "velocity": 0.7874015748031497
        },
        {
          "duration": 0.6729325999999958,
          "durationTicks": 179,
          "midi": 57,
          "name": "A3",
          "ticks": 47040,
          "time": 176.842176,
          "velocity": 0.7874015748031497
        },
        {
          "duration": 0.6729325999999958,
          "durationTicks": 179,
          "midi": 45,
          "name": "A2",
          "ticks": 47040,
          "time": 176.842176,
          "velocity": 0.7874015748031497
        },
        {
          "duration": 0.6729325999999958,
          "durationTicks": 179,
          "midi": 52,
          "name": "E3",
          "ticks": 47040,
          "time": 176.842176,
          "velocity": 0.7874015748031497
        },
        {
          "duration": 1.124060600000007,
          "durationTicks": 299,
          "midi": 52,
          "name": "E3",
          "ticks": 47220,
          "time": 177.518868,
          "velocity": 0.7874015748031497
        },
        {
          "duration": 1.124060600000007,
          "durationTicks": 299,
          "midi": 47,
          "name": "B2",
          "ticks": 47220,
          "time": 177.518868,
          "velocity": 0.7874015748031497
        },
        {
          "duration": 1.124060600000007,
          "durationTicks": 299,
          "midi": 40,
          "name": "E2",
          "ticks": 47220,
          "time": 177.518868,
          "velocity": 0.7874015748031497
        },
        {
          "duration": 0.6729325999999958,
          "durationTicks": 179,
          "midi": 59,
          "name": "B3",
          "ticks": 47520,
          "time": 178.64668799999998,
          "velocity": 0.7874015748031497
        },
        {
          "duration": 0.6729325999999958,
          "durationTicks": 179,
          "midi": 54,
          "name": "F#3",
          "ticks": 47520,
          "time": 178.64668799999998,
          "velocity": 0.7874015748031497
        },
        {
          "duration": 0.6729325999999958,
          "durationTicks": 179,
          "midi": 47,
          "name": "B2",
          "ticks": 47520,
          "time": 178.64668799999998,
          "velocity": 0.7874015748031497
        },
        {
          "duration": 0.6729325999999958,
          "durationTicks": 179,
          "midi": 57,
          "name": "A3",
          "ticks": 47700,
          "time": 179.32338,
          "velocity": 0.7874015748031497
        },
        {
          "duration": 0.6729325999999958,
          "durationTicks": 179,
          "midi": 52,
          "name": "E3",
          "ticks": 47700,
          "time": 179.32338,
          "velocity": 0.7874015748031497
        },
        {
          "duration": 0.6729325999999958,
          "durationTicks": 179,
          "midi": 45,
          "name": "A2",
          "ticks": 47700,
          "time": 179.32338,
          "velocity": 0.7874015748031497
        },
        {
          "duration": 0.44736860000000434,
          "durationTicks": 119,
          "midi": 62,
          "name": "D4",
          "ticks": 47880,
          "time": 180.000072,
          "velocity": 0.7874015748031497
        },
        {
          "duration": 0.44736860000000434,
          "durationTicks": 119,
          "midi": 57,
          "name": "A3",
          "ticks": 47880,
          "time": 180.000072,
          "velocity": 0.7874015748031497
        },
        {
          "duration": 0.44736860000000434,
          "durationTicks": 119,
          "midi": 50,
          "name": "D3",
          "ticks": 47880,
          "time": 180.000072,
          "velocity": 0.7874015748031497
        },
        {
          "duration": 0.2218046000000129,
          "durationTicks": 59,
          "midi": 45,
          "name": "A2",
          "ticks": 47940,
          "time": 180.22563599999998,
          "velocity": 0.7874015748031497
        },
        {
          "duration": 0.6729325999999958,
          "durationTicks": 179,
          "midi": 57,
          "name": "A3",
          "ticks": 48000,
          "time": 180.4512,
          "velocity": 0.7874015748031497
        },
        {
          "duration": 0.6729325999999958,
          "durationTicks": 179,
          "midi": 45,
          "name": "A2",
          "ticks": 48000,
          "time": 180.4512,
          "velocity": 0.7874015748031497
        },
        {
          "duration": 0.6729325999999958,
          "durationTicks": 179,
          "midi": 52,
          "name": "E3",
          "ticks": 48000,
          "time": 180.4512,
          "velocity": 0.7874015748031497
        },
        {
          "duration": 1.1240605999999786,
          "durationTicks": 299,
          "midi": 52,
          "name": "E3",
          "ticks": 48180,
          "time": 181.127892,
          "velocity": 0.7874015748031497
        },
        {
          "duration": 1.1240605999999786,
          "durationTicks": 299,
          "midi": 47,
          "name": "B2",
          "ticks": 48180,
          "time": 181.127892,
          "velocity": 0.7874015748031497
        },
        {
          "duration": 1.1240605999999786,
          "durationTicks": 299,
          "midi": 40,
          "name": "E2",
          "ticks": 48180,
          "time": 181.127892,
          "velocity": 0.7874015748031497
        },
        {
          "duration": 0.6729325999999958,
          "durationTicks": 179,
          "midi": 59,
          "name": "B3",
          "ticks": 48480,
          "time": 182.255712,
          "velocity": 0.7874015748031497
        },
        {
          "duration": 0.6729325999999958,
          "durationTicks": 179,
          "midi": 54,
          "name": "F#3",
          "ticks": 48480,
          "time": 182.255712,
          "velocity": 0.7874015748031497
        },
        {
          "duration": 0.6729325999999958,
          "durationTicks": 179,
          "midi": 47,
          "name": "B2",
          "ticks": 48480,
          "time": 182.255712,
          "velocity": 0.7874015748031497
        },
        {
          "duration": 0.6729325999999958,
          "durationTicks": 179,
          "midi": 57,
          "name": "A3",
          "ticks": 48660,
          "time": 182.932404,
          "velocity": 0.7874015748031497
        },
        {
          "duration": 0.6729325999999958,
          "durationTicks": 179,
          "midi": 52,
          "name": "E3",
          "ticks": 48660,
          "time": 182.932404,
          "velocity": 0.7874015748031497
        },
        {
          "duration": 0.6729325999999958,
          "durationTicks": 179,
          "midi": 45,
          "name": "A2",
          "ticks": 48660,
          "time": 182.932404,
          "velocity": 0.7874015748031497
        },
        {
          "duration": 0.44736860000000434,
          "durationTicks": 119,
          "midi": 62,
          "name": "D4",
          "ticks": 48840,
          "time": 183.609096,
          "velocity": 0.7874015748031497
        },
        {
          "duration": 0.44736860000000434,
          "durationTicks": 119,
          "midi": 57,
          "name": "A3",
          "ticks": 48840,
          "time": 183.609096,
          "velocity": 0.7874015748031497
        },
        {
          "duration": 0.44736860000000434,
          "durationTicks": 119,
          "midi": 50,
          "name": "D3",
          "ticks": 48840,
          "time": 183.609096,
          "velocity": 0.7874015748031497
        },
        {
          "duration": 0.2218046000000129,
          "durationTicks": 59,
          "midi": 45,
          "name": "A2",
          "ticks": 48900,
          "time": 183.83465999999999,
          "velocity": 0.7874015748031497
        },
        {
          "duration": 0.6729326000000242,
          "durationTicks": 179,
          "midi": 57,
          "name": "A3",
          "ticks": 48960,
          "time": 184.06022399999998,
          "velocity": 0.7874015748031497
        },
        {
          "duration": 0.6729326000000242,
          "durationTicks": 179,
          "midi": 45,
          "name": "A2",
          "ticks": 48960,
          "time": 184.06022399999998,
          "velocity": 0.7874015748031497
        },
        {
          "duration": 0.6729326000000242,
          "durationTicks": 179,
          "midi": 52,
          "name": "E3",
          "ticks": 48960,
          "time": 184.06022399999998,
          "velocity": 0.7874015748031497
        },
        {
          "duration": 1.124060600000007,
          "durationTicks": 299,
          "midi": 52,
          "name": "E3",
          "ticks": 49140,
          "time": 184.73691599999998,
          "velocity": 0.7874015748031497
        },
        {
          "duration": 1.124060600000007,
          "durationTicks": 299,
          "midi": 47,
          "name": "B2",
          "ticks": 49140,
          "time": 184.73691599999998,
          "velocity": 0.7874015748031497
        },
        {
          "duration": 1.124060600000007,
          "durationTicks": 299,
          "midi": 40,
          "name": "E2",
          "ticks": 49140,
          "time": 184.73691599999998,
          "velocity": 0.7874015748031497
        },
        {
          "duration": 3.605264599999998,
          "durationTicks": 959,
          "midi": 59,
          "name": "B3",
          "ticks": 49440,
          "time": 185.864736,
          "velocity": 0.7874015748031497
        },
        {
          "duration": 3.605264599999998,
          "durationTicks": 959,
          "midi": 54,
          "name": "F#3",
          "ticks": 49440,
          "time": 185.864736,
          "velocity": 0.7874015748031497
        },
        {
          "duration": 3.605264599999998,
          "durationTicks": 959,
          "midi": 47,
          "name": "B2",
          "ticks": 49440,
          "time": 185.864736,
          "velocity": 0.7874015748031497
        },
        {
          "duration": 3.605264599999998,
          "durationTicks": 959,
          "midi": 59,
          "name": "B3",
          "ticks": 50400,
          "time": 189.47376,
          "velocity": 0.7874015748031497
        },
        {
          "duration": 3.605264599999998,
          "durationTicks": 959,
          "midi": 47,
          "name": "B2",
          "ticks": 50400,
          "time": 189.47376,
          "velocity": 0.7874015748031497
        },
        {
          "duration": 3.605264599999998,
          "durationTicks": 959,
          "midi": 54,
          "name": "F#3",
          "ticks": 50400,
          "time": 189.47376,
          "velocity": 0.7874015748031497
        },
        {
          "duration": 0.2218046000000129,
          "durationTicks": 59,
          "midi": 59,
          "name": "B3",
          "ticks": 51360,
          "time": 193.08278399999998,
          "velocity": 0.7874015748031497
        },
        {
          "duration": 0.2218046000000129,
          "durationTicks": 59,
          "midi": 54,
          "name": "F#3",
          "ticks": 51360,
          "time": 193.08278399999998,
          "velocity": 0.7874015748031497
        },
        {
          "duration": 0.2218046000000129,
          "durationTicks": 59,
          "midi": 47,
          "name": "B2",
          "ticks": 51360,
          "time": 193.08278399999998,
          "velocity": 0.7874015748031497
        },
        {
          "duration": 0.22180459999998448,
          "durationTicks": 59,
          "midi": 57,
          "name": "A3",
          "ticks": 51420,
          "time": 193.308348,
          "velocity": 0.7874015748031497
        },
        {
          "duration": 0.22180459999998448,
          "durationTicks": 59,
          "midi": 52,
          "name": "E3",
          "ticks": 51420,
          "time": 193.308348,
          "velocity": 0.7874015748031497
        },
        {
          "duration": 0.22180459999998448,
          "durationTicks": 59,
          "midi": 45,
          "name": "A2",
          "ticks": 51420,
          "time": 193.308348,
          "velocity": 0.7874015748031497
        },
        {
          "duration": 2.928572600000024,
          "durationTicks": 779,
          "midi": 59,
          "name": "B3",
          "ticks": 51540,
          "time": 193.75947599999998,
          "velocity": 0.7874015748031497
        },
        {
          "duration": 2.928572600000024,
          "durationTicks": 779,
          "midi": 54,
          "name": "F#3",
          "ticks": 51540,
          "time": 193.75947599999998,
          "velocity": 0.7874015748031497
        },
        {
          "duration": 2.928572600000024,
          "durationTicks": 779,
          "midi": 47,
          "name": "B2",
          "ticks": 51540,
          "time": 193.75947599999998,
          "velocity": 0.7874015748031497
        },
        {
          "duration": 0.2218046000000129,
          "durationTicks": 59,
          "midi": 59,
          "name": "B3",
          "ticks": 52320,
          "time": 196.69180799999998,
          "velocity": 0.7874015748031497
        },
        {
          "duration": 0.2218046000000129,
          "durationTicks": 59,
          "midi": 54,
          "name": "F#3",
          "ticks": 52320,
          "time": 196.69180799999998,
          "velocity": 0.7874015748031497
        },
        {
          "duration": 0.2218046000000129,
          "durationTicks": 59,
          "midi": 47,
          "name": "B2",
          "ticks": 52320,
          "time": 196.69180799999998,
          "velocity": 0.7874015748031497
        },
        {
          "duration": 0.22180459999998448,
          "durationTicks": 59,
          "midi": 57,
          "name": "A3",
          "ticks": 52380,
          "time": 196.917372,
          "velocity": 0.7874015748031497
        },
        {
          "duration": 0.22180459999998448,
          "durationTicks": 59,
          "midi": 52,
          "name": "E3",
          "ticks": 52380,
          "time": 196.917372,
          "velocity": 0.7874015748031497
        },
        {
          "duration": 0.22180459999998448,
          "durationTicks": 59,
          "midi": 45,
          "name": "A2",
          "ticks": 52380,
          "time": 196.917372,
          "velocity": 0.7874015748031497
        },
        {
          "duration": 2.9285725999999954,
          "durationTicks": 779,
          "midi": 59,
          "name": "B3",
          "ticks": 52500,
          "time": 197.36849999999998,
          "velocity": 0.7874015748031497
        },
        {
          "duration": 2.9285725999999954,
          "durationTicks": 779,
          "midi": 54,
          "name": "F#3",
          "ticks": 52500,
          "time": 197.36849999999998,
          "velocity": 0.7874015748031497
        },
        {
          "duration": 2.9285725999999954,
          "durationTicks": 779,
          "midi": 47,
          "name": "B2",
          "ticks": 52500,
          "time": 197.36849999999998,
          "velocity": 0.7874015748031497
        },
        {
          "duration": 0.6729325999999958,
          "durationTicks": 179,
          "midi": 40,
          "name": "E2",
          "ticks": 53280,
          "time": 200.30083199999999,
          "velocity": 0.7874015748031497
        },
        {
          "duration": 0.6729325999999958,
          "durationTicks": 179,
          "midi": 52,
          "name": "E3",
          "ticks": 53280,
          "time": 200.30083199999999,
          "velocity": 0.7874015748031497
        },
        {
          "duration": 0.6729325999999958,
          "durationTicks": 179,
          "midi": 47,
          "name": "B2",
          "ticks": 53280,
          "time": 200.30083199999999,
          "velocity": 0.7874015748031497
        },
        {
          "duration": 0.6729325999999958,
          "durationTicks": 179,
          "midi": 59,
          "name": "B3",
          "ticks": 53460,
          "time": 200.977524,
          "velocity": 0.7874015748031497
        },
        {
          "duration": 0.6729325999999958,
          "durationTicks": 179,
          "midi": 54,
          "name": "F#3",
          "ticks": 53460,
          "time": 200.977524,
          "velocity": 0.7874015748031497
        },
        {
          "duration": 0.6729325999999958,
          "durationTicks": 179,
          "midi": 47,
          "name": "B2",
          "ticks": 53460,
          "time": 200.977524,
          "velocity": 0.7874015748031497
        },
        {
          "duration": 0.2218046000000129,
          "durationTicks": 59,
          "midi": 47,
          "name": "B2",
          "ticks": 53640,
          "time": 201.654216,
          "velocity": 0.7874015748031497
        },
        {
          "duration": 0.2218046000000129,
          "durationTicks": 59,
          "midi": 54,
          "name": "F#3",
          "ticks": 53640,
          "time": 201.654216,
          "velocity": 0.7874015748031497
        },
        {
          "duration": 0.44736860000000434,
          "durationTicks": 119,
          "midi": 59,
          "name": "B3",
          "ticks": 53640,
          "time": 201.654216,
          "velocity": 0.7874015748031497
        },
        {
          "duration": 0.2218046000000129,
          "durationTicks": 59,
          "midi": 54,
          "name": "F#3",
          "ticks": 53700,
          "time": 201.87977999999998,
          "velocity": 0.7874015748031497
        },
        {
          "duration": 0.2218046000000129,
          "durationTicks": 59,
          "midi": 45,
          "name": "A2",
          "ticks": 53700,
          "time": 201.87977999999998,
          "velocity": 0.7874015748031497
        },
        {
          "duration": 0.6729325999999958,
          "durationTicks": 179,
          "midi": 57,
          "name": "A3",
          "ticks": 53760,
          "time": 202.105344,
          "velocity": 0.7874015748031497
        },
        {
          "duration": 0.6729325999999958,
          "durationTicks": 179,
          "midi": 45,
          "name": "A2",
          "ticks": 53760,
          "time": 202.105344,
          "velocity": 0.7874015748031497
        },
        {
          "duration": 0.6729325999999958,
          "durationTicks": 179,
          "midi": 52,
          "name": "E3",
          "ticks": 53760,
          "time": 202.105344,
          "velocity": 0.7874015748031497
        },
        {
          "duration": 1.124060600000007,
          "durationTicks": 299,
          "midi": 52,
          "name": "E3",
          "ticks": 53940,
          "time": 202.78203599999998,
          "velocity": 0.7874015748031497
        },
        {
          "duration": 1.124060600000007,
          "durationTicks": 299,
          "midi": 47,
          "name": "B2",
          "ticks": 53940,
          "time": 202.78203599999998,
          "velocity": 0.7874015748031497
        },
        {
          "duration": 1.0112786000000256,
          "durationTicks": 269,
          "midi": 40,
          "name": "E2",
          "ticks": 53940,
          "time": 202.78203599999998,
          "velocity": 0.7874015748031497
        },
        {
          "duration": 0.6729325999999958,
          "durationTicks": 179,
          "midi": 40,
          "name": "E2",
          "ticks": 54240,
          "time": 203.909856,
          "velocity": 0.7874015748031497
        },
        {
          "duration": 0.6729325999999958,
          "durationTicks": 179,
          "midi": 52,
          "name": "E3",
          "ticks": 54240,
          "time": 203.909856,
          "velocity": 0.7874015748031497
        },
        {
          "duration": 0.6729325999999958,
          "durationTicks": 179,
          "midi": 47,
          "name": "B2",
          "ticks": 54240,
          "time": 203.909856,
          "velocity": 0.7874015748031497
        },
        {
          "duration": 0.6729325999999958,
          "durationTicks": 179,
          "midi": 59,
          "name": "B3",
          "ticks": 54420,
          "time": 204.586548,
          "velocity": 0.7874015748031497
        },
        {
          "duration": 0.6729325999999958,
          "durationTicks": 179,
          "midi": 54,
          "name": "F#3",
          "ticks": 54420,
          "time": 204.586548,
          "velocity": 0.7874015748031497
        },
        {
          "duration": 0.6729325999999958,
          "durationTicks": 179,
          "midi": 47,
          "name": "B2",
          "ticks": 54420,
          "time": 204.586548,
          "velocity": 0.7874015748031497
        },
        {
          "duration": 0.22180459999998448,
          "durationTicks": 59,
          "midi": 47,
          "name": "B2",
          "ticks": 54600,
          "time": 205.26324,
          "velocity": 0.7874015748031497
        },
        {
          "duration": 0.22180459999998448,
          "durationTicks": 59,
          "midi": 54,
          "name": "F#3",
          "ticks": 54600,
          "time": 205.26324,
          "velocity": 0.7874015748031497
        },
        {
          "duration": 0.44736860000000434,
          "durationTicks": 119,
          "midi": 59,
          "name": "B3",
          "ticks": 54600,
          "time": 205.26324,
          "velocity": 0.7874015748031497
        },
        {
          "duration": 0.2218046000000129,
          "durationTicks": 59,
          "midi": 54,
          "name": "F#3",
          "ticks": 54660,
          "time": 205.488804,
          "velocity": 0.7874015748031497
        },
        {
          "duration": 0.2218046000000129,
          "durationTicks": 59,
          "midi": 45,
          "name": "A2",
          "ticks": 54660,
          "time": 205.488804,
          "velocity": 0.7874015748031497
        },
        {
          "duration": 0.6729326000000242,
          "durationTicks": 179,
          "midi": 57,
          "name": "A3",
          "ticks": 54720,
          "time": 205.71436799999998,
          "velocity": 0.7874015748031497
        },
        {
          "duration": 0.6729326000000242,
          "durationTicks": 179,
          "midi": 45,
          "name": "A2",
          "ticks": 54720,
          "time": 205.71436799999998,
          "velocity": 0.7874015748031497
        },
        {
          "duration": 0.6729326000000242,
          "durationTicks": 179,
          "midi": 52,
          "name": "E3",
          "ticks": 54720,
          "time": 205.71436799999998,
          "velocity": 0.7874015748031497
        },
        {
          "duration": 1.124060600000007,
          "durationTicks": 299,
          "midi": 52,
          "name": "E3",
          "ticks": 54900,
          "time": 206.39105999999998,
          "velocity": 0.7874015748031497
        },
        {
          "duration": 1.124060600000007,
          "durationTicks": 299,
          "midi": 47,
          "name": "B2",
          "ticks": 54900,
          "time": 206.39105999999998,
          "velocity": 0.7874015748031497
        },
        {
          "duration": 1.0112785999999971,
          "durationTicks": 269,
          "midi": 40,
          "name": "E2",
          "ticks": 54900,
          "time": 206.39105999999998,
          "velocity": 0.7874015748031497
        },
        {
          "duration": 0.6729325999999958,
          "durationTicks": 179,
          "midi": 40,
          "name": "E2",
          "ticks": 55200,
          "time": 207.51888,
          "velocity": 0.7874015748031497
        },
        {
          "duration": 0.6729325999999958,
          "durationTicks": 179,
          "midi": 52,
          "name": "E3",
          "ticks": 55200,
          "time": 207.51888,
          "velocity": 0.7874015748031497
        },
        {
          "duration": 0.6729325999999958,
          "durationTicks": 179,
          "midi": 47,
          "name": "B2",
          "ticks": 55200,
          "time": 207.51888,
          "velocity": 0.7874015748031497
        },
        {
          "duration": 0.6729325999999958,
          "durationTicks": 179,
          "midi": 59,
          "name": "B3",
          "ticks": 55380,
          "time": 208.195572,
          "velocity": 0.7874015748031497
        },
        {
          "duration": 0.6729325999999958,
          "durationTicks": 179,
          "midi": 54,
          "name": "F#3",
          "ticks": 55380,
          "time": 208.195572,
          "velocity": 0.7874015748031497
        },
        {
          "duration": 0.6729325999999958,
          "durationTicks": 179,
          "midi": 47,
          "name": "B2",
          "ticks": 55380,
          "time": 208.195572,
          "velocity": 0.7874015748031497
        },
        {
          "duration": 0.22180459999998448,
          "durationTicks": 59,
          "midi": 47,
          "name": "B2",
          "ticks": 55560,
          "time": 208.872264,
          "velocity": 0.7874015748031497
        },
        {
          "duration": 0.22180459999998448,
          "durationTicks": 59,
          "midi": 54,
          "name": "F#3",
          "ticks": 55560,
          "time": 208.872264,
          "velocity": 0.7874015748031497
        },
        {
          "duration": 0.4473685999999759,
          "durationTicks": 119,
          "midi": 59,
          "name": "B3",
          "ticks": 55560,
          "time": 208.872264,
          "velocity": 0.7874015748031497
        },
        {
          "duration": 0.22180459999998448,
          "durationTicks": 59,
          "midi": 54,
          "name": "F#3",
          "ticks": 55620,
          "time": 209.097828,
          "velocity": 0.7874015748031497
        },
        {
          "duration": 0.22180459999998448,
          "durationTicks": 59,
          "midi": 45,
          "name": "A2",
          "ticks": 55620,
          "time": 209.097828,
          "velocity": 0.7874015748031497
        },
        {
          "duration": 0.6729325999999958,
          "durationTicks": 179,
          "midi": 57,
          "name": "A3",
          "ticks": 55680,
          "time": 209.32339199999998,
          "velocity": 0.7874015748031497
        },
        {
          "duration": 0.6729325999999958,
          "durationTicks": 179,
          "midi": 45,
          "name": "A2",
          "ticks": 55680,
          "time": 209.32339199999998,
          "velocity": 0.7874015748031497
        },
        {
          "duration": 0.6729325999999958,
          "durationTicks": 179,
          "midi": 52,
          "name": "E3",
          "ticks": 55680,
          "time": 209.32339199999998,
          "velocity": 0.7874015748031497
        },
        {
          "duration": 1.124060600000007,
          "durationTicks": 299,
          "midi": 52,
          "name": "E3",
          "ticks": 55860,
          "time": 210.000084,
          "velocity": 0.7874015748031497
        },
        {
          "duration": 1.124060600000007,
          "durationTicks": 299,
          "midi": 47,
          "name": "B2",
          "ticks": 55860,
          "time": 210.000084,
          "velocity": 0.7874015748031497
        },
        {
          "duration": 1.0112785999999971,
          "durationTicks": 269,
          "midi": 40,
          "name": "E2",
          "ticks": 55860,
          "time": 210.000084,
          "velocity": 0.7874015748031497
        },
        {
          "duration": 0.6729325999999958,
          "durationTicks": 179,
          "midi": 40,
          "name": "E2",
          "ticks": 56160,
          "time": 211.127904,
          "velocity": 0.7874015748031497
        },
        {
          "duration": 0.6729325999999958,
          "durationTicks": 179,
          "midi": 52,
          "name": "E3",
          "ticks": 56160,
          "time": 211.127904,
          "velocity": 0.7874015748031497
        },
        {
          "duration": 0.6729325999999958,
          "durationTicks": 179,
          "midi": 47,
          "name": "B2",
          "ticks": 56160,
          "time": 211.127904,
          "velocity": 0.7874015748031497
        },
        {
          "duration": 0.6729326000000242,
          "durationTicks": 179,
          "midi": 59,
          "name": "B3",
          "ticks": 56340,
          "time": 211.80459599999998,
          "velocity": 0.7874015748031497
        },
        {
          "duration": 0.6729326000000242,
          "durationTicks": 179,
          "midi": 54,
          "name": "F#3",
          "ticks": 56340,
          "time": 211.80459599999998,
          "velocity": 0.7874015748031497
        },
        {
          "duration": 0.6729326000000242,
          "durationTicks": 179,
          "midi": 47,
          "name": "B2",
          "ticks": 56340,
          "time": 211.80459599999998,
          "velocity": 0.7874015748031497
        },
        {
          "duration": 0.2218046000000129,
          "durationTicks": 59,
          "midi": 47,
          "name": "B2",
          "ticks": 56520,
          "time": 212.48128799999998,
          "velocity": 0.7874015748031497
        },
        {
          "duration": 0.2218046000000129,
          "durationTicks": 59,
          "midi": 54,
          "name": "F#3",
          "ticks": 56520,
          "time": 212.48128799999998,
          "velocity": 0.7874015748031497
        },
        {
          "duration": 0.44736860000000434,
          "durationTicks": 119,
          "midi": 59,
          "name": "B3",
          "ticks": 56520,
          "time": 212.48128799999998,
          "velocity": 0.7874015748031497
        },
        {
          "duration": 0.22180459999998448,
          "durationTicks": 59,
          "midi": 54,
          "name": "F#3",
          "ticks": 56580,
          "time": 212.706852,
          "velocity": 0.7874015748031497
        },
        {
          "duration": 0.22180459999998448,
          "durationTicks": 59,
          "midi": 45,
          "name": "A2",
          "ticks": 56580,
          "time": 212.706852,
          "velocity": 0.7874015748031497
        },
        {
          "duration": 0.6729325999999958,
          "durationTicks": 179,
          "midi": 57,
          "name": "A3",
          "ticks": 56640,
          "time": 212.932416,
          "velocity": 0.7874015748031497
        },
        {
          "duration": 0.6729325999999958,
          "durationTicks": 179,
          "midi": 45,
          "name": "A2",
          "ticks": 56640,
          "time": 212.932416,
          "velocity": 0.7874015748031497
        },
        {
          "duration": 0.6729325999999958,
          "durationTicks": 179,
          "midi": 52,
          "name": "E3",
          "ticks": 56640,
          "time": 212.932416,
          "velocity": 0.7874015748031497
        },
        {
          "duration": 1.124060600000007,
          "durationTicks": 299,
          "midi": 52,
          "name": "E3",
          "ticks": 56820,
          "time": 213.609108,
          "velocity": 0.7874015748031497
        },
        {
          "duration": 1.124060600000007,
          "durationTicks": 299,
          "midi": 47,
          "name": "B2",
          "ticks": 56820,
          "time": 213.609108,
          "velocity": 0.7874015748031497
        },
        {
          "duration": 1.0112785999999971,
          "durationTicks": 269,
          "midi": 40,
          "name": "E2",
          "ticks": 56820,
          "time": 213.609108,
          "velocity": 0.7874015748031497
        },
        {
          "duration": 0.6729326000000242,
          "durationTicks": 179,
          "midi": 59,
          "name": "B3",
          "ticks": 57120,
          "time": 214.73692799999998,
          "velocity": 0.7874015748031497
        },
        {
          "duration": 0.6729326000000242,
          "durationTicks": 179,
          "midi": 54,
          "name": "F#3",
          "ticks": 57120,
          "time": 214.73692799999998,
          "velocity": 0.7874015748031497
        },
        {
          "duration": 0.6729326000000242,
          "durationTicks": 179,
          "midi": 47,
          "name": "B2",
          "ticks": 57120,
          "time": 214.73692799999998,
          "velocity": 0.7874015748031497
        },
        {
          "duration": 0.3345866000000228,
          "durationTicks": 89,
          "midi": 57,
          "name": "A3",
          "ticks": 57300,
          "time": 215.41361999999998,
          "velocity": 0.7874015748031497
        },
        {
          "duration": 0.3345866000000228,
          "durationTicks": 89,
          "midi": 52,
          "name": "E3",
          "ticks": 57300,
          "time": 215.41361999999998,
          "velocity": 0.7874015748031497
        },
        {
          "duration": 0.3345866000000228,
          "durationTicks": 89,
          "midi": 45,
          "name": "A2",
          "ticks": 57300,
          "time": 215.41361999999998,
          "velocity": 0.7874015748031497
        },
        {
          "duration": 0.6729325999999958,
          "durationTicks": 179,
          "midi": 59,
          "name": "B3",
          "ticks": 58080,
          "time": 218.34595199999998,
          "velocity": 0.7874015748031497
        },
        {
          "duration": 0.6729325999999958,
          "durationTicks": 179,
          "midi": 54,
          "name": "F#3",
          "ticks": 58080,
          "time": 218.34595199999998,
          "velocity": 0.7874015748031497
        },
        {
          "duration": 0.6729325999999958,
          "durationTicks": 179,
          "midi": 47,
          "name": "B2",
          "ticks": 58080,
          "time": 218.34595199999998,
          "velocity": 0.7874015748031497
        },
        {
          "duration": 0.3345865999999944,
          "durationTicks": 89,
          "midi": 57,
          "name": "A3",
          "ticks": 58260,
          "time": 219.02264399999999,
          "velocity": 0.7874015748031497
        },
        {
          "duration": 0.3345865999999944,
          "durationTicks": 89,
          "midi": 52,
          "name": "E3",
          "ticks": 58260,
          "time": 219.02264399999999,
          "velocity": 0.7874015748031497
        },
        {
          "duration": 0.3345865999999944,
          "durationTicks": 89,
          "midi": 45,
          "name": "A2",
          "ticks": 58260,
          "time": 219.02264399999999,
          "velocity": 0.7874015748031497
        },
        {
          "duration": 0.6729326000000242,
          "durationTicks": 179,
          "midi": 59,
          "name": "B3",
          "ticks": 59040,
          "time": 221.954976,
          "velocity": 0.7874015748031497
        },
        {
          "duration": 0.6729326000000242,
          "durationTicks": 179,
          "midi": 54,
          "name": "F#3",
          "ticks": 59040,
          "time": 221.954976,
          "velocity": 0.7874015748031497
        },
        {
          "duration": 0.6729326000000242,
          "durationTicks": 179,
          "midi": 47,
          "name": "B2",
          "ticks": 59040,
          "time": 221.954976,
          "velocity": 0.7874015748031497
        },
        {
          "duration": 0.3345866000000228,
          "durationTicks": 89,
          "midi": 57,
          "name": "A3",
          "ticks": 59220,
          "time": 222.631668,
          "velocity": 0.7874015748031497
        },
        {
          "duration": 0.3345866000000228,
          "durationTicks": 89,
          "midi": 52,
          "name": "E3",
          "ticks": 59220,
          "time": 222.631668,
          "velocity": 0.7874015748031497
        },
        {
          "duration": 0.3345866000000228,
          "durationTicks": 89,
          "midi": 45,
          "name": "A2",
          "ticks": 59220,
          "time": 222.631668,
          "velocity": 0.7874015748031497
        },
        {
          "duration": 0.6729325999999958,
          "durationTicks": 179,
          "midi": 59,
          "name": "B3",
          "ticks": 60000,
          "time": 225.564,
          "velocity": 0.7874015748031497
        },
        {
          "duration": 0.6729325999999958,
          "durationTicks": 179,
          "midi": 54,
          "name": "F#3",
          "ticks": 60000,
          "time": 225.564,
          "velocity": 0.7874015748031497
        },
        {
          "duration": 0.6729325999999958,
          "durationTicks": 179,
          "midi": 47,
          "name": "B2",
          "ticks": 60000,
          "time": 225.564,
          "velocity": 0.7874015748031497
        },
        {
          "duration": 0.3345865999999944,
          "durationTicks": 89,
          "midi": 57,
          "name": "A3",
          "ticks": 60180,
          "time": 226.240692,
          "velocity": 0.7874015748031497
        },
        {
          "duration": 0.3345865999999944,
          "durationTicks": 89,
          "midi": 52,
          "name": "E3",
          "ticks": 60180,
          "time": 226.240692,
          "velocity": 0.7874015748031497
        },
        {
          "duration": 0.3345865999999944,
          "durationTicks": 89,
          "midi": 45,
          "name": "A2",
          "ticks": 60180,
          "time": 226.240692,
          "velocity": 0.7874015748031497
        },
        {
          "duration": 0.6729325999999958,
          "durationTicks": 179,
          "midi": 59,
          "name": "B3",
          "ticks": 61920,
          "time": 232.782048,
          "velocity": 0.7874015748031497
        },
        {
          "duration": 0.6729325999999958,
          "durationTicks": 179,
          "midi": 54,
          "name": "F#3",
          "ticks": 61920,
          "time": 232.782048,
          "velocity": 0.7874015748031497
        },
        {
          "duration": 0.6729325999999958,
          "durationTicks": 179,
          "midi": 47,
          "name": "B2",
          "ticks": 61920,
          "time": 232.782048,
          "velocity": 0.7874015748031497
        },
        {
          "duration": 0.6729325999999958,
          "durationTicks": 179,
          "midi": 57,
          "name": "A3",
          "ticks": 62100,
          "time": 233.45874,
          "velocity": 0.7874015748031497
        },
        {
          "duration": 0.6729325999999958,
          "durationTicks": 179,
          "midi": 52,
          "name": "E3",
          "ticks": 62100,
          "time": 233.45874,
          "velocity": 0.7874015748031497
        },
        {
          "duration": 0.6729325999999958,
          "durationTicks": 179,
          "midi": 45,
          "name": "A2",
          "ticks": 62100,
          "time": 233.45874,
          "velocity": 0.7874015748031497
        },
        {
          "duration": 0.4473685999999759,
          "durationTicks": 119,
          "midi": 62,
          "name": "D4",
          "ticks": 62280,
          "time": 234.135432,
          "velocity": 0.7874015748031497
        },
        {
          "duration": 0.4473685999999759,
          "durationTicks": 119,
          "midi": 57,
          "name": "A3",
          "ticks": 62280,
          "time": 234.135432,
          "velocity": 0.7874015748031497
        },
        {
          "duration": 0.4473685999999759,
          "durationTicks": 119,
          "midi": 50,
          "name": "D3",
          "ticks": 62280,
          "time": 234.135432,
          "velocity": 0.7874015748031497
        },
        {
          "duration": 0.22180459999998448,
          "durationTicks": 59,
          "midi": 45,
          "name": "A2",
          "ticks": 62340,
          "time": 234.360996,
          "velocity": 0.7874015748031497
        },
        {
          "duration": 0.6729325999999958,
          "durationTicks": 179,
          "midi": 57,
          "name": "A3",
          "ticks": 62400,
          "time": 234.58656,
          "velocity": 0.7874015748031497
        },
        {
          "duration": 0.6729325999999958,
          "durationTicks": 179,
          "midi": 45,
          "name": "A2",
          "ticks": 62400,
          "time": 234.58656,
          "velocity": 0.7874015748031497
        },
        {
          "duration": 0.6729325999999958,
          "durationTicks": 179,
          "midi": 52,
          "name": "E3",
          "ticks": 62400,
          "time": 234.58656,
          "velocity": 0.7874015748031497
        },
        {
          "duration": 1.124060600000007,
          "durationTicks": 299,
          "midi": 52,
          "name": "E3",
          "ticks": 62580,
          "time": 235.263252,
          "velocity": 0.7874015748031497
        },
        {
          "duration": 1.124060600000007,
          "durationTicks": 299,
          "midi": 47,
          "name": "B2",
          "ticks": 62580,
          "time": 235.263252,
          "velocity": 0.7874015748031497
        },
        {
          "duration": 1.124060600000007,
          "durationTicks": 299,
          "midi": 40,
          "name": "E2",
          "ticks": 62580,
          "time": 235.263252,
          "velocity": 0.7874015748031497
        },
        {
          "duration": 0.6729325999999958,
          "durationTicks": 179,
          "midi": 59,
          "name": "B3",
          "ticks": 62880,
          "time": 236.391072,
          "velocity": 0.7874015748031497
        },
        {
          "duration": 0.6729325999999958,
          "durationTicks": 179,
          "midi": 54,
          "name": "F#3",
          "ticks": 62880,
          "time": 236.391072,
          "velocity": 0.7874015748031497
        },
        {
          "duration": 0.6729325999999958,
          "durationTicks": 179,
          "midi": 47,
          "name": "B2",
          "ticks": 62880,
          "time": 236.391072,
          "velocity": 0.7874015748031497
        },
        {
          "duration": 0.6729325999999958,
          "durationTicks": 179,
          "midi": 57,
          "name": "A3",
          "ticks": 63060,
          "time": 237.067764,
          "velocity": 0.7874015748031497
        },
        {
          "duration": 0.6729325999999958,
          "durationTicks": 179,
          "midi": 52,
          "name": "E3",
          "ticks": 63060,
          "time": 237.067764,
          "velocity": 0.7874015748031497
        },
        {
          "duration": 0.6729325999999958,
          "durationTicks": 179,
          "midi": 45,
          "name": "A2",
          "ticks": 63060,
          "time": 237.067764,
          "velocity": 0.7874015748031497
        },
        {
          "duration": 0.4473685999999759,
          "durationTicks": 119,
          "midi": 62,
          "name": "D4",
          "ticks": 63240,
          "time": 237.744456,
          "velocity": 0.7874015748031497
        },
        {
          "duration": 0.4473685999999759,
          "durationTicks": 119,
          "midi": 57,
          "name": "A3",
          "ticks": 63240,
          "time": 237.744456,
          "velocity": 0.7874015748031497
        },
        {
          "duration": 0.4473685999999759,
          "durationTicks": 119,
          "midi": 50,
          "name": "D3",
          "ticks": 63240,
          "time": 237.744456,
          "velocity": 0.7874015748031497
        },
        {
          "duration": 0.22180459999998448,
          "durationTicks": 59,
          "midi": 45,
          "name": "A2",
          "ticks": 63300,
          "time": 237.97002,
          "velocity": 0.7874015748031497
        },
        {
          "duration": 0.6729325999999958,
          "durationTicks": 179,
          "midi": 57,
          "name": "A3",
          "ticks": 63360,
          "time": 238.195584,
          "velocity": 0.7874015748031497
        },
        {
          "duration": 0.6729325999999958,
          "durationTicks": 179,
          "midi": 45,
          "name": "A2",
          "ticks": 63360,
          "time": 238.195584,
          "velocity": 0.7874015748031497
        },
        {
          "duration": 0.6729325999999958,
          "durationTicks": 179,
          "midi": 52,
          "name": "E3",
          "ticks": 63360,
          "time": 238.195584,
          "velocity": 0.7874015748031497
        },
        {
          "duration": 1.124060600000007,
          "durationTicks": 299,
          "midi": 52,
          "name": "E3",
          "ticks": 63540,
          "time": 238.872276,
          "velocity": 0.7874015748031497
        },
        {
          "duration": 1.124060600000007,
          "durationTicks": 299,
          "midi": 47,
          "name": "B2",
          "ticks": 63540,
          "time": 238.872276,
          "velocity": 0.7874015748031497
        },
        {
          "duration": 1.124060600000007,
          "durationTicks": 299,
          "midi": 40,
          "name": "E2",
          "ticks": 63540,
          "time": 238.872276,
          "velocity": 0.7874015748031497
        },
        {
          "duration": 0.6729326000000242,
          "durationTicks": 179,
          "midi": 59,
          "name": "B3",
          "ticks": 63840,
          "time": 240.00009599999998,
          "velocity": 0.7874015748031497
        },
        {
          "duration": 0.6729326000000242,
          "durationTicks": 179,
          "midi": 54,
          "name": "F#3",
          "ticks": 63840,
          "time": 240.00009599999998,
          "velocity": 0.7874015748031497
        },
        {
          "duration": 0.6729326000000242,
          "durationTicks": 179,
          "midi": 47,
          "name": "B2",
          "ticks": 63840,
          "time": 240.00009599999998,
          "velocity": 0.7874015748031497
        },
        {
          "duration": 0.6729326000000242,
          "durationTicks": 179,
          "midi": 57,
          "name": "A3",
          "ticks": 64020,
          "time": 240.676788,
          "velocity": 0.7874015748031497
        },
        {
          "duration": 0.6729326000000242,
          "durationTicks": 179,
          "midi": 52,
          "name": "E3",
          "ticks": 64020,
          "time": 240.676788,
          "velocity": 0.7874015748031497
        },
        {
          "duration": 0.6729326000000242,
          "durationTicks": 179,
          "midi": 45,
          "name": "A2",
          "ticks": 64020,
          "time": 240.676788,
          "velocity": 0.7874015748031497
        },
        {
          "duration": 0.44736860000000434,
          "durationTicks": 119,
          "midi": 62,
          "name": "D4",
          "ticks": 64200,
          "time": 241.35348,
          "velocity": 0.7874015748031497
        },
        {
          "duration": 0.44736860000000434,
          "durationTicks": 119,
          "midi": 57,
          "name": "A3",
          "ticks": 64200,
          "time": 241.35348,
          "velocity": 0.7874015748031497
        },
        {
          "duration": 0.44736860000000434,
          "durationTicks": 119,
          "midi": 50,
          "name": "D3",
          "ticks": 64200,
          "time": 241.35348,
          "velocity": 0.7874015748031497
        },
        {
          "duration": 0.22180459999998448,
          "durationTicks": 59,
          "midi": 45,
          "name": "A2",
          "ticks": 64260,
          "time": 241.579044,
          "velocity": 0.7874015748031497
        },
        {
          "duration": 0.6729325999999958,
          "durationTicks": 179,
          "midi": 57,
          "name": "A3",
          "ticks": 64320,
          "time": 241.804608,
          "velocity": 0.7874015748031497
        },
        {
          "duration": 0.6729325999999958,
          "durationTicks": 179,
          "midi": 45,
          "name": "A2",
          "ticks": 64320,
          "time": 241.804608,
          "velocity": 0.7874015748031497
        },
        {
          "duration": 0.6729325999999958,
          "durationTicks": 179,
          "midi": 52,
          "name": "E3",
          "ticks": 64320,
          "time": 241.804608,
          "velocity": 0.7874015748031497
        },
        {
          "duration": 1.1240605999999786,
          "durationTicks": 299,
          "midi": 52,
          "name": "E3",
          "ticks": 64500,
          "time": 242.4813,
          "velocity": 0.7874015748031497
        },
        {
          "duration": 1.1240605999999786,
          "durationTicks": 299,
          "midi": 47,
          "name": "B2",
          "ticks": 64500,
          "time": 242.4813,
          "velocity": 0.7874015748031497
        },
        {
          "duration": 1.1240605999999786,
          "durationTicks": 299,
          "midi": 40,
          "name": "E2",
          "ticks": 64500,
          "time": 242.4813,
          "velocity": 0.7874015748031497
        },
        {
          "duration": 0.6729325999999958,
          "durationTicks": 179,
          "midi": 59,
          "name": "B3",
          "ticks": 64800,
          "time": 243.60912,
          "velocity": 0.7874015748031497
        },
        {
          "duration": 0.6729325999999958,
          "durationTicks": 179,
          "midi": 54,
          "name": "F#3",
          "ticks": 64800,
          "time": 243.60912,
          "velocity": 0.7874015748031497
        },
        {
          "duration": 0.6729325999999958,
          "durationTicks": 179,
          "midi": 47,
          "name": "B2",
          "ticks": 64800,
          "time": 243.60912,
          "velocity": 0.7874015748031497
        },
        {
          "duration": 0.6729325999999958,
          "durationTicks": 179,
          "midi": 57,
          "name": "A3",
          "ticks": 64980,
          "time": 244.285812,
          "velocity": 0.7874015748031497
        },
        {
          "duration": 0.6729325999999958,
          "durationTicks": 179,
          "midi": 52,
          "name": "E3",
          "ticks": 64980,
          "time": 244.285812,
          "velocity": 0.7874015748031497
        },
        {
          "duration": 0.6729325999999958,
          "durationTicks": 179,
          "midi": 45,
          "name": "A2",
          "ticks": 64980,
          "time": 244.285812,
          "velocity": 0.7874015748031497
        },
        {
          "duration": 0.44736860000000434,
          "durationTicks": 119,
          "midi": 62,
          "name": "D4",
          "ticks": 65160,
          "time": 244.962504,
          "velocity": 0.7874015748031497
        },
        {
          "duration": 0.44736860000000434,
          "durationTicks": 119,
          "midi": 57,
          "name": "A3",
          "ticks": 65160,
          "time": 244.962504,
          "velocity": 0.7874015748031497
        },
        {
          "duration": 0.44736860000000434,
          "durationTicks": 119,
          "midi": 50,
          "name": "D3",
          "ticks": 65160,
          "time": 244.962504,
          "velocity": 0.7874015748031497
        },
        {
          "duration": 0.2218046000000129,
          "durationTicks": 59,
          "midi": 45,
          "name": "A2",
          "ticks": 65220,
          "time": 245.188068,
          "velocity": 0.7874015748031497
        },
        {
          "duration": 0.6729325999999958,
          "durationTicks": 179,
          "midi": 57,
          "name": "A3",
          "ticks": 65280,
          "time": 245.413632,
          "velocity": 0.7874015748031497
        },
        {
          "duration": 0.6729325999999958,
          "durationTicks": 179,
          "midi": 45,
          "name": "A2",
          "ticks": 65280,
          "time": 245.413632,
          "velocity": 0.7874015748031497
        },
        {
          "duration": 0.6729325999999958,
          "durationTicks": 179,
          "midi": 52,
          "name": "E3",
          "ticks": 65280,
          "time": 245.413632,
          "velocity": 0.7874015748031497
        },
        {
          "duration": 1.1240605999999786,
          "durationTicks": 299,
          "midi": 52,
          "name": "E3",
          "ticks": 65460,
          "time": 246.090324,
          "velocity": 0.7874015748031497
        },
        {
          "duration": 1.1240605999999786,
          "durationTicks": 299,
          "midi": 47,
          "name": "B2",
          "ticks": 65460,
          "time": 246.090324,
          "velocity": 0.7874015748031497
        },
        {
          "duration": 1.1240605999999786,
          "durationTicks": 299,
          "midi": 40,
          "name": "E2",
          "ticks": 65460,
          "time": 246.090324,
          "velocity": 0.7874015748031497
        },
        {
          "duration": 1.3496245999999985,
          "durationTicks": 359,
          "midi": 54,
          "name": "F#3",
          "ticks": 65760,
          "time": 247.218144,
          "velocity": 0.7874015748031497
        },
        {
          "duration": 1.3496245999999985,
          "durationTicks": 359,
          "midi": 59,
          "name": "B3",
          "ticks": 65760,
          "time": 247.218144,
          "velocity": 0.7874015748031497
        },
        {
          "duration": 1.3496245999999985,
          "durationTicks": 359,
          "midi": 47,
          "name": "B2",
          "ticks": 65760,
          "time": 247.218144,
          "velocity": 0.7874015748031497
        },
        {
          "duration": 0.22180459999998448,
          "durationTicks": 59,
          "midi": 45,
          "name": "A2",
          "ticks": 66060,
          "time": 248.345964,
          "velocity": 0.7874015748031497
        },
        {
          "duration": 0.22180459999998448,
          "durationTicks": 59,
          "midi": 57,
          "name": "A3",
          "ticks": 66120,
          "time": 248.571528,
          "velocity": 0.7874015748031497
        },
        {
          "duration": 0.22180459999998448,
          "durationTicks": 59,
          "midi": 52,
          "name": "E3",
          "ticks": 66120,
          "time": 248.571528,
          "velocity": 0.7874015748031497
        },
        {
          "duration": 0.22180459999998448,
          "durationTicks": 59,
          "midi": 45,
          "name": "A2",
          "ticks": 66120,
          "time": 248.571528,
          "velocity": 0.7874015748031497
        },
        {
          "duration": 2.0263166000000012,
          "durationTicks": 539,
          "midi": 52,
          "name": "E3",
          "ticks": 66180,
          "time": 248.797092,
          "velocity": 0.7874015748031497
        },
        {
          "duration": 2.0263166000000012,
          "durationTicks": 539,
          "midi": 47,
          "name": "B2",
          "ticks": 66180,
          "time": 248.797092,
          "velocity": 0.7874015748031497
        },
        {
          "duration": 2.0263166000000012,
          "durationTicks": 539,
          "midi": 40,
          "name": "E2",
          "ticks": 66180,
          "time": 248.797092,
          "velocity": 0.7874015748031497
        },
        {
          "duration": 1.3496245999999985,
          "durationTicks": 359,
          "midi": 54,
          "name": "F#3",
          "ticks": 66720,
          "time": 250.827168,
          "velocity": 0.7874015748031497
        },
        {
          "duration": 1.3496245999999985,
          "durationTicks": 359,
          "midi": 59,
          "name": "B3",
          "ticks": 66720,
          "time": 250.827168,
          "velocity": 0.7874015748031497
        },
        {
          "duration": 1.3496245999999985,
          "durationTicks": 359,
          "midi": 47,
          "name": "B2",
          "ticks": 66720,
          "time": 250.827168,
          "velocity": 0.7874015748031497
        },
        {
          "duration": 0.2218046000000129,
          "durationTicks": 59,
          "midi": 45,
          "name": "A2",
          "ticks": 67020,
          "time": 251.954988,
          "velocity": 0.7874015748031497
        },
        {
          "duration": 0.22180459999998448,
          "durationTicks": 59,
          "midi": 57,
          "name": "A3",
          "ticks": 67080,
          "time": 252.180552,
          "velocity": 0.7874015748031497
        },
        {
          "duration": 0.22180459999998448,
          "durationTicks": 59,
          "midi": 52,
          "name": "E3",
          "ticks": 67080,
          "time": 252.180552,
          "velocity": 0.7874015748031497
        },
        {
          "duration": 0.22180459999998448,
          "durationTicks": 59,
          "midi": 45,
          "name": "A2",
          "ticks": 67080,
          "time": 252.180552,
          "velocity": 0.7874015748031497
        },
        {
          "duration": 2.0263166000000012,
          "durationTicks": 539,
          "midi": 52,
          "name": "E3",
          "ticks": 67140,
          "time": 252.406116,
          "velocity": 0.7874015748031497
        },
        {
          "duration": 2.0263166000000012,
          "durationTicks": 539,
          "midi": 47,
          "name": "B2",
          "ticks": 67140,
          "time": 252.406116,
          "velocity": 0.7874015748031497
        },
        {
          "duration": 2.0263166000000012,
          "durationTicks": 539,
          "midi": 40,
          "name": "E2",
          "ticks": 67140,
          "time": 252.406116,
          "velocity": 0.7874015748031497
        },
        {
          "duration": 1.3496245999999985,
          "durationTicks": 359,
          "midi": 54,
          "name": "F#3",
          "ticks": 67680,
          "time": 254.436192,
          "velocity": 0.7874015748031497
        },
        {
          "duration": 1.3496245999999985,
          "durationTicks": 359,
          "midi": 59,
          "name": "B3",
          "ticks": 67680,
          "time": 254.436192,
          "velocity": 0.7874015748031497
        },
        {
          "duration": 1.3496245999999985,
          "durationTicks": 359,
          "midi": 47,
          "name": "B2",
          "ticks": 67680,
          "time": 254.436192,
          "velocity": 0.7874015748031497
        },
        {
          "duration": 0.2218046000000129,
          "durationTicks": 59,
          "midi": 45,
          "name": "A2",
          "ticks": 67980,
          "time": 255.564012,
          "velocity": 0.7874015748031497
        },
        {
          "duration": 0.22180459999998448,
          "durationTicks": 59,
          "midi": 57,
          "name": "A3",
          "ticks": 68040,
          "time": 255.789576,
          "velocity": 0.7874015748031497
        },
        {
          "duration": 0.22180459999998448,
          "durationTicks": 59,
          "midi": 52,
          "name": "E3",
          "ticks": 68040,
          "time": 255.789576,
          "velocity": 0.7874015748031497
        },
        {
          "duration": 0.22180459999998448,
          "durationTicks": 59,
          "midi": 45,
          "name": "A2",
          "ticks": 68040,
          "time": 255.789576,
          "velocity": 0.7874015748031497
        },
        {
          "duration": 2.0263166000000297,
          "durationTicks": 539,
          "midi": 52,
          "name": "E3",
          "ticks": 68100,
          "time": 256.01514,
          "velocity": 0.7874015748031497
        },
        {
          "duration": 2.0263166000000297,
          "durationTicks": 539,
          "midi": 47,
          "name": "B2",
          "ticks": 68100,
          "time": 256.01514,
          "velocity": 0.7874015748031497
        },
        {
          "duration": 2.0263166000000297,
          "durationTicks": 539,
          "midi": 40,
          "name": "E2",
          "ticks": 68100,
          "time": 256.01514,
          "velocity": 0.7874015748031497
        },
        {
          "duration": 1.349624600000027,
          "durationTicks": 359,
          "midi": 54,
          "name": "F#3",
          "ticks": 68640,
          "time": 258.045216,
          "velocity": 0.7874015748031497
        },
        {
          "duration": 1.349624600000027,
          "durationTicks": 359,
          "midi": 59,
          "name": "B3",
          "ticks": 68640,
          "time": 258.045216,
          "velocity": 0.7874015748031497
        },
        {
          "duration": 1.349624600000027,
          "durationTicks": 359,
          "midi": 47,
          "name": "B2",
          "ticks": 68640,
          "time": 258.045216,
          "velocity": 0.7874015748031497
        },
        {
          "duration": 0.22180459999998448,
          "durationTicks": 59,
          "midi": 45,
          "name": "A2",
          "ticks": 68940,
          "time": 259.173036,
          "velocity": 0.7874015748031497
        },
        {
          "duration": 0.22180459999998448,
          "durationTicks": 59,
          "midi": 57,
          "name": "A3",
          "ticks": 69000,
          "time": 259.3986,
          "velocity": 0.7874015748031497
        },
        {
          "duration": 0.22180459999998448,
          "durationTicks": 59,
          "midi": 52,
          "name": "E3",
          "ticks": 69000,
          "time": 259.3986,
          "velocity": 0.7874015748031497
        },
        {
          "duration": 0.22180459999998448,
          "durationTicks": 59,
          "midi": 45,
          "name": "A2",
          "ticks": 69000,
          "time": 259.3986,
          "velocity": 0.7874015748031497
        },
        {
          "duration": 2.026316599999973,
          "durationTicks": 539,
          "midi": 52,
          "name": "E3",
          "ticks": 69060,
          "time": 259.624164,
          "velocity": 0.7874015748031497
        },
        {
          "duration": 2.026316599999973,
          "durationTicks": 539,
          "midi": 47,
          "name": "B2",
          "ticks": 69060,
          "time": 259.624164,
          "velocity": 0.7874015748031497
        },
        {
          "duration": 2.026316599999973,
          "durationTicks": 539,
          "midi": 40,
          "name": "E2",
          "ticks": 69060,
          "time": 259.624164,
          "velocity": 0.7874015748031497
        },
        {
          "duration": 0.6729325999999674,
          "durationTicks": 179,
          "midi": 59,
          "name": "B3",
          "ticks": 69600,
          "time": 261.65424,
          "velocity": 0.7874015748031497
        },
        {
          "duration": 0.6729325999999674,
          "durationTicks": 179,
          "midi": 54,
          "name": "F#3",
          "ticks": 69600,
          "time": 261.65424,
          "velocity": 0.7874015748031497
        },
        {
          "duration": 0.6729325999999674,
          "durationTicks": 179,
          "midi": 47,
          "name": "B2",
          "ticks": 69600,
          "time": 261.65424,
          "velocity": 0.7874015748031497
        },
        {
          "duration": 0.6729325999999674,
          "durationTicks": 179,
          "midi": 57,
          "name": "A3",
          "ticks": 69780,
          "time": 262.330932,
          "velocity": 0.7874015748031497
        },
        {
          "duration": 0.6729325999999674,
          "durationTicks": 179,
          "midi": 52,
          "name": "E3",
          "ticks": 69780,
          "time": 262.330932,
          "velocity": 0.7874015748031497
        },
        {
          "duration": 0.6729325999999674,
          "durationTicks": 179,
          "midi": 45,
          "name": "A2",
          "ticks": 69780,
          "time": 262.330932,
          "velocity": 0.7874015748031497
        },
        {
          "duration": 0.4473685999999475,
          "durationTicks": 119,
          "midi": 62,
          "name": "D4",
          "ticks": 69960,
          "time": 263.007624,
          "velocity": 0.7874015748031497
        },
        {
          "duration": 0.4473685999999475,
          "durationTicks": 119,
          "midi": 57,
          "name": "A3",
          "ticks": 69960,
          "time": 263.007624,
          "velocity": 0.7874015748031497
        },
        {
          "duration": 0.4473685999999475,
          "durationTicks": 119,
          "midi": 50,
          "name": "D3",
          "ticks": 69960,
          "time": 263.007624,
          "velocity": 0.7874015748031497
        },
        {
          "duration": 0.22180459999998448,
          "durationTicks": 59,
          "midi": 45,
          "name": "A2",
          "ticks": 70020,
          "time": 263.233188,
          "velocity": 0.7874015748031497
        },
        {
          "duration": 0.6729325999999674,
          "durationTicks": 179,
          "midi": 57,
          "name": "A3",
          "ticks": 70080,
          "time": 263.458752,
          "velocity": 0.7874015748031497
        },
        {
          "duration": 0.6729325999999674,
          "durationTicks": 179,
          "midi": 45,
          "name": "A2",
          "ticks": 70080,
          "time": 263.458752,
          "velocity": 0.7874015748031497
        },
        {
          "duration": 0.6729325999999674,
          "durationTicks": 179,
          "midi": 52,
          "name": "E3",
          "ticks": 70080,
          "time": 263.458752,
          "velocity": 0.7874015748031497
        },
        {
          "duration": 1.124060600000007,
          "durationTicks": 299,
          "midi": 52,
          "name": "E3",
          "ticks": 70260,
          "time": 264.135444,
          "velocity": 0.7874015748031497
        },
        {
          "duration": 1.124060600000007,
          "durationTicks": 299,
          "midi": 47,
          "name": "B2",
          "ticks": 70260,
          "time": 264.135444,
          "velocity": 0.7874015748031497
        },
        {
          "duration": 1.124060600000007,
          "durationTicks": 299,
          "midi": 40,
          "name": "E2",
          "ticks": 70260,
          "time": 264.135444,
          "velocity": 0.7874015748031497
        },
        {
          "duration": 0.6729326000000242,
          "durationTicks": 179,
          "midi": 59,
          "name": "B3",
          "ticks": 70560,
          "time": 265.263264,
          "velocity": 0.7874015748031497
        },
        {
          "duration": 0.6729326000000242,
          "durationTicks": 179,
          "midi": 54,
          "name": "F#3",
          "ticks": 70560,
          "time": 265.263264,
          "velocity": 0.7874015748031497
        },
        {
          "duration": 0.6729326000000242,
          "durationTicks": 179,
          "midi": 47,
          "name": "B2",
          "ticks": 70560,
          "time": 265.263264,
          "velocity": 0.7874015748031497
        },
        {
          "duration": 0.6729326000000242,
          "durationTicks": 179,
          "midi": 57,
          "name": "A3",
          "ticks": 70740,
          "time": 265.939956,
          "velocity": 0.7874015748031497
        },
        {
          "duration": 0.6729326000000242,
          "durationTicks": 179,
          "midi": 52,
          "name": "E3",
          "ticks": 70740,
          "time": 265.939956,
          "velocity": 0.7874015748031497
        },
        {
          "duration": 0.6729326000000242,
          "durationTicks": 179,
          "midi": 45,
          "name": "A2",
          "ticks": 70740,
          "time": 265.939956,
          "velocity": 0.7874015748031497
        },
        {
          "duration": 0.44736860000000434,
          "durationTicks": 119,
          "midi": 62,
          "name": "D4",
          "ticks": 70920,
          "time": 266.616648,
          "velocity": 0.7874015748031497
        },
        {
          "duration": 0.44736860000000434,
          "durationTicks": 119,
          "midi": 57,
          "name": "A3",
          "ticks": 70920,
          "time": 266.616648,
          "velocity": 0.7874015748031497
        },
        {
          "duration": 0.44736860000000434,
          "durationTicks": 119,
          "midi": 50,
          "name": "D3",
          "ticks": 70920,
          "time": 266.616648,
          "velocity": 0.7874015748031497
        },
        {
          "duration": 0.22180459999998448,
          "durationTicks": 59,
          "midi": 45,
          "name": "A2",
          "ticks": 70980,
          "time": 266.842212,
          "velocity": 0.7874015748031497
        },
        {
          "duration": 0.6729326000000242,
          "durationTicks": 179,
          "midi": 57,
          "name": "A3",
          "ticks": 71040,
          "time": 267.067776,
          "velocity": 0.7874015748031497
        },
        {
          "duration": 0.6729326000000242,
          "durationTicks": 179,
          "midi": 45,
          "name": "A2",
          "ticks": 71040,
          "time": 267.067776,
          "velocity": 0.7874015748031497
        },
        {
          "duration": 0.6729326000000242,
          "durationTicks": 179,
          "midi": 52,
          "name": "E3",
          "ticks": 71040,
          "time": 267.067776,
          "velocity": 0.7874015748031497
        },
        {
          "duration": 1.124060600000007,
          "durationTicks": 299,
          "midi": 52,
          "name": "E3",
          "ticks": 71220,
          "time": 267.744468,
          "velocity": 0.7874015748031497
        },
        {
          "duration": 1.124060600000007,
          "durationTicks": 299,
          "midi": 47,
          "name": "B2",
          "ticks": 71220,
          "time": 267.744468,
          "velocity": 0.7874015748031497
        },
        {
          "duration": 1.124060600000007,
          "durationTicks": 299,
          "midi": 40,
          "name": "E2",
          "ticks": 71220,
          "time": 267.744468,
          "velocity": 0.7874015748031497
        },
        {
          "duration": 0.6729325999999674,
          "durationTicks": 179,
          "midi": 59,
          "name": "B3",
          "ticks": 71520,
          "time": 268.872288,
          "velocity": 0.7874015748031497
        },
        {
          "duration": 0.6729325999999674,
          "durationTicks": 179,
          "midi": 54,
          "name": "F#3",
          "ticks": 71520,
          "time": 268.872288,
          "velocity": 0.7874015748031497
        },
        {
          "duration": 0.6729325999999674,
          "durationTicks": 179,
          "midi": 47,
          "name": "B2",
          "ticks": 71520,
          "time": 268.872288,
          "velocity": 0.7874015748031497
        },
        {
          "duration": 0.6729326000000242,
          "durationTicks": 179,
          "midi": 57,
          "name": "A3",
          "ticks": 71700,
          "time": 269.54898,
          "velocity": 0.7874015748031497
        },
        {
          "duration": 0.6729326000000242,
          "durationTicks": 179,
          "midi": 52,
          "name": "E3",
          "ticks": 71700,
          "time": 269.54898,
          "velocity": 0.7874015748031497
        },
        {
          "duration": 0.6729326000000242,
          "durationTicks": 179,
          "midi": 45,
          "name": "A2",
          "ticks": 71700,
          "time": 269.54898,
          "velocity": 0.7874015748031497
        },
        {
          "duration": 0.44736860000000434,
          "durationTicks": 119,
          "midi": 62,
          "name": "D4",
          "ticks": 71880,
          "time": 270.225672,
          "velocity": 0.7874015748031497
        },
        {
          "duration": 0.44736860000000434,
          "durationTicks": 119,
          "midi": 57,
          "name": "A3",
          "ticks": 71880,
          "time": 270.225672,
          "velocity": 0.7874015748031497
        },
        {
          "duration": 0.44736860000000434,
          "durationTicks": 119,
          "midi": 50,
          "name": "D3",
          "ticks": 71880,
          "time": 270.225672,
          "velocity": 0.7874015748031497
        },
        {
          "duration": 0.22180459999998448,
          "durationTicks": 59,
          "midi": 45,
          "name": "A2",
          "ticks": 71940,
          "time": 270.451236,
          "velocity": 0.7874015748031497
        },
        {
          "duration": 0.6729325999999674,
          "durationTicks": 179,
          "midi": 57,
          "name": "A3",
          "ticks": 72000,
          "time": 270.6768,
          "velocity": 0.7874015748031497
        },
        {
          "duration": 0.6729325999999674,
          "durationTicks": 179,
          "midi": 45,
          "name": "A2",
          "ticks": 72000,
          "time": 270.6768,
          "velocity": 0.7874015748031497
        },
        {
          "duration": 0.6729325999999674,
          "durationTicks": 179,
          "midi": 52,
          "name": "E3",
          "ticks": 72000,
          "time": 270.6768,
          "velocity": 0.7874015748031497
        },
        {
          "duration": 1.1240605999999502,
          "durationTicks": 299,
          "midi": 52,
          "name": "E3",
          "ticks": 72180,
          "time": 271.353492,
          "velocity": 0.7874015748031497
        },
        {
          "duration": 1.1240605999999502,
          "durationTicks": 299,
          "midi": 47,
          "name": "B2",
          "ticks": 72180,
          "time": 271.353492,
          "velocity": 0.7874015748031497
        },
        {
          "duration": 1.1240605999999502,
          "durationTicks": 299,
          "midi": 40,
          "name": "E2",
          "ticks": 72180,
          "time": 271.353492,
          "velocity": 0.7874015748031497
        },
        {
          "duration": 0.6729325999999674,
          "durationTicks": 179,
          "midi": 59,
          "name": "B3",
          "ticks": 72480,
          "time": 272.481312,
          "velocity": 0.7874015748031497
        },
        {
          "duration": 0.6729325999999674,
          "durationTicks": 179,
          "midi": 54,
          "name": "F#3",
          "ticks": 72480,
          "time": 272.481312,
          "velocity": 0.7874015748031497
        },
        {
          "duration": 0.6729325999999674,
          "durationTicks": 179,
          "midi": 47,
          "name": "B2",
          "ticks": 72480,
          "time": 272.481312,
          "velocity": 0.7874015748031497
        },
        {
          "duration": 0.6729325999999674,
          "durationTicks": 179,
          "midi": 57,
          "name": "A3",
          "ticks": 72660,
          "time": 273.158004,
          "velocity": 0.7874015748031497
        },
        {
          "duration": 0.6729325999999674,
          "durationTicks": 179,
          "midi": 52,
          "name": "E3",
          "ticks": 72660,
          "time": 273.158004,
          "velocity": 0.7874015748031497
        },
        {
          "duration": 0.6729325999999674,
          "durationTicks": 179,
          "midi": 45,
          "name": "A2",
          "ticks": 72660,
          "time": 273.158004,
          "velocity": 0.7874015748031497
        },
        {
          "duration": 0.44736860000000434,
          "durationTicks": 119,
          "midi": 62,
          "name": "D4",
          "ticks": 72840,
          "time": 273.834696,
          "velocity": 0.7874015748031497
        },
        {
          "duration": 0.44736860000000434,
          "durationTicks": 119,
          "midi": 57,
          "name": "A3",
          "ticks": 72840,
          "time": 273.834696,
          "velocity": 0.7874015748031497
        },
        {
          "duration": 0.44736860000000434,
          "durationTicks": 119,
          "midi": 50,
          "name": "D3",
          "ticks": 72840,
          "time": 273.834696,
          "velocity": 0.7874015748031497
        },
        {
          "duration": 0.22180460000004132,
          "durationTicks": 59,
          "midi": 45,
          "name": "A2",
          "ticks": 72900,
          "time": 274.06025999999997,
          "velocity": 0.7874015748031497
        },
        {
          "duration": 0.6729326000000242,
          "durationTicks": 179,
          "midi": 57,
          "name": "A3",
          "ticks": 72960,
          "time": 274.285824,
          "velocity": 0.7874015748031497
        },
        {
          "duration": 0.6729326000000242,
          "durationTicks": 179,
          "midi": 45,
          "name": "A2",
          "ticks": 72960,
          "time": 274.285824,
          "velocity": 0.7874015748031497
        },
        {
          "duration": 0.6729326000000242,
          "durationTicks": 179,
          "midi": 52,
          "name": "E3",
          "ticks": 72960,
          "time": 274.285824,
          "velocity": 0.7874015748031497
        },
        {
          "duration": 1.124060600000007,
          "durationTicks": 299,
          "midi": 52,
          "name": "E3",
          "ticks": 73140,
          "time": 274.962516,
          "velocity": 0.7874015748031497
        },
        {
          "duration": 1.124060600000007,
          "durationTicks": 299,
          "midi": 47,
          "name": "B2",
          "ticks": 73140,
          "time": 274.962516,
          "velocity": 0.7874015748031497
        },
        {
          "duration": 1.124060600000007,
          "durationTicks": 299,
          "midi": 40,
          "name": "E2",
          "ticks": 73140,
          "time": 274.962516,
          "velocity": 0.7874015748031497
        },
        {
          "duration": 0.6729326000000242,
          "durationTicks": 179,
          "midi": 59,
          "name": "B3",
          "ticks": 73440,
          "time": 276.090336,
          "velocity": 0.7874015748031497
        },
        {
          "duration": 0.6729326000000242,
          "durationTicks": 179,
          "midi": 54,
          "name": "F#3",
          "ticks": 73440,
          "time": 276.090336,
          "velocity": 0.7874015748031497
        },
        {
          "duration": 0.6729326000000242,
          "durationTicks": 179,
          "midi": 47,
          "name": "B2",
          "ticks": 73440,
          "time": 276.090336,
          "velocity": 0.7874015748031497
        },
        {
          "duration": 0.6729326000000242,
          "durationTicks": 179,
          "midi": 57,
          "name": "A3",
          "ticks": 73620,
          "time": 276.767028,
          "velocity": 0.7874015748031497
        },
        {
          "duration": 0.6729326000000242,
          "durationTicks": 179,
          "midi": 52,
          "name": "E3",
          "ticks": 73620,
          "time": 276.767028,
          "velocity": 0.7874015748031497
        },
        {
          "duration": 0.6729326000000242,
          "durationTicks": 179,
          "midi": 45,
          "name": "A2",
          "ticks": 73620,
          "time": 276.767028,
          "velocity": 0.7874015748031497
        },
        {
          "duration": 0.44736860000000434,
          "durationTicks": 119,
          "midi": 62,
          "name": "D4",
          "ticks": 73800,
          "time": 277.44372,
          "velocity": 0.7874015748031497
        },
        {
          "duration": 0.44736860000000434,
          "durationTicks": 119,
          "midi": 57,
          "name": "A3",
          "ticks": 73800,
          "time": 277.44372,
          "velocity": 0.7874015748031497
        },
        {
          "duration": 0.44736860000000434,
          "durationTicks": 119,
          "midi": 50,
          "name": "D3",
          "ticks": 73800,
          "time": 277.44372,
          "velocity": 0.7874015748031497
        },
        {
          "duration": 0.22180459999998448,
          "durationTicks": 59,
          "midi": 45,
          "name": "A2",
          "ticks": 73860,
          "time": 277.669284,
          "velocity": 0.7874015748031497
        },
        {
          "duration": 0.6729325999999674,
          "durationTicks": 179,
          "midi": 57,
          "name": "A3",
          "ticks": 73920,
          "time": 277.894848,
          "velocity": 0.7874015748031497
        },
        {
          "duration": 0.6729325999999674,
          "durationTicks": 179,
          "midi": 45,
          "name": "A2",
          "ticks": 73920,
          "time": 277.894848,
          "velocity": 0.7874015748031497
        },
        {
          "duration": 0.6729325999999674,
          "durationTicks": 179,
          "midi": 52,
          "name": "E3",
          "ticks": 73920,
          "time": 277.894848,
          "velocity": 0.7874015748031497
        },
        {
          "duration": 1.1240605999999502,
          "durationTicks": 299,
          "midi": 52,
          "name": "E3",
          "ticks": 74100,
          "time": 278.57154,
          "velocity": 0.7874015748031497
        },
        {
          "duration": 1.1240605999999502,
          "durationTicks": 299,
          "midi": 47,
          "name": "B2",
          "ticks": 74100,
          "time": 278.57154,
          "velocity": 0.7874015748031497
        },
        {
          "duration": 1.1240605999999502,
          "durationTicks": 299,
          "midi": 40,
          "name": "E2",
          "ticks": 74100,
          "time": 278.57154,
          "velocity": 0.7874015748031497
        },
        {
          "duration": 0.6729325999999674,
          "durationTicks": 179,
          "midi": 59,
          "name": "B3",
          "ticks": 74400,
          "time": 279.69936,
          "velocity": 0.7874015748031497
        },
        {
          "duration": 0.6729325999999674,
          "durationTicks": 179,
          "midi": 54,
          "name": "F#3",
          "ticks": 74400,
          "time": 279.69936,
          "velocity": 0.7874015748031497
        },
        {
          "duration": 0.6729325999999674,
          "durationTicks": 179,
          "midi": 47,
          "name": "B2",
          "ticks": 74400,
          "time": 279.69936,
          "velocity": 0.7874015748031497
        },
        {
          "duration": 0.6729325999999674,
          "durationTicks": 179,
          "midi": 57,
          "name": "A3",
          "ticks": 74580,
          "time": 280.376052,
          "velocity": 0.7874015748031497
        },
        {
          "duration": 0.6729325999999674,
          "durationTicks": 179,
          "midi": 52,
          "name": "E3",
          "ticks": 74580,
          "time": 280.376052,
          "velocity": 0.7874015748031497
        },
        {
          "duration": 0.6729325999999674,
          "durationTicks": 179,
          "midi": 45,
          "name": "A2",
          "ticks": 74580,
          "time": 280.376052,
          "velocity": 0.7874015748031497
        },
        {
          "duration": 0.44736860000000434,
          "durationTicks": 119,
          "midi": 62,
          "name": "D4",
          "ticks": 74760,
          "time": 281.052744,
          "velocity": 0.7874015748031497
        },
        {
          "duration": 0.44736860000000434,
          "durationTicks": 119,
          "midi": 57,
          "name": "A3",
          "ticks": 74760,
          "time": 281.052744,
          "velocity": 0.7874015748031497
        },
        {
          "duration": 0.44736860000000434,
          "durationTicks": 119,
          "midi": 50,
          "name": "D3",
          "ticks": 74760,
          "time": 281.052744,
          "velocity": 0.7874015748031497
        },
        {
          "duration": 0.22180460000004132,
          "durationTicks": 59,
          "midi": 45,
          "name": "A2",
          "ticks": 74820,
          "time": 281.278308,
          "velocity": 0.7874015748031497
        },
        {
          "duration": 0.6729325999999674,
          "durationTicks": 179,
          "midi": 57,
          "name": "A3",
          "ticks": 74880,
          "time": 281.503872,
          "velocity": 0.7874015748031497
        },
        {
          "duration": 0.6729325999999674,
          "durationTicks": 179,
          "midi": 45,
          "name": "A2",
          "ticks": 74880,
          "time": 281.503872,
          "velocity": 0.7874015748031497
        },
        {
          "duration": 0.6729325999999674,
          "durationTicks": 179,
          "midi": 52,
          "name": "E3",
          "ticks": 74880,
          "time": 281.503872,
          "velocity": 0.7874015748031497
        },
        {
          "duration": 1.124060600000007,
          "durationTicks": 299,
          "midi": 52,
          "name": "E3",
          "ticks": 75060,
          "time": 282.180564,
          "velocity": 0.7874015748031497
        },
        {
          "duration": 1.124060600000007,
          "durationTicks": 299,
          "midi": 47,
          "name": "B2",
          "ticks": 75060,
          "time": 282.180564,
          "velocity": 0.7874015748031497
        },
        {
          "duration": 1.124060600000007,
          "durationTicks": 299,
          "midi": 40,
          "name": "E2",
          "ticks": 75060,
          "time": 282.180564,
          "velocity": 0.7874015748031497
        },
        {
          "duration": 0.6729326000000242,
          "durationTicks": 179,
          "midi": 59,
          "name": "B3",
          "ticks": 75360,
          "time": 283.308384,
          "velocity": 0.7874015748031497
        },
        {
          "duration": 0.6729326000000242,
          "durationTicks": 179,
          "midi": 54,
          "name": "F#3",
          "ticks": 75360,
          "time": 283.308384,
          "velocity": 0.7874015748031497
        },
        {
          "duration": 0.6729326000000242,
          "durationTicks": 179,
          "midi": 47,
          "name": "B2",
          "ticks": 75360,
          "time": 283.308384,
          "velocity": 0.7874015748031497
        },
        {
          "duration": 0.6729326000000242,
          "durationTicks": 179,
          "midi": 57,
          "name": "A3",
          "ticks": 75540,
          "time": 283.985076,
          "velocity": 0.7874015748031497
        },
        {
          "duration": 0.6729326000000242,
          "durationTicks": 179,
          "midi": 52,
          "name": "E3",
          "ticks": 75540,
          "time": 283.985076,
          "velocity": 0.7874015748031497
        },
        {
          "duration": 0.6729326000000242,
          "durationTicks": 179,
          "midi": 45,
          "name": "A2",
          "ticks": 75540,
          "time": 283.985076,
          "velocity": 0.7874015748031497
        },
        {
          "duration": 0.44736860000000434,
          "durationTicks": 119,
          "midi": 62,
          "name": "D4",
          "ticks": 75720,
          "time": 284.661768,
          "velocity": 0.7874015748031497
        },
        {
          "duration": 0.44736860000000434,
          "durationTicks": 119,
          "midi": 57,
          "name": "A3",
          "ticks": 75720,
          "time": 284.661768,
          "velocity": 0.7874015748031497
        },
        {
          "duration": 0.44736860000000434,
          "durationTicks": 119,
          "midi": 50,
          "name": "D3",
          "ticks": 75720,
          "time": 284.661768,
          "velocity": 0.7874015748031497
        },
        {
          "duration": 0.22180459999998448,
          "durationTicks": 59,
          "midi": 45,
          "name": "A2",
          "ticks": 75780,
          "time": 284.887332,
          "velocity": 0.7874015748031497
        },
        {
          "duration": 0.6729325999999674,
          "durationTicks": 179,
          "midi": 57,
          "name": "A3",
          "ticks": 75840,
          "time": 285.11289600000003,
          "velocity": 0.7874015748031497
        },
        {
          "duration": 0.6729325999999674,
          "durationTicks": 179,
          "midi": 45,
          "name": "A2",
          "ticks": 75840,
          "time": 285.11289600000003,
          "velocity": 0.7874015748031497
        },
        {
          "duration": 0.6729325999999674,
          "durationTicks": 179,
          "midi": 52,
          "name": "E3",
          "ticks": 75840,
          "time": 285.11289600000003,
          "velocity": 0.7874015748031497
        },
        {
          "duration": 1.124060600000007,
          "durationTicks": 299,
          "midi": 52,
          "name": "E3",
          "ticks": 76020,
          "time": 285.789588,
          "velocity": 0.7874015748031497
        },
        {
          "duration": 1.124060600000007,
          "durationTicks": 299,
          "midi": 47,
          "name": "B2",
          "ticks": 76020,
          "time": 285.789588,
          "velocity": 0.7874015748031497
        },
        {
          "duration": 1.124060600000007,
          "durationTicks": 299,
          "midi": 40,
          "name": "E2",
          "ticks": 76020,
          "time": 285.789588,
          "velocity": 0.7874015748031497
        },
        {
          "duration": 0.6729325999999674,
          "durationTicks": 179,
          "midi": 59,
          "name": "B3",
          "ticks": 76320,
          "time": 286.917408,
          "velocity": 0.7874015748031497
        },
        {
          "duration": 0.6729325999999674,
          "durationTicks": 179,
          "midi": 54,
          "name": "F#3",
          "ticks": 76320,
          "time": 286.917408,
          "velocity": 0.7874015748031497
        },
        {
          "duration": 0.6729325999999674,
          "durationTicks": 179,
          "midi": 47,
          "name": "B2",
          "ticks": 76320,
          "time": 286.917408,
          "velocity": 0.7874015748031497
        },
        {
          "duration": 0.6729325999999674,
          "durationTicks": 179,
          "midi": 57,
          "name": "A3",
          "ticks": 76500,
          "time": 287.5941,
          "velocity": 0.7874015748031497
        },
        {
          "duration": 0.6729325999999674,
          "durationTicks": 179,
          "midi": 52,
          "name": "E3",
          "ticks": 76500,
          "time": 287.5941,
          "velocity": 0.7874015748031497
        },
        {
          "duration": 0.6729325999999674,
          "durationTicks": 179,
          "midi": 45,
          "name": "A2",
          "ticks": 76500,
          "time": 287.5941,
          "velocity": 0.7874015748031497
        },
        {
          "duration": 0.44736860000000434,
          "durationTicks": 119,
          "midi": 62,
          "name": "D4",
          "ticks": 76680,
          "time": 288.27079200000003,
          "velocity": 0.7874015748031497
        },
        {
          "duration": 0.44736860000000434,
          "durationTicks": 119,
          "midi": 57,
          "name": "A3",
          "ticks": 76680,
          "time": 288.27079200000003,
          "velocity": 0.7874015748031497
        },
        {
          "duration": 0.44736860000000434,
          "durationTicks": 119,
          "midi": 50,
          "name": "D3",
          "ticks": 76680,
          "time": 288.27079200000003,
          "velocity": 0.7874015748031497
        },
        {
          "duration": 0.22180460000004132,
          "durationTicks": 59,
          "midi": 45,
          "name": "A2",
          "ticks": 76740,
          "time": 288.496356,
          "velocity": 0.7874015748031497
        },
        {
          "duration": 0.6729326000000242,
          "durationTicks": 179,
          "midi": 57,
          "name": "A3",
          "ticks": 76800,
          "time": 288.72192,
          "velocity": 0.7874015748031497
        },
        {
          "duration": 0.6729326000000242,
          "durationTicks": 179,
          "midi": 45,
          "name": "A2",
          "ticks": 76800,
          "time": 288.72192,
          "velocity": 0.7874015748031497
        },
        {
          "duration": 0.6729326000000242,
          "durationTicks": 179,
          "midi": 52,
          "name": "E3",
          "ticks": 76800,
          "time": 288.72192,
          "velocity": 0.7874015748031497
        },
        {
          "duration": 1.124060600000007,
          "durationTicks": 299,
          "midi": 52,
          "name": "E3",
          "ticks": 76980,
          "time": 289.398612,
          "velocity": 0.7874015748031497
        },
        {
          "duration": 1.124060600000007,
          "durationTicks": 299,
          "midi": 47,
          "name": "B2",
          "ticks": 76980,
          "time": 289.398612,
          "velocity": 0.7874015748031497
        },
        {
          "duration": 1.124060600000007,
          "durationTicks": 299,
          "midi": 40,
          "name": "E2",
          "ticks": 76980,
          "time": 289.398612,
          "velocity": 0.7874015748031497
        },
        {
          "duration": 3.8983749583333065,
          "durationTicks": 959,
          "midi": 59,
          "name": "B3",
          "ticks": 77280,
          "time": 290.526432,
          "velocity": 0.7874015748031497
        },
        {
          "duration": 3.8983749583333065,
          "durationTicks": 959,
          "midi": 54,
          "name": "F#3",
          "ticks": 77280,
          "time": 290.526432,
          "velocity": 0.7874015748031497
        },
        {
          "duration": 3.8983749583333065,
          "durationTicks": 959,
          "midi": 47,
          "name": "B2",
          "ticks": 77280,
          "time": 290.526432,
          "velocity": 0.7874015748031497
        },
        {
          "duration": 4.903401666666753,
          "durationTicks": 959,
          "midi": 59,
          "name": "B3",
          "ticks": 78240,
          "time": 294.428872,
          "velocity": 0.7874015748031497
        },
        {
          "duration": 4.903401666666753,
          "durationTicks": 959,
          "midi": 54,
          "name": "F#3",
          "ticks": 78240,
          "time": 294.428872,
          "velocity": 0.7874015748031497
        },
        {
          "duration": 4.903401666666753,
          "durationTicks": 959,
          "midi": 47,
          "name": "B2",
          "ticks": 78240,
          "time": 294.428872,
          "velocity": 0.7874015748031497
        },
        {
          "duration": 0.3025472500000319,
          "durationTicks": 59,
          "midi": 59,
          "name": "B3",
          "ticks": 79200,
          "time": 299.3422736666668,
          "velocity": 0.7874015748031497
        },
        {
          "duration": 0.3025472500000319,
          "durationTicks": 59,
          "midi": 54,
          "name": "F#3",
          "ticks": 79200,
          "time": 299.3422736666668,
          "velocity": 0.7874015748031497
        },
        {
          "duration": 0.3025472500000319,
          "durationTicks": 59,
          "midi": 47,
          "name": "B2",
          "ticks": 79200,
          "time": 299.3422736666668,
          "velocity": 0.7874015748031497
        }
      ],
      "endOfTrackTicks": 79259
    },
    {
      "channel": 2,
      "controlChanges": {
        "7": [
          {
            "number": 7,
            "ticks": 0,
            "time": 0,
            "value": 0.6299212598425197
          }
        ],
        "10": [
          {
            "number": 10,
            "ticks": 0,
            "time": 0,
            "value": 0.9212598425196851
          }
        ]
      },
      "pitchBends": [],
      "instrument": {
        "family": "guitar",
        "number": 30,
        "name": "distortion guitar"
      },
      "name": "Gt 2 - Rythmn",
      "notes": [
        {
          "duration": 0.8984966000000014,
          "durationTicks": 239,
          "midi": 54,
          "name": "F#3",
          "ticks": 27360,
          "time": 102.85718399999999,
          "velocity": 0.7874015748031497
        },
        {
          "duration": 0.8984966000000014,
          "durationTicks": 239,
          "midi": 47,
          "name": "B2",
          "ticks": 27360,
          "time": 102.85718399999999,
          "velocity": 0.7874015748031497
        },
        {
          "duration": 0.2218045999999987,
          "durationTicks": 59,
          "midi": 57,
          "name": "A3",
          "ticks": 27600,
          "time": 103.75944,
          "velocity": 0.7874015748031497
        },
        {
          "duration": 0.2218045999999987,
          "durationTicks": 59,
          "midi": 52,
          "name": "E3",
          "ticks": 27600,
          "time": 103.75944,
          "velocity": 0.7874015748031497
        },
        {
          "duration": 0.2218045999999987,
          "durationTicks": 59,
          "midi": 45,
          "name": "A2",
          "ticks": 27600,
          "time": 103.75944,
          "velocity": 0.7874015748031497
        },
        {
          "duration": 0.2218046000000129,
          "durationTicks": 59,
          "midi": 52,
          "name": "E3",
          "ticks": 27660,
          "time": 103.98500399999999,
          "velocity": 0.7874015748031497
        },
        {
          "duration": 0.2218046000000129,
          "durationTicks": 59,
          "midi": 47,
          "name": "B2",
          "ticks": 27660,
          "time": 103.98500399999999,
          "velocity": 0.7874015748031497
        },
        {
          "duration": 0.2218046000000129,
          "durationTicks": 59,
          "midi": 40,
          "name": "E2",
          "ticks": 27660,
          "time": 103.98500399999999,
          "velocity": 0.7874015748031497
        },
        {
          "duration": 0.2218045999999987,
          "durationTicks": 59,
          "midi": 45,
          "name": "A2",
          "ticks": 27900,
          "time": 104.88726,
          "velocity": 0.7874015748031497
        },
        {
          "duration": 0.2218045999999987,
          "durationTicks": 59,
          "midi": 52,
          "name": "E3",
          "ticks": 27900,
          "time": 104.88726,
          "velocity": 0.7874015748031497
        },
        {
          "duration": 0.2218045999999987,
          "durationTicks": 59,
          "midi": 57,
          "name": "A3",
          "ticks": 27900,
          "time": 104.88726,
          "velocity": 0.7874015748031497
        },
        {
          "duration": 0.2218045999999987,
          "durationTicks": 59,
          "midi": 45,
          "name": "A2",
          "ticks": 27990,
          "time": 105.225606,
          "velocity": 0.7874015748031497
        },
        {
          "duration": 0.2218045999999987,
          "durationTicks": 59,
          "midi": 52,
          "name": "E3",
          "ticks": 27990,
          "time": 105.225606,
          "velocity": 0.7874015748031497
        },
        {
          "duration": 0.2218045999999987,
          "durationTicks": 59,
          "midi": 57,
          "name": "A3",
          "ticks": 27990,
          "time": 105.225606,
          "velocity": 0.7874015748031497
        },
        {
          "duration": 0.8984966000000014,
          "durationTicks": 239,
          "midi": 40,
          "name": "E2",
          "ticks": 28080,
          "time": 105.563952,
          "velocity": 0.7874015748031497
        },
        {
          "duration": 0.8984966000000014,
          "durationTicks": 239,
          "midi": 47,
          "name": "B2",
          "ticks": 28080,
          "time": 105.563952,
          "velocity": 0.7874015748031497
        },
        {
          "duration": 0.8984966000000014,
          "durationTicks": 239,
          "midi": 52,
          "name": "E3",
          "ticks": 28080,
          "time": 105.563952,
          "velocity": 0.7874015748031497
        },
        {
          "duration": 0.8984966000000014,
          "durationTicks": 239,
          "midi": 54,
          "name": "F#3",
          "ticks": 28320,
          "time": 106.466208,
          "velocity": 0.7874015748031497
        },
        {
          "duration": 0.8984966000000014,
          "durationTicks": 239,
          "midi": 47,
          "name": "B2",
          "ticks": 28320,
          "time": 106.466208,
          "velocity": 0.7874015748031497
        },
        {
          "duration": 0.2218046000000129,
          "durationTicks": 59,
          "midi": 57,
          "name": "A3",
          "ticks": 28560,
          "time": 107.36846399999999,
          "velocity": 0.7874015748031497
        },
        {
          "duration": 0.2218046000000129,
          "durationTicks": 59,
          "midi": 52,
          "name": "E3",
          "ticks": 28560,
          "time": 107.36846399999999,
          "velocity": 0.7874015748031497
        },
        {
          "duration": 0.2218046000000129,
          "durationTicks": 59,
          "midi": 45,
          "name": "A2",
          "ticks": 28560,
          "time": 107.36846399999999,
          "velocity": 0.7874015748031497
        },
        {
          "duration": 0.2218045999999987,
          "durationTicks": 59,
          "midi": 52,
          "name": "E3",
          "ticks": 28620,
          "time": 107.594028,
          "velocity": 0.7874015748031497
        },
        {
          "duration": 0.2218045999999987,
          "durationTicks": 59,
          "midi": 47,
          "name": "B2",
          "ticks": 28620,
          "time": 107.594028,
          "velocity": 0.7874015748031497
        },
        {
          "duration": 0.2218045999999987,
          "durationTicks": 59,
          "midi": 40,
          "name": "E2",
          "ticks": 28620,
          "time": 107.594028,
          "velocity": 0.7874015748031497
        },
        {
          "duration": 0.2218046000000129,
          "durationTicks": 59,
          "midi": 45,
          "name": "A2",
          "ticks": 28860,
          "time": 108.49628399999999,
          "velocity": 0.7874015748031497
        },
        {
          "duration": 0.2218046000000129,
          "durationTicks": 59,
          "midi": 52,
          "name": "E3",
          "ticks": 28860,
          "time": 108.49628399999999,
          "velocity": 0.7874015748031497
        },
        {
          "duration": 0.2218046000000129,
          "durationTicks": 59,
          "midi": 57,
          "name": "A3",
          "ticks": 28860,
          "time": 108.49628399999999,
          "velocity": 0.7874015748031497
        },
        {
          "duration": 0.2218046000000129,
          "durationTicks": 59,
          "midi": 45,
          "name": "A2",
          "ticks": 28950,
          "time": 108.83462999999999,
          "velocity": 0.7874015748031497
        },
        {
          "duration": 0.2218046000000129,
          "durationTicks": 59,
          "midi": 52,
          "name": "E3",
          "ticks": 28950,
          "time": 108.83462999999999,
          "velocity": 0.7874015748031497
        },
        {
          "duration": 0.2218046000000129,
          "durationTicks": 59,
          "midi": 57,
          "name": "A3",
          "ticks": 28950,
          "time": 108.83462999999999,
          "velocity": 0.7874015748031497
        },
        {
          "duration": 0.8984966000000014,
          "durationTicks": 239,
          "midi": 40,
          "name": "E2",
          "ticks": 29040,
          "time": 109.17297599999999,
          "velocity": 0.7874015748031497
        },
        {
          "duration": 0.8984966000000014,
          "durationTicks": 239,
          "midi": 47,
          "name": "B2",
          "ticks": 29040,
          "time": 109.17297599999999,
          "velocity": 0.7874015748031497
        },
        {
          "duration": 0.8984966000000014,
          "durationTicks": 239,
          "midi": 52,
          "name": "E3",
          "ticks": 29040,
          "time": 109.17297599999999,
          "velocity": 0.7874015748031497
        },
        {
          "duration": 0.8984966000000014,
          "durationTicks": 239,
          "midi": 54,
          "name": "F#3",
          "ticks": 29280,
          "time": 110.075232,
          "velocity": 0.7874015748031497
        },
        {
          "duration": 0.8984966000000014,
          "durationTicks": 239,
          "midi": 47,
          "name": "B2",
          "ticks": 29280,
          "time": 110.075232,
          "velocity": 0.7874015748031497
        },
        {
          "duration": 0.2218045999999987,
          "durationTicks": 59,
          "midi": 57,
          "name": "A3",
          "ticks": 29520,
          "time": 110.977488,
          "velocity": 0.7874015748031497
        },
        {
          "duration": 0.2218045999999987,
          "durationTicks": 59,
          "midi": 52,
          "name": "E3",
          "ticks": 29520,
          "time": 110.977488,
          "velocity": 0.7874015748031497
        },
        {
          "duration": 0.2218045999999987,
          "durationTicks": 59,
          "midi": 45,
          "name": "A2",
          "ticks": 29520,
          "time": 110.977488,
          "velocity": 0.7874015748031497
        },
        {
          "duration": 0.2218045999999987,
          "durationTicks": 59,
          "midi": 52,
          "name": "E3",
          "ticks": 29580,
          "time": 111.203052,
          "velocity": 0.7874015748031497
        },
        {
          "duration": 0.2218045999999987,
          "durationTicks": 59,
          "midi": 47,
          "name": "B2",
          "ticks": 29580,
          "time": 111.203052,
          "velocity": 0.7874015748031497
        },
        {
          "duration": 0.2218045999999987,
          "durationTicks": 59,
          "midi": 40,
          "name": "E2",
          "ticks": 29580,
          "time": 111.203052,
          "velocity": 0.7874015748031497
        },
        {
          "duration": 0.2218045999999987,
          "durationTicks": 59,
          "midi": 45,
          "name": "A2",
          "ticks": 29820,
          "time": 112.105308,
          "velocity": 0.7874015748031497
        },
        {
          "duration": 0.2218045999999987,
          "durationTicks": 59,
          "midi": 52,
          "name": "E3",
          "ticks": 29820,
          "time": 112.105308,
          "velocity": 0.7874015748031497
        },
        {
          "duration": 0.2218045999999987,
          "durationTicks": 59,
          "midi": 57,
          "name": "A3",
          "ticks": 29820,
          "time": 112.105308,
          "velocity": 0.7874015748031497
        },
        {
          "duration": 0.2218045999999987,
          "durationTicks": 59,
          "midi": 45,
          "name": "A2",
          "ticks": 29910,
          "time": 112.443654,
          "velocity": 0.7874015748031497
        },
        {
          "duration": 0.2218045999999987,
          "durationTicks": 59,
          "midi": 52,
          "name": "E3",
          "ticks": 29910,
          "time": 112.443654,
          "velocity": 0.7874015748031497
        },
        {
          "duration": 0.2218045999999987,
          "durationTicks": 59,
          "midi": 57,
          "name": "A3",
          "ticks": 29910,
          "time": 112.443654,
          "velocity": 0.7874015748031497
        },
        {
          "duration": 0.8984966000000014,
          "durationTicks": 239,
          "midi": 40,
          "name": "E2",
          "ticks": 30000,
          "time": 112.782,
          "velocity": 0.7874015748031497
        },
        {
          "duration": 0.8984966000000014,
          "durationTicks": 239,
          "midi": 47,
          "name": "B2",
          "ticks": 30000,
          "time": 112.782,
          "velocity": 0.7874015748031497
        },
        {
          "duration": 0.8984966000000014,
          "durationTicks": 239,
          "midi": 52,
          "name": "E3",
          "ticks": 30000,
          "time": 112.782,
          "velocity": 0.7874015748031497
        },
        {
          "duration": 0.8984966000000014,
          "durationTicks": 239,
          "midi": 54,
          "name": "F#3",
          "ticks": 30240,
          "time": 113.68425599999999,
          "velocity": 0.7874015748031497
        },
        {
          "duration": 0.8984966000000014,
          "durationTicks": 239,
          "midi": 47,
          "name": "B2",
          "ticks": 30240,
          "time": 113.68425599999999,
          "velocity": 0.7874015748031497
        },
        {
          "duration": 0.2218045999999987,
          "durationTicks": 59,
          "midi": 57,
          "name": "A3",
          "ticks": 30480,
          "time": 114.586512,
          "velocity": 0.7874015748031497
        },
        {
          "duration": 0.2218045999999987,
          "durationTicks": 59,
          "midi": 52,
          "name": "E3",
          "ticks": 30480,
          "time": 114.586512,
          "velocity": 0.7874015748031497
        },
        {
          "duration": 0.2218045999999987,
          "durationTicks": 59,
          "midi": 45,
          "name": "A2",
          "ticks": 30480,
          "time": 114.586512,
          "velocity": 0.7874015748031497
        },
        {
          "duration": 0.2218046000000129,
          "durationTicks": 59,
          "midi": 52,
          "name": "E3",
          "ticks": 30540,
          "time": 114.81207599999999,
          "velocity": 0.7874015748031497
        },
        {
          "duration": 0.2218046000000129,
          "durationTicks": 59,
          "midi": 47,
          "name": "B2",
          "ticks": 30540,
          "time": 114.81207599999999,
          "velocity": 0.7874015748031497
        },
        {
          "duration": 0.2218046000000129,
          "durationTicks": 59,
          "midi": 40,
          "name": "E2",
          "ticks": 30540,
          "time": 114.81207599999999,
          "velocity": 0.7874015748031497
        },
        {
          "duration": 0.2218045999999987,
          "durationTicks": 59,
          "midi": 45,
          "name": "A2",
          "ticks": 30780,
          "time": 115.714332,
          "velocity": 0.7874015748031497
        },
        {
          "duration": 0.2218045999999987,
          "durationTicks": 59,
          "midi": 52,
          "name": "E3",
          "ticks": 30780,
          "time": 115.714332,
          "velocity": 0.7874015748031497
        },
        {
          "duration": 0.2218045999999987,
          "durationTicks": 59,
          "midi": 57,
          "name": "A3",
          "ticks": 30780,
          "time": 115.714332,
          "velocity": 0.7874015748031497
        },
        {
          "duration": 0.2218045999999987,
          "durationTicks": 59,
          "midi": 45,
          "name": "A2",
          "ticks": 30870,
          "time": 116.052678,
          "velocity": 0.7874015748031497
        },
        {
          "duration": 0.2218045999999987,
          "durationTicks": 59,
          "midi": 52,
          "name": "E3",
          "ticks": 30870,
          "time": 116.052678,
          "velocity": 0.7874015748031497
        },
        {
          "duration": 0.2218045999999987,
          "durationTicks": 59,
          "midi": 57,
          "name": "A3",
          "ticks": 30870,
          "time": 116.052678,
          "velocity": 0.7874015748031497
        },
        {
          "duration": 0.8984966000000156,
          "durationTicks": 239,
          "midi": 40,
          "name": "E2",
          "ticks": 30960,
          "time": 116.39102399999999,
          "velocity": 0.7874015748031497
        },
        {
          "duration": 0.8984966000000156,
          "durationTicks": 239,
          "midi": 47,
          "name": "B2",
          "ticks": 30960,
          "time": 116.39102399999999,
          "velocity": 0.7874015748031497
        },
        {
          "duration": 0.8984966000000156,
          "durationTicks": 239,
          "midi": 52,
          "name": "E3",
          "ticks": 30960,
          "time": 116.39102399999999,
          "velocity": 0.7874015748031497
        },
        {
          "duration": 7.214288600000003,
          "durationTicks": 1919,
          "midi": 54,
          "name": "F#3",
          "ticks": 32160,
          "time": 120.90230399999999,
          "velocity": 0.7874015748031497
        },
        {
          "duration": 7.214288600000003,
          "durationTicks": 1919,
          "midi": 47,
          "name": "B2",
          "ticks": 32160,
          "time": 120.90230399999999,
          "velocity": 0.7874015748031497
        },
        {
          "duration": 7.214288600000003,
          "durationTicks": 1919,
          "midi": 54,
          "name": "F#3",
          "ticks": 34080,
          "time": 128.120352,
          "velocity": 0.7874015748031497
        },
        {
          "duration": 7.214288600000003,
          "durationTicks": 1919,
          "midi": 47,
          "name": "B2",
          "ticks": 34080,
          "time": 128.120352,
          "velocity": 0.7874015748031497
        },
        {
          "duration": 7.214288600000003,
          "durationTicks": 1919,
          "midi": 54,
          "name": "F#3",
          "ticks": 36000,
          "time": 135.33839999999998,
          "velocity": 0.7874015748031497
        },
        {
          "duration": 7.214288600000003,
          "durationTicks": 1919,
          "midi": 47,
          "name": "B2",
          "ticks": 36000,
          "time": 135.33839999999998,
          "velocity": 0.7874015748031497
        },
        {
          "duration": 7.214288600000003,
          "durationTicks": 1919,
          "midi": 54,
          "name": "F#3",
          "ticks": 37920,
          "time": 142.556448,
          "velocity": 0.7874015748031497
        },
        {
          "duration": 7.214288600000003,
          "durationTicks": 1919,
          "midi": 47,
          "name": "B2",
          "ticks": 37920,
          "time": 142.556448,
          "velocity": 0.7874015748031497
        },
        {
          "duration": 1.8007525999999814,
          "durationTicks": 479,
          "midi": 47,
          "name": "B2",
          "ticks": 39840,
          "time": 149.774496,
          "velocity": 0.7874015748031497
        },
        {
          "duration": 1.8007525999999814,
          "durationTicks": 479,
          "midi": 54,
          "name": "F#3",
          "ticks": 39840,
          "time": 149.774496,
          "velocity": 0.7874015748031497
        },
        {
          "duration": 1.8007526000000098,
          "durationTicks": 479,
          "midi": 47,
          "name": "B2",
          "ticks": 40320,
          "time": 151.579008,
          "velocity": 0.7874015748031497
        },
        {
          "duration": 1.8007526000000098,
          "durationTicks": 479,
          "midi": 54,
          "name": "F#3",
          "ticks": 40320,
          "time": 151.579008,
          "velocity": 0.7874015748031497
        },
        {
          "duration": 0.8984965999999872,
          "durationTicks": 239,
          "midi": 47,
          "name": "B2",
          "ticks": 40800,
          "time": 153.38352,
          "velocity": 0.7874015748031497
        },
        {
          "duration": 0.8984965999999872,
          "durationTicks": 239,
          "midi": 54,
          "name": "F#3",
          "ticks": 40800,
          "time": 153.38352,
          "velocity": 0.7874015748031497
        },
        {
          "duration": 0.8984965999999872,
          "durationTicks": 239,
          "midi": 47,
          "name": "B2",
          "ticks": 41040,
          "time": 154.285776,
          "velocity": 0.7874015748031497
        },
        {
          "duration": 0.8984965999999872,
          "durationTicks": 239,
          "midi": 54,
          "name": "F#3",
          "ticks": 41040,
          "time": 154.285776,
          "velocity": 0.7874015748031497
        },
        {
          "duration": 0.44736860000000434,
          "durationTicks": 119,
          "midi": 47,
          "name": "B2",
          "ticks": 41280,
          "time": 155.188032,
          "velocity": 0.7874015748031497
        },
        {
          "duration": 0.44736860000000434,
          "durationTicks": 119,
          "midi": 54,
          "name": "F#3",
          "ticks": 41280,
          "time": 155.188032,
          "velocity": 0.7874015748031497
        },
        {
          "duration": 0.44736860000000434,
          "durationTicks": 119,
          "midi": 47,
          "name": "B2",
          "ticks": 41400,
          "time": 155.63916,
          "velocity": 0.7874015748031497
        },
        {
          "duration": 0.44736860000000434,
          "durationTicks": 119,
          "midi": 54,
          "name": "F#3",
          "ticks": 41400,
          "time": 155.63916,
          "velocity": 0.7874015748031497
        },
        {
          "duration": 0.44736860000000434,
          "durationTicks": 119,
          "midi": 47,
          "name": "B2",
          "ticks": 41520,
          "time": 156.090288,
          "velocity": 0.7874015748031497
        },
        {
          "duration": 0.44736860000000434,
          "durationTicks": 119,
          "midi": 54,
          "name": "F#3",
          "ticks": 41520,
          "time": 156.090288,
          "velocity": 0.7874015748031497
        },
        {
          "duration": 0.44736860000000434,
          "durationTicks": 119,
          "midi": 47,
          "name": "B2",
          "ticks": 41640,
          "time": 156.541416,
          "velocity": 0.7874015748031497
        },
        {
          "duration": 0.44736860000000434,
          "durationTicks": 119,
          "midi": 54,
          "name": "F#3",
          "ticks": 41640,
          "time": 156.541416,
          "velocity": 0.7874015748031497
        },
        {
          "duration": 0.44736860000000434,
          "durationTicks": 119,
          "midi": 47,
          "name": "B2",
          "ticks": 41760,
          "time": 156.99254399999998,
          "velocity": 0.7874015748031497
        },
        {
          "duration": 0.44736860000000434,
          "durationTicks": 119,
          "midi": 54,
          "name": "F#3",
          "ticks": 41760,
          "time": 156.99254399999998,
          "velocity": 0.7874015748031497
        },
        {
          "duration": 0.44736860000000434,
          "durationTicks": 119,
          "midi": 45,
          "name": "A2",
          "ticks": 41880,
          "time": 157.443672,
          "velocity": 0.7874015748031497
        },
        {
          "duration": 0.44736860000000434,
          "durationTicks": 119,
          "midi": 52,
          "name": "E3",
          "ticks": 41880,
          "time": 157.443672,
          "velocity": 0.7874015748031497
        },
        {
          "duration": 0.3345865999999944,
          "durationTicks": 89,
          "midi": 47,
          "name": "B2",
          "ticks": 42000,
          "time": 157.8948,
          "velocity": 0.7874015748031497
        },
        {
          "duration": 0.3345865999999944,
          "durationTicks": 89,
          "midi": 40,
          "name": "E2",
          "ticks": 42000,
          "time": 157.8948,
          "velocity": 0.7874015748031497
        },
        {
          "duration": 0.44736860000000434,
          "durationTicks": 119,
          "midi": 52,
          "name": "E3",
          "ticks": 42600,
          "time": 160.15044,
          "velocity": 0.7874015748031497
        },
        {
          "duration": 0.44736860000000434,
          "durationTicks": 119,
          "midi": 45,
          "name": "A2",
          "ticks": 42600,
          "time": 160.15044,
          "velocity": 0.7874015748031497
        },
        {
          "duration": 0.44736860000000434,
          "durationTicks": 119,
          "midi": 54,
          "name": "F#3",
          "ticks": 42720,
          "time": 160.601568,
          "velocity": 0.7874015748031497
        },
        {
          "duration": 0.44736860000000434,
          "durationTicks": 119,
          "midi": 47,
          "name": "B2",
          "ticks": 42720,
          "time": 160.601568,
          "velocity": 0.7874015748031497
        },
        {
          "duration": 0.44736860000000434,
          "durationTicks": 119,
          "midi": 52,
          "name": "E3",
          "ticks": 42840,
          "time": 161.052696,
          "velocity": 0.7874015748031497
        },
        {
          "duration": 0.44736860000000434,
          "durationTicks": 119,
          "midi": 45,
          "name": "A2",
          "ticks": 42840,
          "time": 161.052696,
          "velocity": 0.7874015748031497
        },
        {
          "duration": 0.3345866000000228,
          "durationTicks": 89,
          "midi": 47,
          "name": "B2",
          "ticks": 42960,
          "time": 161.50382399999998,
          "velocity": 0.7874015748031497
        },
        {
          "duration": 0.3345866000000228,
          "durationTicks": 89,
          "midi": 40,
          "name": "E2",
          "ticks": 42960,
          "time": 161.50382399999998,
          "velocity": 0.7874015748031497
        },
        {
          "duration": 0.44736860000000434,
          "durationTicks": 119,
          "midi": 52,
          "name": "E3",
          "ticks": 43560,
          "time": 163.75946399999998,
          "velocity": 0.7874015748031497
        },
        {
          "duration": 0.44736860000000434,
          "durationTicks": 119,
          "midi": 45,
          "name": "A2",
          "ticks": 43560,
          "time": 163.75946399999998,
          "velocity": 0.7874015748031497
        },
        {
          "duration": 0.44736860000000434,
          "durationTicks": 119,
          "midi": 54,
          "name": "F#3",
          "ticks": 43680,
          "time": 164.210592,
          "velocity": 0.7874015748031497
        },
        {
          "duration": 0.44736860000000434,
          "durationTicks": 119,
          "midi": 47,
          "name": "B2",
          "ticks": 43680,
          "time": 164.210592,
          "velocity": 0.7874015748031497
        },
        {
          "duration": 0.44736860000000434,
          "durationTicks": 119,
          "midi": 52,
          "name": "E3",
          "ticks": 43800,
          "time": 164.66172,
          "velocity": 0.7874015748031497
        },
        {
          "duration": 0.44736860000000434,
          "durationTicks": 119,
          "midi": 45,
          "name": "A2",
          "ticks": 43800,
          "time": 164.66172,
          "velocity": 0.7874015748031497
        },
        {
          "duration": 0.44736860000000434,
          "durationTicks": 119,
          "midi": 59,
          "name": "B3",
          "ticks": 43920,
          "time": 165.11284799999999,
          "velocity": 0.7874015748031497
        },
        {
          "duration": 0.44736860000000434,
          "durationTicks": 119,
          "midi": 52,
          "name": "E3",
          "ticks": 43920,
          "time": 165.11284799999999,
          "velocity": 0.7874015748031497
        },
        {
          "duration": 0.44736860000000434,
          "durationTicks": 119,
          "midi": 45,
          "name": "A2",
          "ticks": 44520,
          "time": 167.36848799999999,
          "velocity": 0.7874015748031497
        },
        {
          "duration": 0.44736860000000434,
          "durationTicks": 119,
          "midi": 52,
          "name": "E3",
          "ticks": 44520,
          "time": 167.36848799999999,
          "velocity": 0.7874015748031497
        },
        {
          "duration": 0.44736860000000434,
          "durationTicks": 119,
          "midi": 47,
          "name": "B2",
          "ticks": 44640,
          "time": 167.819616,
          "velocity": 0.7874015748031497
        },
        {
          "duration": 0.44736860000000434,
          "durationTicks": 119,
          "midi": 54,
          "name": "F#3",
          "ticks": 44640,
          "time": 167.819616,
          "velocity": 0.7874015748031497
        },
        {
          "duration": 0.44736860000000434,
          "durationTicks": 119,
          "midi": 45,
          "name": "A2",
          "ticks": 44760,
          "time": 168.27074399999998,
          "velocity": 0.7874015748031497
        },
        {
          "duration": 0.44736860000000434,
          "durationTicks": 119,
          "midi": 52,
          "name": "E3",
          "ticks": 44760,
          "time": 168.27074399999998,
          "velocity": 0.7874015748031497
        },
        {
          "duration": 0.3345865999999944,
          "durationTicks": 89,
          "midi": 47,
          "name": "B2",
          "ticks": 44880,
          "time": 168.721872,
          "velocity": 0.7874015748031497
        },
        {
          "duration": 0.3345865999999944,
          "durationTicks": 89,
          "midi": 40,
          "name": "E2",
          "ticks": 44880,
          "time": 168.721872,
          "velocity": 0.7874015748031497
        },
        {
          "duration": 0.6729325999999958,
          "durationTicks": 179,
          "midi": 54,
          "name": "F#3",
          "ticks": 45600,
          "time": 171.42864,
          "velocity": 0.7874015748031497
        },
        {
          "duration": 0.6729325999999958,
          "durationTicks": 179,
          "midi": 47,
          "name": "B2",
          "ticks": 45600,
          "time": 171.42864,
          "velocity": 0.7874015748031497
        },
        {
          "duration": 0.6729326000000242,
          "durationTicks": 179,
          "midi": 52,
          "name": "E3",
          "ticks": 45780,
          "time": 172.10533199999998,
          "velocity": 0.7874015748031497
        },
        {
          "duration": 0.6729326000000242,
          "durationTicks": 179,
          "midi": 45,
          "name": "A2",
          "ticks": 45780,
          "time": 172.10533199999998,
          "velocity": 0.7874015748031497
        },
        {
          "duration": 0.44736860000000434,
          "durationTicks": 119,
          "midi": 62,
          "name": "D4",
          "ticks": 45960,
          "time": 172.78202399999998,
          "velocity": 0.7874015748031497
        },
        {
          "duration": 0.44736860000000434,
          "durationTicks": 119,
          "midi": 57,
          "name": "A3",
          "ticks": 45960,
          "time": 172.78202399999998,
          "velocity": 0.7874015748031497
        },
        {
          "duration": 0.44736860000000434,
          "durationTicks": 119,
          "midi": 50,
          "name": "D3",
          "ticks": 45960,
          "time": 172.78202399999998,
          "velocity": 0.7874015748031497
        },
        {
          "duration": 0.22180459999998448,
          "durationTicks": 59,
          "midi": 45,
          "name": "A2",
          "ticks": 46020,
          "time": 173.007588,
          "velocity": 0.7874015748031497
        },
        {
          "duration": 0.6729325999999958,
          "durationTicks": 179,
          "midi": 45,
          "name": "A2",
          "ticks": 46080,
          "time": 173.233152,
          "velocity": 0.7874015748031497
        },
        {
          "duration": 0.6729325999999958,
          "durationTicks": 179,
          "midi": 52,
          "name": "E3",
          "ticks": 46080,
          "time": 173.233152,
          "velocity": 0.7874015748031497
        },
        {
          "duration": 1.124060600000007,
          "durationTicks": 299,
          "midi": 47,
          "name": "B2",
          "ticks": 46260,
          "time": 173.909844,
          "velocity": 0.7874015748031497
        },
        {
          "duration": 1.124060600000007,
          "durationTicks": 299,
          "midi": 40,
          "name": "E2",
          "ticks": 46260,
          "time": 173.909844,
          "velocity": 0.7874015748031497
        },
        {
          "duration": 0.6729326000000242,
          "durationTicks": 179,
          "midi": 54,
          "name": "F#3",
          "ticks": 46560,
          "time": 175.03766399999998,
          "velocity": 0.7874015748031497
        },
        {
          "duration": 0.6729326000000242,
          "durationTicks": 179,
          "midi": 47,
          "name": "B2",
          "ticks": 46560,
          "time": 175.03766399999998,
          "velocity": 0.7874015748031497
        },
        {
          "duration": 0.6729326000000242,
          "durationTicks": 179,
          "midi": 52,
          "name": "E3",
          "ticks": 46740,
          "time": 175.71435599999998,
          "velocity": 0.7874015748031497
        },
        {
          "duration": 0.6729326000000242,
          "durationTicks": 179,
          "midi": 45,
          "name": "A2",
          "ticks": 46740,
          "time": 175.71435599999998,
          "velocity": 0.7874015748031497
        },
        {
          "duration": 0.44736860000000434,
          "durationTicks": 119,
          "midi": 62,
          "name": "D4",
          "ticks": 46920,
          "time": 176.39104799999998,
          "velocity": 0.7874015748031497
        },
        {
          "duration": 0.44736860000000434,
          "durationTicks": 119,
          "midi": 57,
          "name": "A3",
          "ticks": 46920,
          "time": 176.39104799999998,
          "velocity": 0.7874015748031497
        },
        {
          "duration": 0.44736860000000434,
          "durationTicks": 119,
          "midi": 50,
          "name": "D3",
          "ticks": 46920,
          "time": 176.39104799999998,
          "velocity": 0.7874015748031497
        },
        {
          "duration": 0.22180459999998448,
          "durationTicks": 59,
          "midi": 45,
          "name": "A2",
          "ticks": 46980,
          "time": 176.616612,
          "velocity": 0.7874015748031497
        },
        {
          "duration": 0.6729325999999958,
          "durationTicks": 179,
          "midi": 45,
          "name": "A2",
          "ticks": 47040,
          "time": 176.842176,
          "velocity": 0.7874015748031497
        },
        {
          "duration": 0.6729325999999958,
          "durationTicks": 179,
          "midi": 52,
          "name": "E3",
          "ticks": 47040,
          "time": 176.842176,
          "velocity": 0.7874015748031497
        },
        {
          "duration": 1.124060600000007,
          "durationTicks": 299,
          "midi": 47,
          "name": "B2",
          "ticks": 47220,
          "time": 177.518868,
          "velocity": 0.7874015748031497
        },
        {
          "duration": 1.124060600000007,
          "durationTicks": 299,
          "midi": 40,
          "name": "E2",
          "ticks": 47220,
          "time": 177.518868,
          "velocity": 0.7874015748031497
        },
        {
          "duration": 0.6729325999999958,
          "durationTicks": 179,
          "midi": 54,
          "name": "F#3",
          "ticks": 47520,
          "time": 178.64668799999998,
          "velocity": 0.7874015748031497
        },
        {
          "duration": 0.6729325999999958,
          "durationTicks": 179,
          "midi": 47,
          "name": "B2",
          "ticks": 47520,
          "time": 178.64668799999998,
          "velocity": 0.7874015748031497
        },
        {
          "duration": 0.6729325999999958,
          "durationTicks": 179,
          "midi": 52,
          "name": "E3",
          "ticks": 47700,
          "time": 179.32338,
          "velocity": 0.7874015748031497
        },
        {
          "duration": 0.6729325999999958,
          "durationTicks": 179,
          "midi": 45,
          "name": "A2",
          "ticks": 47700,
          "time": 179.32338,
          "velocity": 0.7874015748031497
        },
        {
          "duration": 0.44736860000000434,
          "durationTicks": 119,
          "midi": 62,
          "name": "D4",
          "ticks": 47880,
          "time": 180.000072,
          "velocity": 0.7874015748031497
        },
        {
          "duration": 0.44736860000000434,
          "durationTicks": 119,
          "midi": 57,
          "name": "A3",
          "ticks": 47880,
          "time": 180.000072,
          "velocity": 0.7874015748031497
        },
        {
          "duration": 0.44736860000000434,
          "durationTicks": 119,
          "midi": 50,
          "name": "D3",
          "ticks": 47880,
          "time": 180.000072,
          "velocity": 0.7874015748031497
        },
        {
          "duration": 0.2218046000000129,
          "durationTicks": 59,
          "midi": 45,
          "name": "A2",
          "ticks": 47940,
          "time": 180.22563599999998,
          "velocity": 0.7874015748031497
        },
        {
          "duration": 0.6729325999999958,
          "durationTicks": 179,
          "midi": 45,
          "name": "A2",
          "ticks": 48000,
          "time": 180.4512,
          "velocity": 0.7874015748031497
        },
        {
          "duration": 0.6729325999999958,
          "durationTicks": 179,
          "midi": 52,
          "name": "E3",
          "ticks": 48000,
          "time": 180.4512,
          "velocity": 0.7874015748031497
        },
        {
          "duration": 1.1240605999999786,
          "durationTicks": 299,
          "midi": 47,
          "name": "B2",
          "ticks": 48180,
          "time": 181.127892,
          "velocity": 0.7874015748031497
        },
        {
          "duration": 1.1240605999999786,
          "durationTicks": 299,
          "midi": 40,
          "name": "E2",
          "ticks": 48180,
          "time": 181.127892,
          "velocity": 0.7874015748031497
        },
        {
          "duration": 0.6729325999999958,
          "durationTicks": 179,
          "midi": 54,
          "name": "F#3",
          "ticks": 48480,
          "time": 182.255712,
          "velocity": 0.7874015748031497
        },
        {
          "duration": 0.6729325999999958,
          "durationTicks": 179,
          "midi": 47,
          "name": "B2",
          "ticks": 48480,
          "time": 182.255712,
          "velocity": 0.7874015748031497
        },
        {
          "duration": 0.6729325999999958,
          "durationTicks": 179,
          "midi": 52,
          "name": "E3",
          "ticks": 48660,
          "time": 182.932404,
          "velocity": 0.7874015748031497
        },
        {
          "duration": 0.6729325999999958,
          "durationTicks": 179,
          "midi": 45,
          "name": "A2",
          "ticks": 48660,
          "time": 182.932404,
          "velocity": 0.7874015748031497
        },
        {
          "duration": 0.44736860000000434,
          "durationTicks": 119,
          "midi": 62,
          "name": "D4",
          "ticks": 48840,
          "time": 183.609096,
          "velocity": 0.7874015748031497
        },
        {
          "duration": 0.44736860000000434,
          "durationTicks": 119,
          "midi": 57,
          "name": "A3",
          "ticks": 48840,
          "time": 183.609096,
          "velocity": 0.7874015748031497
        },
        {
          "duration": 0.44736860000000434,
          "durationTicks": 119,
          "midi": 50,
          "name": "D3",
          "ticks": 48840,
          "time": 183.609096,
          "velocity": 0.7874015748031497
        },
        {
          "duration": 0.2218046000000129,
          "durationTicks": 59,
          "midi": 45,
          "name": "A2",
          "ticks": 48900,
          "time": 183.83465999999999,
          "velocity": 0.7874015748031497
        },
        {
          "duration": 0.6729326000000242,
          "durationTicks": 179,
          "midi": 45,
          "name": "A2",
          "ticks": 48960,
          "time": 184.06022399999998,
          "velocity": 0.7874015748031497
        },
        {
          "duration": 0.6729326000000242,
          "durationTicks": 179,
          "midi": 52,
          "name": "E3",
          "ticks": 48960,
          "time": 184.06022399999998,
          "velocity": 0.7874015748031497
        },
        {
          "duration": 1.124060600000007,
          "durationTicks": 299,
          "midi": 47,
          "name": "B2",
          "ticks": 49140,
          "time": 184.73691599999998,
          "velocity": 0.7874015748031497
        },
        {
          "duration": 1.124060600000007,
          "durationTicks": 299,
          "midi": 40,
          "name": "E2",
          "ticks": 49140,
          "time": 184.73691599999998,
          "velocity": 0.7874015748031497
        },
        {
          "duration": 3.605264599999998,
          "durationTicks": 959,
          "midi": 54,
          "name": "F#3",
          "ticks": 49440,
          "time": 185.864736,
          "velocity": 0.7874015748031497
        },
        {
          "duration": 3.605264599999998,
          "durationTicks": 959,
          "midi": 47,
          "name": "B2",
          "ticks": 49440,
          "time": 185.864736,
          "velocity": 0.7874015748031497
        },
        {
          "duration": 3.605264599999998,
          "durationTicks": 959,
          "midi": 47,
          "name": "B2",
          "ticks": 50400,
          "time": 189.47376,
          "velocity": 0.7874015748031497
        },
        {
          "duration": 3.605264599999998,
          "durationTicks": 959,
          "midi": 54,
          "name": "F#3",
          "ticks": 50400,
          "time": 189.47376,
          "velocity": 0.7874015748031497
        },
        {
          "duration": 0.2218046000000129,
          "durationTicks": 59,
          "midi": 54,
          "name": "F#3",
          "ticks": 51360,
          "time": 193.08278399999998,
          "velocity": 0.7874015748031497
        },
        {
          "duration": 0.2218046000000129,
          "durationTicks": 59,
          "midi": 47,
          "name": "B2",
          "ticks": 51360,
          "time": 193.08278399999998,
          "velocity": 0.7874015748031497
        },
        {
          "duration": 0.3345865999999944,
          "durationTicks": 89,
          "midi": 52,
          "name": "E3",
          "ticks": 51420,
          "time": 193.308348,
          "velocity": 0.7874015748031497
        },
        {
          "duration": 0.3345865999999944,
          "durationTicks": 89,
          "midi": 45,
          "name": "A2",
          "ticks": 51420,
          "time": 193.308348,
          "velocity": 0.7874015748031497
        },
        {
          "duration": 2.928572600000024,
          "durationTicks": 779,
          "midi": 47,
          "name": "B2",
          "ticks": 51540,
          "time": 193.75947599999998,
          "velocity": 0.7874015748031497
        },
        {
          "duration": 2.928572600000024,
          "durationTicks": 779,
          "midi": 54,
          "name": "F#3",
          "ticks": 51540,
          "time": 193.75947599999998,
          "velocity": 0.7874015748031497
        },
        {
          "duration": 0.2218046000000129,
          "durationTicks": 59,
          "midi": 54,
          "name": "F#3",
          "ticks": 52320,
          "time": 196.69180799999998,
          "velocity": 0.7874015748031497
        },
        {
          "duration": 0.2218046000000129,
          "durationTicks": 59,
          "midi": 47,
          "name": "B2",
          "ticks": 52320,
          "time": 196.69180799999998,
          "velocity": 0.7874015748031497
        },
        {
          "duration": 0.3345865999999944,
          "durationTicks": 89,
          "midi": 52,
          "name": "E3",
          "ticks": 52380,
          "time": 196.917372,
          "velocity": 0.7874015748031497
        },
        {
          "duration": 0.3345865999999944,
          "durationTicks": 89,
          "midi": 45,
          "name": "A2",
          "ticks": 52380,
          "time": 196.917372,
          "velocity": 0.7874015748031497
        },
        {
          "duration": 2.9285725999999954,
          "durationTicks": 779,
          "midi": 47,
          "name": "B2",
          "ticks": 52500,
          "time": 197.36849999999998,
          "velocity": 0.7874015748031497
        },
        {
          "duration": 2.9285725999999954,
          "durationTicks": 779,
          "midi": 54,
          "name": "F#3",
          "ticks": 52500,
          "time": 197.36849999999998,
          "velocity": 0.7874015748031497
        },
        {
          "duration": 0.6729325999999958,
          "durationTicks": 179,
          "midi": 40,
          "name": "E2",
          "ticks": 53280,
          "time": 200.30083199999999,
          "velocity": 0.7874015748031497
        },
        {
          "duration": 0.6729325999999958,
          "durationTicks": 179,
          "midi": 52,
          "name": "E3",
          "ticks": 53280,
          "time": 200.30083199999999,
          "velocity": 0.7874015748031497
        },
        {
          "duration": 0.6729325999999958,
          "durationTicks": 179,
          "midi": 47,
          "name": "B2",
          "ticks": 53280,
          "time": 200.30083199999999,
          "velocity": 0.7874015748031497
        },
        {
          "duration": 0.6729325999999958,
          "durationTicks": 179,
          "midi": 59,
          "name": "B3",
          "ticks": 53460,
          "time": 200.977524,
          "velocity": 0.7874015748031497
        },
        {
          "duration": 0.6729325999999958,
          "durationTicks": 179,
          "midi": 54,
          "name": "F#3",
          "ticks": 53460,
          "time": 200.977524,
          "velocity": 0.7874015748031497
        },
        {
          "duration": 0.6729325999999958,
          "durationTicks": 179,
          "midi": 47,
          "name": "B2",
          "ticks": 53460,
          "time": 200.977524,
          "velocity": 0.7874015748031497
        },
        {
          "duration": 0.2218046000000129,
          "durationTicks": 59,
          "midi": 47,
          "name": "B2",
          "ticks": 53640,
          "time": 201.654216,
          "velocity": 0.7874015748031497
        },
        {
          "duration": 0.2218046000000129,
          "durationTicks": 59,
          "midi": 54,
          "name": "F#3",
          "ticks": 53640,
          "time": 201.654216,
          "velocity": 0.7874015748031497
        },
        {
          "duration": 0.44736860000000434,
          "durationTicks": 119,
          "midi": 59,
          "name": "B3",
          "ticks": 53640,
          "time": 201.654216,
          "velocity": 0.7874015748031497
        },
        {
          "duration": 0.2218046000000129,
          "durationTicks": 59,
          "midi": 54,
          "name": "F#3",
          "ticks": 53700,
          "time": 201.87977999999998,
          "velocity": 0.7874015748031497
        },
        {
          "duration": 0.2218046000000129,
          "durationTicks": 59,
          "midi": 45,
          "name": "A2",
          "ticks": 53700,
          "time": 201.87977999999998,
          "velocity": 0.7874015748031497
        },
        {
          "duration": 0.6729325999999958,
          "durationTicks": 179,
          "midi": 57,
          "name": "A3",
          "ticks": 53760,
          "time": 202.105344,
          "velocity": 0.7874015748031497
        },
        {
          "duration": 0.6729325999999958,
          "durationTicks": 179,
          "midi": 45,
          "name": "A2",
          "ticks": 53760,
          "time": 202.105344,
          "velocity": 0.7874015748031497
        },
        {
          "duration": 0.6729325999999958,
          "durationTicks": 179,
          "midi": 52,
          "name": "E3",
          "ticks": 53760,
          "time": 202.105344,
          "velocity": 0.7874015748031497
        },
        {
          "duration": 1.124060600000007,
          "durationTicks": 299,
          "midi": 52,
          "name": "E3",
          "ticks": 53940,
          "time": 202.78203599999998,
          "velocity": 0.7874015748031497
        },
        {
          "duration": 1.124060600000007,
          "durationTicks": 299,
          "midi": 47,
          "name": "B2",
          "ticks": 53940,
          "time": 202.78203599999998,
          "velocity": 0.7874015748031497
        },
        {
          "duration": 1.0112786000000256,
          "durationTicks": 269,
          "midi": 40,
          "name": "E2",
          "ticks": 53940,
          "time": 202.78203599999998,
          "velocity": 0.7874015748031497
        },
        {
          "duration": 0.6729325999999958,
          "durationTicks": 179,
          "midi": 40,
          "name": "E2",
          "ticks": 54240,
          "time": 203.909856,
          "velocity": 0.7874015748031497
        },
        {
          "duration": 0.6729325999999958,
          "durationTicks": 179,
          "midi": 52,
          "name": "E3",
          "ticks": 54240,
          "time": 203.909856,
          "velocity": 0.7874015748031497
        },
        {
          "duration": 0.6729325999999958,
          "durationTicks": 179,
          "midi": 47,
          "name": "B2",
          "ticks": 54240,
          "time": 203.909856,
          "velocity": 0.7874015748031497
        },
        {
          "duration": 0.6729325999999958,
          "durationTicks": 179,
          "midi": 59,
          "name": "B3",
          "ticks": 54420,
          "time": 204.586548,
          "velocity": 0.7874015748031497
        },
        {
          "duration": 0.6729325999999958,
          "durationTicks": 179,
          "midi": 54,
          "name": "F#3",
          "ticks": 54420,
          "time": 204.586548,
          "velocity": 0.7874015748031497
        },
        {
          "duration": 0.6729325999999958,
          "durationTicks": 179,
          "midi": 47,
          "name": "B2",
          "ticks": 54420,
          "time": 204.586548,
          "velocity": 0.7874015748031497
        },
        {
          "duration": 0.22180459999998448,
          "durationTicks": 59,
          "midi": 47,
          "name": "B2",
          "ticks": 54600,
          "time": 205.26324,
          "velocity": 0.7874015748031497
        },
        {
          "duration": 0.22180459999998448,
          "durationTicks": 59,
          "midi": 54,
          "name": "F#3",
          "ticks": 54600,
          "time": 205.26324,
          "velocity": 0.7874015748031497
        },
        {
          "duration": 0.44736860000000434,
          "durationTicks": 119,
          "midi": 59,
          "name": "B3",
          "ticks": 54600,
          "time": 205.26324,
          "velocity": 0.7874015748031497
        },
        {
          "duration": 0.2218046000000129,
          "durationTicks": 59,
          "midi": 54,
          "name": "F#3",
          "ticks": 54660,
          "time": 205.488804,
          "velocity": 0.7874015748031497
        },
        {
          "duration": 0.2218046000000129,
          "durationTicks": 59,
          "midi": 45,
          "name": "A2",
          "ticks": 54660,
          "time": 205.488804,
          "velocity": 0.7874015748031497
        },
        {
          "duration": 0.6729326000000242,
          "durationTicks": 179,
          "midi": 57,
          "name": "A3",
          "ticks": 54720,
          "time": 205.71436799999998,
          "velocity": 0.7874015748031497
        },
        {
          "duration": 0.6729326000000242,
          "durationTicks": 179,
          "midi": 45,
          "name": "A2",
          "ticks": 54720,
          "time": 205.71436799999998,
          "velocity": 0.7874015748031497
        },
        {
          "duration": 0.6729326000000242,
          "durationTicks": 179,
          "midi": 52,
          "name": "E3",
          "ticks": 54720,
          "time": 205.71436799999998,
          "velocity": 0.7874015748031497
        },
        {
          "duration": 1.124060600000007,
          "durationTicks": 299,
          "midi": 52,
          "name": "E3",
          "ticks": 54900,
          "time": 206.39105999999998,
          "velocity": 0.7874015748031497
        },
        {
          "duration": 1.124060600000007,
          "durationTicks": 299,
          "midi": 47,
          "name": "B2",
          "ticks": 54900,
          "time": 206.39105999999998,
          "velocity": 0.7874015748031497
        },
        {
          "duration": 1.0112785999999971,
          "durationTicks": 269,
          "midi": 40,
          "name": "E2",
          "ticks": 54900,
          "time": 206.39105999999998,
          "velocity": 0.7874015748031497
        },
        {
          "duration": 0.6729325999999958,
          "durationTicks": 179,
          "midi": 40,
          "name": "E2",
          "ticks": 55200,
          "time": 207.51888,
          "velocity": 0.7874015748031497
        },
        {
          "duration": 0.6729325999999958,
          "durationTicks": 179,
          "midi": 52,
          "name": "E3",
          "ticks": 55200,
          "time": 207.51888,
          "velocity": 0.7874015748031497
        },
        {
          "duration": 0.6729325999999958,
          "durationTicks": 179,
          "midi": 47,
          "name": "B2",
          "ticks": 55200,
          "time": 207.51888,
          "velocity": 0.7874015748031497
        },
        {
          "duration": 0.6729325999999958,
          "durationTicks": 179,
          "midi": 59,
          "name": "B3",
          "ticks": 55380,
          "time": 208.195572,
          "velocity": 0.7874015748031497
        },
        {
          "duration": 0.6729325999999958,
          "durationTicks": 179,
          "midi": 54,
          "name": "F#3",
          "ticks": 55380,
          "time": 208.195572,
          "velocity": 0.7874015748031497
        },
        {
          "duration": 0.6729325999999958,
          "durationTicks": 179,
          "midi": 47,
          "name": "B2",
          "ticks": 55380,
          "time": 208.195572,
          "velocity": 0.7874015748031497
        },
        {
          "duration": 0.22180459999998448,
          "durationTicks": 59,
          "midi": 47,
          "name": "B2",
          "ticks": 55560,
          "time": 208.872264,
          "velocity": 0.7874015748031497
        },
        {
          "duration": 0.22180459999998448,
          "durationTicks": 59,
          "midi": 54,
          "name": "F#3",
          "ticks": 55560,
          "time": 208.872264,
          "velocity": 0.7874015748031497
        },
        {
          "duration": 0.4473685999999759,
          "durationTicks": 119,
          "midi": 59,
          "name": "B3",
          "ticks": 55560,
          "time": 208.872264,
          "velocity": 0.7874015748031497
        },
        {
          "duration": 0.22180459999998448,
          "durationTicks": 59,
          "midi": 54,
          "name": "F#3",
          "ticks": 55620,
          "time": 209.097828,
          "velocity": 0.7874015748031497
        },
        {
          "duration": 0.22180459999998448,
          "durationTicks": 59,
          "midi": 45,
          "name": "A2",
          "ticks": 55620,
          "time": 209.097828,
          "velocity": 0.7874015748031497
        },
        {
          "duration": 0.6729325999999958,
          "durationTicks": 179,
          "midi": 57,
          "name": "A3",
          "ticks": 55680,
          "time": 209.32339199999998,
          "velocity": 0.7874015748031497
        },
        {
          "duration": 0.6729325999999958,
          "durationTicks": 179,
          "midi": 45,
          "name": "A2",
          "ticks": 55680,
          "time": 209.32339199999998,
          "velocity": 0.7874015748031497
        },
        {
          "duration": 0.6729325999999958,
          "durationTicks": 179,
          "midi": 52,
          "name": "E3",
          "ticks": 55680,
          "time": 209.32339199999998,
          "velocity": 0.7874015748031497
        },
        {
          "duration": 1.124060600000007,
          "durationTicks": 299,
          "midi": 52,
          "name": "E3",
          "ticks": 55860,
          "time": 210.000084,
          "velocity": 0.7874015748031497
        },
        {
          "duration": 1.124060600000007,
          "durationTicks": 299,
          "midi": 47,
          "name": "B2",
          "ticks": 55860,
          "time": 210.000084,
          "velocity": 0.7874015748031497
        },
        {
          "duration": 1.0112785999999971,
          "durationTicks": 269,
          "midi": 40,
          "name": "E2",
          "ticks": 55860,
          "time": 210.000084,
          "velocity": 0.7874015748031497
        },
        {
          "duration": 0.6729325999999958,
          "durationTicks": 179,
          "midi": 40,
          "name": "E2",
          "ticks": 56160,
          "time": 211.127904,
          "velocity": 0.7874015748031497
        },
        {
          "duration": 0.6729325999999958,
          "durationTicks": 179,
          "midi": 52,
          "name": "E3",
          "ticks": 56160,
          "time": 211.127904,
          "velocity": 0.7874015748031497
        },
        {
          "duration": 0.6729325999999958,
          "durationTicks": 179,
          "midi": 47,
          "name": "B2",
          "ticks": 56160,
          "time": 211.127904,
          "velocity": 0.7874015748031497
        },
        {
          "duration": 0.6729326000000242,
          "durationTicks": 179,
          "midi": 59,
          "name": "B3",
          "ticks": 56340,
          "time": 211.80459599999998,
          "velocity": 0.7874015748031497
        },
        {
          "duration": 0.6729326000000242,
          "durationTicks": 179,
          "midi": 54,
          "name": "F#3",
          "ticks": 56340,
          "time": 211.80459599999998,
          "velocity": 0.7874015748031497
        },
        {
          "duration": 0.6729326000000242,
          "durationTicks": 179,
          "midi": 47,
          "name": "B2",
          "ticks": 56340,
          "time": 211.80459599999998,
          "velocity": 0.7874015748031497
        },
        {
          "duration": 0.2218046000000129,
          "durationTicks": 59,
          "midi": 47,
          "name": "B2",
          "ticks": 56520,
          "time": 212.48128799999998,
          "velocity": 0.7874015748031497
        },
        {
          "duration": 0.2218046000000129,
          "durationTicks": 59,
          "midi": 54,
          "name": "F#3",
          "ticks": 56520,
          "time": 212.48128799999998,
          "velocity": 0.7874015748031497
        },
        {
          "duration": 0.44736860000000434,
          "durationTicks": 119,
          "midi": 59,
          "name": "B3",
          "ticks": 56520,
          "time": 212.48128799999998,
          "velocity": 0.7874015748031497
        },
        {
          "duration": 0.22180459999998448,
          "durationTicks": 59,
          "midi": 54,
          "name": "F#3",
          "ticks": 56580,
          "time": 212.706852,
          "velocity": 0.7874015748031497
        },
        {
          "duration": 0.22180459999998448,
          "durationTicks": 59,
          "midi": 45,
          "name": "A2",
          "ticks": 56580,
          "time": 212.706852,
          "velocity": 0.7874015748031497
        },
        {
          "duration": 0.6729325999999958,
          "durationTicks": 179,
          "midi": 57,
          "name": "A3",
          "ticks": 56640,
          "time": 212.932416,
          "velocity": 0.7874015748031497
        },
        {
          "duration": 0.6729325999999958,
          "durationTicks": 179,
          "midi": 45,
          "name": "A2",
          "ticks": 56640,
          "time": 212.932416,
          "velocity": 0.7874015748031497
        },
        {
          "duration": 0.6729325999999958,
          "durationTicks": 179,
          "midi": 52,
          "name": "E3",
          "ticks": 56640,
          "time": 212.932416,
          "velocity": 0.7874015748031497
        },
        {
          "duration": 1.124060600000007,
          "durationTicks": 299,
          "midi": 52,
          "name": "E3",
          "ticks": 56820,
          "time": 213.609108,
          "velocity": 0.7874015748031497
        },
        {
          "duration": 1.124060600000007,
          "durationTicks": 299,
          "midi": 47,
          "name": "B2",
          "ticks": 56820,
          "time": 213.609108,
          "velocity": 0.7874015748031497
        },
        {
          "duration": 1.0112785999999971,
          "durationTicks": 269,
          "midi": 40,
          "name": "E2",
          "ticks": 56820,
          "time": 213.609108,
          "velocity": 0.7874015748031497
        },
        {
          "duration": 0.6729326000000242,
          "durationTicks": 179,
          "midi": 59,
          "name": "B3",
          "ticks": 57120,
          "time": 214.73692799999998,
          "velocity": 0.7874015748031497
        },
        {
          "duration": 0.6729326000000242,
          "durationTicks": 179,
          "midi": 54,
          "name": "F#3",
          "ticks": 57120,
          "time": 214.73692799999998,
          "velocity": 0.7874015748031497
        },
        {
          "duration": 0.6729326000000242,
          "durationTicks": 179,
          "midi": 47,
          "name": "B2",
          "ticks": 57120,
          "time": 214.73692799999998,
          "velocity": 0.7874015748031497
        },
        {
          "duration": 0.3345866000000228,
          "durationTicks": 89,
          "midi": 57,
          "name": "A3",
          "ticks": 57300,
          "time": 215.41361999999998,
          "velocity": 0.7874015748031497
        },
        {
          "duration": 0.3345866000000228,
          "durationTicks": 89,
          "midi": 52,
          "name": "E3",
          "ticks": 57300,
          "time": 215.41361999999998,
          "velocity": 0.7874015748031497
        },
        {
          "duration": 0.3345866000000228,
          "durationTicks": 89,
          "midi": 45,
          "name": "A2",
          "ticks": 57300,
          "time": 215.41361999999998,
          "velocity": 0.7874015748031497
        },
        {
          "duration": 0.6729325999999958,
          "durationTicks": 179,
          "midi": 59,
          "name": "B3",
          "ticks": 58080,
          "time": 218.34595199999998,
          "velocity": 0.7874015748031497
        },
        {
          "duration": 0.6729325999999958,
          "durationTicks": 179,
          "midi": 54,
          "name": "F#3",
          "ticks": 58080,
          "time": 218.34595199999998,
          "velocity": 0.7874015748031497
        },
        {
          "duration": 0.6729325999999958,
          "durationTicks": 179,
          "midi": 47,
          "name": "B2",
          "ticks": 58080,
          "time": 218.34595199999998,
          "velocity": 0.7874015748031497
        },
        {
          "duration": 0.3345865999999944,
          "durationTicks": 89,
          "midi": 57,
          "name": "A3",
          "ticks": 58260,
          "time": 219.02264399999999,
          "velocity": 0.7874015748031497
        },
        {
          "duration": 0.3345865999999944,
          "durationTicks": 89,
          "midi": 52,
          "name": "E3",
          "ticks": 58260,
          "time": 219.02264399999999,
          "velocity": 0.7874015748031497
        },
        {
          "duration": 0.3345865999999944,
          "durationTicks": 89,
          "midi": 45,
          "name": "A2",
          "ticks": 58260,
          "time": 219.02264399999999,
          "velocity": 0.7874015748031497
        },
        {
          "duration": 0.6729326000000242,
          "durationTicks": 179,
          "midi": 59,
          "name": "B3",
          "ticks": 59040,
          "time": 221.954976,
          "velocity": 0.7874015748031497
        },
        {
          "duration": 0.6729326000000242,
          "durationTicks": 179,
          "midi": 54,
          "name": "F#3",
          "ticks": 59040,
          "time": 221.954976,
          "velocity": 0.7874015748031497
        },
        {
          "duration": 0.6729326000000242,
          "durationTicks": 179,
          "midi": 47,
          "name": "B2",
          "ticks": 59040,
          "time": 221.954976,
          "velocity": 0.7874015748031497
        },
        {
          "duration": 0.3345866000000228,
          "durationTicks": 89,
          "midi": 57,
          "name": "A3",
          "ticks": 59220,
          "time": 222.631668,
          "velocity": 0.7874015748031497
        },
        {
          "duration": 0.3345866000000228,
          "durationTicks": 89,
          "midi": 52,
          "name": "E3",
          "ticks": 59220,
          "time": 222.631668,
          "velocity": 0.7874015748031497
        },
        {
          "duration": 0.3345866000000228,
          "durationTicks": 89,
          "midi": 45,
          "name": "A2",
          "ticks": 59220,
          "time": 222.631668,
          "velocity": 0.7874015748031497
        },
        {
          "duration": 0.6729325999999958,
          "durationTicks": 179,
          "midi": 59,
          "name": "B3",
          "ticks": 60000,
          "time": 225.564,
          "velocity": 0.7874015748031497
        },
        {
          "duration": 0.6729325999999958,
          "durationTicks": 179,
          "midi": 54,
          "name": "F#3",
          "ticks": 60000,
          "time": 225.564,
          "velocity": 0.7874015748031497
        },
        {
          "duration": 0.6729325999999958,
          "durationTicks": 179,
          "midi": 47,
          "name": "B2",
          "ticks": 60000,
          "time": 225.564,
          "velocity": 0.7874015748031497
        },
        {
          "duration": 0.3345865999999944,
          "durationTicks": 89,
          "midi": 57,
          "name": "A3",
          "ticks": 60180,
          "time": 226.240692,
          "velocity": 0.7874015748031497
        },
        {
          "duration": 0.3345865999999944,
          "durationTicks": 89,
          "midi": 52,
          "name": "E3",
          "ticks": 60180,
          "time": 226.240692,
          "velocity": 0.7874015748031497
        },
        {
          "duration": 0.3345865999999944,
          "durationTicks": 89,
          "midi": 45,
          "name": "A2",
          "ticks": 60180,
          "time": 226.240692,
          "velocity": 0.7874015748031497
        },
        {
          "duration": 0.6729325999999958,
          "durationTicks": 179,
          "midi": 54,
          "name": "F#3",
          "ticks": 61920,
          "time": 232.782048,
          "velocity": 0.7874015748031497
        },
        {
          "duration": 0.6729325999999958,
          "durationTicks": 179,
          "midi": 47,
          "name": "B2",
          "ticks": 61920,
          "time": 232.782048,
          "velocity": 0.7874015748031497
        },
        {
          "duration": 0.6729325999999958,
          "durationTicks": 179,
          "midi": 52,
          "name": "E3",
          "ticks": 62100,
          "time": 233.45874,
          "velocity": 0.7874015748031497
        },
        {
          "duration": 0.6729325999999958,
          "durationTicks": 179,
          "midi": 45,
          "name": "A2",
          "ticks": 62100,
          "time": 233.45874,
          "velocity": 0.7874015748031497
        },
        {
          "duration": 0.4473685999999759,
          "durationTicks": 119,
          "midi": 62,
          "name": "D4",
          "ticks": 62280,
          "time": 234.135432,
          "velocity": 0.7874015748031497
        },
        {
          "duration": 0.4473685999999759,
          "durationTicks": 119,
          "midi": 57,
          "name": "A3",
          "ticks": 62280,
          "time": 234.135432,
          "velocity": 0.7874015748031497
        },
        {
          "duration": 0.4473685999999759,
          "durationTicks": 119,
          "midi": 50,
          "name": "D3",
          "ticks": 62280,
          "time": 234.135432,
          "velocity": 0.7874015748031497
        },
        {
          "duration": 0.22180459999998448,
          "durationTicks": 59,
          "midi": 45,
          "name": "A2",
          "ticks": 62340,
          "time": 234.360996,
          "velocity": 0.7874015748031497
        },
        {
          "duration": 0.6729325999999958,
          "durationTicks": 179,
          "midi": 45,
          "name": "A2",
          "ticks": 62400,
          "time": 234.58656,
          "velocity": 0.7874015748031497
        },
        {
          "duration": 0.6729325999999958,
          "durationTicks": 179,
          "midi": 52,
          "name": "E3",
          "ticks": 62400,
          "time": 234.58656,
          "velocity": 0.7874015748031497
        },
        {
          "duration": 1.124060600000007,
          "durationTicks": 299,
          "midi": 47,
          "name": "B2",
          "ticks": 62580,
          "time": 235.263252,
          "velocity": 0.7874015748031497
        },
        {
          "duration": 1.124060600000007,
          "durationTicks": 299,
          "midi": 40,
          "name": "E2",
          "ticks": 62580,
          "time": 235.263252,
          "velocity": 0.7874015748031497
        },
        {
          "duration": 0.6729325999999958,
          "durationTicks": 179,
          "midi": 54,
          "name": "F#3",
          "ticks": 62880,
          "time": 236.391072,
          "velocity": 0.7874015748031497
        },
        {
          "duration": 0.6729325999999958,
          "durationTicks": 179,
          "midi": 47,
          "name": "B2",
          "ticks": 62880,
          "time": 236.391072,
          "velocity": 0.7874015748031497
        },
        {
          "duration": 0.6729325999999958,
          "durationTicks": 179,
          "midi": 52,
          "name": "E3",
          "ticks": 63060,
          "time": 237.067764,
          "velocity": 0.7874015748031497
        },
        {
          "duration": 0.6729325999999958,
          "durationTicks": 179,
          "midi": 45,
          "name": "A2",
          "ticks": 63060,
          "time": 237.067764,
          "velocity": 0.7874015748031497
        },
        {
          "duration": 0.4473685999999759,
          "durationTicks": 119,
          "midi": 62,
          "name": "D4",
          "ticks": 63240,
          "time": 237.744456,
          "velocity": 0.7874015748031497
        },
        {
          "duration": 0.4473685999999759,
          "durationTicks": 119,
          "midi": 57,
          "name": "A3",
          "ticks": 63240,
          "time": 237.744456,
          "velocity": 0.7874015748031497
        },
        {
          "duration": 0.4473685999999759,
          "durationTicks": 119,
          "midi": 50,
          "name": "D3",
          "ticks": 63240,
          "time": 237.744456,
          "velocity": 0.7874015748031497
        },
        {
          "duration": 0.22180459999998448,
          "durationTicks": 59,
          "midi": 45,
          "name": "A2",
          "ticks": 63300,
          "time": 237.97002,
          "velocity": 0.7874015748031497
        },
        {
          "duration": 0.6729325999999958,
          "durationTicks": 179,
          "midi": 45,
          "name": "A2",
          "ticks": 63360,
          "time": 238.195584,
          "velocity": 0.7874015748031497
        },
        {
          "duration": 0.6729325999999958,
          "durationTicks": 179,
          "midi": 52,
          "name": "E3",
          "ticks": 63360,
          "time": 238.195584,
          "velocity": 0.7874015748031497
        },
        {
          "duration": 1.124060600000007,
          "durationTicks": 299,
          "midi": 47,
          "name": "B2",
          "ticks": 63540,
          "time": 238.872276,
          "velocity": 0.7874015748031497
        },
        {
          "duration": 1.124060600000007,
          "durationTicks": 299,
          "midi": 40,
          "name": "E2",
          "ticks": 63540,
          "time": 238.872276,
          "velocity": 0.7874015748031497
        },
        {
          "duration": 0.6729326000000242,
          "durationTicks": 179,
          "midi": 54,
          "name": "F#3",
          "ticks": 63840,
          "time": 240.00009599999998,
          "velocity": 0.7874015748031497
        },
        {
          "duration": 0.6729326000000242,
          "durationTicks": 179,
          "midi": 47,
          "name": "B2",
          "ticks": 63840,
          "time": 240.00009599999998,
          "velocity": 0.7874015748031497
        },
        {
          "duration": 0.6729326000000242,
          "durationTicks": 179,
          "midi": 52,
          "name": "E3",
          "ticks": 64020,
          "time": 240.676788,
          "velocity": 0.7874015748031497
        },
        {
          "duration": 0.6729326000000242,
          "durationTicks": 179,
          "midi": 45,
          "name": "A2",
          "ticks": 64020,
          "time": 240.676788,
          "velocity": 0.7874015748031497
        },
        {
          "duration": 0.44736860000000434,
          "durationTicks": 119,
          "midi": 62,
          "name": "D4",
          "ticks": 64200,
          "time": 241.35348,
          "velocity": 0.7874015748031497
        },
        {
          "duration": 0.44736860000000434,
          "durationTicks": 119,
          "midi": 57,
          "name": "A3",
          "ticks": 64200,
          "time": 241.35348,
          "velocity": 0.7874015748031497
        },
        {
          "duration": 0.44736860000000434,
          "durationTicks": 119,
          "midi": 50,
          "name": "D3",
          "ticks": 64200,
          "time": 241.35348,
          "velocity": 0.7874015748031497
        },
        {
          "duration": 0.22180459999998448,
          "durationTicks": 59,
          "midi": 45,
          "name": "A2",
          "ticks": 64260,
          "time": 241.579044,
          "velocity": 0.7874015748031497
        },
        {
          "duration": 0.6729325999999958,
          "durationTicks": 179,
          "midi": 45,
          "name": "A2",
          "ticks": 64320,
          "time": 241.804608,
          "velocity": 0.7874015748031497
        },
        {
          "duration": 0.6729325999999958,
          "durationTicks": 179,
          "midi": 52,
          "name": "E3",
          "ticks": 64320,
          "time": 241.804608,
          "velocity": 0.7874015748031497
        },
        {
          "duration": 1.1240605999999786,
          "durationTicks": 299,
          "midi": 47,
          "name": "B2",
          "ticks": 64500,
          "time": 242.4813,
          "velocity": 0.7874015748031497
        },
        {
          "duration": 1.1240605999999786,
          "durationTicks": 299,
          "midi": 40,
          "name": "E2",
          "ticks": 64500,
          "time": 242.4813,
          "velocity": 0.7874015748031497
        },
        {
          "duration": 0.6729325999999958,
          "durationTicks": 179,
          "midi": 54,
          "name": "F#3",
          "ticks": 64800,
          "time": 243.60912,
          "velocity": 0.7874015748031497
        },
        {
          "duration": 0.6729325999999958,
          "durationTicks": 179,
          "midi": 47,
          "name": "B2",
          "ticks": 64800,
          "time": 243.60912,
          "velocity": 0.7874015748031497
        },
        {
          "duration": 0.6729325999999958,
          "durationTicks": 179,
          "midi": 52,
          "name": "E3",
          "ticks": 64980,
          "time": 244.285812,
          "velocity": 0.7874015748031497
        },
        {
          "duration": 0.6729325999999958,
          "durationTicks": 179,
          "midi": 45,
          "name": "A2",
          "ticks": 64980,
          "time": 244.285812,
          "velocity": 0.7874015748031497
        },
        {
          "duration": 0.44736860000000434,
          "durationTicks": 119,
          "midi": 62,
          "name": "D4",
          "ticks": 65160,
          "time": 244.962504,
          "velocity": 0.7874015748031497
        },
        {
          "duration": 0.44736860000000434,
          "durationTicks": 119,
          "midi": 57,
          "name": "A3",
          "ticks": 65160,
          "time": 244.962504,
          "velocity": 0.7874015748031497
        },
        {
          "duration": 0.44736860000000434,
          "durationTicks": 119,
          "midi": 50,
          "name": "D3",
          "ticks": 65160,
          "time": 244.962504,
          "velocity": 0.7874015748031497
        },
        {
          "duration": 0.2218046000000129,
          "durationTicks": 59,
          "midi": 45,
          "name": "A2",
          "ticks": 65220,
          "time": 245.188068,
          "velocity": 0.7874015748031497
        },
        {
          "duration": 0.6729325999999958,
          "durationTicks": 179,
          "midi": 45,
          "name": "A2",
          "ticks": 65280,
          "time": 245.413632,
          "velocity": 0.7874015748031497
        },
        {
          "duration": 0.6729325999999958,
          "durationTicks": 179,
          "midi": 52,
          "name": "E3",
          "ticks": 65280,
          "time": 245.413632,
          "velocity": 0.7874015748031497
        },
        {
          "duration": 1.1240605999999786,
          "durationTicks": 299,
          "midi": 47,
          "name": "B2",
          "ticks": 65460,
          "time": 246.090324,
          "velocity": 0.7874015748031497
        },
        {
          "duration": 1.1240605999999786,
          "durationTicks": 299,
          "midi": 40,
          "name": "E2",
          "ticks": 65460,
          "time": 246.090324,
          "velocity": 0.7874015748031497
        },
        {
          "duration": 1.3496245999999985,
          "durationTicks": 359,
          "midi": 54,
          "name": "F#3",
          "ticks": 65760,
          "time": 247.218144,
          "velocity": 0.7874015748031497
        },
        {
          "duration": 1.3496245999999985,
          "durationTicks": 359,
          "midi": 47,
          "name": "B2",
          "ticks": 65760,
          "time": 247.218144,
          "velocity": 0.7874015748031497
        },
        {
          "duration": 0.22180459999998448,
          "durationTicks": 59,
          "midi": 45,
          "name": "A2",
          "ticks": 66060,
          "time": 248.345964,
          "velocity": 0.7874015748031497
        },
        {
          "duration": 0.22180459999998448,
          "durationTicks": 59,
          "midi": 52,
          "name": "E3",
          "ticks": 66120,
          "time": 248.571528,
          "velocity": 0.7874015748031497
        },
        {
          "duration": 0.22180459999998448,
          "durationTicks": 59,
          "midi": 45,
          "name": "A2",
          "ticks": 66120,
          "time": 248.571528,
          "velocity": 0.7874015748031497
        },
        {
          "duration": 2.0263166000000012,
          "durationTicks": 539,
          "midi": 52,
          "name": "E3",
          "ticks": 66180,
          "time": 248.797092,
          "velocity": 0.7874015748031497
        },
        {
          "duration": 2.0263166000000012,
          "durationTicks": 539,
          "midi": 47,
          "name": "B2",
          "ticks": 66180,
          "time": 248.797092,
          "velocity": 0.7874015748031497
        },
        {
          "duration": 2.0263166000000012,
          "durationTicks": 539,
          "midi": 40,
          "name": "E2",
          "ticks": 66180,
          "time": 248.797092,
          "velocity": 0.7874015748031497
        },
        {
          "duration": 1.3496245999999985,
          "durationTicks": 359,
          "midi": 54,
          "name": "F#3",
          "ticks": 66720,
          "time": 250.827168,
          "velocity": 0.7874015748031497
        },
        {
          "duration": 1.3496245999999985,
          "durationTicks": 359,
          "midi": 47,
          "name": "B2",
          "ticks": 66720,
          "time": 250.827168,
          "velocity": 0.7874015748031497
        },
        {
          "duration": 0.2218046000000129,
          "durationTicks": 59,
          "midi": 45,
          "name": "A2",
          "ticks": 67020,
          "time": 251.954988,
          "velocity": 0.7874015748031497
        },
        {
          "duration": 0.22180459999998448,
          "durationTicks": 59,
          "midi": 52,
          "name": "E3",
          "ticks": 67080,
          "time": 252.180552,
          "velocity": 0.7874015748031497
        },
        {
          "duration": 0.22180459999998448,
          "durationTicks": 59,
          "midi": 45,
          "name": "A2",
          "ticks": 67080,
          "time": 252.180552,
          "velocity": 0.7874015748031497
        },
        {
          "duration": 2.0263166000000012,
          "durationTicks": 539,
          "midi": 52,
          "name": "E3",
          "ticks": 67140,
          "time": 252.406116,
          "velocity": 0.7874015748031497
        },
        {
          "duration": 2.0263166000000012,
          "durationTicks": 539,
          "midi": 47,
          "name": "B2",
          "ticks": 67140,
          "time": 252.406116,
          "velocity": 0.7874015748031497
        },
        {
          "duration": 2.0263166000000012,
          "durationTicks": 539,
          "midi": 40,
          "name": "E2",
          "ticks": 67140,
          "time": 252.406116,
          "velocity": 0.7874015748031497
        },
        {
          "duration": 1.3496245999999985,
          "durationTicks": 359,
          "midi": 54,
          "name": "F#3",
          "ticks": 67680,
          "time": 254.436192,
          "velocity": 0.7874015748031497
        },
        {
          "duration": 1.3496245999999985,
          "durationTicks": 359,
          "midi": 47,
          "name": "B2",
          "ticks": 67680,
          "time": 254.436192,
          "velocity": 0.7874015748031497
        },
        {
          "duration": 0.2218046000000129,
          "durationTicks": 59,
          "midi": 45,
          "name": "A2",
          "ticks": 67980,
          "time": 255.564012,
          "velocity": 0.7874015748031497
        },
        {
          "duration": 0.22180459999998448,
          "durationTicks": 59,
          "midi": 52,
          "name": "E3",
          "ticks": 68040,
          "time": 255.789576,
          "velocity": 0.7874015748031497
        },
        {
          "duration": 0.22180459999998448,
          "durationTicks": 59,
          "midi": 45,
          "name": "A2",
          "ticks": 68040,
          "time": 255.789576,
          "velocity": 0.7874015748031497
        },
        {
          "duration": 2.0263166000000297,
          "durationTicks": 539,
          "midi": 52,
          "name": "E3",
          "ticks": 68100,
          "time": 256.01514,
          "velocity": 0.7874015748031497
        },
        {
          "duration": 2.0263166000000297,
          "durationTicks": 539,
          "midi": 47,
          "name": "B2",
          "ticks": 68100,
          "time": 256.01514,
          "velocity": 0.7874015748031497
        },
        {
          "duration": 2.0263166000000297,
          "durationTicks": 539,
          "midi": 40,
          "name": "E2",
          "ticks": 68100,
          "time": 256.01514,
          "velocity": 0.7874015748031497
        },
        {
          "duration": 1.349624600000027,
          "durationTicks": 359,
          "midi": 54,
          "name": "F#3",
          "ticks": 68640,
          "time": 258.045216,
          "velocity": 0.7874015748031497
        },
        {
          "duration": 1.349624600000027,
          "durationTicks": 359,
          "midi": 47,
          "name": "B2",
          "ticks": 68640,
          "time": 258.045216,
          "velocity": 0.7874015748031497
        },
        {
          "duration": 0.22180459999998448,
          "durationTicks": 59,
          "midi": 45,
          "name": "A2",
          "ticks": 68940,
          "time": 259.173036,
          "velocity": 0.7874015748031497
        },
        {
          "duration": 0.22180459999998448,
          "durationTicks": 59,
          "midi": 52,
          "name": "E3",
          "ticks": 69000,
          "time": 259.3986,
          "velocity": 0.7874015748031497
        },
        {
          "duration": 0.22180459999998448,
          "durationTicks": 59,
          "midi": 45,
          "name": "A2",
          "ticks": 69000,
          "time": 259.3986,
          "velocity": 0.7874015748031497
        },
        {
          "duration": 2.026316599999973,
          "durationTicks": 539,
          "midi": 52,
          "name": "E3",
          "ticks": 69060,
          "time": 259.624164,
          "velocity": 0.7874015748031497
        },
        {
          "duration": 2.026316599999973,
          "durationTicks": 539,
          "midi": 47,
          "name": "B2",
          "ticks": 69060,
          "time": 259.624164,
          "velocity": 0.7874015748031497
        },
        {
          "duration": 2.026316599999973,
          "durationTicks": 539,
          "midi": 40,
          "name": "E2",
          "ticks": 69060,
          "time": 259.624164,
          "velocity": 0.7874015748031497
        },
        {
          "duration": 0.6729325999999674,
          "durationTicks": 179,
          "midi": 54,
          "name": "F#3",
          "ticks": 69600,
          "time": 261.65424,
          "velocity": 0.7874015748031497
        },
        {
          "duration": 0.6729325999999674,
          "durationTicks": 179,
          "midi": 47,
          "name": "B2",
          "ticks": 69600,
          "time": 261.65424,
          "velocity": 0.7874015748031497
        },
        {
          "duration": 0.6729325999999674,
          "durationTicks": 179,
          "midi": 52,
          "name": "E3",
          "ticks": 69780,
          "time": 262.330932,
          "velocity": 0.7874015748031497
        },
        {
          "duration": 0.6729325999999674,
          "durationTicks": 179,
          "midi": 45,
          "name": "A2",
          "ticks": 69780,
          "time": 262.330932,
          "velocity": 0.7874015748031497
        },
        {
          "duration": 0.4473685999999475,
          "durationTicks": 119,
          "midi": 62,
          "name": "D4",
          "ticks": 69960,
          "time": 263.007624,
          "velocity": 0.7874015748031497
        },
        {
          "duration": 0.4473685999999475,
          "durationTicks": 119,
          "midi": 57,
          "name": "A3",
          "ticks": 69960,
          "time": 263.007624,
          "velocity": 0.7874015748031497
        },
        {
          "duration": 0.4473685999999475,
          "durationTicks": 119,
          "midi": 50,
          "name": "D3",
          "ticks": 69960,
          "time": 263.007624,
          "velocity": 0.7874015748031497
        },
        {
          "duration": 0.22180459999998448,
          "durationTicks": 59,
          "midi": 45,
          "name": "A2",
          "ticks": 70020,
          "time": 263.233188,
          "velocity": 0.7874015748031497
        },
        {
          "duration": 0.6729325999999674,
          "durationTicks": 179,
          "midi": 45,
          "name": "A2",
          "ticks": 70080,
          "time": 263.458752,
          "velocity": 0.7874015748031497
        },
        {
          "duration": 0.6729325999999674,
          "durationTicks": 179,
          "midi": 52,
          "name": "E3",
          "ticks": 70080,
          "time": 263.458752,
          "velocity": 0.7874015748031497
        },
        {
          "duration": 1.124060600000007,
          "durationTicks": 299,
          "midi": 47,
          "name": "B2",
          "ticks": 70260,
          "time": 264.135444,
          "velocity": 0.7874015748031497
        },
        {
          "duration": 1.124060600000007,
          "durationTicks": 299,
          "midi": 40,
          "name": "E2",
          "ticks": 70260,
          "time": 264.135444,
          "velocity": 0.7874015748031497
        },
        {
          "duration": 0.6729326000000242,
          "durationTicks": 179,
          "midi": 54,
          "name": "F#3",
          "ticks": 70560,
          "time": 265.263264,
          "velocity": 0.7874015748031497
        },
        {
          "duration": 0.6729326000000242,
          "durationTicks": 179,
          "midi": 47,
          "name": "B2",
          "ticks": 70560,
          "time": 265.263264,
          "velocity": 0.7874015748031497
        },
        {
          "duration": 0.6729326000000242,
          "durationTicks": 179,
          "midi": 52,
          "name": "E3",
          "ticks": 70740,
          "time": 265.939956,
          "velocity": 0.7874015748031497
        },
        {
          "duration": 0.6729326000000242,
          "durationTicks": 179,
          "midi": 45,
          "name": "A2",
          "ticks": 70740,
          "time": 265.939956,
          "velocity": 0.7874015748031497
        },
        {
          "duration": 0.44736860000000434,
          "durationTicks": 119,
          "midi": 62,
          "name": "D4",
          "ticks": 70920,
          "time": 266.616648,
          "velocity": 0.7874015748031497
        },
        {
          "duration": 0.44736860000000434,
          "durationTicks": 119,
          "midi": 57,
          "name": "A3",
          "ticks": 70920,
          "time": 266.616648,
          "velocity": 0.7874015748031497
        },
        {
          "duration": 0.44736860000000434,
          "durationTicks": 119,
          "midi": 50,
          "name": "D3",
          "ticks": 70920,
          "time": 266.616648,
          "velocity": 0.7874015748031497
        },
        {
          "duration": 0.22180459999998448,
          "durationTicks": 59,
          "midi": 45,
          "name": "A2",
          "ticks": 70980,
          "time": 266.842212,
          "velocity": 0.7874015748031497
        },
        {
          "duration": 0.6729326000000242,
          "durationTicks": 179,
          "midi": 45,
          "name": "A2",
          "ticks": 71040,
          "time": 267.067776,
          "velocity": 0.7874015748031497
        },
        {
          "duration": 0.6729326000000242,
          "durationTicks": 179,
          "midi": 52,
          "name": "E3",
          "ticks": 71040,
          "time": 267.067776,
          "velocity": 0.7874015748031497
        },
        {
          "duration": 1.124060600000007,
          "durationTicks": 299,
          "midi": 47,
          "name": "B2",
          "ticks": 71220,
          "time": 267.744468,
          "velocity": 0.7874015748031497
        },
        {
          "duration": 1.124060600000007,
          "durationTicks": 299,
          "midi": 40,
          "name": "E2",
          "ticks": 71220,
          "time": 267.744468,
          "velocity": 0.7874015748031497
        },
        {
          "duration": 0.6729325999999674,
          "durationTicks": 179,
          "midi": 54,
          "name": "F#3",
          "ticks": 71520,
          "time": 268.872288,
          "velocity": 0.7874015748031497
        },
        {
          "duration": 0.6729325999999674,
          "durationTicks": 179,
          "midi": 47,
          "name": "B2",
          "ticks": 71520,
          "time": 268.872288,
          "velocity": 0.7874015748031497
        },
        {
          "duration": 0.6729326000000242,
          "durationTicks": 179,
          "midi": 52,
          "name": "E3",
          "ticks": 71700,
          "time": 269.54898,
          "velocity": 0.7874015748031497
        },
        {
          "duration": 0.6729326000000242,
          "durationTicks": 179,
          "midi": 45,
          "name": "A2",
          "ticks": 71700,
          "time": 269.54898,
          "velocity": 0.7874015748031497
        },
        {
          "duration": 0.44736860000000434,
          "durationTicks": 119,
          "midi": 62,
          "name": "D4",
          "ticks": 71880,
          "time": 270.225672,
          "velocity": 0.7874015748031497
        },
        {
          "duration": 0.44736860000000434,
          "durationTicks": 119,
          "midi": 57,
          "name": "A3",
          "ticks": 71880,
          "time": 270.225672,
          "velocity": 0.7874015748031497
        },
        {
          "duration": 0.44736860000000434,
          "durationTicks": 119,
          "midi": 50,
          "name": "D3",
          "ticks": 71880,
          "time": 270.225672,
          "velocity": 0.7874015748031497
        },
        {
          "duration": 0.22180459999998448,
          "durationTicks": 59,
          "midi": 45,
          "name": "A2",
          "ticks": 71940,
          "time": 270.451236,
          "velocity": 0.7874015748031497
        },
        {
          "duration": 0.6729325999999674,
          "durationTicks": 179,
          "midi": 45,
          "name": "A2",
          "ticks": 72000,
          "time": 270.6768,
          "velocity": 0.7874015748031497
        },
        {
          "duration": 0.6729325999999674,
          "durationTicks": 179,
          "midi": 52,
          "name": "E3",
          "ticks": 72000,
          "time": 270.6768,
          "velocity": 0.7874015748031497
        },
        {
          "duration": 1.1240605999999502,
          "durationTicks": 299,
          "midi": 47,
          "name": "B2",
          "ticks": 72180,
          "time": 271.353492,
          "velocity": 0.7874015748031497
        },
        {
          "duration": 1.1240605999999502,
          "durationTicks": 299,
          "midi": 40,
          "name": "E2",
          "ticks": 72180,
          "time": 271.353492,
          "velocity": 0.7874015748031497
        },
        {
          "duration": 0.6729325999999674,
          "durationTicks": 179,
          "midi": 54,
          "name": "F#3",
          "ticks": 72480,
          "time": 272.481312,
          "velocity": 0.7874015748031497
        },
        {
          "duration": 0.6729325999999674,
          "durationTicks": 179,
          "midi": 47,
          "name": "B2",
          "ticks": 72480,
          "time": 272.481312,
          "velocity": 0.7874015748031497
        },
        {
          "duration": 0.6729325999999674,
          "durationTicks": 179,
          "midi": 52,
          "name": "E3",
          "ticks": 72660,
          "time": 273.158004,
          "velocity": 0.7874015748031497
        },
        {
          "duration": 0.6729325999999674,
          "durationTicks": 179,
          "midi": 45,
          "name": "A2",
          "ticks": 72660,
          "time": 273.158004,
          "velocity": 0.7874015748031497
        },
        {
          "duration": 0.44736860000000434,
          "durationTicks": 119,
          "midi": 62,
          "name": "D4",
          "ticks": 72840,
          "time": 273.834696,
          "velocity": 0.7874015748031497
        },
        {
          "duration": 0.44736860000000434,
          "durationTicks": 119,
          "midi": 57,
          "name": "A3",
          "ticks": 72840,
          "time": 273.834696,
          "velocity": 0.7874015748031497
        },
        {
          "duration": 0.44736860000000434,
          "durationTicks": 119,
          "midi": 50,
          "name": "D3",
          "ticks": 72840,
          "time": 273.834696,
          "velocity": 0.7874015748031497
        },
        {
          "duration": 0.22180460000004132,
          "durationTicks": 59,
          "midi": 45,
          "name": "A2",
          "ticks": 72900,
          "time": 274.06025999999997,
          "velocity": 0.7874015748031497
        },
        {
          "duration": 0.6729326000000242,
          "durationTicks": 179,
          "midi": 45,
          "name": "A2",
          "ticks": 72960,
          "time": 274.285824,
          "velocity": 0.7874015748031497
        },
        {
          "duration": 0.6729326000000242,
          "durationTicks": 179,
          "midi": 52,
          "name": "E3",
          "ticks": 72960,
          "time": 274.285824,
          "velocity": 0.7874015748031497
        },
        {
          "duration": 1.124060600000007,
          "durationTicks": 299,
          "midi": 47,
          "name": "B2",
          "ticks": 73140,
          "time": 274.962516,
          "velocity": 0.7874015748031497
        },
        {
          "duration": 1.124060600000007,
          "durationTicks": 299,
          "midi": 40,
          "name": "E2",
          "ticks": 73140,
          "time": 274.962516,
          "velocity": 0.7874015748031497
        },
        {
          "duration": 0.6729326000000242,
          "durationTicks": 179,
          "midi": 54,
          "name": "F#3",
          "ticks": 73440,
          "time": 276.090336,
          "velocity": 0.7874015748031497
        },
        {
          "duration": 0.6729326000000242,
          "durationTicks": 179,
          "midi": 47,
          "name": "B2",
          "ticks": 73440,
          "time": 276.090336,
          "velocity": 0.7874015748031497
        },
        {
          "duration": 0.6729326000000242,
          "durationTicks": 179,
          "midi": 52,
          "name": "E3",
          "ticks": 73620,
          "time": 276.767028,
          "velocity": 0.7874015748031497
        },
        {
          "duration": 0.6729326000000242,
          "durationTicks": 179,
          "midi": 45,
          "name": "A2",
          "ticks": 73620,
          "time": 276.767028,
          "velocity": 0.7874015748031497
        },
        {
          "duration": 0.44736860000000434,
          "durationTicks": 119,
          "midi": 62,
          "name": "D4",
          "ticks": 73800,
          "time": 277.44372,
          "velocity": 0.7874015748031497
        },
        {
          "duration": 0.44736860000000434,
          "durationTicks": 119,
          "midi": 57,
          "name": "A3",
          "ticks": 73800,
          "time": 277.44372,
          "velocity": 0.7874015748031497
        },
        {
          "duration": 0.44736860000000434,
          "durationTicks": 119,
          "midi": 50,
          "name": "D3",
          "ticks": 73800,
          "time": 277.44372,
          "velocity": 0.7874015748031497
        },
        {
          "duration": 0.22180459999998448,
          "durationTicks": 59,
          "midi": 45,
          "name": "A2",
          "ticks": 73860,
          "time": 277.669284,
          "velocity": 0.7874015748031497
        },
        {
          "duration": 0.6729325999999674,
          "durationTicks": 179,
          "midi": 45,
          "name": "A2",
          "ticks": 73920,
          "time": 277.894848,
          "velocity": 0.7874015748031497
        },
        {
          "duration": 0.6729325999999674,
          "durationTicks": 179,
          "midi": 52,
          "name": "E3",
          "ticks": 73920,
          "time": 277.894848,
          "velocity": 0.7874015748031497
        },
        {
          "duration": 1.1240605999999502,
          "durationTicks": 299,
          "midi": 47,
          "name": "B2",
          "ticks": 74100,
          "time": 278.57154,
          "velocity": 0.7874015748031497
        },
        {
          "duration": 1.1240605999999502,
          "durationTicks": 299,
          "midi": 40,
          "name": "E2",
          "ticks": 74100,
          "time": 278.57154,
          "velocity": 0.7874015748031497
        },
        {
          "duration": 0.6729325999999674,
          "durationTicks": 179,
          "midi": 54,
          "name": "F#3",
          "ticks": 74400,
          "time": 279.69936,
          "velocity": 0.7874015748031497
        },
        {
          "duration": 0.6729325999999674,
          "durationTicks": 179,
          "midi": 47,
          "name": "B2",
          "ticks": 74400,
          "time": 279.69936,
          "velocity": 0.7874015748031497
        },
        {
          "duration": 0.6729325999999674,
          "durationTicks": 179,
          "midi": 52,
          "name": "E3",
          "ticks": 74580,
          "time": 280.376052,
          "velocity": 0.7874015748031497
        },
        {
          "duration": 0.6729325999999674,
          "durationTicks": 179,
          "midi": 45,
          "name": "A2",
          "ticks": 74580,
          "time": 280.376052,
          "velocity": 0.7874015748031497
        },
        {
          "duration": 0.44736860000000434,
          "durationTicks": 119,
          "midi": 62,
          "name": "D4",
          "ticks": 74760,
          "time": 281.052744,
          "velocity": 0.7874015748031497
        },
        {
          "duration": 0.44736860000000434,
          "durationTicks": 119,
          "midi": 57,
          "name": "A3",
          "ticks": 74760,
          "time": 281.052744,
          "velocity": 0.7874015748031497
        },
        {
          "duration": 0.44736860000000434,
          "durationTicks": 119,
          "midi": 50,
          "name": "D3",
          "ticks": 74760,
          "time": 281.052744,
          "velocity": 0.7874015748031497
        },
        {
          "duration": 0.22180460000004132,
          "durationTicks": 59,
          "midi": 45,
          "name": "A2",
          "ticks": 74820,
          "time": 281.278308,
          "velocity": 0.7874015748031497
        },
        {
          "duration": 0.6729325999999674,
          "durationTicks": 179,
          "midi": 45,
          "name": "A2",
          "ticks": 74880,
          "time": 281.503872,
          "velocity": 0.7874015748031497
        },
        {
          "duration": 0.6729325999999674,
          "durationTicks": 179,
          "midi": 52,
          "name": "E3",
          "ticks": 74880,
          "time": 281.503872,
          "velocity": 0.7874015748031497
        },
        {
          "duration": 1.124060600000007,
          "durationTicks": 299,
          "midi": 47,
          "name": "B2",
          "ticks": 75060,
          "time": 282.180564,
          "velocity": 0.7874015748031497
        },
        {
          "duration": 1.124060600000007,
          "durationTicks": 299,
          "midi": 40,
          "name": "E2",
          "ticks": 75060,
          "time": 282.180564,
          "velocity": 0.7874015748031497
        },
        {
          "duration": 0.6729326000000242,
          "durationTicks": 179,
          "midi": 54,
          "name": "F#3",
          "ticks": 75360,
          "time": 283.308384,
          "velocity": 0.7874015748031497
        },
        {
          "duration": 0.6729326000000242,
          "durationTicks": 179,
          "midi": 47,
          "name": "B2",
          "ticks": 75360,
          "time": 283.308384,
          "velocity": 0.7874015748031497
        },
        {
          "duration": 0.6729326000000242,
          "durationTicks": 179,
          "midi": 52,
          "name": "E3",
          "ticks": 75540,
          "time": 283.985076,
          "velocity": 0.7874015748031497
        },
        {
          "duration": 0.6729326000000242,
          "durationTicks": 179,
          "midi": 45,
          "name": "A2",
          "ticks": 75540,
          "time": 283.985076,
          "velocity": 0.7874015748031497
        },
        {
          "duration": 0.44736860000000434,
          "durationTicks": 119,
          "midi": 62,
          "name": "D4",
          "ticks": 75720,
          "time": 284.661768,
          "velocity": 0.7874015748031497
        },
        {
          "duration": 0.44736860000000434,
          "durationTicks": 119,
          "midi": 57,
          "name": "A3",
          "ticks": 75720,
          "time": 284.661768,
          "velocity": 0.7874015748031497
        },
        {
          "duration": 0.44736860000000434,
          "durationTicks": 119,
          "midi": 50,
          "name": "D3",
          "ticks": 75720,
          "time": 284.661768,
          "velocity": 0.7874015748031497
        },
        {
          "duration": 0.22180459999998448,
          "durationTicks": 59,
          "midi": 45,
          "name": "A2",
          "ticks": 75780,
          "time": 284.887332,
          "velocity": 0.7874015748031497
        },
        {
          "duration": 0.6729325999999674,
          "durationTicks": 179,
          "midi": 45,
          "name": "A2",
          "ticks": 75840,
          "time": 285.11289600000003,
          "velocity": 0.7874015748031497
        },
        {
          "duration": 0.6729325999999674,
          "durationTicks": 179,
          "midi": 52,
          "name": "E3",
          "ticks": 75840,
          "time": 285.11289600000003,
          "velocity": 0.7874015748031497
        },
        {
          "duration": 1.124060600000007,
          "durationTicks": 299,
          "midi": 47,
          "name": "B2",
          "ticks": 76020,
          "time": 285.789588,
          "velocity": 0.7874015748031497
        },
        {
          "duration": 1.124060600000007,
          "durationTicks": 299,
          "midi": 40,
          "name": "E2",
          "ticks": 76020,
          "time": 285.789588,
          "velocity": 0.7874015748031497
        },
        {
          "duration": 0.6729325999999674,
          "durationTicks": 179,
          "midi": 54,
          "name": "F#3",
          "ticks": 76320,
          "time": 286.917408,
          "velocity": 0.7874015748031497
        },
        {
          "duration": 0.6729325999999674,
          "durationTicks": 179,
          "midi": 47,
          "name": "B2",
          "ticks": 76320,
          "time": 286.917408,
          "velocity": 0.7874015748031497
        },
        {
          "duration": 0.6729325999999674,
          "durationTicks": 179,
          "midi": 52,
          "name": "E3",
          "ticks": 76500,
          "time": 287.5941,
          "velocity": 0.7874015748031497
        },
        {
          "duration": 0.6729325999999674,
          "durationTicks": 179,
          "midi": 45,
          "name": "A2",
          "ticks": 76500,
          "time": 287.5941,
          "velocity": 0.7874015748031497
        },
        {
          "duration": 0.44736860000000434,
          "durationTicks": 119,
          "midi": 62,
          "name": "D4",
          "ticks": 76680,
          "time": 288.27079200000003,
          "velocity": 0.7874015748031497
        },
        {
          "duration": 0.44736860000000434,
          "durationTicks": 119,
          "midi": 57,
          "name": "A3",
          "ticks": 76680,
          "time": 288.27079200000003,
          "velocity": 0.7874015748031497
        },
        {
          "duration": 0.44736860000000434,
          "durationTicks": 119,
          "midi": 50,
          "name": "D3",
          "ticks": 76680,
          "time": 288.27079200000003,
          "velocity": 0.7874015748031497
        },
        {
          "duration": 0.22180460000004132,
          "durationTicks": 59,
          "midi": 45,
          "name": "A2",
          "ticks": 76740,
          "time": 288.496356,
          "velocity": 0.7874015748031497
        },
        {
          "duration": 0.6729326000000242,
          "durationTicks": 179,
          "midi": 45,
          "name": "A2",
          "ticks": 76800,
          "time": 288.72192,
          "velocity": 0.7874015748031497
        },
        {
          "duration": 0.6729326000000242,
          "durationTicks": 179,
          "midi": 52,
          "name": "E3",
          "ticks": 76800,
          "time": 288.72192,
          "velocity": 0.7874015748031497
        },
        {
          "duration": 1.124060600000007,
          "durationTicks": 299,
          "midi": 47,
          "name": "B2",
          "ticks": 76980,
          "time": 289.398612,
          "velocity": 0.7874015748031497
        },
        {
          "duration": 1.124060600000007,
          "durationTicks": 299,
          "midi": 40,
          "name": "E2",
          "ticks": 76980,
          "time": 289.398612,
          "velocity": 0.7874015748031497
        },
        {
          "duration": 3.8983749583333065,
          "durationTicks": 959,
          "midi": 59,
          "name": "B3",
          "ticks": 77280,
          "time": 290.526432,
          "velocity": 0.7874015748031497
        },
        {
          "duration": 3.8983749583333065,
          "durationTicks": 959,
          "midi": 54,
          "name": "F#3",
          "ticks": 77280,
          "time": 290.526432,
          "velocity": 0.7874015748031497
        },
        {
          "duration": 3.8983749583333065,
          "durationTicks": 959,
          "midi": 47,
          "name": "B2",
          "ticks": 77280,
          "time": 290.526432,
          "velocity": 0.7874015748031497
        },
        {
          "duration": 4.903401666666753,
          "durationTicks": 959,
          "midi": 59,
          "name": "B3",
          "ticks": 78240,
          "time": 294.428872,
          "velocity": 0.7874015748031497
        },
        {
          "duration": 4.903401666666753,
          "durationTicks": 959,
          "midi": 54,
          "name": "F#3",
          "ticks": 78240,
          "time": 294.428872,
          "velocity": 0.7874015748031497
        },
        {
          "duration": 4.903401666666753,
          "durationTicks": 959,
          "midi": 47,
          "name": "B2",
          "ticks": 78240,
          "time": 294.428872,
          "velocity": 0.7874015748031497
        },
        {
          "duration": 0.3025472500000319,
          "durationTicks": 59,
          "midi": 59,
          "name": "B3",
          "ticks": 79200,
          "time": 299.3422736666668,
          "velocity": 0.7874015748031497
        },
        {
          "duration": 0.3025472500000319,
          "durationTicks": 59,
          "midi": 54,
          "name": "F#3",
          "ticks": 79200,
          "time": 299.3422736666668,
          "velocity": 0.7874015748031497
        },
        {
          "duration": 0.3025472500000319,
          "durationTicks": 59,
          "midi": 47,
          "name": "B2",
          "ticks": 79200,
          "time": 299.3422736666668,
          "velocity": 0.7874015748031497
        }
      ],
      "endOfTrackTicks": 79259
    },
    {
      "channel": 3,
      "controlChanges": {
        "1": [
          {
            "number": 1,
            "ticks": 56221,
            "time": 211.35722739999997,
            "value": 0.9921259842519685
          },
          {
            "number": 1,
            "ticks": 56222,
            "time": 211.36098679999998,
            "value": 1
          },
          {
            "number": 1,
            "ticks": 56280,
            "time": 211.57903199999998,
            "value": 0
          },
          {
            "number": 1,
            "ticks": 56820,
            "time": 213.609108,
            "value": 0
          },
          {
            "number": 1,
            "ticks": 56822,
            "time": 213.61662679999998,
            "value": 0
          },
          {
            "number": 1,
            "ticks": 56823,
            "time": 213.62038619999998,
            "value": 0
          },
          {
            "number": 1,
            "ticks": 56825,
            "time": 213.627905,
            "value": 0
          },
          {
            "number": 1,
            "ticks": 56827,
            "time": 213.63542379999998,
            "value": 0
          },
          {
            "number": 1,
            "ticks": 56828,
            "time": 213.6391832,
            "value": 0
          },
          {
            "number": 1,
            "ticks": 56830,
            "time": 213.64670199999998,
            "value": 0.007874015748031496
          },
          {
            "number": 1,
            "ticks": 56831,
            "time": 213.65046139999998,
            "value": 0.015748031496062992
          },
          {
            "number": 1,
            "ticks": 56833,
            "time": 213.6579802,
            "value": 0.023622047244094488
          },
          {
            "number": 1,
            "ticks": 56835,
            "time": 213.66549899999998,
            "value": 0.031496062992125984
          },
          {
            "number": 1,
            "ticks": 56836,
            "time": 213.6692584,
            "value": 0.03937007874015748
          },
          {
            "number": 1,
            "ticks": 56837,
            "time": 213.67301779999997,
            "value": 0.047244094488188976
          },
          {
            "number": 1,
            "ticks": 56840,
            "time": 213.684296,
            "value": 0.05511811023622047
          },
          {
            "number": 1,
            "ticks": 56841,
            "time": 213.6880554,
            "value": 0.06299212598425197
          },
          {
            "number": 1,
            "ticks": 56842,
            "time": 213.6918148,
            "value": 0.07086614173228346
          },
          {
            "number": 1,
            "ticks": 56845,
            "time": 213.70309299999997,
            "value": 0.07874015748031496
          },
          {
            "number": 1,
            "ticks": 56846,
            "time": 213.70685239999997,
            "value": 0.08661417322834646
          },
          {
            "number": 1,
            "ticks": 56847,
            "time": 213.7106118,
            "value": 0.09448818897637795
          },
          {
            "number": 1,
            "ticks": 56848,
            "time": 213.7143712,
            "value": 0.10236220472440945
          },
          {
            "number": 1,
            "ticks": 56851,
            "time": 213.72564939999998,
            "value": 0.11023622047244094
          },
          {
            "number": 1,
            "ticks": 56852,
            "time": 213.7294088,
            "value": 0.11811023622047244
          },
          {
            "number": 1,
            "ticks": 56853,
            "time": 213.73316819999997,
            "value": 0.12598425196850394
          },
          {
            "number": 1,
            "ticks": 56855,
            "time": 213.740687,
            "value": 0.13385826771653545
          },
          {
            "number": 1,
            "ticks": 56857,
            "time": 213.7482058,
            "value": 0.14173228346456693
          },
          {
            "number": 1,
            "ticks": 56858,
            "time": 213.75196519999997,
            "value": 0.14960629921259844
          },
          {
            "number": 1,
            "ticks": 56860,
            "time": 213.759484,
            "value": 0.15748031496062992
          },
          {
            "number": 1,
            "ticks": 56862,
            "time": 213.7670028,
            "value": 0.16535433070866143
          },
          {
            "number": 1,
            "ticks": 56863,
            "time": 213.7707622,
            "value": 0.1732283464566929
          },
          {
            "number": 1,
            "ticks": 56865,
            "time": 213.778281,
            "value": 0.18110236220472442
          },
          {
            "number": 1,
            "ticks": 56866,
            "time": 213.78204039999997,
            "value": 0.1889763779527559
          },
          {
            "number": 1,
            "ticks": 56868,
            "time": 213.78955919999999,
            "value": 0.1968503937007874
          },
          {
            "number": 1,
            "ticks": 56870,
            "time": 213.797078,
            "value": 0.2047244094488189
          },
          {
            "number": 1,
            "ticks": 56871,
            "time": 213.8008374,
            "value": 0.2125984251968504
          },
          {
            "number": 1,
            "ticks": 56872,
            "time": 213.80459679999998,
            "value": 0.2204724409448819
          },
          {
            "number": 1,
            "ticks": 56875,
            "time": 213.81587499999998,
            "value": 0.2283464566929134
          },
          {
            "number": 1,
            "ticks": 56876,
            "time": 213.81963439999998,
            "value": 0.23622047244094488
          },
          {
            "number": 1,
            "ticks": 56877,
            "time": 213.8233938,
            "value": 0.2440944881889764
          },
          {
            "number": 1,
            "ticks": 56880,
            "time": 213.83467199999998,
            "value": 0.25196850393700787
          },
          {
            "number": 1,
            "ticks": 56881,
            "time": 213.8384314,
            "value": 0.25984251968503935
          },
          {
            "number": 1,
            "ticks": 56882,
            "time": 213.84219079999997,
            "value": 0.2677165354330709
          },
          {
            "number": 1,
            "ticks": 56883,
            "time": 213.84595019999998,
            "value": 0.2755905511811024
          },
          {
            "number": 1,
            "ticks": 56886,
            "time": 213.8572284,
            "value": 0.28346456692913385
          },
          {
            "number": 1,
            "ticks": 56887,
            "time": 213.86098779999998,
            "value": 0.29133858267716534
          },
          {
            "number": 1,
            "ticks": 56888,
            "time": 213.86474719999998,
            "value": 0.2992125984251969
          },
          {
            "number": 1,
            "ticks": 56890,
            "time": 213.87226599999997,
            "value": 0.30708661417322836
          },
          {
            "number": 1,
            "ticks": 56892,
            "time": 213.8797848,
            "value": 0.31496062992125984
          },
          {
            "number": 1,
            "ticks": 56893,
            "time": 213.8835442,
            "value": 0.3228346456692913
          },
          {
            "number": 1,
            "ticks": 56895,
            "time": 213.89106299999997,
            "value": 0.33070866141732286
          },
          {
            "number": 1,
            "ticks": 56897,
            "time": 213.8985818,
            "value": 0.33858267716535434
          },
          {
            "number": 1,
            "ticks": 56898,
            "time": 213.90234119999997,
            "value": 0.3464566929133858
          },
          {
            "number": 1,
            "ticks": 56900,
            "time": 213.90986,
            "value": 0.3543307086614173
          },
          {
            "number": 1,
            "ticks": 56901,
            "time": 213.9136194,
            "value": 0.36220472440944884
          },
          {
            "number": 1,
            "ticks": 56903,
            "time": 213.92113819999997,
            "value": 0.3700787401574803
          },
          {
            "number": 1,
            "ticks": 56905,
            "time": 213.928657,
            "value": 0.3779527559055118
          },
          {
            "number": 1,
            "ticks": 56906,
            "time": 213.93241639999997,
            "value": 0.3858267716535433
          },
          {
            "number": 1,
            "ticks": 56907,
            "time": 213.9361758,
            "value": 0.3937007874015748
          },
          {
            "number": 1,
            "ticks": 56910,
            "time": 213.947454,
            "value": 0.4015748031496063
          },
          {
            "number": 1,
            "ticks": 56911,
            "time": 213.95121339999997,
            "value": 0.4094488188976378
          },
          {
            "number": 1,
            "ticks": 56912,
            "time": 213.95497279999998,
            "value": 0.41732283464566927
          },
          {
            "number": 1,
            "ticks": 56915,
            "time": 213.966251,
            "value": 0.4251968503937008
          },
          {
            "number": 1,
            "ticks": 56916,
            "time": 213.9700104,
            "value": 0.4330708661417323
          },
          {
            "number": 1,
            "ticks": 56917,
            "time": 213.97376979999999,
            "value": 0.4409448818897638
          },
          {
            "number": 1,
            "ticks": 56918,
            "time": 213.9775292,
            "value": 0.44881889763779526
          },
          {
            "number": 1,
            "ticks": 56921,
            "time": 213.98880739999998,
            "value": 0.4566929133858268
          },
          {
            "number": 1,
            "ticks": 56922,
            "time": 213.9925668,
            "value": 0.4645669291338583
          },
          {
            "number": 1,
            "ticks": 56923,
            "time": 213.9963262,
            "value": 0.47244094488188976
          },
          {
            "number": 1,
            "ticks": 56925,
            "time": 214.00384499999998,
            "value": 0.48031496062992124
          },
          {
            "number": 1,
            "ticks": 56927,
            "time": 214.01136379999997,
            "value": 0.4881889763779528
          },
          {
            "number": 1,
            "ticks": 56928,
            "time": 214.01512319999998,
            "value": 0.49606299212598426
          },
          {
            "number": 1,
            "ticks": 56930,
            "time": 214.022642,
            "value": 0.5039370078740157
          },
          {
            "number": 1,
            "ticks": 56932,
            "time": 214.03016079999998,
            "value": 0.5118110236220472
          },
          {
            "number": 1,
            "ticks": 56933,
            "time": 214.03392019999998,
            "value": 0.5196850393700787
          },
          {
            "number": 1,
            "ticks": 56935,
            "time": 214.04143899999997,
            "value": 0.5275590551181102
          },
          {
            "number": 1,
            "ticks": 56936,
            "time": 214.04519839999998,
            "value": 0.5354330708661418
          },
          {
            "number": 1,
            "ticks": 56938,
            "time": 214.0527172,
            "value": 0.5433070866141733
          },
          {
            "number": 1,
            "ticks": 56940,
            "time": 214.06023599999997,
            "value": 0.5511811023622047
          },
          {
            "number": 1,
            "ticks": 56941,
            "time": 214.06399539999998,
            "value": 0.5590551181102362
          },
          {
            "number": 1,
            "ticks": 56942,
            "time": 214.0677548,
            "value": 0.5669291338582677
          },
          {
            "number": 1,
            "ticks": 56945,
            "time": 214.079033,
            "value": 0.5748031496062992
          },
          {
            "number": 1,
            "ticks": 56946,
            "time": 214.0827924,
            "value": 0.5826771653543307
          },
          {
            "number": 1,
            "ticks": 56947,
            "time": 214.0865518,
            "value": 0.5905511811023622
          },
          {
            "number": 1,
            "ticks": 56950,
            "time": 214.09783,
            "value": 0.5984251968503937
          },
          {
            "number": 1,
            "ticks": 56951,
            "time": 214.10158939999997,
            "value": 0.6062992125984252
          },
          {
            "number": 1,
            "ticks": 56952,
            "time": 214.1053488,
            "value": 0.6141732283464567
          },
          {
            "number": 1,
            "ticks": 56953,
            "time": 214.10910819999998,
            "value": 0.6220472440944882
          },
          {
            "number": 1,
            "ticks": 56956,
            "time": 214.12038639999997,
            "value": 0.6299212598425197
          },
          {
            "number": 1,
            "ticks": 56957,
            "time": 214.12414579999998,
            "value": 0.6377952755905512
          },
          {
            "number": 1,
            "ticks": 56958,
            "time": 214.1279052,
            "value": 0.6456692913385826
          },
          {
            "number": 1,
            "ticks": 56960,
            "time": 214.135424,
            "value": 0.6535433070866141
          },
          {
            "number": 1,
            "ticks": 56962,
            "time": 214.1429428,
            "value": 0.6614173228346457
          },
          {
            "number": 1,
            "ticks": 56963,
            "time": 214.1467022,
            "value": 0.6692913385826772
          },
          {
            "number": 1,
            "ticks": 56965,
            "time": 214.15422099999998,
            "value": 0.6771653543307087
          },
          {
            "number": 1,
            "ticks": 56967,
            "time": 214.1617398,
            "value": 0.6850393700787402
          },
          {
            "number": 1,
            "ticks": 56968,
            "time": 214.1654992,
            "value": 0.6929133858267716
          },
          {
            "number": 1,
            "ticks": 56970,
            "time": 214.17301799999998,
            "value": 0.7007874015748031
          },
          {
            "number": 1,
            "ticks": 56971,
            "time": 214.1767774,
            "value": 0.7086614173228346
          },
          {
            "number": 1,
            "ticks": 56973,
            "time": 214.18429619999998,
            "value": 0.7165354330708661
          },
          {
            "number": 1,
            "ticks": 56975,
            "time": 214.191815,
            "value": 0.7244094488188977
          },
          {
            "number": 1,
            "ticks": 56976,
            "time": 214.1955744,
            "value": 0.7322834645669292
          },
          {
            "number": 1,
            "ticks": 56977,
            "time": 214.19933379999998,
            "value": 0.7401574803149606
          },
          {
            "number": 1,
            "ticks": 56980,
            "time": 214.21061199999997,
            "value": 0.7480314960629921
          },
          {
            "number": 1,
            "ticks": 56981,
            "time": 214.21437139999998,
            "value": 0.7559055118110236
          },
          {
            "number": 1,
            "ticks": 56982,
            "time": 214.2181308,
            "value": 0.7637795275590551
          },
          {
            "number": 1,
            "ticks": 56985,
            "time": 214.22940899999998,
            "value": 0.7716535433070866
          },
          {
            "number": 1,
            "ticks": 56986,
            "time": 214.23316839999998,
            "value": 0.7795275590551181
          },
          {
            "number": 1,
            "ticks": 56987,
            "time": 214.2369278,
            "value": 0.7874015748031497
          },
          {
            "number": 1,
            "ticks": 56988,
            "time": 214.24068719999997,
            "value": 0.7952755905511811
          },
          {
            "number": 1,
            "ticks": 56991,
            "time": 214.2519654,
            "value": 0.8031496062992126
          },
          {
            "number": 1,
            "ticks": 56992,
            "time": 214.2557248,
            "value": 0.8110236220472441
          },
          {
            "number": 1,
            "ticks": 56993,
            "time": 214.25948419999997,
            "value": 0.8188976377952756
          },
          {
            "number": 1,
            "ticks": 56995,
            "time": 214.267003,
            "value": 0.8267716535433071
          },
          {
            "number": 1,
            "ticks": 56997,
            "time": 214.2745218,
            "value": 0.8346456692913385
          },
          {
            "number": 1,
            "ticks": 56998,
            "time": 214.27828119999998,
            "value": 0.84251968503937
          },
          {
            "number": 1,
            "ticks": 57000,
            "time": 214.2858,
            "value": 0.8503937007874016
          },
          {
            "number": 1,
            "ticks": 57002,
            "time": 214.29331879999998,
            "value": 0.8582677165354331
          },
          {
            "number": 1,
            "ticks": 57003,
            "time": 214.2970782,
            "value": 0.8661417322834646
          },
          {
            "number": 1,
            "ticks": 57005,
            "time": 214.304597,
            "value": 0.8740157480314961
          },
          {
            "number": 1,
            "ticks": 57006,
            "time": 214.30835639999998,
            "value": 0.8818897637795275
          },
          {
            "number": 1,
            "ticks": 57008,
            "time": 214.3158752,
            "value": 0.889763779527559
          },
          {
            "number": 1,
            "ticks": 57010,
            "time": 214.32339399999998,
            "value": 0.8976377952755905
          },
          {
            "number": 1,
            "ticks": 57011,
            "time": 214.3271534,
            "value": 0.905511811023622
          },
          {
            "number": 1,
            "ticks": 57012,
            "time": 214.3309128,
            "value": 0.9133858267716536
          },
          {
            "number": 1,
            "ticks": 57015,
            "time": 214.34219099999999,
            "value": 0.9212598425196851
          },
          {
            "number": 1,
            "ticks": 57016,
            "time": 214.3459504,
            "value": 0.9291338582677166
          },
          {
            "number": 1,
            "ticks": 57017,
            "time": 214.34970979999997,
            "value": 0.937007874015748
          },
          {
            "number": 1,
            "ticks": 57020,
            "time": 214.360988,
            "value": 0.9448818897637795
          },
          {
            "number": 1,
            "ticks": 57021,
            "time": 214.3647474,
            "value": 0.952755905511811
          },
          {
            "number": 1,
            "ticks": 57022,
            "time": 214.36850679999998,
            "value": 0.9606299212598425
          },
          {
            "number": 1,
            "ticks": 57023,
            "time": 214.37226619999998,
            "value": 0.968503937007874
          },
          {
            "number": 1,
            "ticks": 57026,
            "time": 214.38354439999998,
            "value": 0.9763779527559056
          },
          {
            "number": 1,
            "ticks": 57027,
            "time": 214.38730379999998,
            "value": 0.984251968503937
          },
          {
            "number": 1,
            "ticks": 57028,
            "time": 214.3910632,
            "value": 0.9921259842519685
          },
          {
            "number": 1,
            "ticks": 57030,
            "time": 214.39858199999998,
            "value": 1
          },
          {
            "number": 1,
            "ticks": 57031,
            "time": 214.40234139999998,
            "value": 0
          }
        ],
        "7": [
          {
            "number": 7,
            "ticks": 0,
            "time": 0,
            "value": 1
          }
        ]
      },
      "pitchBends": [
        {
          "ticks": 53401,
          "time": 200.75571939999998,
          "value": 0
        },
        {
          "ticks": 53404,
          "time": 200.7669976,
          "value": 0.015625
        },
        {
          "ticks": 53405,
          "time": 200.770757,
          "value": 0.03125
        },
        {
          "ticks": 53408,
          "time": 200.7820352,
          "value": 0.046875
        },
        {
          "ticks": 53409,
          "time": 200.78579459999997,
          "value": 0.0625
        },
        {
          "ticks": 53411,
          "time": 200.7933134,
          "value": 0.078125
        },
        {
          "ticks": 53413,
          "time": 200.8008322,
          "value": 0.09375
        },
        {
          "ticks": 53415,
          "time": 200.808351,
          "value": 0.109375
        },
        {
          "ticks": 53416,
          "time": 200.8121104,
          "value": 0.125
        },
        {
          "ticks": 53418,
          "time": 200.81962919999998,
          "value": 0.140625
        },
        {
          "ticks": 53420,
          "time": 200.827148,
          "value": 0.15625
        },
        {
          "ticks": 53421,
          "time": 200.8309074,
          "value": 0.171875
        },
        {
          "ticks": 53424,
          "time": 200.8421856,
          "value": 0.1875
        },
        {
          "ticks": 53425,
          "time": 200.84594499999997,
          "value": 0.203125
        },
        {
          "ticks": 53428,
          "time": 200.8572232,
          "value": 0.21875
        },
        {
          "ticks": 53429,
          "time": 200.8609826,
          "value": 0.234375
        },
        {
          "ticks": 53430,
          "time": 200.86474199999998,
          "value": 0.25
        },
        {
          "ticks": 53433,
          "time": 200.87602019999997,
          "value": 0.265625
        },
        {
          "ticks": 53434,
          "time": 200.8797796,
          "value": 0.28125
        },
        {
          "ticks": 53436,
          "time": 200.8872984,
          "value": 0.296875
        },
        {
          "ticks": 53438,
          "time": 200.89481719999998,
          "value": 0.3125
        },
        {
          "ticks": 53440,
          "time": 200.902336,
          "value": 0.328125
        },
        {
          "ticks": 53441,
          "time": 200.90609539999997,
          "value": 0.34375
        },
        {
          "ticks": 53444,
          "time": 200.9173736,
          "value": 0.359375
        },
        {
          "ticks": 53445,
          "time": 200.921133,
          "value": 0.375
        },
        {
          "ticks": 53446,
          "time": 200.92489239999998,
          "value": 0.390625
        },
        {
          "ticks": 53449,
          "time": 200.9361706,
          "value": 0.40625
        },
        {
          "ticks": 53450,
          "time": 200.93993,
          "value": 0.421875
        },
        {
          "ticks": 53453,
          "time": 200.9512082,
          "value": 0.4375
        },
        {
          "ticks": 53454,
          "time": 200.95496759999997,
          "value": 0.453125
        },
        {
          "ticks": 53456,
          "time": 200.9624864,
          "value": 0.46875
        },
        {
          "ticks": 53458,
          "time": 200.9700052,
          "value": 0.484375
        },
        {
          "ticks": 53459,
          "time": 200.97376459999998,
          "value": 0.5
        },
        {
          "ticks": 53460,
          "time": 200.977524,
          "value": 0
        },
        {
          "ticks": 54120,
          "time": 203.45872799999998,
          "value": 0
        },
        {
          "ticks": 54123,
          "time": 203.47000619999997,
          "value": 0.015625
        },
        {
          "ticks": 54124,
          "time": 203.4737656,
          "value": 0.03125
        },
        {
          "ticks": 54127,
          "time": 203.4850438,
          "value": 0.046875
        },
        {
          "ticks": 54128,
          "time": 203.48880319999998,
          "value": 0.0625
        },
        {
          "ticks": 54130,
          "time": 203.496322,
          "value": 0.078125
        },
        {
          "ticks": 54132,
          "time": 203.5038408,
          "value": 0.09375
        },
        {
          "ticks": 54134,
          "time": 203.5113596,
          "value": 0.109375
        },
        {
          "ticks": 54135,
          "time": 203.515119,
          "value": 0.125
        },
        {
          "ticks": 54138,
          "time": 203.5263972,
          "value": 0.140625
        },
        {
          "ticks": 54139,
          "time": 203.5301566,
          "value": 0.15625
        },
        {
          "ticks": 54142,
          "time": 203.5414348,
          "value": 0.171875
        },
        {
          "ticks": 54143,
          "time": 203.5451942,
          "value": 0.1875
        },
        {
          "ticks": 54145,
          "time": 203.55271299999998,
          "value": 0.203125
        },
        {
          "ticks": 54147,
          "time": 203.5602318,
          "value": 0.21875
        },
        {
          "ticks": 54149,
          "time": 203.56775059999998,
          "value": 0.234375
        },
        {
          "ticks": 54150,
          "time": 203.57151,
          "value": 0.25
        },
        {
          "ticks": 54153,
          "time": 203.58278819999998,
          "value": 0.265625
        },
        {
          "ticks": 54154,
          "time": 203.5865476,
          "value": 0.28125
        },
        {
          "ticks": 54157,
          "time": 203.59782579999998,
          "value": 0.296875
        },
        {
          "ticks": 54158,
          "time": 203.6015852,
          "value": 0.3125
        },
        {
          "ticks": 54160,
          "time": 203.60910399999997,
          "value": 0.328125
        },
        {
          "ticks": 54162,
          "time": 203.6166228,
          "value": 0.34375
        },
        {
          "ticks": 54164,
          "time": 203.6241416,
          "value": 0.359375
        },
        {
          "ticks": 54165,
          "time": 203.62790099999998,
          "value": 0.375
        },
        {
          "ticks": 54168,
          "time": 203.63917919999997,
          "value": 0.390625
        },
        {
          "ticks": 54169,
          "time": 203.6429386,
          "value": 0.40625
        },
        {
          "ticks": 54172,
          "time": 203.6542168,
          "value": 0.421875
        },
        {
          "ticks": 54173,
          "time": 203.65797619999998,
          "value": 0.4375
        },
        {
          "ticks": 54175,
          "time": 203.665495,
          "value": 0.453125
        },
        {
          "ticks": 54177,
          "time": 203.6730138,
          "value": 0.46875
        },
        {
          "ticks": 54179,
          "time": 203.6805326,
          "value": 0.484375
        },
        {
          "ticks": 54180,
          "time": 203.684292,
          "value": 0.5
        },
        {
          "ticks": 54182,
          "time": 203.69181079999998,
          "value": 0.515625
        },
        {
          "ticks": 54184,
          "time": 203.6993296,
          "value": 0.53125
        },
        {
          "ticks": 54185,
          "time": 203.703089,
          "value": 0.546875
        },
        {
          "ticks": 54188,
          "time": 203.7143672,
          "value": 0.5625
        },
        {
          "ticks": 54189,
          "time": 203.71812659999998,
          "value": 0.578125
        },
        {
          "ticks": 54192,
          "time": 203.7294048,
          "value": 0.59375
        },
        {
          "ticks": 54193,
          "time": 203.7331642,
          "value": 0.609375
        },
        {
          "ticks": 54195,
          "time": 203.740683,
          "value": 0.625
        },
        {
          "ticks": 54197,
          "time": 203.74820179999998,
          "value": 0.640625
        },
        {
          "ticks": 54199,
          "time": 203.7557206,
          "value": 0.65625
        },
        {
          "ticks": 54200,
          "time": 203.75948,
          "value": 0.671875
        },
        {
          "ticks": 54203,
          "time": 203.7707582,
          "value": 0.6875
        },
        {
          "ticks": 54204,
          "time": 203.7745176,
          "value": 0.703125
        },
        {
          "ticks": 54207,
          "time": 203.7857958,
          "value": 0.71875
        },
        {
          "ticks": 54208,
          "time": 203.7895552,
          "value": 0.734375
        },
        {
          "ticks": 54210,
          "time": 203.79707399999998,
          "value": 0.75
        },
        {
          "ticks": 54212,
          "time": 203.8045928,
          "value": 0.765625
        },
        {
          "ticks": 54214,
          "time": 203.8121116,
          "value": 0.78125
        },
        {
          "ticks": 54215,
          "time": 203.815871,
          "value": 0.796875
        },
        {
          "ticks": 54218,
          "time": 203.82714919999998,
          "value": 0.8125
        },
        {
          "ticks": 54219,
          "time": 203.8309086,
          "value": 0.828125
        },
        {
          "ticks": 54222,
          "time": 203.8421868,
          "value": 0.84375
        },
        {
          "ticks": 54223,
          "time": 203.8459462,
          "value": 0.859375
        },
        {
          "ticks": 54225,
          "time": 203.853465,
          "value": 0.875
        },
        {
          "ticks": 54227,
          "time": 203.86098379999999,
          "value": 0.890625
        },
        {
          "ticks": 54229,
          "time": 203.8685026,
          "value": 0.90625
        },
        {
          "ticks": 54230,
          "time": 203.872262,
          "value": 0.921875
        },
        {
          "ticks": 54233,
          "time": 203.8835402,
          "value": 0.9375
        },
        {
          "ticks": 54234,
          "time": 203.88729959999998,
          "value": 0.953125
        },
        {
          "ticks": 54237,
          "time": 203.8985778,
          "value": 0.96875
        },
        {
          "ticks": 54238,
          "time": 203.9023372,
          "value": 0.984375
        },
        {
          "ticks": 54239,
          "time": 203.90609659999998,
          "value": 0.9998779296875
        },
        {
          "ticks": 54240,
          "time": 203.909856,
          "value": 0
        },
        {
          "ticks": 54330,
          "time": 204.248202,
          "value": 0
        },
        {
          "ticks": 54331,
          "time": 204.25196139999997,
          "value": 0.03125
        },
        {
          "ticks": 54332,
          "time": 204.25572079999998,
          "value": 0.078125
        },
        {
          "ticks": 54333,
          "time": 204.25948019999998,
          "value": 0.125
        },
        {
          "ticks": 54335,
          "time": 204.266999,
          "value": 0.15625
        },
        {
          "ticks": 54336,
          "time": 204.2707584,
          "value": 0.203125
        },
        {
          "ticks": 54337,
          "time": 204.27451779999998,
          "value": 0.25
        },
        {
          "ticks": 54338,
          "time": 204.2782772,
          "value": 0.28125
        },
        {
          "ticks": 54340,
          "time": 204.28579599999998,
          "value": 0.328125
        },
        {
          "ticks": 54341,
          "time": 204.28955539999998,
          "value": 0.375
        },
        {
          "ticks": 54342,
          "time": 204.2933148,
          "value": 0.40625
        },
        {
          "ticks": 54343,
          "time": 204.2970742,
          "value": 0.453125
        },
        {
          "ticks": 54345,
          "time": 204.30459299999998,
          "value": 0.5
        },
        {
          "ticks": 54346,
          "time": 204.3083524,
          "value": 0.53125
        },
        {
          "ticks": 54347,
          "time": 204.31211179999997,
          "value": 0.578125
        },
        {
          "ticks": 54371,
          "time": 204.40233739999996,
          "value": 0.625
        },
        {
          "ticks": 54372,
          "time": 204.4060968,
          "value": 0.59375
        },
        {
          "ticks": 54373,
          "time": 204.4098562,
          "value": 0.546875
        },
        {
          "ticks": 54375,
          "time": 204.417375,
          "value": 0.5
        },
        {
          "ticks": 54376,
          "time": 204.42113439999997,
          "value": 0.46875
        },
        {
          "ticks": 54377,
          "time": 204.42489379999998,
          "value": 0.421875
        },
        {
          "ticks": 54378,
          "time": 204.42865319999999,
          "value": 0.375
        },
        {
          "ticks": 54380,
          "time": 204.436172,
          "value": 0.34375
        },
        {
          "ticks": 54381,
          "time": 204.4399314,
          "value": 0.296875
        },
        {
          "ticks": 54382,
          "time": 204.44369079999998,
          "value": 0.25
        },
        {
          "ticks": 54383,
          "time": 204.4474502,
          "value": 0.21875
        },
        {
          "ticks": 54385,
          "time": 204.45496899999998,
          "value": 0.171875
        },
        {
          "ticks": 54386,
          "time": 204.45872839999998,
          "value": 0.125
        },
        {
          "ticks": 54387,
          "time": 204.4624878,
          "value": 0.09375
        },
        {
          "ticks": 54388,
          "time": 204.4662472,
          "value": 0.046875
        },
        {
          "ticks": 54390,
          "time": 204.47376599999998,
          "value": 0
        },
        {
          "ticks": 54391,
          "time": 204.4775254,
          "value": -0.234375
        },
        {
          "ticks": 54392,
          "time": 204.48128479999997,
          "value": -0.484375
        },
        {
          "ticks": 54393,
          "time": 204.48504419999998,
          "value": -0.734375
        },
        {
          "ticks": 54395,
          "time": 204.492563,
          "value": -0.984375
        },
        {
          "ticks": 54420,
          "time": 204.586548,
          "value": 0
        },
        {
          "ticks": 55080,
          "time": 207.06775199999998,
          "value": 0
        },
        {
          "ticks": 55083,
          "time": 207.07903019999998,
          "value": 0.015625
        },
        {
          "ticks": 55084,
          "time": 207.0827896,
          "value": 0.03125
        },
        {
          "ticks": 55085,
          "time": 207.086549,
          "value": 0.046875
        },
        {
          "ticks": 55087,
          "time": 207.09406779999998,
          "value": 0.0625
        },
        {
          "ticks": 55088,
          "time": 207.09782719999998,
          "value": 0.078125
        },
        {
          "ticks": 55089,
          "time": 207.1015866,
          "value": 0.09375
        },
        {
          "ticks": 55090,
          "time": 207.10534599999997,
          "value": 0.109375
        },
        {
          "ticks": 55092,
          "time": 207.1128648,
          "value": 0.125
        },
        {
          "ticks": 55093,
          "time": 207.1166242,
          "value": 0.140625
        },
        {
          "ticks": 55094,
          "time": 207.1203836,
          "value": 0.15625
        },
        {
          "ticks": 55095,
          "time": 207.12414299999998,
          "value": 0.171875
        },
        {
          "ticks": 55097,
          "time": 207.1316618,
          "value": 0.1875
        },
        {
          "ticks": 55098,
          "time": 207.13542119999997,
          "value": 0.203125
        },
        {
          "ticks": 55099,
          "time": 207.1391806,
          "value": 0.21875
        },
        {
          "ticks": 55100,
          "time": 207.14294,
          "value": 0.234375
        },
        {
          "ticks": 55102,
          "time": 207.1504588,
          "value": 0.25
        },
        {
          "ticks": 55103,
          "time": 207.15421819999997,
          "value": 0.265625
        },
        {
          "ticks": 55104,
          "time": 207.15797759999998,
          "value": 0.28125
        },
        {
          "ticks": 55105,
          "time": 207.161737,
          "value": 0.296875
        },
        {
          "ticks": 55107,
          "time": 207.1692558,
          "value": 0.3125
        },
        {
          "ticks": 55108,
          "time": 207.17301519999998,
          "value": 0.328125
        },
        {
          "ticks": 55109,
          "time": 207.1767746,
          "value": 0.34375
        },
        {
          "ticks": 55110,
          "time": 207.180534,
          "value": 0.359375
        },
        {
          "ticks": 55112,
          "time": 207.18805279999998,
          "value": 0.375
        },
        {
          "ticks": 55113,
          "time": 207.1918122,
          "value": 0.390625
        },
        {
          "ticks": 55114,
          "time": 207.1955716,
          "value": 0.40625
        },
        {
          "ticks": 55115,
          "time": 207.199331,
          "value": 0.421875
        },
        {
          "ticks": 55117,
          "time": 207.2068498,
          "value": 0.4375
        },
        {
          "ticks": 55118,
          "time": 207.2106092,
          "value": 0.453125
        },
        {
          "ticks": 55119,
          "time": 207.21436859999997,
          "value": 0.46875
        },
        {
          "ticks": 55120,
          "time": 207.21812799999998,
          "value": 0.484375
        },
        {
          "ticks": 55122,
          "time": 207.2256468,
          "value": 0.5
        },
        {
          "ticks": 55124,
          "time": 207.23316559999998,
          "value": 0.515625
        },
        {
          "ticks": 55125,
          "time": 207.23692499999999,
          "value": 0.53125
        },
        {
          "ticks": 55127,
          "time": 207.24444379999997,
          "value": 0.546875
        },
        {
          "ticks": 55128,
          "time": 207.24820319999998,
          "value": 0.5625
        },
        {
          "ticks": 55129,
          "time": 207.2519626,
          "value": 0.578125
        },
        {
          "ticks": 55130,
          "time": 207.255722,
          "value": 0.59375
        },
        {
          "ticks": 55132,
          "time": 207.26324079999998,
          "value": 0.609375
        },
        {
          "ticks": 55133,
          "time": 207.26700019999998,
          "value": 0.625
        },
        {
          "ticks": 55134,
          "time": 207.2707596,
          "value": 0.640625
        },
        {
          "ticks": 55135,
          "time": 207.27451899999997,
          "value": 0.65625
        },
        {
          "ticks": 55137,
          "time": 207.2820378,
          "value": 0.671875
        },
        {
          "ticks": 55138,
          "time": 207.2857972,
          "value": 0.6875
        },
        {
          "ticks": 55139,
          "time": 207.2895566,
          "value": 0.703125
        },
        {
          "ticks": 55140,
          "time": 207.29331599999998,
          "value": 0.71875
        },
        {
          "ticks": 55142,
          "time": 207.3008348,
          "value": 0.734375
        },
        {
          "ticks": 55143,
          "time": 207.30459419999997,
          "value": 0.75
        },
        {
          "ticks": 55144,
          "time": 207.3083536,
          "value": 0.765625
        },
        {
          "ticks": 55145,
          "time": 207.31211299999998,
          "value": 0.78125
        },
        {
          "ticks": 55147,
          "time": 207.3196318,
          "value": 0.796875
        },
        {
          "ticks": 55148,
          "time": 207.32339119999997,
          "value": 0.8125
        },
        {
          "ticks": 55149,
          "time": 207.32715059999998,
          "value": 0.828125
        },
        {
          "ticks": 55150,
          "time": 207.33091,
          "value": 0.84375
        },
        {
          "ticks": 55152,
          "time": 207.3384288,
          "value": 0.859375
        },
        {
          "ticks": 55153,
          "time": 207.34218819999998,
          "value": 0.875
        },
        {
          "ticks": 55154,
          "time": 207.3459476,
          "value": 0.890625
        },
        {
          "ticks": 55155,
          "time": 207.349707,
          "value": 0.90625
        },
        {
          "ticks": 55157,
          "time": 207.35722579999998,
          "value": 0.921875
        },
        {
          "ticks": 55158,
          "time": 207.3609852,
          "value": 0.9375
        },
        {
          "ticks": 55159,
          "time": 207.3647446,
          "value": 0.953125
        },
        {
          "ticks": 55160,
          "time": 207.368504,
          "value": 0.96875
        },
        {
          "ticks": 55162,
          "time": 207.3760228,
          "value": 0.984375
        },
        {
          "ticks": 55163,
          "time": 207.3797822,
          "value": 0.9998779296875
        },
        {
          "ticks": 55170,
          "time": 207.406098,
          "value": 0
        },
        {
          "ticks": 55681,
          "time": 209.3271514,
          "value": 0.015625
        },
        {
          "ticks": 55682,
          "time": 209.33091079999997,
          "value": 0.046875
        },
        {
          "ticks": 55683,
          "time": 209.33467019999998,
          "value": 0.09375
        },
        {
          "ticks": 55685,
          "time": 209.342189,
          "value": 0.125
        },
        {
          "ticks": 55686,
          "time": 209.3459484,
          "value": 0.171875
        },
        {
          "ticks": 55687,
          "time": 209.34970779999998,
          "value": 0.203125
        },
        {
          "ticks": 55688,
          "time": 209.35346719999998,
          "value": 0.25
        },
        {
          "ticks": 55690,
          "time": 209.36098599999997,
          "value": 0.28125
        },
        {
          "ticks": 55691,
          "time": 209.36474539999998,
          "value": 0.328125
        },
        {
          "ticks": 55692,
          "time": 209.3685048,
          "value": 0.359375
        },
        {
          "ticks": 55693,
          "time": 209.3722642,
          "value": 0.40625
        },
        {
          "ticks": 55695,
          "time": 209.37978299999997,
          "value": 0.4375
        },
        {
          "ticks": 55696,
          "time": 209.38354239999998,
          "value": 0.484375
        },
        {
          "ticks": 55697,
          "time": 209.3873018,
          "value": 0.515625
        },
        {
          "ticks": 55698,
          "time": 209.39106119999997,
          "value": 0.5625
        },
        {
          "ticks": 55700,
          "time": 209.39858,
          "value": 0.59375
        },
        {
          "ticks": 55701,
          "time": 209.4023394,
          "value": 0.640625
        },
        {
          "ticks": 55702,
          "time": 209.4060988,
          "value": 0.671875
        },
        {
          "ticks": 55703,
          "time": 209.40985819999997,
          "value": 0.71875
        },
        {
          "ticks": 55705,
          "time": 209.417377,
          "value": 0.75
        },
        {
          "ticks": 55706,
          "time": 209.42113639999997,
          "value": 0.796875
        },
        {
          "ticks": 55707,
          "time": 209.4248958,
          "value": 0.828125
        },
        {
          "ticks": 55708,
          "time": 209.4286552,
          "value": 0.875
        },
        {
          "ticks": 55710,
          "time": 209.436174,
          "value": 0.90625
        },
        {
          "ticks": 55711,
          "time": 209.43993339999997,
          "value": 0.953125
        },
        {
          "ticks": 55712,
          "time": 209.44369279999998,
          "value": 0.9998779296875
        },
        {
          "ticks": 55713,
          "time": 209.4474522,
          "value": 0.9998779296875
        },
        {
          "ticks": 55715,
          "time": 209.454971,
          "value": 0.9375
        },
        {
          "ticks": 55716,
          "time": 209.45873039999998,
          "value": 0.875
        },
        {
          "ticks": 55717,
          "time": 209.4624898,
          "value": 0.8125
        },
        {
          "ticks": 55718,
          "time": 209.4662492,
          "value": 0.75
        },
        {
          "ticks": 55720,
          "time": 209.47376799999998,
          "value": 0.703125
        },
        {
          "ticks": 55721,
          "time": 209.47752739999999,
          "value": 0.640625
        },
        {
          "ticks": 55722,
          "time": 209.4812868,
          "value": 0.578125
        },
        {
          "ticks": 55723,
          "time": 209.4850462,
          "value": 0.515625
        },
        {
          "ticks": 55725,
          "time": 209.49256499999998,
          "value": 0.46875
        },
        {
          "ticks": 55726,
          "time": 209.4963244,
          "value": 0.40625
        },
        {
          "ticks": 55727,
          "time": 209.50008379999997,
          "value": 0.34375
        },
        {
          "ticks": 55728,
          "time": 209.50384319999998,
          "value": 0.28125
        },
        {
          "ticks": 55730,
          "time": 209.511362,
          "value": 0.234375
        },
        {
          "ticks": 55731,
          "time": 209.5151214,
          "value": 0.171875
        },
        {
          "ticks": 55732,
          "time": 209.51888079999998,
          "value": 0.109375
        },
        {
          "ticks": 55733,
          "time": 209.52264019999998,
          "value": 0.046875
        },
        {
          "ticks": 55735,
          "time": 209.53015899999997,
          "value": 0
        },
        {
          "ticks": 55796,
          "time": 209.75948239999997,
          "value": -1
        },
        {
          "ticks": 55860,
          "time": 210.000084,
          "value": 0
        },
        {
          "ticks": 56160,
          "time": 211.127904,
          "value": 0
        },
        {
          "ticks": 56161,
          "time": 211.13166339999998,
          "value": 0.015625
        },
        {
          "ticks": 56162,
          "time": 211.1354228,
          "value": 0.03125
        },
        {
          "ticks": 56164,
          "time": 211.1429416,
          "value": 0.046875
        },
        {
          "ticks": 56165,
          "time": 211.146701,
          "value": 0.0625
        },
        {
          "ticks": 56166,
          "time": 211.1504604,
          "value": 0.09375
        },
        {
          "ticks": 56167,
          "time": 211.1542198,
          "value": 0.109375
        },
        {
          "ticks": 56169,
          "time": 211.16173859999998,
          "value": 0.125
        },
        {
          "ticks": 56170,
          "time": 211.16549799999999,
          "value": 0.140625
        },
        {
          "ticks": 56171,
          "time": 211.16925739999996,
          "value": 0.171875
        },
        {
          "ticks": 56172,
          "time": 211.1730168,
          "value": 0.1875
        },
        {
          "ticks": 56174,
          "time": 211.18053559999998,
          "value": 0.203125
        },
        {
          "ticks": 56175,
          "time": 211.184295,
          "value": 0.21875
        },
        {
          "ticks": 56176,
          "time": 211.18805439999997,
          "value": 0.25
        },
        {
          "ticks": 56177,
          "time": 211.19181379999998,
          "value": 0.265625
        },
        {
          "ticks": 56179,
          "time": 211.1993326,
          "value": 0.28125
        },
        {
          "ticks": 56180,
          "time": 211.203092,
          "value": 0.296875
        },
        {
          "ticks": 56181,
          "time": 211.2068514,
          "value": 0.3125
        },
        {
          "ticks": 56182,
          "time": 211.21061079999998,
          "value": 0.34375
        },
        {
          "ticks": 56184,
          "time": 211.21812959999997,
          "value": 0.359375
        },
        {
          "ticks": 56185,
          "time": 211.22188899999998,
          "value": 0.375
        },
        {
          "ticks": 56186,
          "time": 211.22564839999998,
          "value": 0.390625
        },
        {
          "ticks": 56187,
          "time": 211.2294078,
          "value": 0.421875
        },
        {
          "ticks": 56189,
          "time": 211.2369266,
          "value": 0.4375
        },
        {
          "ticks": 56190,
          "time": 211.24068599999998,
          "value": 0.453125
        },
        {
          "ticks": 56191,
          "time": 211.2444454,
          "value": 0.46875
        },
        {
          "ticks": 56192,
          "time": 211.24820479999997,
          "value": 0.5
        },
        {
          "ticks": 56194,
          "time": 211.2557236,
          "value": 0.515625
        },
        {
          "ticks": 56195,
          "time": 211.259483,
          "value": 0.53125
        },
        {
          "ticks": 56196,
          "time": 211.2632424,
          "value": 0.546875
        },
        {
          "ticks": 56197,
          "time": 211.2670018,
          "value": 0.5625
        },
        {
          "ticks": 56199,
          "time": 211.2745206,
          "value": 0.59375
        },
        {
          "ticks": 56200,
          "time": 211.27827999999997,
          "value": 0.609375
        },
        {
          "ticks": 56201,
          "time": 211.28203939999997,
          "value": 0.625
        },
        {
          "ticks": 56202,
          "time": 211.2857988,
          "value": 0.640625
        },
        {
          "ticks": 56204,
          "time": 211.2933176,
          "value": 0.671875
        },
        {
          "ticks": 56205,
          "time": 211.297077,
          "value": 0.6875
        },
        {
          "ticks": 56206,
          "time": 211.30083639999998,
          "value": 0.703125
        },
        {
          "ticks": 56207,
          "time": 211.3045958,
          "value": 0.71875
        },
        {
          "ticks": 56209,
          "time": 211.3121146,
          "value": 0.75
        },
        {
          "ticks": 56210,
          "time": 211.315874,
          "value": 0.765625
        },
        {
          "ticks": 56211,
          "time": 211.3196334,
          "value": 0.78125
        },
        {
          "ticks": 56212,
          "time": 211.3233928,
          "value": 0.796875
        },
        {
          "ticks": 56214,
          "time": 211.33091159999998,
          "value": 0.8125
        },
        {
          "ticks": 56215,
          "time": 211.334671,
          "value": 0.84375
        },
        {
          "ticks": 56216,
          "time": 211.33843039999996,
          "value": 0.859375
        },
        {
          "ticks": 56217,
          "time": 211.3421898,
          "value": 0.875
        },
        {
          "ticks": 56219,
          "time": 211.34970859999999,
          "value": 0.890625
        },
        {
          "ticks": 56220,
          "time": 211.353468,
          "value": 0.921875
        },
        {
          "ticks": 56221,
          "time": 211.35722739999997,
          "value": 0.9375
        },
        {
          "ticks": 56222,
          "time": 211.36098679999998,
          "value": 0.953125
        },
        {
          "ticks": 56224,
          "time": 211.3685056,
          "value": 0.96875
        },
        {
          "ticks": 56225,
          "time": 211.372265,
          "value": 0.9998779296875
        },
        {
          "ticks": 56280,
          "time": 211.57903199999998,
          "value": 0
        },
        {
          "ticks": 56640,
          "time": 212.932416,
          "value": 0
        },
        {
          "ticks": 56642,
          "time": 212.93993479999997,
          "value": 0.015625
        },
        {
          "ticks": 56643,
          "time": 212.94369419999998,
          "value": 0.03125
        },
        {
          "ticks": 56644,
          "time": 212.9474536,
          "value": 0.0625
        },
        {
          "ticks": 56645,
          "time": 212.951213,
          "value": 0.078125
        },
        {
          "ticks": 56647,
          "time": 212.95873179999998,
          "value": 0.09375
        },
        {
          "ticks": 56648,
          "time": 212.9624912,
          "value": 0.125
        },
        {
          "ticks": 56649,
          "time": 212.9662506,
          "value": 0.140625
        },
        {
          "ticks": 56650,
          "time": 212.97000999999997,
          "value": 0.15625
        },
        {
          "ticks": 56652,
          "time": 212.9775288,
          "value": 0.1875
        },
        {
          "ticks": 56653,
          "time": 212.9812882,
          "value": 0.203125
        },
        {
          "ticks": 56654,
          "time": 212.9850476,
          "value": 0.21875
        },
        {
          "ticks": 56655,
          "time": 212.98880699999998,
          "value": 0.25
        },
        {
          "ticks": 56657,
          "time": 212.9963258,
          "value": 0.265625
        },
        {
          "ticks": 56658,
          "time": 213.00008519999997,
          "value": 0.296875
        },
        {
          "ticks": 56659,
          "time": 213.0038446,
          "value": 0.3125
        },
        {
          "ticks": 56660,
          "time": 213.007604,
          "value": 0.328125
        },
        {
          "ticks": 56662,
          "time": 213.0151228,
          "value": 0.359375
        },
        {
          "ticks": 56663,
          "time": 213.01888219999998,
          "value": 0.375
        },
        {
          "ticks": 56664,
          "time": 213.0226416,
          "value": 0.390625
        },
        {
          "ticks": 56665,
          "time": 213.026401,
          "value": 0.421875
        },
        {
          "ticks": 56667,
          "time": 213.0339198,
          "value": 0.4375
        },
        {
          "ticks": 56668,
          "time": 213.03767919999999,
          "value": 0.453125
        },
        {
          "ticks": 56669,
          "time": 213.0414386,
          "value": 0.484375
        },
        {
          "ticks": 56670,
          "time": 213.045198,
          "value": 0.5
        },
        {
          "ticks": 56672,
          "time": 213.05271679999998,
          "value": 0.53125
        },
        {
          "ticks": 56673,
          "time": 213.05647619999996,
          "value": 0.546875
        },
        {
          "ticks": 56674,
          "time": 213.0602356,
          "value": 0.5625
        },
        {
          "ticks": 56675,
          "time": 213.063995,
          "value": 0.59375
        },
        {
          "ticks": 56677,
          "time": 213.0715138,
          "value": 0.609375
        },
        {
          "ticks": 56678,
          "time": 213.0752732,
          "value": 0.625
        },
        {
          "ticks": 56679,
          "time": 213.07903259999998,
          "value": 0.65625
        },
        {
          "ticks": 56680,
          "time": 213.08279199999998,
          "value": 0.671875
        },
        {
          "ticks": 56682,
          "time": 213.0903108,
          "value": 0.6875
        },
        {
          "ticks": 56683,
          "time": 213.0940702,
          "value": 0.71875
        },
        {
          "ticks": 56684,
          "time": 213.09782959999998,
          "value": 0.734375
        },
        {
          "ticks": 56685,
          "time": 213.101589,
          "value": 0.765625
        },
        {
          "ticks": 56687,
          "time": 213.10910779999998,
          "value": 0.78125
        },
        {
          "ticks": 56688,
          "time": 213.11286719999998,
          "value": 0.796875
        },
        {
          "ticks": 56689,
          "time": 213.1166266,
          "value": 0.828125
        },
        {
          "ticks": 56690,
          "time": 213.120386,
          "value": 0.84375
        },
        {
          "ticks": 56692,
          "time": 213.12790479999998,
          "value": 0.859375
        },
        {
          "ticks": 56693,
          "time": 213.1316642,
          "value": 0.890625
        },
        {
          "ticks": 56694,
          "time": 213.1354236,
          "value": 0.90625
        },
        {
          "ticks": 56695,
          "time": 213.13918299999997,
          "value": 0.921875
        },
        {
          "ticks": 56697,
          "time": 213.1467018,
          "value": 0.953125
        },
        {
          "ticks": 56698,
          "time": 213.1504612,
          "value": 0.96875
        },
        {
          "ticks": 56699,
          "time": 213.1542206,
          "value": 0.9998779296875
        },
        {
          "ticks": 56700,
          "time": 213.15797999999998,
          "value": 0
        },
        {
          "ticks": 56760,
          "time": 213.383544,
          "value": 0
        },
        {
          "ticks": 56762,
          "time": 213.3910628,
          "value": 0.015625
        },
        {
          "ticks": 56763,
          "time": 213.39482219999996,
          "value": 0.03125
        },
        {
          "ticks": 56764,
          "time": 213.3985816,
          "value": 0.0625
        },
        {
          "ticks": 56765,
          "time": 213.402341,
          "value": 0.078125
        },
        {
          "ticks": 56767,
          "time": 213.4098598,
          "value": 0.09375
        },
        {
          "ticks": 56768,
          "time": 213.4136192,
          "value": 0.125
        },
        {
          "ticks": 56769,
          "time": 213.41737859999998,
          "value": 0.140625
        },
        {
          "ticks": 56770,
          "time": 213.42113799999998,
          "value": 0.15625
        },
        {
          "ticks": 56772,
          "time": 213.4286568,
          "value": 0.1875
        },
        {
          "ticks": 56773,
          "time": 213.4324162,
          "value": 0.203125
        },
        {
          "ticks": 56774,
          "time": 213.43617559999998,
          "value": 0.21875
        },
        {
          "ticks": 56775,
          "time": 213.439935,
          "value": 0.25
        },
        {
          "ticks": 56777,
          "time": 213.44745379999998,
          "value": 0.265625
        },
        {
          "ticks": 56778,
          "time": 213.45121319999998,
          "value": 0.296875
        },
        {
          "ticks": 56779,
          "time": 213.4549726,
          "value": 0.3125
        },
        {
          "ticks": 56780,
          "time": 213.458732,
          "value": 0.328125
        },
        {
          "ticks": 56782,
          "time": 213.46625079999998,
          "value": 0.359375
        },
        {
          "ticks": 56783,
          "time": 213.4700102,
          "value": 0.375
        },
        {
          "ticks": 56784,
          "time": 213.47376959999997,
          "value": 0.390625
        },
        {
          "ticks": 56785,
          "time": 213.47752899999998,
          "value": 0.421875
        },
        {
          "ticks": 56787,
          "time": 213.4850478,
          "value": 0.4375
        },
        {
          "ticks": 56788,
          "time": 213.4888072,
          "value": 0.453125
        },
        {
          "ticks": 56789,
          "time": 213.4925666,
          "value": 0.484375
        },
        {
          "ticks": 56790,
          "time": 213.49632599999998,
          "value": 0.5
        },
        {
          "ticks": 56792,
          "time": 213.50384479999997,
          "value": 0.53125
        },
        {
          "ticks": 56793,
          "time": 213.50760419999997,
          "value": 0.546875
        },
        {
          "ticks": 56794,
          "time": 213.5113636,
          "value": 0.5625
        },
        {
          "ticks": 56795,
          "time": 213.515123,
          "value": 0.59375
        },
        {
          "ticks": 56797,
          "time": 213.5226418,
          "value": 0.609375
        },
        {
          "ticks": 56798,
          "time": 213.52640119999998,
          "value": 0.625
        },
        {
          "ticks": 56799,
          "time": 213.5301606,
          "value": 0.65625
        },
        {
          "ticks": 56800,
          "time": 213.53391999999997,
          "value": 0.671875
        },
        {
          "ticks": 56802,
          "time": 213.5414388,
          "value": 0.6875
        },
        {
          "ticks": 56803,
          "time": 213.5451982,
          "value": 0.71875
        },
        {
          "ticks": 56804,
          "time": 213.5489576,
          "value": 0.734375
        },
        {
          "ticks": 56805,
          "time": 213.552717,
          "value": 0.765625
        },
        {
          "ticks": 56807,
          "time": 213.5602358,
          "value": 0.78125
        },
        {
          "ticks": 56808,
          "time": 213.56399519999997,
          "value": 0.796875
        },
        {
          "ticks": 56809,
          "time": 213.5677546,
          "value": 0.828125
        },
        {
          "ticks": 56810,
          "time": 213.571514,
          "value": 0.84375
        },
        {
          "ticks": 56812,
          "time": 213.5790328,
          "value": 0.859375
        },
        {
          "ticks": 56813,
          "time": 213.58279219999997,
          "value": 0.890625
        },
        {
          "ticks": 56814,
          "time": 213.58655159999998,
          "value": 0.90625
        },
        {
          "ticks": 56815,
          "time": 213.59031099999999,
          "value": 0.921875
        },
        {
          "ticks": 56817,
          "time": 213.5978298,
          "value": 0.953125
        },
        {
          "ticks": 56818,
          "time": 213.6015892,
          "value": 0.96875
        },
        {
          "ticks": 56819,
          "time": 213.60534859999999,
          "value": 0.9998779296875
        },
        {
          "ticks": 56820,
          "time": 213.609108,
          "value": 0
        },
        {
          "ticks": 57420,
          "time": 215.864748,
          "value": -0.484375
        },
        {
          "ticks": 57422,
          "time": 215.87226679999998,
          "value": -0.375
        },
        {
          "ticks": 57423,
          "time": 215.87602619999998,
          "value": -0.265625
        },
        {
          "ticks": 57424,
          "time": 215.8797856,
          "value": -0.15625
        },
        {
          "ticks": 57425,
          "time": 215.883545,
          "value": -0.03125
        },
        {
          "ticks": 57427,
          "time": 215.89106379999998,
          "value": 0.078125
        },
        {
          "ticks": 57428,
          "time": 215.8948232,
          "value": 0.1875
        },
        {
          "ticks": 57429,
          "time": 215.89858259999997,
          "value": 0.3125
        },
        {
          "ticks": 57430,
          "time": 215.90234199999998,
          "value": 0.421875
        },
        {
          "ticks": 57432,
          "time": 215.9098608,
          "value": 0.53125
        },
        {
          "ticks": 57433,
          "time": 215.9136202,
          "value": 0.65625
        },
        {
          "ticks": 57434,
          "time": 215.9173796,
          "value": 0.765625
        },
        {
          "ticks": 57435,
          "time": 215.92113899999998,
          "value": 0.875
        },
        {
          "ticks": 57437,
          "time": 215.92865779999997,
          "value": 0.9998779296875
        },
        {
          "ticks": 57480,
          "time": 216.09031199999998,
          "value": 0
        },
        {
          "ticks": 57840,
          "time": 217.443696,
          "value": 0
        },
        {
          "ticks": 57841,
          "time": 217.4474554,
          "value": 0.015625
        },
        {
          "ticks": 57842,
          "time": 217.45121479999997,
          "value": 0.046875
        },
        {
          "ticks": 57843,
          "time": 217.45497419999998,
          "value": 0.0625
        },
        {
          "ticks": 57845,
          "time": 217.462493,
          "value": 0.09375
        },
        {
          "ticks": 57846,
          "time": 217.4662524,
          "value": 0.125
        },
        {
          "ticks": 57847,
          "time": 217.47001179999998,
          "value": 0.140625
        },
        {
          "ticks": 57848,
          "time": 217.4737712,
          "value": 0.171875
        },
        {
          "ticks": 57850,
          "time": 217.48128999999997,
          "value": 0.1875
        },
        {
          "ticks": 57851,
          "time": 217.48504939999998,
          "value": 0.21875
        },
        {
          "ticks": 57852,
          "time": 217.4888088,
          "value": 0.25
        },
        {
          "ticks": 57853,
          "time": 217.4925682,
          "value": 0.265625
        },
        {
          "ticks": 57855,
          "time": 217.50008699999998,
          "value": 0.296875
        },
        {
          "ticks": 57856,
          "time": 217.5038464,
          "value": 0.3125
        },
        {
          "ticks": 57857,
          "time": 217.5076058,
          "value": 0.34375
        },
        {
          "ticks": 57858,
          "time": 217.51136519999997,
          "value": 0.375
        },
        {
          "ticks": 57860,
          "time": 217.51888399999999,
          "value": 0.390625
        },
        {
          "ticks": 57861,
          "time": 217.5226434,
          "value": 0.421875
        },
        {
          "ticks": 57862,
          "time": 217.5264028,
          "value": 0.4375
        },
        {
          "ticks": 57863,
          "time": 217.53016219999998,
          "value": 0.46875
        },
        {
          "ticks": 57865,
          "time": 217.537681,
          "value": 0.5
        },
        {
          "ticks": 57866,
          "time": 217.54144039999997,
          "value": 0.515625
        },
        {
          "ticks": 57867,
          "time": 217.5451998,
          "value": 0.546875
        },
        {
          "ticks": 57868,
          "time": 217.54895919999998,
          "value": 0.5625
        },
        {
          "ticks": 57870,
          "time": 217.556478,
          "value": 0.59375
        },
        {
          "ticks": 57871,
          "time": 217.56023739999998,
          "value": 0.625
        },
        {
          "ticks": 57872,
          "time": 217.56399679999998,
          "value": 0.640625
        },
        {
          "ticks": 57873,
          "time": 217.5677562,
          "value": 0.671875
        },
        {
          "ticks": 57875,
          "time": 217.575275,
          "value": 0.6875
        },
        {
          "ticks": 57876,
          "time": 217.57903439999998,
          "value": 0.71875
        },
        {
          "ticks": 57877,
          "time": 217.5827938,
          "value": 0.75
        },
        {
          "ticks": 57878,
          "time": 217.5865532,
          "value": 0.765625
        },
        {
          "ticks": 57880,
          "time": 217.59407199999998,
          "value": 0.796875
        },
        {
          "ticks": 57881,
          "time": 217.59783139999996,
          "value": 0.8125
        },
        {
          "ticks": 57882,
          "time": 217.6015908,
          "value": 0.84375
        },
        {
          "ticks": 57883,
          "time": 217.6053502,
          "value": 0.875
        },
        {
          "ticks": 57885,
          "time": 217.612869,
          "value": 0.890625
        },
        {
          "ticks": 57886,
          "time": 217.6166284,
          "value": 0.921875
        },
        {
          "ticks": 57887,
          "time": 217.62038779999997,
          "value": 0.9375
        },
        {
          "ticks": 57888,
          "time": 217.62414719999998,
          "value": 0.96875
        },
        {
          "ticks": 57890,
          "time": 217.631666,
          "value": 0.9998779296875
        },
        {
          "ticks": 57947,
          "time": 217.84595179999997,
          "value": 0.9998779296875
        },
        {
          "ticks": 57948,
          "time": 217.84971119999997,
          "value": 0.890625
        },
        {
          "ticks": 57950,
          "time": 217.85723,
          "value": 0.796875
        },
        {
          "ticks": 57951,
          "time": 217.8609894,
          "value": 0.6875
        },
        {
          "ticks": 57952,
          "time": 217.8647488,
          "value": 0.59375
        },
        {
          "ticks": 57953,
          "time": 217.86850819999998,
          "value": 0.5
        },
        {
          "ticks": 57955,
          "time": 217.87602699999997,
          "value": 0.390625
        },
        {
          "ticks": 57956,
          "time": 217.87978639999997,
          "value": 0.296875
        },
        {
          "ticks": 57957,
          "time": 217.8835458,
          "value": 0.1875
        },
        {
          "ticks": 57958,
          "time": 217.8873052,
          "value": 0.09375
        },
        {
          "ticks": 57960,
          "time": 217.894824,
          "value": 0
        },
        {
          "ticks": 57990,
          "time": 218.00760599999998,
          "value": -0.984375
        },
        {
          "ticks": 58020,
          "time": 218.120388,
          "value": 0
        },
        {
          "ticks": 58380,
          "time": 219.473772,
          "value": -0.484375
        },
        {
          "ticks": 58382,
          "time": 219.48129079999998,
          "value": -0.375
        },
        {
          "ticks": 58383,
          "time": 219.4850502,
          "value": -0.265625
        },
        {
          "ticks": 58384,
          "time": 219.4888096,
          "value": -0.15625
        },
        {
          "ticks": 58385,
          "time": 219.492569,
          "value": -0.03125
        },
        {
          "ticks": 58387,
          "time": 219.5000878,
          "value": 0.078125
        },
        {
          "ticks": 58388,
          "time": 219.5038472,
          "value": 0.1875
        },
        {
          "ticks": 58389,
          "time": 219.50760659999997,
          "value": 0.3125
        },
        {
          "ticks": 58390,
          "time": 219.51136599999998,
          "value": 0.421875
        },
        {
          "ticks": 58392,
          "time": 219.5188848,
          "value": 0.53125
        },
        {
          "ticks": 58393,
          "time": 219.5226442,
          "value": 0.65625
        },
        {
          "ticks": 58394,
          "time": 219.52640359999998,
          "value": 0.765625
        },
        {
          "ticks": 58395,
          "time": 219.530163,
          "value": 0.875
        },
        {
          "ticks": 58397,
          "time": 219.53768179999997,
          "value": 0.9998779296875
        },
        {
          "ticks": 58440,
          "time": 219.699336,
          "value": 0
        },
        {
          "ticks": 58800,
          "time": 221.05272,
          "value": 0
        },
        {
          "ticks": 58801,
          "time": 221.0564794,
          "value": 0.015625
        },
        {
          "ticks": 58802,
          "time": 221.0602388,
          "value": 0.046875
        },
        {
          "ticks": 58803,
          "time": 221.0639982,
          "value": 0.0625
        },
        {
          "ticks": 58805,
          "time": 221.071517,
          "value": 0.09375
        },
        {
          "ticks": 58806,
          "time": 221.0752764,
          "value": 0.125
        },
        {
          "ticks": 58807,
          "time": 221.07903579999999,
          "value": 0.140625
        },
        {
          "ticks": 58808,
          "time": 221.0827952,
          "value": 0.171875
        },
        {
          "ticks": 58810,
          "time": 221.090314,
          "value": 0.1875
        },
        {
          "ticks": 58811,
          "time": 221.0940734,
          "value": 0.21875
        },
        {
          "ticks": 58812,
          "time": 221.0978328,
          "value": 0.25
        },
        {
          "ticks": 58813,
          "time": 221.1015922,
          "value": 0.265625
        },
        {
          "ticks": 58815,
          "time": 221.109111,
          "value": 0.296875
        },
        {
          "ticks": 58816,
          "time": 221.1128704,
          "value": 0.3125
        },
        {
          "ticks": 58817,
          "time": 221.1166298,
          "value": 0.34375
        },
        {
          "ticks": 58818,
          "time": 221.1203892,
          "value": 0.375
        },
        {
          "ticks": 58820,
          "time": 221.127908,
          "value": 0.390625
        },
        {
          "ticks": 58821,
          "time": 221.1316674,
          "value": 0.421875
        },
        {
          "ticks": 58822,
          "time": 221.1354268,
          "value": 0.4375
        },
        {
          "ticks": 58823,
          "time": 221.1391862,
          "value": 0.46875
        },
        {
          "ticks": 58825,
          "time": 221.146705,
          "value": 0.5
        },
        {
          "ticks": 58826,
          "time": 221.1504644,
          "value": 0.515625
        },
        {
          "ticks": 58827,
          "time": 221.1542238,
          "value": 0.546875
        },
        {
          "ticks": 58828,
          "time": 221.1579832,
          "value": 0.5625
        },
        {
          "ticks": 58830,
          "time": 221.165502,
          "value": 0.59375
        },
        {
          "ticks": 58831,
          "time": 221.1692614,
          "value": 0.625
        },
        {
          "ticks": 58832,
          "time": 221.1730208,
          "value": 0.640625
        },
        {
          "ticks": 58833,
          "time": 221.1767802,
          "value": 0.671875
        },
        {
          "ticks": 58835,
          "time": 221.184299,
          "value": 0.6875
        },
        {
          "ticks": 58836,
          "time": 221.1880584,
          "value": 0.71875
        },
        {
          "ticks": 58837,
          "time": 221.1918178,
          "value": 0.75
        },
        {
          "ticks": 58838,
          "time": 221.1955772,
          "value": 0.765625
        },
        {
          "ticks": 58840,
          "time": 221.203096,
          "value": 0.796875
        },
        {
          "ticks": 58841,
          "time": 221.2068554,
          "value": 0.8125
        },
        {
          "ticks": 58842,
          "time": 221.2106148,
          "value": 0.84375
        },
        {
          "ticks": 58843,
          "time": 221.2143742,
          "value": 0.875
        },
        {
          "ticks": 58845,
          "time": 221.221893,
          "value": 0.890625
        },
        {
          "ticks": 58846,
          "time": 221.2256524,
          "value": 0.921875
        },
        {
          "ticks": 58847,
          "time": 221.2294118,
          "value": 0.9375
        },
        {
          "ticks": 58848,
          "time": 221.2331712,
          "value": 0.96875
        },
        {
          "ticks": 58850,
          "time": 221.24069,
          "value": 0.9998779296875
        },
        {
          "ticks": 58907,
          "time": 221.4549758,
          "value": 0.9998779296875
        },
        {
          "ticks": 58908,
          "time": 221.4587352,
          "value": 0.890625
        },
        {
          "ticks": 58910,
          "time": 221.466254,
          "value": 0.796875
        },
        {
          "ticks": 58911,
          "time": 221.4700134,
          "value": 0.6875
        },
        {
          "ticks": 58912,
          "time": 221.4737728,
          "value": 0.59375
        },
        {
          "ticks": 58913,
          "time": 221.4775322,
          "value": 0.5
        },
        {
          "ticks": 58915,
          "time": 221.485051,
          "value": 0.390625
        },
        {
          "ticks": 58916,
          "time": 221.4888104,
          "value": 0.296875
        },
        {
          "ticks": 58917,
          "time": 221.4925698,
          "value": 0.1875
        },
        {
          "ticks": 58918,
          "time": 221.4963292,
          "value": 0.09375
        },
        {
          "ticks": 58920,
          "time": 221.503848,
          "value": 0
        },
        {
          "ticks": 58950,
          "time": 221.61663,
          "value": -0.984375
        },
        {
          "ticks": 58980,
          "time": 221.729412,
          "value": 0
        },
        {
          "ticks": 59340,
          "time": 223.082796,
          "value": -0.484375
        },
        {
          "ticks": 59342,
          "time": 223.0903148,
          "value": -0.375
        },
        {
          "ticks": 59343,
          "time": 223.0940742,
          "value": -0.265625
        },
        {
          "ticks": 59344,
          "time": 223.0978336,
          "value": -0.15625
        },
        {
          "ticks": 59345,
          "time": 223.101593,
          "value": -0.03125
        },
        {
          "ticks": 59347,
          "time": 223.1091118,
          "value": 0.078125
        },
        {
          "ticks": 59348,
          "time": 223.1128712,
          "value": 0.1875
        },
        {
          "ticks": 59349,
          "time": 223.1166306,
          "value": 0.3125
        },
        {
          "ticks": 59350,
          "time": 223.12039,
          "value": 0.421875
        },
        {
          "ticks": 59352,
          "time": 223.1279088,
          "value": 0.53125
        },
        {
          "ticks": 59353,
          "time": 223.1316682,
          "value": 0.65625
        },
        {
          "ticks": 59354,
          "time": 223.13542759999999,
          "value": 0.765625
        },
        {
          "ticks": 59355,
          "time": 223.139187,
          "value": 0.875
        },
        {
          "ticks": 59357,
          "time": 223.1467058,
          "value": 0.9998779296875
        },
        {
          "ticks": 59400,
          "time": 223.30836,
          "value": 0
        },
        {
          "ticks": 59760,
          "time": 224.661744,
          "value": 0
        },
        {
          "ticks": 59761,
          "time": 224.6655034,
          "value": 0.015625
        },
        {
          "ticks": 59762,
          "time": 224.6692628,
          "value": 0.046875
        },
        {
          "ticks": 59763,
          "time": 224.6730222,
          "value": 0.0625
        },
        {
          "ticks": 59765,
          "time": 224.680541,
          "value": 0.09375
        },
        {
          "ticks": 59766,
          "time": 224.6843004,
          "value": 0.125
        },
        {
          "ticks": 59767,
          "time": 224.6880598,
          "value": 0.140625
        },
        {
          "ticks": 59768,
          "time": 224.6918192,
          "value": 0.171875
        },
        {
          "ticks": 59770,
          "time": 224.699338,
          "value": 0.1875
        },
        {
          "ticks": 59771,
          "time": 224.7030974,
          "value": 0.21875
        },
        {
          "ticks": 59772,
          "time": 224.7068568,
          "value": 0.25
        },
        {
          "ticks": 59773,
          "time": 224.7106162,
          "value": 0.265625
        },
        {
          "ticks": 59775,
          "time": 224.718135,
          "value": 0.296875
        },
        {
          "ticks": 59776,
          "time": 224.7218944,
          "value": 0.3125
        },
        {
          "ticks": 59777,
          "time": 224.7256538,
          "value": 0.34375
        },
        {
          "ticks": 59778,
          "time": 224.7294132,
          "value": 0.375
        },
        {
          "ticks": 59780,
          "time": 224.736932,
          "value": 0.390625
        },
        {
          "ticks": 59781,
          "time": 224.7406914,
          "value": 0.421875
        },
        {
          "ticks": 59782,
          "time": 224.7444508,
          "value": 0.4375
        },
        {
          "ticks": 59783,
          "time": 224.7482102,
          "value": 0.46875
        },
        {
          "ticks": 59785,
          "time": 224.755729,
          "value": 0.5
        },
        {
          "ticks": 59786,
          "time": 224.7594884,
          "value": 0.515625
        },
        {
          "ticks": 59787,
          "time": 224.7632478,
          "value": 0.546875
        },
        {
          "ticks": 59788,
          "time": 224.7670072,
          "value": 0.5625
        },
        {
          "ticks": 59790,
          "time": 224.774526,
          "value": 0.59375
        },
        {
          "ticks": 59791,
          "time": 224.7782854,
          "value": 0.625
        },
        {
          "ticks": 59792,
          "time": 224.7820448,
          "value": 0.640625
        },
        {
          "ticks": 59793,
          "time": 224.7858042,
          "value": 0.671875
        },
        {
          "ticks": 59795,
          "time": 224.793323,
          "value": 0.6875
        },
        {
          "ticks": 59796,
          "time": 224.7970824,
          "value": 0.71875
        },
        {
          "ticks": 59797,
          "time": 224.8008418,
          "value": 0.75
        },
        {
          "ticks": 59798,
          "time": 224.8046012,
          "value": 0.765625
        },
        {
          "ticks": 59800,
          "time": 224.81212,
          "value": 0.796875
        },
        {
          "ticks": 59801,
          "time": 224.8158794,
          "value": 0.8125
        },
        {
          "ticks": 59802,
          "time": 224.8196388,
          "value": 0.84375
        },
        {
          "ticks": 59803,
          "time": 224.82339819999999,
          "value": 0.875
        },
        {
          "ticks": 59805,
          "time": 224.830917,
          "value": 0.890625
        },
        {
          "ticks": 59806,
          "time": 224.8346764,
          "value": 0.921875
        },
        {
          "ticks": 59807,
          "time": 224.8384358,
          "value": 0.9375
        },
        {
          "ticks": 59808,
          "time": 224.8421952,
          "value": 0.96875
        },
        {
          "ticks": 59810,
          "time": 224.849714,
          "value": 0.9998779296875
        },
        {
          "ticks": 59867,
          "time": 225.0639998,
          "value": 0.9998779296875
        },
        {
          "ticks": 59868,
          "time": 225.0677592,
          "value": 0.890625
        },
        {
          "ticks": 59870,
          "time": 225.075278,
          "value": 0.796875
        },
        {
          "ticks": 59871,
          "time": 225.0790374,
          "value": 0.6875
        },
        {
          "ticks": 59872,
          "time": 225.0827968,
          "value": 0.59375
        },
        {
          "ticks": 59873,
          "time": 225.0865562,
          "value": 0.5
        },
        {
          "ticks": 59875,
          "time": 225.094075,
          "value": 0.390625
        },
        {
          "ticks": 59876,
          "time": 225.0978344,
          "value": 0.296875
        },
        {
          "ticks": 59877,
          "time": 225.1015938,
          "value": 0.1875
        },
        {
          "ticks": 59878,
          "time": 225.1053532,
          "value": 0.09375
        },
        {
          "ticks": 59880,
          "time": 225.112872,
          "value": 0
        },
        {
          "ticks": 59910,
          "time": 225.225654,
          "value": -0.984375
        },
        {
          "ticks": 59940,
          "time": 225.338436,
          "value": 0
        },
        {
          "ticks": 60300,
          "time": 226.69182,
          "value": -0.484375
        },
        {
          "ticks": 60302,
          "time": 226.6993388,
          "value": -0.375
        },
        {
          "ticks": 60303,
          "time": 226.7030982,
          "value": -0.265625
        },
        {
          "ticks": 60304,
          "time": 226.7068576,
          "value": -0.15625
        },
        {
          "ticks": 60305,
          "time": 226.710617,
          "value": -0.03125
        },
        {
          "ticks": 60307,
          "time": 226.7181358,
          "value": 0.078125
        },
        {
          "ticks": 60308,
          "time": 226.7218952,
          "value": 0.1875
        },
        {
          "ticks": 60309,
          "time": 226.72565459999998,
          "value": 0.3125
        },
        {
          "ticks": 60310,
          "time": 226.729414,
          "value": 0.421875
        },
        {
          "ticks": 60312,
          "time": 226.7369328,
          "value": 0.53125
        },
        {
          "ticks": 60313,
          "time": 226.7406922,
          "value": 0.65625
        },
        {
          "ticks": 60314,
          "time": 226.7444516,
          "value": 0.765625
        },
        {
          "ticks": 60315,
          "time": 226.748211,
          "value": 0.875
        },
        {
          "ticks": 60317,
          "time": 226.7557298,
          "value": 0.9998779296875
        },
        {
          "ticks": 60360,
          "time": 226.917384,
          "value": 0
        },
        {
          "ticks": 60720,
          "time": 228.270768,
          "value": 0
        },
        {
          "ticks": 60721,
          "time": 228.2745274,
          "value": 0.015625
        },
        {
          "ticks": 60722,
          "time": 228.2782868,
          "value": 0.046875
        },
        {
          "ticks": 60723,
          "time": 228.2820462,
          "value": 0.0625
        },
        {
          "ticks": 60725,
          "time": 228.289565,
          "value": 0.09375
        },
        {
          "ticks": 60726,
          "time": 228.2933244,
          "value": 0.125
        },
        {
          "ticks": 60727,
          "time": 228.2970838,
          "value": 0.140625
        },
        {
          "ticks": 60728,
          "time": 228.3008432,
          "value": 0.171875
        },
        {
          "ticks": 60730,
          "time": 228.308362,
          "value": 0.1875
        },
        {
          "ticks": 60731,
          "time": 228.3121214,
          "value": 0.21875
        },
        {
          "ticks": 60732,
          "time": 228.3158808,
          "value": 0.25
        },
        {
          "ticks": 60733,
          "time": 228.3196402,
          "value": 0.265625
        },
        {
          "ticks": 60735,
          "time": 228.327159,
          "value": 0.296875
        },
        {
          "ticks": 60736,
          "time": 228.3309184,
          "value": 0.3125
        },
        {
          "ticks": 60737,
          "time": 228.3346778,
          "value": 0.34375
        },
        {
          "ticks": 60738,
          "time": 228.3384372,
          "value": 0.375
        },
        {
          "ticks": 60740,
          "time": 228.345956,
          "value": 0.390625
        },
        {
          "ticks": 60741,
          "time": 228.3497154,
          "value": 0.421875
        },
        {
          "ticks": 60742,
          "time": 228.3534748,
          "value": 0.4375
        },
        {
          "ticks": 60743,
          "time": 228.3572342,
          "value": 0.46875
        },
        {
          "ticks": 60745,
          "time": 228.364753,
          "value": 0.5
        },
        {
          "ticks": 60746,
          "time": 228.3685124,
          "value": 0.515625
        },
        {
          "ticks": 60747,
          "time": 228.3722718,
          "value": 0.546875
        },
        {
          "ticks": 60748,
          "time": 228.3760312,
          "value": 0.5625
        },
        {
          "ticks": 60750,
          "time": 228.38355,
          "value": 0.59375
        },
        {
          "ticks": 60751,
          "time": 228.3873094,
          "value": 0.625
        },
        {
          "ticks": 60752,
          "time": 228.3910688,
          "value": 0.640625
        },
        {
          "ticks": 60753,
          "time": 228.3948282,
          "value": 0.671875
        },
        {
          "ticks": 60755,
          "time": 228.402347,
          "value": 0.6875
        },
        {
          "ticks": 60756,
          "time": 228.4061064,
          "value": 0.71875
        },
        {
          "ticks": 60757,
          "time": 228.4098658,
          "value": 0.75
        },
        {
          "ticks": 60758,
          "time": 228.4136252,
          "value": 0.765625
        },
        {
          "ticks": 60760,
          "time": 228.421144,
          "value": 0.796875
        },
        {
          "ticks": 60761,
          "time": 228.4249034,
          "value": 0.8125
        },
        {
          "ticks": 60762,
          "time": 228.4286628,
          "value": 0.84375
        },
        {
          "ticks": 60763,
          "time": 228.4324222,
          "value": 0.875
        },
        {
          "ticks": 60765,
          "time": 228.439941,
          "value": 0.890625
        },
        {
          "ticks": 60766,
          "time": 228.4437004,
          "value": 0.921875
        },
        {
          "ticks": 60767,
          "time": 228.4474598,
          "value": 0.9375
        },
        {
          "ticks": 60768,
          "time": 228.4512192,
          "value": 0.96875
        },
        {
          "ticks": 60770,
          "time": 228.458738,
          "value": 0.9998779296875
        },
        {
          "ticks": 60827,
          "time": 228.6730238,
          "value": 0.9998779296875
        },
        {
          "ticks": 60828,
          "time": 228.6767832,
          "value": 0.890625
        },
        {
          "ticks": 60830,
          "time": 228.684302,
          "value": 0.796875
        },
        {
          "ticks": 60831,
          "time": 228.6880614,
          "value": 0.6875
        },
        {
          "ticks": 60832,
          "time": 228.6918208,
          "value": 0.59375
        },
        {
          "ticks": 60833,
          "time": 228.6955802,
          "value": 0.5
        },
        {
          "ticks": 60835,
          "time": 228.703099,
          "value": 0.390625
        },
        {
          "ticks": 60836,
          "time": 228.7068584,
          "value": 0.296875
        },
        {
          "ticks": 60837,
          "time": 228.7106178,
          "value": 0.1875
        },
        {
          "ticks": 60838,
          "time": 228.7143772,
          "value": 0.09375
        },
        {
          "ticks": 60840,
          "time": 228.721896,
          "value": 0
        },
        {
          "ticks": 60870,
          "time": 228.834678,
          "value": -0.984375
        },
        {
          "ticks": 60900,
          "time": 228.94746,
          "value": 0
        }
      ],
      "instrument": {
        "family": "guitar",
        "number": 29,
        "name": "overdriven guitar"
      },
      "name": "Gt 1 - Lead P/Shift",
      "notes": [
        {
          "duration": 0.44736860000000434,
          "durationTicks": 119,
          "midi": 68,
          "name": "G#4",
          "ticks": 53280,
          "time": 200.30083199999999,
          "velocity": 0.7874015748031497
        },
        {
          "duration": 0.44736860000000434,
          "durationTicks": 119,
          "midi": 64,
          "name": "E4",
          "ticks": 53280,
          "time": 200.30083199999999,
          "velocity": 0.7874015748031497
        },
        {
          "duration": 0.22180459999998448,
          "durationTicks": 59,
          "midi": 62,
          "name": "D4",
          "ticks": 53400,
          "time": 200.75196,
          "velocity": 0.7874015748031497
        },
        {
          "duration": 0.44736860000000434,
          "durationTicks": 119,
          "midi": 59,
          "name": "B3",
          "ticks": 53460,
          "time": 200.977524,
          "velocity": 0.7874015748031497
        },
        {
          "duration": 0.22180459999998448,
          "durationTicks": 59,
          "midi": 52,
          "name": "E3",
          "ticks": 53580,
          "time": 201.428652,
          "velocity": 0.7874015748031497
        },
        {
          "duration": 0.2218046000000129,
          "durationTicks": 59,
          "midi": 54,
          "name": "F#3",
          "ticks": 53640,
          "time": 201.654216,
          "velocity": 0.7874015748031497
        },
        {
          "duration": 0.2218046000000129,
          "durationTicks": 59,
          "midi": 57,
          "name": "A3",
          "ticks": 53700,
          "time": 201.87977999999998,
          "velocity": 0.7874015748031497
        },
        {
          "duration": 0.6729325999999958,
          "durationTicks": 179,
          "midi": 57,
          "name": "A3",
          "ticks": 53760,
          "time": 202.105344,
          "velocity": 0.7874015748031497
        },
        {
          "duration": 0.6729326000000242,
          "durationTicks": 179,
          "midi": 52,
          "name": "E3",
          "ticks": 53940,
          "time": 202.78203599999998,
          "velocity": 0.7874015748031497
        },
        {
          "duration": 0.44736860000000434,
          "durationTicks": 119,
          "midi": 64,
          "name": "E4",
          "ticks": 54120,
          "time": 203.45872799999998,
          "velocity": 0.7874015748031497
        },
        {
          "duration": 0.10902260000000297,
          "durationTicks": 29,
          "midi": 66,
          "name": "F#4",
          "ticks": 54240,
          "time": 203.909856,
          "velocity": 0.7874015748031497
        },
        {
          "duration": 0.10902260000000297,
          "durationTicks": 29,
          "midi": 69,
          "name": "A4",
          "ticks": 54270,
          "time": 204.022638,
          "velocity": 0.7874015748031497
        },
        {
          "duration": 0.10902260000000297,
          "durationTicks": 29,
          "midi": 66,
          "name": "F#4",
          "ticks": 54300,
          "time": 204.13541999999998,
          "velocity": 0.7874015748031497
        },
        {
          "duration": 0.3345865999999944,
          "durationTicks": 89,
          "midi": 64,
          "name": "E4",
          "ticks": 54330,
          "time": 204.248202,
          "velocity": 0.7874015748031497
        },
        {
          "duration": 0.44736860000000434,
          "durationTicks": 119,
          "midi": 59,
          "name": "B3",
          "ticks": 54420,
          "time": 204.586548,
          "velocity": 0.7874015748031497
        },
        {
          "duration": 0.2218046000000129,
          "durationTicks": 59,
          "midi": 52,
          "name": "E3",
          "ticks": 54540,
          "time": 205.03767599999998,
          "velocity": 0.7874015748031497
        },
        {
          "duration": 0.22180459999998448,
          "durationTicks": 59,
          "midi": 54,
          "name": "F#3",
          "ticks": 54600,
          "time": 205.26324,
          "velocity": 0.7874015748031497
        },
        {
          "duration": 0.2218046000000129,
          "durationTicks": 59,
          "midi": 57,
          "name": "A3",
          "ticks": 54660,
          "time": 205.488804,
          "velocity": 0.7874015748031497
        },
        {
          "duration": 0.6729326000000242,
          "durationTicks": 179,
          "midi": 57,
          "name": "A3",
          "ticks": 54720,
          "time": 205.71436799999998,
          "velocity": 0.7874015748031497
        },
        {
          "duration": 0.5601506000000143,
          "durationTicks": 149,
          "midi": 59,
          "name": "B3",
          "ticks": 54900,
          "time": 206.39105999999998,
          "velocity": 0.7874015748031497
        },
        {
          "duration": 0.3345865999999944,
          "durationTicks": 89,
          "midi": 64,
          "name": "E4",
          "ticks": 55080,
          "time": 207.06775199999998,
          "velocity": 0.7874015748031497
        },
        {
          "duration": 0.10902260000000297,
          "durationTicks": 29,
          "midi": 66,
          "name": "F#4",
          "ticks": 55170,
          "time": 207.406098,
          "velocity": 0.7874015748031497
        },
        {
          "duration": 0.10902260000000297,
          "durationTicks": 29,
          "midi": 68,
          "name": "G#4",
          "ticks": 55200,
          "time": 207.51888,
          "velocity": 0.7874015748031497
        },
        {
          "duration": 0.10902260000000297,
          "durationTicks": 29,
          "midi": 66,
          "name": "F#4",
          "ticks": 55230,
          "time": 207.63166199999998,
          "velocity": 0.7874015748031497
        },
        {
          "duration": 0.10902260000000297,
          "durationTicks": 29,
          "midi": 59,
          "name": "B3",
          "ticks": 55260,
          "time": 207.744444,
          "velocity": 0.7874015748031497
        },
        {
          "duration": 0.10902260000000297,
          "durationTicks": 29,
          "midi": 69,
          "name": "A4",
          "ticks": 55290,
          "time": 207.857226,
          "velocity": 0.7874015748031497
        },
        {
          "duration": 0.10902260000000297,
          "durationTicks": 29,
          "midi": 66,
          "name": "F#4",
          "ticks": 55320,
          "time": 207.97000799999998,
          "velocity": 0.7874015748031497
        },
        {
          "duration": 0.10902260000000297,
          "durationTicks": 29,
          "midi": 59,
          "name": "B3",
          "ticks": 55350,
          "time": 208.08279,
          "velocity": 0.7874015748031497
        },
        {
          "duration": 0.10902260000000297,
          "durationTicks": 29,
          "midi": 68,
          "name": "G#4",
          "ticks": 55380,
          "time": 208.195572,
          "velocity": 0.7874015748031497
        },
        {
          "duration": 0.10902260000000297,
          "durationTicks": 29,
          "midi": 66,
          "name": "F#4",
          "ticks": 55410,
          "time": 208.30835399999998,
          "velocity": 0.7874015748031497
        },
        {
          "duration": 0.10902260000000297,
          "durationTicks": 29,
          "midi": 59,
          "name": "B3",
          "ticks": 55440,
          "time": 208.421136,
          "velocity": 0.7874015748031497
        },
        {
          "duration": 0.10902260000000297,
          "durationTicks": 29,
          "midi": 68,
          "name": "G#4",
          "ticks": 55470,
          "time": 208.533918,
          "velocity": 0.7874015748031497
        },
        {
          "duration": 0.10902260000000297,
          "durationTicks": 29,
          "midi": 66,
          "name": "F#4",
          "ticks": 55500,
          "time": 208.64669999999998,
          "velocity": 0.7874015748031497
        },
        {
          "duration": 0.10902260000000297,
          "durationTicks": 29,
          "midi": 59,
          "name": "B3",
          "ticks": 55530,
          "time": 208.759482,
          "velocity": 0.7874015748031497
        },
        {
          "duration": 0.10902260000000297,
          "durationTicks": 29,
          "midi": 69,
          "name": "A4",
          "ticks": 55560,
          "time": 208.872264,
          "velocity": 0.7874015748031497
        },
        {
          "duration": 0.10902260000000297,
          "durationTicks": 29,
          "midi": 66,
          "name": "F#4",
          "ticks": 55590,
          "time": 208.98504599999998,
          "velocity": 0.7874015748031497
        },
        {
          "duration": 0.22180459999998448,
          "durationTicks": 59,
          "midi": 59,
          "name": "B3",
          "ticks": 55620,
          "time": 209.097828,
          "velocity": 0.7874015748031497
        },
        {
          "duration": 0.6729325999999958,
          "durationTicks": 179,
          "midi": 64,
          "name": "E4",
          "ticks": 55680,
          "time": 209.32339199999998,
          "velocity": 0.7874015748031497
        },
        {
          "duration": 0.8984966000000156,
          "durationTicks": 239,
          "midi": 59,
          "name": "B3",
          "ticks": 55860,
          "time": 210.000084,
          "velocity": 0.7874015748031497
        },
        {
          "duration": 0.4473685999999759,
          "durationTicks": 119,
          "midi": 81,
          "name": "A5",
          "ticks": 56160,
          "time": 211.127904,
          "velocity": 0.7874015748031497
        },
        {
          "duration": 0.10902260000000297,
          "durationTicks": 29,
          "midi": 83,
          "name": "B5",
          "ticks": 56280,
          "time": 211.57903199999998,
          "velocity": 0.7874015748031497
        },
        {
          "duration": 0.10902260000000297,
          "durationTicks": 29,
          "midi": 81,
          "name": "A5",
          "ticks": 56310,
          "time": 211.691814,
          "velocity": 0.7874015748031497
        },
        {
          "duration": 0.10902260000000297,
          "durationTicks": 29,
          "midi": 78,
          "name": "F#5",
          "ticks": 56340,
          "time": 211.80459599999998,
          "velocity": 0.7874015748031497
        },
        {
          "duration": 0.10902260000000297,
          "durationTicks": 29,
          "midi": 81,
          "name": "A5",
          "ticks": 56370,
          "time": 211.91737799999999,
          "velocity": 0.7874015748031497
        },
        {
          "duration": 0.10902260000000297,
          "durationTicks": 29,
          "midi": 78,
          "name": "F#5",
          "ticks": 56400,
          "time": 212.03016,
          "velocity": 0.7874015748031497
        },
        {
          "duration": 0.10902260000000297,
          "durationTicks": 29,
          "midi": 76,
          "name": "E5",
          "ticks": 56430,
          "time": 212.14294199999998,
          "velocity": 0.7874015748031497
        },
        {
          "duration": 0.10902260000000297,
          "durationTicks": 29,
          "midi": 78,
          "name": "F#5",
          "ticks": 56460,
          "time": 212.255724,
          "velocity": 0.7874015748031497
        },
        {
          "duration": 0.10902260000000297,
          "durationTicks": 29,
          "midi": 76,
          "name": "E5",
          "ticks": 56490,
          "time": 212.368506,
          "velocity": 0.7874015748031497
        },
        {
          "duration": 0.10902260000000297,
          "durationTicks": 29,
          "midi": 74,
          "name": "D5",
          "ticks": 56520,
          "time": 212.48128799999998,
          "velocity": 0.7874015748031497
        },
        {
          "duration": 0.10902260000000297,
          "durationTicks": 29,
          "midi": 76,
          "name": "E5",
          "ticks": 56550,
          "time": 212.59407,
          "velocity": 0.7874015748031497
        },
        {
          "duration": 0.10902260000000297,
          "durationTicks": 29,
          "midi": 74,
          "name": "D5",
          "ticks": 56580,
          "time": 212.706852,
          "velocity": 0.7874015748031497
        },
        {
          "duration": 0.10902260000000297,
          "durationTicks": 29,
          "midi": 71,
          "name": "B4",
          "ticks": 56610,
          "time": 212.81963399999998,
          "velocity": 0.7874015748031497
        },
        {
          "duration": 0.2218046000000129,
          "durationTicks": 59,
          "midi": 76,
          "name": "E5",
          "ticks": 56640,
          "time": 212.932416,
          "velocity": 0.7874015748031497
        },
        {
          "duration": 0.2218046000000129,
          "durationTicks": 59,
          "midi": 81,
          "name": "A5",
          "ticks": 56700,
          "time": 213.15797999999998,
          "velocity": 0.7874015748031497
        },
        {
          "duration": 0.22180459999998448,
          "durationTicks": 59,
          "midi": 76,
          "name": "E5",
          "ticks": 56760,
          "time": 213.383544,
          "velocity": 0.7874015748031497
        },
        {
          "duration": 0.7857146000000057,
          "durationTicks": 209,
          "midi": 78,
          "name": "F#5",
          "ticks": 56820,
          "time": 213.609108,
          "velocity": 0.7874015748031497
        },
        {
          "duration": 0.2218046000000129,
          "durationTicks": 59,
          "midi": 57,
          "name": "A3",
          "ticks": 57420,
          "time": 215.864748,
          "velocity": 0.7874015748031497
        },
        {
          "duration": 0.2218046000000129,
          "durationTicks": 59,
          "midi": 62,
          "name": "D4",
          "ticks": 57480,
          "time": 216.09031199999998,
          "velocity": 0.7874015748031497
        },
        {
          "duration": 0.2218046000000129,
          "durationTicks": 59,
          "midi": 59,
          "name": "B3",
          "ticks": 57540,
          "time": 216.31587599999997,
          "velocity": 0.7874015748031497
        },
        {
          "duration": 0.44736860000000434,
          "durationTicks": 119,
          "midi": 62,
          "name": "D4",
          "ticks": 57600,
          "time": 216.54144,
          "velocity": 0.7874015748031497
        },
        {
          "duration": 0.2218046000000129,
          "durationTicks": 59,
          "midi": 64,
          "name": "E4",
          "ticks": 57720,
          "time": 216.99256799999998,
          "velocity": 0.7874015748031497
        },
        {
          "duration": 0.22180459999998448,
          "durationTicks": 59,
          "midi": 62,
          "name": "D4",
          "ticks": 57780,
          "time": 217.218132,
          "velocity": 0.7874015748031497
        },
        {
          "duration": 0.6729325999999958,
          "durationTicks": 179,
          "midi": 64,
          "name": "E4",
          "ticks": 57840,
          "time": 217.443696,
          "velocity": 0.7874015748031497
        },
        {
          "duration": 0.2218046000000129,
          "durationTicks": 59,
          "midi": 59,
          "name": "B3",
          "ticks": 58020,
          "time": 218.120388,
          "velocity": 0.7874015748031497
        },
        {
          "duration": 0.22180459999998448,
          "durationTicks": 59,
          "midi": 57,
          "name": "A3",
          "ticks": 58380,
          "time": 219.473772,
          "velocity": 0.7874015748031497
        },
        {
          "duration": 0.2218046000000129,
          "durationTicks": 59,
          "midi": 62,
          "name": "D4",
          "ticks": 58440,
          "time": 219.699336,
          "velocity": 0.7874015748031497
        },
        {
          "duration": 0.2218046000000129,
          "durationTicks": 59,
          "midi": 59,
          "name": "B3",
          "ticks": 58500,
          "time": 219.92489999999998,
          "velocity": 0.7874015748031497
        },
        {
          "duration": 0.44736860000000434,
          "durationTicks": 119,
          "midi": 62,
          "name": "D4",
          "ticks": 58560,
          "time": 220.150464,
          "velocity": 0.7874015748031497
        },
        {
          "duration": 0.22180459999998448,
          "durationTicks": 59,
          "midi": 64,
          "name": "E4",
          "ticks": 58680,
          "time": 220.601592,
          "velocity": 0.7874015748031497
        },
        {
          "duration": 0.22180459999998448,
          "durationTicks": 59,
          "midi": 62,
          "name": "D4",
          "ticks": 58740,
          "time": 220.827156,
          "velocity": 0.7874015748031497
        },
        {
          "duration": 0.6729325999999958,
          "durationTicks": 179,
          "midi": 64,
          "name": "E4",
          "ticks": 58800,
          "time": 221.05272,
          "velocity": 0.7874015748031497
        },
        {
          "duration": 0.2218046000000129,
          "durationTicks": 59,
          "midi": 59,
          "name": "B3",
          "ticks": 58980,
          "time": 221.729412,
          "velocity": 0.7874015748031497
        },
        {
          "duration": 0.22180459999998448,
          "durationTicks": 59,
          "midi": 57,
          "name": "A3",
          "ticks": 59340,
          "time": 223.082796,
          "velocity": 0.7874015748031497
        },
        {
          "duration": 0.2218046000000129,
          "durationTicks": 59,
          "midi": 62,
          "name": "D4",
          "ticks": 59400,
          "time": 223.30836,
          "velocity": 0.7874015748031497
        },
        {
          "duration": 0.22180459999998448,
          "durationTicks": 59,
          "midi": 59,
          "name": "B3",
          "ticks": 59460,
          "time": 223.533924,
          "velocity": 0.7874015748031497
        },
        {
          "duration": 0.44736860000000434,
          "durationTicks": 119,
          "midi": 62,
          "name": "D4",
          "ticks": 59520,
          "time": 223.759488,
          "velocity": 0.7874015748031497
        },
        {
          "duration": 0.2218046000000129,
          "durationTicks": 59,
          "midi": 64,
          "name": "E4",
          "ticks": 59640,
          "time": 224.210616,
          "velocity": 0.7874015748031497
        },
        {
          "duration": 0.22180459999998448,
          "durationTicks": 59,
          "midi": 62,
          "name": "D4",
          "ticks": 59700,
          "time": 224.43618,
          "velocity": 0.7874015748031497
        },
        {
          "duration": 0.6729325999999958,
          "durationTicks": 179,
          "midi": 64,
          "name": "E4",
          "ticks": 59760,
          "time": 224.661744,
          "velocity": 0.7874015748031497
        },
        {
          "duration": 0.22180459999998448,
          "durationTicks": 59,
          "midi": 59,
          "name": "B3",
          "ticks": 59940,
          "time": 225.338436,
          "velocity": 0.7874015748031497
        },
        {
          "duration": 0.22180459999998448,
          "durationTicks": 59,
          "midi": 57,
          "name": "A3",
          "ticks": 60300,
          "time": 226.69182,
          "velocity": 0.7874015748031497
        },
        {
          "duration": 0.2218046000000129,
          "durationTicks": 59,
          "midi": 62,
          "name": "D4",
          "ticks": 60360,
          "time": 226.917384,
          "velocity": 0.7874015748031497
        },
        {
          "duration": 0.2218046000000129,
          "durationTicks": 59,
          "midi": 59,
          "name": "B3",
          "ticks": 60420,
          "time": 227.142948,
          "velocity": 0.7874015748031497
        },
        {
          "duration": 0.4473685999999759,
          "durationTicks": 119,
          "midi": 62,
          "name": "D4",
          "ticks": 60480,
          "time": 227.368512,
          "velocity": 0.7874015748031497
        },
        {
          "duration": 0.2218046000000129,
          "durationTicks": 59,
          "midi": 64,
          "name": "E4",
          "ticks": 60600,
          "time": 227.81964,
          "velocity": 0.7874015748031497
        },
        {
          "duration": 0.22180459999998448,
          "durationTicks": 59,
          "midi": 62,
          "name": "D4",
          "ticks": 60660,
          "time": 228.045204,
          "velocity": 0.7874015748031497
        },
        {
          "duration": 0.6729325999999958,
          "durationTicks": 179,
          "midi": 64,
          "name": "E4",
          "ticks": 60720,
          "time": 228.270768,
          "velocity": 0.7874015748031497
        },
        {
          "duration": 0.22180459999998448,
          "durationTicks": 59,
          "midi": 59,
          "name": "B3",
          "ticks": 60900,
          "time": 228.94746,
          "velocity": 0.7874015748031497
        }
      ],
      "endOfTrackTicks": 60959
    },
    {
      "channel": 4,
      "controlChanges": {
        "7": [
          {
            "number": 7,
            "ticks": 0,
            "time": 0,
            "value": 1
          }
        ]
      },
      "pitchBends": [],
      "instrument": {
        "family": "guitar",
        "number": 29,
        "name": "overdriven guitar"
      },
      "name": "Gt 1 - Lead",
      "notes": [
        {
          "duration": 0.6729325999999958,
          "durationTicks": 179,
          "midi": 69,
          "name": "A4",
          "ticks": 57840,
          "time": 217.443696,
          "velocity": 0.7874015748031497
        },
        {
          "duration": 0.6729325999999958,
          "durationTicks": 179,
          "midi": 69,
          "name": "A4",
          "ticks": 58800,
          "time": 221.05272,
          "velocity": 0.7874015748031497
        },
        {
          "duration": 0.6729325999999958,
          "durationTicks": 179,
          "midi": 69,
          "name": "A4",
          "ticks": 59760,
          "time": 224.661744,
          "velocity": 0.7874015748031497
        },
        {
          "duration": 0.6729325999999958,
          "durationTicks": 179,
          "midi": 69,
          "name": "A4",
          "ticks": 60720,
          "time": 228.270768,
          "velocity": 0.7874015748031497
        }
      ],
      "endOfTrackTicks": 60899
    },
    {
      "channel": 5,
      "controlChanges": {},
      "pitchBends": [],
      "instrument": {
        "family": "sound effects",
        "number": 120,
        "name": "guitar fret noise"
      },
      "name": "Pick Slide",
      "notes": [
        {
          "duration": 0.44736860000000434,
          "durationTicks": 119,
          "midi": 52,
          "name": "E3",
          "ticks": 53160,
          "time": 199.84970399999997,
          "velocity": 0.7874015748031497
        },
        {
          "duration": 0.44736860000000434,
          "durationTicks": 119,
          "midi": 41,
          "name": "F2",
          "ticks": 53160,
          "time": 199.84970399999997,
          "velocity": 0.7874015748031497
        },
        {
          "duration": 0.44736860000000434,
          "durationTicks": 119,
          "midi": 46,
          "name": "A#2",
          "ticks": 53160,
          "time": 199.84970399999997,
          "velocity": 0.7874015748031497
        },
        {
          "duration": 0.44736860000000434,
          "durationTicks": 119,
          "midi": 50,
          "name": "D3",
          "ticks": 53160,
          "time": 199.84970399999997,
          "velocity": 0.7874015748031497
        },
        {
          "duration": 0.44736860000000434,
          "durationTicks": 119,
          "midi": 42,
          "name": "F#2",
          "ticks": 53160,
          "time": 199.84970399999997,
          "velocity": 0.7874015748031497
        }
      ],
      "endOfTrackTicks": 53279
    },
    {
      "channel": 0,
      "controlChanges": {},
      "pitchBends": [],
      "instrument": {
        "family": "piano",
        "number": 0,
        "name": "acoustic grand piano"
      },
      "name": "'Thunderstruck'",
      "notes": [],
      "endOfTrackTicks": 0
    },
    {
      "channel": 0,
      "controlChanges": {},
      "pitchBends": [],
      "instrument": {
        "family": "piano",
        "number": 0,
        "name": "acoustic grand piano"
      },
      "name": "     by AC/DC",
      "notes": [],
      "endOfTrackTicks": 0
    },
    {
      "channel": 0,
      "controlChanges": {},
      "pitchBends": [],
      "instrument": {
        "family": "piano",
        "number": 0,
        "name": "acoustic grand piano"
      },
      "name": "Midi by:",
      "notes": [],
      "endOfTrackTicks": 0
    },
    {
      "channel": 0,
      "controlChanges": {},
      "pitchBends": [],
      "instrument": {
        "family": "piano",
        "number": 0,
        "name": "acoustic grand piano"
      },
      "name": "Mel Powell - 2001 (Rev 1.1)",
      "notes": [],
      "endOfTrackTicks": 0
    },
    {
      "channel": 0,
      "controlChanges": {},
      "pitchBends": [],
      "instrument": {
        "family": "piano",
        "number": 0,
        "name": "acoustic grand piano"
      },
      "name": "www.geocities.com/axemaniacuk",
      "notes": [],
      "endOfTrackTicks": 0
    }
  ]
}